<svg width="2475" height="365" viewBox="0 0 2475 365" fill="none" xmlns="http://www.w3.org/2000/svg">
<g id="AV-5-3" clip-path="url(#clip0_14_641)">
<rect width="2475" height="365" fill="#1E1E1E"/>
<g id="Spaces">
<path id="av-5-3-lift" opacity="0.2" d="M330 30H230V110H330V30Z" fill="#A091F8"/>
<path id="av-5-3-stair-1" opacity="0.2" d="M230 30H5V130H230V30Z" fill="#9CD9BC"/>
<path id="av-5-3-wcw" opacity="0.2" d="M570 5H330V130H570V5Z" fill="#F783CB"/>
<path id="av-5-3-wcm" opacity="0.2" d="M770 5H570V130H770V5Z" fill="#9CBBFF"/>
<path id="av-5-3-stair-2" opacity="0.2" d="M2470 30H2370V260H2470V30Z" fill="#9CD9BC"/>
<path id="av-5301" d="M330 200H5V360H350V210H330V200Z" fill="#3B3C41"/>
<path id="av-3502" d="M670 210H350V360H670V210Z" fill="#3B3C41"/>
<path id="av-5303" d="M1070 290V5H770V290H1070Z" fill="#3B3C41"/>
<path id="av-5304" d="M1170 5H1070V290H1170V5Z" fill="#3B3C41"/>
<path id="av-5305" d="M1370 5H1170V290H1370V5Z" fill="#3B3C41"/>
<path id="av-5306" d="M1570 5H1370V290H1570V5Z" fill="#3B3C41"/>
<path id="av-5307" d="M1770 5H1570V290H1770V5Z" fill="#3B3C41"/>
<path id="av-5308" d="M2170 5H1770V290H2170V5Z" fill="#3B3C41"/>
<path id="av-5309" d="M2370 5H2170V290H2280V170H2370V5Z" fill="#3B3C41"/>
</g>
<g id="Walls">
<path id="Subtract" d="M473 130H467V110H473V130ZM473 80H467V5H473V80Z" fill="#A5A5A7"/>
<path id="Subtract_2" d="M673 130H667V60H673V130ZM673 30H667V5H673V30Z" fill="#A5A5A7"/>
<path id="Subtract_3" d="M573 360H567V260H573V360ZM573 230H567V210H573V230Z" fill="#A5A5A7"/>
<path id="Vector 1" d="M230 30H5V360H2370V260H2470V30H2370V5H2170H1770H1570H1370H1170H1070H770H670H570H470H330V30H280H230Z" stroke="#D9D9D9" stroke-width="10"/>
<path id="Vector 5" d="M570 5V130" stroke="#D9D9D9" stroke-width="10"/>
<path id="Vector 8" d="M2170 5V290" stroke="#D9D9D9" stroke-width="10"/>
<path id="Vector 11" d="M1070 5V290" stroke="#D9D9D9" stroke-width="10"/>
<path id="Vector 12" d="M1170 5V290" stroke="#D9D9D9" stroke-width="10"/>
<path id="Vector 13" d="M1370 5V290" stroke="#D9D9D9" stroke-width="10"/>
<path id="Vector 14" d="M1570 5V290" stroke="#D9D9D9" stroke-width="10"/>
<path id="Vector 15" d="M1770 5V290" stroke="#D9D9D9" stroke-width="10"/>
<path id="Vector 18" d="M350 210V360" stroke="#D9D9D9" stroke-width="10"/>
<path id="Subtract_4" d="M675 205V360H665V215H423V205H675ZM335 205H377V215H325V205H113V195H335V205ZM67 205H5V195H67V205Z" fill="#D9D9D9"/>
<path id="Subtract_5" d="M257 115H230V105H257V115ZM330 115H303V105H330V115Z" fill="#D9D9D9"/>
<path id="Subtract_6" d="M335 125H347V135H325V25H335V125ZM707 135H393V125H707V135ZM775 135H753V125H765V5H775V135Z" fill="#D9D9D9"/>
<path id="Subtract_7" d="M775 285H867V295H765V130H775V285ZM1097 295H913V285H1097V295ZM1247 295H1143V285H1247V295ZM1447 295H1293V285H1447V295ZM1647 295H1493V285H1647V295ZM1897 295H1693V285H1897V295ZM2197 295H1943V285H2197V295ZM2370 175H2285V295H2243V285H2275V165H2370V175Z" fill="#D9D9D9"/>
<path id="Subtract_8" d="M2375 260H2365V255H2375V260ZM2375 175H2365V25H2375V175Z" fill="#D9D9D9"/>
<path id="Subtract_9" d="M20 135H5V125H20V135ZM235 135H100V125H225V25H235V135Z" fill="#D9D9D9"/>
</g>
<g id="Textes">
<text id="text 13" fill="#D9D9D9" xml:space="preserve" style="white-space: pre" font-family="GothamSSm" font-size="24" font-weight="bold" letter-spacing="0em"><tspan x="880.172" y="156.8">&#x410;&#x412; 5303</tspan></text>
<text id="text 20" fill="#D9D9D9" xml:space="preserve" style="white-space: pre" font-family="GothamSSm" font-size="24" font-weight="bold" letter-spacing="0em"><tspan x="140.336" y="286.8">&#x410;&#x412; 5301</tspan></text>
<text id="text 21" fill="#D9D9D9" xml:space="preserve" style="white-space: pre" font-family="GothamSSm" font-size="24" font-weight="bold" letter-spacing="0em"><tspan x="425.066" y="286.8">&#x410;&#x412; 5302</tspan></text>
<text id="text 14" fill="#D9D9D9" xml:space="preserve" style="white-space: pre" font-family="GothamSSm" font-size="24" font-weight="bold" letter-spacing="0em"><tspan x="1080.33" y="156.8">&#x410;&#x412; 5304</tspan></text>
<text id="text 15" fill="#D9D9D9" xml:space="preserve" style="white-space: pre" font-family="GothamSSm" font-size="24" font-weight="bold" letter-spacing="0em"><tspan x="1230.5" y="156.8">&#x410;&#x412; 5305</tspan></text>
<text id="text 16" fill="#D9D9D9" xml:space="preserve" style="white-space: pre" font-family="GothamSSm" font-size="24" font-weight="bold" letter-spacing="0em"><tspan x="1430" y="156.8">&#x410;&#x412; 5306</tspan></text>
<text id="text 17" fill="#D9D9D9" xml:space="preserve" style="white-space: pre" font-family="GothamSSm" font-size="24" font-weight="bold" letter-spacing="0em"><tspan x="1630.28" y="156.8">&#x410;&#x412; 5307</tspan></text>
<text id="text 18" fill="#D9D9D9" xml:space="preserve" style="white-space: pre" font-family="GothamSSm" font-size="24" font-weight="bold" letter-spacing="0em"><tspan x="1930.1" y="156.8">&#x410;&#x412; 5308</tspan></text>
<text id="text 19" fill="#D9D9D9" xml:space="preserve" style="white-space: pre" font-family="GothamSSm" font-size="24" font-weight="bold" letter-spacing="0em"><tspan x="2230.03" y="101.8">&#x410;&#x412; 5309</tspan></text>
</g>
<g id="Entrances">
<circle id="1" cx="60" cy="80" r="10" fill="#9CBBFF"/>
<circle id="2" cx="90" cy="200" r="10" fill="#9CBBFF"/>
<circle id="3" cx="280" cy="110" r="10" fill="#9CBBFF"/>
<circle id="4" cx="370" cy="130" r="10" fill="#9CBBFF"/>
<circle id="5" cx="730" cy="130" r="10" fill="#9CBBFF"/>
<circle id="10" cx="1470" cy="290" r="10" fill="#9CBBFF"/>
<circle id="11" cx="1670" cy="290" r="10" fill="#9CBBFF"/>
<circle id="12" cx="1920" cy="290" r="10" fill="#9CBBFF"/>
<circle id="13" cx="2220" cy="290" r="10" fill="#9CBBFF"/>
<circle id="14" cx="2420" cy="215" r="10" fill="#9CBBFF"/>
<circle id="9" cx="1270" cy="290" r="10" fill="#9CBBFF"/>
<circle id="6" cx="400" cy="210" r="10" fill="#9CBBFF"/>
<circle id="7" cx="890" cy="290" r="10" fill="#9CBBFF"/>
<circle id="8" cx="1120" cy="290" r="10" fill="#9CBBFF"/>
</g>
<g id="Icons">
<g id="Elevator">
<g id="Vector">
<path d="M296 67L290 61L284 67H296Z" fill="#A091F8"/>
<path d="M296 71L290 77L284 71H296Z" fill="#A091F8"/>
<path d="M278 67C278 64 276 61 273 61H269C266 61 264 64 264 67V72C264 74 265.5 75.5 267 75.5V85C267 86.6 268.333 87 269 87H273C273.667 87 275 86.6 275 85V75.5C276.5 75.5 278 74 278 72V67Z" fill="#A091F8"/>
<path d="M275 54C275 56.2091 273.209 58 271 58C268.791 58 267 56.2091 267 54C267 51.7909 268.791 50 271 50C273.209 50 275 51.7909 275 54Z" fill="#A091F8"/>
</g>
<path id="Vector 201" d="M267.5 97.5H255.5V42.5H304.5V97.5H292.5" stroke="#A091F8" stroke-width="5" stroke-linecap="round" stroke-linejoin="round"/>
</g>
<g id="Stair">
<g id="Stair frame">
<path id="Vector 152" d="M157 57H132V72H117V87H102V102H77" stroke="#9CD9BC" stroke-width="5" stroke-linecap="round" stroke-linejoin="round"/>
<path id="Vector 154" d="M89 57H104M104 57L101 71M104 57L77 78" stroke="#9CD9BC" stroke-width="3" stroke-linecap="round" stroke-linejoin="round"/>
<path id="Vector 155" d="M145 102H130M130 102L133 88M130 102L157 81" stroke="#9CD9BC" stroke-width="3" stroke-linecap="round" stroke-linejoin="round"/>
</g>
</g>
<g id="Woman">
<g id="Group 5">
<path id="Vector 200" d="M405.5 62L414 83.5H386L394.5 62" stroke="#F783CB" stroke-width="5" stroke-linecap="round" stroke-linejoin="round"/>
<circle id="Ellipse 9" cx="400" cy="44" r="8" stroke="#F783CB" stroke-width="5" stroke-linecap="round" stroke-linejoin="round"/>
</g>
</g>
<g id="Men">
<g id="Group 6">
<path id="Vector 200_2" d="M725.5 83.5L734 62H706L714.5 83.5" stroke="#9CBBFF" stroke-width="5" stroke-linecap="round" stroke-linejoin="round"/>
<circle id="Ellipse 9_2" cx="720" cy="44" r="8" stroke="#9CBBFF" stroke-width="5" stroke-linecap="round" stroke-linejoin="round"/>
</g>
</g>
<g id="Stair_2">
<g id="Stair frame_2">
<path id="Vector 152_2" d="M2460 117H2435V132H2420V147H2405V162H2380" stroke="#9CD9BC" stroke-width="5" stroke-linecap="round" stroke-linejoin="round"/>
<path id="Vector 154_2" d="M2392 117H2407M2407 117L2404 131M2407 117L2380 138" stroke="#9CD9BC" stroke-width="3" stroke-linecap="round" stroke-linejoin="round"/>
<path id="Vector 155_2" d="M2448 162H2433M2433 162L2436 148M2433 162L2460 141" stroke="#9CD9BC" stroke-width="3" stroke-linecap="round" stroke-linejoin="round"/>
</g>
</g>
<g id="Doors">
<path id="Vector 301" d="M2361 221L2368 249V255" stroke="#A5A5A7" stroke-width="6"/>
<path id="Vector 302" d="M2361 209L2368 181V175" stroke="#A5A5A7" stroke-width="6"/>
</g>
<g id="Doors_2">
<path id="Vector 301_2" d="M66 139L94 132H100" stroke="#A5A5A7" stroke-width="6"/>
<path id="Vector 302_2" d="M54 139L26 132H20" stroke="#A5A5A7" stroke-width="6"/>
</g>
</g>
</g>
<defs>
<clipPath id="clip0_14_641">
<rect width="2475" height="365" fill="white"/>
</clipPath>
</defs>
</svg>
