<svg width="2475" height="365" viewBox="0 0 2475 365" fill="none" xmlns="http://www.w3.org/2000/svg">
<g id="AV-5-5" clip-path="url(#clip0_14_955)">
<rect width="2475" height="365" fill="#1E1E1E"/>
<g id="Spaces">
<path id="av-5-5-lift" opacity="0.2" d="M330 30H230V110H330V30Z" fill="#A091F8"/>
<path id="av-5-5-stair-1" opacity="0.2" d="M230 30H5V130H230V30Z" fill="#9CD9BC"/>
<path id="av-5-5-wcw" opacity="0.2" d="M570 5H330V130H570V5Z" fill="#F783CB"/>
<path id="av-5-5-wcm" opacity="0.2" d="M770 5H570V130H770V5Z" fill="#9CBBFF"/>
<path id="av-5-5-stair-2" opacity="0.2" d="M2470 30H2370V260H2470V30Z" fill="#9CD9BC"/>
<path id="av-5513" d="M570 210H360V360H570V210Z" fill="#3B3C41"/>
<path id="av-5512" d="M770 210H570V360H770V210Z" fill="#3B3C41"/>
<path id="av-5511" d="M970 210H770V360H970V210Z" fill="#3B3C41"/>
<path id="av-5510" d="M1070 210H970V360H1070V210Z" fill="#3B3C41"/>
<path id="av-5509" d="M1170 210H1070V360H1170V210Z" fill="#3B3C41"/>
<path id="av-5508" d="M1340 210H1170V360H1340V210Z" fill="#3B3C41"/>
<path id="av-5507" d="M1460 210H1340V360H1460V210Z" fill="#3B3C41"/>
<path id="av-5515" d="M360 210H5V360H360V210Z" fill="#3B3C41"/>
<path id="av-5501" d="M770 130H835V70H870V5H770V130Z" fill="#3B3C41"/>
<path id="av-5502" d="M1160 5H870V70H905V130H1160V5Z" fill="#3B3C41"/>
<path id="av-5503" d="M1340 5H1160V130H1340V5Z" fill="#3B3C41"/>
<path id="av-5503a" d="M1460 5H1340V130H1460V5Z" fill="#3B3C41"/>
<path id="av-5504" d="M1940 5H1460V360H2130V290H1940V5Z" fill="#3B3C41"/>
<path id="av-5505" d="M2130 5H1940V290H2130V5Z" fill="#3B3C41"/>
<path id="av-5506" d="M2370 5H2130V160H2370V5Z" fill="#3B3C41"/>
<path id="av-5507a" d="M2370 270H2230L2210 290V360H2370V270Z" fill="#3B3C41"/>
</g>
<g id="Walls">
<path id="Subtract" d="M973 130H967V100H973V130ZM973 70H967V5H973V70Z" fill="#A5A5A7"/>
<path id="Subtract_2" d="M1233 130H1227V100H1233V130ZM1233 70H1227V5H1233V70Z" fill="#A5A5A7"/>
<path id="Subtract_3" d="M1013 267H1075V273H1007V266H1013V267ZM1013 220H1007V210H1013V220Z" fill="#A5A5A7"/>
<path id="Vector 6" d="M280 210V360" stroke="#A5A5A7" stroke-width="6"/>
<path id="Subtract_4" d="M473 130H467V110H473V130ZM473 80H467V5H473V80Z" fill="#A5A5A7"/>
<path id="Subtract_5" d="M673 130H667V60H673V130ZM673 30H667V5H673V30Z" fill="#A5A5A7"/>
<path id="Vector 1" d="M230 30H5V360H2370V260H2470V30H2370V5H2170H1770H1570H1370H1170H1070H770H670H570H470H330V30H280H230Z" stroke="#D9D9D9" stroke-width="10"/>
<path id="Vector 5" d="M570 5V130" stroke="#D9D9D9" stroke-width="10"/>
<path id="Subtract_6" d="M1283 297H1295V303H1277V210H1283V297ZM1340 297V303H1325V297H1340Z" fill="#A5A5A7"/>
<path id="Subtract_7" d="M100 215H5V205H100V215ZM300 215H146V205H300V215ZM440 215H346V205H440V215ZM650 215H486V205H650V215ZM840 215H696V205H840V215ZM1016 215H886V205H1016V215ZM1210 215H1062V205H1210V215ZM1380 215H1256V205H1380V215ZM1460 215H1426V205H1460V215Z" fill="#D9D9D9"/>
<path id="Subtract_8" d="M847 135H835V125H847V135ZM905 135H893V125H905V135Z" fill="#D9D9D9"/>
<path id="Subtract_9" d="M840 135H770V125H830V122H840V135ZM910 125H1260V135H900V122H910V125ZM1380 135H1306V125H1380V135ZM1460 135H1426V125H1460V135ZM910 76H900V75H840V76H830V65H910V76Z" fill="#D9D9D9"/>
<path id="Subtract_10" d="M1075 360H1065V266H1075V360ZM1075 220H1065V210H1075V220Z" fill="#D9D9D9"/>
<path id="Subtract_11" d="M1465 360H1455V193H1465V360ZM1465 147H1455V5H1465V147Z" fill="#D9D9D9"/>
<path id="Subtract_12" d="M2135 360H2125V348H2135V360ZM2135 302H2125V278H2135V302ZM2135 232H2125V5H2135V232Z" fill="#D9D9D9"/>
<path id="Subtract_13" d="M2290 275H2232.07L2215 292.07V360H2205V287.929L2206.46 286.465L2226.46 266.465L2227.93 265H2290V275ZM2370 275H2336V265H2370V275Z" fill="#D9D9D9"/>
<path id="Subtract_14" d="M2220 165H2130V155H2220V165ZM2370 165H2266V155H2370V165Z" fill="#D9D9D9"/>
<path id="Vector 11" d="M870 5V70" stroke="#D9D9D9" stroke-width="10"/>
<path id="Vector 12" d="M1160 5V130" stroke="#D9D9D9" stroke-width="10"/>
<path id="Vector 13" d="M1340 0V125" stroke="#D9D9D9" stroke-width="10"/>
<path id="Vector 15" d="M1940 10V290H2130" stroke="#D9D9D9" stroke-width="10"/>
<path id="Vector 18" d="M360 210V360" stroke="#D9D9D9" stroke-width="10"/>
<path id="Vector 307" d="M570 210V360" stroke="#D9D9D9" stroke-width="10"/>
<path id="Vector 308" d="M770 210V360" stroke="#D9D9D9" stroke-width="10"/>
<path id="Vector 309" d="M970 210V360" stroke="#D9D9D9" stroke-width="10"/>
<path id="Vector 311" d="M1170 210V360" stroke="#D9D9D9" stroke-width="10"/>
<path id="Vector 312" d="M1340 210V360" stroke="#D9D9D9" stroke-width="10"/>
<path id="Subtract_15" d="M257 115H230V105H257V115ZM330 115H303V105H330V115Z" fill="#D9D9D9"/>
<path id="Subtract_16" d="M335 125H347V135H325V25H335V125ZM707 135H393V125H707V135ZM775 135H753V125H765V5H775V135Z" fill="#D9D9D9"/>
<path id="Subtract_17" d="M2375 260H2365V255H2375V260ZM2375 175H2365V25H2375V175Z" fill="#D9D9D9"/>
<path id="Subtract_18" d="M20 135H5V125H20V135ZM235 135H100V125H225V25H235V135Z" fill="#D9D9D9"/>
</g>
<g id="Textes">
<text id="text 13" fill="#D9D9D9" xml:space="preserve" style="white-space: pre" font-family="GothamSSm" font-size="24" font-weight="bold" letter-spacing="0em"><tspan x="781.254" y="52.8">&#x410;&#x412; 5501</tspan></text>
<text id="text 20" fill="#D9D9D9" xml:space="preserve" style="white-space: pre" font-family="GothamSSm" font-size="24" font-weight="bold" letter-spacing="0em"><tspan x="145.109" y="293.8">&#x410;&#x412; 5515</tspan></text>
<text id="text 21" fill="#D9D9D9" xml:space="preserve" style="white-space: pre" font-family="GothamSSm" font-size="24" font-weight="bold" letter-spacing="0em"><tspan x="427.191" y="293.8">&#x410;&#x412; 5513</tspan></text>
<text id="text 23" fill="#D9D9D9" xml:space="preserve" style="white-space: pre" font-family="GothamSSm" font-size="24" font-weight="bold" letter-spacing="0em"><tspan x="632.062" y="293.8">&#x410;&#x412; 5512</tspan></text>
<text id="text 24" fill="#D9D9D9" xml:space="preserve" style="white-space: pre" font-family="GothamSSm" font-size="24" font-weight="bold" letter-spacing="0em"><tspan x="834.355" y="293.8">&#x410;&#x412; 5511</tspan></text>
<text id="text 25" fill="#D9D9D9" xml:space="preserve" style="white-space: pre" font-family="GothamSSm" font-size="24" font-weight="bold" letter-spacing="0em"><tspan x="981.172" y="293.8">&#x410;&#x412; 5510</tspan></text>
<text id="text 26" fill="#D9D9D9" xml:space="preserve" style="white-space: pre" font-family="GothamSSm" font-size="24" font-weight="bold" letter-spacing="0em"><tspan x="1079.45" y="293.8">&#x410;&#x412; 5509</tspan></text>
<text id="text 27" fill="#D9D9D9" xml:space="preserve" style="white-space: pre" font-family="GothamSSm" font-size="24" font-weight="bold" letter-spacing="0em"><tspan x="1185.02" y="293.8">&#x410;&#x412; 5508</tspan></text>
<text id="text 28" fill="#D9D9D9" xml:space="preserve" style="white-space: pre" font-family="GothamSSm" font-size="24" font-weight="bold" letter-spacing="0em"><tspan x="1361.2" y="293.8">&#x410;&#x412; 5507</tspan></text>
<text id="text 14" fill="#D9D9D9" xml:space="preserve" style="white-space: pre" font-family="GothamSSm" font-size="24" font-weight="bold" letter-spacing="0em"><tspan x="880.484" y="52.8">&#x410;&#x412; 5502</tspan></text>
<text id="text 15" fill="#D9D9D9" xml:space="preserve" style="white-space: pre" font-family="GothamSSm" font-size="24" font-weight="bold" letter-spacing="0em"><tspan x="1246.09" y="75.8">&#x410;&#x412; 5503</tspan></text>
<text id="text 16" fill="#D9D9D9" xml:space="preserve" style="white-space: pre" font-family="GothamSSm" font-size="24" font-weight="bold" letter-spacing="0em"><tspan x="1352.25" y="75.8">&#x410;&#x412; 5503 &#x410;</tspan></text>
<text id="text 17" fill="#D9D9D9" xml:space="preserve" style="white-space: pre" font-family="GothamSSm" font-size="24" font-weight="bold" letter-spacing="0em"><tspan x="1670.25" y="190.8">&#x410;&#x412; 5504</tspan></text>
<text id="text 18" fill="#D9D9D9" xml:space="preserve" style="white-space: pre" font-family="GothamSSm" font-size="24" font-weight="bold" letter-spacing="0em"><tspan x="1995.41" y="155.8">&#x410;&#x412; 5505</tspan></text>
<text id="text 19" fill="#D9D9D9" xml:space="preserve" style="white-space: pre" font-family="GothamSSm" font-size="24" font-weight="bold" letter-spacing="0em"><tspan x="2210.42" y="90.8">&#x410;&#x412; 5506</tspan></text>
<text id="text 22" fill="#D9D9D9" xml:space="preserve" style="white-space: pre" font-family="GothamSSm" font-size="24" font-weight="bold" letter-spacing="0em"><tspan x="2241.36" y="323.8">&#x410;&#x412; 5507 &#x410;</tspan></text>
</g>
<g id="Entrances">
<circle id="1" cx="60" cy="80" r="10" fill="#9CBBFF"/>
<circle id="3" cx="280" cy="110" r="10" fill="#9CBBFF"/>
<circle id="15" cx="123" cy="210" r="10" fill="#9CBBFF"/>
<circle id="17" cx="463" cy="210" r="10" fill="#9CBBFF"/>
<circle id="18" cx="673" cy="210" r="10" fill="#9CBBFF"/>
<circle id="19" cx="863" cy="210" r="10" fill="#9CBBFF"/>
<circle id="20" cx="1010" cy="243" r="10" fill="#9CBBFF"/>
<circle id="21" cx="1070" cy="243" r="10" fill="#9CBBFF"/>
<circle id="22" cx="1233" cy="210" r="10" fill="#9CBBFF"/>
<circle id="23" cx="1403" cy="210" r="10" fill="#9CBBFF"/>
<circle id="24" cx="1403" cy="130" r="10" fill="#9CBBFF"/>
<circle id="25" cx="1283" cy="130" r="10" fill="#9CBBFF"/>
<circle id="26" cx="905" cy="99" r="10" fill="#9CBBFF"/>
<circle id="27" cx="835" cy="99" r="10" fill="#9CBBFF"/>
<circle id="29" cx="2130" cy="255" r="10" fill="#9CBBFF"/>
<circle id="30" cx="2127" cy="325" r="10" fill="#9CBBFF"/>
<circle id="31" cx="2243" cy="160" r="10" fill="#9CBBFF"/>
<circle id="32" cx="2313" cy="270" r="10" fill="#9CBBFF"/>
<circle id="4" cx="370" cy="130" r="10" fill="#9CBBFF"/>
<circle id="5" cx="730" cy="130" r="10" fill="#9CBBFF"/>
<circle id="14" cx="2420" cy="215" r="10" fill="#9CBBFF"/>
</g>
<g id="Icons">
<g id="Elevator">
<g id="Vector">
<path d="M296 67L290 61L284 67H296Z" fill="#A091F8"/>
<path d="M296 71L290 77L284 71H296Z" fill="#A091F8"/>
<path d="M278 67C278 64 276 61 273 61H269C266 61 264 64 264 67V72C264 74 265.5 75.5 267 75.5V85C267 86.6 268.333 87 269 87H273C273.667 87 275 86.6 275 85V75.5C276.5 75.5 278 74 278 72V67Z" fill="#A091F8"/>
<path d="M275 54C275 56.2091 273.209 58 271 58C268.791 58 267 56.2091 267 54C267 51.7909 268.791 50 271 50C273.209 50 275 51.7909 275 54Z" fill="#A091F8"/>
</g>
<path id="Vector 201" d="M267.5 97.5H255.5V42.5H304.5V97.5H292.5" stroke="#A091F8" stroke-width="5" stroke-linecap="round" stroke-linejoin="round"/>
</g>
<g id="Stair">
<g id="Stair frame">
<path id="Vector 152" d="M157 57H132V72H117V87H102V102H77" stroke="#9CD9BC" stroke-width="5" stroke-linecap="round" stroke-linejoin="round"/>
<path id="Vector 154" d="M89 57H104M104 57L101 71M104 57L77 78" stroke="#9CD9BC" stroke-width="3" stroke-linecap="round" stroke-linejoin="round"/>
<path id="Vector 155" d="M145 102H130M130 102L133 88M130 102L157 81" stroke="#9CD9BC" stroke-width="3" stroke-linecap="round" stroke-linejoin="round"/>
</g>
</g>
<g id="Woman">
<g id="Group 5">
<path id="Vector 200" d="M405.5 62L414 83.5H386L394.5 62" stroke="#F783CB" stroke-width="5" stroke-linecap="round" stroke-linejoin="round"/>
<circle id="Ellipse 9" cx="400" cy="44" r="8" stroke="#F783CB" stroke-width="5" stroke-linecap="round" stroke-linejoin="round"/>
</g>
</g>
<g id="Men">
<g id="Group 6">
<path id="Vector 200_2" d="M725.5 83.5L734 62H706L714.5 83.5" stroke="#9CBBFF" stroke-width="5" stroke-linecap="round" stroke-linejoin="round"/>
<circle id="Ellipse 9_2" cx="720" cy="44" r="8" stroke="#9CBBFF" stroke-width="5" stroke-linecap="round" stroke-linejoin="round"/>
</g>
</g>
<g id="Stair_2">
<g id="Stair frame_2">
<path id="Vector 152_2" d="M2460 117H2435V132H2420V147H2405V162H2380" stroke="#9CD9BC" stroke-width="5" stroke-linecap="round" stroke-linejoin="round"/>
<path id="Vector 154_2" d="M2392 117H2407M2407 117L2404 131M2407 117L2380 138" stroke="#9CD9BC" stroke-width="3" stroke-linecap="round" stroke-linejoin="round"/>
<path id="Vector 155_2" d="M2448 162H2433M2433 162L2436 148M2433 162L2460 141" stroke="#9CD9BC" stroke-width="3" stroke-linecap="round" stroke-linejoin="round"/>
</g>
</g>
<g id="Doors">
<path id="Vector 301" d="M2361 221L2368 249V255" stroke="#A5A5A7" stroke-width="6"/>
<path id="Vector 302" d="M2361 209L2368 181V175" stroke="#A5A5A7" stroke-width="6"/>
</g>
<g id="Doors_2">
<path id="Vector 301_2" d="M66 139L94 132H100" stroke="#A5A5A7" stroke-width="6"/>
<path id="Vector 302_2" d="M54 139L26 132H20" stroke="#A5A5A7" stroke-width="6"/>
</g>
</g>
</g>
<defs>
<clipPath id="clip0_14_955">
<rect width="2475" height="365" fill="white"/>
</clipPath>
</defs>
</svg>
