<svg width="2370" height="2267" viewBox="0 0 2370 2267" fill="none" xmlns="http://www.w3.org/2000/svg">
<g id="A-2" clip-path="url(#clip0_1_1108)">
<rect width="2370" height="2267" fill="#1E1E1E"/>
<g id="Spaces">
<path id="a-224" d="M1432.94 593.539L1661 565L1676.18 694.442L1448.18 722.44L1432.94 593.539Z" fill="#3B3C41"/>
<path id="a-2-stair-5" opacity="0.2" d="M1417 469L1645 440L1661 569L1432 597L1417 469Z" fill="#9CD9BC"/>
<path id="a-221" d="M1808 791L2076 757L2092 881L1823 914L1808 791Z" fill="#3B3C41"/>
<path id="a-220" d="M1793.95 672.214L2063.22 638.095L2078.71 757.843L1808.43 791.001L1793.95 672.214Z" fill="#3B3C41"/>
<path id="a-219" d="M1778.12 550.315L2048.22 516.095L2063.71 635.843L1792.6 669.102L1778.12 550.315Z" fill="#3B3C41"/>
<path id="a-218" d="M1763.22 428.057L2031.23 394.094L2046.71 513.843L1777.71 546.844L1763.22 428.057Z" fill="#3B3C41"/>
<rect id="a-204" x="5" y="1255" width="270" height="225" fill="#3B3C41"/>
<rect id="a-205" x="275" y="1255" width="355" height="225" fill="#3B3C41"/>
<rect id="!a" x="90" y="1150" width="455" height="105" fill="#3B3C41"/>
<path id="a-2-stair-4" opacity="0.2" d="M180 1580H5V1623H117V1706H5V1860H180V1580Z" fill="#9CD9BC"/>
<path id="a-2-stair-2" opacity="0.2" d="M1345 1580H1533L1575 1915H1345V1580Z" fill="#9CD9BC"/>
<path id="a-2-stair-1" opacity="0.2" d="M2113 1513L2278 1478L2285 1504L2213 1523L2239 1619L2310 1600L2359 1787L2153 1827L2113 1513Z" fill="#9CD9BC"/>
<path id="a-2-crossing-v" opacity="0.2" d="M2239 1619L2213 1523L2285 1504L2343 1493L2365.5 1578L2310 1600L2239 1619Z" fill="#9CD9BC"/>
<rect id="a-202" x="935" y="1580" width="195" height="230" fill="#3B3C41"/>
<rect id="a-201" x="1130" y="1580" width="100" height="230" fill="#3B3C41"/>
<rect id="a-2-wcu" opacity="0.2" x="1230" y="1580" width="115" height="230" fill="#A091F8"/>
<rect id="a-203" x="180" y="1580" width="755" height="230" fill="#3B3C41"/>
<rect id="a-206" x="630" y="1255" width="295" height="225" fill="#3B3C41"/>
<rect id="a-209" x="1125" y="1255" width="100" height="225" fill="#3B3C41"/>
<rect id="a-208" x="1025" y="1255" width="100" height="225" fill="#3B3C41"/>
<rect id="a-207" x="925" y="1255" width="100" height="225" fill="#3B3C41"/>
<rect id="a-210" x="1225" y="1255" width="225" height="225" fill="#3B3C41"/>
<path id="a-214" d="M1450 1255H1510L1507.17 1233.5L1720 1206V1450H1530V1480H1450V1255Z" fill="#3B3C41"/>
<path id="a-215" d="M1491 1072.26L1718.01 1044.34L1739.06 1204.52L1510 1233L1491 1072.26Z" fill="#3B3C41"/>
<path id="a-216" d="M1446.36 723.716L1673.36 695.73L1717.74 1045.93L1488.73 1074.83L1446.36 723.716Z" fill="#3B3C41"/>
<path id="a-211" d="M1823.21 914.66L2037.15 887.198L2072 1174L1857.98 1199.82L1823.21 914.66Z" fill="#3B3C41"/>
<path id="a-212" d="M1867.36 1199.7L2072.37 1174.79L2113.81 1513.59L1908.8 1538.49L1867.36 1199.7Z" fill="#3B3C41"/>
<path id="a-200" opacity="0.2" d="M1533 1580L2113.56 1513.37L2198.56 2188.87L1618 2260L1533 1580Z" fill="#F783CB"/>
<path id="!Rectangle 109" d="M1840 1432L1894.5 1423L1909.5 1535.5L1852.5 1544.5L1840 1432Z" fill="#3B3C41"/>
<path id="a-2-wcm" opacity="0.2" d="M1720 1206.5L1795 1196.5V1360H1720V1206.5Z" fill="#9CBBFF"/>
<path id="a-2-crossing-b" opacity="0.2" d="M0 1623H117V1706H0V1623Z" fill="#9CD9BC"/>
</g>
<g id="Walls">
<path id="Subtract" fill-rule="evenodd" clip-rule="evenodd" d="M1900.05 1022.4L2052.36 1003.98L2051.64 998.022L1899.32 1016.44L1900.05 1022.4ZM1870.27 1026L1869.54 1020.04L1836.64 1024.02L1837.36 1029.98L1870.27 1026Z" fill="#A5A5A7"/>
<path id="Subtract_2" fill-rule="evenodd" clip-rule="evenodd" d="M1027 1637.74V1810H1033V1637.74H1027ZM1027 1607.87H1033V1580H1027V1607.87Z" fill="#A5A5A7"/>
<path id="Subtract_3" fill-rule="evenodd" clip-rule="evenodd" d="M868 1663V1657H835V1663H868ZM898 1663H935V1657H898V1663Z" fill="#A5A5A7"/>
<path id="Subtract_4" fill-rule="evenodd" clip-rule="evenodd" d="M832 1745V1810H838V1745H832ZM832 1715H838V1580H832V1715Z" fill="#A5A5A7"/>
<path id="Subtract_5" fill-rule="evenodd" clip-rule="evenodd" d="M427 1684V1810H433V1684H427ZM427 1654H433V1580H427V1654Z" fill="#A5A5A7"/>
<path id="Subtract_6" fill-rule="evenodd" clip-rule="evenodd" d="M327 1660V1810H333V1660H327ZM327 1630H333V1580H327V1630Z" fill="#A5A5A7"/>
<path id="Subtract_7" fill-rule="evenodd" clip-rule="evenodd" d="M517 1728V1810H523V1728H517ZM517 1698H523V1580H517V1698Z" fill="#A5A5A7"/>
<path id="Subtract_8" fill-rule="evenodd" clip-rule="evenodd" d="M627 1649V1810H633V1649H627ZM627 1619H633V1580H627V1619Z" fill="#A5A5A7"/>
<path id="Subtract_9" fill-rule="evenodd" clip-rule="evenodd" d="M197 1373V1367H5V1373H197ZM227 1373H275V1367H227V1373Z" fill="#A5A5A7"/>
<path id="Subtract_10" fill-rule="evenodd" clip-rule="evenodd" d="M197 1243L197 1255H203L203 1243H197ZM197 1213H203L203 1150H197L197 1213Z" fill="#A5A5A7"/>
<path id="Vector 212" d="M2114 1514L1529 1580" stroke="#D9D9D9" stroke-width="10"/>
<path id="Vector 248" d="M2141 1723.5L1558.5 1801" stroke="#A5A5A7" stroke-width="6"/>
<path id="Vector 202" d="M180 1580V1810" stroke="#D9D9D9" stroke-width="10"/>
<path id="Vector 240" d="M935 1580V1810" stroke="#D9D9D9" stroke-width="10"/>
<path id="Vector 210" d="M1230 1580V1810" stroke="#D9D9D9" stroke-width="10"/>
<path id="Vector 211" d="M1345 1580V1810" stroke="#D9D9D9" stroke-width="10"/>
<path id="Vector 200" d="M630 1255V1480" stroke="#D9D9D9" stroke-width="10"/>
<path id="Vector 198" d="M1450 1255V1480" stroke="#D9D9D9" stroke-width="10"/>
<path id="Vector 228" d="M1512 1232L1800 1195" stroke="#D9D9D9" stroke-width="10"/>
<path id="Subtract_11" fill-rule="evenodd" clip-rule="evenodd" d="M270 1480V1235H280V1480H270ZM280 1189H270V1150H280V1189Z" fill="#D9D9D9"/>
<path id="Subtract_12" fill-rule="evenodd" clip-rule="evenodd" d="M305 1250V1260H5V1250H305ZM351 1250V1260L630 1260V1250H351Z" fill="#D9D9D9"/>
<path id="Subtract_13" fill-rule="evenodd" clip-rule="evenodd" d="M1125 1810V1580H1135V1810H1125Z" fill="#D9D9D9"/>
<path id="Subtract_14" fill-rule="evenodd" clip-rule="evenodd" d="M1399 1585V1575H1290V1585H1399ZM1479 1585H1530V1575H1479V1585ZM1244 1575V1585H1202V1575H1244ZM1057 1585V1575H403V1585H1057ZM1103 1585H1156V1575H1103V1585ZM357 1585V1575H133V1585H357ZM53 1575V1585H5V1575H53Z" fill="#D9D9D9"/>
<path id="Subtract_15" fill-rule="evenodd" clip-rule="evenodd" d="M727 1446.25V1480H733V1446.25H727ZM727 1415.57H733V1255H727V1415.57Z" fill="#A5A5A7"/>
<path id="Subtract_16" fill-rule="evenodd" clip-rule="evenodd" d="M827 1446.25V1480H833V1446.25H827ZM827 1415.57H833V1255H827V1415.57Z" fill="#A5A5A7"/>
<path id="Subtract_17" fill-rule="evenodd" clip-rule="evenodd" d="M920 1480V1255H930V1480H920Z" fill="#D9D9D9"/>
<path id="Vector 195" d="M1025 1255V1480" stroke="#D9D9D9" stroke-width="10"/>
<path id="Vector 330" d="M1125 1255V1480" stroke="#D9D9D9" stroke-width="10"/>
<path id="Vector 331" d="M1225 1255V1480" stroke="#D9D9D9" stroke-width="10"/>
<path id="Subtract_18" fill-rule="evenodd" clip-rule="evenodd" d="M1277 1485V1475H1274.18H1271.09H1268H1264.92H1261.84H1258.77H1255.7H1252.63H1249.57H1246.51H1243.45H1240.4H1237.35H1234.31H1231.27H1228.23H1225.2H1222.17H1219.15H1216.13H1213.11H1210.1H1207.09H1204.08H1202V1485H1204.08H1207.09H1210.1H1213.11H1216.13H1219.15H1222.17H1225.2H1228.23H1231.27H1234.31H1237.35H1240.4H1243.45H1246.51H1249.57H1252.63H1255.7H1258.77H1261.84H1264.92H1268H1271.09H1274.18H1277ZM1323.04 1485H1324.23H1327.39H1330.56H1333.74H1336.92H1340.1H1343.29H1346.48H1349.68H1352.88H1356.09H1359.3H1362.52H1365.74H1368.97H1372.2H1375.44H1378.68H1381.92H1385.18H1388.43H1391.69H1394.96H1398.23H1401.51H1404.79H1408.08H1411.37H1414.66H1417.97H1421.27H1424.59H1427.9H1431.23H1434.55H1437.89H1441.23H1444.57H1447.92H1451.28H1454.64H1458H1461.38H1464.75H1468.14H1469V1475H1468.14H1464.75H1461.38H1458H1454.64H1451.28H1447.92H1444.57H1441.23H1437.89H1434.55H1431.23H1427.9H1424.59H1421.27H1417.97H1414.66H1411.37H1408.08H1404.79H1401.51H1398.23H1394.96H1391.69H1388.43H1385.18H1381.92H1378.68H1375.44H1372.2H1368.97H1365.74H1362.52H1359.3H1356.09H1352.88H1349.68H1346.48H1343.29H1340.1H1336.92H1333.74H1330.56H1327.39H1324.23H1323.04V1485ZM1516.09 1485H1515V1475H1516.09H1519.56H1523.03H1526.51H1530V1485H1526.51H1523.03H1519.56H1516.09ZM1156 1485V1475H1153.52H1150.58H1147.64H1144.7H1141.76H1138.83H1135.9H1132.98H1130.06H1127.14H1124.22H1121.31H1118.4H1115.49H1112.59H1109.68H1106.79H1103.89H1101H1100.04V1485H1101H1103.89H1106.79H1109.68H1112.59H1115.49H1118.4H1121.31H1124.22H1127.14H1130.06H1132.98H1135.9H1138.83H1141.76H1144.7H1147.64H1150.58H1153.52H1156ZM169 1475V1485H166.031H162.799H159.563H156.321H153.075H149.824H146.568H143.307H140.041H136.769H133.493H130.212H126.925H123.633H120.336H117.034H113.727H110.415H107.097H103.774H100.445H97.1117H93.7726H90.4282H87.0783H83.723H80.3623H76.9961H73.6244H70.2472H66.8644H63.4761H60.0822H56.6827H53.2775H49.8666H46.4501H43.0279H39.5999H36.1662H32.7267H29.2815H25.8303H22.3734H18.9105H15.4418H11.9672H8.48656H5V1475H8.48656H11.9672H15.4418H18.9105H22.3734H25.8303H29.2815H32.7267H36.1662H39.5999H43.0279H46.4501H49.8666H53.2775H56.6827H60.0822H63.4761H66.8644H70.2472H73.6244H76.9961H80.3623H83.723H87.0783H90.4282H93.7726H97.1117H100.445H103.774H107.097H110.415H113.727H117.034H120.336H123.633H126.925H130.212H133.493H136.769H140.041H143.307H146.568H149.824H153.075H156.321H159.563H162.799H166.031H169ZM217.088 1485H215.037V1475H217.088H220.24H223.388H226.531H229.669H232.804H235.933H239.059H242.18H245.297H248.41H251.518H254.622H257.722H260.817H263.909H266.996H270.08H273.159H276.234H279.305H282.372H285.435H288.494H291.549H294.6H297.648H300.691H303.73H306.766H309.798H312.826H315.85H318.871H321.888H324.901H327.91H330.916H333.918H336.917H339.912H342.903H345.891H348.876H351.857H354.834H357.808H360.779H363.746H366.71H369.671H372.628H375.582H378.532H381.48H384.424H387.365H390.302H393.237H396.168H399.097H402.022H404.944H407.863H410.78H413.693H416.603H419.51H422V1485H419.51H416.603H413.693H410.78H407.863H404.944H402.022H399.097H396.168H393.237H390.302H387.365H384.424H381.48H378.532H375.582H372.628H369.671H366.71H363.746H360.779H357.808H354.834H351.857H348.876H345.891H342.903H339.912H336.917H333.918H330.916H327.91H324.901H321.888H318.871H315.85H312.826H309.798H306.766H303.73H300.691H297.648H294.6H291.549H288.494H285.435H282.372H279.305H276.234H273.159H270.08H266.996H263.909H260.817H257.722H254.622H251.518H248.41H245.297H242.18H239.059H235.933H232.804H229.669H226.531H223.388H220.24H217.088ZM468.037 1485H468.505H471.363H474.218H477.072H479.922H482.771H485.617H488.46H491.301H494.14H496.976H499.811H502.643H505.472H508.3H511.125H513.948H516.769H519.588H522.404H525.219H528.032H530.842H533.651H536.457H539.262H542.064H544.865H547.664H550.461H553.256H556.049H558.841H561.63H564.418H567.204H569.989H572.772H575.553H578.332H581.11H583.886H586.661H589.434H592.206H594.976H597.745H600.512H603.278H606.042H608.805H611.567H614.327H617.086H619.844H622.601H625.356H628.11H630.863H633.614H636.365H639.114H641.863H644.61H647.356H650.101H652.845H655.588H658.331H661.072H663.812H666.552H669.29H672.028H674.765H677.501H680.236H682.971H685.705H688.438H691.17H693.902H696.633H699.364H702.094H704.824H707.552H710.281H713.009H715.736H718.463H721.19H723.916H726.642H729.367H732.092H734.817H737.542H740.266H742.99H745.714H748.438H751.161H753.885H756.608H759.331H762.054H764.777H767.5H770.223H772.946H775.669H778.392H781.115H783.839H786.562H789.286H792.01H794.734H797.458H800.183H802.908H805.633H808.358H811.084H813.81H816.537H819.264H821.991H824.719H827.448H830.176H832.906H835.636H838.367H841.098H843.83H846.562H849.295H852.029H854.764H857.499H860.235H861V1475H860.235H857.499H854.764H852.029H849.295H846.562H843.83H841.098H838.367H835.636H832.906H830.176H827.448H824.719H821.991H819.264H816.537H813.81H811.084H808.358H805.633H802.908H800.183H797.458H794.734H792.01H789.286H786.562H783.839H781.115H778.392H775.669H772.946H770.223H767.5H764.777H762.054H759.331H756.608H753.885H751.161H748.438H745.714H742.99H740.266H737.542H734.817H732.092H729.367H726.642H723.916H721.19H718.463H715.736H713.009H710.281H707.552H704.824H702.094H699.364H696.633H693.902H691.17H688.438H685.705H682.971H680.236H677.501H674.765H672.028H669.29H666.552H663.812H661.072H658.331H655.588H652.845H650.101H647.356H644.61H641.863H639.114H636.365H633.614H630.863H628.11H625.356H622.601H619.844H617.086H614.327H611.567H608.805H606.042H603.278H600.512H597.745H594.976H592.206H589.434H586.661H583.886H581.11H578.332H575.553H572.772H569.989H567.204H564.418H561.63H558.841H556.049H553.256H550.461H547.664H544.865H542.064H539.262H536.457H533.651H530.842H528.032H525.219H522.404H519.588H516.769H513.948H511.125H508.3H505.472H502.643H499.811H496.976H494.14H491.301H488.46H485.617H482.771H479.922H477.072H474.218H471.363H468.505H468.037V1485ZM1054 1475V1485H1052.23H1049.38H1046.54H1043.7H1040.86H1038.02H1035.19H1032.36H1029.53H1026.7H1023.88H1021.05H1018.23H1015.41H1012.6H1009.78H1006.97H1004.16H1001.35H1000.04V1475H1001.35H1004.16H1006.97H1009.78H1012.6H1015.41H1018.23H1021.05H1023.88H1026.7H1029.53H1032.36H1035.19H1038.02H1040.86H1043.7H1046.54H1049.38H1052.23H1054ZM954 1485V1475H953.89H951.114H948.339H945.566H942.794H940.024H937.255H934.488H931.722H928.958H926.195H923.433H920.673H917.914H915.156H912.399H909.644H907.037V1485H909.644H912.399H915.156H917.914H920.673H923.433H926.195H928.958H931.722H934.488H937.255H940.024H942.794H945.566H948.339H951.114H953.89H954Z" fill="#D9D9D9"/>
<path id="Subtract_19" fill-rule="evenodd" clip-rule="evenodd" d="M2149.34 1822.35L2150.09 1828L2160 1826.7L2159.26 1821.03L2149.34 1822.35ZM2138.83 1742.32L2148.74 1741L2118.91 1514L2109 1515.3L2138.83 1742.32Z" fill="#D9D9D9"/>
<path id="Vector 242" d="M1808 792L2077 758" stroke="#D9D9D9" stroke-width="10"/>
<path id="Vector 332" d="M1792 670L2061 636" stroke="#D9D9D9" stroke-width="10"/>
<path id="Vector 333" d="M1776 548L2045 514" stroke="#D9D9D9" stroke-width="10"/>
<path id="Vector 246" d="M1448 723L1676 695" stroke="#D9D9D9" stroke-width="10"/>
<path id="Vector 247" d="M1431 594L1662 566" stroke="#D9D9D9" stroke-width="10"/>
<path id="Vector 243" d="M1821 915L2090 880" stroke="#D9D9D9" stroke-width="10"/>
<path id="Vector 244" d="M1853 1200L2071 1173" stroke="#D9D9D9" stroke-width="10"/>
<path id="Subtract_20" fill-rule="evenodd" clip-rule="evenodd" d="M1817.9 1035.58L1837.03 1033.11L1835.75 1023.19L1816.68 1025.65L1817.9 1035.58ZM1738.56 1045.81L1737.34 1035.88L1489.36 1067.85L1490.64 1077.77L1738.56 1045.81Z" fill="#D9D9D9"/>
<path id="Subtract_21" fill-rule="evenodd" clip-rule="evenodd" d="M1687.97 834.587L1665.02 646.93L1674.95 645.712L1697.9 833.368L1687.97 834.587ZM1725.95 1145.19L1733.04 1203.11L1742.96 1201.89L1735.88 1143.97L1725.95 1145.19ZM1720.37 1099.54L1730.3 1098.32L1703.48 879.016L1693.55 880.235L1720.37 1099.54ZM1669.37 600.064L1659.44 601.282L1653.14 549.741L1663.06 548.523L1669.37 600.064ZM1653.36 469.135L1643.43 470.353L1640.04 442.607L1649.96 441.393L1653.36 469.135Z" fill="#D9D9D9"/>
<path id="Subtract_22" fill-rule="evenodd" clip-rule="evenodd" d="M1813.14 873.486L1839.07 1085.45L1849 1084.23L1823.07 872.267L1813.14 873.486ZM1853.04 1199.61L1844.66 1131.1L1854.58 1129.88L1862.96 1198.39L1853.04 1199.61ZM1807.56 827.838L1817.48 826.619L1808.51 753.258L1798.58 754.476L1807.56 827.838ZM1793 708.829L1802.93 707.61L1793.33 629.157L1783.4 630.376L1793 708.829ZM1779.42 515.442L1787.74 583.509L1777.82 584.728L1769.49 516.661L1779.42 515.442ZM1763.91 471.013L1773.83 469.794L1768.46 425.893L1758.54 427.107L1763.91 471.013Z" fill="#D9D9D9"/>
<path id="Subtract_23" fill-rule="evenodd" clip-rule="evenodd" d="M1891.76 1358.39L1871.96 1196.89L1862.04 1198.11L1881.84 1359.6L1891.76 1358.39ZM1897.36 1404.02L1887.43 1405.24L1903.54 1536.61L1913.46 1535.39L1897.36 1404.02Z" fill="#D9D9D9"/>
<path id="Subtract_24" fill-rule="evenodd" clip-rule="evenodd" d="M1552.95 1717.06L1564.8 1814.38L1554.87 1815.6L1543.02 1718.17L1552.95 1717.06ZM1547.4 1671.39L1535.96 1577.4L1526.04 1578.6L1537.46 1672.5L1547.4 1671.39ZM1564.53 1895.01L1574.46 1893.79L1576.96 1914.4L1567.04 1915.6L1564.53 1895.01Z" fill="#D9D9D9"/>
<path id="Subtract_25" fill-rule="evenodd" clip-rule="evenodd" d="M385 1180V1150H375V1180H385ZM385 1226H375V1255H385V1226Z" fill="#D9D9D9"/>
<path id="Vector 329" d="M90 1255V1150H545V1255" stroke="#D9D9D9" stroke-width="10"/>
<path id="Subtract_26" fill-rule="evenodd" clip-rule="evenodd" d="M0 -0.771362L5.71265 0.051259L630.713 90.0513L634.994 90.6678L635 94.9938C635.293 322.45 635.146 498.701 635 674.942V675.004V675.075C634.855 850.021 634.709 1024.97 634.994 1250H1504.38L1412.63 467.993L1412.05 463.041L1417 462.446L2033.26 388.381L2038.22 387.785L2038.82 392.743L2097.85 879.174L2098.45 884.108L2093.52 884.736L2043.43 891.113L2081.39 1199.36L2119.3 1507.15L2276.96 1473.76L2281.57 1472.79L2282.82 1477.32L2288.5 1497.88L2335.7 1485.17L2340.54 1483.87L2341.83 1488.71L2343.95 1496.68L2334.29 1499.27L2333.46 1496.13L2286.3 1508.83L2281.5 1510.12L2280.18 1505.33L2274.43 1484.52L2116.04 1518.06L2110.7 1519.19L2110.04 1513.78L2071.47 1200.59L2032.9 887.394L2032.29 882.451L2037.23 881.823L2087.32 875.444L2029.5 398.905L1423.15 471.78L1514.97 1254.42L1515.62 1260H1510H630H625.006L625 1255.01C624.707 1027.55 624.854 851.299 625 675.059V674.996V674.925C625.146 499.807 625.291 324.686 625.006 99.3326L10 10.7718V1624H0V5.00021V-0.771362ZM2354.85 1576.58L2355.91 1580.55L2308.61 1594.2L2303.91 1595.55L2305.17 1600.29L2353.78 1782.67L2152.98 1820.7L2148.37 1821.58L2148.95 1826.23L2193.35 2184.58L1620.02 2254.43L1576.96 1914.37L1576.41 1910H1572H1350V1810V1805H1345H180H175V1810V1855H10V1704H0V1860V1865H5H180H185V1860V1815H1340V1915V1920H1345H1567.59L1610.72 2260.63L1611.35 2265.57L1616.29 2264.96L2199.54 2193.9L2204.51 2193.29L2203.89 2188.32L2159.45 1829.65L2360.93 1791.49L2366.22 1790.49L2364.83 1785.29L2316.09 1602.45L2363.39 1588.8L2368.09 1587.45L2366.83 1582.71L2364.51 1573.99L2354.85 1576.58Z" fill="#D9D9D9"/>
<path id="Vector 332_2" d="M1530 1485V1450H1720V1207" stroke="#D9D9D9" stroke-width="10"/>
<path id="Subtract_27" fill-rule="evenodd" clip-rule="evenodd" d="M1800 1234V1200H1790V1234H1800ZM1800 1280H1790V1355H1720V1365H1795H1800V1360V1280Z" fill="#D9D9D9"/>
<path id="Vector 334" d="M1852 1544.5L1839 1432L1895 1423" stroke="#D9D9D9" stroke-width="10"/>
</g>
<g id="Textes">
<text id="text 5" fill="#D9D9D9" xml:space="preserve" style="white-space: pre" font-family="GothamSSm" font-size="24" font-weight="bold" letter-spacing="0em"><tspan x="112.352" y="1433.8">&#x410; 204</tspan></text>
<text id="text 7" fill="#D9D9D9" xml:space="preserve" style="white-space: pre" font-family="GothamSSm" font-size="24" font-weight="bold" letter-spacing="0em"><tspan x="425.02" y="1375.8">&#x410; 205</tspan></text>
<text id="text 10" fill="#D9D9D9" xml:space="preserve" style="white-space: pre" font-family="GothamSSm" font-size="24" font-weight="bold" letter-spacing="0em"><tspan x="353.195" y="1703.8">&#x410; 203</tspan></text>
<text id="text 13" fill="#D9D9D9" xml:space="preserve" style="white-space: pre" font-family="GothamSSm" font-size="24" font-weight="bold" letter-spacing="0em"><tspan x="1053.09" y="1702.8">&#x410; 202</tspan></text>
<text id="text 14" fill="#D9D9D9" xml:space="preserve" style="white-space: pre" font-family="GothamSSm" font-size="24" font-weight="bold" letter-spacing="0em"><tspan x="750.027" y="1375.8">&#x410; 206</tspan></text>
<text id="text 15" fill="#D9D9D9" xml:space="preserve" style="white-space: pre" font-family="GothamSSm" font-size="24" font-weight="bold" letter-spacing="0em"><tspan x="1047.12" y="1375.8">&#x410; 208</tspan></text>
<text id="text 16" fill="#D9D9D9" xml:space="preserve" style="white-space: pre" font-family="GothamSSm" font-size="24" font-weight="bold" letter-spacing="0em"><tspan x="1312.27" y="1375.8">&#x410; 210</tspan></text>
<text id="text 18" fill="#D9D9D9" xml:space="preserve" style="white-space: pre" font-family="GothamSSm" font-size="24" font-weight="bold" letter-spacing="0em"><tspan x="1560.04" y="1351.8">&#x410; 214</tspan></text>
<text id="text 21" fill="#D9D9D9" xml:space="preserve" style="white-space: pre" font-family="GothamSSm" font-size="24" font-weight="bold" letter-spacing="0em"><tspan x="1966.16" y="1364.8">&#x410; 212</tspan></text>
<text id="text 22" fill="#D9D9D9" xml:space="preserve" style="white-space: pre" font-family="GothamSSm" font-size="24" font-weight="bold" letter-spacing="0em"><tspan x="1932.45" y="1101.8">&#x410; 211</tspan></text>
<text id="text 23" fill="#D9D9D9" xml:space="preserve" style="white-space: pre" font-family="GothamSSm" font-size="24" font-weight="bold" letter-spacing="0em"><tspan x="1925.16" y="843.8">&#x410; 221</tspan></text>
<text id="text 24" fill="#D9D9D9" xml:space="preserve" style="white-space: pre" font-family="GothamSSm" font-size="24" font-weight="bold" letter-spacing="0em"><tspan x="1879.3" y="478.8">&#x410; 218</tspan></text>
<text id="text 25" fill="#D9D9D9" xml:space="preserve" style="white-space: pre" font-family="GothamSSm" font-size="24" font-weight="bold" letter-spacing="0em"><tspan x="1527.39" y="651.8">&#x410; 224</tspan></text>
<text id="text 26" fill="#D9D9D9" xml:space="preserve" style="white-space: pre" font-family="GothamSSm" font-size="24" font-weight="bold" letter-spacing="0em"><tspan x="1561.21" y="883.8">&#x410; 216</tspan></text>
<text id="text 17-2" fill="#D9D9D9" xml:space="preserve" style="white-space: pre" font-family="GothamSSm" font-size="24" font-weight="bold" letter-spacing="0em"><tspan x="1836.08" y="1892.8">&#x410; 200</tspan></text>
<text id="text 17-1" opacity="0.5" fill="#D9D9D9" xml:space="preserve" style="white-space: pre" font-family="GothamSSm" font-size="24" font-weight="bold" letter-spacing="0em"><tspan x="1794.42" y="1993.8">&#x410;&#x41a;&#x422;&#x41e;&#x412;&#x42b;&#x419; &#x417;&#x410;&#x41b;</tspan></text>
<text id="text 27" fill="#D9D9D9" xml:space="preserve" style="white-space: pre" font-family="GothamSSm" font-size="24" font-weight="bold" letter-spacing="0em"><tspan x="1158.36" y="1702.8">&#x410; 201</tspan></text>
<text id="text 28" fill="#D9D9D9" xml:space="preserve" style="white-space: pre" font-family="GothamSSm" font-size="24" font-weight="bold" letter-spacing="0em"><tspan x="948.301" y="1375.8">&#x410; 207</tspan></text>
<text id="text 29" fill="#D9D9D9" xml:space="preserve" style="white-space: pre" font-family="GothamSSm" font-size="24" font-weight="bold" letter-spacing="0em"><tspan x="1147.05" y="1375.8">&#x410; 209</tspan></text>
<text id="text 30" fill="#D9D9D9" xml:space="preserve" style="white-space: pre" font-family="GothamSSm" font-size="24" font-weight="bold" letter-spacing="0em"><tspan x="1586.2" y="1151.8">&#x410; 215</tspan></text>
<text id="text 31" fill="#D9D9D9" xml:space="preserve" style="white-space: pre" font-family="GothamSSm" font-size="24" font-weight="bold" letter-spacing="0em"><tspan x="1895.23" y="600.8">&#x410; 219</tspan></text>
<text id="text 32" fill="#D9D9D9" xml:space="preserve" style="white-space: pre" font-family="GothamSSm" font-size="24" font-weight="bold" letter-spacing="0em"><tspan x="1908.47" y="722.8">&#x410; 220</tspan></text>
<text id="b_v_302" fill="#D9D9D9" xml:space="preserve" style="white-space: pre" font-family="GothamSSm" font-size="24" font-weight="bold" letter-spacing="0em"><tspan x="2329.03" y="1549.8">&#x412;</tspan></text>
<text id="b_v_302_2" fill="#D9D9D9" xml:space="preserve" style="white-space: pre" font-family="GothamSSm" font-size="24" font-weight="bold" letter-spacing="0em"><tspan x="13.125" y="1672.8">&#x411;</tspan></text>
</g>
<g id="Entrances">
<circle id="1" cx="886" cy="1479" r="10" fill="#9CBBFF"/>
<circle id="38" cx="979" cy="1479" r="10" fill="#9CBBFF"/>
<circle id="39" cx="1079" cy="1479" r="10" fill="#9CBBFF"/>
<circle id="34" cx="447" cy="1479" r="10" fill="#9CBBFF"/>
<circle id="10" cx="92" cy="1579" r="10" fill="#9CBBFF"/>
<circle id="49" cx="2" cy="1664" r="10" fill="#9CBBFF"/>
<circle id="46" cx="194" cy="1479" r="10" fill="#9CBBFF"/>
<circle id="35" cx="382" cy="1579" r="10" fill="#9CBBFF"/>
<circle id="15" cx="1181" cy="1579" r="10" fill="#9CBBFF"/>
<circle id="36" cx="1269" cy="1579" r="10" fill="#9CBBFF"/>
<circle id="37" cx="1082" cy="1579" r="10" fill="#9CBBFF"/>
<circle id="18" cx="1181" cy="1479" r="10" fill="#9CBBFF"/>
<circle id="19" cx="1302" cy="1479" r="10" fill="#9CBBFF"/>
<circle id="40" cx="1494" cy="1479" r="10" fill="#9CBBFF"/>
<circle id="41" cx="1796" cy="1256" r="10" fill="#9CBBFF"/>
<circle id="20" cx="1443" cy="1580" r="10" fill="#9CBBFF"/>
<circle id="23" cx="1697" cy="856" r="10" fill="#9CBBFF"/>
<circle id="24" cx="1671" cy="624" r="10" fill="#9CBBFF"/>
<circle id="25" cx="1657" cy="509" r="10" fill="#9CBBFF"/>
<circle id="26" cx="1773" cy="492" r="10" fill="#9CBBFF"/>
<circle id="27" cx="1818" cy="850" r="10" fill="#9CBBFF"/>
<circle id="30" cx="1892" cy="1381" r="10" fill="#9CBBFF"/>
<circle id="33" cx="1569" cy="1856" r="10" fill="#9CBBFF"/>
<circle id="32" cx="2235" cy="1725" r="10" fill="#9CBBFF"/>
<circle id="48" cx="2353" cy="1534" r="10" fill="#9CBBFF"/>
<circle id="42" cx="1731" cy="1121" r="10" fill="#9CBBFF"/>
<circle id="43" cx="1849" cy="1107" r="10" fill="#9CBBFF"/>
<circle id="44" cx="1787" cy="606" r="10" fill="#9CBBFF"/>
<circle id="45" cx="1803" cy="730" r="10" fill="#9CBBFF"/>
</g>
<g id="Icons">
<g id="Stair">
<g id="Stair frame">
<path id="Vector 152" d="M1579 496H1554V511H1539V526H1524V541H1499" stroke="#9CD9BC" stroke-width="5" stroke-linecap="round" stroke-linejoin="round"/>
<path id="Vector 154" d="M1511 496H1526M1526 496L1523 510M1526 496L1499 517" stroke="#9CD9BC" stroke-width="3" stroke-linecap="round" stroke-linejoin="round"/>
<path id="Vector 155" d="M1567 541H1552M1552 541L1555 527M1552 541L1579 520" stroke="#9CD9BC" stroke-width="3" stroke-linecap="round" stroke-linejoin="round"/>
</g>
</g>
<g id="Stair_2">
<g id="Stair frame_2">
<path id="Vector 152_2" d="M133 1698H108V1713H93V1728H78V1743H53" stroke="#9CD9BC" stroke-width="5" stroke-linecap="round" stroke-linejoin="round"/>
<path id="Vector 154_2" d="M65 1698H80M80 1698L77 1712M80 1698L53 1719" stroke="#9CD9BC" stroke-width="3" stroke-linecap="round" stroke-linejoin="round"/>
<path id="Vector 155_2" d="M121 1743H106M106 1743L109 1729M106 1743L133 1722" stroke="#9CD9BC" stroke-width="3" stroke-linecap="round" stroke-linejoin="round"/>
</g>
</g>
<g id="Stair_3">
<g id="Stair frame_3">
<path id="Vector 152_3" d="M1498 1725H1473V1740H1458V1755H1443V1770H1418" stroke="#9CD9BC" stroke-width="5" stroke-linecap="round" stroke-linejoin="round"/>
<path id="Vector 154_3" d="M1430 1725H1445M1445 1725L1442 1739M1445 1725L1418 1746" stroke="#9CD9BC" stroke-width="3" stroke-linecap="round" stroke-linejoin="round"/>
<path id="Vector 155_3" d="M1486 1770H1471M1471 1770L1474 1756M1471 1770L1498 1749" stroke="#9CD9BC" stroke-width="3" stroke-linecap="round" stroke-linejoin="round"/>
</g>
</g>
<g id="Stair_4">
<g id="Stair frame_4">
<path id="Vector 152_4" d="M2275 1653H2250V1668H2235V1683H2220V1698H2195" stroke="#9CD9BC" stroke-width="5" stroke-linecap="round" stroke-linejoin="round"/>
<path id="Vector 154_4" d="M2207 1653H2222M2222 1653L2219 1667M2222 1653L2195 1674" stroke="#9CD9BC" stroke-width="3" stroke-linecap="round" stroke-linejoin="round"/>
<path id="Vector 155_4" d="M2263 1698H2248M2248 1698L2251 1684M2248 1698L2275 1677" stroke="#9CD9BC" stroke-width="3" stroke-linecap="round" stroke-linejoin="round"/>
</g>
</g>
<g id="Men">
<g id="Group 6">
<path id="Vector 200_2" d="M1763.5 1301.5L1772 1280H1744L1752.5 1301.5" stroke="#9CBBFF" stroke-width="5" stroke-linecap="round" stroke-linejoin="round"/>
<circle id="Ellipse 9" cx="1758" cy="1262" r="8" stroke="#9CBBFF" stroke-width="5" stroke-linecap="round" stroke-linejoin="round"/>
</g>
</g>
<g id="WC">
<g id="Group 5">
<path id="Vector 200_3" d="M1275.5 1697L1283 1718.5H1257L1264.5 1697" stroke="#A091F8" stroke-width="5" stroke-linecap="round" stroke-linejoin="round"/>
<circle id="Ellipse 9_2" cx="1270" cy="1679" r="8" stroke="#A091F8" stroke-width="5" stroke-linecap="round" stroke-linejoin="round"/>
</g>
<g id="Group 6_2">
<path id="Vector 200_4" d="M1303.5 1718.5L1311 1697H1285L1292.5 1718.5" stroke="#A091F8" stroke-width="5" stroke-linecap="round" stroke-linejoin="round"/>
<circle id="Ellipse 9_3" cx="1298" cy="1679" r="8" stroke="#A091F8" stroke-width="5" stroke-linecap="round" stroke-linejoin="round"/>
</g>
</g>
<g id="Act">
<path id="Vector" d="M1883.51 1942.87C1882.14 1942.87 1880.77 1943.14 1879.5 1943.66C1878.23 1944.19 1877.07 1944.96 1876.1 1945.94C1873.28 1948.78 1869.92 1951.03 1866.22 1952.57C1862.52 1954.1 1858.55 1954.88 1854.54 1954.87H1852.24C1851.8 1954.87 1851.37 1954.74 1851 1954.49C1850.63 1954.25 1850.34 1953.9 1850.17 1953.49C1850 1953.08 1849.96 1952.63 1850.04 1952.19C1850.13 1951.76 1850.34 1951.36 1850.66 1951.04L1852.04 1949.66C1855.89 1949.46 1859.52 1947.84 1862.24 1945.11L1870.89 1936.47C1871.74 1936.7 1872.61 1936.83 1873.48 1936.87C1873.65 1936.87 1873.82 1936.87 1874 1936.87C1877.18 1936.87 1880.24 1935.6 1882.49 1933.35L1884.49 1931.35C1885.67 1930.18 1886.58 1928.77 1887.19 1927.22C1887.79 1925.67 1888.06 1924.02 1887.99 1922.35C1887.93 1920.69 1887.51 1919.05 1886.77 1917.55C1886.03 1916.06 1884.98 1914.74 1883.7 1913.67C1881.29 1911.77 1878.27 1910.83 1875.21 1911.03C1872.16 1911.23 1869.28 1912.56 1867.15 1914.76L1865.88 1916.03C1864.35 1917.55 1863.24 1919.44 1862.64 1921.52C1862.05 1923.6 1862 1925.79 1862.49 1927.89L1853.76 1936.63C1851.03 1939.35 1849.41 1942.98 1849.21 1946.83L1847.83 1948.21C1846.96 1949.09 1846.36 1950.2 1846.12 1951.41C1845.88 1952.62 1846 1953.88 1846.48 1955.02C1846.95 1956.16 1847.75 1957.13 1848.78 1957.82C1849.8 1958.51 1851.01 1958.87 1852.24 1958.87H1854.54C1859.07 1958.88 1863.56 1958 1867.75 1956.26C1871.93 1954.53 1875.73 1951.98 1878.93 1948.77C1879.84 1947.86 1880.99 1947.25 1882.25 1947C1883.51 1946.75 1884.81 1946.87 1886 1947.36C1887.18 1947.86 1888.19 1948.69 1888.91 1949.75C1889.62 1950.82 1890 1952.07 1890 1953.35V1956.87C1890 1957.4 1890.21 1957.91 1890.59 1958.28C1890.96 1958.66 1891.47 1958.87 1892 1958.87C1892.53 1958.87 1893.04 1958.66 1893.41 1958.28C1893.79 1957.91 1894 1957.4 1894 1956.87V1953.35C1894 1950.57 1892.89 1947.91 1890.92 1945.94C1888.96 1943.98 1886.29 1942.87 1883.51 1942.87ZM1868.71 1918.85L1869.98 1917.58C1871.62 1915.93 1873.85 1914.99 1876.18 1914.98C1877.98 1914.96 1879.73 1915.58 1881.12 1916.73C1881.98 1917.44 1882.68 1918.32 1883.18 1919.32C1883.67 1920.32 1883.95 1921.41 1884 1922.52C1884.05 1923.63 1883.86 1924.73 1883.46 1925.77C1883.06 1926.8 1882.45 1927.74 1881.67 1928.52L1879.67 1930.52C1878.88 1931.31 1877.94 1931.92 1876.9 1932.32C1875.87 1932.73 1874.76 1932.91 1873.65 1932.86C1872.54 1932.81 1871.45 1932.53 1870.46 1932.03C1869.46 1931.54 1868.58 1930.84 1867.87 1929.99C1866.6 1928.36 1865.99 1926.31 1866.15 1924.26C1866.3 1922.2 1867.22 1920.27 1868.71 1918.85H1868.71ZM1856.59 1939.46L1864.26 1931.78C1864.44 1932.04 1864.59 1932.32 1864.79 1932.57C1865.46 1933.35 1866.22 1934.05 1867.05 1934.64L1859.41 1942.28C1857.77 1943.93 1855.67 1945.05 1853.38 1945.48C1853.82 1943.2 1854.94 1941.1 1856.59 1939.46Z" fill="#F783CB"/>
<path id="Vector 317" d="M1868.5 1916.5C1868.5 1920 1869 1923.5 1872 1926.5C1875 1929.5 1879 1930 1882.5 1930" stroke="#F783CB" stroke-width="3" stroke-linecap="round" stroke-linejoin="round"/>
</g>
<g id="&#208;&#161;rossing" clip-path="url(#clip1_1_1108)">
<g id="Group 24">
<path id="Vector 320" d="M2247.42 1550.25L2301.28 1535.82" stroke="#9CD9BC" stroke-width="5" stroke-linecap="round"/>
<path id="Vector 323" d="M2253.66 1574.46L2307.75 1559.97" stroke="#9CD9BC" stroke-width="5" stroke-linecap="round"/>
</g>
<g id="Group 25">
<circle id="Ellipse 36" cx="2266.36" cy="1558.12" r="1.5" transform="rotate(-15 2266.36 1558.12)" fill="#D9D9D9"/>
<circle id="Ellipse 32" cx="2243.18" cy="1564.33" r="1.5" transform="rotate(-15 2243.18 1564.33)" fill="#D9D9D9"/>
<circle id="Ellipse 37" cx="2272.16" cy="1556.57" r="1.5" transform="rotate(-15 2272.16 1556.57)" fill="#D9D9D9"/>
<circle id="Ellipse 33" cx="2248.98" cy="1562.78" r="1.5" transform="rotate(-15 2248.98 1562.78)" fill="#D9D9D9"/>
<circle id="Ellipse 38" cx="2277.95" cy="1555.01" r="1.5" transform="rotate(-15 2277.95 1555.01)" fill="#D9D9D9"/>
<circle id="Ellipse 34" cx="2254.77" cy="1561.22" r="1.5" transform="rotate(-15 2254.77 1561.22)" fill="#D9D9D9"/>
<circle id="Ellipse 39" cx="2283.75" cy="1553.46" r="1.5" transform="rotate(-15 2283.75 1553.46)" fill="#D9D9D9"/>
<circle id="Ellipse 35" cx="2260.57" cy="1559.67" r="1.5" transform="rotate(-15 2260.57 1559.67)" fill="#D9D9D9"/>
<circle id="Ellipse 40" cx="2289.54" cy="1551.91" r="1.5" transform="rotate(-15 2289.54 1551.91)" fill="#D9D9D9"/>
</g>
<path id="Vector 325" d="M2296.3 1550.1L2321.42 1543.37M2321.42 1543.37L2310.08 1539.68M2321.42 1543.37L2313.44 1552.23" stroke="#D9D9D9" stroke-width="3" stroke-miterlimit="1" stroke-linecap="round" stroke-linejoin="round"/>
</g>
<g id="&#208;&#161;rossing_2">
<g id="Group 24_2">
<path id="Vector 320_2" d="M102.758 1676.5L47 1676.5" stroke="#9CD9BC" stroke-width="5" stroke-linecap="round"/>
<path id="Vector 323_2" d="M103 1651.5L47 1651.5" stroke="#9CD9BC" stroke-width="5" stroke-linecap="round"/>
</g>
<g id="Group 25_2">
<circle id="Ellipse 36_2" cx="86.5" cy="1664" r="1.5" transform="rotate(-180 86.5 1664)" fill="#D9D9D9"/>
<circle id="Ellipse 32_2" cx="110.5" cy="1664" r="1.5" transform="rotate(-180 110.5 1664)" fill="#D9D9D9"/>
<circle id="Ellipse 37_2" cx="80.5" cy="1664" r="1.5" transform="rotate(-180 80.5 1664)" fill="#D9D9D9"/>
<circle id="Ellipse 33_2" cx="104.5" cy="1664" r="1.5" transform="rotate(-180 104.5 1664)" fill="#D9D9D9"/>
<circle id="Ellipse 38_2" cx="74.5" cy="1664" r="1.5" transform="rotate(-180 74.5 1664)" fill="#D9D9D9"/>
<circle id="Ellipse 34_2" cx="98.5" cy="1664" r="1.5" transform="rotate(-180 98.5 1664)" fill="#D9D9D9"/>
<circle id="Ellipse 39_2" cx="68.5" cy="1664" r="1.5" transform="rotate(-180 68.5 1664)" fill="#D9D9D9"/>
<circle id="Ellipse 35_2" cx="92.5" cy="1664" r="1.5" transform="rotate(-180 92.5 1664)" fill="#D9D9D9"/>
<circle id="Ellipse 40_2" cx="62.5" cy="1664" r="1.5" transform="rotate(-180 62.5 1664)" fill="#D9D9D9"/>
</g>
<path id="Vector 325_2" d="M55.5006 1664L29.5006 1664M29.5006 1664L39.5006 1670.5M29.5006 1664L39.5006 1657.5" stroke="#D9D9D9" stroke-width="3" stroke-miterlimit="1" stroke-linecap="round" stroke-linejoin="round"/>
</g>
</g>
</g>
<defs>
<clipPath id="clip0_1_1108">
<rect width="2370" height="2267" fill="white"/>
</clipPath>
<clipPath id="clip1_1_1108">
<rect width="85" height="60" fill="white" transform="translate(2233 1536) rotate(-15)"/>
</clipPath>
</defs>
</svg>
