<svg width="2370" height="2267" viewBox="0 0 2370 2267" fill="none" xmlns="http://www.w3.org/2000/svg">
<g id="A-4" clip-path="url(#clip0_1_647)">
<rect width="2370" height="2267" fill="#1E1E1E"/>
<g id="Spaces">
<path id="a-421" d="M1763.92 428.361L2033 395L2048.3 515.009L1778.31 548.109L1763.92 428.361Z" fill="#3B3C41"/>
<path id="a-420" d="M1433 593.96L1661 565L1688.81 797.313L1460.81 825.312L1433 593.96Z" fill="#3B3C41"/>
<path id="a-419" d="M1460.17 826.856L1688.41 798.298L1703.5 927.001L1475.32 955.021L1460.17 826.856Z" fill="#3B3C41"/>
<path id="a-4-stair-5" opacity="0.2" d="M1417 469L1645 440L1661 569L1432 597L1417 469Z" fill="#9CD9BC"/>
<path id="a-422" d="M1778.52 550.813L2046.26 514.709L2092 881L1822.99 913.944L1778.52 550.813Z" fill="#3B3C41"/>
<rect id="a-407" x="5" y="1255" width="235" height="225" fill="#3B3C41"/>
<rect id="a-409" x="360" y="1255" width="150" height="225" fill="#3B3C41"/>
<rect id="a-406" x="180" y="1580" width="220" height="230" fill="#3B3C41"/>
<rect id="a-4-stair-4" opacity="0.2" x="5" y="1580" width="175" height="280" fill="#9CD9BC"/>
<path id="a-4-stair-2" opacity="0.2" d="M1345 1580H1533.59L1575 1915H1345V1580Z" fill="#9CD9BC"/>
<path id="a-4-stair-1" opacity="0.2" d="M2112 1513L2278 1478L2359 1787L2153 1827L2112 1513Z" fill="#9CD9BC"/>
<rect id="a-411" x="630" y="1255" width="100" height="225" fill="#3B3C41"/>
<rect id="a-410" x="510" y="1255" width="120" height="225" fill="#3B3C41"/>
<rect id="a-408" x="240" y="1255" width="120" height="225" fill="#3B3C41"/>
<rect id="a-405" x="400" y="1580" width="230" height="230" fill="#3B3C41"/>
<rect id="a-404" x="630" y="1580" width="205" height="230" fill="#3B3C41"/>
<rect id="a-403" x="835" y="1580" width="115" height="230" fill="#3B3C41"/>
<rect id="a-402" x="950" y="1580" width="180" height="230" fill="#3B3C41"/>
<rect id="a-401" x="1130" y="1580" width="100" height="230" fill="#3B3C41"/>
<rect id="a-4-wcm" opacity="0.2" x="1230" y="1580" width="115" height="230" fill="#9CBBFF"/>
<rect id="a-412" x="730" y="1255" width="205" height="225" fill="#3B3C41"/>
<rect id="a-413" x="935" y="1255" width="195" height="225" fill="#3B3C41"/>
<rect id="a-414" x="1130" y="1255" width="190" height="225" fill="#3B3C41"/>
<path id="a-417" d="M1675.5 1211.06L1794 1197L1824.5 1445.06L1705.5 1459.5L1675.5 1211.06Z" fill="#3B3C41"/>
<rect id="a-415" x="1320" y="1255" width="190" height="225" fill="#3B3C41"/>
<path id="a-416" d="M1507.52 1255.4L1507 1233.93L1676.5 1211.5L1706 1458L1518.14 1480H1507.52V1255.4Z" fill="#3B3C41"/>
<path id="a-418" d="M1476.59 954.875L1703.6 926.913L1739.03 1204.26L1510 1233L1476.59 954.875Z" fill="#3B3C41"/>
<path id="a-423" d="M1823 914L2037 887L2051 1000L1836 1027L1823 914Z" fill="#3B3C41"/>
<path id="a-424" d="M1837 1027L2051 999.999L2072 1174L1858 1200L1837 1027Z" fill="#3B3C41"/>
<path id="a-425" d="M1867.38 1199.87L2072.39 1174.97L2113.81 1513.59L1908.8 1538.49L1867.38 1199.87Z" fill="#3B3C41"/>
</g>
<g id="Walls">
<path id="Subtract" fill-rule="evenodd" clip-rule="evenodd" d="M2080.4 756.473L1946.37 774.573L1952.33 819.497L1946.39 820.336L1940.03 772.395L1939.63 769.428L1942.6 769.027L2079.6 750.527L2080.4 756.473ZM1950.34 850.076L1957.03 900.395L1962.97 899.605L1956.28 849.237L1950.34 850.076Z" fill="#A5A5A7"/>
<path id="Subtract_2" fill-rule="evenodd" clip-rule="evenodd" d="M1535.68 1308.67L1509.18 1311.52L1509.82 1317.48L1536.29 1314.63L1535.68 1308.67ZM1565.5 1305.45L1566.12 1311.42L1686.32 1298.48L1685.68 1292.52L1565.5 1305.45Z" fill="#A5A5A7"/>
<path id="Subtract_3" fill-rule="evenodd" clip-rule="evenodd" d="M1575.01 1307.22L1582.01 1400.22L1582.25 1403.41L1585.41 1402.97L1600.36 1400.9L1602.84 1423.26L1608.8 1422.51L1605.98 1397.17L1605.64 1394.1L1602.59 1394.53L1587.75 1396.59L1580.99 1306.77L1575.01 1307.22ZM1612.11 1452.33L1606.16 1453.08L1608.02 1469.83L1613.98 1469.17L1612.11 1452.33Z" fill="#A5A5A7"/>
<path id="Subtract_4" fill-rule="evenodd" clip-rule="evenodd" d="M1549.46 886.614L1540.48 816.618L1534.52 817.382L1543.52 887.445L1549.46 886.614ZM1553.28 916.372L1547.34 917.202L1551.02 945.882L1556.98 945.118L1553.28 916.372Z" fill="#A5A5A7"/>
<path id="Subtract_5" fill-rule="evenodd" clip-rule="evenodd" d="M135 1357H5V1363H132V1405H138V1360V1357H135ZM138 1435H132V1480H138V1435Z" fill="#A5A5A7"/>
<path id="Vector 248" d="M1462.64 826.498L1691.5 796.959" stroke="#D9D9D9" stroke-width="10"/>
<path id="Subtract_6" fill-rule="evenodd" clip-rule="evenodd" d="M1961.9 1312.28L2087.36 1296.98L2086.64 1291.02L1961.29 1306.31L1961.9 1312.28ZM1932.12 1315.91L1931.5 1309.94L1881.64 1316.02L1882.36 1321.98L1932.12 1315.91Z" fill="#A5A5A7"/>
<path id="Subtract_7" fill-rule="evenodd" clip-rule="evenodd" d="M1873.28 656.374L2063.36 633.478L2062.64 627.521L1872.66 650.405L1873.28 656.374ZM1843.49 659.962L1842.87 653.993L1793 660L1793.72 665.956L1843.49 659.962Z" fill="#A5A5A7"/>
<path id="Subtract_8" fill-rule="evenodd" clip-rule="evenodd" d="M1976.27 1429.26L2101.73 1413.96L2101 1408L1975.65 1423.29L1976.27 1429.26ZM1946.48 1432.89L1945.86 1426.92L1896 1433L1896.73 1438.96L1946.48 1432.89Z" fill="#A5A5A7"/>
<path id="Subtract_9" fill-rule="evenodd" clip-rule="evenodd" d="M653 1403L653 1397H630V1403H653ZM683 1403H730V1397H683V1403Z" fill="#A5A5A7"/>
<path id="Subtract_10" fill-rule="evenodd" clip-rule="evenodd" d="M507 1643V1810H513V1643H507ZM507 1613H513V1580H507V1613Z" fill="#A5A5A7"/>
<path id="vnesniy kontur" d="M630 95L5 5V1860H180V1810H1345V1915H1572L1615.68 2260L2198.93 2188.94L2153.91 1825.61L2360 1786.58L2278 1478.65L2115 1513.17L2076.43 1199.98L2037.86 886.782L2092.89 879.776L2033.86 393.345L1417.6 467.41L1510 1255H630C629.414 800.045 630.586 549.955 630 95Z" stroke="#D9D9D9" stroke-width="10"/>
<path id="Vector 245" d="M1837 1027L2052 1001" stroke="#D9D9D9" stroke-width="10"/>
<path id="Vector 212" d="M2114 1514L1529 1580" stroke="#D9D9D9" stroke-width="10"/>
<path id="Vector 190" d="M400 1581V1811" stroke="#D9D9D9" stroke-width="10"/>
<path id="Vector 202" d="M180 1580V1810" stroke="#D9D9D9" stroke-width="10"/>
<path id="Vector 203" d="M630 1580V1810" stroke="#D9D9D9" stroke-width="10"/>
<path id="Vector 204" d="M835 1580V1810" stroke="#D9D9D9" stroke-width="10"/>
<path id="Vector 206" d="M950 1580V1810" stroke="#D9D9D9" stroke-width="10"/>
<path id="Vector 210" d="M1230 1580V1810" stroke="#D9D9D9" stroke-width="10"/>
<path id="Vector 211" d="M1345 1580V1810" stroke="#D9D9D9" stroke-width="10"/>
<path id="Vector 192" d="M730 1255V1480" stroke="#D9D9D9" stroke-width="10"/>
<path id="Vector 200" d="M630 1255V1480" stroke="#D9D9D9" stroke-width="10"/>
<path id="Vector 193" d="M935 1255V1480" stroke="#D9D9D9" stroke-width="10"/>
<path id="Vector 249" d="M1130 1255V1480" stroke="#D9D9D9" stroke-width="10"/>
<path id="Vector 198" d="M1320 1254V1479" stroke="#D9D9D9" stroke-width="10"/>
<path id="Vector 250" d="M1510 1254V1479" stroke="#D9D9D9" stroke-width="10"/>
<path id="Vector 228" d="M1512 1232L1799 1196" stroke="#D9D9D9" stroke-width="10"/>
<path id="Subtract_11" fill-rule="evenodd" clip-rule="evenodd" d="M630 1260H5V1250H630V1260Z" fill="#D9D9D9"/>
<path id="Subtract_12" fill-rule="evenodd" clip-rule="evenodd" d="M1125 1810V1580H1135V1810H1125Z" fill="#D9D9D9"/>
<path id="Subtract_13" fill-rule="evenodd" clip-rule="evenodd" d="M1399 1585V1575H1312V1585H1399ZM1479 1585H1530V1575H1479V1585ZM1157 1575V1585H1023V1575H1157ZM1266 1585H1203V1575H1266V1585ZM977 1575V1585H912V1575H977ZM866 1585V1575H704V1585H866ZM658 1575V1585H596V1575H658ZM550 1585V1575H288V1585H550ZM242 1575V1585H141V1575H242ZM61 1585V1575H5V1585H61Z" fill="#D9D9D9"/>
<path id="Subtract_14" fill-rule="evenodd" clip-rule="evenodd" d="M1748.22 1458.73L1679.47 1466.98L1677.54 1457.14L1746.28 1448.89L1748.22 1458.73ZM1794.7 1453.15L1829.6 1448.96L1828.4 1439.04L1792.77 1443.31L1794.7 1453.15ZM1631.05 1462.72L1632.99 1472.56L1529.6 1484.96L1528.4 1475.04L1631.05 1462.72Z" fill="#D9D9D9"/>
<path id="Subtract_15" fill-rule="evenodd" clip-rule="evenodd" d="M1819.04 1445.1L1789.54 1200.6L1799.46 1199.4L1828.96 1443.9L1819.04 1445.1Z" fill="#D9D9D9"/>
<path id="Subtract_16" fill-rule="evenodd" clip-rule="evenodd" d="M1439 1485V1475H1302V1485H1439ZM1485.04 1485H1530V1475H1485.04V1485ZM658 1475V1485H593.037V1475H658ZM866 1485H704V1475H866V1485ZM1060 1485V1475H912.037V1485H1060ZM1106 1485H1256V1475H1106V1485ZM412 1485V1475H330.037V1485H412ZM458.037 1485H547V1475H458.037V1485ZM284 1475V1485H212.037V1475H284ZM166 1485V1475H5V1485H166Z" fill="#D9D9D9"/>
<path id="Subtract_17" fill-rule="evenodd" clip-rule="evenodd" d="M2149.04 1827.64L2109 1515.29L2118.91 1514.02L2158.96 1826.36L2149.04 1827.64Z" fill="#D9D9D9"/>
<path id="Vector 242" d="M1779 549L2048 515" stroke="#D9D9D9" stroke-width="10"/>
<path id="Vector 246" d="M1476 955L1704 927" stroke="#D9D9D9" stroke-width="10"/>
<path id="Vector 247" d="M1431 594L1662 566" stroke="#D9D9D9" stroke-width="10"/>
<path id="Vector 243" d="M1821 915L2091 881" stroke="#D9D9D9" stroke-width="10"/>
<path id="Vector 244" d="M1853 1200L2071 1173" stroke="#D9D9D9" stroke-width="10"/>
<path id="Subtract_18" fill-rule="evenodd" clip-rule="evenodd" d="M1687.97 834.586L1665.02 646.93L1674.95 645.712L1697.9 833.367L1687.97 834.586ZM1725.92 1144.94L1733.04 1203.11L1742.96 1201.89L1735.85 1143.72L1725.92 1144.94ZM1720.34 1099.3L1730.27 1098.08L1703.48 879.015L1693.55 880.234L1720.34 1099.3ZM1669.37 600.064L1659.44 601.282L1653.14 549.741L1663.06 548.522L1669.37 600.064ZM1653.36 469.134L1643.43 470.353L1640.04 442.607L1649.96 441.393L1653.36 469.134Z" fill="#D9D9D9"/>
<path id="Subtract_19" fill-rule="evenodd" clip-rule="evenodd" d="M1839.45 1088.53L1828.06 995.464L1837.99 994.245L1849.38 1087.32L1839.45 1088.53ZM1832.41 948.597L1822.48 949.816L1813.14 873.486L1823.07 872.267L1832.41 948.597ZM1845.03 1134.18L1853.04 1199.61L1862.96 1198.39L1854.96 1132.96L1845.03 1134.18ZM1817.48 826.62L1807.56 827.838L1769.49 516.661L1779.42 515.442L1817.48 826.62ZM1773.83 469.795L1768.46 425.893L1758.54 427.107L1763.91 471.013L1773.83 469.795Z" fill="#D9D9D9"/>
<path id="Subtract_20" fill-rule="evenodd" clip-rule="evenodd" d="M1904.76 1464.39L1871.96 1196.89L1862.04 1198.11L1894.83 1465.61L1904.76 1464.39ZM1910.35 1510.02L1900.43 1511.24L1903.54 1536.61L1913.46 1535.39L1910.35 1510.02Z" fill="#D9D9D9"/>
<path id="Subtract_21" fill-rule="evenodd" clip-rule="evenodd" d="M1535.96 1577.4L1576.96 1914.4L1567.04 1915.6L1526.04 1578.6L1535.96 1577.4Z" fill="#D9D9D9"/>
<path id="Vector 338" d="M240 1480V1255" stroke="#D9D9D9" stroke-width="10"/>
<path id="Vector 339" d="M360 1480V1255" stroke="#D9D9D9" stroke-width="10"/>
<path id="Vector 340" d="M510 1480V1255" stroke="#D9D9D9" stroke-width="10"/>
<path id="Vector 342" d="M1705 1458.5L1676.5 1211" stroke="#D9D9D9" stroke-width="10"/>
</g>
<g id="Textes">
<text id="text 4" fill="#D9D9D9" xml:space="preserve" style="white-space: pre" font-family="GothamSSm" font-size="24" font-weight="bold" letter-spacing="0em"><tspan x="272" y="1375.8">&#x410; 408</tspan></text>
<text id="text 34" fill="#D9D9D9" xml:space="preserve" style="white-space: pre" font-family="GothamSSm" font-size="24" font-weight="bold" letter-spacing="0em"><tspan x="161.18" y="1375.8">&#x410; 407</tspan></text>
<text id="text 7" fill="#D9D9D9" xml:space="preserve" style="white-space: pre" font-family="GothamSSm" font-size="24" font-weight="bold" letter-spacing="0em"><tspan x="406.43" y="1375.8">&#x410; 409</tspan></text>
<text id="text 29" fill="#D9D9D9" xml:space="preserve" style="white-space: pre" font-family="GothamSSm" font-size="24" font-weight="bold" letter-spacing="0em"><tspan x="544.309" y="1375.8">&#x410; 410</tspan></text>
<text id="text 9" fill="#D9D9D9" xml:space="preserve" style="white-space: pre" font-family="GothamSSm" font-size="24" font-weight="bold" letter-spacing="0em"><tspan x="261.406" y="1703.8">&#x410; 406</tspan></text>
<text id="text 10" fill="#D9D9D9" xml:space="preserve" style="white-space: pre" font-family="GothamSSm" font-size="24" font-weight="bold" letter-spacing="0em"><tspan x="546.398" y="1703.8">&#x410; 405</tspan></text>
<text id="text 11" fill="#D9D9D9" xml:space="preserve" style="white-space: pre" font-family="GothamSSm" font-size="24" font-weight="bold" letter-spacing="0em"><tspan x="704.23" y="1703.8">&#x410; 404</tspan></text>
<text id="text 12" fill="#D9D9D9" xml:space="preserve" style="white-space: pre" font-family="GothamSSm" font-size="24" font-weight="bold" letter-spacing="0em"><tspan x="865.074" y="1703.8">&#x410; 403</tspan></text>
<text id="text 13" fill="#D9D9D9" xml:space="preserve" style="white-space: pre" font-family="GothamSSm" font-size="24" font-weight="bold" letter-spacing="0em"><tspan x="1012.47" y="1703.8">&#x410; 402</tspan></text>
<text id="text 33" fill="#D9D9D9" xml:space="preserve" style="white-space: pre" font-family="GothamSSm" font-size="24" font-weight="bold" letter-spacing="0em"><tspan x="1154.24" y="1703.8">&#x410; 401</tspan></text>
<text id="text 14" fill="#D9D9D9" xml:space="preserve" style="white-space: pre" font-family="GothamSSm" font-size="24" font-weight="bold" letter-spacing="0em"><tspan x="656.492" y="1375.8">&#x410; 411</tspan></text>
<text id="text 30" fill="#D9D9D9" xml:space="preserve" style="white-space: pre" font-family="GothamSSm" font-size="24" font-weight="bold" letter-spacing="0em"><tspan x="807.199" y="1375.8">&#x410; 412</tspan></text>
<text id="text 31" fill="#D9D9D9" xml:space="preserve" style="white-space: pre" font-family="GothamSSm" font-size="24" font-weight="bold" letter-spacing="0em"><tspan x="1007.33" y="1375.8">&#x410; 413</tspan></text>
<text id="text 32" fill="#D9D9D9" xml:space="preserve" style="white-space: pre" font-family="GothamSSm" font-size="24" font-weight="bold" letter-spacing="0em"><tspan x="1608.25" y="1353.8">&#x410; 416</tspan></text>
<text id="text 15" fill="#D9D9D9" xml:space="preserve" style="white-space: pre" font-family="GothamSSm" font-size="24" font-weight="bold" letter-spacing="0em"><tspan x="1199.08" y="1375.8">&#x410; 414</tspan></text>
<text id="text 16" fill="#D9D9D9" xml:space="preserve" style="white-space: pre" font-family="GothamSSm" font-size="24" font-weight="bold" letter-spacing="0em"><tspan x="1390.25" y="1375.8">&#x410; 415</tspan></text>
<text id="text 18" fill="#D9D9D9" xml:space="preserve" style="white-space: pre" font-family="GothamSSm" font-size="24" font-weight="bold" letter-spacing="0em"><tspan x="1725.33" y="1336.8">&#x410; 417</tspan></text>
<text id="text 28" fill="#D9D9D9" xml:space="preserve" style="white-space: pre" font-family="GothamSSm" font-size="24" font-weight="bold" letter-spacing="0em"><tspan x="1978.29" y="1482.8">&#x410; 425</tspan></text>
<text id="text 22" fill="#D9D9D9" xml:space="preserve" style="white-space: pre" font-family="GothamSSm" font-size="24" font-weight="bold" letter-spacing="0em"><tspan x="1909.37" y="964.8">&#x410; 423</tspan></text>
<text id="text 27" fill="#D9D9D9" xml:space="preserve" style="white-space: pre" font-family="GothamSSm" font-size="24" font-weight="bold" letter-spacing="0em"><tspan x="1927.27" y="1108.8">&#x410; 424</tspan></text>
<text id="text 23" fill="#D9D9D9" xml:space="preserve" style="white-space: pre" font-family="GothamSSm" font-size="24" font-weight="bold" letter-spacing="0em"><tspan x="1908.24" y="722.8">&#x410; 422</tspan></text>
<text id="text 24" fill="#D9D9D9" xml:space="preserve" style="white-space: pre" font-family="GothamSSm" font-size="24" font-weight="bold" letter-spacing="0em"><tspan x="1880.04" y="479.8">&#x410; 421</tspan></text>
<text id="text 25" fill="#D9D9D9" xml:space="preserve" style="white-space: pre" font-family="GothamSSm" font-size="24" font-weight="bold" letter-spacing="0em"><tspan x="1532.35" y="703.8">&#x410; 420</tspan></text>
<text id="text 35" fill="#D9D9D9" xml:space="preserve" style="white-space: pre" font-family="GothamSSm" font-size="24" font-weight="bold" letter-spacing="0em"><tspan x="1556.28" y="884.8">&#x410; 419</tspan></text>
<text id="text 26" fill="#D9D9D9" xml:space="preserve" style="white-space: pre" font-family="GothamSSm" font-size="24" font-weight="bold" letter-spacing="0em"><tspan x="1581.35" y="1087.8">&#x410; 418</tspan></text>
</g>
<g id="Entrances">
<circle id="1" cx="889" cy="1480" r="10" fill="#9CBBFF"/>
<circle id="2" cx="681" cy="1480" r="10" fill="#9CBBFF"/>
<circle id="41" cx="570" cy="1480" r="10" fill="#9CBBFF"/>
<circle id="42" cx="307" cy="1480" r="10" fill="#9CBBFF"/>
<circle id="43" cx="189" cy="1480" r="10" fill="#9CBBFF"/>
<circle id="10" cx="102" cy="1580" r="10" fill="#9CBBFF"/>
<circle id="11" cx="265" cy="1580" r="10" fill="#9CBBFF"/>
<circle id="13" cx="573" cy="1580" r="10" fill="#9CBBFF"/>
<circle id="14" cx="681" cy="1580" r="10" fill="#9CBBFF"/>
<circle id="15" cx="889" cy="1580" r="10" fill="#9CBBFF"/>
<circle id="34" cx="1000" cy="1580" r="10" fill="#9CBBFF"/>
<circle id="35" cx="1289" cy="1580" r="10" fill="#9CBBFF"/>
<circle id="36" cx="1180" cy="1580" r="10" fill="#9CBBFF"/>
<circle id="18" cx="1279" cy="1480" r="10" fill="#9CBBFF"/>
<circle id="37" cx="1083" cy="1480" r="10" fill="#9CBBFF"/>
<circle id="38" cx="435" cy="1480" r="10" fill="#9CBBFF"/>
<circle id="19" cx="1771" cy="1452" r="10" fill="#9CBBFF"/>
<circle id="39" cx="1462" cy="1480" r="10" fill="#9CBBFF"/>
<circle id="20" cx="1441" cy="1580" r="10" fill="#9CBBFF"/>
<circle id="21" cx="1655" cy="1465" r="10" fill="#9CBBFF"/>
<circle id="23" cx="1728" cy="1122" r="10" fill="#9CBBFF"/>
<circle id="24" cx="1667" cy="623" r="10" fill="#9CBBFF"/>
<circle id="25" cx="1655" cy="510" r="10" fill="#9CBBFF"/>
<circle id="26" cx="1773" cy="494" r="10" fill="#9CBBFF"/>
<circle id="27" cx="1816" cy="851" r="10" fill="#9CBBFF"/>
<circle id="28" cx="1831" cy="973" r="10" fill="#9CBBFF"/>
<circle id="40" cx="1848" cy="1111" r="10" fill="#9CBBFF"/>
<circle id="31" cx="1903" cy="1488" r="10" fill="#9CBBFF"/>
<circle id="44" cx="2231" cy="1700" r="10" fill="#9CBBFF"/>
<circle id="33" cx="1695" cy="857" r="10" fill="#9CBBFF"/>
</g>
<g id="Icons">
<g id="Stair">
<g id="Stair frame">
<path id="Vector 152" d="M1579 496H1554V511H1539V526H1524V541H1499" stroke="#9CD9BC" stroke-width="5" stroke-linecap="round" stroke-linejoin="round"/>
<path id="Vector 154" d="M1511 496H1526M1526 496L1523 510M1526 496L1499 517" stroke="#9CD9BC" stroke-width="3" stroke-linecap="round" stroke-linejoin="round"/>
<path id="Vector 155" d="M1567 541H1552M1552 541L1555 527M1552 541L1579 520" stroke="#9CD9BC" stroke-width="3" stroke-linecap="round" stroke-linejoin="round"/>
</g>
</g>
<g id="Stair_2">
<g id="Stair frame_2">
<path id="Vector 152_2" d="M133 1698H108V1713H93V1728H78V1743H53" stroke="#9CD9BC" stroke-width="5" stroke-linecap="round" stroke-linejoin="round"/>
<path id="Vector 154_2" d="M65 1698H80M80 1698L77 1712M80 1698L53 1719" stroke="#9CD9BC" stroke-width="3" stroke-linecap="round" stroke-linejoin="round"/>
<path id="Vector 155_2" d="M121 1743H106M106 1743L109 1729M106 1743L133 1722" stroke="#9CD9BC" stroke-width="3" stroke-linecap="round" stroke-linejoin="round"/>
</g>
</g>
<g id="Stair_3">
<g id="Stair frame_3">
<path id="Vector 152_3" d="M1498 1725H1473V1740H1458V1755H1443V1770H1418" stroke="#9CD9BC" stroke-width="5" stroke-linecap="round" stroke-linejoin="round"/>
<path id="Vector 154_3" d="M1430 1725H1445M1445 1725L1442 1739M1445 1725L1418 1746" stroke="#9CD9BC" stroke-width="3" stroke-linecap="round" stroke-linejoin="round"/>
<path id="Vector 155_3" d="M1486 1770H1471M1471 1770L1474 1756M1471 1770L1498 1749" stroke="#9CD9BC" stroke-width="3" stroke-linecap="round" stroke-linejoin="round"/>
</g>
</g>
<g id="Stair_4">
<g id="Stair frame_4">
<path id="Vector 152_4" d="M2271 1628H2246V1643H2231V1658H2216V1673H2191" stroke="#9CD9BC" stroke-width="5" stroke-linecap="round" stroke-linejoin="round"/>
<path id="Vector 154_4" d="M2203 1628H2218M2218 1628L2215 1642M2218 1628L2191 1649" stroke="#9CD9BC" stroke-width="3" stroke-linecap="round" stroke-linejoin="round"/>
<path id="Vector 155_4" d="M2259 1673H2244M2244 1673L2247 1659M2244 1673L2271 1652" stroke="#9CD9BC" stroke-width="3" stroke-linecap="round" stroke-linejoin="round"/>
</g>
</g>
<g id="Men">
<g id="Group 6">
<path id="Vector 200_2" d="M1293.5 1718.5L1302 1697H1274L1282.5 1718.5" stroke="#9CBBFF" stroke-width="5" stroke-linecap="round" stroke-linejoin="round"/>
<circle id="Ellipse 9" cx="1288" cy="1679" r="8" stroke="#9CBBFF" stroke-width="5" stroke-linecap="round" stroke-linejoin="round"/>
</g>
</g>
</g>
</g>
<defs>
<clipPath id="clip0_1_647">
<rect width="2370" height="2267" fill="white"/>
</clipPath>
</defs>
</svg>
