<svg width="2970" height="1655" viewBox="0 0 2970 1655" fill="none" xmlns="http://www.w3.org/2000/svg">
<g id="PK-3-3" clip-path="url(#clip0_1_2102)">
<g id="Spaces">
<path id="pk-334" d="M165 1080H75V1270H165V1080Z" fill="#3B3C41"/>
<path id="pk-334_2" d="M260 1080H165V1270H260V1080Z" fill="#3B3C41"/>
<path id="pk-336" d="M425 1080H260V1270H425V1080Z" fill="#3B3C41"/>
<path id="pk-337" d="M620 1080H425V1270H620V1080Z" fill="#3B3C41"/>
<path id="pk-338" d="M1010 980H720V1270H1010V980Z" fill="#3B3C41"/>
<path id="pk-338a" d="M1010 1080H1110V1270H1010V1080Z" fill="#3B3C41"/>
<path id="pk-340" d="M1510 1080H1110V1270H1510V1080Z" fill="#3B3C41"/>
<path id="pk-341" d="M1510 1080H1610V1270H1510V1080Z" fill="#3B3C41"/>
<path id="pk-342" d="M2210 1080H1810V1270H2210V1080Z" fill="#3B3C41"/>
<path id="pk-3-3-wcm" opacity="0.2" d="M2310 1080H2210V1270H2310V1080Z" fill="#9CBBFF"/>
<path id="pk-3-3-wcw" opacity="0.2" d="M2410 1080H2310V1270H2410V1080Z" fill="#F783CB"/>
<path id="pk-3-3-lift-1" opacity="0.2" d="M2505 1180H2410V1270H2505V1180Z" fill="#A091F8"/>
<path id="pk-3-3-lift-2" opacity="0.2" d="M2505 1180H2600V1270H2505V1180Z" fill="#A091F8"/>
<path id="pk-3-3-stair-2" opacity="0.2" d="M2965 1080H2800V1290H2965V1080Z" fill="#9CD9BC"/>
<path id="pk-312" d="M175 1370H75V1650H175V1370Z" fill="#3B3C41"/>
<path id="pk-311a" d="M395 1370H175V1650H395V1370Z" fill="#3B3C41"/>
<path id="pk-311" d="M395 1370H620V1650H395V1370Z" fill="#3B3C41"/>
<path id="pk-310" d="M710 1370H620V1550H710V1370Z" fill="#3B3C41"/>
<path id="pk-309" d="M1000 1370H710V1550H1000V1370Z" fill="#3B3C41"/>
<path id="pk-308a" d="M1110 1370H1000V1650H1110V1370Z" fill="#3B3C41"/>
<path id="pk-308" d="M1335 1370H1110V1650H1335V1370Z" fill="#3B3C41"/>
<path id="pk-307" d="M1610 1370H1335V1650H1610V1370Z" fill="#3B3C41"/>
<path id="pk-306" d="M1710 1370H1610V1650H1710V1370Z" fill="#3B3C41"/>
<path id="pk-305" d="M2210 1370H1710V1650H2210V1370Z" fill="#3B3C41"/>
<path id="pk-304" d="M2410 1370H2210V1650H2410V1370Z" fill="#3B3C41"/>
<path id="pk-303" d="M2800 1430H2410V1650H2800V1430Z" fill="#3B3C41"/>
<path id="pk-302" d="M2885 1430H2800V1650H2885V1430Z" fill="#3B3C41"/>
<path id="pk-301" d="M2965 1430H2885V1650H2965V1430Z" fill="#3B3C41"/>
<path id="pk-343" d="M2800 1270H2600V1080H2540V990H2800V1270Z" fill="#3B3C41"/>
<path id="pk-3-3-stair-1" opacity="0.2" d="M720 980H620V1270H720V980Z" fill="#9CD9BC"/>
</g>
<g id="Walls">
<path id="Subtract" fill-rule="evenodd" clip-rule="evenodd" d="M2245 1197H2210V1203H2245V1197ZM2275 1203H2310V1197H2275V1203Z" fill="#A5A5A7"/>
<path id="Subtract_2" fill-rule="evenodd" clip-rule="evenodd" d="M2345 1197H2310V1203H2345V1197ZM2375 1203H2410V1197H2375V1203Z" fill="#A5A5A7"/>
<path id="Subtract_3" fill-rule="evenodd" clip-rule="evenodd" d="M1045 1197H1010V1203H1045V1197ZM1075 1203H1110V1197H1075V1203Z" fill="#A5A5A7"/>
<path id="Subtract_4" fill-rule="evenodd" clip-rule="evenodd" d="M797 1215V1270H803V1215H797ZM797 1185H803V980H797V1185Z" fill="#A5A5A7"/>
<path id="Subtract_5" fill-rule="evenodd" clip-rule="evenodd" d="M105 1197H75V1203H105V1197ZM135 1203H165V1197H135V1203Z" fill="#A5A5A7"/>
<path id="Vector 289" d="M165 1080V1270" stroke="#D9D9D9" stroke-width="10"/>
<path id="Vector 290" d="M260 1080V1270" stroke="#D9D9D9" stroke-width="10"/>
<path id="Vector 291" d="M425 1080V1270" stroke="#D9D9D9" stroke-width="10"/>
<path id="Vector 292" d="M620 1080V1270" stroke="#D9D9D9" stroke-width="10"/>
<path id="Vector 293" d="M720 980V1270" stroke="#D9D9D9" stroke-width="10"/>
<path id="Vector 294" d="M1010 1080V1270" stroke="#D9D9D9" stroke-width="10"/>
<path id="Vector 295" d="M1110 1080V1270" stroke="#D9D9D9" stroke-width="10"/>
<path id="Vector 297" d="M1510 1080V1270" stroke="#D9D9D9" stroke-width="10"/>
<path id="Vector 298" d="M1610 1080V1270" stroke="#D9D9D9" stroke-width="10"/>
<path id="Vector 301" d="M2210 1080V1270" stroke="#D9D9D9" stroke-width="10"/>
<path id="Vector 302" d="M2310 1080V1270" stroke="#D9D9D9" stroke-width="10"/>
<path id="Vector 303" d="M2410 1080V1270" stroke="#D9D9D9" stroke-width="10"/>
<path id="Vector 304" d="M2540 1080H2600V1270" stroke="#D9D9D9" stroke-width="10"/>
<path id="Vector 305" d="M2800 1270V1080" stroke="#D9D9D9" stroke-width="10"/>
<path id="Vector 306" d="M175 1650V1370" stroke="#D9D9D9" stroke-width="10"/>
<path id="Vector 307" d="M395 1650V1370" stroke="#D9D9D9" stroke-width="10"/>
<path id="Vector 308" d="M620 1550V1370" stroke="#D9D9D9" stroke-width="10"/>
<path id="Vector 309" d="M710 1370V1550" stroke="#D9D9D9" stroke-width="10"/>
<path id="Vector 310" d="M1000 1550V1370" stroke="#D9D9D9" stroke-width="10"/>
<path id="Vector 311" d="M2540 990H2800" stroke="#D9D9D9" stroke-width="10"/>
<path id="Vector 324" d="M2600 1180H2410" stroke="#D9D9D9" stroke-width="10"/>
<path id="Vector 312" d="M1110 1650V1370" stroke="#D9D9D9" stroke-width="10"/>
<path id="Vector 313" d="M1610 1650V1370" stroke="#D9D9D9" stroke-width="10"/>
<path id="Vector 314" d="M1335 1650V1370" stroke="#D9D9D9" stroke-width="10"/>
<path id="Vector 315" d="M1710 1650V1370" stroke="#D9D9D9" stroke-width="10"/>
<path id="Vector 316" d="M2210 1650V1370" stroke="#D9D9D9" stroke-width="10"/>
<path id="Vector 317" d="M2410 1650V1430" stroke="#D9D9D9" stroke-width="10"/>
<path id="Vector 318" d="M2800 1650V1430" stroke="#D9D9D9" stroke-width="10"/>
<path id="Vector 325" d="M2505 1270V1180" stroke="#D9D9D9" stroke-width="10"/>
<path id="Vector 319" d="M2885 1650V1430" stroke="#D9D9D9" stroke-width="10"/>
<path id="Vector 327" d="M75 1080V980H0M75 1550H1.2219e-06" stroke="#D9D9D9" stroke-width="10"/>
<path id="Subtract_6" fill-rule="evenodd" clip-rule="evenodd" d="M1805 1080V1270V1275H1810H2117V1265H1815V1080H1805ZM2163 1275H2237V1265H2163V1275ZM2337 1275H2283V1265H2337V1275ZM2573 1275H2727V1265H2573V1275ZM2795 1275H2773V1265H2800H2805V1270V1285H2840V1295H2800H2795V1290V1275ZM2437 1265H2383V1275H2437V1265ZM2483 1265V1275H2527V1265H2483ZM2965 1295H2920V1285H2965V1295Z" fill="#D9D9D9"/>
<path id="Subtract_7" fill-rule="evenodd" clip-rule="evenodd" d="M630 1275V1265H629.368H626.877H624.367H621.839H619.293H616.728H614.144H611.541H608.919H606.278H603.617H600.937H598.237H595.517H592.777H590.017H587.237H584.436H581.615H578.773H575.91H573.026H570.121H567.194H564.246H561.277H558.285H555.272H553V1275H555.272H558.285H561.277H564.246H567.194H570.121H573.026H575.91H578.773H581.615H584.436H587.237H590.017H592.777H595.517H598.237H600.937H603.617H606.278H608.919H611.541H614.144H616.728H619.293H621.839H624.367H626.877H629.368H630ZM710 1275H710.086H711.995H713.891H715.774H717.646H719.505H721.353H723.189H725.013H726.826H728.628H730.419H732.198H733.967H735.725H737.473H739.21H740.937H742.654H744.361H746.059H747.746H749.424H751.093H752.753H754.403H756.045H757.678H759.302H760.918H762.526H764.125H765.717H767.3H768.876H770.445H772.006H773.559H775.106H776.645H778.178H779.704H781.224H782.737H784.244H785.745H787.24H788.729H790.213H791.691H793.163H794.631H796.094H797.551H799.004H800.452H801.896H803.336H804.771H806.203H807.63H809.054H810.474H811.891H813.305H814.715H816.123H817.527H818.93H820.329H821.726H823.121H824.514H825.905H827.294H828.682H830.068H831.452H832.836H834.219H835.6H836.981H838.361H839.741H841.121H842.5H843.879H845.259H846.639H848.019H849.4H850.781H852.164H853.548H854.932H856.318H857.706H859.095H860.486H861.879H863.274H864.671H866.07H867.473H868.877H870.285H871.695H873.109H874.526H875.946H877.37H878.797H880.229H881.664H883.104H884.548H885.996H887V1265H885.996H884.548H883.104H881.664H880.229H878.797H877.37H875.946H874.526H873.109H871.695H870.285H868.877H867.473H866.07H864.671H863.274H861.879H860.486H859.095H857.706H856.318H854.932H853.548H852.164H850.781H849.4H848.019H846.639H845.259H843.879H842.5H841.121H839.741H838.361H836.981H835.6H834.219H832.836H831.452H830.068H828.682H827.294H825.905H824.514H823.121H821.726H820.329H818.93H817.527H816.123H814.715H813.305H811.891H810.474H809.054H807.63H806.203H804.771H803.336H801.896H800.452H799.004H797.551H796.094H794.631H793.163H791.691H790.213H788.729H787.24H785.745H784.244H782.737H781.224H779.704H778.178H776.645H775.106H773.559H772.006H770.445H768.876H767.3H765.717H764.125H762.526H760.918H759.302H757.678H756.045H754.403H752.753H751.093H749.424H747.746H746.059H744.361H742.654H740.937H739.21H737.473H735.725H733.967H732.198H730.419H728.628H726.826H725.013H723.189H721.353H719.505H717.646H715.774H713.891H711.995H710.086H710V1275ZM933.907 1275H933V1265H933.907H935.576H937.254H938.941H940.639H942.346H944.063H945.79H947.527H949.275H951.033H952.802H954.581H956.372H958.174H959.987H961.811H963.647H965.495H967.354H969.226H971.109H973.005H974.914H976.835H978.769H980.715H982.675H984.648H986.634H988.634H990.647H992.675H994.716H996.771H998.84H1000.92H1003.02H1005.14H1007.26H1009.41H1011.56H1013.74H1015.93H1018.13H1020.35H1022.58H1024.84H1027.1H1029.39H1031.69H1034.01H1036.34H1037V1275H1036.34H1034.01H1031.69H1029.39H1027.1H1024.84H1022.58H1020.35H1018.13H1015.93H1013.74H1011.56H1009.41H1007.26H1005.14H1003.02H1000.92H998.84H996.771H994.716H992.675H990.647H988.634H986.634H984.648H982.675H980.715H978.769H976.835H974.914H973.005H971.109H969.226H967.354H965.495H963.647H961.811H959.987H958.174H956.372H954.581H952.802H951.033H949.275H947.527H945.79H944.063H942.346H940.639H938.941H937.254H935.576H933.907ZM1537 1275V1265H1532.09H1526.35H1520.65H1514.99H1509.36H1503.76H1498.21H1492.68H1487.19H1481.74H1476.32H1470.93H1465.58H1463V1275H1465.58H1470.93H1476.32H1481.74H1487.19H1492.68H1498.21H1503.76H1509.36H1514.99H1520.65H1526.35H1532.09H1537ZM1583 1275H1585.36H1591.46H1597.6H1603.78H1610V1265H1603.78H1597.6H1591.46H1585.36H1583V1275ZM1417 1265V1275H1413.94H1408.96H1404.01H1399.09H1394.21H1389.35H1384.53H1379.74H1374.99H1370.26H1365.57H1360.9H1356.27H1351.67H1347.1H1342.56H1338.06H1333.58H1329.13H1324.71H1320.32H1315.97H1311.64H1307.34H1303.07H1298.83H1294.62H1290.43H1286.28H1282.16H1278.06H1273.99H1269.95H1265.94H1261.95H1258H1254.07H1250.17H1246.29H1242.44H1238.62H1234.83H1231.06H1227.32H1223.61H1219.92H1216.26H1212.62H1209.01H1205.43H1201.87H1198.34H1194.83H1191.35H1187.89H1184.46H1181.05H1177.66H1174.3H1170.97H1167.65H1164.37H1161.1H1157.86H1154.64H1151.45H1148.28H1145.13H1142H1138.9H1135.82H1132.76H1129.73H1126.71H1123.72H1120.75H1117.81H1114.88H1111.97H1109.09H1106.23H1103.38H1100.56H1097.76H1094.98H1092.22H1089.48H1086.76H1084.06H1083V1265H1084.06H1086.76H1089.48H1092.22H1094.98H1097.76H1100.56H1103.38H1106.23H1109.09H1111.97H1114.88H1117.81H1120.75H1123.72H1126.71H1129.73H1132.76H1135.82H1138.9H1142H1145.13H1148.28H1151.45H1154.64H1157.86H1161.1H1164.37H1167.65H1170.97H1174.3H1177.66H1181.05H1184.46H1187.89H1191.35H1194.83H1198.34H1201.87H1205.43H1209.01H1212.62H1216.26H1219.92H1223.61H1227.32H1231.06H1234.83H1238.62H1242.44H1246.29H1250.17H1254.07H1258H1261.95H1265.94H1269.95H1273.99H1278.06H1282.16H1286.28H1290.43H1294.62H1298.83H1303.07H1307.34H1311.64H1315.97H1320.32H1324.71H1329.13H1333.58H1338.06H1342.56H1347.1H1351.67H1356.27H1360.9H1365.57H1370.26H1374.99H1379.74H1384.53H1389.35H1394.21H1399.09H1404.01H1408.96H1413.94H1417ZM507 1265V1275H503.954H500.545H497.111H493.653H490.17H486.662H483.128H479.57H475.985H472.375H468.74H465.078H461.391H457.677H453.936H450.17H446.376H442.556H438.708H434.834H430.932H427.003H423.047H419.062H415.05H411.01H406.941H403V1265H406.941H411.01H415.05H419.062H423.047H427.003H430.932H434.834H438.708H442.556H446.376H450.17H453.936H457.677H461.391H465.078H468.74H472.375H475.985H479.57H483.128H486.662H490.17H493.653H497.111H500.545H503.954H507ZM357 1275V1265H355.871H351.423H346.945H342.436H337.897H333.327H328.727H324.095H319.432H314.739H310.013H305.256H300.468H295.647H290.795H285.91H280.993H276.044H271.062H266.047H260.999H255.919H250.805H245.657H240.477H235.262H233V1275H235.262H240.477H245.657H250.805H255.919H260.999H266.047H271.062H276.044H280.993H285.91H290.795H295.647H300.468H305.256H310.013H314.739H319.432H324.095H328.727H333.327H337.897H342.436H346.945H351.423H355.871H357ZM187 1265V1275H186.795H181.236H175.641H170.012H164.347H158.646H152.909H147.136H143V1265H147.136H152.909H158.646H164.347H170.012H175.641H181.236H186.795H187ZM97 1275L97 1265H93.5362H87.3952H81.2165H75V1275H81.2165H87.3952H93.5362H97Z" fill="#D9D9D9"/>
<path id="Subtract_8" fill-rule="evenodd" clip-rule="evenodd" d="M1605 1360V1370H1615V1360H1605ZM1605 1280L1615 1280V1270H1605V1280Z" fill="#D9D9D9"/>
<path id="Subtract_9" fill-rule="evenodd" clip-rule="evenodd" d="M2415 1280V1270H2405V1280L2415 1280ZM2415 1360H2405V1370H2415V1360Z" fill="#D9D9D9"/>
<path id="Subtract_10" fill-rule="evenodd" clip-rule="evenodd" d="M2237 1365V1375H1823V1365H2237ZM2405 1375H2283V1365H2410H2415V1370V1425H2477V1435H2410H2405V1430V1375ZM2523 1435H2817V1425H2523V1435ZM2902 1435H2863V1425H2902V1435ZM2948 1435H2965V1425H2948V1435ZM1777 1375V1365H1683V1375H1777ZM1637 1365V1375H1583V1365H1637ZM1537 1375V1365H1183V1375H1537ZM1137 1365V1375H1083V1365H1137ZM1037 1375V1365H803V1375H1037ZM757 1365V1375H683V1365H757ZM637 1375V1365H553V1375H637ZM507 1365V1375H233V1365H507ZM187 1375V1365H143V1375H187ZM97 1365L97 1375H75V1365H97Z" fill="#D9D9D9"/>
<path id="Subtract_11" fill-rule="evenodd" clip-rule="evenodd" d="M2365 0H2360V5V990V995H2365H2535V1075H2410H2310H2210H1810H1710H1610H1510H1310H1110H1015V980V975H1010H710H620H615V980V1075H425H260H165H75H70V1080V1220H80V1085H165H260H425H620H625V1080V985H710H1005V1080V1085H1010H1110H1310H1510H1610H1710H1810H2210H2310H2410H2540H2545V1080V990V985H2540H2370V10H2960V985H2800H2795V990V1080V1085H2800H2960V1280V1430V1645H2910H2800H2410H2210H1710H1610H1110H1005V1550V1545H1000H710H620H615V1550V1645H395H175H80V1360V1270V1250H70V1270V1360V1650V1655H75H175H395H620H625V1650V1555H710H995V1650V1655H1000H1110H1610H1710H2210H2410H2800H2910H2965H2970V1650V1430V1280V1080V1075H2965H2805V995H2965H2970V990V5V0H2965H2365Z" fill="#D9D9D9"/>
</g>
<g id="Textes">
<text id="text 19" fill="#D9D9D9" xml:space="preserve" style="white-space: pre" font-family="GothamSSm" font-size="24" font-weight="bold" letter-spacing="0em"><tspan x="85.3555" y="1171.8">&#x41f;&#x41a; 334</tspan></text>
<text id="text 20" fill="#D9D9D9" xml:space="preserve" style="white-space: pre" font-family="GothamSSm" font-size="24" font-weight="bold" letter-spacing="0em"><tspan x="180.082" y="1171.8">&#x41f;&#x41a; 335</tspan></text>
<text id="text 21" fill="#D9D9D9" xml:space="preserve" style="white-space: pre" font-family="GothamSSm" font-size="24" font-weight="bold" letter-spacing="0em"><tspan x="310.031" y="1171.8">&#x41f;&#x41a; 336</tspan></text>
<text id="text 22" fill="#D9D9D9" xml:space="preserve" style="white-space: pre" font-family="GothamSSm" font-size="24" font-weight="bold" letter-spacing="0em"><tspan x="490.246" y="1171.8">&#x41f;&#x41a; 337</tspan></text>
<text id="text 23" fill="#D9D9D9" xml:space="preserve" style="white-space: pre" font-family="GothamSSm" font-size="24" font-weight="bold" letter-spacing="0em"><tspan x="875.125" y="1131.8">&#x41f;&#x41a; 338</tspan></text>
<text id="text 24" fill="#D9D9D9" xml:space="preserve" style="white-space: pre" font-family="GothamSSm" font-size="24" font-weight="bold" letter-spacing="0em"><tspan x="1020.27" y="1171.8">&#x41f;&#x41a; 338&#x410;</tspan></text>
<text id="text 25" fill="#D9D9D9" xml:space="preserve" style="white-space: pre" font-family="GothamSSm" font-size="24" font-weight="bold" letter-spacing="0em"><tspan x="1275.34" y="1171.8">&#x41f;&#x41a; 340</tspan></text>
<text id="text 26" fill="#D9D9D9" xml:space="preserve" style="white-space: pre" font-family="GothamSSm" font-size="24" font-weight="bold" letter-spacing="0em"><tspan x="1530.18" y="1171.8">&#x41f;&#x41a; 341</tspan></text>
<text id="text 27" fill="#D9D9D9" xml:space="preserve" style="white-space: pre" font-family="GothamSSm" font-size="24" font-weight="bold" letter-spacing="0em"><tspan x="1975.23" y="1171.8">&#x41f;&#x41a; 342</tspan></text>
<text id="text 42" fill="#D9D9D9" xml:space="preserve" style="white-space: pre" font-family="GothamSSm" font-size="24" font-weight="bold" letter-spacing="0em"><tspan x="2665.36" y="1136.8">&#x41f;&#x41a; 343</tspan></text>
<text id="text 28" fill="#D9D9D9" xml:space="preserve" style="white-space: pre" font-family="GothamSSm" font-size="24" font-weight="bold" letter-spacing="0em"><tspan x="92.1406" y="1516.8">&#x41f;&#x41a; 312</tspan></text>
<text id="text 29" fill="#D9D9D9" xml:space="preserve" style="white-space: pre" font-family="GothamSSm" font-size="24" font-weight="bold" letter-spacing="0em"><tspan x="245.078" y="1516.8">&#x41f;&#x41a; 311&#x410;</tspan></text>
<text id="text 30" fill="#D9D9D9" xml:space="preserve" style="white-space: pre" font-family="GothamSSm" font-size="24" font-weight="bold" letter-spacing="0em"><tspan x="475.434" y="1516.8">&#x41f;&#x41a; 311</tspan></text>
<text id="text 31" fill="#D9D9D9" xml:space="preserve" style="white-space: pre" font-family="GothamSSm" font-size="24" font-weight="bold" letter-spacing="0em"><tspan x="633.25" y="1466.8">&#x41f;&#x41a; 310</tspan></text>
<text id="text 32" fill="#D9D9D9" xml:space="preserve" style="white-space: pre" font-family="GothamSSm" font-size="24" font-weight="bold" letter-spacing="0em"><tspan x="820.035" y="1466.8">&#x41f;&#x41a; 309</tspan></text>
<text id="text 33" fill="#D9D9D9" xml:space="preserve" style="white-space: pre" font-family="GothamSSm" font-size="24" font-weight="bold" letter-spacing="0em"><tspan x="1015.25" y="1516.8">&#x41f;&#x41a; 308&#x410;</tspan></text>
<text id="text 34" fill="#D9D9D9" xml:space="preserve" style="white-space: pre" font-family="GothamSSm" font-size="24" font-weight="bold" letter-spacing="0em"><tspan x="1185.11" y="1516.8">&#x41f;&#x41a; 308</tspan></text>
<text id="text 35" fill="#D9D9D9" xml:space="preserve" style="white-space: pre" font-family="GothamSSm" font-size="24" font-weight="bold" letter-spacing="0em"><tspan x="1435.29" y="1516.8">&#x41f;&#x41a; 307</tspan></text>
<text id="text 36" fill="#D9D9D9" xml:space="preserve" style="white-space: pre" font-family="GothamSSm" font-size="24" font-weight="bold" letter-spacing="0em"><tspan x="1625.01" y="1516.8">&#x41f;&#x41a; 306</tspan></text>
<text id="text 37" fill="#D9D9D9" xml:space="preserve" style="white-space: pre" font-family="GothamSSm" font-size="24" font-weight="bold" letter-spacing="0em"><tspan x="1925" y="1516.8">&#x41f;&#x41a; 305</tspan></text>
<text id="text 38" fill="#D9D9D9" xml:space="preserve" style="white-space: pre" font-family="GothamSSm" font-size="24" font-weight="bold" letter-spacing="0em"><tspan x="2275.34" y="1516.8">&#x41f;&#x41a; 304</tspan></text>
<text id="text 39" fill="#D9D9D9" xml:space="preserve" style="white-space: pre" font-family="GothamSSm" font-size="24" font-weight="bold" letter-spacing="0em"><tspan x="2565.18" y="1546.8">&#x41f;&#x41a; 303</tspan></text>
<text id="text 40" fill="#D9D9D9" xml:space="preserve" style="white-space: pre" font-family="GothamSSm" font-size="24" font-weight="bold" letter-spacing="0em"><tspan x="2809.07" y="1546.8">&#x41f;&#x41a; 302</tspan></text>
<text id="text 41" fill="#D9D9D9" xml:space="preserve" style="white-space: pre" font-family="GothamSSm" font-size="24" font-weight="bold" letter-spacing="0em"><tspan x="2893.34" y="1546.8">&#x41f;&#x41a; 301</tspan></text>
</g>
<g id="Entrances">
<circle id="1" cx="120" cy="1270" r="10" fill="#9CBBFF"/>
<circle id="2" cx="210" cy="1270" r="10" fill="#9CBBFF"/>
<circle id="3" cx="380" cy="1270" r="10" fill="#9CBBFF"/>
<circle id="4" cx="530" cy="1270" r="10" fill="#9CBBFF"/>
<circle id="5" cx="670" cy="1122" r="10" fill="#9CBBFF"/>
<circle id="6" cx="910" cy="1270" r="10" fill="#9CBBFF"/>
<circle id="7" cx="1060" cy="1270" r="10" fill="#9CBBFF"/>
<circle id="8" cx="1440" cy="1270" r="10" fill="#9CBBFF"/>
<circle id="9" cx="1560" cy="1270" r="10" fill="#9CBBFF"/>
<circle id="10" cx="2140" cy="1270" r="10" fill="#9CBBFF"/>
<circle id="11" cx="2260" cy="1270" r="10" fill="#9CBBFF"/>
<circle id="12" cx="2360" cy="1270" r="10" fill="#9CBBFF"/>
<circle id="13" cx="2460" cy="1270" r="10" fill="#9CBBFF"/>
<circle id="14" cx="2750" cy="1270" r="10" fill="#9CBBFF"/>
<circle id="15" cx="2550" cy="1270" r="10" fill="#9CBBFF"/>
<circle id="16" cx="2925" cy="1430" r="10" fill="#9CBBFF"/>
<circle id="17" cx="2840" cy="1430" r="10" fill="#9CBBFF"/>
<circle id="18" cx="2500" cy="1430" r="10" fill="#9CBBFF"/>
<circle id="19" cx="2260" cy="1370" r="10" fill="#9CBBFF"/>
<circle id="20" cx="1800" cy="1370" r="10" fill="#9CBBFF"/>
<circle id="21" cx="1660" cy="1370" r="10" fill="#9CBBFF"/>
<circle id="22" cx="1560" cy="1370" r="10" fill="#9CBBFF"/>
<circle id="23" cx="1160" cy="1370" r="10" fill="#9CBBFF"/>
<circle id="24" cx="1060" cy="1370" r="10" fill="#9CBBFF"/>
<circle id="25" cx="780" cy="1370" r="10" fill="#9CBBFF"/>
<circle id="26" cx="660" cy="1370" r="10" fill="#9CBBFF"/>
<circle id="27" cx="530" cy="1370" r="10" fill="#9CBBFF"/>
<circle id="28" cx="210" cy="1370" r="10" fill="#9CBBFF"/>
<circle id="29" cx="120" cy="1370" r="10" fill="#9CBBFF"/>
<circle id="30" cx="2880" cy="1191" r="10" fill="#9CBBFF"/>
</g>
<g id="Icons">
<g id="Doors">
<path id="Vector 301_2" d="M676 1279L704 1272H710" stroke="#A5A5A7" stroke-width="6"/>
<path id="Vector 302_2" d="M664 1279L636 1272H630" stroke="#A5A5A7" stroke-width="6"/>
</g>
<g id="Doors_2">
<path id="Vector 301_3" d="M2886 1299L2914 1292H2920" stroke="#A5A5A7" stroke-width="6"/>
<path id="Vector 302_3" d="M2874 1299L2846 1292H2840" stroke="#A5A5A7" stroke-width="6"/>
</g>
<g id="Stair">
<g id="Stair frame">
<path id="Vector 152" d="M710 1102H685V1117H670V1132H655V1147H630" stroke="#9CD9BC" stroke-width="5" stroke-linecap="round" stroke-linejoin="round"/>
<path id="Vector 154" d="M642 1102H657M657 1102L654 1116M657 1102L630 1123" stroke="#9CD9BC" stroke-width="3" stroke-linecap="round" stroke-linejoin="round"/>
<path id="Vector 155" d="M698 1147H683M683 1147L686 1133M683 1147L710 1126" stroke="#9CD9BC" stroke-width="3" stroke-linecap="round" stroke-linejoin="round"/>
</g>
</g>
<g id="Stair_2">
<g id="Stair frame_2">
<path id="Vector 152_2" d="M2927 1162H2902V1177H2887V1192H2872V1207H2847" stroke="#9CD9BC" stroke-width="5" stroke-linecap="round" stroke-linejoin="round"/>
<path id="Vector 154_2" d="M2859 1162H2874M2874 1162L2871 1176M2874 1162L2847 1183" stroke="#9CD9BC" stroke-width="3" stroke-linecap="round" stroke-linejoin="round"/>
<path id="Vector 155_2" d="M2915 1207H2900M2900 1207L2903 1193M2900 1207L2927 1186" stroke="#9CD9BC" stroke-width="3" stroke-linecap="round" stroke-linejoin="round"/>
</g>
</g>
<g id="Elevator">
<g id="Vector">
<path d="M2473 1222L2467 1216L2461 1222H2473Z" fill="#A091F8"/>
<path d="M2473 1226L2467 1232L2461 1226H2473Z" fill="#A091F8"/>
<path d="M2455 1222C2455 1219 2453 1216 2450 1216H2446C2443 1216 2441 1219 2441 1222V1227C2441 1229 2442.5 1230.5 2444 1230.5V1240C2444 1241.6 2445.33 1242 2446 1242H2450C2450.67 1242 2452 1241.6 2452 1240V1230.5C2453.5 1230.5 2455 1229 2455 1227V1222Z" fill="#A091F8"/>
<path d="M2452 1209C2452 1211.21 2450.21 1213 2448 1213C2445.79 1213 2444 1211.21 2444 1209C2444 1206.79 2445.79 1205 2448 1205C2450.21 1205 2452 1206.79 2452 1209Z" fill="#A091F8"/>
</g>
<path id="Vector 201" d="M2444.5 1252.5H2432.5V1197.5H2481.5V1252.5H2469.5" stroke="#A091F8" stroke-width="5" stroke-linecap="round" stroke-linejoin="round"/>
</g>
<g id="Elevator_2">
<g id="Vector_2">
<path d="M2568 1222L2562 1216L2556 1222H2568Z" fill="#A091F8"/>
<path d="M2568 1226L2562 1232L2556 1226H2568Z" fill="#A091F8"/>
<path d="M2550 1222C2550 1219 2548 1216 2545 1216H2541C2538 1216 2536 1219 2536 1222V1227C2536 1229 2537.5 1230.5 2539 1230.5V1240C2539 1241.6 2540.33 1242 2541 1242H2545C2545.67 1242 2547 1241.6 2547 1240V1230.5C2548.5 1230.5 2550 1229 2550 1227V1222Z" fill="#A091F8"/>
<path d="M2547 1209C2547 1211.21 2545.21 1213 2543 1213C2540.79 1213 2539 1211.21 2539 1209C2539 1206.79 2540.79 1205 2543 1205C2545.21 1205 2547 1206.79 2547 1209Z" fill="#A091F8"/>
</g>
<path id="Vector 201_2" d="M2539.5 1252.5H2527.5V1197.5H2576.5V1252.5H2564.5" stroke="#A091F8" stroke-width="5" stroke-linecap="round" stroke-linejoin="round"/>
</g>
<g id="Men">
<g id="Group 6">
<path id="Vector 200" d="M2265.5 1168.5L2274 1147H2246L2254.5 1168.5" stroke="#9CBBFF" stroke-width="5" stroke-linecap="round" stroke-linejoin="round"/>
<circle id="Ellipse 9" cx="2260" cy="1129" r="8" stroke="#9CBBFF" stroke-width="5" stroke-linecap="round" stroke-linejoin="round"/>
</g>
</g>
<g id="Woman">
<g id="Group 5">
<path id="Vector 200_2" d="M2365.5 1147L2374 1168.5H2346L2354.5 1147" stroke="#F783CB" stroke-width="5" stroke-linecap="round" stroke-linejoin="round"/>
<circle id="Ellipse 9_2" cx="2360" cy="1129" r="8" stroke="#F783CB" stroke-width="5" stroke-linecap="round" stroke-linejoin="round"/>
</g>
</g>
</g>
</g>
<defs>
<clipPath id="clip0_1_2102">
<rect width="2970" height="1655" fill="white"/>
</clipPath>
</defs>
</svg>
