<svg width="2970" height="680" viewBox="0 0 2970 680" fill="none" xmlns="http://www.w3.org/2000/svg">
<g id="PK-3-5" clip-path="url(#clip0_1_2882)">
<g id="Spaces">
<path id="!pk-3-5-auditorium" d="M260 105H165V295H260V105Z" fill="#3B3C41"/>
<path id="pk-532" d="M425 105H260V295H425V105Z" fill="#3B3C41"/>
<path id="pk-533" d="M505 105H425V295H505V105Z" fill="#3B3C41"/>
<path id="pk-534" d="M620 105H505V295H620V105Z" fill="#3B3C41"/>
<path id="pk-535" d="M1010 5H720V295H1010V5Z" fill="#3B3C41"/>
<path id="pk-536" d="M1010 105H1340V295H1010V105Z" fill="#3B3C41"/>
<path id="pk-537" d="M1340 105H1610V295H1340V105Z" fill="#3B3C41"/>
<path id="pk-538" d="M2210 105H1810V295H2210V105Z" fill="#3B3C41"/>
<path id="pk-3-5-wcm" opacity="0.2" d="M2310 105H2210V295H2310V105Z" fill="#9CBBFF"/>
<path id="pk-3-5-wcw" opacity="0.2" d="M2410 105H2310V295H2410V105Z" fill="#F783CB"/>
<path id="pk-3-5-lift-1" opacity="0.2" d="M2505 205H2410V295H2505V205Z" fill="#A091F8"/>
<path id="pk-3-5-lift-2" opacity="0.2" d="M2505 205H2600V295H2505V205Z" fill="#A091F8"/>
<path id="pk-3-5-stair-2" opacity="0.2" d="M2965 105H2800V315H2965V105Z" fill="#9CD9BC"/>
<path id="pk-508" d="M620 395H75V675H620V395Z" fill="#3B3C41"/>
<path id="pk-507" d="M1000 395H620V575H1000V395Z" fill="#3B3C41"/>
<path id="pk-506" d="M1230 395H1000V675H1230V395Z" fill="#3B3C41"/>
<path id="pk-505" d="M1610 395H1230V675H1610V395Z" fill="#3B3C41"/>
<path id="pk-504" d="M2020 395H1610V675H2020V395Z" fill="#3B3C41"/>
<path id="pk-503A-&#208;&#145;" d="M2410 395H2210V675H2410V395Z" fill="#3B3C41"/>
<path id="pk-503" d="M2210 395H2020V675H2210V395Z" fill="#3B3C41"/>
<path id="pk-502" d="M2800 395H2410V675H2800V395Z" fill="#3B3C41"/>
<path id="pk-501" d="M2965 395H2800V675H2965V395Z" fill="#3B3C41"/>
<path id="pk-539" d="M2800 295H2600V205H2410V105H2600H2800V295Z" fill="#3B3C41"/>
<path id="pk-3-5-stair-1" opacity="0.2" d="M720 5H620V295H720V5Z" fill="#9CD9BC"/>
</g>
<g id="Walls">
<path id="Subtract" fill-rule="evenodd" clip-rule="evenodd" d="M2225 237H2210V243H2225L2225 237ZM2255 243H2310V237H2255V243Z" fill="#A5A5A7"/>
<path id="Subtract_2" fill-rule="evenodd" clip-rule="evenodd" d="M2358 237H2310V243H2358V237ZM2388 243H2410V237H2388V243Z" fill="#A5A5A7"/>
<path id="Subtract_3" fill-rule="evenodd" clip-rule="evenodd" d="M105 222H75V228H105V222ZM135 228H165V222H135V228Z" fill="#A5A5A7"/>
<path id="Vector 289" d="M165 105V295" stroke="#D9D9D9" stroke-width="10"/>
<path id="Vector 290" d="M260 105V295" stroke="#D9D9D9" stroke-width="10"/>
<path id="Vector 291" d="M425 105V295" stroke="#D9D9D9" stroke-width="10"/>
<path id="Vector 328" d="M505 105V295" stroke="#D9D9D9" stroke-width="10"/>
<path id="Vector 292" d="M620 105V295" stroke="#D9D9D9" stroke-width="10"/>
<path id="Vector 293" d="M720 5V295" stroke="#D9D9D9" stroke-width="10"/>
<path id="Vector 294" d="M1010 105V295" stroke="#D9D9D9" stroke-width="10"/>
<path id="Vector 297" d="M1340 105V295" stroke="#D9D9D9" stroke-width="10"/>
<path id="Vector 298" d="M1610 105V295" stroke="#D9D9D9" stroke-width="10"/>
<path id="Vector 301" d="M2210 105V295" stroke="#D9D9D9" stroke-width="10"/>
<path id="Vector 302" d="M2310 105V295" stroke="#D9D9D9" stroke-width="10"/>
<path id="Vector 303" d="M2410 105V295" stroke="#D9D9D9" stroke-width="10"/>
<path id="Vector 305" d="M2800 295V105" stroke="#D9D9D9" stroke-width="10"/>
<path id="Vector 310" d="M1000 575V395" stroke="#D9D9D9" stroke-width="10"/>
<path id="Vector 324" d="M2600 205H2410" stroke="#D9D9D9" stroke-width="10"/>
<path id="Vector 313" d="M1610 675V395" stroke="#D9D9D9" stroke-width="10"/>
<path id="Vector 314" d="M1230 675V395" stroke="#D9D9D9" stroke-width="10"/>
<path id="Vector 315" d="M2020 675V395" stroke="#D9D9D9" stroke-width="10"/>
<path id="Vector 316" d="M2210 675V395" stroke="#D9D9D9" stroke-width="10"/>
<path id="Vector 317" d="M2410 675V395" stroke="#D9D9D9" stroke-width="10"/>
<path id="Vector 318" d="M2800 675V395" stroke="#D9D9D9" stroke-width="10"/>
<path id="Vector 325" d="M2505 295V205" stroke="#D9D9D9" stroke-width="10"/>
<path id="Vector 327" d="M75 105V5H0M75 575H1.2219e-06" stroke="#D9D9D9" stroke-width="10"/>
<path id="Subtract_4" fill-rule="evenodd" clip-rule="evenodd" d="M1805 105V295V300H1810H2117V290H1815V105H1805ZM2163 300H2237V290H2163V300ZM2337 300H2283V290H2337V300ZM2573 300H2727V290H2573V300ZM2795 300H2773V290H2800H2805V295V310H2840V320H2800H2795V315V300ZM2437 290H2383V300H2437V290ZM2483 290V300H2527V290H2483ZM2965 320H2920V310H2965V320Z" fill="#D9D9D9"/>
<path id="Subtract_5" fill-rule="evenodd" clip-rule="evenodd" d="M1278 300V290H1277.9H1273.84H1269.82H1265.82H1261.85H1257.91H1253.99H1250.11H1246.25H1242.41H1238.61H1234.83H1231.08H1227.35H1223.65H1219.98H1216.33H1212.71H1209.11H1205.54H1202H1198.48H1194.98H1191.51H1188.07H1184.65H1181.25H1177.88H1174.54H1171.21H1167.91H1164.64H1161.39H1158.16H1154.95H1151.77H1148.62H1145.48H1142.37H1139.28H1136.21H1133.16H1130.14H1127.14H1124.16H1121.2H1118.27H1115.35H1112.46H1109.59H1106.73H1103.9H1101.09H1098.31H1095.54H1092.79H1090.06H1087.35H1084.66H1081.99H1079.34H1076.71H1074.1H1071.51H1068.93H1066.38H1063.84H1061.33H1058.83H1056.34H1053.88H1051.44H1049.01H1046.6H1044.21H1041.83H1039.47H1037.13H1034.81H1032.5H1030.21H1027.93H1025.67H1023.43H1021.2H1018.99H1016.79H1014.61H1012.45H1010.3H1008.16H1006.05H1003.94H1001.85H999.773H997.711H995.664H993.63H991.61H989.604H987.611H985.632H983.666H981.713H979.773H977.845H976V300H977.845H979.773H981.713H983.666H985.632H987.611H989.604H991.61H993.63H995.664H997.711H999.773H1001.85H1003.94H1006.05H1008.16H1010.3H1012.45H1014.61H1016.79H1018.99H1021.2H1023.43H1025.67H1027.93H1030.21H1032.5H1034.81H1037.13H1039.47H1041.83H1044.21H1046.6H1049.01H1051.44H1053.88H1056.34H1058.83H1061.33H1063.84H1066.38H1068.93H1071.51H1074.1H1076.71H1079.34H1081.99H1084.66H1087.35H1090.06H1092.79H1095.54H1098.31H1101.09H1103.9H1106.73H1109.59H1112.46H1115.35H1118.27H1121.2H1124.16H1127.14H1130.14H1133.16H1136.21H1139.28H1142.37H1145.48H1148.62H1151.77H1154.95H1158.16H1161.39H1164.64H1167.91H1171.21H1174.54H1177.88H1181.25H1184.65H1188.07H1191.51H1194.98H1198.48H1202H1205.54H1209.11H1212.71H1216.33H1219.98H1223.65H1227.35H1231.08H1234.83H1238.61H1242.41H1246.25H1250.11H1253.99H1257.91H1261.85H1265.82H1269.82H1273.84H1277.9H1278ZM1324 300H1324.38H1328.78H1333.21H1337.68H1342.17H1346.69H1351.25H1355.83H1360.45H1365.09H1369.77H1374.48H1379.22H1383.99H1388.8H1393.63H1398.5H1403.4H1408.34H1413.3H1418.3H1423.33H1428.39H1433.49H1438.62H1443.79H1448.98H1454.22H1459.48H1464.78H1470.11H1475.48H1480.88H1486.32H1491.79H1497.3H1502.84H1508.42H1514.03H1519.68H1525.36H1531.08H1536.84H1537V290H1536.84H1531.08H1525.36H1519.68H1514.03H1508.42H1502.84H1497.3H1491.79H1486.32H1480.88H1475.48H1470.11H1464.78H1459.48H1454.22H1448.98H1443.79H1438.62H1433.49H1428.39H1423.33H1418.3H1413.3H1408.34H1403.4H1398.5H1393.63H1388.8H1383.99H1379.22H1374.48H1369.77H1365.09H1360.45H1355.83H1351.25H1346.69H1342.17H1337.68H1333.21H1328.78H1324.38H1324V300ZM524 290V300H522.086H518.787H515.465H512.118H508.747H505.351H501.931H498.486H495.017H491.522H488.003H486V290H488.003H491.522H495.017H498.486H501.931H505.351H508.747H512.118H515.465H518.787H522.086H524ZM571.734 300H570V290H571.734H574.648H577.542H580.414H583.265H586.096H588.906H591.695H594.464H597.213H599.941H602.65H605.339H608.008H610.658H613.289H615.9H618.493H621.066H623.621H626.157H628.675H630V300H628.675H626.157H623.621H621.066H618.493H615.9H613.289H610.658H608.008H605.339H602.65H599.941H597.213H594.464H591.695H588.906H586.096H583.265H580.414H577.542H574.648H571.734ZM710 300H710.227H712.155H714.069H715.972H717.861H719.739H721.605H723.458H725.3H727.131H728.95H730.757H732.554H734.339H736.114H737.878H739.631H741.374H743.107H744.829H746.542H748.245H749.938H751.621H753.295H754.961H756.616H758.264H759.902H761.531H763.153H764.765H766.37H767.967H769.555H771.137H772.71H774.276H775.835H777.386H778.931H780.469H782H783.524H785.042H786.554H788.06H789.56H791.054H792.542H794.025H795.503H796.975H798.442H799.905H801.362H802.815H804.264H805.708H807.148H808.584H810.017H811.445H812.87H814.291H815.71H817.125H818.537H819.946H821.353H822.757H824.159H825.558H826.956H828.351H829.745H831.137H832.527H833.917H835.305H836.692H838.078H839.463H840.848H842.232H843.616H845H846.384H847.768H849.152H850.537H851.922H853.308H854.695H856.084H857.473H858.863H860.255H861.649H863.045H864.442H865.841H867.243H868.647H870.054H871.463H872.875H874.29H875.709H877.13H878.555H879.984H881.416H882.852H884.292H885.736H887.185H888.638H890.095H891.558H893.025H894.497H895.975H897.458H898.946H900.44H901.94H903.446H904.958H906.476H908H909.531H911.069H912.614H914.165H915.724H917.29H918.864H920.445H922.033H923.63H925.235H926.847H928.469H930V290H928.469H926.847H925.235H923.63H922.033H920.445H918.864H917.29H915.724H914.165H912.614H911.069H909.531H908H906.476H904.958H903.446H901.94H900.44H898.946H897.458H895.975H894.497H893.025H891.558H890.095H888.638H887.185H885.736H884.292H882.852H881.416H879.984H878.555H877.13H875.709H874.29H872.875H871.463H870.054H868.647H867.243H865.841H864.442H863.045H861.649H860.255H858.863H857.473H856.084H854.695H853.308H851.922H850.537H849.152H847.768H846.384H845H843.616H842.232H840.848H839.463H838.078H836.692H835.305H833.917H832.527H831.137H829.745H828.351H826.956H825.558H824.159H822.757H821.353H819.946H818.537H817.125H815.71H814.291H812.87H811.445H810.017H808.584H807.148H805.708H804.264H802.815H801.362H799.905H798.442H796.975H795.503H794.025H792.542H791.054H789.56H788.06H786.554H785.042H783.524H782H780.469H778.931H777.386H775.835H774.276H772.71H771.137H769.555H767.967H766.37H764.765H763.153H761.531H759.902H758.264H756.616H754.961H753.295H751.621H749.938H748.245H746.542H744.829H743.107H741.374H739.631H737.878H736.114H734.339H732.554H730.757H728.95H727.131H725.3H723.458H721.605H719.739H717.861H715.972H714.069H712.155H710.227H710V300ZM1583 300H1584.19H1590.28H1596.4H1602.56H1608.76H1615V290H1608.76H1602.56H1596.4H1590.28H1584.19H1583V300ZM440 290V300H439.893H436.006H432.092H428.15H424.18H420.183H416.158H412.104H408.023H403.913H403V290H403.913H408.023H412.104H416.158H420.183H424.18H428.15H432.092H436.006H439.893H440ZM357 300V290H356.786H352.323H347.83H343.307H338.753H334.169H329.553H324.907H320.229H315.52H310.779H306.006H301.202H296.366H291.498H286.597H281.664H276.699H271.7H266.669H261.605H256.508H251.377H246.213H241.016H235.784H233V300H235.784H241.016H246.213H251.377H256.508H261.605H266.669H271.7H276.699H281.664H286.597H291.498H296.366H301.202H306.006H310.779H315.52H320.229H324.907H329.553H334.169H338.753H343.307H347.83H352.323H356.786H357ZM187 290V300H181.582H175.969H170.321H164.638H158.918H153.163H147.371H143V290H147.371H153.163H158.918H164.638H170.321H175.969H181.582H187ZM97 300L97 290H93.5966H87.4355H81.2367H75V300H81.2367H87.4355H93.5966H97Z" fill="#D9D9D9"/>
<path id="Subtract_6" fill-rule="evenodd" clip-rule="evenodd" d="M2054 400V390H1782V400H2054ZM2100 400H2290V390H2100V400ZM2884 390V400H2480V390H2884ZM2965 400H2930V390H2965V400ZM2434 400V390H2410H2336V400H2410H2434ZM1736 400V390H1386V400H1736ZM1340 390V400H1115V390H1340ZM1069 400V390H683V400H1069ZM637 390V400H156V390H637ZM110 400V390H75V400H110Z" fill="#D9D9D9"/>
<path id="Subtract_7" fill-rule="evenodd" clip-rule="evenodd" d="M620 0H615V5V100H425H260H165H75H70V105V245H80V110H165H260H425H620H625V105V10H710H1005V105V110H1010H1110H1310H1510H1610H1710H1810H2210H2310H2410H2800H2960V305V455V670H2910H2800H2410H2210H1710H1610H1110H1005V575V570H1000H710H620H615V575V670H395H175H80V385V295V275H70V295V385V675V680H75H175H395H620H625V675V580H710H995V675V680H1000H1110H1610H1710H2210H2410H2800H2910H2965H2970V675V455V305V105V100H2965H2800H2410H2310H2210H1810H1710H1610H1510H1310H1110H1015V5V0H1010H710H620Z" fill="#D9D9D9"/>
<path id="Subtract_8" fill-rule="evenodd" clip-rule="evenodd" d="M2595 185V295H2605V185H2595ZM2595 155H2605V105H2595V155Z" fill="#D9D9D9"/>
<path id="Subtract_9" fill-rule="evenodd" clip-rule="evenodd" d="M625 304V295H615V304L625 304ZM625 384H615V395V575H625V395V384Z" fill="#D9D9D9"/>
</g>
<g id="Texts">
<text id="&#208;&#159;&#208;&#154; 508" fill="#D9D9D9" xml:space="preserve" style="white-space: pre" font-family="GothamSSm" font-size="24" font-weight="bold" letter-spacing="0em"><tspan x="313.023" y="542.8">&#x41f;&#x41a; 508</tspan></text>
<text id="&#208;&#159;&#208;&#154; 532" fill="#D9D9D9" xml:space="preserve" style="white-space: pre" font-family="GothamSSm" font-size="24" font-weight="bold" letter-spacing="0em"><tspan x="309.465" y="207.8">&#x41f;&#x41a; 532</tspan></text>
<text id="&#208;&#159;&#208;&#154; 507" fill="#D9D9D9" xml:space="preserve" style="white-space: pre" font-family="GothamSSm" font-size="24" font-weight="bold" letter-spacing="0em"><tspan x="776.203" y="492.8">&#x41f;&#x41a; 507</tspan></text>
<text id="&#208;&#159;&#208;&#154; 536" fill="#D9D9D9" xml:space="preserve" style="white-space: pre" font-family="GothamSSm" font-size="24" font-weight="bold" letter-spacing="0em"><tspan x="1141.48" y="207.8">&#x41f;&#x41a; 536</tspan></text>
<text id="&#208;&#159;&#208;&#154; 506" fill="#D9D9D9" xml:space="preserve" style="white-space: pre" font-family="GothamSSm" font-size="24" font-weight="bold" letter-spacing="0em"><tspan x="1080.43" y="542.8">&#x41f;&#x41a; 506</tspan></text>
<text id="&#208;&#159;&#208;&#154; 537" fill="#D9D9D9" xml:space="preserve" style="white-space: pre" font-family="GothamSSm" font-size="24" font-weight="bold" letter-spacing="0em"><tspan x="1442.2" y="207.8">&#x41f;&#x41a; 537</tspan></text>
<text id="&#208;&#159;&#208;&#154; 505" fill="#D9D9D9" xml:space="preserve" style="white-space: pre" font-family="GothamSSm" font-size="24" font-weight="bold" letter-spacing="0em"><tspan x="1385.42" y="542.8">&#x41f;&#x41a; 505</tspan></text>
<text id="&#208;&#159;&#208;&#154; 504" fill="#D9D9D9" xml:space="preserve" style="white-space: pre" font-family="GothamSSm" font-size="24" font-weight="bold" letter-spacing="0em"><tspan x="1780.25" y="542.8">&#x41f;&#x41a; 504</tspan></text>
<text id="&#208;&#159;&#208;&#154; 503" fill="#D9D9D9" xml:space="preserve" style="white-space: pre" font-family="GothamSSm" font-size="24" font-weight="bold" letter-spacing="0em"><tspan x="2081.1" y="542.8">&#x41f;&#x41a; 503</tspan></text>
<text id="&#208;&#159;&#208;&#154; 538" fill="#D9D9D9" xml:space="preserve" style="white-space: pre" font-family="GothamSSm" font-size="24" font-weight="bold" letter-spacing="0em"><tspan x="1977.08" y="207.8">&#x41f;&#x41a; 538</tspan></text>
<text id="&#208;&#159;&#208;&#154; 503&#208;&#144;-&#208;&#145;" fill="#D9D9D9" xml:space="preserve" style="white-space: pre" font-family="GothamSSm" font-size="24" font-weight="bold" letter-spacing="0em"><tspan x="2259.14" y="542.8">&#x41f;&#x41a; 503&#x410;-&#x411;</tspan></text>
<text id="&#208;&#159;&#208;&#154; 502" fill="#D9D9D9" xml:space="preserve" style="white-space: pre" font-family="GothamSSm" font-size="24" font-weight="bold" letter-spacing="0em"><tspan x="2571.49" y="542.8">&#x41f;&#x41a; 502</tspan></text>
<text id="&#208;&#159;&#208;&#154; 539" fill="#D9D9D9" xml:space="preserve" style="white-space: pre" font-family="GothamSSm" font-size="24" font-weight="bold" letter-spacing="0em"><tspan x="2668.07" y="208.8">&#x41f;&#x41a; 539</tspan></text>
<text id="&#208;&#159;&#208;&#154; 501" fill="#D9D9D9" xml:space="preserve" style="white-space: pre" font-family="GothamSSm" font-size="24" font-weight="bold" letter-spacing="0em"><tspan x="2850.26" y="542.8">&#x41f;&#x41a; 501</tspan></text>
<text id="&#208;&#159;&#208;&#154; 535" fill="#D9D9D9" xml:space="preserve" style="white-space: pre" font-family="GothamSSm" font-size="24" font-weight="bold" letter-spacing="0em"><tspan x="832.035" y="157.8">&#x41f;&#x41a; 535</tspan></text>
<text id="&#208;&#159;&#208;&#154; 533" fill="#D9D9D9" xml:space="preserve" style="white-space: pre" font-family="GothamSSm" font-size="24" font-weight="bold" letter-spacing="0em"><tspan x="432.059" y="207.8">&#x41f;&#x41a; 533</tspan></text>
<text id="&#208;&#159;&#208;&#154; 534" fill="#D9D9D9" xml:space="preserve" style="white-space: pre" font-family="GothamSSm" font-size="24" font-weight="bold" letter-spacing="0em"><tspan x="528.309" y="207.8">&#x41f;&#x41a; 534</tspan></text>
</g>
<g id="Entrances">
<circle id="2" cx="133" cy="395" r="10" fill="#9CBBFF"/>
<circle id="4" cx="380" cy="295" r="10" fill="#9CBBFF"/>
<circle id="5" cx="463" cy="295" r="10" fill="#9CBBFF"/>
<circle id="6" cx="547" cy="295" r="10" fill="#9CBBFF"/>
<circle id="7" cx="670" cy="150" r="10" fill="#9CBBFF"/>
<circle id="8" cx="660" cy="395" r="10" fill="#9CBBFF"/>
<circle id="9" cx="953" cy="295" r="10" fill="#9CBBFF"/>
<circle id="10" cx="1092" cy="395" r="10" fill="#9CBBFF"/>
<circle id="11" cx="1301" cy="295" r="10" fill="#9CBBFF"/>
<circle id="12" cx="1363" cy="395" r="10" fill="#9CBBFF"/>
<circle id="13" cx="1560" cy="295" r="10" fill="#9CBBFF"/>
<circle id="14" cx="1759" cy="395" r="10" fill="#9CBBFF"/>
<circle id="15" cx="2077" cy="395" r="10" fill="#9CBBFF"/>
<circle id="16" cx="2140" cy="295" r="10" fill="#9CBBFF"/>
<circle id="17" cx="2313" cy="395" r="10" fill="#9CBBFF"/>
<circle id="18" cx="2260" cy="295" r="10" fill="#9CBBFF"/>
<circle id="19" cx="2360" cy="295" r="10" fill="#9CBBFF"/>
<circle id="20" cx="2457" cy="395" r="10" fill="#9CBBFF"/>
<circle id="21" cx="2460" cy="295" r="10" fill="#9CBBFF"/>
<circle id="22" cx="2550" cy="295" r="10" fill="#9CBBFF"/>
<circle id="23" cx="2907" cy="395" r="10" fill="#9CBBFF"/>
<circle id="24" cx="2750" cy="295" r="10" fill="#9CBBFF"/>
<circle id="25" cx="2880" cy="215" r="10" fill="#9CBBFF"/>
</g>
<g id="Icons">
<g id="Doors">
<path id="Vector 301_2" d="M676 304L704 297H710" stroke="#A5A5A7" stroke-width="6"/>
<path id="Vector 302_2" d="M664 304L636 297H630" stroke="#A5A5A7" stroke-width="6"/>
</g>
<g id="Doors_2">
<path id="Vector 301_3" d="M2886 324L2914 317H2920" stroke="#A5A5A7" stroke-width="6"/>
<path id="Vector 302_3" d="M2874 324L2846 317H2840" stroke="#A5A5A7" stroke-width="6"/>
</g>
<g id="Stair">
<g id="Stair frame">
<path id="Vector 152" d="M710 127H685V142H670V157H655V172H630" stroke="#9CD9BC" stroke-width="5" stroke-linecap="round" stroke-linejoin="round"/>
<path id="Vector 154" d="M642 127H657M657 127L654 141M657 127L630 148" stroke="#9CD9BC" stroke-width="3" stroke-linecap="round" stroke-linejoin="round"/>
<path id="Vector 155" d="M698 172H683M683 172L686 158M683 172L710 151" stroke="#9CD9BC" stroke-width="3" stroke-linecap="round" stroke-linejoin="round"/>
</g>
</g>
<g id="Stair_2">
<g id="Stair frame_2">
<path id="Vector 152_2" d="M2927 187H2902V202H2887V217H2872V232H2847" stroke="#9CD9BC" stroke-width="5" stroke-linecap="round" stroke-linejoin="round"/>
<path id="Vector 154_2" d="M2859 187H2874M2874 187L2871 201M2874 187L2847 208" stroke="#9CD9BC" stroke-width="3" stroke-linecap="round" stroke-linejoin="round"/>
<path id="Vector 155_2" d="M2915 232H2900M2900 232L2903 218M2900 232L2927 211" stroke="#9CD9BC" stroke-width="3" stroke-linecap="round" stroke-linejoin="round"/>
</g>
</g>
<g id="Elevator">
<g id="Vector">
<path d="M2473 247L2467 241L2461 247H2473Z" fill="#A091F8"/>
<path d="M2473 251L2467 257L2461 251H2473Z" fill="#A091F8"/>
<path d="M2455 247C2455 244 2453 241 2450 241H2446C2443 241 2441 244 2441 247V252C2441 254 2442.5 255.5 2444 255.5V265C2444 266.6 2445.33 267 2446 267H2450C2450.67 267 2452 266.6 2452 265V255.5C2453.5 255.5 2455 254 2455 252V247Z" fill="#A091F8"/>
<path d="M2452 234C2452 236.209 2450.21 238 2448 238C2445.79 238 2444 236.209 2444 234C2444 231.791 2445.79 230 2448 230C2450.21 230 2452 231.791 2452 234Z" fill="#A091F8"/>
</g>
<path id="Vector 201" d="M2444.5 277.5H2432.5V222.5H2481.5V277.5H2469.5" stroke="#A091F8" stroke-width="5" stroke-linecap="round" stroke-linejoin="round"/>
</g>
<g id="Elevator_2">
<g id="Vector_2">
<path d="M2568 247L2562 241L2556 247H2568Z" fill="#A091F8"/>
<path d="M2568 251L2562 257L2556 251H2568Z" fill="#A091F8"/>
<path d="M2550 247C2550 244 2548 241 2545 241H2541C2538 241 2536 244 2536 247V252C2536 254 2537.5 255.5 2539 255.5V265C2539 266.6 2540.33 267 2541 267H2545C2545.67 267 2547 266.6 2547 265V255.5C2548.5 255.5 2550 254 2550 252V247Z" fill="#A091F8"/>
<path d="M2547 234C2547 236.209 2545.21 238 2543 238C2540.79 238 2539 236.209 2539 234C2539 231.791 2540.79 230 2543 230C2545.21 230 2547 231.791 2547 234Z" fill="#A091F8"/>
</g>
<path id="Vector 201_2" d="M2539.5 277.5H2527.5V222.5H2576.5V277.5H2564.5" stroke="#A091F8" stroke-width="5" stroke-linecap="round" stroke-linejoin="round"/>
</g>
<g id="Men">
<g id="Group 6">
<path id="Vector 200" d="M2265.5 193.5L2274 172H2246L2254.5 193.5" stroke="#9CBBFF" stroke-width="5" stroke-linecap="round" stroke-linejoin="round"/>
<circle id="Ellipse 9" cx="2260" cy="154" r="8" stroke="#9CBBFF" stroke-width="5" stroke-linecap="round" stroke-linejoin="round"/>
</g>
</g>
<g id="Woman">
<g id="Group 5">
<path id="Vector 200_2" d="M2365.5 172L2374 193.5H2346L2354.5 172" stroke="#F783CB" stroke-width="5" stroke-linecap="round" stroke-linejoin="round"/>
<circle id="Ellipse 9_2" cx="2360" cy="154" r="8" stroke="#F783CB" stroke-width="5" stroke-linecap="round" stroke-linejoin="round"/>
</g>
</g>
<g id="Doors_3">
<path id="Vector 301_4" d="M611 350L618 378V384" stroke="#A5A5A7" stroke-width="6"/>
<path id="Vector 302_4" d="M611 338L618 310V304" stroke="#A5A5A7" stroke-width="6"/>
</g>
</g>
</g>
<defs>
<clipPath id="clip0_1_2882">
<rect width="2970" height="680" fill="white"/>
</clipPath>
</defs>
</svg>
