<svg width="2970" height="1655" viewBox="0 0 2970 1655" fill="none" xmlns="http://www.w3.org/2000/svg">
<g id="PK-3-1" clip-path="url(#clip0_1_1896)">
<g id="Spaces">
<path id="pk-126" d="M165 1080H75V1271H165V1080Z" fill="#3B3C41"/>
<path id="pk-127" d="M260 1080H165V1271H260V1080Z" fill="#3B3C41"/>
<path id="pk-128" d="M620 1080H260V1271H620V1080Z" fill="#3B3C41"/>
<path id="!pk-129" d="M809 981H720V1271H809V981Z" fill="#3B3C41"/>
<path id="pk-130" d="M938 1271V1081V981H1010V1080H1192V1271H938Z" fill="#3B3C41"/>
<path id="pk-wordrobe" d="M1567 1081H1192V1271H1567V1081Z" fill="#3B3C41"/>
<path id="!pk-0" d="M1566 1080H1666V1270H1566V1080Z" fill="#3B3C41"/>
<path id="!pk-0_2" d="M1666 1080H1766V1270H1666V1080Z" fill="#3B3C41"/>
<path id="pk-133" d="M2210 1085H1766V1271H2210V1085Z" fill="#3B3C41"/>
<path id="pk-3-1-wcm" opacity="0.2" d="M2310 1085H2210V1271H2310V1085Z" fill="#9CBBFF"/>
<path id="pk-3-1-wcw" opacity="0.2" d="M2410 1085H2310V1271H2410V1085Z" fill="#F783CB"/>
<path id="pk-3-1-lift-1" opacity="0.2" d="M2505 1185H2410V1270H2505V1185Z" fill="#A091F8"/>
<path id="pk-3-1-lift-2" opacity="0.2" d="M2505 1185H2600V1270H2505V1185Z" fill="#A091F8"/>
<path id="pk-3-1-stair-2" opacity="0.2" d="M2965 1085H2800V1295H2965V1085Z" fill="#9CD9BC"/>
<path id="pk-3-1-stair-2-1" opacity="0.2" d="M2965 1435H2800V1650H2965V1435Z" fill="#9CD9BC"/>
<path id="pk-106" d="M395 1371H76V1655H395V1371Z" fill="#3B3C41"/>
<path id="pk-105" d="M395 1370H712V1555H621V1655H395V1370Z" fill="#3B3C41"/>
<path id="pk-104" d="M809 1370H712V1555H809V1370Z" fill="#3B3C41"/>
<path id="pk-103" d="M1610 1370H1000V1650H1610V1370Z" fill="#3B3C41"/>
<path id="pk-306" d="M1710 1370H1610V1655H1710V1370Z" fill="#3B3C41"/>
<path id="pk-101" d="M2414 1370H1710V1650H2414V1370Z" fill="#3B3C41"/>
<path id="pk-3-1-stair-1" opacity="0.2" d="M720 980H620V1271H720V980Z" fill="#9CD9BC"/>
</g>
<g id="Walls">
<path id="Subtract" fill-rule="evenodd" clip-rule="evenodd" d="M2245 1197H2210V1203H2245V1197ZM2275 1203H2310V1197H2275V1203Z" fill="#A5A5A7"/>
<path id="Subtract_2" fill-rule="evenodd" clip-rule="evenodd" d="M2345 1197H2310V1203H2345V1197ZM2375 1203H2410V1197H2375V1203Z" fill="#A5A5A7"/>
<path id="Subtract_3" fill-rule="evenodd" clip-rule="evenodd" d="M806 1274V984H812V1274H806Z" fill="#A5A5A7"/>
<path id="Subtract_4" fill-rule="evenodd" clip-rule="evenodd" d="M1094 1269V1080H1100V1269H1094Z" fill="#A5A5A7"/>
<path id="Vector 289" d="M165 1080V1270" stroke="#D9D9D9" stroke-width="10"/>
<path id="Vector 290" d="M260 1080V1270" stroke="#D9D9D9" stroke-width="10"/>
<path id="Vector 292" d="M620 1080V1270" stroke="#D9D9D9" stroke-width="10"/>
<path id="Vector 293" d="M720 980V1270" stroke="#D9D9D9" stroke-width="10"/>
<path id="Vector 294" d="M938 984L938 1270" stroke="#D9D9D9" stroke-width="10"/>
<path id="Vector 295" d="M1192 1080V1270" stroke="#D9D9D9" stroke-width="10"/>
<path id="Vector 297" d="M1567 1081V1271" stroke="#D9D9D9" stroke-width="10"/>
<path id="Vector 298" d="M1666 1081V1271" stroke="#D9D9D9" stroke-width="10"/>
<path id="Vector 301" d="M2210 1080V1270" stroke="#D9D9D9" stroke-width="10"/>
<path id="Vector 302" d="M2310 1080V1270" stroke="#D9D9D9" stroke-width="10"/>
<path id="Vector 303" d="M2410 1080V1270" stroke="#D9D9D9" stroke-width="10"/>
<path id="Vector 304" d="M2540 1080H2600V1270" stroke="#D9D9D9" stroke-width="10"/>
<path id="Vector 305" d="M2800 1270V1080" stroke="#D9D9D9" stroke-width="10"/>
<path id="Vector 307" d="M395 1650V1370" stroke="#D9D9D9" stroke-width="10"/>
<path id="Vector 309" d="M710 1370V1550" stroke="#D9D9D9" stroke-width="10"/>
<path id="Vector 328" d="M807 1370V1550" stroke="#D9D9D9" stroke-width="10"/>
<path id="Vector 310" d="M1000 1550V1370" stroke="#D9D9D9" stroke-width="10"/>
<path id="Vector 311" d="M2540 990H2800" stroke="#D9D9D9" stroke-width="10"/>
<path id="Vector 324" d="M2600 1180H2410" stroke="#D9D9D9" stroke-width="10"/>
<path id="Vector 313" d="M1610 1650V1370" stroke="#D9D9D9" stroke-width="10"/>
<path id="Vector 315" d="M1710 1650V1370" stroke="#D9D9D9" stroke-width="10"/>
<path id="Vector 317" d="M2415 1650V1430" stroke="#D9D9D9" stroke-width="10"/>
<path id="Vector 318" d="M2800 1650V1430" stroke="#D9D9D9" stroke-width="10"/>
<path id="Vector 325" d="M2505 1270V1180" stroke="#D9D9D9" stroke-width="10"/>
<path id="Vector 327" d="M75 1080V980H0M75 1550H1.2219e-06" stroke="#D9D9D9" stroke-width="10"/>
<path id="Subtract_5" fill-rule="evenodd" clip-rule="evenodd" d="M1761 1266V1080H1771V1266L2117 1265.66V1275.66L1766 1276H1766H1537V1266H1761ZM2163 1275.61V1265.61L2237 1265.54V1275.54L2163 1275.61ZM2283 1275.5L2337 1275.44V1265.44L2283 1265.5V1275.5ZM2788.71 1275L2573 1275.21V1265.21L2793.71 1265L2798.71 1265V1270V1285H2840V1295H2793.71H2788.71V1290V1275ZM2527 1265.26V1275.26L2483 1275.3V1265.3L2527 1265.26ZM2437 1265.35V1275.35L2383 1275.4V1265.4L2437 1265.35ZM2920 1295H2965V1285H2920V1295Z" fill="#D9D9D9"/>
<path id="Subtract_6" fill-rule="evenodd" clip-rule="evenodd" d="M630 1276V1266H553V1276H630ZM710 1276H812V1266H710V1276ZM1037 1276H933V1266H1037V1276ZM1537 1276V1266H1463V1276H1537ZM1583 1276H1611V1266H1583V1276ZM1417 1266V1276H1083V1266H1417ZM507 1266V1276H233V1266H507ZM187 1276V1266H143V1276H187ZM97 1266L97 1276H76V1266H97Z" fill="#D9D9D9"/>
<path id="Subtract_7" fill-rule="evenodd" clip-rule="evenodd" d="M1605 1365V1366H1615V1365H1605ZM1605 1276L1615 1276V1266H1605V1276Z" fill="#D9D9D9"/>
<path id="Subtract_8" fill-rule="evenodd" clip-rule="evenodd" d="M2420 1280V1270H2410V1280L2420 1280ZM2420 1360H2410V1370H2420V1360Z" fill="#D9D9D9"/>
<path id="Subtract_9" fill-rule="evenodd" clip-rule="evenodd" d="M1772.27 1374.97V1364.97H1678.31V1374.97H1772.27ZM1818.25 1374.97H2409.99V1434.62H2419.99V1369.97V1364.97H2414.99H1818.25V1374.97ZM1632.33 1364.97V1374.97H1078.57V1364.97H1632.33ZM1032.59 1374.97V1364.97H933.631H929V1378H928.631V1549.5H938.631V1374.97H1032.59ZM812 1364.97V1374.97H774.7V1364.97H812ZM728.719 1374.97V1364.97H459.836V1374.97H728.719ZM413.855 1364.97V1374.97H138.975L138.975 1364.97H413.855ZM92.9948 1374.97L92.9948 1364.97H81V1374.97H92.9948Z" fill="#D9D9D9"/>
<path id="Subtract_10" fill-rule="evenodd" clip-rule="evenodd" d="M2361 5H2366H2966H2971V10V995V1000H2966H2806V1080H2966H2971V1085V1285V1435V1655V1660H2966H2911H2801H2411H2211H1711H1611H1111H1001H996V1655V1560H711H626V1655V1660H621H396H176H76H71V1655V1365V1275V1085V1080H76H166H261H426H616V985V980H621H711H1011H1016V985V1080H1111H1311H1511H1611H1711H1811H2211H2311H2411H2536V1000H2366H2361V995V10V5ZM2371 15V990H2541H2546V995V1085V1090H2541H2411H2311H2211H1811H1711H1611H1511H1311H1111H1011H1006V1085V990H711H626V1085V1090H621H426H261H166H81V1275V1365V1650H176H396H616V1555V1550H621H711H1001H1006V1555V1650H1111H1611H1711H2211H2411H2801H2911H2961V1435V1285V1090H2801H2796V1085V995V990H2801H2961V15H2371Z" fill="#D9D9D9"/>
</g>
<g id="Textes">
<text id="text 19" fill="#D9D9D9" xml:space="preserve" style="white-space: pre" font-family="GothamSSm" font-size="24" font-weight="bold" letter-spacing="0em"><tspan x="87.1016" y="1196.8">&#x41f;&#x41a; 126</tspan></text>
<text id="text 20" fill="#D9D9D9" xml:space="preserve" style="white-space: pre" font-family="GothamSSm" font-size="24" font-weight="bold" letter-spacing="0em"><tspan x="182.164" y="1196.8">&#x41f;&#x41a; 127</tspan></text>
<text id="text 21" fill="#D9D9D9" xml:space="preserve" style="white-space: pre" font-family="GothamSSm" font-size="24" font-weight="bold" letter-spacing="0em"><tspan x="408.16" y="1196.8">&#x41f;&#x41a; 128</tspan></text>
<text id="text 24" fill="#D9D9D9" xml:space="preserve" style="white-space: pre" font-family="GothamSSm" font-size="24" font-weight="bold" letter-spacing="0em"><tspan x="985.25" y="1196.8">&#x41f;&#x41a; 130</tspan></text>
<text id="text 25" fill="#D9D9D9" xml:space="preserve" style="white-space: pre" font-family="GothamSSm" font-size="24" font-weight="bold" letter-spacing="0em"><tspan x="1315.42" y="1196.8">&#x420;&#x410;&#x417;&#x414;&#x415;&#x412;&#x410;&#x41b;&#x41a;&#x410;</tspan></text>
<text id="text 27" fill="#D9D9D9" xml:space="preserve" style="white-space: pre" font-family="GothamSSm" font-size="24" font-weight="bold" letter-spacing="0em"><tspan x="1957.27" y="1196.8">&#x41f;&#x41a; 133</tspan></text>
<text id="text 29" fill="#D9D9D9" xml:space="preserve" style="white-space: pre" font-family="GothamSSm" font-size="24" font-weight="bold" letter-spacing="0em"><tspan x="200.176" y="1516.8">&#x41f;&#x41a; 106</tspan></text>
<text id="text 30" fill="#D9D9D9" xml:space="preserve" style="white-space: pre" font-family="GothamSSm" font-size="24" font-weight="bold" letter-spacing="0em"><tspan x="490.168" y="1511.8">&#x41f;&#x41a; 105</tspan></text>
<text id="text 31" fill="#D9D9D9" xml:space="preserve" style="white-space: pre" font-family="GothamSSm" font-size="24" font-weight="bold" letter-spacing="0em"><tspan x="727" y="1470.8">&#x41f;&#x41a; 104</tspan></text>
<text id="text 35" fill="#D9D9D9" xml:space="preserve" style="white-space: pre" font-family="GothamSSm" font-size="24" font-weight="bold" letter-spacing="0em"><tspan x="1275.34" y="1516.8">&#x41f;&#x41a; 103</tspan></text>
<text id="text 36" transform="matrix(0 -1 1 0 1650 1574)" fill="#D9D9D9" xml:space="preserve" style="white-space: pre" font-family="GothamSSm" font-size="24" font-weight="bold" letter-spacing="0em"><tspan x="0.417969" y="16.8">&#x420;&#x410;&#x417;&#x414;&#x415;&#x412;&#x410;&#x41b;&#x41a;&#x410;</tspan></text>
<text id="text 37" fill="#D9D9D9" xml:space="preserve" style="white-space: pre" font-family="GothamSSm" font-size="24" font-weight="bold" letter-spacing="0em"><tspan x="2030" y="1516.8">&#x41f;&#x41a; 305</tspan></text>
</g>
<g id="Entrances">
<circle id="1" cx="120" cy="1271" r="10" fill="#9CBBFF"/>
<circle id="2" cx="210" cy="1271" r="10" fill="#9CBBFF"/>
<circle id="3" cx="116" cy="1371" r="10" fill="#9CBBFF"/>
<circle id="4" cx="435" cy="1370" r="10" fill="#9CBBFF"/>
<circle id="5" cx="530" cy="1271" r="10" fill="#9CBBFF"/>
<circle id="6" cx="670" cy="1122" r="10" fill="#9CBBFF"/>
<circle id="7" cx="753" cy="1370" r="10" fill="#9CBBFF"/>
<circle id="8" cx="1060" cy="1271" r="10" fill="#9CBBFF"/>
<circle id="9" cx="1055" cy="1370" r="10" fill="#9CBBFF"/>
<circle id="10" cx="1441" cy="1271" r="10" fill="#9CBBFF"/>
<circle id="11" cx="1655" cy="1370" r="10" fill="#9CBBFF"/>
<circle id="12" cx="1795" cy="1370" r="10" fill="#9CBBFF"/>
<circle id="13" cx="2140" cy="1271" r="10" fill="#9CBBFF"/>
<circle id="14" cx="2260" cy="1271" r="10" fill="#9CBBFF"/>
<circle id="15" cx="2360" cy="1271" r="10" fill="#9CBBFF"/>
<circle id="16" cx="2460" cy="1270" r="10" fill="#9CBBFF"/>
<circle id="19" cx="2550" cy="1270" r="10" fill="#9CBBFF"/>
<circle id="17" cx="2882" cy="1182" r="10" fill="#9CBBFF"/>
<circle id="18" cx="2883" cy="1543" r="10" fill="#9CBBFF"/>
</g>
<g id="Icons">
<g id="Doors">
<path id="Vector 301_2" d="M676 1276.39L704 1269.46H710" stroke="#A5A5A7" stroke-width="6"/>
<path id="Vector 302_2" d="M664 1276.39L636 1269.46H630" stroke="#A5A5A7" stroke-width="6"/>
</g>
<g id="Doors_2">
<path id="Vector 301_3" d="M2886 1296.22L2914 1289.28H2920" stroke="#A5A5A7" stroke-width="6"/>
<path id="Vector 302_3" d="M2874 1296.22L2846 1289.28H2840" stroke="#A5A5A7" stroke-width="6"/>
</g>
<g id="Stair">
<g id="Stair frame">
<path id="Vector 152" d="M710 1100.98H685V1115.85H670V1130.71H655V1145.58H630" stroke="#9CD9BC" stroke-width="5" stroke-linecap="round" stroke-linejoin="round"/>
<path id="Vector 154" d="M642 1100.98H657M657 1100.98L654 1114.86M657 1100.98L630 1121.79" stroke="#9CD9BC" stroke-width="3" stroke-linecap="round" stroke-linejoin="round"/>
<path id="Vector 155" d="M698 1145.58H683M683 1145.58L686 1131.7M683 1145.58L710 1124.77" stroke="#9CD9BC" stroke-width="3" stroke-linecap="round" stroke-linejoin="round"/>
</g>
</g>
<g id="Stair_2">
<g id="Stair frame_2">
<path id="Vector 152_2" d="M2922 1160.44H2897V1175.31H2882V1190.17H2867V1205.04H2842" stroke="#9CD9BC" stroke-width="5" stroke-linecap="round" stroke-linejoin="round"/>
<path id="Vector 154_2" d="M2854 1160.44H2869M2869 1160.44L2866 1174.32M2869 1160.44L2842 1181.26" stroke="#9CD9BC" stroke-width="3" stroke-linecap="round" stroke-linejoin="round"/>
<path id="Vector 155_2" d="M2910 1205.04H2895M2895 1205.04L2898 1191.17M2895 1205.04L2922 1184.23" stroke="#9CD9BC" stroke-width="3" stroke-linecap="round" stroke-linejoin="round"/>
</g>
</g>
<g id="Stair_3">
<g id="Stair frame_3">
<path id="Vector 152_3" d="M2923 1519.98H2898V1534.85H2883V1549.71H2868V1564.58H2843" stroke="#9CD9BC" stroke-width="5" stroke-linecap="round" stroke-linejoin="round"/>
<path id="Vector 154_3" d="M2855 1519.98H2870M2870 1519.98L2867 1533.86M2870 1519.98L2843 1540.79" stroke="#9CD9BC" stroke-width="3" stroke-linecap="round" stroke-linejoin="round"/>
<path id="Vector 155_3" d="M2911 1564.58H2896M2896 1564.58L2899 1550.7M2896 1564.58L2923 1543.77" stroke="#9CD9BC" stroke-width="3" stroke-linecap="round" stroke-linejoin="round"/>
</g>
</g>
<g id="Elevator">
<g id="Vector">
<path d="M2473 1219.91L2467 1213.96L2461 1219.91H2473Z" fill="#A091F8"/>
<path d="M2473 1223.87L2467 1229.82L2461 1223.87H2473Z" fill="#A091F8"/>
<path d="M2455 1219.91C2455 1216.93 2453 1213.96 2450 1213.96H2446C2443 1213.96 2441 1216.93 2441 1219.91V1224.86C2441 1226.84 2442.5 1228.33 2444 1228.33V1237.74C2444 1239.33 2445.33 1239.73 2446 1239.73H2450C2450.67 1239.73 2452 1239.33 2452 1237.74V1228.33C2453.5 1228.33 2455 1226.84 2455 1224.86V1219.91Z" fill="#A091F8"/>
<path d="M2452 1207.02C2452 1209.21 2450.21 1210.99 2448 1210.99C2445.79 1210.99 2444 1209.21 2444 1207.02C2444 1204.83 2445.79 1203.06 2448 1203.06C2450.21 1203.06 2452 1204.83 2452 1207.02Z" fill="#A091F8"/>
</g>
<path id="Vector 201" d="M2444.5 1250.13H2432.5V1195.63H2481.5V1250.13H2469.5" stroke="#A091F8" stroke-width="5" stroke-linecap="round" stroke-linejoin="round"/>
</g>
<g id="Elevator_2">
<g id="Vector_2">
<path d="M2568 1219.91L2562 1213.96L2556 1219.91H2568Z" fill="#A091F8"/>
<path d="M2568 1223.87L2562 1229.82L2556 1223.87H2568Z" fill="#A091F8"/>
<path d="M2550 1219.91C2550 1216.93 2548 1213.96 2545 1213.96H2541C2538 1213.96 2536 1216.93 2536 1219.91V1224.86C2536 1226.84 2537.5 1228.33 2539 1228.33V1237.74C2539 1239.33 2540.33 1239.73 2541 1239.73H2545C2545.67 1239.73 2547 1239.33 2547 1237.74V1228.33C2548.5 1228.33 2550 1226.84 2550 1224.86V1219.91Z" fill="#A091F8"/>
<path d="M2547 1207.02C2547 1209.21 2545.21 1210.99 2543 1210.99C2540.79 1210.99 2539 1209.21 2539 1207.02C2539 1204.83 2540.79 1203.06 2543 1203.06C2545.21 1203.06 2547 1204.83 2547 1207.02Z" fill="#A091F8"/>
</g>
<path id="Vector 201_2" d="M2539.5 1250.13H2527.5V1195.63H2576.5V1250.13H2564.5" stroke="#A091F8" stroke-width="5" stroke-linecap="round" stroke-linejoin="round"/>
</g>
<g id="Men">
<g id="Group 6">
<path id="Vector 200" d="M2265.5 1166.89L2274 1145.58H2246L2254.5 1166.89" stroke="#9CBBFF" stroke-width="5" stroke-linecap="round" stroke-linejoin="round"/>
<ellipse id="Ellipse 9" cx="2260" cy="1127.74" rx="8" ry="7.92825" stroke="#9CBBFF" stroke-width="5" stroke-linecap="round" stroke-linejoin="round"/>
</g>
</g>
<g id="Woman">
<g id="Group 5">
<path id="Vector 200_2" d="M2365.5 1145.58L2374 1166.89H2346L2354.5 1145.58" stroke="#F783CB" stroke-width="5" stroke-linecap="round" stroke-linejoin="round"/>
<ellipse id="Ellipse 9_2" cx="2360" cy="1127.74" rx="8" ry="7.92825" stroke="#F783CB" stroke-width="5" stroke-linecap="round" stroke-linejoin="round"/>
</g>
</g>
</g>
</g>
<defs>
<clipPath id="clip0_1_1896">
<rect width="2970" height="1655" fill="white"/>
</clipPath>
</defs>
</svg>
