<svg width="1400" height="570" viewBox="0 0 1400 570" fill="none" xmlns="http://www.w3.org/2000/svg">
<g id="V-1" clip-path="url(#clip0_2001_887)">
<g id="Spaces">
<rect id="v-102" x="5" y="5" width="200" height="260" fill="#3B3C41"/>
<rect id="!v-1-u" x="205" y="5" width="100" height="190" fill="#3B3C41"/>
<rect id="v-1-wcw" opacity="0.2" x="325" y="275" width="105" height="240" fill="#F783CB"/>
<rect id="v-101" x="5" y="265" width="200" height="300" fill="#3B3C41"/>
<rect id="v-104" x="304" y="5" width="270" height="190" fill="#3B3C41"/>
<rect id="v-105" x="574" y="5" width="621" height="190" fill="#3B3C41"/>
<rect id="v-107" x="1195" y="5" width="199" height="251" fill="#3B3C41"/>
<rect id="v-108" x="1195" y="256" width="199" height="309" fill="#3B3C41"/>
<path id="v-1-wcm" opacity="0.2" d="M980 275H1085V515H980V275Z" fill="#9CBBFF"/>
<rect id="v-1-stair-2" opacity="0.2" x="1085" y="315" width="110" height="250" fill="#9CD9BC"/>
<rect id="v-1-stair-1" opacity="0.2" x="205" y="325" width="120" height="240" fill="#9CD9BC"/>
<rect id="v-1-enter" opacity="0.2" x="590" y="417" width="219" height="103" fill="#9CD9BC"/>
</g>
<g id="Walls">
<path id="Subtract" fill-rule="evenodd" clip-rule="evenodd" d="M232 118L232 112H205V118H232ZM278 118H305V112H278V118Z" fill="#A5A5A7"/>
<path id="Subtract_2" fill-rule="evenodd" clip-rule="evenodd" d="M133 279L133 265H127L127 279H133ZM133 325H127L127 395H133L133 325Z" fill="#A5A5A7"/>
<path id="Vector 5" d="M325 511L325 270" stroke="#D9D9D9" stroke-width="10"/>
<path id="Vector 6" d="M1085 513L1085 270" stroke="#D9D9D9" stroke-width="10"/>
<path id="Vector 7" d="M305 5V195" stroke="#D9D9D9" stroke-width="10"/>
<path id="Vector 9" d="M575 5V195" stroke="#D9D9D9" stroke-width="10"/>
<path id="Vector 12" d="M205 265H5" stroke="#D9D9D9" stroke-width="10"/>
<path id="Vector 13" d="M1395 256H1195" stroke="#D9D9D9" stroke-width="10"/>
<path id="Vector 14" d="M430 275V512" stroke="#D9D9D9" stroke-width="10"/>
<path id="Vector 17" d="M980 275V512" stroke="#D9D9D9" stroke-width="10"/>
<path id="Subtract_3" fill-rule="evenodd" clip-rule="evenodd" d="M1200 5V202H1190V5H1200ZM1190 248H1200V263H1190V248ZM1190 309V565H1200V309H1190Z" fill="#D9D9D9"/>
<path id="Subtract_4" fill-rule="evenodd" clip-rule="evenodd" d="M232 200L232 190H205V200H232ZM278 200H402V190H278V200ZM888 190V200H711V190H888ZM1195 200H934V190H1195V200ZM665 200V190H448V200H665Z" fill="#D9D9D9"/>
<path id="Subtract_5" fill-rule="evenodd" clip-rule="evenodd" d="M243 330V320H205V330H243ZM286 330H325V320H286V330Z" fill="#D9D9D9"/>
<path id="Vector 19" d="M570 275H840" stroke="#D9D9D9" stroke-width="10"/>
<path id="Subtract_6" fill-rule="evenodd" clip-rule="evenodd" d="M339 280L339 270H320V280H339ZM385 280H435V270H385V280Z" fill="#D9D9D9"/>
<path id="Subtract_7" fill-rule="evenodd" clip-rule="evenodd" d="M145 398V392H5V398H145ZM191 398H205V392H191V398Z" fill="#A5A5A7"/>
<path id="Subtract_8" fill-rule="evenodd" clip-rule="evenodd" d="M1119 320V310H1085V320H1119ZM1165 320H1195V310H1165V320Z" fill="#D9D9D9"/>
<path id="Subtract_9" fill-rule="evenodd" clip-rule="evenodd" d="M1024 280V270L975 270L975 280L1024 280ZM1070 280L1090 280V270L1070 270V280Z" fill="#D9D9D9"/>
<path id="Subtract_10" fill-rule="evenodd" clip-rule="evenodd" d="M5 0H0V5V565V570H5H205H242V560H205H10V10H205H1390V511.5V560H1161V570H1395H1400V565V511.5V5V0H1395H205H5ZM325 570H288V560H320V515V510H325H640V520H330V565V570H325ZM760 520H1080V565V570H1085H1115V560H1090V515V510H1085H760V520Z" fill="#D9D9D9"/>
<path id="Subtract_11" fill-rule="evenodd" clip-rule="evenodd" d="M210 253V272H200V253H210ZM210 207V5H200V207H210ZM200 318H210V565H200V318Z" fill="#D9D9D9"/>
</g>
<g id="Textes">
<text id="b_v_108" fill="#D9D9D9" xml:space="preserve" style="white-space: pre" font-family="GothamSSm" font-size="24" font-weight="bold" letter-spacing="0em"><tspan x="1268.3" y="418.8">&#x412; 108</tspan></text>
<text id="b_v_107" fill="#D9D9D9" xml:space="preserve" style="white-space: pre" font-family="GothamSSm" font-size="24" font-weight="bold" letter-spacing="0em"><tspan x="1269.48" y="138.8">&#x412; 107</tspan></text>
<text id="b_v_105" fill="#D9D9D9" xml:space="preserve" style="white-space: pre" font-family="GothamSSm" font-size="24" font-weight="bold" letter-spacing="0em"><tspan x="859.199" y="107.8">&#x412; 105</tspan></text>
<text id="b_v_104" fill="#D9D9D9" xml:space="preserve" style="white-space: pre" font-family="GothamSSm" font-size="24" font-weight="bold" letter-spacing="0em"><tspan x="413.031" y="107.8">&#x412; 104</tspan></text>
<text id="b_v_103" fill="#D9D9D9" xml:space="preserve" style="white-space: pre" font-family="GothamSSm" font-size="24" font-weight="bold" letter-spacing="0em"><tspan x="79.2695" y="142.8">&#x412; 102</tspan></text>
<text id="b_v_101" fill="#D9D9D9" xml:space="preserve" style="white-space: pre" font-family="GothamSSm" font-size="24" font-weight="bold" letter-spacing="0em"><tspan x="81.0391" y="487.8">&#x412; 101</tspan></text>
</g>
<g id="Entrances">
<circle id="14" cx="205" cy="228" r="10" fill="#9CBBFF"/>
<circle id="13" cx="205" cy="295" r="10" fill="#9CBBFF"/>
<circle id="11" cx="362" cy="275" r="10" fill="#9CBBFF"/>
<circle id="10" cx="1047" cy="275" r="10" fill="#9CBBFF"/>
<circle id="8" cx="700" cy="514" r="10" fill="#9CBBFF"/>
<circle id="7" cx="688" cy="195" r="10" fill="#9CBBFF"/>
<circle id="6" cx="425" cy="195" r="10" fill="#9CBBFF"/>
<circle id="4" cx="1142" cy="315" r="10" fill="#9CBBFF"/>
<circle id="3" cx="1195" cy="285" r="10" fill="#9CBBFF"/>
<circle id="2" cx="1195" cy="228" r="10" fill="#9CBBFF"/>
<circle id="1" cx="265" cy="325" r="10" fill="#9CBBFF"/>
</g>
<g id="Icons">
<g id="Stair">
<g id="Stair frame">
<path id="Vector 152" d="M304 422H279V437H264V452H249V467H224" stroke="#9CD9BC" stroke-width="5" stroke-linecap="round" stroke-linejoin="round"/>
<path id="Vector 154" d="M236 422H251M251 422L248 436M251 422L224 443" stroke="#9CD9BC" stroke-width="3" stroke-linecap="round" stroke-linejoin="round"/>
<path id="Vector 155" d="M292 467H277M277 467L280 453M277 467L304 446" stroke="#9CD9BC" stroke-width="3" stroke-linecap="round" stroke-linejoin="round"/>
</g>
</g>
<g id="Woman">
<g id="Group 5">
<path id="Vector 200" d="M382.5 397L391 418.5H363L371.5 397" stroke="#F783CB" stroke-width="5" stroke-linecap="round" stroke-linejoin="round"/>
<circle id="Ellipse 9" cx="377" cy="379" r="8" stroke="#F783CB" stroke-width="5" stroke-linecap="round" stroke-linejoin="round"/>
</g>
</g>
<g id="Men">
<g id="Group 6">
<path id="Vector 200_2" d="M1038.5 418.5L1047 397H1019L1027.5 418.5" stroke="#9CBBFF" stroke-width="5" stroke-linecap="round" stroke-linejoin="round"/>
<circle id="Ellipse 9_2" cx="1033" cy="379" r="8" stroke="#9CBBFF" stroke-width="5" stroke-linecap="round" stroke-linejoin="round"/>
</g>
</g>
<g id="Enter">
<path id="Rectangle 242" d="M1126 537L1116 537L1116 501L1164 501L1164 537L1152.5 537" stroke="#9CD9BC" stroke-width="5" stroke-linecap="round" stroke-linejoin="round"/>
<g id="Group 26">
<path id="Vector 325" d="M1139.5 550L1139.5 518.3M1139.5 518.3L1133 528.3M1139.5 518.3L1146 528.3" stroke="#D9D9D9" stroke-width="3" stroke-miterlimit="1" stroke-linecap="round" stroke-linejoin="round"/>
</g>
</g>
<g id="Enter_2">
<path id="Rectangle 242_2" d="M251 536L241 536L241 500L289 500L289 536L277.5 536" stroke="#9CD9BC" stroke-width="5" stroke-linecap="round" stroke-linejoin="round"/>
<g id="Group 26_2">
<path id="Vector 325_2" d="M264.5 549L264.5 517.3M264.5 517.3L258 527.3M264.5 517.3L271 527.3" stroke="#D9D9D9" stroke-width="3" stroke-miterlimit="1" stroke-linecap="round" stroke-linejoin="round"/>
</g>
</g>
<g id="Enter_3">
<path id="Rectangle 242_3" d="M686.5 485L676.5 485L676.5 449L724.5 449L724.5 485L713 485" stroke="#9CD9BC" stroke-width="5" stroke-linecap="round" stroke-linejoin="round"/>
<g id="Group 26_3">
<path id="Vector 325_3" d="M700 498L700 466.3M700 466.3L693.5 476.3M700 466.3L706.5 476.3" stroke="#D9D9D9" stroke-width="3" stroke-miterlimit="1" stroke-linecap="round" stroke-linejoin="round"/>
</g>
</g>
<g id="Stair_2">
<g id="Stair frame_2">
<path id="Vector 152_2" d="M1180 417H1155V432H1140V447H1125V462H1100" stroke="#9CD9BC" stroke-width="5" stroke-linecap="round" stroke-linejoin="round"/>
<path id="Vector 154_2" d="M1112 417H1127M1127 417L1124 431M1127 417L1100 438" stroke="#9CD9BC" stroke-width="3" stroke-linecap="round" stroke-linejoin="round"/>
<path id="Vector 155_2" d="M1168 462H1153M1153 462L1156 448M1153 462L1180 441" stroke="#9CD9BC" stroke-width="3" stroke-linecap="round" stroke-linejoin="round"/>
</g>
</g>
<g id="Doors">
<path id="Vector 301" d="M709 524L751 517L760 517" stroke="#A5A5A7" stroke-width="6"/>
<path id="Vector 302" d="M691 524L649 517L640 517" stroke="#A5A5A7" stroke-width="6"/>
</g>
</g>
</g>
<defs>
<clipPath id="clip0_2001_887">
<rect width="1400" height="570" fill="white"/>
</clipPath>
</defs>
</svg>
