<svg width="1400" height="570" viewBox="0 0 1400 570" fill="none" xmlns="http://www.w3.org/2000/svg">
<g id="V-2" clip-path="url(#clip0_2001_657)">
<g id="Spaces">
<rect id="v-202" x="5" y="5" width="200" height="260" fill="#3B3C41"/>
<rect id="v-203a" x="205" y="5" width="100" height="190" fill="#3B3C41"/>
<rect id="v-2-wcw" opacity="0.2" x="325" y="275" width="105" height="240" fill="#F783CB"/>
<rect id="v-210a" x="430" y="275" width="270" height="240" fill="#3B3C41"/>
<rect id="v-209" x="700" y="275" width="280" height="240" fill="#3B3C41"/>
<rect id="v-201a" x="5" y="265" width="200" height="300" fill="#3B3C41"/>
<rect id="v-203b" x="305" y="5" width="155" height="190" fill="#3B3C41"/>
<rect id="v-204" x="460" y="5" width="100" height="190" fill="#3B3C41"/>
<rect id="v-205" x="560" y="5" width="200" height="190" fill="#3B3C41"/>
<rect id="v-206a" x="760" y="5" width="160" height="190" fill="#3B3C41"/>
<rect id="v-206v" x="920" y="5" width="90" height="190" fill="#3B3C41"/>
<rect id="!v-1-u2" x="1010" y="5" width="75" height="75" fill="#3B3C41"/>
<rect id="!v-1-u1" x="1010" y="80" width="75" height="115" fill="#3B3C41"/>
<rect id="v-207" x="1195" y="5" width="199" height="251" fill="#3B3C41"/>
<rect id="v-208" x="1195" y="256" width="199" height="309" fill="#3B3C41"/>
<rect id="v-2-wcm" opacity="0.2" x="980" y="275" width="105" height="240" fill="#9CBBFF"/>
<rect id="v-2-stair-2" opacity="0.2" x="1085" y="315" width="110" height="250" fill="#9CD9BC"/>
<rect id="v-2-crossing=n" opacity="0.01" x="1085" width="110" height="108" fill="#9CD9BC"/>
<rect id="v-2-stair-1" opacity="0.2" x="205" y="325" width="120" height="240" fill="#9CD9BC"/>
</g>
<g id="Walls">
<path id="Subtract" fill-rule="evenodd" clip-rule="evenodd" d="M302 157V195H308V157H302ZM302 111H308V5H302V111Z" fill="#A5A5A7"/>
<path id="Vector 5" d="M325 511L325 270" stroke="#D9D9D9" stroke-width="10"/>
<path id="Vector 6" d="M1085 513L1085 270" stroke="#D9D9D9" stroke-width="10"/>
<path id="Vector 9" d="M560 5L560 192" stroke="#D9D9D9" stroke-width="10"/>
<path id="Vector 21" d="M760 5V192" stroke="#D9D9D9" stroke-width="10"/>
<path id="Vector 24" d="M1010 5L1010 192" stroke="#D9D9D9" stroke-width="10"/>
<path id="Vector 20" d="M460 5V195" stroke="#D9D9D9" stroke-width="10"/>
<path id="Vector 13" d="M1395 256H1195" stroke="#D9D9D9" stroke-width="10"/>
<path id="Vector 14" d="M430 275V513" stroke="#D9D9D9" stroke-width="10"/>
<path id="Vector 17" d="M980 275L980 515" stroke="#D9D9D9" stroke-width="10"/>
<path id="Subtract_2" fill-rule="evenodd" clip-rule="evenodd" d="M1200 5V202H1190V5H1200ZM1190 248H1200V263H1190V248ZM1190 309V565H1200V309H1190Z" fill="#D9D9D9"/>
<path id="Subtract_3" fill-rule="evenodd" clip-rule="evenodd" d="M243 330V320H205V330H243ZM286 330H325V320H286V330Z" fill="#D9D9D9"/>
<path id="Subtract_4" fill-rule="evenodd" clip-rule="evenodd" d="M128 268V262H5V268H128ZM171 268H205V262H171V268Z" fill="#A5A5A7"/>
<path id="Subtract_5" fill-rule="evenodd" clip-rule="evenodd" d="M128 446V440H5V446H128ZM171 446H205V440H171V446Z" fill="#A5A5A7"/>
<path id="Subtract_6" fill-rule="evenodd" clip-rule="evenodd" d="M1119 320V310H1085V320H1119ZM1165 320H1195V310H1165V320Z" fill="#D9D9D9"/>
<path id="Vector 26" d="M700 275V515" stroke="#D9D9D9" stroke-width="10"/>
<path id="Subtract_7" fill-rule="evenodd" clip-rule="evenodd" d="M577 383V515H583V383H577ZM577 337H583V275H577V337Z" fill="#A5A5A7"/>
<path id="Subtract_8" fill-rule="evenodd" clip-rule="evenodd" d="M1010 280V270H953V280H1010ZM1056 280H1090V270H1056V280ZM907 270V280H523V270H907ZM355 280V270H320V280H355ZM401 280H477V270H401V280Z" fill="#D9D9D9"/>
<path id="Subtract_9" fill-rule="evenodd" clip-rule="evenodd" d="M487 200V190H413V200H487ZM533 200H665V190H533V200ZM942 190V200H711V190H942ZM1090 200H988V190H1090V200ZM367 190V200H205V190H367Z" fill="#D9D9D9"/>
<path id="Vector 25" d="M1010 80.0001L1085 80.0001" stroke="#D9D9D9" stroke-width="10"/>
<path id="Subtract_10" fill-rule="evenodd" clip-rule="evenodd" d="M1080 192L1080 173H1090L1090 192H1080ZM1090 127H1080L1080 65H1090L1090 127ZM1090 19H1080L1080 4H1090L1090 19Z" fill="#D9D9D9"/>
<path id="Subtract_11" fill-rule="evenodd" clip-rule="evenodd" d="M915 173L915 192H925L925 173H915ZM915 127H925L925 5H915L915 127Z" fill="#D9D9D9"/>
<path id="Subtract_12" fill-rule="evenodd" clip-rule="evenodd" d="M210 207V5H200V207H210ZM210 253H200V565H210V253Z" fill="#D9D9D9"/>
<path id="Subtract_13" fill-rule="evenodd" clip-rule="evenodd" d="M1119 9.99999L1165 10V0H1395H1400V5V511.5V565V570H1395H1085H1080V565V520H330V565V570H325H205H5H0V565V5V0H5H205H1119V9.99999ZM10 560V10H205H1390V511.5V560H1090V515V510H1085H325H320V515V560H205H10Z" fill="#D9D9D9"/>
</g>
<g id="Textes">
<text id="b_v_208" fill="#D9D9D9" xml:space="preserve" style="white-space: pre" font-family="GothamSSm" font-size="24" font-weight="bold" letter-spacing="0em"><tspan x="1267.01" y="418.8">&#x412; 208</tspan></text>
<text id="b_v_207" fill="#D9D9D9" xml:space="preserve" style="white-space: pre" font-family="GothamSSm" font-size="24" font-weight="bold" letter-spacing="0em"><tspan x="1267.19" y="138.8">&#x412; 207</tspan></text>
<text id="b_v_206a" fill="#D9D9D9" xml:space="preserve" style="white-space: pre" font-family="GothamSSm" font-size="24" font-weight="bold" letter-spacing="0em"><tspan x="806.059" y="107.8">&#x412; 206&#x410;</tspan></text>
<text id="b_v_206v" fill="#D9D9D9" xml:space="preserve" style="white-space: pre" font-family="GothamSSm" font-size="24" font-weight="bold" letter-spacing="0em"><tspan x="937.414" y="107.8">&#x412; 206</tspan></text>
<text id="b_v_206v_2" fill="#D9D9D9" xml:space="preserve" style="white-space: pre" font-family="GothamSSm" font-size="24" font-weight="bold" letter-spacing="0em"><tspan x="1135.11" y="39.8">&#x41d;</tspan></text>
<text id="b_v_203b" fill="#D9D9D9" xml:space="preserve" style="white-space: pre" font-family="GothamSSm" font-size="24" font-weight="bold" letter-spacing="0em"><tspan x="349.207" y="107.8">&#x412; 203&#x411;</tspan></text>
<text id="b_v_204" fill="#D9D9D9" xml:space="preserve" style="white-space: pre" font-family="GothamSSm" font-size="24" font-weight="bold" letter-spacing="0em"><tspan x="482.238" y="107.8">&#x412; 204</tspan></text>
<text id="b_v_210a" fill="#D9D9D9" xml:space="preserve" style="white-space: pre" font-family="GothamSSm" font-size="24" font-weight="bold" letter-spacing="0em"><tspan x="480.152" y="402.8">&#x412; 210</tspan></text>
<text id="b_v_209" fill="#D9D9D9" xml:space="preserve" style="white-space: pre" font-family="GothamSSm" font-size="24" font-weight="bold" letter-spacing="0em"><tspan x="812.438" y="402.8">&#x412; 209</tspan></text>
<text id="b_v_205" fill="#D9D9D9" xml:space="preserve" style="white-space: pre" font-family="GothamSSm" font-size="24" font-weight="bold" letter-spacing="0em"><tspan x="633.406" y="107.8">&#x412; 205</tspan></text>
<text id="b_v_202" fill="#D9D9D9" xml:space="preserve" style="white-space: pre" font-family="GothamSSm" font-size="24" font-weight="bold" letter-spacing="0em"><tspan x="77.4766" y="142.8">&#x412; 202</tspan></text>
<text id="b_v_203a" fill="#D9D9D9" xml:space="preserve" style="white-space: pre" font-family="GothamSSm" font-size="24" font-weight="bold" letter-spacing="0em"><tspan x="221.227" y="107.8">&#x412; 203&#x410;</tspan></text>
<text id="b_v_201a" fill="#D9D9D9" xml:space="preserve" style="white-space: pre" font-family="GothamSSm" font-size="24" font-weight="bold" letter-spacing="0em"><tspan x="80.2461" y="356.8">&#x412; 201</tspan></text>
</g>
<g id="Entrances">
<circle id="24" cx="205" cy="229" r="10" fill="#9CBBFF"/>
<circle id="27" cx="150" cy="266" r="10" fill="#9CBBFF"/>
<circle id="20" cx="305" cy="134" r="10" fill="#9CBBFF"/>
<circle id="19" cx="378" cy="275" r="10" fill="#9CBBFF"/>
<circle id="18" cx="965" cy="195" r="10" fill="#9CBBFF"/>
<circle id="15" cx="920" cy="150" r="10" fill="#9CBBFF"/>
<circle id="14" cx="500" cy="275" r="10" fill="#9CBBFF"/>
<circle id="13" cx="930" cy="275" r="10" fill="#9CBBFF"/>
<circle id="9" cx="510" cy="195" r="10" fill="#9CBBFF"/>
<circle id="8" cx="1033" cy="275" r="10" fill="#9CBBFF"/>
<circle id="7" cx="688" cy="195" r="10" fill="#9CBBFF"/>
<circle id="6" cx="390" cy="195" r="10" fill="#9CBBFF"/>
<circle id="4" cx="1142" cy="315" r="10" fill="#9CBBFF"/>
<circle id="26" cx="1142" cy="6" r="10" fill="#9CBBFF"/>
<circle id="3" cx="1195" cy="285" r="10" fill="#9CBBFF"/>
<circle id="2" cx="1195" cy="229" r="10" fill="#9CBBFF"/>
<circle id="1" cx="265" cy="325" r="10" fill="#9CBBFF"/>
</g>
<g id="Icons">
<g id="Stair">
<g id="Stair frame">
<path id="Vector 152" d="M304 422H279V437H264V452H249V467H224" stroke="#9CD9BC" stroke-width="5" stroke-linecap="round" stroke-linejoin="round"/>
<path id="Vector 154" d="M236 422H251M251 422L248 436M251 422L224 443" stroke="#9CD9BC" stroke-width="3" stroke-linecap="round" stroke-linejoin="round"/>
<path id="Vector 155" d="M292 467H277M277 467L280 453M277 467L304 446" stroke="#9CD9BC" stroke-width="3" stroke-linecap="round" stroke-linejoin="round"/>
</g>
</g>
<g id="Stair_2">
<g id="Stair frame_2">
<path id="Vector 152_2" d="M1180 417H1155V432H1140V447H1125V462H1100" stroke="#9CD9BC" stroke-width="5" stroke-linecap="round" stroke-linejoin="round"/>
<path id="Vector 154_2" d="M1112 417H1127M1127 417L1124 431M1127 417L1100 438" stroke="#9CD9BC" stroke-width="3" stroke-linecap="round" stroke-linejoin="round"/>
<path id="Vector 155_2" d="M1168 462H1153M1153 462L1156 448M1153 462L1180 441" stroke="#9CD9BC" stroke-width="3" stroke-linecap="round" stroke-linejoin="round"/>
</g>
</g>
<g id="Woman">
<g id="Group 5">
<path id="Vector 200" d="M383.5 392L392 413.5H364L372.5 392" stroke="#F783CB" stroke-width="5" stroke-linecap="round" stroke-linejoin="round"/>
<circle id="Ellipse 9" cx="378" cy="374" r="8" stroke="#F783CB" stroke-width="5" stroke-linecap="round" stroke-linejoin="round"/>
</g>
</g>
<g id="Men">
<g id="Group 6">
<path id="Vector 200_2" d="M1038.5 413.5L1047 392H1019L1027.5 413.5" stroke="#9CBBFF" stroke-width="5" stroke-linecap="round" stroke-linejoin="round"/>
<circle id="Ellipse 9_2" cx="1033" cy="374" r="8" stroke="#9CBBFF" stroke-width="5" stroke-linecap="round" stroke-linejoin="round"/>
</g>
</g>
<g id="&#208;&#161;rossing" clip-path="url(#clip1_2001_657)">
<g id="Group 24">
<path id="Vector 320" d="M1132.62 100.069V58.25" stroke="#9CD9BC" stroke-width="3.75" stroke-linecap="round"/>
<path id="Vector 323" d="M1151.38 100.25V58.25" stroke="#9CD9BC" stroke-width="3.75" stroke-linecap="round"/>
</g>
<g id="Group 25">
<circle id="Ellipse 36" cx="1142" cy="87.875" r="1.125" transform="rotate(-90 1142 87.875)" fill="#D9D9D9"/>
<circle id="Ellipse 32" cx="1142" cy="105.875" r="1.125" transform="rotate(-90 1142 105.875)" fill="#D9D9D9"/>
<circle id="Ellipse 37" cx="1142" cy="83.375" r="1.125" transform="rotate(-90 1142 83.375)" fill="#D9D9D9"/>
<circle id="Ellipse 33" cx="1142" cy="101.375" r="1.125" transform="rotate(-90 1142 101.375)" fill="#D9D9D9"/>
<circle id="Ellipse 38" cx="1142" cy="78.875" r="1.125" transform="rotate(-90 1142 78.875)" fill="#D9D9D9"/>
<circle id="Ellipse 34" cx="1142" cy="96.875" r="1.125" transform="rotate(-90 1142 96.875)" fill="#D9D9D9"/>
<circle id="Ellipse 39" cx="1142" cy="74.375" r="1.125" transform="rotate(-90 1142 74.375)" fill="#D9D9D9"/>
<circle id="Ellipse 35" cx="1142" cy="92.375" r="1.125" transform="rotate(-90 1142 92.375)" fill="#D9D9D9"/>
<circle id="Ellipse 40" cx="1142" cy="69.875" r="1.125" transform="rotate(-90 1142 69.875)" fill="#D9D9D9"/>
</g>
<path id="Vector 325" d="M1142 64.6255V45.1255M1142 45.1255L1137.12 52.6255M1142 45.1255L1146.88 52.6255" stroke="#D9D9D9" stroke-width="2.25" stroke-miterlimit="1" stroke-linecap="round" stroke-linejoin="round"/>
</g>
</g>
</g>
<defs>
<clipPath id="clip0_2001_657">
<rect width="1400" height="570" fill="white"/>
</clipPath>
<clipPath id="clip1_2001_657">
<rect width="63.75" height="45" fill="white" transform="matrix(0 -1 1 0 1119.5 107.75)"/>
</clipPath>
</defs>
</svg>
