<svg width="2370" height="2267" viewBox="0 0 2370 2267" fill="none" xmlns="http://www.w3.org/2000/svg">
<g id="A-1" clip-path="url(#clip0_1_1364)">
<g id="Spaces">
<path id="a-116" d="M1764 429L2033 395L2078 757L1808 790L1764 429Z" fill="#3B3C41"/>
<path id="a-115" d="M1433 594L1661 565L1690 807L1462 835L1433 594Z" fill="#3B3C41"/>
<path id="a-1-stair-5" opacity="0.2" d="M1417 469L1645 440L1661 569L1432 597L1417 469Z" fill="#9CD9BC"/>
<path id="a-117" d="M1808 791L2076 757L2092 881L1823 914L1808 791Z" fill="#3B3C41"/>
<path id="a-113" d="M1690 1210L1794 1197L1823 1440L1717 1453L1690 1210Z" fill="#3B3C41"/>
<path id="a-108" d="M5 1150H200V1255H275V1370H5V1150Z" fill="#3B3C41"/>
<rect id="a-107" x="5" y="1370" width="270" height="110" fill="#3B3C41"/>
<rect id="!a-u" x="200" y="1150" width="75" height="110" fill="#3B3C41"/>
<path id="a-112v" d="M520 1260H380V1150H630V1258.71V1480H519.761L520 1260Z" fill="#3B3C41"/>
<rect id="a-106" x="180" y="1580" width="150" height="230" fill="#3B3C41"/>
<rect id="a-1-stair-4" opacity="0.2" x="5" y="1580" width="175" height="280" fill="#9CD9BC"/>
<path id="a-1-stair-2" opacity="0.2" d="M1345 1580H1533.59L1575 1915H1345V1580Z" fill="#9CD9BC"/>
<path id="a-1-stair-1" opacity="0.2" d="M2112 1513L2278 1478L2359 1787L2153 1827L2112 1513Z" fill="#9CD9BC"/>
<rect id="a-1-stair-3" opacity="0.2" x="630" y="1255" width="100" height="225" fill="#9CD9BC"/>
<rect id="a-104" x="520" y="1580" width="110" height="230" fill="#3B3C41"/>
<rect id="a-103" x="630" y="1580" width="205" height="230" fill="#3B3C41"/>
<rect id="a-102" x="835" y="1580" width="100" height="230" fill="#3B3C41"/>
<rect id="Rectangle 107" x="935" y="1580" width="295" height="230" fill="#3B3C41"/>
<rect id="a-1-wcw" opacity="0.2" x="1230" y="1580" width="115" height="230" fill="#F783CB"/>
<rect id="a-105" x="330" y="1580" width="190" height="230" fill="#3B3C41"/>
<rect id="a-109" x="730" y="1255" width="205" height="225" fill="#3B3C41"/>
<rect id="a-110" x="935" y="1255" width="295" height="225" fill="#3B3C41"/>
<rect id="a-111" x="1230" y="1255" width="190" height="225" fill="#3B3C41"/>
<path id="a-112" d="M1419.17 1256.5H1510.17L1507.17 1233.5L1690.67 1212L1720.5 1456.5L1525.35 1481.5H1420.17L1419.17 1256.5Z" fill="#3B3C41"/>
<rect id="a-112g" x="380" y="1400" width="140" height="80" fill="#3B3C41"/>
<rect id="a-112b" x="380" y="1255" width="140" height="105" fill="#3B3C41"/>
<path id="a-112a" opacity="0.2" d="M5 5L630 96.0755V1150H5V5Z" fill="#F47B66"/>
<path id="a-114" d="M1462 836L1689 808L1739 1204L1510 1233L1462 836Z" fill="#3B3C41"/>
<path id="a-1-wcm" opacity="0.2" d="M1837 1027L2051 1000L2072 1174L1858 1200L1837 1027Z" fill="#9CBBFF"/>
<path id="a-119" d="M1868 1200L2072 1172L2087 1294L1882 1320L1868 1200Z" fill="#3B3C41"/>
<path id="a-120" d="M1882 1319L2087 1294.01L2113.81 1513.59L1908.81 1538.58L1882 1319Z" fill="#3B3C41"/>
<path id="a-100" opacity="0.2" d="M1530 1580L2113.56 1513.37L2198.56 2188.87L1614.5 2260L1530 1580Z" fill="#F783CB"/>
<path id="a-118" d="M1823 914L2037 887L2051 1000L1836 1027L1823 914Z" fill="#3B3C41"/>
</g>
<g id="Walls">
<path id="vnesniy kontur" d="M630 95L5 5V1860H180V1810H1345V1915H1572L1615.68 2260L2198.93 2188.94L2153.91 1825.61L2360 1786.58L2278 1478.65L2115 1513.17L2076.43 1199.98L2037.86 886.782L2092.89 879.776L2033.86 393.345L1417.6 467.41L1510 1255H630C629.414 800.045 630.586 549.955 630 95Z" stroke="#D9D9D9" stroke-width="10"/>
<path id="Vector 245" d="M1837 1027L2052 1001" stroke="#D9D9D9" stroke-width="10"/>
<path id="Vector 212" d="M2114 1514L1529 1580" stroke="#D9D9D9" stroke-width="10"/>
<path id="Vector 248" d="M2141 1723.5L1558.5 1801" stroke="#A5A5A7" stroke-width="6"/>
<path id="Vector 182" d="M275 1370H5" stroke="#D9D9D9" stroke-width="10"/>
<path id="Vector 187" d="M380 1400H520V1480" stroke="#D9D9D9" stroke-width="10"/>
<path id="Vector 188" d="M380 1360H520V1255" stroke="#D9D9D9" stroke-width="10"/>
<path id="Vector 190" d="M330 1580V1810" stroke="#D9D9D9" stroke-width="10"/>
<path id="Vector 202" d="M180 1580V1810" stroke="#D9D9D9" stroke-width="10"/>
<path id="Vector 203" d="M520 1580V1810" stroke="#D9D9D9" stroke-width="10"/>
<path id="Vector 204" d="M630 1580V1810" stroke="#D9D9D9" stroke-width="10"/>
<path id="Vector 206" d="M835 1580V1810" stroke="#D9D9D9" stroke-width="10"/>
<path id="Vector 240" d="M935 1580V1810" stroke="#D9D9D9" stroke-width="10"/>
<path id="Vector 210" d="M1230 1580V1810" stroke="#D9D9D9" stroke-width="10"/>
<path id="Vector 211" d="M1345 1580V1810" stroke="#D9D9D9" stroke-width="10"/>
<path id="Vector 192" d="M730 1255V1480" stroke="#D9D9D9" stroke-width="10"/>
<path id="Vector 200" d="M630 1255V1480" stroke="#D9D9D9" stroke-width="10"/>
<path id="Vector 193" d="M935 1255V1480" stroke="#D9D9D9" stroke-width="10"/>
<path id="Vector 197" d="M1230 1255V1480" stroke="#D9D9D9" stroke-width="10"/>
<path id="Vector 198" d="M1420 1255V1480" stroke="#D9D9D9" stroke-width="10"/>
<path id="Vector 238" d="M200 1150V1260" stroke="#D9D9D9" stroke-width="10"/>
<path id="Vector 230" d="M1690 1210L1720 1455" stroke="#D9D9D9" stroke-width="10"/>
<path id="Vector 228" d="M1512 1232L1799 1196" stroke="#D9D9D9" stroke-width="10"/>
<path id="Subtract" fill-rule="evenodd" clip-rule="evenodd" d="M305 1155V1145H5V1155H305ZM351 1155H630V1145H351V1155Z" fill="#D9D9D9"/>
<path id="Subtract_2" fill-rule="evenodd" clip-rule="evenodd" d="M270 1414V1345.39H280V1414H270ZM270 1460V1480H280V1460H270ZM280 1299.39H270V1235H280V1299.39ZM280 1189H270V1150H280V1189Z" fill="#D9D9D9"/>
<path id="Subtract_3" fill-rule="evenodd" clip-rule="evenodd" d="M375 1345V1367H385V1345H375ZM375 1414V1392H385V1414H375ZM375 1460V1480H385V1460H375ZM375 1299H385V1150H375V1299Z" fill="#D9D9D9"/>
<path id="Subtract_4" fill-rule="evenodd" clip-rule="evenodd" d="M60 1260V1250H5V1260H60ZM106 1260H275V1250H106V1260Z" fill="#D9D9D9"/>
<path id="Subtract_5" fill-rule="evenodd" clip-rule="evenodd" d="M1025 1637.74V1810H1035V1637.74H1025ZM1025 1607.87H1035V1580H1025V1607.87Z" fill="#D9D9D9"/>
<path id="Subtract_6" fill-rule="evenodd" clip-rule="evenodd" d="M1125 1683V1656.87H1135V1683H1125ZM1125 1712.87V1810H1135V1712.87H1125ZM1135 1627H1125V1580H1135V1627Z" fill="#D9D9D9"/>
<path id="Subtract_7" fill-rule="evenodd" clip-rule="evenodd" d="M1399 1585V1575H1290V1585H1399ZM1479 1585H1530V1575H1479V1585ZM1244 1575V1585H1103V1575H1244ZM1057 1585V1575H912V1585H1057ZM866 1575V1585H806V1575H866ZM760 1585V1575H603V1585H760ZM557 1575V1585H509V1575H557ZM463 1585V1575H288V1585H463ZM242 1575V1585H141V1575H242ZM61 1585V1575H5V1585H61Z" fill="#D9D9D9"/>
<path id="Subtract_8" fill-rule="evenodd" clip-rule="evenodd" d="M1590.43 1477.66L1829.6 1448.96L1828.4 1439.04L1588.5 1467.82L1590.43 1477.66ZM1543.95 1483.24L1542.01 1473.4L1528.4 1475.04L1529.6 1484.96L1543.95 1483.24Z" fill="#D9D9D9"/>
<path id="Subtract_9" fill-rule="evenodd" clip-rule="evenodd" d="M1754.57 1337.38L1753.4 1327.44L1705.42 1333.03L1706.58 1342.97L1754.57 1337.38ZM1800.24 1332.05L1809.58 1330.97L1808.42 1321.03L1799.07 1322.12L1800.24 1332.05Z" fill="#D9D9D9"/>
<path id="Subtract_10" fill-rule="evenodd" clip-rule="evenodd" d="M1803.3 1314.65L1819.04 1445.1L1828.96 1443.9L1813.22 1313.43L1803.3 1314.65ZM1797.79 1269.03L1807.72 1267.81L1799.46 1199.4L1789.54 1200.6L1797.79 1269.03Z" fill="#D9D9D9"/>
<path id="Subtract_11" fill-rule="evenodd" clip-rule="evenodd" d="M830 1446.25V1480H840V1446.25H830ZM830 1415.57H840V1255H830V1415.57Z" fill="#D9D9D9"/>
<path id="Subtract_12" fill-rule="evenodd" clip-rule="evenodd" d="M1025 1442.64V1480H1035V1442.64H1025ZM1025 1412.62H1035V1255H1025V1412.62Z" fill="#D9D9D9"/>
<path id="Subtract_13" fill-rule="evenodd" clip-rule="evenodd" d="M725 1637.74V1810H735V1637.74H725ZM725 1591.94H735V1580H725V1591.94Z" fill="#D9D9D9"/>
<path id="Subtract_14" fill-rule="evenodd" clip-rule="evenodd" d="M425 1699.47V1810H435V1699.47H425ZM425 1653.67H435V1580H425V1653.67Z" fill="#D9D9D9"/>
<path id="Vector 236" d="M1130 1670H1230" stroke="#D9D9D9" stroke-width="10"/>
<path id="Subtract_15" fill-rule="evenodd" clip-rule="evenodd" d="M210.287 1710L210.287 1700L180 1700L180 1710L210.287 1710ZM256.324 1710L330 1710L330 1700L256.324 1700V1710Z" fill="#D9D9D9"/>
<path id="Subtract_16" fill-rule="evenodd" clip-rule="evenodd" d="M955.231 1670L955.231 1660H935V1670H955.231ZM1001.27 1670H1031V1660H1001.27V1670Z" fill="#D9D9D9"/>
<path id="Subtract_17" fill-rule="evenodd" clip-rule="evenodd" d="M548 1260V1250H380V1260H548ZM594.221 1260H631V1250H594.221V1260Z" fill="#D9D9D9"/>
<path id="Subtract_18" fill-rule="evenodd" clip-rule="evenodd" d="M532.696 1415L532.696 1405L520 1405L520 1415L532.696 1415ZM578.733 1415L630 1415L630 1405L578.733 1405V1415Z" fill="#D9D9D9"/>
<path id="Subtract_19" fill-rule="evenodd" clip-rule="evenodd" d="M1351.71 1485V1475H1211V1485H1351.71ZM1397.75 1485H1530V1475H1397.75V1485ZM640 1475V1485H368V1475H640ZM862.091 1485H720V1475H862.091V1485ZM1165 1485V1475H908.128V1485H1165ZM288 1485V1475H5V1485H288Z" fill="#D9D9D9"/>
<path id="Subtract_20" fill-rule="evenodd" clip-rule="evenodd" d="M2149.34 1822.35L2150.09 1828L2160 1826.7L2159.26 1821.03L2149.34 1822.35ZM2138.83 1742.32L2148.74 1741L2118.91 1514L2109 1515.3L2138.83 1742.32Z" fill="#D9D9D9"/>
<path id="Vector 242" d="M1808 792L2077 758" stroke="#D9D9D9" stroke-width="10"/>
<path id="Vector 246" d="M1462 836L1690 808" stroke="#D9D9D9" stroke-width="10"/>
<path id="Vector 247" d="M1431 594L1662 566" stroke="#D9D9D9" stroke-width="10"/>
<path id="Vector 243" d="M1821 915L2091 881" stroke="#D9D9D9" stroke-width="10"/>
<path id="Vector 244" d="M1853 1200L2071 1173" stroke="#D9D9D9" stroke-width="10"/>
<path id="Subtract_21" fill-rule="evenodd" clip-rule="evenodd" d="M1630.57 950.398L1629.17 940.495L1473.86 960.541L1475.14 970.459L1630.57 950.398ZM1676.14 944.516L1704 940.92L1702.72 931.002L1674.74 934.613L1676.14 944.516Z" fill="#D9D9D9"/>
<path id="Subtract_22" fill-rule="evenodd" clip-rule="evenodd" d="M1709.38 1009.67L1733.04 1203.11L1742.96 1201.89L1719.31 1008.45L1709.38 1009.67ZM1703.8 964.02L1713.73 962.802L1674.95 645.712L1665.02 646.93L1703.8 964.02ZM1659.44 601.282L1669.37 600.064L1663.06 548.522L1653.14 549.741L1659.44 601.282ZM1649.96 441.393L1653.36 469.134L1643.43 470.353L1640.04 442.607L1649.96 441.393Z" fill="#D9D9D9"/>
<path id="Subtract_23" fill-rule="evenodd" clip-rule="evenodd" d="M1839.45 1088.53L1828.06 995.463L1837.99 994.245L1849.38 1087.32L1839.45 1088.53ZM1832.41 948.597L1822.48 949.816L1813.14 873.486L1823.07 872.267L1832.41 948.597ZM1845.03 1134.18L1853.04 1199.61L1862.96 1198.39L1854.96 1132.96L1845.03 1134.18ZM1817.48 826.619L1807.56 827.838L1769.49 516.661L1779.42 515.442L1817.48 826.619ZM1773.83 469.794L1768.46 425.893L1758.54 427.107L1763.91 471.013L1773.83 469.794Z" fill="#D9D9D9"/>
<path id="Subtract_24" fill-rule="evenodd" clip-rule="evenodd" d="M1871.96 1196.89L1877.48 1241.88L1867.55 1243.1L1862.04 1198.11L1871.96 1196.89ZM1873.15 1288.73L1883.07 1287.51L1903.06 1450.56L1893.14 1451.78L1873.15 1288.73ZM1898.73 1497.41L1903.54 1536.61L1913.46 1535.39L1908.66 1496.2L1898.73 1497.41Z" fill="#D9D9D9"/>
<path id="Subtract_25" fill-rule="evenodd" clip-rule="evenodd" d="M1564.8 1814.38L1535.96 1577.4L1526.04 1578.6L1554.87 1815.6L1564.8 1814.38ZM1574.46 1893.79L1564.53 1895.01L1567.04 1915.6L1576.96 1914.4L1574.46 1893.79Z" fill="#D9D9D9"/>
<path id="Vector 250" d="M1882 1319L2087 1294" stroke="#D9D9D9" stroke-width="10"/>
</g>
<g id="Textes">
<text id="text 3-2" fill="#D9D9D9" xml:space="preserve" style="white-space: pre" font-family="GothamSSm" font-size="24" font-weight="bold" letter-spacing="0em"><tspan x="288.094" y="585.8">&#x410; 112&#x410;</tspan></text>
<text id="text 3-1" opacity="0.5" fill="#D9D9D9" xml:space="preserve" style="white-space: pre" font-family="GothamSSm" font-size="24" font-weight="bold" letter-spacing="0em"><tspan x="250.148" y="686.8">&#x421;&#x41f;&#x41e;&#x420;&#x422;&#x417;&#x410;&#x41b; &#x2116;1</tspan></text>
<text id="text 4" fill="#D9D9D9" xml:space="preserve" style="white-space: pre" font-family="GothamSSm" font-size="24" font-weight="bold" letter-spacing="0em"><tspan x="114.414" y="1322.8">&#x410; 108</tspan></text>
<text id="text 5" fill="#D9D9D9" xml:space="preserve" style="white-space: pre" font-family="GothamSSm" font-size="24" font-weight="bold" letter-spacing="0em"><tspan x="115.094" y="1433.8">&#x410; 107</tspan></text>
<text id="text 6" fill="#D9D9D9" xml:space="preserve" style="white-space: pre" font-family="GothamSSm" font-size="24" font-weight="bold" letter-spacing="0em"><tspan x="421.074" y="1318.8">&#x410; 112&#x411;</tspan></text>
<text id="text 7" fill="#D9D9D9" xml:space="preserve" style="white-space: pre" font-family="GothamSSm" font-size="24" font-weight="bold" letter-spacing="0em"><tspan x="422.164" y="1448.8">&#x410; 112&#x413;</tspan></text>
<text id="text 9" fill="#D9D9D9" xml:space="preserve" style="white-space: pre" font-family="GothamSSm" font-size="24" font-weight="bold" letter-spacing="0em"><tspan x="229.32" y="1646.8">&#x410; 106</tspan></text>
<text id="text 10" fill="#D9D9D9" xml:space="preserve" style="white-space: pre" font-family="GothamSSm" font-size="24" font-weight="bold" letter-spacing="0em"><tspan x="447.312" y="1700.8">&#x410; 105</tspan></text>
<text id="text 11" fill="#D9D9D9" xml:space="preserve" style="white-space: pre" font-family="GothamSSm" font-size="24" font-weight="bold" letter-spacing="0em"><tspan x="549.145" y="1700.8">&#x410; 104</tspan></text>
<text id="text 12" fill="#D9D9D9" xml:space="preserve" style="white-space: pre" font-family="GothamSSm" font-size="24" font-weight="bold" letter-spacing="0em"><tspan x="757.488" y="1701.8">&#x410; 103</tspan></text>
<text id="text 13" fill="#D9D9D9" xml:space="preserve" style="white-space: pre" font-family="GothamSSm" font-size="24" font-weight="bold" letter-spacing="0em"><tspan x="860.383" y="1701.8">&#x410; 102</tspan></text>
<text id="text 27" fill="#D9D9D9" xml:space="preserve" style="white-space: pre" font-family="GothamSSm" font-size="24" font-weight="bold" letter-spacing="0em"><tspan x="1059.15" y="1701.8">&#x410; 101</tspan></text>
<text id="text 14" fill="#D9D9D9" xml:space="preserve" style="white-space: pre" font-family="GothamSSm" font-size="24" font-weight="bold" letter-spacing="0em"><tspan x="858.344" y="1375.8">&#x410; 109</tspan></text>
<text id="text 15" fill="#D9D9D9" xml:space="preserve" style="white-space: pre" font-family="GothamSSm" font-size="24" font-weight="bold" letter-spacing="0em"><tspan x="1106.06" y="1375.8">&#x410; 110</tspan></text>
<text id="text 16" fill="#D9D9D9" xml:space="preserve" style="white-space: pre" font-family="GothamSSm" font-size="24" font-weight="bold" letter-spacing="0em"><tspan x="1304.24" y="1375.8">&#x410; 111</tspan></text>
<text id="text 18" fill="#D9D9D9" xml:space="preserve" style="white-space: pre" font-family="GothamSSm" font-size="24" font-weight="bold" letter-spacing="0em"><tspan x="1541.45" y="1375.8">&#x410; 112</tspan></text>
<text id="text 19" fill="#D9D9D9" xml:space="preserve" style="white-space: pre" font-family="GothamSSm" font-size="24" font-weight="bold" letter-spacing="0em"><tspan x="1726.08" y="1275.8">&#x410; 113</tspan></text>
<text id="text 20" fill="#D9D9D9" xml:space="preserve" style="white-space: pre" font-family="GothamSSm" font-size="24" font-weight="bold" letter-spacing="0em"><tspan x="1971.27" y="1424.8">&#x410; 120</tspan></text>
<text id="text 21" fill="#D9D9D9" xml:space="preserve" style="white-space: pre" font-family="GothamSSm" font-size="24" font-weight="bold" letter-spacing="0em"><tspan x="1954.03" y="1254.8">&#x410; 119</tspan></text>
<text id="text 22" fill="#D9D9D9" xml:space="preserve" style="white-space: pre" font-family="GothamSSm" font-size="24" font-weight="bold" letter-spacing="0em"><tspan x="1914.1" y="965.8">&#x410; 118</tspan></text>
<text id="text 23" fill="#D9D9D9" xml:space="preserve" style="white-space: pre" font-family="GothamSSm" font-size="24" font-weight="bold" letter-spacing="0em"><tspan x="1927.08" y="844.8">&#x410; 117</tspan></text>
<text id="text 24" fill="#D9D9D9" xml:space="preserve" style="white-space: pre" font-family="GothamSSm" font-size="24" font-weight="bold" letter-spacing="0em"><tspan x="1897" y="601.8">&#x410; 116</tspan></text>
<text id="text 25" fill="#D9D9D9" xml:space="preserve" style="white-space: pre" font-family="GothamSSm" font-size="24" font-weight="bold" letter-spacing="0em"><tspan x="1538.5" y="708.8">&#x410; 115</tspan></text>
<text id="text 26" fill="#D9D9D9" xml:space="preserve" style="white-space: pre" font-family="GothamSSm" font-size="24" font-weight="bold" letter-spacing="0em"><tspan x="1576.33" y="1028.8">&#x410; 114</tspan></text>
<text id="text 17-2" fill="#D9D9D9" xml:space="preserve" style="white-space: pre" font-family="GothamSSm" font-size="24" font-weight="bold" letter-spacing="0em"><tspan x="1836.38" y="1892.8">&#x410; 100</tspan></text>
<text id="text 17-1" opacity="0.5" fill="#D9D9D9" xml:space="preserve" style="white-space: pre" font-family="GothamSSm" font-size="24" font-weight="bold" letter-spacing="0em"><tspan x="1781.36" y="1993.8">&#x422;&#x41e;&#x427;&#x41a;&#x410; &#x41a;&#x418;&#x41f;&#x415;&#x41d;&#x418;&#x42f;</tspan></text>
<text id="text 8" fill="#D9D9D9" xml:space="preserve" style="white-space: pre" font-family="GothamSSm" font-size="24" font-weight="bold" letter-spacing="0em"><tspan x="548.48" y="1357.8">&#x410; 112&#x412;</tspan></text>
</g>
<g id="Entrances">
<circle id="1" cx="884" cy="1480" r="10" fill="#9CBBFF"/>
<circle id="2" cx="681" cy="1480" r="10" fill="#9CBBFF"/>
<circle id="3" cx="380" cy="1438" r="10" fill="#9CBBFF"/>
<circle id="4" cx="275" cy="1438" r="10" fill="#9CBBFF"/>
<circle id="5" cx="380" cy="1323" r="10" fill="#9CBBFF"/>
<circle id="6" cx="275" cy="1323" r="10" fill="#9CBBFF"/>
<circle id="8" cx="328" cy="1151" r="10" fill="#9CBBFF"/>
<circle id="9" cx="520" cy="1380" r="10" fill="#9CBBFF"/>
<circle id="10" cx="102" cy="1580" r="10" fill="#9CBBFF"/>
<circle id="11" cx="266" cy="1581" r="10" fill="#9CBBFF"/>
<circle id="12" cx="487" cy="1581" r="10" fill="#9CBBFF"/>
<circle id="13" cx="581" cy="1581" r="10" fill="#9CBBFF"/>
<circle id="14" cx="784" cy="1581" r="10" fill="#9CBBFF"/>
<circle id="15" cx="890" cy="1581" r="10" fill="#9CBBFF"/>
<circle id="36" cx="1080" cy="1581" r="10" fill="#9CBBFF"/>
<circle id="18" cx="1189" cy="1479" r="10" fill="#9CBBFF"/>
<circle id="19" cx="1373.98" cy="1480" r="10" fill="#9CBBFF"/>
<circle id="20" cx="1441" cy="1581" r="10" fill="#9CBBFF"/>
<circle id="34" cx="1267" cy="1580" r="10" fill="#9CBBFF"/>
<circle id="21" cx="1566" cy="1478" r="10" fill="#9CBBFF"/>
<circle id="22" cx="1806" cy="1292" r="10" fill="#9CBBFF"/>
<circle id="23" cx="1713" cy="987" r="10" fill="#9CBBFF"/>
<circle id="24" cx="1669" cy="625" r="10" fill="#9CBBFF"/>
<circle id="25" cx="1655" cy="510" r="10" fill="#9CBBFF"/>
<circle id="26" cx="1773" cy="494" r="10" fill="#9CBBFF"/>
<circle id="27" cx="1816" cy="851" r="10" fill="#9CBBFF"/>
<circle id="28" cx="1831" cy="973" r="10" fill="#9CBBFF"/>
<circle id="35" cx="1847" cy="1110" r="10" fill="#9CBBFF"/>
<circle id="30" cx="1876" cy="1266" r="10" fill="#9CBBFF"/>
<circle id="31" cx="1902" cy="1475" r="10" fill="#9CBBFF"/>
<circle id="33" cx="1567" cy="1857" r="10" fill="#9CBBFF"/>
<circle id="32" cx="2231" cy="1700" r="10" fill="#9CBBFF"/>
</g>
<g id="Icons">
<g id="Stair">
<g id="Stair frame">
<path id="Vector 152" d="M1579 496H1554V511H1539V526H1524V541H1499" stroke="#9CD9BC" stroke-width="5" stroke-linecap="round" stroke-linejoin="round"/>
<path id="Vector 154" d="M1511 496H1526M1526 496L1523 510M1526 496L1499 517" stroke="#9CD9BC" stroke-width="3" stroke-linecap="round" stroke-linejoin="round"/>
<path id="Vector 155" d="M1567 541H1552M1552 541L1555 527M1552 541L1579 520" stroke="#9CD9BC" stroke-width="3" stroke-linecap="round" stroke-linejoin="round"/>
</g>
</g>
<g id="Stair_2">
<g id="Stair frame_2">
<path id="Vector 152_2" d="M133 1698H108V1713H93V1728H78V1743H53" stroke="#9CD9BC" stroke-width="5" stroke-linecap="round" stroke-linejoin="round"/>
<path id="Vector 154_2" d="M65 1698H80M80 1698L77 1712M80 1698L53 1719" stroke="#9CD9BC" stroke-width="3" stroke-linecap="round" stroke-linejoin="round"/>
<path id="Vector 155_2" d="M121 1743H106M106 1743L109 1729M106 1743L133 1722" stroke="#9CD9BC" stroke-width="3" stroke-linecap="round" stroke-linejoin="round"/>
</g>
</g>
<g id="Stair_3">
<g id="Stair frame_3">
<path id="Vector 152_3" d="M1498 1725H1473V1740H1458V1755H1443V1770H1418" stroke="#9CD9BC" stroke-width="5" stroke-linecap="round" stroke-linejoin="round"/>
<path id="Vector 154_3" d="M1430 1725H1445M1445 1725L1442 1739M1445 1725L1418 1746" stroke="#9CD9BC" stroke-width="3" stroke-linecap="round" stroke-linejoin="round"/>
<path id="Vector 155_3" d="M1486 1770H1471M1471 1770L1474 1756M1471 1770L1498 1749" stroke="#9CD9BC" stroke-width="3" stroke-linecap="round" stroke-linejoin="round"/>
</g>
</g>
<g id="Stair_4">
<g id="Stair frame_4">
<path id="Vector 152_4" d="M2271 1628H2246V1643H2231V1658H2216V1673H2191" stroke="#9CD9BC" stroke-width="5" stroke-linecap="round" stroke-linejoin="round"/>
<path id="Vector 154_4" d="M2203 1628H2218M2218 1628L2215 1642M2218 1628L2191 1649" stroke="#9CD9BC" stroke-width="3" stroke-linecap="round" stroke-linejoin="round"/>
<path id="Vector 155_4" d="M2259 1673H2244M2244 1673L2247 1659M2244 1673L2271 1652" stroke="#9CD9BC" stroke-width="3" stroke-linecap="round" stroke-linejoin="round"/>
</g>
</g>
<g id="Stair_5">
<g id="Stair frame_5">
<path id="Vector 152_5" d="M711 1349.88H692.25V1361.12H681V1372.38H669.75V1383.62H651" stroke="#9CD9BC" stroke-width="3.75" stroke-linecap="round" stroke-linejoin="round"/>
<path id="Vector 154_5" d="M660 1349.88H671.25M671.25 1349.88L669 1360.38M671.25 1349.88L651 1365.62" stroke="#9CD9BC" stroke-width="2.25" stroke-linecap="round" stroke-linejoin="round"/>
<path id="Vector 155_5" d="M702 1383.62H690.75M690.75 1383.62L693 1373.12M690.75 1383.62L711 1367.88" stroke="#9CD9BC" stroke-width="2.25" stroke-linecap="round" stroke-linejoin="round"/>
</g>
</g>
<g id="Woman">
<g id="Group 5">
<path id="Vector 200_2" d="M1292.5 1697L1301 1718.5H1273L1281.5 1697" stroke="#F783CB" stroke-width="5" stroke-linecap="round" stroke-linejoin="round"/>
<circle id="Ellipse 9" cx="1287" cy="1679" r="8" stroke="#F783CB" stroke-width="5" stroke-linecap="round" stroke-linejoin="round"/>
</g>
</g>
<g id="Men">
<g id="Group 6">
<path id="Vector 200_3" d="M1960.5 1123.5L1969 1102H1941L1949.5 1123.5" stroke="#9CBBFF" stroke-width="5" stroke-linecap="round" stroke-linejoin="round"/>
<circle id="Ellipse 9_2" cx="1955" cy="1084" r="8" stroke="#9CBBFF" stroke-width="5" stroke-linecap="round" stroke-linejoin="round"/>
</g>
</g>
<g id="Sport">
<path id="Vector 200_4" d="M327 629L309 629" stroke="#F47B66" stroke-width="5" stroke-linecap="round" stroke-linejoin="round"/>
<rect id="Rectangle 244" x="291.5" y="624.5" width="5" height="8" rx="2.5" stroke="#F47B66" stroke-width="3" stroke-linecap="round" stroke-linejoin="round"/>
<rect id="Rectangle 249" x="1.5" y="-1.5" width="5" height="8" rx="2.5" transform="matrix(-1 0 0 1 346 626)" stroke="#F47B66" stroke-width="3" stroke-linecap="round" stroke-linejoin="round"/>
<rect id="Rectangle 245" x="296.5" y="620.5" width="5" height="16" rx="2.5" stroke="#F47B66" stroke-width="3" stroke-linecap="round" stroke-linejoin="round"/>
<rect id="Rectangle 250" x="1.5" y="-1.5" width="5" height="16" rx="2.5" transform="matrix(-1 0 0 1 341 622)" stroke="#F47B66" stroke-width="3" stroke-linecap="round" stroke-linejoin="round"/>
<rect id="Rectangle 248" x="301.5" y="614.5" width="6" height="28" rx="3" stroke="#F47B66" stroke-width="3" stroke-linecap="round" stroke-linejoin="round"/>
<rect id="Rectangle 251" x="1.5" y="-1.5" width="6" height="28" rx="3" transform="matrix(-1 0 0 1 336 616)" stroke="#F47B66" stroke-width="3" stroke-linecap="round" stroke-linejoin="round"/>
</g>
<g id="Act">
<path id="Vector" d="M1883.51 1942.87C1882.14 1942.87 1880.77 1943.14 1879.5 1943.66C1878.23 1944.19 1877.07 1944.96 1876.1 1945.94C1873.28 1948.78 1869.92 1951.03 1866.22 1952.57C1862.52 1954.1 1858.55 1954.88 1854.54 1954.87H1852.24C1851.8 1954.87 1851.37 1954.74 1851 1954.49C1850.63 1954.25 1850.34 1953.9 1850.17 1953.49C1850 1953.08 1849.96 1952.63 1850.04 1952.19C1850.13 1951.76 1850.34 1951.36 1850.66 1951.04L1852.04 1949.66C1855.89 1949.46 1859.52 1947.84 1862.24 1945.11L1870.89 1936.47C1871.74 1936.7 1872.61 1936.83 1873.48 1936.87C1873.65 1936.87 1873.82 1936.87 1874 1936.87C1877.18 1936.87 1880.24 1935.6 1882.49 1933.35L1884.49 1931.35C1885.67 1930.18 1886.58 1928.77 1887.19 1927.22C1887.79 1925.67 1888.06 1924.02 1887.99 1922.35C1887.93 1920.69 1887.51 1919.05 1886.77 1917.55C1886.03 1916.06 1884.98 1914.74 1883.7 1913.67C1881.29 1911.77 1878.27 1910.83 1875.21 1911.03C1872.16 1911.23 1869.28 1912.56 1867.15 1914.76L1865.88 1916.03C1864.35 1917.55 1863.24 1919.44 1862.64 1921.52C1862.05 1923.6 1862 1925.79 1862.49 1927.89L1853.76 1936.63C1851.03 1939.35 1849.41 1942.98 1849.21 1946.83L1847.83 1948.21C1846.96 1949.09 1846.36 1950.2 1846.12 1951.41C1845.88 1952.62 1846 1953.88 1846.48 1955.02C1846.95 1956.16 1847.75 1957.13 1848.78 1957.82C1849.8 1958.51 1851.01 1958.87 1852.24 1958.87H1854.54C1859.07 1958.88 1863.56 1958 1867.75 1956.26C1871.93 1954.53 1875.73 1951.98 1878.93 1948.77C1879.84 1947.86 1880.99 1947.25 1882.25 1947C1883.51 1946.75 1884.81 1946.87 1886 1947.36C1887.18 1947.86 1888.19 1948.69 1888.91 1949.75C1889.62 1950.82 1890 1952.07 1890 1953.35V1956.87C1890 1957.4 1890.21 1957.91 1890.59 1958.28C1890.96 1958.66 1891.47 1958.87 1892 1958.87C1892.53 1958.87 1893.04 1958.66 1893.41 1958.28C1893.79 1957.91 1894 1957.4 1894 1956.87V1953.35C1894 1950.57 1892.89 1947.91 1890.92 1945.94C1888.96 1943.98 1886.29 1942.87 1883.51 1942.87ZM1868.71 1918.85L1869.98 1917.58C1871.62 1915.93 1873.85 1914.99 1876.18 1914.98C1877.98 1914.96 1879.73 1915.58 1881.12 1916.73C1881.98 1917.44 1882.68 1918.32 1883.18 1919.32C1883.67 1920.32 1883.95 1921.41 1884 1922.52C1884.05 1923.63 1883.86 1924.73 1883.46 1925.77C1883.06 1926.8 1882.45 1927.74 1881.67 1928.52L1879.67 1930.52C1878.88 1931.31 1877.94 1931.92 1876.9 1932.32C1875.87 1932.73 1874.76 1932.91 1873.65 1932.86C1872.54 1932.81 1871.45 1932.53 1870.46 1932.03C1869.46 1931.54 1868.58 1930.84 1867.87 1929.99C1866.6 1928.36 1865.99 1926.31 1866.15 1924.26C1866.3 1922.2 1867.22 1920.27 1868.71 1918.85H1868.71ZM1856.59 1939.46L1864.26 1931.78C1864.44 1932.04 1864.59 1932.32 1864.79 1932.57C1865.46 1933.35 1866.22 1934.05 1867.05 1934.64L1859.41 1942.28C1857.77 1943.93 1855.67 1945.05 1853.38 1945.48C1853.82 1943.2 1854.94 1941.1 1856.59 1939.46Z" fill="#F783CB"/>
<path id="Vector 317" d="M1868.5 1916.5C1868.5 1920 1869 1923.5 1872 1926.5C1875 1929.5 1879 1930 1882.5 1930" stroke="#F783CB" stroke-width="3" stroke-linecap="round" stroke-linejoin="round"/>
</g>
</g>
</g>
<defs>
<clipPath id="clip0_1_1364">
<rect width="2370" height="2267" fill="white"/>
</clipPath>
</defs>
</svg>
