<svg width="2370" height="2267" viewBox="0 0 2370 2267" fill="none" xmlns="http://www.w3.org/2000/svg">
<g id="A-3" clip-path="url(#clip0_1_879)">
<rect width="2370" height="2267" fill="#1E1E1E"/>
<g id="Spaces">
<path id="a-320" d="M1763.92 428.361L2033 395L2048.3 515.009L1778.31 548.109L1763.92 428.361Z" fill="#3B3C41"/>
<path id="a-319" d="M1433.06 594.492L1661 565L1704.75 927.176L1476.75 955.178L1433.06 594.492Z" fill="#3B3C41"/>
<path id="a-3-stair-5" opacity="0.2" d="M1417 469L1645 440L1661 569L1432 597L1417 469Z" fill="#9CD9BC"/>
<path id="a-321" d="M1778.52 550.813L2046.26 514.709L2092 881L1822.99 913.944L1778.52 550.813Z" fill="#3B3C41"/>
<rect id="a-307" x="5" y="1255" width="130" height="225" fill="#3B3C41"/>
<rect id="a-308" x="135" y="1255" width="215" height="225" fill="#3B3C41"/>
<rect id="a-309" x="350" y="1255" width="280" height="225" fill="#3B3C41"/>
<rect id="a-306" x="180" y="1580" width="150" height="230" fill="#3B3C41"/>
<rect id="a-3-stair-4" opacity="0.2" x="5" y="1580" width="175" height="280" fill="#9CD9BC"/>
<path id="a-3-stair-2" opacity="0.2" d="M1345 1580H1533.59L1575 1915H1345V1580Z" fill="#9CD9BC"/>
<path id="a-3-stair-1" opacity="0.2" d="M2112 1513L2278 1478L2359 1787L2153 1827L2112 1513Z" fill="#9CD9BC"/>
<rect id="a-310" x="630" y="1255" width="100" height="225" fill="#3B3C41"/>
<rect id="a-304" x="520" y="1580" width="110" height="230" fill="#3B3C41"/>
<rect id="a-303" x="630" y="1580" width="205" height="230" fill="#3B3C41"/>
<rect id="a-302" x="835" y="1580" width="295" height="230" fill="#3B3C41"/>
<rect id="a-301" x="1130" y="1580" width="100" height="230" fill="#3B3C41"/>
<rect id="a-3-wcw" opacity="0.2" x="1230" y="1580" width="115" height="230" fill="#F783CB"/>
<rect id="a-305" x="329" y="1580" width="190" height="230" fill="#3B3C41"/>
<rect id="a-311" x="730" y="1255" width="205" height="225" fill="#3B3C41"/>
<rect id="a-312" x="935" y="1255" width="95" height="225" fill="#3B3C41"/>
<rect id="a-313" x="1030" y="1255" width="100" height="225" fill="#3B3C41"/>
<rect id="a-314" x="1130" y="1255" width="100" height="225" fill="#3B3C41"/>
<rect id="a-316" x="1410" y="1255" width="100" height="225" fill="#3B3C41"/>
<rect id="a-315" x="1230" y="1255" width="180" height="225" fill="#3B3C41"/>
<path id="a-317" d="M1508 1255L1507.17 1233.5L1794 1196.5L1824 1443.5L1525 1480H1508V1255Z" fill="#3B3C41"/>
<path id="a-318" d="M1476.59 954.876L1703.6 926.913L1739.03 1204.26L1510 1233L1476.59 954.876Z" fill="#3B3C41"/>
<path id="a-322" d="M1823 914L2037 887L2051 1000L1836 1027L1823 914Z" fill="#3B3C41"/>
<path id="a-323" d="M1837 1027L2051 1000L2072 1174L1858 1200L1837 1027Z" fill="#3B3C41"/>
<path id="a-324" d="M1868 1200L2072 1172L2087 1294L1882 1320L1868 1200Z" fill="#3B3C41"/>
<path id="a-325" d="M1881.37 1321.38L2085.38 1293.53L2099.62 1409.27L1894.61 1435.23L1881.37 1321.38Z" fill="#3B3C41"/>
<path id="a-326" d="M1896.28 1435.35L2101.27 1410.26L2113.81 1513.59L1908.82 1538.67L1896.28 1435.35Z" fill="#3B3C41"/>
<path id="a-200=balkon-2" d="M1530 1580L1614.5 2260L1906.53 2224.43L1884.5 2077L1705 2100L1637 1568L1530 1580Z" fill="#3B3C41"/>
<path id="a-200=balkon-1" d="M2198.56 2188.87L2113.56 1513.37L1999 1526L2064 2054L1884.5 2077L1906.53 2224.43L2198.56 2188.87Z" fill="#3B3C41"/>
</g>
<g id="Walls">
<path id="Subtract" fill-rule="evenodd" clip-rule="evenodd" d="M1586.36 813.554L1691.88 799.934L1691.11 793.983L1585.5 807.615L1586.36 813.554ZM1556.6 817.395L1555.75 811.455L1462.26 823.522L1463.02 829.473L1556.6 817.395Z" fill="#A5A5A7"/>
<path id="Subtract_2" fill-rule="evenodd" clip-rule="evenodd" d="M1961.9 1312.28L2087.36 1296.98L2086.64 1291.02L1961.29 1306.31L1961.9 1312.28ZM1932.12 1315.91L1931.5 1309.94L1881.64 1316.02L1882.36 1321.98L1932.12 1315.91Z" fill="#A5A5A7"/>
<path id="Subtract_3" fill-rule="evenodd" clip-rule="evenodd" d="M685 1403V1397H630V1403H685ZM715 1403H730V1397H715V1403Z" fill="#A5A5A7"/>
<path id="Subtract_4" fill-rule="evenodd" clip-rule="evenodd" d="M427 1644V1810H433V1644H427ZM427 1614H433V1580H427V1614Z" fill="#A5A5A7"/>
<path id="Subtract_5" fill-rule="evenodd" clip-rule="evenodd" d="M727 1640V1810H733V1640H727ZM727 1610H733V1580H727V1610Z" fill="#A5A5A7"/>
<path id="Subtract_6" fill-rule="evenodd" clip-rule="evenodd" d="M865 1663L865 1657H835V1663H865ZM895 1663H929V1810H935V1660V1657H932H895V1663Z" fill="#A5A5A7"/>
<path id="vnesniy kontur" d="M630 95L5 5V1860H180V1810H1345V1915H1572L1615.68 2260L2198.93 2188.94L2153.91 1825.61L2360 1786.58L2278 1478.65L2115 1513.17L2076.43 1199.98L2037.86 886.782L2092.89 879.776L2033.86 393.345L1417.6 467.41L1510 1255H630C629.414 800.045 630.586 549.955 630 95Z" stroke="#D9D9D9" stroke-width="10"/>
<path id="Vector 245" d="M1837 1027L2052 1001" stroke="#D9D9D9" stroke-width="10"/>
<path id="Vector 212" d="M2114 1514L1529 1580" stroke="#D9D9D9" stroke-width="10"/>
<path id="Vector 190" d="M330 1580V1810" stroke="#D9D9D9" stroke-width="10"/>
<path id="Vector 202" d="M180 1580V1810" stroke="#D9D9D9" stroke-width="10"/>
<path id="Vector 203" d="M520 1580V1810" stroke="#D9D9D9" stroke-width="10"/>
<path id="Vector 204" d="M630 1580V1810" stroke="#D9D9D9" stroke-width="10"/>
<path id="Vector 206" d="M835 1580V1810" stroke="#D9D9D9" stroke-width="10"/>
<path id="Vector 210" d="M1230 1580V1810" stroke="#D9D9D9" stroke-width="10"/>
<path id="Vector 211" d="M1345 1580V1810" stroke="#D9D9D9" stroke-width="10"/>
<path id="Vector 192" d="M730 1255V1480" stroke="#D9D9D9" stroke-width="10"/>
<path id="Vector 200" d="M630 1255V1480" stroke="#D9D9D9" stroke-width="10"/>
<path id="Vector 193" d="M935 1255V1480" stroke="#D9D9D9" stroke-width="10"/>
<path id="Vector 197" d="M1230 1255V1480" stroke="#D9D9D9" stroke-width="10"/>
<path id="Vector 249" d="M1130 1255V1480" stroke="#D9D9D9" stroke-width="10"/>
<path id="Vector 198" d="M1410 1254V1479" stroke="#D9D9D9" stroke-width="10"/>
<path id="Vector 250" d="M1510 1254V1479" stroke="#D9D9D9" stroke-width="10"/>
<path id="Vector 228" d="M1512 1232L1799 1196" stroke="#D9D9D9" stroke-width="10"/>
<path id="Subtract_7" fill-rule="evenodd" clip-rule="evenodd" d="M630 1260H5V1250H630V1260Z" fill="#D9D9D9"/>
<path id="Subtract_8" fill-rule="evenodd" clip-rule="evenodd" d="M1125 1810V1580H1135V1810H1125Z" fill="#D9D9D9"/>
<path id="Subtract_9" fill-rule="evenodd" clip-rule="evenodd" d="M1399 1585V1575H1290V1585H1399ZM1479 1585H1530V1575H1479V1585ZM1156 1575V1585H1103V1575H1156ZM1244 1585H1202V1575H1244V1585ZM1057 1575V1585H912V1575H1057ZM866 1585V1575H704V1585H866ZM658 1575V1585H603V1575H658ZM557 1585V1575H409V1585H557ZM363 1575V1585H288V1575H363ZM242 1585V1575H141V1585H242ZM61 1575V1585H5V1575H61Z" fill="#D9D9D9"/>
<path id="Subtract_10" fill-rule="evenodd" clip-rule="evenodd" d="M1590.43 1477.66L1829.6 1448.96L1828.4 1439.04L1588.5 1467.82L1590.43 1477.66ZM1543.95 1483.24L1542.01 1473.4L1528.4 1475.04L1529.6 1484.96L1543.95 1483.24Z" fill="#D9D9D9"/>
<path id="Subtract_11" fill-rule="evenodd" clip-rule="evenodd" d="M1819.04 1445.1L1789.54 1200.6L1799.46 1199.4L1828.96 1443.9L1819.04 1445.1Z" fill="#D9D9D9"/>
<path id="Subtract_12" fill-rule="evenodd" clip-rule="evenodd" d="M1025 1480V1255H1035V1480H1025Z" fill="#D9D9D9"/>
<path id="Subtract_13" fill-rule="evenodd" clip-rule="evenodd" d="M1439 1485V1475H1397.75V1485H1439ZM1485.04 1485H1530V1475H1485.04V1485ZM1351.71 1475V1485H1212V1475H1351.71ZM658 1485V1475H561.037V1485H658ZM704 1485H772V1475H704V1485ZM960 1475V1485H818.037V1475H960ZM1060 1485H1006V1475H1060V1485ZM1106 1485H1166V1475H1106V1485ZM252 1485V1475H92.0368V1485H252ZM298.037 1485H515V1475H298.037V1485ZM46 1475V1485H5V1475H46Z" fill="#D9D9D9"/>
<path id="Subtract_14" fill-rule="evenodd" clip-rule="evenodd" d="M2149.34 1822.35L2150.09 1828L2160 1826.7L2159.26 1821.03L2149.34 1822.35ZM2138.83 1742.32L2148.74 1741L2118.91 1514L2109 1515.3L2138.83 1742.32Z" fill="#D9D9D9"/>
<path id="Vector 242" d="M1779 549L2048 515" stroke="#D9D9D9" stroke-width="10"/>
<path id="Vector 246" d="M1476 955L1704 927" stroke="#D9D9D9" stroke-width="10"/>
<path id="Vector 247" d="M1431 594L1662 566" stroke="#D9D9D9" stroke-width="10"/>
<path id="Vector 243" d="M1821 915L2091 881" stroke="#D9D9D9" stroke-width="10"/>
<path id="Vector 244" d="M1853 1200L2071 1173" stroke="#D9D9D9" stroke-width="10"/>
<path id="Vector 251" d="M1896 1435L2103 1410.5" stroke="#D9D9D9" stroke-width="10"/>
<path id="Subtract_15" fill-rule="evenodd" clip-rule="evenodd" d="M1725.92 1144.94L1733.04 1203.11L1742.96 1201.89L1735.85 1143.72L1725.92 1144.94ZM1720.34 1099.3L1730.27 1098.08L1674.95 645.712L1665.02 646.93L1720.34 1099.3ZM1659.44 601.282L1669.37 600.064L1663.06 548.523L1653.14 549.741L1659.44 601.282ZM1649.96 441.393L1653.36 469.135L1643.43 470.353L1640.04 442.607L1649.96 441.393Z" fill="#D9D9D9"/>
<path id="Subtract_16" fill-rule="evenodd" clip-rule="evenodd" d="M1839.45 1088.53L1828.06 995.464L1837.99 994.245L1849.38 1087.32L1839.45 1088.53ZM1832.41 948.597L1822.48 949.816L1813.14 873.486L1823.07 872.267L1832.41 948.597ZM1845.03 1134.18L1853.04 1199.61L1862.96 1198.39L1854.96 1132.96L1845.03 1134.18ZM1817.48 826.619L1807.56 827.838L1769.49 516.661L1779.42 515.442L1817.48 826.619ZM1773.83 469.794L1768.46 425.893L1758.54 427.107L1763.91 471.013L1773.83 469.794Z" fill="#D9D9D9"/>
<path id="Subtract_17" fill-rule="evenodd" clip-rule="evenodd" d="M1871.96 1196.89L1877.48 1241.88L1867.55 1243.1L1862.04 1198.11L1871.96 1196.89ZM1873.15 1288.73L1883.07 1287.51L1904.76 1464.39L1894.83 1465.61L1873.15 1288.73ZM1900.43 1511.24L1903.54 1536.61L1913.46 1535.39L1910.35 1510.02L1900.43 1511.24Z" fill="#D9D9D9"/>
<path id="Subtract_18" fill-rule="evenodd" clip-rule="evenodd" d="M1564.8 1814.38L1535.96 1577.4L1526.04 1578.6L1554.87 1815.6L1564.8 1814.38ZM1574.46 1893.79L1564.53 1895.01L1567.04 1915.6L1576.96 1914.4L1574.46 1893.79Z" fill="#D9D9D9"/>
<path id="Vector 337" d="M135 1480V1255" stroke="#D9D9D9" stroke-width="10"/>
<path id="Vector 338" d="M350 1480V1255" stroke="#D9D9D9" stroke-width="10"/>
</g>
<g id="Textes">
<text id="text 4" fill="#D9D9D9" xml:space="preserve" style="white-space: pre" font-family="GothamSSm" font-size="24" font-weight="bold" letter-spacing="0em"><tspan x="215.25" y="1375.8">&#x410; 308</tspan></text>
<text id="text 5" fill="#D9D9D9" xml:space="preserve" style="white-space: pre" font-family="GothamSSm" font-size="24" font-weight="bold" letter-spacing="0em"><tspan x="43.4297" y="1375.8">&#x410; 307</tspan></text>
<text id="text 7" fill="#D9D9D9" xml:space="preserve" style="white-space: pre" font-family="GothamSSm" font-size="24" font-weight="bold" letter-spacing="0em"><tspan x="462.18" y="1375.8">&#x410; 309</tspan></text>
<text id="text 29" fill="#D9D9D9" xml:space="preserve" style="white-space: pre" font-family="GothamSSm" font-size="24" font-weight="bold" letter-spacing="0em"><tspan x="654.395" y="1375.8">&#x410; 310</tspan></text>
<text id="text 9" fill="#D9D9D9" xml:space="preserve" style="white-space: pre" font-family="GothamSSm" font-size="24" font-weight="bold" letter-spacing="0em"><tspan x="227.156" y="1703.8">&#x410; 306</tspan></text>
<text id="text 10" fill="#D9D9D9" xml:space="preserve" style="white-space: pre" font-family="GothamSSm" font-size="24" font-weight="bold" letter-spacing="0em"><tspan x="353.148" y="1703.8">&#x410; 305</tspan></text>
<text id="text 11" fill="#D9D9D9" xml:space="preserve" style="white-space: pre" font-family="GothamSSm" font-size="24" font-weight="bold" letter-spacing="0em"><tspan x="547.48" y="1703.8">&#x410; 304</tspan></text>
<text id="text 12" fill="#D9D9D9" xml:space="preserve" style="white-space: pre" font-family="GothamSSm" font-size="24" font-weight="bold" letter-spacing="0em"><tspan x="651.324" y="1703.8">&#x410; 303</tspan></text>
<text id="text 13" fill="#D9D9D9" xml:space="preserve" style="white-space: pre" font-family="GothamSSm" font-size="24" font-weight="bold" letter-spacing="0em"><tspan x="955.219" y="1703.8">&#x410; 302</tspan></text>
<text id="text 33" fill="#D9D9D9" xml:space="preserve" style="white-space: pre" font-family="GothamSSm" font-size="24" font-weight="bold" letter-spacing="0em"><tspan x="1154.49" y="1703.8">&#x410; 301</tspan></text>
<text id="text 14" fill="#D9D9D9" xml:space="preserve" style="white-space: pre" font-family="GothamSSm" font-size="24" font-weight="bold" letter-spacing="0em"><tspan x="810.078" y="1375.8">&#x410; 311</tspan></text>
<text id="text 30" fill="#D9D9D9" xml:space="preserve" style="white-space: pre" font-family="GothamSSm" font-size="24" font-weight="bold" letter-spacing="0em"><tspan x="958.285" y="1375.8">&#x410; 312</tspan></text>
<text id="text 31" fill="#D9D9D9" xml:space="preserve" style="white-space: pre" font-family="GothamSSm" font-size="24" font-weight="bold" letter-spacing="0em"><tspan x="1055.41" y="1375.8">&#x410; 313</tspan></text>
<text id="text 32" fill="#D9D9D9" xml:space="preserve" style="white-space: pre" font-family="GothamSSm" font-size="24" font-weight="bold" letter-spacing="0em"><tspan x="1435.34" y="1375.8">&#x410; 316</tspan></text>
<text id="text 15" fill="#D9D9D9" xml:space="preserve" style="white-space: pre" font-family="GothamSSm" font-size="24" font-weight="bold" letter-spacing="0em"><tspan x="1155.16" y="1375.8">&#x410; 314</tspan></text>
<text id="text 16" fill="#D9D9D9" xml:space="preserve" style="white-space: pre" font-family="GothamSSm" font-size="24" font-weight="bold" letter-spacing="0em"><tspan x="1295.33" y="1375.8">&#x410; 315</tspan></text>
<text id="text 18" fill="#D9D9D9" xml:space="preserve" style="white-space: pre" font-family="GothamSSm" font-size="24" font-weight="bold" letter-spacing="0em"><tspan x="1641.41" y="1346.8">&#x410; 317</tspan></text>
<text id="text 20" fill="#D9D9D9" xml:space="preserve" style="white-space: pre" font-family="GothamSSm" font-size="24" font-weight="bold" letter-spacing="0em"><tspan x="1964.07" y="1372.8">&#x410; 325</tspan></text>
<text id="text 28" fill="#D9D9D9" xml:space="preserve" style="white-space: pre" font-family="GothamSSm" font-size="24" font-weight="bold" letter-spacing="0em"><tspan x="1978.12" y="1482.8">&#x410; 326</tspan></text>
<text id="text 21" fill="#D9D9D9" xml:space="preserve" style="white-space: pre" font-family="GothamSSm" font-size="24" font-weight="bold" letter-spacing="0em"><tspan x="1950.06" y="1253.8">&#x410; 324</tspan></text>
<text id="text 22" fill="#D9D9D9" xml:space="preserve" style="white-space: pre" font-family="GothamSSm" font-size="24" font-weight="bold" letter-spacing="0em"><tspan x="1910.03" y="964.8">&#x410; 322</tspan></text>
<text id="text 27" fill="#D9D9D9" xml:space="preserve" style="white-space: pre" font-family="GothamSSm" font-size="24" font-weight="bold" letter-spacing="0em"><tspan x="1928.16" y="1108.8">&#x410; 323</tspan></text>
<text id="text 23" fill="#D9D9D9" xml:space="preserve" style="white-space: pre" font-family="GothamSSm" font-size="24" font-weight="bold" letter-spacing="0em"><tspan x="1910.32" y="722.8">&#x410; 321</tspan></text>
<text id="text 24" fill="#D9D9D9" xml:space="preserve" style="white-space: pre" font-family="GothamSSm" font-size="24" font-weight="bold" letter-spacing="0em"><tspan x="1878.14" y="479.8">&#x410; 320</tspan></text>
<text id="text 25" fill="#D9D9D9" xml:space="preserve" style="white-space: pre" font-family="GothamSSm" font-size="24" font-weight="bold" letter-spacing="0em"><tspan x="1543.36" y="768.8">&#x410; 319</tspan></text>
<text id="text 26" fill="#D9D9D9" xml:space="preserve" style="white-space: pre" font-family="GothamSSm" font-size="24" font-weight="bold" letter-spacing="0em"><tspan x="1582.43" y="1087.8">&#x410; 318</tspan></text>
</g>
<g id="Entrances">
<circle id="1" cx="795" cy="1480" r="10" fill="#9CBBFF"/>
<circle id="2" cx="681" cy="1480" r="10" fill="#9CBBFF"/>
<circle id="41" cx="538" cy="1480" r="10" fill="#9CBBFF"/>
<circle id="42" cx="275" cy="1480" r="10" fill="#9CBBFF"/>
<circle id="43" cx="69" cy="1480" r="10" fill="#9CBBFF"/>
<circle id="10" cx="102" cy="1580" r="10" fill="#9CBBFF"/>
<circle id="11" cx="265" cy="1580" r="10" fill="#9CBBFF"/>
<circle id="12" cx="386" cy="1580" r="10" fill="#9CBBFF"/>
<circle id="13" cx="580" cy="1580" r="10" fill="#9CBBFF"/>
<circle id="14" cx="681" cy="1580" r="10" fill="#9CBBFF"/>
<circle id="34" cx="1080" cy="1580" r="10" fill="#9CBBFF"/>
<circle id="35" cx="1267" cy="1580" r="10" fill="#9CBBFF"/>
<circle id="36" cx="1179" cy="1580" r="10" fill="#9CBBFF"/>
<circle id="18" cx="1189" cy="1480" r="10" fill="#9CBBFF"/>
<circle id="37" cx="1083" cy="1480" r="10" fill="#9CBBFF"/>
<circle id="38" cx="983" cy="1480" r="10" fill="#9CBBFF"/>
<circle id="19" cx="1375" cy="1480" r="10" fill="#9CBBFF"/>
<circle id="39" cx="1462" cy="1480" r="10" fill="#9CBBFF"/>
<circle id="20" cx="1441" cy="1580" r="10" fill="#9CBBFF"/>
<circle id="21" cx="1566" cy="1478" r="10" fill="#9CBBFF"/>
<circle id="22" cx="1947" cy="1311" r="10" fill="#9CBBFF"/>
<circle id="23" cx="1728" cy="1122" r="10" fill="#9CBBFF"/>
<circle id="24" cx="1669" cy="625" r="10" fill="#9CBBFF"/>
<circle id="25" cx="1655" cy="510" r="10" fill="#9CBBFF"/>
<circle id="26" cx="1773" cy="494" r="10" fill="#9CBBFF"/>
<circle id="27" cx="1816" cy="851" r="10" fill="#9CBBFF"/>
<circle id="28" cx="1831" cy="973" r="10" fill="#9CBBFF"/>
<circle id="40" cx="1848" cy="1111" r="10" fill="#9CBBFF"/>
<circle id="30" cx="1876" cy="1266" r="10" fill="#9CBBFF"/>
<circle id="31" cx="1903" cy="1488" r="10" fill="#9CBBFF"/>
<circle id="33" cx="1567" cy="1857" r="10" fill="#9CBBFF"/>
<circle id="32" cx="2231" cy="1700" r="10" fill="#9CBBFF"/>
<circle id="44" cx="2145" cy="1779" r="10" fill="#9CBBFF"/>
</g>
<g id="Icons">
<g id="Stair">
<g id="Stair frame">
<path id="Vector 152" d="M1579 496H1554V511H1539V526H1524V541H1499" stroke="#9CD9BC" stroke-width="5" stroke-linecap="round" stroke-linejoin="round"/>
<path id="Vector 154" d="M1511 496H1526M1526 496L1523 510M1526 496L1499 517" stroke="#9CD9BC" stroke-width="3" stroke-linecap="round" stroke-linejoin="round"/>
<path id="Vector 155" d="M1567 541H1552M1552 541L1555 527M1552 541L1579 520" stroke="#9CD9BC" stroke-width="3" stroke-linecap="round" stroke-linejoin="round"/>
</g>
</g>
<g id="Stair_2">
<g id="Stair frame_2">
<path id="Vector 152_2" d="M133 1698H108V1713H93V1728H78V1743H53" stroke="#9CD9BC" stroke-width="5" stroke-linecap="round" stroke-linejoin="round"/>
<path id="Vector 154_2" d="M65 1698H80M80 1698L77 1712M80 1698L53 1719" stroke="#9CD9BC" stroke-width="3" stroke-linecap="round" stroke-linejoin="round"/>
<path id="Vector 155_2" d="M121 1743H106M106 1743L109 1729M106 1743L133 1722" stroke="#9CD9BC" stroke-width="3" stroke-linecap="round" stroke-linejoin="round"/>
</g>
</g>
<g id="Woman">
<g id="Group 5">
<path id="Vector 200_2" d="M1292.5 1697L1301 1718.5H1273L1281.5 1697" stroke="#F783CB" stroke-width="5" stroke-linecap="round" stroke-linejoin="round"/>
<circle id="Ellipse 9" cx="1287" cy="1679" r="8" stroke="#F783CB" stroke-width="5" stroke-linecap="round" stroke-linejoin="round"/>
</g>
</g>
<g id="Stair_3">
<g id="Stair frame_3">
<path id="Vector 152_3" d="M1498 1725H1473V1740H1458V1755H1443V1770H1418" stroke="#9CD9BC" stroke-width="5" stroke-linecap="round" stroke-linejoin="round"/>
<path id="Vector 154_3" d="M1430 1725H1445M1445 1725L1442 1739M1445 1725L1418 1746" stroke="#9CD9BC" stroke-width="3" stroke-linecap="round" stroke-linejoin="round"/>
<path id="Vector 155_3" d="M1486 1770H1471M1471 1770L1474 1756M1471 1770L1498 1749" stroke="#9CD9BC" stroke-width="3" stroke-linecap="round" stroke-linejoin="round"/>
</g>
</g>
<g id="Stair_4">
<g id="Stair frame_4">
<path id="Vector 152_4" d="M2271 1628H2246V1643H2231V1658H2216V1673H2191" stroke="#9CD9BC" stroke-width="5" stroke-linecap="round" stroke-linejoin="round"/>
<path id="Vector 154_4" d="M2203 1628H2218M2218 1628L2215 1642M2218 1628L2191 1649" stroke="#9CD9BC" stroke-width="3" stroke-linecap="round" stroke-linejoin="round"/>
<path id="Vector 155_4" d="M2259 1673H2244M2244 1673L2247 1659M2244 1673L2271 1652" stroke="#9CD9BC" stroke-width="3" stroke-linecap="round" stroke-linejoin="round"/>
</g>
</g>
</g>
</g>
<defs>
<clipPath id="clip0_1_879">
<rect width="2370" height="2267" fill="white"/>
</clipPath>
</defs>
</svg>
