<svg width="3440" height="1000" viewBox="0 0 3440 1000" fill="none" xmlns="http://www.w3.org/2000/svg">
<g id="N-0">
<g id="Spaces">
<rect id="n-0-enter" opacity="0.01" x="2510" y="700" width="279" height="130" fill="#9CD9BC"/>
<path id="n-0-stair-1" opacity="0.2" d="M2510 5H2810V135H2590V225H2510V5Z" fill="#9CD9BC"/>
<path id="n-0-lift-1" opacity="0.2" d="M2590 135H2660V225H2590V135Z" fill="#A091F8"/>
<path id="n-0-lift-2" opacity="0.2" d="M2660 135H2730V225H2660V135Z" fill="#A091F8"/>
<path id="n-0-lift-3" opacity="0.2" d="M2730 135H2810V225H2730V135Z" fill="#A091F8"/>
<path id="!n-1-10" d="M2790 225H3120L3130 250V395H2790V225Z" fill="#3B3C41"/>
<path id="!n-1-9" d="M2790 395H3130V585H2790V395Z" fill="#3B3C41"/>
<path id="!n-1-1" d="M2790 585H2900V675H2790V585Z" fill="#3B3C41"/>
<path id="!n-1-1_2" d="M2790 675H2900V845H2790V675Z" fill="#3B3C41"/>
<path id="!n-1-4" d="M2900 585H3260V845H2900V585Z" fill="#3B3C41"/>
<path id="!n-1-3" d="M2790 845H3060V995H2790V845Z" fill="#3B3C41"/>
<path id="!n-1-8" d="M3060 845H3350V995H3060V845Z" fill="#3B3C41"/>
<path id="!n-1-6" d="M3260 585H3330L3340 600V695H3260V585Z" fill="#3B3C41"/>
<rect id="!n-1-5" x="3260" y="695" width="80" height="150" fill="#3B3C41"/>
<path id="!n-1-entrance-1" d="M3130 255L3160 235L3230 360L3200 375L3330 585H3130V255Z" fill="#3B3C41"/>
<path id="!n-1-7" d="M3340 845V685C3360 685 3430 690 3430 765C3430 825 3375 850 3340 845Z" fill="#3B3C41"/>
<path id="!n-1-labs-1" d="M5 5.00003L2510 5V765H2530V980H5V5.00003Z" fill="#3B3C41"/>
</g>
<g id="Walls">
<path id="Vector 7" d="M2790 585H3325" stroke="#D9D9D9" stroke-width="10"/>
<path id="Vector 2" d="M2530 765H2510L2510 5" stroke="#D9D9D9" stroke-width="10"/>
<path id="Vector 17" d="M2730 135V225" stroke="#D9D9D9" stroke-width="10"/>
<path id="Vector 15" d="M2590 225V135H2810" stroke="#D9D9D9" stroke-width="10"/>
<path id="Vector 16" d="M2660 135V225" stroke="#D9D9D9" stroke-width="10"/>
<path id="Subtract" fill-rule="evenodd" clip-rule="evenodd" d="M2795 233V225H2785V233H2795ZM2795 279H2785V519H2795V279ZM2785 686V565H2795V686H2785ZM2785 732V765H2795V732H2785Z" fill="#D9D9D9"/>
<path id="Subtract_2" fill-rule="evenodd" clip-rule="evenodd" d="M5 0H0V5V980V985H5H1960H2530H2535V980V770H2619.98V760H2530H2525V765V975H1960H10V10H2805V225V230H2810H3116.4L3125.26 256.581L3127.33 262.791L3132.77 259.16L3158.28 242.158L3176.87 275.354L3185.5 270.308L3164.36 232.557L3161.72 227.842L3157.23 230.84L3132.67 247.209L3124.74 223.419L3123.6 220H3120H2815V5V0H2810H5ZM3223.08 357.871L3199.35 315.499L3207.98 310.453L3234.36 357.557L3236.92 362.129L3232.24 364.472L3207.1 377.042L3226.48 408.891L3218 414.189L3195.73 377.6L3192.9 372.958L3197.76 370.528L3223.08 357.871ZM3241.92 453.488L3335 606.402V685V690.285L3340.27 689.993L3340.28 689.992L3340.28 689.992L3340.31 689.991L3340.46 689.984C3340.6 689.978 3340.83 689.97 3341.13 689.963C3341.41 689.956 3341.75 689.95 3342.15 689.947C3342.62 689.943 3343.18 689.943 3343.81 689.951C3346.14 689.979 3349.51 690.109 3353.56 690.521C3361.68 691.349 3372.42 693.299 3383.08 697.74C3393.72 702.175 3404.14 709.03 3411.91 719.601C3419.64 730.126 3425 744.683 3425 765C3425 785.163 3419.65 799.646 3411.91 810.147C3404.14 820.697 3393.72 827.573 3383.06 832.045C3372.4 836.524 3361.66 838.527 3353.53 839.399C3350.07 839.771 3347.1 839.934 3344.86 840H3340L3339.76 849.994L3340 845C3339.76 849.994 3339.76 849.994 3339.76 849.994L3339.77 849.995L3339.79 849.996L3339.86 849.999L3340.09 850.007C3340.19 850.011 3340.31 850.014 3340.45 850.018L3340.64 850.022L3340.92 850.028C3341.64 850.041 3342.66 850.047 3343.96 850.024C3344.29 850.018 3344.64 850.01 3345 850V990H2795V765V760H2790H2700V770H2785V995V1000H2790H3350H3355V995V849.298C3363.7 848.337 3375.28 846.159 3386.94 841.266C3398.78 836.29 3410.86 828.442 3419.96 816.077C3429.1 803.665 3435 787.045 3435 765C3435 742.817 3429.11 726.124 3419.97 713.68C3410.86 701.283 3398.78 693.45 3386.92 688.51C3375.08 683.576 3363.32 681.464 3354.57 680.573C3350.76 680.184 3347.49 680.025 3345 679.97V605V603.598L3344.27 602.4L3250.4 448.19L3241.92 453.488Z" fill="#D9D9D9"/>
<path id="Subtract_3" fill-rule="evenodd" clip-rule="evenodd" d="M3335 829V845H3345V829H3335ZM3335 783H3345V680H3335V783Z" fill="#D9D9D9"/>
<path id="Subtract_4" fill-rule="evenodd" clip-rule="evenodd" d="M3300 690H3260V700H3300V690ZM3330.01 700H3340V690H3330.01V700Z" fill="#D9D9D9"/>
<path id="Subtract_5" fill-rule="evenodd" clip-rule="evenodd" d="M3095 390H2790V400H3095V390ZM3125.01 400H3130V390H3125.01V400Z" fill="#D9D9D9"/>
<path id="Subtract_6" fill-rule="evenodd" clip-rule="evenodd" d="M3125 467V585H3135V467H3125ZM3125 421H3135V255H3125V421Z" fill="#D9D9D9"/>
<path id="Subtract_7" fill-rule="evenodd" clip-rule="evenodd" d="M2840 670H2790V680H2840V670ZM2870.01 680H2900V670H2870.01V680Z" fill="#D9D9D9"/>
<path id="Subtract_8" fill-rule="evenodd" clip-rule="evenodd" d="M2847.83 850V840H2790V850H2847.83ZM2893.84 850H3350V840H2893.84V850Z" fill="#D9D9D9"/>
<path id="Subtract_9" fill-rule="evenodd" clip-rule="evenodd" d="M3055 896V995H3065V896H3055ZM3055 866H3065V845H3055V866Z" fill="#D9D9D9"/>
<path id="Subtract_10" fill-rule="evenodd" clip-rule="evenodd" d="M2738 230V220H2718.01V230H2738ZM2784.01 230H2810V220H2784.01V230ZM2672 220V230H2650.01V220H2672ZM2604 230V220H2576.01V230H2604ZM2530 220L2530 230H2510V220H2530Z" fill="#D9D9D9"/>
<path id="Subtract_11" fill-rule="evenodd" clip-rule="evenodd" d="M3255 783V845H3265V783H3255ZM3255 753H3265V585H3255V753Z" fill="#D9D9D9"/>
<path id="Subtract_12" fill-rule="evenodd" clip-rule="evenodd" d="M2895 726V845H2905V726H2895ZM2895 680H2905V585H2895V680Z" fill="#D9D9D9"/>
</g>
<g id="Entrances">
<circle id="25" cx="2791" cy="709" r="10" fill="#9CBBFF"/>
<circle id="26" cx="2790" cy="542" r="10" fill="#9CBBFF"/>
<circle id="27" cx="2790" cy="256" r="10" fill="#9CBBFF"/>
<circle id="28" cx="2553" cy="225" r="10" fill="#9CBBFF"/>
<circle id="34" cx="2627" cy="225" r="10" fill="#9CBBFF"/>
<circle id="35" cx="2695" cy="225" r="10" fill="#9CBBFF"/>
<circle id="36" cx="2761" cy="225" r="10" fill="#9CBBFF"/>
<circle id="31" cx="2871" cy="846" r="10" fill="#9CBBFF"/>
<circle id="&#208;&#154;" cx="2660" cy="765" r="10" fill="#9CBBFF"/>
<circle id="32" cx="3340" cy="806" r="10" fill="#9CBBFF"/>
</g>
<g id="Icons">
<g id="Stair">
<g id="Stair frame">
<path id="Vector 152" d="M2700 43H2675V58H2660V73H2645V88H2620" stroke="#9CD9BC" stroke-width="5" stroke-linecap="round" stroke-linejoin="round"/>
<path id="Vector 154" d="M2632 43H2647M2647 43L2644 57M2647 43L2620 64" stroke="#9CD9BC" stroke-width="3" stroke-linecap="round" stroke-linejoin="round"/>
<path id="Vector 155" d="M2688 88H2673M2673 88L2676 74M2673 88L2700 67" stroke="#9CD9BC" stroke-width="3" stroke-linecap="round" stroke-linejoin="round"/>
</g>
</g>
<g id="Elevator">
<g id="Vector">
<path d="M2641 177L2635 171L2629 177H2641Z" fill="#A091F8"/>
<path d="M2641 181L2635 187L2629 181H2641Z" fill="#A091F8"/>
<path d="M2623 177C2623 174 2621 171 2618 171H2614C2611 171 2609 174 2609 177V182C2609 184 2610.5 185.5 2612 185.5V195C2612 196.6 2613.33 197 2614 197H2618C2618.67 197 2620 196.6 2620 195V185.5C2621.5 185.5 2623 184 2623 182V177Z" fill="#A091F8"/>
<path d="M2620 164C2620 166.209 2618.21 168 2616 168C2613.79 168 2612 166.209 2612 164C2612 161.791 2613.79 160 2616 160C2618.21 160 2620 161.791 2620 164Z" fill="#A091F8"/>
</g>
<path id="Vector 201" d="M2612.5 207.5H2600.5V152.5H2649.5V207.5H2637.5" stroke="#A091F8" stroke-width="5" stroke-linecap="round" stroke-linejoin="round"/>
</g>
<g id="Elevator_2">
<g id="Vector_2">
<path d="M2711 177L2705 171L2699 177H2711Z" fill="#A091F8"/>
<path d="M2711 181L2705 187L2699 181H2711Z" fill="#A091F8"/>
<path d="M2693 177C2693 174 2691 171 2688 171H2684C2681 171 2679 174 2679 177V182C2679 184 2680.5 185.5 2682 185.5V195C2682 196.6 2683.33 197 2684 197H2688C2688.67 197 2690 196.6 2690 195V185.5C2691.5 185.5 2693 184 2693 182V177Z" fill="#A091F8"/>
<path d="M2690 164C2690 166.209 2688.21 168 2686 168C2683.79 168 2682 166.209 2682 164C2682 161.791 2683.79 160 2686 160C2688.21 160 2690 161.791 2690 164Z" fill="#A091F8"/>
</g>
<path id="Vector 201_2" d="M2682.5 207.5H2670.5V152.5H2719.5V207.5H2707.5" stroke="#A091F8" stroke-width="5" stroke-linecap="round" stroke-linejoin="round"/>
</g>
<g id="Elevator_3">
<g id="Vector_3">
<path d="M2787 177L2781 171L2775 177H2787Z" fill="#A091F8"/>
<path d="M2787 181L2781 187L2775 181H2787Z" fill="#A091F8"/>
<path d="M2769 177C2769 174 2767 171 2764 171H2760C2757 171 2755 174 2755 177V182C2755 184 2756.5 185.5 2758 185.5V195C2758 196.6 2759.33 197 2760 197H2764C2764.67 197 2766 196.6 2766 195V185.5C2767.5 185.5 2769 184 2769 182V177Z" fill="#A091F8"/>
<path d="M2766 164C2766 166.209 2764.21 168 2762 168C2759.79 168 2758 166.209 2758 164C2758 161.791 2759.79 160 2762 160C2764.21 160 2766 161.791 2766 164Z" fill="#A091F8"/>
</g>
<path id="Vector 201_3" d="M2758.5 207.5H2746.5V152.5H2795.5V207.5H2783.5" stroke="#A091F8" stroke-width="5" stroke-linecap="round" stroke-linejoin="round"/>
</g>
<g id="Doors">
<path id="Vector 301" d="M2654 756L2626 763H2620" stroke="#A5A5A7" stroke-width="6"/>
<path id="Vector 302" d="M2666 756L2694 763H2700" stroke="#A5A5A7" stroke-width="6"/>
</g>
<g id="Enter">
<path id="Rectangle 242" d="M2646 827L2636 827L2636 791L2684 791L2684 827L2672.5 827" stroke="#9CD9BC" stroke-width="5" stroke-linecap="round" stroke-linejoin="round"/>
<g id="Group 26">
<path id="Vector 325" d="M2659.5 840L2659.5 808.3M2659.5 808.3L2653 818.3M2659.5 808.3L2666 818.3" stroke="#D9D9D9" stroke-width="3" stroke-miterlimit="1" stroke-linecap="round" stroke-linejoin="round"/>
</g>
</g>
</g>
</g>
</svg>
