<svg width="3055" height="1105" viewBox="0 0 3055 1105" fill="none" xmlns="http://www.w3.org/2000/svg">
<g id="N-4" clip-path="url(#clip0_2013_195)">
<g id="Spaces">
<rect id="!n-4-lift-1" x="1630" y="150" width="110" height="110" fill="#3B3C41"/>
<rect id="n-4-wcw-1" opacity="0.2" x="1210" y="5" width="160" height="255" fill="#F783CB"/>
<rect id="n-4-cowork-1" opacity="0.2" x="630" y="240" width="580" height="220" fill="#63E3D4"/>
<rect id="n-4-wcm-1" opacity="0.2" x="1370" y="5" width="160" height="255" fill="#9CBBFF"/>
<path id="n-4-stair-2" opacity="0.2" d="M1530 5H1850V150H1630V260H1530V5Z" fill="#9CD9BC"/>
<rect id="!n-4-lift-2" x="1740" y="150" width="110" height="110" fill="#3B3C41"/>
<path id="n-4-stair-1" opacity="0.2" d="M2740 5H3050V170H2820V260H2740V5Z" fill="#9CD9BC"/>
<path id="n-4-stair-3" opacity="0.2" d="M330 5H630V140H430V260H330V5Z" fill="#9CD9BC"/>
<rect id="n-4-lift-3" opacity="0.2" x="2973" y="170" width="77" height="90" fill="#A091F8"/>
<rect id="!n-4-lift-7" x="530" y="140" width="100" height="120" fill="#3B3C41"/>
<rect id="!n-4-lift-6" x="430" y="140" width="100" height="120" fill="#3B3C41"/>
<rect id="n-4-lift-2" opacity="0.2" x="2897" y="170" width="76" height="90" fill="#A091F8"/>
<rect id="n-4-lift-1" opacity="0.2" x="2820" y="170" width="77" height="90" fill="#A091F8"/>
<rect id="n-405" x="1210" y="350" width="320" height="530" fill="#3B3C41"/>
<rect id="n-407" x="1210" y="880" width="320" height="220" fill="#3B3C41"/>
<rect id="n-409" x="1630" y="860" width="220" height="240" fill="#3B3C41"/>
<rect id="n-4-u-6" x="1530" y="985" width="100" height="115" fill="#3B3C41"/>
<rect id="n-408" x="1630" y="650" width="220" height="210" fill="#3B3C41"/>
<rect id="n-406" x="1630" y="350" width="220" height="300" fill="#3B3C41"/>
<rect id="n-4-u-5" x="1850" y="350" width="130" height="110" fill="#3B3C41"/>
<rect id="n-418" x="1980" y="350" width="150" height="110" fill="#3B3C41"/>
<rect id="n-419" x="2131" y="350" width="279" height="110" fill="#3B3C41"/>
<rect id="n-4-u-4" x="2410" y="350" width="330" height="110" fill="#3B3C41"/>
<rect id="n-4-u-3" x="2410" y="460" width="330" height="410" fill="#3B3C41"/>
<rect id="n-4-u-2" x="2410" y="870" width="330" height="230" fill="#3B3C41"/>
<rect id="!n-4-u-1" x="2740" y="1030" width="90" height="70" fill="#3B3C41"/>
<rect id="n-416" opacity="0.2" x="2830" y="672" width="220" height="428" fill="#F0B771"/>
<rect id="n-415" x="2830" y="350" width="220" height="322" fill="#3B3C41"/>
<rect id="n-410" x="2410" y="5" width="160" height="255" fill="#3B3C41"/>
<rect id="n-411" x="2570" y="5" width="170" height="255" fill="#3B3C41"/>
<rect id="n-402" x="5" y="5" width="325" height="255" fill="#3B3C41"/>
<path id="n-401" d="M80 445H5V1100H630V445H565V530H80V445Z" fill="#3B3C41"/>
</g>
<g id="Walls">
<path id="Subtract" fill-rule="evenodd" clip-rule="evenodd" d="M2612 460V665V668H2615H2642L2642 662H2618V460H2612ZM2672 662V668H2740V662H2672Z" fill="#A5A5A7"/>
<path id="Subtract_2" fill-rule="evenodd" clip-rule="evenodd" d="M155 134.5V10H161V137.5V177H155V140.5H125V134.5H155ZM155 207V265H161V207H155ZM95 134.5V140.5H10V134.5H95Z" fill="#A5A5A7"/>
<path id="Vneskniy kontur" d="M630 5H5V1100H630V460H1210V1100H1850V460H2410V1100H3050V5H2410V240H1850V5H1210V240H630V5Z" stroke="#D9D9D9" stroke-width="10"/>
<path id="Vector 294" d="M2830 1030H2740" stroke="#D9D9D9" stroke-width="10"/>
<path id="Vector 137" d="M1850 340L1850 460" stroke="#D9D9D9" stroke-width="10"/>
<path id="Vector 150" d="M1210 340L1210 350" stroke="#D9D9D9" stroke-width="10"/>
<path id="Vector 211" d="M2410 340L2410 350" stroke="#D9D9D9" stroke-width="10"/>
<path id="Vector 140" d="M1630 650H1850" stroke="#D9D9D9" stroke-width="10"/>
<path id="Vector 141" d="M1630 860H1850" stroke="#D9D9D9" stroke-width="10"/>
<path id="Vector 144" d="M1210 880H1530" stroke="#D9D9D9" stroke-width="10"/>
<path id="Vector 146" d="M1370 260V5" stroke="#D9D9D9" stroke-width="10"/>
<path id="Vector 149" d="M1740 150V260" stroke="#D9D9D9" stroke-width="10"/>
<path id="Subtract_3" fill-rule="evenodd" clip-rule="evenodd" d="M1535 5V260V265H1530H1500V255H1525V5H1535ZM1454 255H1294V265H1454V255ZM1248 255V265H1210V255H1248Z" fill="#D9D9D9"/>
<path id="Subtract_4" fill-rule="evenodd" clip-rule="evenodd" d="M1850 145H1630H1625V150L1625 260V265H1630H1661V255H1635L1635 155H1850V145ZM1707 255V265H1774V255H1707ZM1845 265H1820V255H1845V240H1855V260V270H1845V265Z" fill="#D9D9D9"/>
<path id="Vector 138" d="M1210 240L1210 270" stroke="#D9D9D9" stroke-width="10"/>
<path id="Vector 212" d="M2410 240L2410 270" stroke="#D9D9D9" stroke-width="10"/>
<path id="Subtract_5" fill-rule="evenodd" clip-rule="evenodd" d="M1210 345H1205V350V461H1215V355H1525V490H1535V350V345H1530H1210ZM1525 536V714H1535V536H1525ZM1525 910V760H1535V910H1525ZM1525 956V1100H1535V956H1525Z" fill="#D9D9D9"/>
<path id="Subtract_6" fill-rule="evenodd" clip-rule="evenodd" d="M1630 345H1625V350V490H1635V355H1850V345H1630ZM1625 536V754H1635V536H1625ZM1625 910V800H1635V910H1625ZM1625 956V1100H1635V956H1625Z" fill="#D9D9D9"/>
<path id="Vector 220" d="M2410 350V460" stroke="#D9D9D9" stroke-width="10"/>
<path id="Vector 221" d="M2740 460H2410" stroke="#D9D9D9" stroke-width="10"/>
<path id="Vector 222" d="M2740 870H2410" stroke="#D9D9D9" stroke-width="10"/>
<path id="Vector 224" d="M3050 672L2830 672" stroke="#D9D9D9" stroke-width="10"/>
<path id="Subtract_7" fill-rule="evenodd" clip-rule="evenodd" d="M325 228V255H4.99989V265H330H335V260V228H325ZM325 182H335V5H325V182Z" fill="#D9D9D9"/>
<path id="Vector 214" d="M530 140V260" stroke="#D9D9D9" stroke-width="10"/>
<path id="Subtract_8" fill-rule="evenodd" clip-rule="evenodd" d="M2745 5V260V265H2740H2670V255H2735V5H2745ZM2624 255V265H2516V255H2624ZM2470 255V265H2410V255H2470Z" fill="#D9D9D9"/>
<path id="Vector 227" d="M2973 170V260" stroke="#D9D9D9" stroke-width="10"/>
<path id="Vector 226" d="M2897 170V260" stroke="#D9D9D9" stroke-width="10"/>
<path id="Vector 228" d="M2570 260V5" stroke="#D9D9D9" stroke-width="10"/>
<path id="Subtract_9" fill-rule="evenodd" clip-rule="evenodd" d="M2820 165L2815 165V170V260V265H2820H2836L2836 255H2825V175L3050 175V165L2820 165ZM2882 255V265H2912V255H2882ZM2958 265H2988V255H2958V265ZM3050 265H3034V255H3050V265Z" fill="#D9D9D9"/>
<path id="Subtract_10" fill-rule="evenodd" clip-rule="evenodd" d="M2830 345H2825V350V579H2835V355H3050V345H2830ZM2825 625V714H2835V625H2825ZM2825 960V760H2835V960H2825ZM2825 1006V1100H2835V1006H2825Z" fill="#D9D9D9"/>
<path id="Subtract_11" fill-rule="evenodd" clip-rule="evenodd" d="M2470 355V345H2276V355H2470ZM2516 355H2735V784H2745V350V345H2740H2516V355ZM2230 355V345H2080V355H2230ZM2735 910V830H2745V910H2735ZM2735 1050V956H2745V1050H2735ZM2735 1080V1100H2745V1080H2735ZM2034 345V355H1960V345H2034ZM1914 355V345H1850V355H1914Z" fill="#D9D9D9"/>
<path id="Subtract_12" fill-rule="evenodd" clip-rule="evenodd" d="M425 135H430H630V145H435V255H457V265H430H425V260V140V135ZM557 265H503V255H557V265ZM603 265H630V255H603V265Z" fill="#D9D9D9"/>
<path id="Vector 285" d="M2740 260H2750" stroke="#D9D9D9" stroke-width="10"/>
<path id="Vector 286" d="M2810 260H2820" stroke="#D9D9D9" stroke-width="10"/>
<path id="Vector 281" d="M2740 350H2750" stroke="#D9D9D9" stroke-width="10"/>
<path id="Vector 282" d="M2820 350H2830" stroke="#D9D9D9" stroke-width="10"/>
<path id="Subtract_13" fill-rule="evenodd" clip-rule="evenodd" d="M75 450H10V440H80H85V445V470H75V450ZM75 535V516H85V530H560V514H570V535V540H565H80H75V535ZM570 468V450H635V440H565H560V445V468H570Z" fill="#D9D9D9"/>
<path id="Vector 289" d="M1985.5 355L1985 465" stroke="#D9D9D9" stroke-width="10"/>
<path id="Vector 290" d="M2135.5 355L2135 465" stroke="#D9D9D9" stroke-width="10"/>
<path id="Subtract_14" fill-rule="evenodd" clip-rule="evenodd" d="M1562 990L1562 980H1535V990H1562ZM1608 990H1635V980H1608V990Z" fill="#D9D9D9"/>
<path id="Subtract_15" fill-rule="evenodd" clip-rule="evenodd" d="M625 355L625 460H635L635 355H625ZM625 275H635L635 240L625 240L625 275Z" fill="#D9D9D9"/>
</g>
<g id="Textes">
<path id="b_n_419" d="M2246.68 414V396.528H2249.9V403.704H2254.36V396.528H2257.58V414H2254.36V406.728H2249.9V414H2246.68ZM2271.24 414V410.544H2264.83L2264.57 408.168L2271.26 396.456H2274.24V407.784H2276.09V410.544H2274.24V414H2271.24ZM2267.78 407.784H2271.24V401.64L2267.78 407.784ZM2279.51 414V399.816L2277.25 400.488L2276.97 397.512L2280.47 396.408H2282.73V414H2279.51ZM2289.69 411.288C2290.55 411.288 2291.23 410.92 2291.73 410.184C2292.22 409.448 2292.5 408.392 2292.57 407.016C2291.78 407.656 2290.84 407.976 2289.73 407.976C2288.49 407.976 2287.42 407.504 2286.54 406.56C2285.68 405.616 2285.25 404.24 2285.25 402.432V402.36C2285.25 400.568 2285.74 399.104 2286.73 397.968C2287.74 396.832 2288.98 396.264 2290.45 396.264C2291.86 396.264 2293 396.712 2293.86 397.608C2294.52 398.296 2295.01 399.168 2295.33 400.224C2295.66 401.28 2295.83 402.704 2295.83 404.496V404.736C2295.83 407.936 2295.29 410.328 2294.2 411.912C2293.13 413.48 2291.61 414.264 2289.66 414.264C2288.27 414.264 2286.95 413.784 2285.7 412.824L2287.09 410.16C2288.02 410.912 2288.89 411.288 2289.69 411.288ZM2290.48 405.24C2291.15 405.24 2291.67 404.976 2292.04 404.448C2292.42 403.92 2292.61 403.176 2292.61 402.216V402.192C2292.61 401.232 2292.42 400.488 2292.04 399.96C2291.67 399.416 2291.15 399.144 2290.48 399.144C2289.81 399.144 2289.29 399.416 2288.92 399.96C2288.55 400.488 2288.37 401.232 2288.37 402.192V402.216C2288.37 403.176 2288.55 403.92 2288.92 404.448C2289.3 404.976 2289.82 405.24 2290.48 405.24Z" fill="#D9D9D9"/>
<path id="b_n_418" d="M2030.75 414V396.528H2033.97V403.704H2038.43V396.528H2041.65V414H2038.43V406.728H2033.97V414H2030.75ZM2055.31 414V410.544H2048.9L2048.64 408.168L2055.33 396.456H2058.31V407.784H2060.16V410.544H2058.31V414H2055.31ZM2051.85 407.784H2055.31V401.64L2051.85 407.784ZM2063.58 414V399.816L2061.32 400.488L2061.04 397.512L2064.54 396.408H2066.8V414H2063.58ZM2074.57 414.264C2073.02 414.264 2071.75 413.816 2070.76 412.92C2069.77 412.008 2069.27 410.792 2069.27 409.272V409.152C2069.27 407.248 2070.08 405.848 2071.69 404.952C2070.33 404.12 2069.65 402.832 2069.65 401.088V400.968C2069.65 399.592 2070.11 398.464 2071.02 397.584C2071.95 396.704 2073.13 396.264 2074.57 396.264C2076.01 396.264 2077.19 396.704 2078.1 397.584C2079.03 398.464 2079.49 399.592 2079.49 400.968V401.088C2079.49 402.816 2078.82 404.104 2077.48 404.952C2079.09 405.848 2079.9 407.248 2079.9 409.152V409.272C2079.9 410.792 2079.41 412.008 2078.41 412.92C2077.42 413.816 2076.14 414.264 2074.57 414.264ZM2073.21 403.008C2073.57 403.456 2074.03 403.68 2074.57 403.68C2075.12 403.68 2075.57 403.456 2075.94 403.008C2076.31 402.56 2076.49 401.968 2076.49 401.232V401.208C2076.49 400.472 2076.31 399.904 2075.94 399.504C2075.57 399.088 2075.12 398.88 2074.57 398.88C2074.03 398.88 2073.57 399.088 2073.21 399.504C2072.84 399.904 2072.65 400.472 2072.65 401.208V401.232C2072.65 401.968 2072.84 402.56 2073.21 403.008ZM2072.99 410.928C2073.41 411.392 2073.93 411.624 2074.57 411.624C2075.21 411.624 2075.74 411.392 2076.16 410.928C2076.57 410.464 2076.78 409.816 2076.78 408.984V408.936C2076.78 408.136 2076.57 407.504 2076.16 407.04C2075.74 406.576 2075.21 406.344 2074.57 406.344C2073.93 406.344 2073.41 406.576 2072.99 407.04C2072.59 407.504 2072.39 408.136 2072.39 408.936V408.984C2072.39 409.816 2072.59 410.464 2072.99 410.928Z" fill="#D9D9D9"/>
<path id="b_n_416" d="M2915.66 858V840.528H2918.87V847.704H2923.34V840.528H2926.55V858H2923.34V850.728H2918.87V858H2915.66ZM2940.22 858V854.544H2933.81L2933.54 852.168L2940.24 840.456H2943.22V851.784H2945.06V854.544H2943.22V858H2940.22ZM2936.76 851.784H2940.22V845.64L2936.76 851.784ZM2948.49 858V843.816L2946.23 844.488L2945.94 841.512L2949.45 840.408H2951.7V858H2948.49ZM2959.7 858.264C2958.29 858.264 2957.15 857.816 2956.29 856.92C2954.98 855.608 2954.32 853.312 2954.32 850.032V849.792C2954.32 846.592 2954.86 844.208 2955.93 842.64C2957.02 841.056 2958.54 840.264 2960.49 840.264C2961.82 840.264 2963.05 840.68 2964.18 841.512L2962.79 844.176C2962.09 843.552 2961.31 843.24 2960.46 843.24C2959.6 843.24 2958.91 843.624 2958.4 844.392C2957.9 845.16 2957.62 846.28 2957.56 847.752C2958.38 847.08 2959.34 846.744 2960.44 846.744C2961.67 846.744 2962.72 847.208 2963.58 848.136C2964.46 849.064 2964.9 850.416 2964.9 852.192V852.264C2964.9 854.024 2964.4 855.464 2963.39 856.584C2962.4 857.704 2961.17 858.264 2959.7 858.264ZM2958.11 854.592C2958.48 855.12 2959 855.384 2959.67 855.384C2960.34 855.384 2960.86 855.12 2961.23 854.592C2961.6 854.064 2961.78 853.344 2961.78 852.432V852.408C2961.78 851.496 2961.59 850.784 2961.21 850.272C2960.84 849.744 2960.33 849.48 2959.67 849.48C2959.02 849.48 2958.5 849.744 2958.11 850.272C2957.74 850.784 2957.56 851.496 2957.56 852.408V852.432C2957.56 853.344 2957.74 854.064 2958.11 854.592Z" fill="#D9D9D9"/>
<path id="b_n_415" d="M2916.65 520V502.528H2919.87V509.704H2924.33V502.528H2927.55V520H2924.33V512.728H2919.87V520H2916.65ZM2941.21 520V516.544H2934.8L2934.54 514.168L2941.23 502.456H2944.21V513.784H2946.06V516.544H2944.21V520H2941.21ZM2937.75 513.784H2941.21V507.64L2937.75 513.784ZM2949.48 520V505.816L2947.22 506.488L2946.93 503.512L2950.44 502.408H2952.69V520H2949.48ZM2959.42 520.264C2957.72 520.264 2956.23 519.688 2954.95 518.536L2956.56 516.016C2957.47 516.832 2958.39 517.24 2959.32 517.24C2960.06 517.24 2960.65 516.992 2961.1 516.496C2961.54 515.984 2961.77 515.296 2961.77 514.432V514.408C2961.77 513.576 2961.53 512.928 2961.05 512.464C2960.57 511.984 2959.95 511.744 2959.2 511.744C2958.61 511.744 2957.99 511.896 2957.35 512.2L2955.62 511.072L2956.1 502.528H2964.26V505.528H2958.7L2958.48 509.032C2959.02 508.888 2959.56 508.816 2960.09 508.816C2961.46 508.816 2962.62 509.272 2963.54 510.184C2964.49 511.08 2964.96 512.44 2964.96 514.264V514.336C2964.96 516.16 2964.44 517.608 2963.4 518.68C2962.36 519.736 2961.03 520.264 2959.42 520.264Z" fill="#D9D9D9"/>
<path id="b_n_411" d="M2632.9 141V123.528H2636.11V130.704H2640.58V123.528H2643.79V141H2640.58V133.728H2636.11V141H2632.9ZM2657.46 141V137.544H2651.05L2650.78 135.168L2657.48 123.456H2660.46V134.784H2662.3V137.544H2660.46V141H2657.46ZM2654 134.784H2657.46V128.64L2654 134.784ZM2665.72 141V126.816L2663.47 127.488L2663.18 124.512L2666.68 123.408H2668.94V141H2665.72ZM2673.67 141V126.816L2671.41 127.488L2671.13 124.512L2674.63 123.408H2676.89V141H2673.67Z" fill="#D9D9D9"/>
<path id="b_n_410" d="M2465.71 141V123.528H2468.93V130.704H2473.39V123.528H2476.61V141H2473.39V133.728H2468.93V141H2465.71ZM2490.27 141V137.544H2483.86L2483.6 135.168L2490.3 123.456H2493.27V134.784H2495.12V137.544H2493.27V141H2490.27ZM2486.82 134.784H2490.27V128.64L2486.82 134.784ZM2498.54 141V126.816L2496.28 127.488L2496 124.512L2499.5 123.408H2501.76V141H2498.54ZM2510.06 141.264C2508.25 141.264 2506.85 140.52 2505.86 139.032C2504.87 137.544 2504.37 135.392 2504.37 132.576V131.976C2504.37 129.144 2504.87 126.984 2505.86 125.496C2506.87 124.008 2508.28 123.264 2510.09 123.264C2511.88 123.264 2513.27 124.008 2514.26 125.496C2515.25 126.984 2515.75 129.136 2515.75 131.952V132.552C2515.75 135.384 2515.25 137.544 2514.24 139.032C2513.25 140.52 2511.85 141.264 2510.06 141.264ZM2510.09 138.288C2511.7 138.288 2512.51 136.352 2512.51 132.48V132.072C2512.51 130.056 2512.29 128.584 2511.84 127.656C2511.39 126.712 2510.8 126.24 2510.06 126.24C2508.45 126.24 2507.64 128.176 2507.64 132.048V132.456C2507.64 136.344 2508.45 138.288 2510.09 138.288Z" fill="#D9D9D9"/>
<path id="b_n_409" d="M1712.83 989V971.528H1716.05V978.704H1720.51V971.528H1723.73V989H1720.51V981.728H1716.05V989H1712.83ZM1737.39 989V985.544H1730.98L1730.72 983.168L1737.42 971.456H1740.39V982.784H1742.24V985.544H1740.39V989H1737.39ZM1733.94 982.784H1737.39V976.64L1733.94 982.784ZM1749.57 989.264C1747.76 989.264 1746.36 988.52 1745.37 987.032C1744.37 985.544 1743.88 983.392 1743.88 980.576V979.976C1743.88 977.144 1744.37 974.984 1745.37 973.496C1746.37 972.008 1747.78 971.264 1749.59 971.264C1751.38 971.264 1752.77 972.008 1753.77 973.496C1754.76 974.984 1755.25 977.136 1755.25 979.952V980.552C1755.25 983.384 1754.75 985.544 1753.74 987.032C1752.75 988.52 1751.36 989.264 1749.57 989.264ZM1749.59 986.288C1751.21 986.288 1752.01 984.352 1752.01 980.48V980.072C1752.01 978.056 1751.79 976.584 1751.34 975.656C1750.89 974.712 1750.3 974.24 1749.57 974.24C1747.95 974.24 1747.14 976.176 1747.14 980.048V980.456C1747.14 984.344 1747.96 986.288 1749.59 986.288ZM1761.53 986.288C1762.4 986.288 1763.08 985.92 1763.57 985.184C1764.07 984.448 1764.35 983.392 1764.41 982.016C1763.63 982.656 1762.69 982.976 1761.58 982.976C1760.33 982.976 1759.27 982.504 1758.39 981.56C1757.53 980.616 1757.09 979.24 1757.09 977.432V977.36C1757.09 975.568 1757.59 974.104 1758.58 972.968C1759.59 971.832 1760.83 971.264 1762.3 971.264C1763.71 971.264 1764.85 971.712 1765.71 972.608C1766.37 973.296 1766.85 974.168 1767.17 975.224C1767.51 976.28 1767.68 977.704 1767.68 979.496V979.736C1767.68 982.936 1767.13 985.328 1766.05 986.912C1764.97 988.48 1763.46 989.264 1761.51 989.264C1760.12 989.264 1758.8 988.784 1757.55 987.824L1758.94 985.16C1759.87 985.912 1760.73 986.288 1761.53 986.288ZM1762.33 980.24C1763 980.24 1763.52 979.976 1763.89 979.448C1764.27 978.92 1764.46 978.176 1764.46 977.216V977.192C1764.46 976.232 1764.27 975.488 1763.89 974.96C1763.52 974.416 1763 974.144 1762.33 974.144C1761.65 974.144 1761.13 974.416 1760.77 974.96C1760.4 975.488 1760.21 976.232 1760.21 977.192V977.216C1760.21 978.176 1760.4 978.92 1760.77 979.448C1761.15 979.976 1761.67 980.24 1762.33 980.24Z" fill="#D9D9D9"/>
<path id="b_n_408" d="M1712.9 764V746.528H1716.12V753.704H1720.58V746.528H1723.8V764H1720.58V756.728H1716.12V764H1712.9ZM1737.46 764V760.544H1731.05L1730.79 758.168L1737.49 746.456H1740.46V757.784H1742.31V760.544H1740.46V764H1737.46ZM1734.01 757.784H1737.46V751.64L1734.01 757.784ZM1749.64 764.264C1747.83 764.264 1746.43 763.52 1745.44 762.032C1744.44 760.544 1743.95 758.392 1743.95 755.576V754.976C1743.95 752.144 1744.44 749.984 1745.44 748.496C1746.44 747.008 1747.85 746.264 1749.66 746.264C1751.45 746.264 1752.84 747.008 1753.84 748.496C1754.83 749.984 1755.32 752.136 1755.32 754.952V755.552C1755.32 758.384 1754.82 760.544 1753.81 762.032C1752.82 763.52 1751.43 764.264 1749.64 764.264ZM1749.66 761.288C1751.28 761.288 1752.08 759.352 1752.08 755.48V755.072C1752.08 753.056 1751.86 751.584 1751.41 750.656C1750.96 749.712 1750.37 749.24 1749.64 749.24C1748.02 749.24 1747.21 751.176 1747.21 755.048V755.456C1747.21 759.344 1748.03 761.288 1749.66 761.288ZM1762.42 764.264C1760.87 764.264 1759.6 763.816 1758.6 762.92C1757.61 762.008 1757.12 760.792 1757.12 759.272V759.152C1757.12 757.248 1757.92 755.848 1759.54 754.952C1758.18 754.12 1757.5 752.832 1757.5 751.088V750.968C1757.5 749.592 1757.96 748.464 1758.87 747.584C1759.8 746.704 1760.98 746.264 1762.42 746.264C1763.86 746.264 1765.04 746.704 1765.95 747.584C1766.88 748.464 1767.34 749.592 1767.34 750.968V751.088C1767.34 752.816 1766.67 754.104 1765.32 754.952C1766.94 755.848 1767.75 757.248 1767.75 759.152V759.272C1767.75 760.792 1767.25 762.008 1766.26 762.92C1765.27 763.816 1763.99 764.264 1762.42 764.264ZM1761.05 753.008C1761.42 753.456 1761.88 753.68 1762.42 753.68C1762.96 753.68 1763.42 753.456 1763.79 753.008C1764.16 752.56 1764.34 751.968 1764.34 751.232V751.208C1764.34 750.472 1764.16 749.904 1763.79 749.504C1763.42 749.088 1762.96 748.88 1762.42 748.88C1761.88 748.88 1761.42 749.088 1761.05 749.504C1760.68 749.904 1760.5 750.472 1760.5 751.208V751.232C1760.5 751.968 1760.68 752.56 1761.05 753.008ZM1760.84 760.928C1761.25 761.392 1761.78 761.624 1762.42 761.624C1763.06 761.624 1763.59 761.392 1764 760.928C1764.42 760.464 1764.63 759.816 1764.63 758.984V758.936C1764.63 758.136 1764.42 757.504 1764 757.04C1763.59 756.576 1763.06 756.344 1762.42 756.344C1761.78 756.344 1761.25 756.576 1760.84 757.04C1760.44 757.504 1760.24 758.136 1760.24 758.936V758.984C1760.24 759.816 1760.44 760.464 1760.84 760.928Z" fill="#D9D9D9"/>
<path id="b_n_407" d="M1343.58 999V981.528H1346.8V988.704H1351.26V981.528H1354.48V999H1351.26V991.728H1346.8V999H1343.58ZM1368.14 999V995.544H1361.73L1361.47 993.168L1368.17 981.456H1371.14V992.784H1372.99V995.544H1371.14V999H1368.14ZM1364.69 992.784H1368.14V986.64L1364.69 992.784ZM1380.32 999.264C1378.51 999.264 1377.11 998.52 1376.12 997.032C1375.12 995.544 1374.63 993.392 1374.63 990.576V989.976C1374.63 987.144 1375.12 984.984 1376.12 983.496C1377.12 982.008 1378.53 981.264 1380.34 981.264C1382.13 981.264 1383.52 982.008 1384.52 983.496C1385.51 984.984 1386 987.136 1386 989.952V990.552C1386 993.384 1385.5 995.544 1384.49 997.032C1383.5 998.52 1382.11 999.264 1380.32 999.264ZM1380.34 996.288C1381.96 996.288 1382.76 994.352 1382.76 990.48V990.072C1382.76 988.056 1382.54 986.584 1382.09 985.656C1381.64 984.712 1381.05 984.24 1380.32 984.24C1378.7 984.24 1377.89 986.176 1377.89 990.048V990.456C1377.89 994.344 1378.71 996.288 1380.34 996.288ZM1388.21 999L1393.66 984.624H1387.52V981.528H1396.97V983.904L1391.6 999H1388.21Z" fill="#D9D9D9"/>
<path id="b_n_406" d="M1712.81 509V491.528H1716.03V498.704H1720.49V491.528H1723.71V509H1720.49V501.728H1716.03V509H1712.81ZM1737.37 509V505.544H1730.96L1730.7 503.168L1737.39 491.456H1740.37V502.784H1742.22V505.544H1740.37V509H1737.37ZM1733.91 502.784H1737.37V496.64L1733.91 502.784ZM1749.54 509.264C1747.73 509.264 1746.33 508.52 1745.34 507.032C1744.35 505.544 1743.85 503.392 1743.85 500.576V499.976C1743.85 497.144 1744.35 494.984 1745.34 493.496C1746.35 492.008 1747.76 491.264 1749.57 491.264C1751.36 491.264 1752.75 492.008 1753.74 493.496C1754.73 494.984 1755.23 497.136 1755.23 499.952V500.552C1755.23 503.384 1754.73 505.544 1753.72 507.032C1752.73 508.52 1751.33 509.264 1749.54 509.264ZM1749.57 506.288C1751.18 506.288 1751.99 504.352 1751.99 500.48V500.072C1751.99 498.056 1751.77 496.584 1751.32 495.656C1750.87 494.712 1750.28 494.24 1749.54 494.24C1747.93 494.24 1747.12 496.176 1747.12 500.048V500.456C1747.12 504.344 1747.93 506.288 1749.57 506.288ZM1762.54 509.264C1761.14 509.264 1760 508.816 1759.14 507.92C1757.82 506.608 1757.17 504.312 1757.17 501.032V500.792C1757.17 497.592 1757.7 495.208 1758.78 493.64C1759.86 492.056 1761.38 491.264 1763.34 491.264C1764.66 491.264 1765.9 491.68 1767.03 492.512L1765.64 495.176C1764.94 494.552 1764.16 494.24 1763.31 494.24C1762.45 494.24 1761.76 494.624 1761.25 495.392C1760.75 496.16 1760.47 497.28 1760.41 498.752C1761.22 498.08 1762.18 497.744 1763.29 497.744C1764.52 497.744 1765.57 498.208 1766.43 499.136C1767.31 500.064 1767.75 501.416 1767.75 503.192V503.264C1767.75 505.024 1767.25 506.464 1766.24 507.584C1765.25 508.704 1764.02 509.264 1762.54 509.264ZM1760.96 505.592C1761.33 506.12 1761.85 506.384 1762.52 506.384C1763.19 506.384 1763.71 506.12 1764.08 505.592C1764.45 505.064 1764.63 504.344 1764.63 503.432V503.408C1764.63 502.496 1764.44 501.784 1764.06 501.272C1763.69 500.744 1763.18 500.48 1762.52 500.48C1761.86 500.48 1761.34 500.744 1760.96 501.272C1760.59 501.784 1760.41 502.496 1760.41 503.408V503.432C1760.41 504.344 1760.59 505.064 1760.96 505.592Z" fill="#D9D9D9"/>
<path id="b_n_405" d="M1342.8 624V606.528H1346.02V613.704H1350.48V606.528H1353.7V624H1350.48V616.728H1346.02V624H1342.8ZM1367.36 624V620.544H1360.95L1360.69 618.168L1367.39 606.456H1370.36V617.784H1372.21V620.544H1370.36V624H1367.36ZM1363.91 617.784H1367.36V611.64L1363.91 617.784ZM1379.53 624.264C1377.73 624.264 1376.33 623.52 1375.33 622.032C1374.34 620.544 1373.85 618.392 1373.85 615.576V614.976C1373.85 612.144 1374.34 609.984 1375.33 608.496C1376.34 607.008 1377.75 606.264 1379.56 606.264C1381.35 606.264 1382.74 607.008 1383.73 608.496C1384.73 609.984 1385.22 612.136 1385.22 614.952V615.552C1385.22 618.384 1384.72 620.544 1383.71 622.032C1382.72 623.52 1381.33 624.264 1379.53 624.264ZM1379.56 621.288C1381.17 621.288 1381.98 619.352 1381.98 615.48V615.072C1381.98 613.056 1381.76 611.584 1381.31 610.656C1380.86 609.712 1380.27 609.24 1379.53 609.24C1377.92 609.24 1377.11 611.176 1377.11 615.048V615.456C1377.11 619.344 1377.93 621.288 1379.56 621.288ZM1391.26 624.264C1389.57 624.264 1388.08 623.688 1386.8 622.536L1388.41 620.016C1389.32 620.832 1390.24 621.24 1391.17 621.24C1391.9 621.24 1392.5 620.992 1392.94 620.496C1393.39 619.984 1393.62 619.296 1393.62 618.432V618.408C1393.62 617.576 1393.38 616.928 1392.9 616.464C1392.42 615.984 1391.8 615.744 1391.05 615.744C1390.46 615.744 1389.84 615.896 1389.2 616.2L1387.47 615.072L1387.95 606.528H1396.11V609.528H1390.54L1390.33 613.032C1390.87 612.888 1391.41 612.816 1391.94 612.816C1393.31 612.816 1394.46 613.272 1395.39 614.184C1396.34 615.08 1396.81 616.44 1396.81 618.264V618.336C1396.81 620.16 1396.29 621.608 1395.25 622.68C1394.21 623.736 1392.88 624.264 1391.26 624.264Z" fill="#D9D9D9"/>
<path id="b_n_402" d="M217.874 141V123.528H221.09V130.704H225.554V123.528H228.77V141H225.554V133.728H221.09V141H217.874ZM242.432 141V137.544H236.024L235.76 135.168L242.456 123.456H245.432V134.784H247.28V137.544H245.432V141H242.432ZM238.976 134.784H242.432V128.64L238.976 134.784ZM254.605 141.264C252.797 141.264 251.397 140.52 250.405 139.032C249.413 137.544 248.917 135.392 248.917 132.576V131.976C248.917 129.144 249.413 126.984 250.405 125.496C251.413 124.008 252.821 123.264 254.629 123.264C256.421 123.264 257.813 124.008 258.805 125.496C259.797 126.984 260.293 129.136 260.293 131.952V132.552C260.293 135.384 259.789 137.544 258.781 139.032C257.789 140.52 256.397 141.264 254.605 141.264ZM254.629 138.288C256.245 138.288 257.053 136.352 257.053 132.48V132.072C257.053 130.056 256.829 128.584 256.381 127.656C255.933 126.712 255.341 126.24 254.605 126.24C252.989 126.24 252.181 128.176 252.181 132.048V132.456C252.181 136.344 252.997 138.288 254.629 138.288ZM262.043 141V138.336L266.483 132.36C267.235 131.336 267.747 130.536 268.019 129.96C268.307 129.384 268.451 128.824 268.451 128.28C268.451 127.688 268.267 127.216 267.899 126.864C267.531 126.512 267.075 126.336 266.531 126.336C265.651 126.336 264.723 126.936 263.747 128.136L261.875 125.904C263.219 124.144 264.875 123.264 266.843 123.264C268.267 123.264 269.427 123.688 270.323 124.536C271.235 125.368 271.691 126.52 271.691 127.992V128.04C271.691 129 271.499 129.88 271.115 130.68C270.747 131.464 270.035 132.552 268.979 133.944L265.907 137.976H271.571V141H262.043Z" fill="#D9D9D9"/>
<path id="b_n_401" d="M292.643 819V801.528H295.859V808.704H300.323V801.528H303.539V819H300.323V811.728H295.859V819H292.643ZM317.201 819V815.544H310.793L310.529 813.168L317.225 801.456H320.201V812.784H322.049V815.544H320.201V819H317.201ZM313.745 812.784H317.201V806.64L313.745 812.784ZM329.375 819.264C327.567 819.264 326.167 818.52 325.175 817.032C324.183 815.544 323.687 813.392 323.687 810.576V809.976C323.687 807.144 324.183 804.984 325.175 803.496C326.183 802.008 327.591 801.264 329.399 801.264C331.191 801.264 332.583 802.008 333.575 803.496C334.567 804.984 335.063 807.136 335.063 809.952V810.552C335.063 813.384 334.559 815.544 333.551 817.032C332.559 818.52 331.167 819.264 329.375 819.264ZM329.399 816.288C331.015 816.288 331.823 814.352 331.823 810.48V810.072C331.823 808.056 331.599 806.584 331.151 805.656C330.703 804.712 330.111 804.24 329.375 804.24C327.759 804.24 326.951 806.176 326.951 810.048V810.456C326.951 814.344 327.767 816.288 329.399 816.288ZM338.924 819V804.816L336.668 805.488L336.38 802.512L339.884 801.408H342.14V819H338.924Z" fill="#D9D9D9"/>
</g>
<g id="Entrances">
<circle id="28" cx="920" cy="305" r="10" fill="#9CBBFF"/>
<circle id="27" cx="380" cy="260" r="10" fill="#9CBBFF"/>
<circle id="26" cx="330" cy="205" r="10" fill="#9CBBFF"/>
<circle id="25" cx="565" cy="491" r="10" fill="#9CBBFF"/>
<circle id="23" cx="1477" cy="260" r="10" fill="#9CBBFF"/>
<circle id="22" cx="1630" cy="513" r="10" fill="#9CBBFF"/>
<circle id="21" cx="1530" cy="513" r="10" fill="#9CBBFF"/>
<circle id="20" cx="1530" cy="933" r="10" fill="#9CBBFF"/>
<circle id="19" cx="1630" cy="933" r="10" fill="#9CBBFF"/>
<circle id="29" cx="1585" cy="985" r="10" fill="#9CBBFF"/>
<circle id="18" cx="1630" cy="777" r="10" fill="#9CBBFF"/>
<circle id="17" cx="1580" cy="260" r="10" fill="#9CBBFF"/>
<circle id="16" cx="1937" cy="350" r="10" fill="#9CBBFF"/>
<circle id="15" cx="2057" cy="350" r="10" fill="#9CBBFF"/>
<circle id="14" cx="2253" cy="350" r="10" fill="#9CBBFF"/>
<circle id="13" cx="2493" cy="350" r="10" fill="#9CBBFF"/>
<circle id="12" cx="2493" cy="260" r="10" fill="#9CBBFF"/>
<circle id="11" cx="2647" cy="260" r="10" fill="#9CBBFF"/>
<circle id="10" cx="2830" cy="602" r="10" fill="#9CBBFF"/>
<circle id="9" cx="2830" cy="737" r="10" fill="#9CBBFF"/>
<circle id="8" cx="2740" cy="807" r="10" fill="#9CBBFF"/>
<circle id="7" cx="2740" cy="933" r="10" fill="#9CBBFF"/>
<circle id="5" cx="2780" cy="260" r="10" fill="#9CBBFF"/>
<circle id="4" cx="2935" cy="260" r="10" fill="#9CBBFF"/>
<circle id="3" cx="2859" cy="260" r="10" fill="#9CBBFF"/>
<circle id="2" cx="3011" cy="260" r="10" fill="#9CBBFF"/>
<circle id="1" cx="1271" cy="260" r="10" fill="#9CBBFF"/>
</g>
<g id="Icons">
<g id="Stair">
<g id="Stair frame">
<path id="Vector 152" d="M1782 57H1757V72H1742V87H1727V102H1702" stroke="#9CD9BC" stroke-width="5" stroke-linecap="round" stroke-linejoin="round"/>
<path id="Vector 154" d="M1714 57H1729M1729 57L1726 71M1729 57L1702 78" stroke="#9CD9BC" stroke-width="3" stroke-linecap="round" stroke-linejoin="round"/>
<path id="Vector 155" d="M1770 102H1755M1755 102L1758 88M1755 102L1782 81" stroke="#9CD9BC" stroke-width="3" stroke-linecap="round" stroke-linejoin="round"/>
</g>
</g>
<g id="Elevator">
<g id="Vector">
<path d="M2874 212L2868 206L2862 212H2874Z" fill="#A091F8"/>
<path d="M2874 216L2868 222L2862 216H2874Z" fill="#A091F8"/>
<path d="M2856 212C2856 209 2854 206 2851 206H2847C2844 206 2842 209 2842 212V217C2842 219 2843.5 220.5 2845 220.5V230C2845 231.6 2846.33 232 2847 232H2851C2851.67 232 2853 231.6 2853 230V220.5C2854.5 220.5 2856 219 2856 217V212Z" fill="#A091F8"/>
<path d="M2853 199C2853 201.209 2851.21 203 2849 203C2846.79 203 2845 201.209 2845 199C2845 196.791 2846.79 195 2849 195C2851.21 195 2853 196.791 2853 199Z" fill="#A091F8"/>
</g>
<path id="Vector 201" d="M2845.5 242.5H2833.5V187.5H2882.5V242.5H2870.5" stroke="#A091F8" stroke-width="5" stroke-linecap="round" stroke-linejoin="round"/>
</g>
<g id="Elevator_2">
<g id="Vector_2">
<path d="M2951 212L2945 206L2939 212H2951Z" fill="#A091F8"/>
<path d="M2951 216L2945 222L2939 216H2951Z" fill="#A091F8"/>
<path d="M2933 212C2933 209 2931 206 2928 206H2924C2921 206 2919 209 2919 212V217C2919 219 2920.5 220.5 2922 220.5V230C2922 231.6 2923.33 232 2924 232H2928C2928.67 232 2930 231.6 2930 230V220.5C2931.5 220.5 2933 219 2933 217V212Z" fill="#A091F8"/>
<path d="M2930 199C2930 201.209 2928.21 203 2926 203C2923.79 203 2922 201.209 2922 199C2922 196.791 2923.79 195 2926 195C2928.21 195 2930 196.791 2930 199Z" fill="#A091F8"/>
</g>
<path id="Vector 201_2" d="M2922.5 242.5H2910.5V187.5H2959.5V242.5H2947.5" stroke="#A091F8" stroke-width="5" stroke-linecap="round" stroke-linejoin="round"/>
</g>
<g id="Elevator_3">
<g id="Vector_3">
<path d="M3027 212L3021 206L3015 212H3027Z" fill="#A091F8"/>
<path d="M3027 216L3021 222L3015 216H3027Z" fill="#A091F8"/>
<path d="M3009 212C3009 209 3007 206 3004 206H3000C2997 206 2995 209 2995 212V217C2995 219 2996.5 220.5 2998 220.5V230C2998 231.6 2999.33 232 3000 232H3004C3004.67 232 3006 231.6 3006 230V220.5C3007.5 220.5 3009 219 3009 217V212Z" fill="#A091F8"/>
<path d="M3006 199C3006 201.209 3004.21 203 3002 203C2999.79 203 2998 201.209 2998 199C2998 196.791 2999.79 195 3002 195C3004.21 195 3006 196.791 3006 199Z" fill="#A091F8"/>
</g>
<path id="Vector 201_3" d="M2998.5 242.5H2986.5V187.5H3035.5V242.5H3023.5" stroke="#A091F8" stroke-width="5" stroke-linecap="round" stroke-linejoin="round"/>
</g>
<g id="Woman">
<g id="Group 5">
<path id="Vector 200" d="M1295.5 134L1304 155.5H1276L1284.5 134" stroke="#F783CB" stroke-width="5" stroke-linecap="round" stroke-linejoin="round"/>
<circle id="Ellipse 9" cx="1290" cy="116" r="8" stroke="#F783CB" stroke-width="5" stroke-linecap="round" stroke-linejoin="round"/>
</g>
</g>
<g id="Men">
<g id="Group 6">
<path id="Vector 200_2" d="M1455.5 155.5L1464 134H1436L1444.5 155.5" stroke="#9CBBFF" stroke-width="5" stroke-linecap="round" stroke-linejoin="round"/>
<circle id="Ellipse 9_2" cx="1450" cy="116" r="8" stroke="#9CBBFF" stroke-width="5" stroke-linecap="round" stroke-linejoin="round"/>
</g>
</g>
<g id="Stair_2">
<g id="Stair frame_2">
<path id="Vector 152_2" d="M2975 65H2950V80H2935V95H2920V110H2895" stroke="#9CD9BC" stroke-width="5" stroke-linecap="round" stroke-linejoin="round"/>
<path id="Vector 154_2" d="M2907 65H2922M2922 65L2919 79M2922 65L2895 86" stroke="#9CD9BC" stroke-width="3" stroke-linecap="round" stroke-linejoin="round"/>
<path id="Vector 155_2" d="M2963 110H2948M2948 110L2951 96M2948 110L2975 89" stroke="#9CD9BC" stroke-width="3" stroke-linecap="round" stroke-linejoin="round"/>
</g>
</g>
<g id="Stair_3">
<g id="Stair frame_3">
<path id="Vector 152_3" d="M570 50H545V65H530V80H515V95H490" stroke="#9CD9BC" stroke-width="5" stroke-linecap="round" stroke-linejoin="round"/>
<path id="Vector 154_3" d="M502 50H517M517 50L514 64M517 50L490 71" stroke="#9CD9BC" stroke-width="3" stroke-linecap="round" stroke-linejoin="round"/>
<path id="Vector 155_3" d="M558 95H543M543 95L546 81M543 95L570 74" stroke="#9CD9BC" stroke-width="3" stroke-linecap="round" stroke-linejoin="round"/>
</g>
</g>
<g id="Doors">
<path id="Vector 301" d="M2775.5 269L2754.5 262H2750" stroke="#A5A5A7" stroke-width="6"/>
<path id="Vector 302" d="M2784.5 269L2805.5 262H2810" stroke="#A5A5A7" stroke-width="6"/>
</g>
<g id="Doors_2">
<path id="Vector 301_2" d="M1573.25 269L1541.75 262H1535" stroke="#A5A5A7" stroke-width="6"/>
<path id="Vector 302_2" d="M1586.75 269L1618.25 262H1625" stroke="#A5A5A7" stroke-width="6"/>
</g>
<g id="Coworking">
<path id="Vector 287" d="M900.5 358.5L894.5 369H920H945.5L939.5 358.5M900.5 358.5H939.5M900.5 358.5V348.5M939.5 358.5V350" stroke="#63E3D4" stroke-width="5" stroke-linecap="round" stroke-linejoin="round"/>
<path id="Vector 288" d="M925 337.5H915" stroke="#63E3D4" stroke-width="3" stroke-linecap="round" stroke-linejoin="round"/>
<rect id="Rectangle 60" x="900.5" y="331.5" width="39" height="27" rx="4.5" stroke="#63E3D4" stroke-width="5"/>
</g>
<g id="Doors_3">
<path id="Vector 301_3" d="M373.25 269L341.75 262H335" stroke="#A5A5A7" stroke-width="6"/>
<path id="Vector 302_3" d="M386.75 269L418.25 262H425" stroke="#A5A5A7" stroke-width="6"/>
</g>
<g id="Doors_4">
<path id="Vector 301_4" d="M1219 299.75L1212 275.25L1212 270" stroke="#A5A5A7" stroke-width="6"/>
<path id="Vector 302_4" d="M1219 310.25L1212 334.75L1212 340" stroke="#A5A5A7" stroke-width="6"/>
</g>
<g id="Doors_5">
<path id="Vector 301_5" d="M621 321L628 349L628 355" stroke="#A5A5A7" stroke-width="6"/>
<path id="Vector 302_5" d="M621 309L628 281L628 275" stroke="#A5A5A7" stroke-width="6"/>
</g>
<g id="Book">
<g id="Group 29">
<path id="Vector 328" d="M2923 887H2929" stroke="#F0B771" stroke-width="5" stroke-linecap="round" stroke-linejoin="round"/>
<rect id="Rectangle 243" x="2920.5" y="875.5" width="11" height="49" rx="4.5" stroke="#F0B771" stroke-width="5" stroke-linecap="round" stroke-linejoin="round"/>
<path id="Vector 332" d="M2923 913H2929" stroke="#F0B771" stroke-width="5" stroke-linecap="round" stroke-linejoin="round"/>
</g>
<g id="Group 27">
<path id="Vector 330" d="M2934 887H2940" stroke="#F0B771" stroke-width="5" stroke-linecap="round" stroke-linejoin="round"/>
<path id="Vector 331" d="M2934 913H2940" stroke="#F0B771" stroke-width="5" stroke-linecap="round" stroke-linejoin="round"/>
<rect id="Rectangle 244" x="2931.5" y="875.5" width="11" height="49" rx="4.5" stroke="#F0B771" stroke-width="5" stroke-linecap="round" stroke-linejoin="round"/>
</g>
<g id="Group 30">
<path id="Vector 330_2" d="M2950 886.553L2955.8 885" stroke="#F0B771" stroke-width="5" stroke-linecap="round" stroke-linejoin="round"/>
<path id="Vector 331_2" d="M2957 912.553L2962.8 911" stroke="#F0B771" stroke-width="5" stroke-linecap="round" stroke-linejoin="round"/>
<rect id="Rectangle 244_2" x="2944.76" y="877.578" width="11" height="49.6774" rx="4.5" transform="rotate(-15 2944.76 877.578)" stroke="#F0B771" stroke-width="5" stroke-linecap="round" stroke-linejoin="round"/>
</g>
</g>
</g>
</g>
<defs>
<clipPath id="clip0_2013_195">
<rect width="3055" height="1105" fill="white"/>
</clipPath>
</defs>
</svg>
