<svg width="3055" height="1105" viewBox="0 0 3055 1105" fill="none" xmlns="http://www.w3.org/2000/svg">
<g id="N-5" clip-path="url(#clip0_2069_395)">
<g id="Spaces">
<rect id="!n-5-4" x="1740.5" y="152" width="110" height="110" fill="#3B3C41"/>
<rect id="!n-5-3" x="1630.5" y="152" width="110" height="110" fill="#3B3C41"/>
<rect id="!n-5-2" x="530.5" y="152" width="100" height="110" fill="#3B3C41"/>
<rect id="!n-5-1" x="430.5" y="152" width="100" height="110" fill="#3B3C41"/>
<rect id="!n-502" x="5.5" y="7" width="325" height="255" fill="#3B3C41"/>
<path id="!n-2-stair-3" opacity="0.2" d="M330.5 7H630.5V152H430.5V262H330.5V7Z" fill="#9CD9BC"/>
<path id="n-5-stair-1" opacity="0.2" d="M2740.5 7H3050.5V172H2820.5V262H2740.5V7Z" fill="#9CD9BC"/>
<path id="n-5-stair-2" opacity="0.2" d="M1530.5 7H1850.5V152H1630.5V262H1530.5V7Z" fill="#9CD9BC"/>
<rect id="n-5-lift-3" opacity="0.2" x="2973.5" y="172" width="77" height="90" fill="#A091F8"/>
<rect id="n-5-lift-2" opacity="0.2" x="2897.5" y="172" width="76" height="90" fill="#A091F8"/>
<rect id="n-5-lift-1" opacity="0.2" x="2820.5" y="172" width="77" height="90" fill="#A091F8"/>
<rect id="n-519" x="1850.5" y="242" width="560" height="220" fill="#3B3C41"/>
<rect id="n-518" x="2410.5" y="7" width="330" height="255" fill="#3B3C41"/>
<rect id="n-517" x="2410.5" y="352" width="330" height="275" fill="#3B3C41"/>
<rect id="n-516" x="2410.5" y="627" width="330" height="245" fill="#3B3C41"/>
<rect id="n-515" x="2410.5" y="872" width="330" height="230" fill="#3B3C41"/>
<rect id="n-514" x="2830.5" y="872" width="220" height="230" fill="#3B3C41"/>
<rect id="n-513" x="2830.5" y="627" width="220" height="245" fill="#3B3C41"/>
<rect id="n-512" x="2830.5" y="352" width="220" height="275" fill="#3B3C41"/>
<rect id="n-508" x="1630.5" y="652" width="220" height="210" fill="#3B3C41"/>
<rect id="n-509" x="1630.5" y="352" width="220" height="300" fill="#3B3C41"/>
<rect id="n-507" x="1630.5" y="862" width="220" height="240" fill="#3B3C41"/>
<rect id="n-506" x="1210.5" y="862" width="320" height="240" fill="#3B3C41"/>
<rect id="n-505" x="1210.5" y="352" width="320" height="510" fill="#3B3C41"/>
<rect id="n-504" x="1370.5" y="7" width="160" height="255" fill="#3B3C41"/>
<rect id="n-503" x="1210.5" y="7" width="160" height="255" fill="#3B3C41"/>
<g id="Mask group">
<mask id="mask0_2069_395" style="mask-type:alpha" maskUnits="userSpaceOnUse" x="-2886" y="-370" width="6198" height="2038">
<g id="Frame 1">
<g id="Group 27">
<path id="Vector 337" d="M24 -362L-1998 1660" stroke="#FF5F5F" stroke-opacity="0.5" stroke-width="20"/>
<path id="Vector 338" d="M104 -362L-1918 1660" stroke="#FF5F5F" stroke-opacity="0.5" stroke-width="20"/>
<path id="Vector 339" d="M184 -362L-1838 1660" stroke="#FF5F5F" stroke-opacity="0.5" stroke-width="20"/>
<path id="Vector 340" d="M264 -362L-1758 1660" stroke="#FF5F5F" stroke-opacity="0.5" stroke-width="20"/>
<path id="Vector 341" d="M344 -362L-1678 1660" stroke="#FF5F5F" stroke-opacity="0.5" stroke-width="20"/>
<path id="Vector 342" d="M424 -362L-1598 1660" stroke="#FF5F5F" stroke-opacity="0.5" stroke-width="20"/>
<path id="Vector 343" d="M504 -362L-1518 1660" stroke="#FF5F5F" stroke-opacity="0.5" stroke-width="20"/>
<path id="Vector 344" d="M584 -362L-1438 1660" stroke="#FF5F5F" stroke-opacity="0.5" stroke-width="20"/>
<path id="Vector 345" d="M664 -362L-1358 1660" stroke="#FF5F5F" stroke-opacity="0.5" stroke-width="20"/>
<path id="Vector 346" d="M744 -362L-1278 1660" stroke="#FF5F5F" stroke-opacity="0.5" stroke-width="20"/>
<path id="Vector 347" d="M824 -362L-1198 1660" stroke="#FF5F5F" stroke-opacity="0.5" stroke-width="20"/>
<path id="Vector 348" d="M904 -362L-1118 1660" stroke="#FF5F5F" stroke-opacity="0.5" stroke-width="20"/>
<path id="Vector 349" d="M984 -362L-1038 1660" stroke="#FF5F5F" stroke-opacity="0.5" stroke-width="20"/>
<path id="Vector 350" d="M1064 -362L-958 1660" stroke="#FF5F5F" stroke-opacity="0.5" stroke-width="20"/>
<path id="Vector 351" d="M1144 -362L-878 1660" stroke="#FF5F5F" stroke-opacity="0.5" stroke-width="20"/>
<path id="Vector 352" d="M1224 -362L-798 1660" stroke="#FF5F5F" stroke-opacity="0.5" stroke-width="20"/>
<path id="Vector 353" d="M1304 -362L-718 1660" stroke="#FF5F5F" stroke-opacity="0.5" stroke-width="20"/>
<path id="Vector 354" d="M1384 -362L-638 1660" stroke="#FF5F5F" stroke-opacity="0.5" stroke-width="20"/>
<path id="Vector 355" d="M1464 -362L-558 1660" stroke="#FF5F5F" stroke-opacity="0.5" stroke-width="20"/>
<path id="Vector 356" d="M1544 -362L-478 1660" stroke="#FF5F5F" stroke-opacity="0.5" stroke-width="20"/>
<path id="Vector 357" d="M1624 -362L-398 1660" stroke="#FF5F5F" stroke-opacity="0.5" stroke-width="20"/>
<path id="Vector 358" d="M1704 -362L-318 1660" stroke="#FF5F5F" stroke-opacity="0.5" stroke-width="20"/>
<path id="Vector 359" d="M1784 -362L-238 1660" stroke="#FF5F5F" stroke-opacity="0.5" stroke-width="20"/>
<path id="Vector 360" d="M1864 -362L-158 1660" stroke="#FF5F5F" stroke-opacity="0.5" stroke-width="20"/>
<path id="Vector 361" d="M1944 -362L-78 1660" stroke="#FF5F5F" stroke-opacity="0.5" stroke-width="20"/>
<path id="Vector 362" d="M2024 -362L2 1660" stroke="#FF5F5F" stroke-opacity="0.5" stroke-width="20"/>
<path id="Vector 363" d="M2104 -362L82 1660" stroke="#FF5F5F" stroke-opacity="0.5" stroke-width="20"/>
<path id="Vector 364" d="M2184 -362L162 1660" stroke="#FF5F5F" stroke-opacity="0.5" stroke-width="20"/>
<path id="Vector 365" d="M2264 -362L242 1660" stroke="#FF5F5F" stroke-opacity="0.5" stroke-width="20"/>
<path id="Vector 366" d="M2344 -362L322 1660" stroke="#FF5F5F" stroke-opacity="0.5" stroke-width="20"/>
<path id="Vector 367" d="M2424 -362L402 1660" stroke="#FF5F5F" stroke-opacity="0.5" stroke-width="20"/>
<path id="Vector 368" d="M2504 -362L482 1660" stroke="#FF5F5F" stroke-opacity="0.5" stroke-width="20"/>
<path id="Vector 369" d="M2584 -362L562 1660" stroke="#FF5F5F" stroke-opacity="0.5" stroke-width="20"/>
<path id="Vector 370" d="M2664 -362L642 1660" stroke="#FF5F5F" stroke-opacity="0.5" stroke-width="20"/>
<path id="Vector 371" d="M2744 -362L722 1660" stroke="#FF5F5F" stroke-opacity="0.5" stroke-width="20"/>
<path id="Vector 372" d="M2824 -362L802 1660" stroke="#FF5F5F" stroke-opacity="0.5" stroke-width="20"/>
<path id="Vector 373" d="M2904 -362L882 1660" stroke="#FF5F5F" stroke-opacity="0.5" stroke-width="20"/>
<path id="Vector 374" d="M2984 -362L962 1660" stroke="#FF5F5F" stroke-opacity="0.5" stroke-width="20"/>
<path id="Vector 375" d="M3064 -362L1042 1660" stroke="#FF5F5F" stroke-opacity="0.5" stroke-width="20"/>
<path id="Vector 376" d="M3144 -362L1122 1660" stroke="#FF5F5F" stroke-opacity="0.5" stroke-width="20"/>
<path id="Vector 377" d="M3224 -362L1202 1660" stroke="#FF5F5F" stroke-opacity="0.5" stroke-width="20"/>
<path id="Vector 378" d="M3304 -362L1282 1660" stroke="#FF5F5F" stroke-opacity="0.5" stroke-width="20"/>
</g>
</g>
</mask>
<g mask="url(#mask0_2069_395)">
<path id="Rectangle 243" d="M5.5 7H630.5V242H1210.5V462H630.5V1101H5.5V7Z" fill="#FF5F5F" fill-opacity="0.5"/>
</g>
</g>
</g>
<g id="Walls">
<path id="Vneskniy kontur" d="M630 5H5V1100H630V460H1210V1100H1850V460H2410V1100H3050V5H2410V240H1850V5H1210V240H630V5Z" stroke="#D9D9D9" stroke-width="10"/>
<path id="Vector 150" d="M1210 340L1210 350" stroke="#D9D9D9" stroke-width="10"/>
<path id="Vector 140" d="M1630 650H1850" stroke="#D9D9D9" stroke-width="10"/>
<path id="Vector 141" d="M1630 860H1850" stroke="#D9D9D9" stroke-width="10"/>
<path id="Vector 144" d="M1210 860H1530" stroke="#D9D9D9" stroke-width="10"/>
<path id="Vector 146" d="M1370 260V5" stroke="#D9D9D9" stroke-width="10"/>
<path id="Vector 149" d="M1740 150V260" stroke="#D9D9D9" stroke-width="10"/>
<path id="Subtract" fill-rule="evenodd" clip-rule="evenodd" d="M1535 5V260V265H1530H1500V255H1525V5H1535ZM1454 255V265H1294V255H1454ZM1248 255V265H1210V255H1248Z" fill="#D9D9D9"/>
<path id="Subtract_2" fill-rule="evenodd" clip-rule="evenodd" d="M1850 145H1630H1625V150L1625 260V265H1630H1661V255H1635L1635 155H1850V145ZM1774 265H1707V255H1774V265ZM1820 265H1850V255H1820V265Z" fill="#D9D9D9"/>
<path id="Vector 138" d="M1210 240L1210 340" stroke="#D9D9D9" stroke-width="10"/>
<path id="Vector 206" d="M630 240L630 270" stroke="#D9D9D9" stroke-width="10"/>
<path id="Subtract_3" fill-rule="evenodd" clip-rule="evenodd" d="M1205 345H1210H1530H1535V350V460H1525V355H1215V461H1205V350V345ZM1525 890V506H1535V890H1525ZM1525 936V1100H1535V936H1525Z" fill="#D9D9D9"/>
<path id="Subtract_4" fill-rule="evenodd" clip-rule="evenodd" d="M1630 345H1625V350V574H1635V355H1850V345H1630ZM1625 620V754H1635V620H1625ZM1625 989V800H1635V989H1625ZM1625 1035V1100H1635V1035H1625Z" fill="#D9D9D9"/>
<path id="Subtract_5" fill-rule="evenodd" clip-rule="evenodd" d="M1845 460L1845 240L1855 240L1855 460H1845Z" fill="#D9D9D9"/>
<path id="Subtract_6" fill-rule="evenodd" clip-rule="evenodd" d="M2405 328L2405 460H2415L2415 328H2405ZM2405 282H2415L2415 240H2405L2405 282Z" fill="#D9D9D9"/>
<path id="Vector 291" d="M2740 350H2410" stroke="#D9D9D9" stroke-width="10"/>
<path id="Vector 222" d="M2740 870H2410" stroke="#D9D9D9" stroke-width="10"/>
<path id="Vector 290" d="M2740 625H2410" stroke="#D9D9D9" stroke-width="10"/>
<path id="Vector 224" d="M3045 625L2825 625" stroke="#D9D9D9" stroke-width="10"/>
<path id="Vector 293" d="M3050 870L2830 870" stroke="#D9D9D9" stroke-width="10"/>
<path id="Subtract_7" fill-rule="evenodd" clip-rule="evenodd" d="M325 5V255H262V265H330H335V260V5H325ZM216 265V255H4.99989V265H216Z" fill="#D9D9D9"/>
<path id="Vector 214" d="M530 150L530 260" stroke="#D9D9D9" stroke-width="10"/>
<path id="Subtract_8" fill-rule="evenodd" clip-rule="evenodd" d="M2745 260V5H2735V255H2670V265H2740H2745V260ZM2624 265V255H2410V265H2624Z" fill="#D9D9D9"/>
<path id="Vector 227" d="M2973 170V260" stroke="#D9D9D9" stroke-width="10"/>
<path id="Vector 226" d="M2897 170V260" stroke="#D9D9D9" stroke-width="10"/>
<path id="Subtract_9" fill-rule="evenodd" clip-rule="evenodd" d="M2820 165L2815 165V170V260V265H2820H2836L2836 255H2825V175L3050 175V165L2820 165ZM2958 265H2988V255H2958V265ZM2912 265V255H2882V265H2912ZM3050 265H3034V255H3050V265Z" fill="#D9D9D9"/>
<path id="Subtract_10" fill-rule="evenodd" clip-rule="evenodd" d="M2830 345H2825V350V480H2835V355H3050V345H2830ZM2835 526H2825V694H2835V526ZM2825 740V960H2835V740H2825ZM2825 1100V1006H2835V1100H2825Z" fill="#D9D9D9"/>
<path id="Subtract_11" fill-rule="evenodd" clip-rule="evenodd" d="M2745 480L2745 345H2735L2735 480H2745ZM2745 526H2735L2735 694H2745L2745 526ZM2745 740H2735L2735 960H2745L2745 740ZM2735 1100L2735 1006H2745L2745 1100H2735Z" fill="#D9D9D9"/>
<path id="Subtract_12" fill-rule="evenodd" clip-rule="evenodd" d="M425 145H430H630V155H435V255H457L457 265H430H425V260V150V145ZM557 265H503V255H557V265ZM603 265H630V255H603V265Z" fill="#D9D9D9"/>
<path id="Subtract_13" fill-rule="evenodd" clip-rule="evenodd" d="M1540 265L1540 255H1530V265H1540ZM1620 265H1630V255H1620V265Z" fill="#D9D9D9"/>
<path id="Vector 285" d="M2740 260H2750" stroke="#D9D9D9" stroke-width="10"/>
<path id="Vector 286" d="M2810 260H2820" stroke="#D9D9D9" stroke-width="10"/>
<path id="Vector 282" d="M2820 350H2830" stroke="#D9D9D9" stroke-width="10"/>
<path id="Subtract_14" fill-rule="evenodd" clip-rule="evenodd" d="M340 265L340 255H330V265H340ZM420 265H430V255H420V265Z" fill="#D9D9D9"/>
</g>
<g id="Textes">
<text id="b_n_519" fill="#D9D9D9" xml:space="preserve" style="white-space: pre" font-family="GothamSSm" font-size="24" font-weight="bold" letter-spacing="0em"><tspan x="2105.26" y="358.8">&#x41d; 519</tspan></text>
<text id="b_n_518" fill="#D9D9D9" xml:space="preserve" style="white-space: pre" font-family="GothamSSm" font-size="24" font-weight="bold" letter-spacing="0em"><tspan x="2550.33" y="140.8">&#x41d; 518</tspan></text>
<text id="b_n_517" fill="#D9D9D9" xml:space="preserve" style="white-space: pre" font-family="GothamSSm" font-size="24" font-weight="bold" letter-spacing="0em"><tspan x="2550.31" y="495.8">&#x41d; 517</tspan></text>
<text id="b_n_516" fill="#D9D9D9" xml:space="preserve" style="white-space: pre" font-family="GothamSSm" font-size="24" font-weight="bold" letter-spacing="0em"><tspan x="2550.23" y="755.8">&#x41d; 516</tspan></text>
<text id="b_n_515" fill="#D9D9D9" xml:space="preserve" style="white-space: pre" font-family="GothamSSm" font-size="24" font-weight="bold" letter-spacing="0em"><tspan x="2550.23" y="992.8">&#x41d; 515</tspan></text>
<text id="b_n_514" fill="#D9D9D9" xml:space="preserve" style="white-space: pre" font-family="GothamSSm" font-size="24" font-weight="bold" letter-spacing="0em"><tspan x="2915.06" y="993.8">&#x41d; 514</tspan></text>
<text id="b_n_513" fill="#D9D9D9" xml:space="preserve" style="white-space: pre" font-family="GothamSSm" font-size="24" font-weight="bold" letter-spacing="0em"><tspan x="2915.31" y="755.8">&#x41d; 513</tspan></text>
<text id="b_n_512" fill="#D9D9D9" xml:space="preserve" style="white-space: pre" font-family="GothamSSm" font-size="24" font-weight="bold" letter-spacing="0em"><tspan x="2915.18" y="495.8">&#x41d; 512</tspan></text>
<text id="b_n_509" fill="#D9D9D9" xml:space="preserve" style="white-space: pre" font-family="GothamSSm" font-size="24" font-weight="bold" letter-spacing="0em"><tspan x="1712.06" y="508.8">&#x41d; 509</tspan></text>
<text id="b_n_508" fill="#D9D9D9" xml:space="preserve" style="white-space: pre" font-family="GothamSSm" font-size="24" font-weight="bold" letter-spacing="0em"><tspan x="1712.13" y="763.8">&#x41d; 508</tspan></text>
<text id="b_n_507" fill="#D9D9D9" xml:space="preserve" style="white-space: pre" font-family="GothamSSm" font-size="24" font-weight="bold" letter-spacing="0em"><tspan x="1713.31" y="988.8">&#x41d; 507</tspan></text>
<text id="b_n_506" fill="#D9D9D9" xml:space="preserve" style="white-space: pre" font-family="GothamSSm" font-size="24" font-weight="bold" letter-spacing="0em"><tspan x="1341.04" y="988.8">&#x41d; 506</tspan></text>
<text id="b_n_505" fill="#D9D9D9" xml:space="preserve" style="white-space: pre" font-family="GothamSSm" font-size="24" font-weight="bold" letter-spacing="0em"><tspan x="1343.03" y="613.8">&#x41d; 505</tspan></text>
<text id="b_n_504" fill="#D9D9D9" xml:space="preserve" style="white-space: pre" font-family="GothamSSm" font-size="24" font-weight="bold" letter-spacing="0em"><tspan x="1422.36" y="140.8">&#x41d; 504</tspan></text>
<text id="b_n_503" fill="#D9D9D9" xml:space="preserve" style="white-space: pre" font-family="GothamSSm" font-size="24" font-weight="bold" letter-spacing="0em"><tspan x="1261.21" y="140.8">&#x41d; 503</tspan></text>
<text id="b_n_502" fill="#D9D9D9" xml:space="preserve" style="white-space: pre" font-family="GothamSSm" font-size="24" font-weight="bold" letter-spacing="0em"><tspan x="140.102" y="140.8">&#x41d; 502</tspan></text>
</g>
<g id="Entrances">
<circle id="30" cx="1630.01" cy="597" r="10" fill="#9CBBFF"/>
<circle id="29" cx="1530.01" cy="483" r="10" fill="#9CBBFF"/>
<circle id="28" cx="1530.01" cy="913" r="10" fill="#9CBBFF"/>
<circle id="27" cx="1630.01" cy="777" r="10" fill="#9CBBFF"/>
<circle id="24" cx="1580.01" cy="260" r="10" fill="#9CBBFF"/>
<circle id="23" cx="2740" cy="983" r="10" fill="#9CBBFF"/>
<circle id="22" cx="1477" cy="260" r="10" fill="#9CBBFF"/>
<circle id="21" cx="2780" cy="260" r="10" fill="#9CBBFF"/>
<circle id="20" cx="3011" cy="260" r="10" fill="#9CBBFF"/>
<circle id="19" cx="2935" cy="260" r="10" fill="#9CBBFF"/>
<circle id="18" cx="2859" cy="260" r="10" fill="#9CBBFF"/>
<circle id="17" cx="2647" cy="260" r="10" fill="#9CBBFF"/>
<circle id="16" cx="2410" cy="305" r="10" fill="#9CBBFF"/>
<circle id="12" cx="1630.01" cy="1012" r="10" fill="#9CBBFF"/>
<circle id="11" cx="2830" cy="503" r="10" fill="#9CBBFF"/>
<circle id="10" cx="2830" cy="717" r="10" fill="#9CBBFF"/>
<circle id="9" cx="2740" cy="503" r="10" fill="#9CBBFF"/>
<circle id="8" cx="2740" cy="717" r="10" fill="#9CBBFF"/>
<circle id="6" cx="2830" cy="983" r="10" fill="#9CBBFF"/>
<circle id="5" cx="1271" cy="260" r="10" fill="#9CBBFF"/>
</g>
<g id="Icons">
<g id="Elevator">
<g id="Vector">
<path d="M2875 212L2869 206L2863 212H2875Z" fill="#A091F8"/>
<path d="M2875 216L2869 222L2863 216H2875Z" fill="#A091F8"/>
<path d="M2857 212C2857 209 2855 206 2852 206H2848C2845 206 2843 209 2843 212V217C2843 219 2844.5 220.5 2846 220.5V230C2846 231.6 2847.33 232 2848 232H2852C2852.67 232 2854 231.6 2854 230V220.5C2855.5 220.5 2857 219 2857 217V212Z" fill="#A091F8"/>
<path d="M2854 199C2854 201.209 2852.21 203 2850 203C2847.79 203 2846 201.209 2846 199C2846 196.791 2847.79 195 2850 195C2852.21 195 2854 196.791 2854 199Z" fill="#A091F8"/>
</g>
<path id="Vector 201" d="M2846.5 242.5H2834.5V187.5H2883.5V242.5H2871.5" stroke="#A091F8" stroke-width="5" stroke-linecap="round" stroke-linejoin="round"/>
</g>
<g id="Elevator_2">
<g id="Vector_2">
<path d="M2952 212L2946 206L2940 212H2952Z" fill="#A091F8"/>
<path d="M2952 216L2946 222L2940 216H2952Z" fill="#A091F8"/>
<path d="M2934 212C2934 209 2932 206 2929 206H2925C2922 206 2920 209 2920 212V217C2920 219 2921.5 220.5 2923 220.5V230C2923 231.6 2924.33 232 2925 232H2929C2929.67 232 2931 231.6 2931 230V220.5C2932.5 220.5 2934 219 2934 217V212Z" fill="#A091F8"/>
<path d="M2931 199C2931 201.209 2929.21 203 2927 203C2924.79 203 2923 201.209 2923 199C2923 196.791 2924.79 195 2927 195C2929.21 195 2931 196.791 2931 199Z" fill="#A091F8"/>
</g>
<path id="Vector 201_2" d="M2923.5 242.5H2911.5V187.5H2960.5V242.5H2948.5" stroke="#A091F8" stroke-width="5" stroke-linecap="round" stroke-linejoin="round"/>
</g>
<g id="Elevator_3">
<g id="Vector_3">
<path d="M3028 212L3022 206L3016 212H3028Z" fill="#A091F8"/>
<path d="M3028 216L3022 222L3016 216H3028Z" fill="#A091F8"/>
<path d="M3010 212C3010 209 3008 206 3005 206H3001C2998 206 2996 209 2996 212V217C2996 219 2997.5 220.5 2999 220.5V230C2999 231.6 3000.33 232 3001 232H3005C3005.67 232 3007 231.6 3007 230V220.5C3008.5 220.5 3010 219 3010 217V212Z" fill="#A091F8"/>
<path d="M3007 199C3007 201.209 3005.21 203 3003 203C3000.79 203 2999 201.209 2999 199C2999 196.791 3000.79 195 3003 195C3005.21 195 3007 196.791 3007 199Z" fill="#A091F8"/>
</g>
<path id="Vector 201_3" d="M2999.5 242.5H2987.5V187.5H3036.5V242.5H3024.5" stroke="#A091F8" stroke-width="5" stroke-linecap="round" stroke-linejoin="round"/>
</g>
<g id="Stair">
<g id="Stair frame">
<path id="Vector 152" d="M2976 65H2951V80H2936V95H2921V110H2896" stroke="#9CD9BC" stroke-width="5" stroke-linecap="round" stroke-linejoin="round"/>
<path id="Vector 154" d="M2908 65H2923M2923 65L2920 79M2923 65L2896 86" stroke="#9CD9BC" stroke-width="3" stroke-linecap="round" stroke-linejoin="round"/>
<path id="Vector 155" d="M2964 110H2949M2949 110L2952 96M2949 110L2976 89" stroke="#9CD9BC" stroke-width="3" stroke-linecap="round" stroke-linejoin="round"/>
</g>
</g>
<g id="Stair_2">
<g id="Stair frame_2">
<path id="Vector 152_2" d="M1783 57H1758V72H1743V87H1728V102H1703" stroke="#9CD9BC" stroke-width="5" stroke-linecap="round" stroke-linejoin="round"/>
<path id="Vector 154_2" d="M1715 57H1730M1730 57L1727 71M1730 57L1703 78" stroke="#9CD9BC" stroke-width="3" stroke-linecap="round" stroke-linejoin="round"/>
<path id="Vector 155_2" d="M1771 102H1756M1756 102L1759 88M1756 102L1783 81" stroke="#9CD9BC" stroke-width="3" stroke-linecap="round" stroke-linejoin="round"/>
</g>
</g>
<g id="Stair_3">
<g id="Stair frame_3">
<path id="Vector 152_3" d="M571 50H546V65H531V80H516V95H491" stroke="#9CD9BC" stroke-width="5" stroke-linecap="round" stroke-linejoin="round"/>
<path id="Vector 154_3" d="M503 50H518M518 50L515 64M518 50L491 71" stroke="#9CD9BC" stroke-width="3" stroke-linecap="round" stroke-linejoin="round"/>
<path id="Vector 155_3" d="M559 95H544M544 95L547 81M544 95L571 74" stroke="#9CD9BC" stroke-width="3" stroke-linecap="round" stroke-linejoin="round"/>
</g>
</g>
<g id="Doors">
<path id="Vector 301" d="M374 269L346 262H340" stroke="#A5A5A7" stroke-width="6"/>
<path id="Vector 302" d="M386 269L414 262H420" stroke="#A5A5A7" stroke-width="6"/>
</g>
<g id="Doors_2">
<path id="Vector 301_2" d="M1574 269L1546 262H1540" stroke="#A5A5A7" stroke-width="6"/>
<path id="Vector 302_2" d="M1586 269L1614 262H1620" stroke="#A5A5A7" stroke-width="6"/>
</g>
<g id="Doors_3">
<path id="Vector 301_3" d="M2775.5 269L2754.5 262H2750" stroke="#A5A5A7" stroke-width="6"/>
<path id="Vector 302_3" d="M2784.5 269L2805.5 262H2810" stroke="#A5A5A7" stroke-width="6"/>
</g>
</g>
</g>
<defs>
<clipPath id="clip0_2069_395">
<rect width="3055" height="1105" fill="white"/>
</clipPath>
</defs>
</svg>
