<svg width="1400" height="570" viewBox="0 0 1400 570" fill="none" xmlns="http://www.w3.org/2000/svg">
<g id="V-5" clip-path="url(#clip0_2001_1094)">
<g id="Spaces">
<rect id="v-510" x="325" y="275" width="105" height="240" fill="#3B3C41"/>
<rect id="v-509" x="980" y="275" width="105" height="240" fill="#3B3C41"/>
<rect id="v-508" x="1195" y="5" width="199" height="560" fill="#3B3C41"/>
<rect id="v-507" x="1085" y="5" width="110" height="190" fill="#3B3C41"/>
<rect id="v-506" x="770" y="5" width="315" height="190" fill="#3B3C41"/>
<rect id="v-505" x="430" y="195" width="550" height="320" fill="#3B3C41"/>
<rect id="v-504" x="325" y="5" width="315" height="190" fill="#3B3C41"/>
<rect id="v-503" x="205" y="5" width="120" height="190" fill="#3B3C41"/>
<rect id="v-502" x="5" y="5" width="200" height="260" fill="#3B3C41"/>
<rect id="v-501" x="5" y="265" width="200" height="300" fill="#3B3C41"/>
<rect id="v-5-stair-2" opacity="0.2" x="1085" y="315" width="110" height="250" fill="#9CD9BC"/>
<rect id="v-5-stair-1" opacity="0.2" x="205" y="325" width="120" height="240" fill="#9CD9BC"/>
</g>
<g id="Walls">
<path id="Vector 5" d="M325 511L325 270" stroke="#D9D9D9" stroke-width="10"/>
<path id="Vector 6" d="M1085 513L1085 270" stroke="#D9D9D9" stroke-width="10"/>
<path id="Vector 24" d="M1085 2V192" stroke="#D9D9D9" stroke-width="10"/>
<path id="Vector 7" d="M325 5V195" stroke="#D9D9D9" stroke-width="10"/>
<path id="Vector 25" d="M980 195L980 515" stroke="#D9D9D9" stroke-width="10"/>
<path id="Subtract" fill-rule="evenodd" clip-rule="evenodd" d="M1200 207V5H1190V207H1200ZM1200 253H1190V565H1200V253Z" fill="#D9D9D9"/>
<path id="Subtract_2" fill-rule="evenodd" clip-rule="evenodd" d="M765 166V192H775V166H765ZM765 120H775V5H765V120Z" fill="#D9D9D9"/>
<path id="Subtract_3" fill-rule="evenodd" clip-rule="evenodd" d="M635 166V195H645V166H635ZM635 120H645V5H635V120Z" fill="#D9D9D9"/>
<path id="Subtract_4" fill-rule="evenodd" clip-rule="evenodd" d="M243 330V320H205V330H243ZM286 330H325V320H286V330Z" fill="#D9D9D9"/>
<path id="Subtract_5" fill-rule="evenodd" clip-rule="evenodd" d="M5 260H205V270H5V260Z" fill="#D9D9D9"/>
<path id="Subtract_6" fill-rule="evenodd" clip-rule="evenodd" d="M1119 320V310H1085V320H1119ZM1165 320H1195V310H1165V320Z" fill="#D9D9D9"/>
<path id="Subtract_7" fill-rule="evenodd" clip-rule="evenodd" d="M1010 280L1010 270H980V280H1010ZM1056 280H1085V270H1056V280Z" fill="#D9D9D9"/>
<path id="Subtract_8" fill-rule="evenodd" clip-rule="evenodd" d="M355 280L355 270H325V280H355ZM401 280H430V270H401V280Z" fill="#D9D9D9"/>
<path id="Subtract_9" fill-rule="evenodd" clip-rule="evenodd" d="M355 200V190H288V200H355ZM401 200H1119V190H401V200ZM1195 200H1165V190H1195V200ZM242 200V190H205V200H242Z" fill="#D9D9D9"/>
<path id="Subtract_10" fill-rule="evenodd" clip-rule="evenodd" d="M210 253V272H200V253H210ZM210 207V5H200V207H210ZM200 318H210V565H200V318Z" fill="#D9D9D9"/>
<path id="Subtract_11" fill-rule="evenodd" clip-rule="evenodd" d="M0 0H5H205H1395H1400V5V511.5V565V570H1395H1085H1080V565V520H330V565V570H325H205H5H0V565V5V0ZM10 10V560H205H320V515V510H325H1085H1090V515V560H1390V511.5V10H205H10Z" fill="#D9D9D9"/>
<path id="Subtract_12" fill-rule="evenodd" clip-rule="evenodd" d="M425 253L425 515H435L435 253H425ZM425 207H435L435 195H425L425 207Z" fill="#D9D9D9"/>
</g>
<g id="Textes">
<text id="b_v_510" fill="#D9D9D9" xml:space="preserve" style="white-space: pre" font-family="GothamSSm" font-size="24" font-weight="bold" letter-spacing="0em"><tspan x="352.211" y="402.8">&#x412; 510</tspan></text>
<text id="b_v_509" fill="#D9D9D9" xml:space="preserve" style="white-space: pre" font-family="GothamSSm" font-size="24" font-weight="bold" letter-spacing="0em"><tspan x="1004.48" y="402.8">&#x412; 509</tspan></text>
<text id="b_v_508" fill="#D9D9D9" xml:space="preserve" style="white-space: pre" font-family="GothamSSm" font-size="24" font-weight="bold" letter-spacing="0em"><tspan x="1267.05" y="292.8">&#x412; 508</tspan></text>
<text id="b_v_507" fill="#D9D9D9" xml:space="preserve" style="white-space: pre" font-family="GothamSSm" font-size="24" font-weight="bold" letter-spacing="0em"><tspan x="1113.23" y="107.8">&#x412; 507</tspan></text>
<text id="b_v_506" fill="#D9D9D9" xml:space="preserve" style="white-space: pre" font-family="GothamSSm" font-size="24" font-weight="bold" letter-spacing="0em"><tspan x="900.461" y="107.8">&#x412; 506</tspan></text>
<text id="b_v_505" fill="#D9D9D9" xml:space="preserve" style="white-space: pre" font-family="GothamSSm" font-size="24" font-weight="bold" letter-spacing="0em"><tspan x="678.453" y="362.8">&#x412; 505</tspan></text>
<text id="b_v_504" fill="#D9D9D9" xml:space="preserve" style="white-space: pre" font-family="GothamSSm" font-size="24" font-weight="bold" letter-spacing="0em"><tspan x="455.285" y="107.8">&#x412; 504</tspan></text>
<text id="b_v_503" fill="#D9D9D9" xml:space="preserve" style="white-space: pre" font-family="GothamSSm" font-size="24" font-weight="bold" letter-spacing="0em"><tspan x="238.129" y="107.8">&#x412; 503</tspan></text>
<text id="b_v_502" fill="#D9D9D9" xml:space="preserve" style="white-space: pre" font-family="GothamSSm" font-size="24" font-weight="bold" letter-spacing="0em"><tspan x="78.0234" y="142.8">&#x412; 502</tspan></text>
<text id="b_v_501" fill="#D9D9D9" xml:space="preserve" style="white-space: pre" font-family="GothamSSm" font-size="24" font-weight="bold" letter-spacing="0em"><tspan x="80.293" y="422.8">&#x412; 501</tspan></text>
</g>
<g id="Entrances">
<circle id="12" cx="378" cy="275" r="10" fill="#9CBBFF"/>
<circle id="11" cx="205" cy="230" r="10" fill="#9CBBFF"/>
<circle id="10" cx="205" cy="295" r="10" fill="#9CBBFF"/>
<circle id="9" cx="378" cy="195" r="10" fill="#9CBBFF"/>
<circle id="13" cx="430" cy="229" r="10" fill="#9CBBFF"/>
<circle id="8" cx="1033" cy="275" r="10" fill="#9CBBFF"/>
<circle id="7" cx="770" cy="143" r="10" fill="#9CBBFF"/>
<circle id="6" cx="265" cy="195" r="10" fill="#9CBBFF"/>
<circle id="5" cx="1142" cy="195" r="10" fill="#9CBBFF"/>
<circle id="4" cx="1142" cy="315" r="10" fill="#9CBBFF"/>
<circle id="2" cx="1195" cy="230" r="10" fill="#9CBBFF"/>
<circle id="1" cx="265" cy="325" r="10" fill="#9CBBFF"/>
</g>
<g id="Icons">
<g id="Stair">
<g id="Stair frame">
<path id="Vector 152" d="M304 422H279V437H264V452H249V467H224" stroke="#9CD9BC" stroke-width="5" stroke-linecap="round" stroke-linejoin="round"/>
<path id="Vector 155" d="M292 467H277M277 467L280 453M277 467L304 446" stroke="#9CD9BC" stroke-width="3" stroke-linecap="round" stroke-linejoin="round"/>
</g>
</g>
<g id="Stair_2">
<g id="Stair frame_2">
<path id="Vector 152_2" d="M1180 417H1155V432H1140V447H1125V462H1100" stroke="#9CD9BC" stroke-width="5" stroke-linecap="round" stroke-linejoin="round"/>
<path id="Vector 155_2" d="M1168 462H1153M1153 462L1156 448M1153 462L1180 441" stroke="#9CD9BC" stroke-width="3" stroke-linecap="round" stroke-linejoin="round"/>
</g>
</g>
</g>
</g>
<defs>
<clipPath id="clip0_2001_1094">
<rect width="1400" height="570" fill="white"/>
</clipPath>
</defs>
</svg>
