<svg width="4010" height="770" viewBox="0 0 4010 770" fill="none" xmlns="http://www.w3.org/2000/svg">
<g id="M-3-3" clip-path="url(#clip0_2_479)">
<g id="Spaces">
<rect id="m-3320" x="285" y="325" width="400" height="160" fill="#3B3C41"/>
<rect id="m-3319" x="685" y="325" width="370" height="160" fill="#3B3C41"/>
<rect id="m-3318" x="1055" y="325" width="90" height="160" fill="#3B3C41"/>
<rect id="m-3326" x="285" y="555" width="230" height="190" fill="#3B3C41"/>
<rect id="!u" x="515" y="555" width="100" height="190" fill="#3B3C41"/>
<rect id="m-3327" x="735" y="555" width="420" height="190" fill="#3B3C41"/>
<rect id="m-3328" x="1155" y="555" width="180" height="210" fill="#3B3C41"/>
<rect id="m-3329" x="1335" y="325" width="510" height="170" fill="#3B3C41"/>
<rect id="m-3317A" x="1225" y="15" width="140" height="220" fill="#3B3C41"/>
<rect id="m-3317" x="1365" y="55" width="420" height="180" fill="#3B3C41"/>
<path id="m-3315" d="M2095 55H2375V85H2355V235H2095V55Z" fill="#3B3C41"/>
<rect id="m-3314" x="2645" y="15" width="140" height="220" fill="#3B3C41"/>
<rect id="m-3313" x="2845" y="325" width="90" height="160" fill="#3B3C41"/>
<rect id="m-3312" x="2935" y="325" width="90" height="160" fill="#3B3C41"/>
<rect id="m-3311" x="3025" y="325" width="340" height="160" fill="#3B3C41"/>
<rect id="m-3310" x="3365" y="325" width="360" height="160" fill="#3B3C41"/>
<rect id="m-3305" x="2675" y="565" width="180" height="200" fill="#3B3C41"/>
<rect id="m-3306" x="2855" y="565" width="230" height="180" fill="#3B3C41"/>
<rect id="m-3308" x="3465" y="565" width="260" height="180" fill="#3B3C41"/>
<rect id="!u2" x="3725" y="565" width="150" height="200" fill="#3B3C41"/>
<rect id="m-3302" x="2165" y="335" width="130" height="160" fill="#3B3C41"/>
<rect id="m-3303" x="2295" y="335" width="180" height="160" fill="#3B3C41"/>
<rect id="m-3304" x="2475" y="335" width="200" height="160" fill="#3B3C41"/>
<path id="m-3301" d="M1945 345H2097V335H2164.5V345L2165 539V554.5H2135.5V535.5H1875.5V554.5H1846V535.5V325H1945V345Z" fill="#3B3C41"/>
<rect id="m-33-wcw" opacity="0.2" x="2765" y="325" width="80" height="160" fill="#F783CB"/>
<path id="m-3315A" d="M2375 55H2645V235H2355V85H2375V55Z" fill="#3B3C41"/>
<rect id="!u3" x="615" y="555" width="120" height="190" fill="#3B3C41"/>
<rect id="m-3307" x="3085" y="565" width="380" height="180" fill="#3B3C41"/>
<path id="m-3316" d="M1785 55H1905V125H1855V145H1835V215H1825V235H1785V55Z" fill="#3B3C41"/>
<path id="m-3-3-stairs-3" opacity="0.2" d="M1905 5H2095V325V345H1945V325H1845V235H1905V5Z" fill="#9CD9BC"/>
<rect id="m-33-wcu" opacity="0.2" x="1145" y="325" width="100" height="160" fill="#A091F8"/>
<rect id="m-33-stairs-1" opacity="0.2" x="135" y="305" width="150" height="260" fill="#9CD9BC"/>
<rect id="m-3325" x="135" y="565" width="150" height="200" fill="#3B3C41"/>
<rect id="m-33-stairs-2" opacity="0.2" x="3725" y="305" width="151" height="260" fill="#9CD9BC"/>
</g>
<g id="Walls">
<path id="Subtract" fill-rule="evenodd" clip-rule="evenodd" d="M1968 412V390H1962V415V418H1965H2062V475V535H2068V475V415V390H2062V412H1968ZM2062 360L2068 360V345H2062V360ZM1968 345V360L1962 360V345H1968Z" fill="#A5A5A7"/>
<path id="Vector 312" d="M135 365V305H285V325H1245V235H1225V15H1365V55H1905V5H2095V55H2645V15H2785V235H2765V325H3725V305H3875V365M3875 365H4005V675H3875V365Z" stroke="#D9D9D9" stroke-width="10"/>
<path id="Subtract_2" fill-rule="evenodd" clip-rule="evenodd" d="M1170 490V485H1160V490L1170 490ZM1170 550H1160V555H1170V550Z" fill="#D9D9D9"/>
<path id="Vector 340" d="M2475 495V335" stroke="#D9D9D9" stroke-width="10"/>
<path id="Vector 341" d="M2295 495V335" stroke="#D9D9D9" stroke-width="10"/>
<path id="Vector 310" d="M5 365V675H135V365H5Z" stroke="#D9D9D9" stroke-width="10"/>
<path id="Vector 311" d="M135 675V765H285V745H625H725H1155V765H1335V495H1845V555H1875V535H2135V555H2165V495H2675V765H2855V745H3255H3335H3725V765H3875V675" stroke="#D9D9D9" stroke-width="10"/>
<path id="Vector 314" d="M3725 745V565" stroke="#D9D9D9" stroke-width="10"/>
<path id="Vector 315" d="M3465 745V565" stroke="#D9D9D9" stroke-width="10"/>
<path id="Vector 316" d="M3085 745V565" stroke="#D9D9D9" stroke-width="10"/>
<path id="Vector 317" d="M2855 745V565" stroke="#D9D9D9" stroke-width="10"/>
<path id="Vector 320" d="M2375 55V85H2355V235" stroke="#D9D9D9" stroke-width="10"/>
<path id="Vector 321" d="M3365 325V485" stroke="#D9D9D9" stroke-width="10"/>
<path id="Vector 322" d="M2845 325V485" stroke="#D9D9D9" stroke-width="10"/>
<path id="Vector 323" d="M2935 325V485" stroke="#D9D9D9" stroke-width="10"/>
<path id="Vector 324" d="M3025 325V485" stroke="#D9D9D9" stroke-width="10"/>
<path id="Subtract_3" fill-rule="evenodd" clip-rule="evenodd" d="M2170 495V335H2160V495H2170ZM3720 560V565H3730V560H3720ZM3720 490H3730V485H3720V490Z" fill="#D9D9D9"/>
<path id="Vector 326" d="M1845 495V325" stroke="#D9D9D9" stroke-width="10"/>
<path id="Subtract_4" fill-rule="evenodd" clip-rule="evenodd" d="M280 550V555V560H260V570H280V745H290V565V560H312V550H292H290H280ZM358 560H541V550H358V560ZM650 560H587V550H650V560ZM696 560H1007V550H696V560ZM1237 560H1053V550H1237V560ZM1283 560H1335V550H1283V560ZM135 560H214V570H135V560ZM280 490H290V325H280V490Z" fill="#D9D9D9"/>
<path id="Vector 329" d="M1155 745V555" stroke="#D9D9D9" stroke-width="10"/>
<path id="Vector 330" d="M735 745V555" stroke="#D9D9D9" stroke-width="10"/>
<path id="Vector 331" d="M615 745V555" stroke="#D9D9D9" stroke-width="10"/>
<path id="Subtract_5" fill-rule="evenodd" clip-rule="evenodd" d="M1250 468V485V490H1245H1123V480H1240V468H1250ZM1250 422V325H1240V422H1250ZM1077 480V490H913V480H1077ZM867 480H358V490H867V480ZM312 480L312 490H285V480H312Z" fill="#D9D9D9"/>
<path id="Vector 332" d="M515 745V555" stroke="#D9D9D9" stroke-width="10"/>
<path id="Vector 333" d="M685 325V485" stroke="#D9D9D9" stroke-width="10"/>
<path id="Vector 334" d="M1145 325V485" stroke="#D9D9D9" stroke-width="10"/>
<path id="Vector 335" d="M1055 485V325" stroke="#D9D9D9" stroke-width="10"/>
<path id="Subtract_6" fill-rule="evenodd" clip-rule="evenodd" d="M2770 428V325H2760V428H2770ZM2770 474H2760V485V490H2765H2856V480H2770V474ZM2902 490H2947V480H2902V490ZM3247 490H2993V480H3247V490ZM3293 490H3582V480H3293V490ZM3725 490H3628V480H3720V325H3730V485V490H3725ZM3293 560H3647V570H3293V560ZM3247 560H2918V570H3247V560ZM2758 560H2872V570H2758V560ZM2712 560H2675V570H2712V560ZM3693 570V560H3777V570H3693ZM3823 570V560H3875V570H3823Z" fill="#D9D9D9"/>
<path id="Vector 337" d="M1825 235V215H1835V145H1855V125H1905M1365 55V235" stroke="#D9D9D9" stroke-width="10"/>
<path id="Subtract_7" fill-rule="evenodd" clip-rule="evenodd" d="M2100 245V235H2090V245L2100 245ZM2100 325H2090V335H2100V325Z" fill="#D9D9D9"/>
<path id="Subtract_8" fill-rule="evenodd" clip-rule="evenodd" d="M1840 320V325H1850V320H1840ZM1840 240L1850 240V235H1840V240Z" fill="#D9D9D9"/>
<path id="Subtract_9" fill-rule="evenodd" clip-rule="evenodd" d="M2100 55V230H2172V240H2095H2090V235V55H2100ZM2218 240H2377V230H2218V240ZM2657 240H2423V230H2657V240ZM2703 240H2765V230H2703V240Z" fill="#D9D9D9"/>
<path id="Subtract_10" fill-rule="evenodd" clip-rule="evenodd" d="M2640 55V235H2650V55H2640ZM1335 320H1330V325V495H1340V330H1377V320H1335ZM1423 320V330H1940V345V350H1945H1977V340H1950V325V320H1945H1423ZM2095 350H2023V340H2090V335V330H2095H2207V340H2100V345V350H2095ZM2253 340H2307V330H2253V340ZM2492 340H2353V330H2492V340ZM2538 340H2670V495H2680V335V330H2675H2538V340Z" fill="#D9D9D9"/>
<path id="Subtract_11" fill-rule="evenodd" clip-rule="evenodd" d="M1329 230H1612V240H1329V230ZM1658 240V230H1780V55H1790V227V230V240H1785H1658ZM1820 240H1905H1910V235V55H1900V230H1820V240ZM1283 230H1245V240H1283V230Z" fill="#D9D9D9"/>
</g>
<g id="Textes">
<text id="&#208;&#156;3325" fill="#D9D9D9" xml:space="preserve" style="white-space: pre" font-family="GothamSSm" font-size="24" font-weight="bold" letter-spacing="0em"><tspan x="180.391" y="671.8">&#x41c;3325</tspan></text>
<text id="&#208;&#156;3326" fill="#D9D9D9" xml:space="preserve" style="white-space: pre" font-family="GothamSSm" font-size="24" font-weight="bold" letter-spacing="0em"><tspan x="369.434" y="658.8">&#x41c;3326</tspan></text>
<text id="&#208;&#156;3327" fill="#D9D9D9" xml:space="preserve" style="white-space: pre" font-family="GothamSSm" font-size="24" font-weight="bold" letter-spacing="0em"><tspan x="910.496" y="661.8">&#x41c;3327</tspan></text>
<text id="&#208;&#156;3328" fill="#D9D9D9" xml:space="preserve" style="white-space: pre" font-family="GothamSSm" font-size="24" font-weight="bold" letter-spacing="0em"><tspan x="1215.49" y="666.8">&#x41c;3328</tspan></text>
<text id="&#208;&#156;3329" fill="#D9D9D9" xml:space="preserve" style="white-space: pre" font-family="GothamSSm" font-size="24" font-weight="bold" letter-spacing="0em"><tspan x="1560.42" y="416.8">&#x41c;3329</tspan></text>
<text id="&#208;&#156;3313" fill="#D9D9D9" xml:space="preserve" style="white-space: pre" font-family="GothamSSm" font-size="24" font-weight="bold" letter-spacing="0em"><tspan x="2860.73" y="411.8">&#x41c;3313</tspan></text>
<text id="&#208;&#156;3312" fill="#D9D9D9" xml:space="preserve" style="white-space: pre" font-family="GothamSSm" font-size="24" font-weight="bold" letter-spacing="0em"><tspan x="2950.1" y="411.8">&#x41c;3312</tspan></text>
<text id="&#208;&#156;3320" fill="#D9D9D9" xml:space="preserve" style="white-space: pre" font-family="GothamSSm" font-size="24" font-weight="bold" letter-spacing="0em"><tspan x="453.453" y="412.8">&#x41c;3320</tspan></text>
<text id="&#208;&#156;3319" fill="#D9D9D9" xml:space="preserve" style="white-space: pre" font-family="GothamSSm" font-size="24" font-weight="bold" letter-spacing="0em"><tspan x="845.18" y="411.8">&#x41c;3319</tspan></text>
<text id="&#208;&#156;3318" fill="#D9D9D9" xml:space="preserve" style="white-space: pre" font-family="GothamSSm" font-size="24" font-weight="bold" letter-spacing="0em"><tspan x="1070.25" y="411.8">&#x41c;3318</tspan></text>
<text id="&#208;&#156;3317&#208;&#144;" fill="#D9D9D9" xml:space="preserve" style="white-space: pre" font-family="GothamSSm" font-size="24" font-weight="bold" letter-spacing="0em"><tspan x="1260.38" y="131.8">&#x41c;3317&#x410;</tspan></text>
<text id="&#208;&#156;3317" fill="#D9D9D9" xml:space="preserve" style="white-space: pre" font-family="GothamSSm" font-size="24" font-weight="bold" letter-spacing="0em"><tspan x="1545.23" y="151.8">&#x41c;3317</tspan></text>
<text id="&#208;&#156;3301" fill="#D9D9D9" xml:space="preserve" style="white-space: pre" font-family="GothamSSm" font-size="24" font-weight="bold" letter-spacing="0em"><tspan x="1984.3" y="387.8">&#x41c;3301</tspan></text>
<text id="&#208;&#156;3302" fill="#D9D9D9" xml:space="preserve" style="white-space: pre" font-family="GothamSSm" font-size="24" font-weight="bold" letter-spacing="0em"><tspan x="2200.04" y="421.8">&#x41c;3302</tspan></text>
<text id="&#208;&#156;3303" fill="#D9D9D9" xml:space="preserve" style="white-space: pre" font-family="GothamSSm" font-size="24" font-weight="bold" letter-spacing="0em"><tspan x="2355.14" y="421.8">&#x41c;3303</tspan></text>
<text id="&#208;&#156;3304" fill="#D9D9D9" xml:space="preserve" style="white-space: pre" font-family="GothamSSm" font-size="24" font-weight="bold" letter-spacing="0em"><tspan x="2540.3" y="421.8">&#x41c;3304</tspan></text>
<text id="&#208;&#156;3315" fill="#D9D9D9" xml:space="preserve" style="white-space: pre" font-family="GothamSSm" font-size="24" font-weight="bold" letter-spacing="0em"><tspan x="2205.15" y="151.8">&#x41c;3315</tspan></text>
<text id="&#208;&#156;3315&#208;&#144;" fill="#D9D9D9" xml:space="preserve" style="white-space: pre" font-family="GothamSSm" font-size="24" font-weight="bold" letter-spacing="0em"><tspan x="2465.29" y="151.8">&#x41c;3315&#x410;</tspan></text>
<text id="&#208;&#156;3314" fill="#D9D9D9" xml:space="preserve" style="white-space: pre" font-family="GothamSSm" font-size="24" font-weight="bold" letter-spacing="0em"><tspan x="2685.48" y="131.8">&#x41c;3314</tspan></text>
<text id="&#208;&#156;3305" fill="#D9D9D9" xml:space="preserve" style="white-space: pre" font-family="GothamSSm" font-size="24" font-weight="bold" letter-spacing="0em"><tspan x="2735.46" y="671.8">&#x41c;3305</tspan></text>
<text id="&#208;&#156;3306" fill="#D9D9D9" xml:space="preserve" style="white-space: pre" font-family="GothamSSm" font-size="24" font-weight="bold" letter-spacing="0em"><tspan x="2940.47" y="661.8">&#x41c;3306</tspan></text>
<text id="&#208;&#156;3307" fill="#D9D9D9" xml:space="preserve" style="white-space: pre" font-family="GothamSSm" font-size="24" font-weight="bold" letter-spacing="0em"><tspan x="3245.25" y="661.8">&#x41c;3307</tspan></text>
<text id="&#208;&#156;3308" fill="#D9D9D9" xml:space="preserve" style="white-space: pre" font-family="GothamSSm" font-size="24" font-weight="bold" letter-spacing="0em"><tspan x="3560.07" y="661.8">&#x41c;3308</tspan></text>
<text id="&#208;&#156;3310" fill="#D9D9D9" xml:space="preserve" style="white-space: pre" font-family="GothamSSm" font-size="24" font-weight="bold" letter-spacing="0em"><tspan x="3515.21" y="411.8">&#x41c;3310</tspan></text>
<text id="&#208;&#156;3311" fill="#D9D9D9" xml:space="preserve" style="white-space: pre" font-family="GothamSSm" font-size="24" font-weight="bold" letter-spacing="0em"><tspan x="3165.39" y="411.8">&#x41c;3311</tspan></text>
<text id="&#208;&#156;3316" fill="#D9D9D9" xml:space="preserve" style="white-space: pre" font-family="GothamSSm" font-size="24" font-weight="bold" letter-spacing="0em"><tspan x="1810.16" y="101.8">&#x41c;3316</tspan></text>
</g>
<g id="Icons">
<g id="Stair">
<g id="Stair frame">
<path id="Vector 152" d="M252 412H227V427H212V442H197V457H172" stroke="#9CD9BC" stroke-width="5" stroke-linecap="round" stroke-linejoin="round"/>
<path id="Vector 154" d="M184 412H199M199 412L196 426M199 412L172 433" stroke="#9CD9BC" stroke-width="3" stroke-linecap="round" stroke-linejoin="round"/>
<path id="Vector 155" d="M240 457H225M225 457L228 443M225 457L252 436" stroke="#9CD9BC" stroke-width="3" stroke-linecap="round" stroke-linejoin="round"/>
</g>
</g>
<g id="WC">
<g id="Group 5">
<path id="Vector 200" d="M1186.5 407L1194 428.5H1168L1175.5 407" stroke="#A091F8" stroke-width="5" stroke-linecap="round" stroke-linejoin="round"/>
<circle id="Ellipse 9" cx="1181" cy="389" r="8" stroke="#A091F8" stroke-width="5" stroke-linecap="round" stroke-linejoin="round"/>
</g>
<g id="Group 6">
<path id="Vector 200_2" d="M1214.5 428.5L1222 407H1196L1203.5 428.5" stroke="#A091F8" stroke-width="5" stroke-linecap="round" stroke-linejoin="round"/>
<circle id="Ellipse 9_2" cx="1209" cy="389" r="8" stroke="#A091F8" stroke-width="5" stroke-linecap="round" stroke-linejoin="round"/>
</g>
</g>
<g id="Stair_2">
<g id="Stair frame_2">
<path id="Vector 152_2" d="M2042 142H2017V157H2002V172H1987V187H1962" stroke="#9CD9BC" stroke-width="5" stroke-linecap="round" stroke-linejoin="round"/>
<path id="Vector 154_2" d="M1974 142H1989M1989 142L1986 156M1989 142L1962 163" stroke="#9CD9BC" stroke-width="3" stroke-linecap="round" stroke-linejoin="round"/>
<path id="Vector 155_2" d="M2030 187H2015M2015 187L2018 173M2015 187L2042 166" stroke="#9CD9BC" stroke-width="3" stroke-linecap="round" stroke-linejoin="round"/>
</g>
</g>
<g id="Woman">
<g id="Group 5_2">
<path id="Vector 200_3" d="M2810.5 407L2819 428.5H2791L2799.5 407" stroke="#F783CB" stroke-width="5" stroke-linecap="round" stroke-linejoin="round"/>
<circle id="Ellipse 9_3" cx="2805" cy="389" r="8" stroke="#F783CB" stroke-width="5" stroke-linecap="round" stroke-linejoin="round"/>
</g>
</g>
<g id="Stair_3">
<g id="Stair frame_3">
<path id="Vector 152_3" d="M3842 412H3817V427H3802V442H3787V457H3762" stroke="#9CD9BC" stroke-width="5" stroke-linecap="round" stroke-linejoin="round"/>
<path id="Vector 154_3" d="M3774 412H3789M3789 412L3786 426M3789 412L3762 433" stroke="#9CD9BC" stroke-width="3" stroke-linecap="round" stroke-linejoin="round"/>
<path id="Vector 155_3" d="M3830 457H3815M3815 457L3818 443M3815 457L3842 436" stroke="#9CD9BC" stroke-width="3" stroke-linecap="round" stroke-linejoin="round"/>
</g>
</g>
<g id="Doors">
<path id="Vector 301" d="M291 515.5L284 494.5V490" stroke="#A5A5A7" stroke-width="6"/>
<path id="Vector 302" d="M291 524.5L284 545.5V550" stroke="#A5A5A7" stroke-width="6"/>
</g>
<g id="Doors_2">
<path id="Vector 301_2" d="M1164 515.5L1157 494.5V490" stroke="#A5A5A7" stroke-width="6"/>
<path id="Vector 302_2" d="M1164 524.5L1157 545.5V550" stroke="#A5A5A7" stroke-width="6"/>
</g>
<g id="Doors_3">
<path id="Vector 301_3" d="M1838 286L1845 314V320" stroke="#A5A5A7" stroke-width="6"/>
<path id="Vector 302_3" d="M1838 274L1845 246V240" stroke="#A5A5A7" stroke-width="6"/>
</g>
<g id="Doors_4">
<path id="Vector 301_4" d="M2100 279L2093 251V245" stroke="#A5A5A7" stroke-width="6"/>
<path id="Vector 302_4" d="M2100 291L2093 319V325" stroke="#A5A5A7" stroke-width="6"/>
</g>
<g id="Doors_5">
<path id="Vector 301_5" d="M3720 530.25L3727 554.75V560" stroke="#A5A5A7" stroke-width="6"/>
<path id="Vector 302_5" d="M3720 519.75L3727 495.25V490" stroke="#A5A5A7" stroke-width="6"/>
</g>
</g>
<g id="Entrances">
<circle id="10" cx="237" cy="565" r="10" fill="#9CBBFF"/>
<circle id="11" cx="210" cy="475" r="10" fill="#9CBBFF"/>
<circle id="12" cx="335" cy="485" r="10" fill="#9CBBFF"/>
<circle id="13" cx="335" cy="555" r="10" fill="#9CBBFF"/>
<circle id="16" cx="890" cy="485" r="10" fill="#9CBBFF"/>
<circle id="38" cx="1030" cy="555" r="10" fill="#9CBBFF"/>
<circle id="17" cx="1100" cy="485" r="10" fill="#9CBBFF"/>
<circle id="18" cx="1306" cy="235" r="10" fill="#9CBBFF"/>
<circle id="19" cx="1635" cy="235" r="10" fill="#9CBBFF"/>
<circle id="20" cx="1400" cy="325" r="10" fill="#9CBBFF"/>
<circle id="21" cx="1805" cy="235" r="10" fill="#9CBBFF"/>
<circle id="22" cx="2000" cy="345" r="10" fill="#9CBBFF"/>
<circle id="23" cx="2195" cy="235" r="10" fill="#9CBBFF"/>
<circle id="26" cx="2330" cy="335" r="10" fill="#9CBBFF"/>
<circle id="27" cx="2515" cy="335" r="10" fill="#9CBBFF"/>
<circle id="28" cx="2680" cy="235" r="10" fill="#9CBBFF"/>
<circle id="24" cx="2230" cy="335" r="10" fill="#9CBBFF"/>
<circle id="25" cx="2400" cy="235" r="10" fill="#9CBBFF"/>
<circle id="16_2" cx="1260" cy="555" r="10" fill="#9CBBFF"/>
<circle id="17_2" cx="1245" cy="445" r="10" fill="#9CBBFF"/>
<circle id="29" cx="2735" cy="565" r="10" fill="#9CBBFF"/>
<circle id="30" cx="2895" cy="565" r="10" fill="#9CBBFF"/>
<circle id="31" cx="2880" cy="485" r="10" fill="#9CBBFF"/>
<circle id="32" cx="2970" cy="485" r="10" fill="#9CBBFF"/>
<circle id="33" cx="3270" cy="485" r="10" fill="#9CBBFF"/>
<circle id="34" cx="3270" cy="565" r="10" fill="#9CBBFF"/>
<circle id="35" cx="3605" cy="485" r="10" fill="#9CBBFF"/>
<circle id="36" cx="3670" cy="565" r="10" fill="#9CBBFF"/>
<circle id="37" cx="2000" cy="210" r="10" fill="#9CBBFF"/>
<circle id="24_2" cx="3800" cy="475" r="10" fill="#9CBBFF"/>
<circle id="29_2" cx="2765" cy="452" r="10" fill="#9CBBFF"/>
</g>
</g>
<defs>
<clipPath id="clip0_2_479">
<rect width="4010" height="770" fill="white"/>
</clipPath>
</defs>
</svg>
