<svg width="2710" height="870" viewBox="0 0 2710 870" fill="none" xmlns="http://www.w3.org/2000/svg">
<g id="B-1" clip-path="url(#clip0_2001_822)">
<g id="Spaces">
<rect id="b" x="510" y="225" width="100" height="105" transform="rotate(90 510 225)" fill="#3B3C41"/>
<rect id="Rectangle 114" x="700" y="5" width="115" height="140" transform="rotate(90 700 5)" fill="#3B3C41"/>
<rect id="Rectangle 112" x="190" y="5" width="115" height="220" fill="#3B3C41"/>
<rect id="Rectangle 113" x="885" y="5" width="115" height="185" transform="rotate(90 885 5)" fill="#3B3C41"/>
<rect id="Rectangle 107" x="1925" y="335" width="220" height="95" fill="#3B3C41"/>
<rect id="Rectangle 73" x="2145" y="555" width="560" height="310" fill="#3B3C41"/>
<rect id="Rectangle 111" x="2000" y="475" width="115" height="75" transform="rotate(90 2000 475)" fill="#3B3C41"/>
<rect id="Rectangle 108" x="1845" y="675" width="300" height="190" fill="#3B3C41"/>
<path id="Rectangle 109" d="M2000 430H2145V590H2000V475H1925V430H2000Z" fill="#3B3C41"/>
<path id="!Rectangle 124" d="M5.00006 225V5H95.0001H190V225H305H405V275V325H305V865H5.00006V545V225Z" fill="#3B3C41"/>
<rect id="Rectangle 117" x="1645" y="5" width="100" height="220" fill="#3B3C41"/>
<rect id="!Rectangle 118" x="1545" y="5" width="100" height="130" fill="#3B3C41"/>
<rect id="Rectangle 119" x="1745" y="100" width="100" height="125" fill="#3B3C41"/>
<rect id="!b-1-stair-4" x="1255" y="325.009" width="100" height="220" fill="#3B3C41"/>
<rect id="b-1-stair-3" opacity="0.2" x="785" y="325" width="100" height="220" fill="#9CD9BC"/>
<rect id="b-1-stair-1" opacity="0.2" x="1925" y="219" width="160" height="122" fill="#9CD9BC"/>
<rect id="b-1-enter" opacity="0.2" x="2085" y="225" width="94" height="111" fill="#9CD9BC"/>
<rect id="b-109" x="2020" y="5" width="125" height="220" fill="#3B3C41"/>
<path id="b-108" d="M1845 5H2020V225H1845V100H1745V50V5H1845Z" fill="#3B3C41"/>
<path id="b-107" d="M1255 5H1545V135H1645V180V225H1545H1255V5Z" fill="#3B3C41"/>
<rect id="b-106" x="1255" y="5" width="220" height="370" transform="rotate(90 1255 5)" fill="#3B3C41"/>
<path id="b-105a" d="M560 4.99999L560 120L885 120L885 168L885 225L725 225L642.5 225L560 225L433 225L369 225L305 225L305 4.99999L560 4.99999Z" fill="#3B3C41"/>
<rect id="b-105" x="785" y="225" width="100" height="275" transform="rotate(90 785 225)" fill="#3B3C41"/>
<rect id="b-104" x="885" y="325" width="115" height="220" fill="#3B3C41"/>
<rect id="b-103" x="1000" y="325" width="140" height="220" fill="#3B3C41"/>
<rect id="b-102" x="1140" y="325" width="115" height="220" fill="#3B3C41"/>
<path id="b-101" d="M1925 325L1925 590L2145 590L2145 675L1845 675L1845 325L1925 325Z" fill="#3B3C41"/>
</g>
<g id="Walls">
<path id="Subtract" fill-rule="evenodd" clip-rule="evenodd" d="M1742 170V225H1748V170H1742ZM1742 140H1748V5H1742V140Z" fill="#A5A5A7"/>
<path id="Subtract_2" fill-rule="evenodd" clip-rule="evenodd" d="M1542 193V222H1548V193H1542ZM1542 163H1548V97H1542V163Z" fill="#A5A5A7"/>
<path id="Subtract_3" fill-rule="evenodd" clip-rule="evenodd" d="M557 120V5H563V117H625V123H560H557V120ZM790 123H655V117H790V123ZM820 123H885V117H820V123Z" fill="#A5A5A7"/>
<path id="Subtract_4" fill-rule="evenodd" clip-rule="evenodd" d="M302 189V225H308V189H302ZM302 159H308V5H302V159Z" fill="#A5A5A7"/>
<path id="Subtract_5" fill-rule="evenodd" clip-rule="evenodd" d="M1845 97H1745V103H1842V160H1848V100V97H1845ZM1848 190H1842V222H1848V190Z" fill="#A5A5A7"/>
<path id="Vector 211" d="M1545 5L1545 135L1645 135" stroke="#A5A5A7" stroke-width="6"/>
<path id="Vector 358" d="M2000 590V475H1925" stroke="#A5A5A7" stroke-width="6"/>
<path id="Vector 364" d="M1950 820H2040" stroke="#A5A5A7" stroke-width="6"/>
<path id="Subtract_6" fill-rule="evenodd" clip-rule="evenodd" d="M1897 675V740V743H1900H1996V737H1903V675H1897ZM2026 737V743H2040V737H2026Z" fill="#A5A5A7"/>
<path id="Vector 363" d="M1950 865V740" stroke="#A5A5A7" stroke-width="6"/>
<path id="Subtract_7" fill-rule="evenodd" clip-rule="evenodd" d="M1977 723V740H1983V723H1977ZM1977 693H1983V675H1977V693Z" fill="#A5A5A7"/>
<path id="Subtract_8" fill-rule="evenodd" clip-rule="evenodd" d="M2080 772H2079L2078.2 772.6L2072.33 777.001L2075.9 781.823L2081 778H2145V772H2080ZM2051.9 799.823L2048.33 795.002L2038.2 802.6L2041.8 807.4L2051.9 799.823Z" fill="#A5A5A7"/>
<path id="Subtract_9" fill-rule="evenodd" clip-rule="evenodd" d="M2037 777V865H2043V777H2037ZM2037 747H2043V675H2037V747Z" fill="#A5A5A7"/>
<path id="Vector 232" d="M1925 335L2145 335" stroke="#D9D9D9" stroke-width="10"/>
<path id="Vector 226" d="M785 325L785 550" stroke="#D9D9D9" stroke-width="10"/>
<path id="Vector 365" d="M1645 5V225" stroke="#D9D9D9" stroke-width="10"/>
<path id="Vector 348" d="M2020 5V225" stroke="#D9D9D9" stroke-width="10"/>
<path id="Subtract_10" fill-rule="evenodd" clip-rule="evenodd" d="M1250 545L1250 320L1260 320L1260 545H1250Z" fill="#D9D9D9"/>
<path id="Subtract_11" fill-rule="evenodd" clip-rule="evenodd" d="M1773 230V220H1327.91V230H1773ZM1818.91 230H2062V220H1818.91V230ZM2145 230H2107.91V220H2145V230ZM1282 230L1282 220H1255V230H1282Z" fill="#D9D9D9"/>
<path id="Vector 242" d="M1925 430H2145" stroke="#D9D9D9" stroke-width="10"/>
<path id="Vector 344" d="M885 545V325H874" stroke="#D9D9D9" stroke-width="10"/>
<path id="Vector 345" d="M1000 545V325" stroke="#D9D9D9" stroke-width="10"/>
<path id="Vector 347" d="M1140 325L1140 545" stroke="#D9D9D9" stroke-width="10"/>
<path id="Subtract_12" fill-rule="evenodd" clip-rule="evenodd" d="M1282 330V320H1280.14H1277.86H1275.59H1273.32H1271.05H1268.79H1266.53H1264.27H1262.02H1259.77H1257.53H1255.29H1253.05H1250.81H1248.58H1246.35H1244.13H1241.9H1239.69H1237.47H1235.26H1233.05H1230.85H1228.64H1226.45H1224.25H1222.06H1219.87H1217.68H1215.5H1213.32H1211.15H1208.97H1207V330H1208.97H1211.15H1213.32H1215.5H1217.68H1219.87H1222.06H1224.25H1226.45H1228.64H1230.85H1233.05H1235.26H1237.47H1239.69H1241.9H1244.13H1246.35H1248.58H1250.81H1253.05H1255.29H1257.53H1259.77H1262.02H1264.27H1266.53H1268.79H1271.05H1273.32H1275.59H1277.86H1280.14H1282ZM1328 330H1328.82H1331.18H1333.54H1335.91H1338.28H1340.66H1343.04H1345.42H1347.81H1350.2H1352.6H1355V320H1352.6H1350.2H1347.81H1345.42H1343.04H1340.66H1338.28H1335.91H1333.54H1331.18H1328.82H1328V330ZM1047 320V330H1045.73H1043.75H1041.78H1039.81H1037.84H1035.87H1033.9H1031.93H1029.97H1028H1026.04H1024.08H1022.13H1020.17H1018.22H1016.26H1014.31H1012.36H1010.41H1008.47H1006.52H1004.58H1002.63H1000.69H998.754H996.816H994.88H992.945H991.011H989.079H987.148H985.218H983.29H981.363H979.437H977.512H975.589H973.667H971.746H969.827H967.909H966V320H967.909H969.827H971.746H973.667H975.589H977.512H979.437H981.363H983.29H985.218H987.148H989.079H991.011H992.945H994.88H996.816H998.754H1000.69H1002.63H1004.58H1006.52H1008.47H1010.41H1012.36H1014.31H1016.26H1018.22H1020.17H1022.13H1024.08H1026.04H1028H1029.97H1031.93H1033.9H1035.87H1037.84H1039.81H1041.78H1043.75H1045.73H1047ZM1093.76 330H1093V320H1093.76H1095.78H1097.81H1099.85H1101.88H1103.92H1105.95H1107.99H1110.04H1112.08H1114.13H1116.18H1118.23H1120.29H1122.35H1124.4H1126.47H1128.53H1130.6H1132.67H1134.74H1136.82H1138.89H1140.97H1143.05H1145.14H1147.23H1149.32H1151.41H1153.51H1155.6H1157.7H1159.81H1161V330H1159.81H1157.7H1155.6H1153.51H1151.41H1149.32H1147.23H1145.14H1143.05H1140.97H1138.89H1136.82H1134.74H1132.67H1130.6H1128.53H1126.47H1124.4H1122.35H1120.29H1118.23H1116.18H1114.13H1112.08H1110.04H1107.99H1105.95H1103.92H1101.88H1099.85H1097.81H1095.78H1093.76ZM920 320V330H918.397H916.505H914.613H912.722H910.832H908.943H907.054H905.166H903.279H901.392H899.505H897.62H895.735H893.85H891.967H890.083H888.2H886.318H884.436H882.555H880.674H878.793H876.913H875.034H873.376V320H875.034H876.913H878.793H880.674H882.555H884.436H886.318H888.2H890.083H891.967H893.85H895.735H897.62H899.505H901.392H903.279H905.166H907.054H908.943H910.832H912.722H914.613H916.505H918.397H920ZM793.525 330V320H792.482H790.603H788.725H786.846H784.966H783.087H781.207H779.326H777.445H775.564H773.682H771.8H769.917H768.033H766.15H764.265H762.38H760.495H758.608H756.722H754.834H752.946H751.057H749.168H747.278H745.387H743.496H741.603H739.71H737.816H735.922H734.026H732.13H730.233H728.335H726.437H724.537H722.636H720.735H718.832H716.929H715.025H713.119H711.213H709.306H707.397H705.488H703.578H701.666H699.753H697.84H695.925H694.009H692.092H690.173H688.254H686.333H684.411H682.488H680.563H678.637H676.71H674.782H672.852H670.921H668.989H667.055H665.12H663.184H661.246H659.306H657.366H655.423H653.479H651.534H649.587H647.639H645.689H643.738H641.785H639.83H637.874H635.916H633.957H631.996H630.033H628.068H626.102H624.134H622.165H620.193H618.22H616.245H614.268H612.29H610.309H608.327H606.343H604.357H602.369H600.379H598.387H596.393H594.398H592.4H590.4H588.399H586.395H584.389H582.381H580.371H578.359H576.345H574.329H572.311H570.29H568.267H566.243H564.215H562.186H560.155H558.121H556.085H554.046H552.006H549.963H547.917H545.869H543.819H541.767H539.712H537.655H535.595H533.533H531.468H529.401H527.332H525.26H523.185H521.108H519.028H516.946H514.861H512.773H510.683H508.59H506.495H504.397H502.296H500.193H498.086H495.977H493.866H491.751H489.634H487.514H485.391H483.265H481.137H479.005H476.871H474.734H472.593H470.45H468.304H466.155H464.003H461.848H459.69H457.529H455.365H453.198H451.028H448.855H446.678H444.499H442.316H440.13H437.941H435.749H433.554H431.355H429.153H426.948H424.74H422.528H420.313H418.095H415.874H413.649H411.42H409.189H406.953H404.715H402.473H400.228H397.979H395.726H393.471H391.211H388.948H386.682H384.412H382.138H379.861H377.581H375.296H373.008H370.716H368.421H366.122H363.819H361.513H359.203H356.889H354.571H352.25H349.924H347.595H345.262H342.925H340.585H338.24H335.892H333.539H331.183H328.823H326.459H324.091H321.718H319.342H316.962H314.578H312.189H309.797H307.401H305V330H307.401H309.797H312.189H314.578H316.962H319.342H321.718H324.091H326.459H328.823H331.183H333.539H335.892H338.24H340.585H342.925H345.262H347.595H349.924H352.25H354.571H356.889H359.203H361.513H363.819H366.122H368.421H370.716H373.008H375.296H377.581H379.861H382.138H384.412H386.682H388.948H391.211H393.471H395.726H397.979H400.228H402.473H404.715H406.953H409.189H411.42H413.649H415.874H418.095H420.313H422.528H424.74H426.948H429.153H431.355H433.554H435.749H437.941H440.13H442.316H444.499H446.678H448.855H451.028H453.198H455.365H457.529H459.69H461.848H464.003H466.155H468.304H470.45H472.593H474.734H476.871H479.005H481.137H483.265H485.391H487.514H489.634H491.751H493.866H495.977H498.086H500.193H502.296H504.397H506.495H508.59H510.683H512.773H514.861H516.946H519.028H521.108H523.185H525.26H527.332H529.401H531.468H533.533H535.595H537.655H539.712H541.767H543.819H545.869H547.917H549.963H552.006H554.046H556.085H558.121H560.155H562.186H564.215H566.243H568.267H570.29H572.311H574.329H576.345H578.359H580.371H582.381H584.389H586.395H588.399H590.4H592.4H594.398H596.393H598.387H600.379H602.369H604.357H606.343H608.327H610.309H612.29H614.268H616.245H618.22H620.193H622.165H624.134H626.102H628.068H630.033H631.996H633.957H635.916H637.874H639.83H641.785H643.738H645.689H647.639H649.587H651.534H653.479H655.423H657.366H659.306H661.246H663.184H665.12H667.055H668.989H670.921H672.852H674.782H676.71H678.637H680.563H682.488H684.411H686.333H688.254H690.173H692.092H694.009H695.925H697.84H699.753H701.666H703.578H705.488H707.397H709.306H711.213H713.119H715.025H716.929H718.832H720.735H722.636H724.537H726.437H728.335H730.233H732.13H734.026H735.922H737.816H739.71H741.603H743.496H745.387H747.278H749.168H751.057H752.946H754.834H756.722H758.608H760.495H762.38H764.265H766.15H768.033H769.917H771.8H773.682H775.564H777.445H779.326H781.207H783.087H784.966H786.846H788.725H790.603H792.482H793.525Z" fill="#D9D9D9"/>
<path id="Subtract_13" fill-rule="evenodd" clip-rule="evenodd" d="M1862 330L1862 320H1845V330H1862ZM1908 330H1925V320H1908V330Z" fill="#D9D9D9"/>
<path id="Subtract_14" fill-rule="evenodd" clip-rule="evenodd" d="M1920 312.142L1920 595H1930L1930 312.097L1920 312.142ZM1920 239.055L1930 239.009L1930 225H1920L1920 239.055Z" fill="#D9D9D9"/>
<path id="Subtract_15" fill-rule="evenodd" clip-rule="evenodd" d="M1860 680L1860 670H1845V680H1860ZM1890 680H1910V670H1890V680ZM1989 670V680H1940V670H1989ZM2145 680H2019V670H2145V680Z" fill="#D9D9D9"/>
<path id="Subtract_16" fill-rule="evenodd" clip-rule="evenodd" d="M1260 225V5H1250V225H1260Z" fill="#D9D9D9"/>
<path id="Vector 351" d="M190 5V225H297.5H405V330" stroke="#D9D9D9" stroke-width="10"/>
<path id="Subtract_17" fill-rule="evenodd" clip-rule="evenodd" d="M2056 595V585H1986V595H2056ZM2102 595H2145V585H2102V595ZM1940 585L1940 595H1920V585H1940Z" fill="#D9D9D9"/>
<path id="Subtract_18" fill-rule="evenodd" clip-rule="evenodd" d="M2150 605V555H2140V605H2150ZM2150 651H2140V865H2150V651Z" fill="#D9D9D9"/>
<path id="Subtract_19" fill-rule="evenodd" clip-rule="evenodd" d="M785 220H812V230H790V250H780V225V220H785ZM780 296V325H790V296H780ZM890 230H858V220H890V230Z" fill="#D9D9D9"/>
<path id="Subtract_20" fill-rule="evenodd" clip-rule="evenodd" d="M507 290V325H513V290H507ZM507 260H513V225H507V260Z" fill="#A5A5A7"/>
<path id="Vector 352" d="M785 225H220" stroke="#D9D9D9" stroke-width="10"/>
<path id="Vector 355" d="M700 5V120" stroke="#A5A5A7" stroke-width="6"/>
<path id="Subtract_21" fill-rule="evenodd" clip-rule="evenodd" d="M5 0H0V5V865V870H5H305H310V865V330H780V545V550H785H1355H1360V545V330H1840V865V870H1845H2705H2710V865V555V550H2705H2150V340H2175H2180V335V318H2170V330H2145H2140V335V555V560H2145H2700V860H1850V325V320H1845H1355H1350V325V540H790V325V320H785H305H300V325V860H10V10H2140V225V230H2145H2170V238H2180V225V220H2175H2150V5V0H2145H5Z" fill="#D9D9D9"/>
<path id="Subtract_22" fill-rule="evenodd" clip-rule="evenodd" d="M890 5V220H1162V230H885H880V225V5H890ZM1208 230H1255V220H1208V230Z" fill="#D9D9D9"/>
</g>
<g id="Textes">
<text id="&#208;&#177; 109" fill="#D9D9D9" xml:space="preserve" style="white-space: pre" font-family="GothamSSm" font-size="24" font-weight="bold" letter-spacing="0em"><tspan x="2056.32" y="123.8">&#x411; 109</tspan></text>
<text id="&#208;&#177; 108" fill="#D9D9D9" xml:space="preserve" style="white-space: pre" font-family="GothamSSm" font-size="24" font-weight="bold" letter-spacing="0em"><tspan x="1856.39" y="123.8">&#x411; 108</tspan></text>
<text id="&#208;&#177; 107" fill="#D9D9D9" xml:space="preserve" style="white-space: pre" font-family="GothamSSm" font-size="24" font-weight="bold" letter-spacing="0em"><tspan x="1425.07" y="123.8">&#x411; 107</tspan></text>
<text id="&#208;&#177; 101" fill="#D9D9D9" xml:space="preserve" style="white-space: pre" font-family="GothamSSm" font-size="24" font-weight="bold" letter-spacing="0em"><tspan x="1861.13" y="517.8">&#x411; 101</tspan></text>
<text id="&#208;&#177; 106" fill="#D9D9D9" xml:space="preserve" style="white-space: pre" font-family="GothamSSm" font-size="24" font-weight="bold" letter-spacing="0em"><tspan x="1044.3" y="122.8">&#x411; 106</tspan></text>
<text id="&#208;&#177; 105&#208;&#176;" fill="#D9D9D9" xml:space="preserve" style="white-space: pre" font-family="GothamSSm" font-size="24" font-weight="bold" letter-spacing="0em"><tspan x="562.438" y="175.8">&#x411; 105&#x410;</tspan></text>
<text id="&#208;&#177; 105" fill="#D9D9D9" xml:space="preserve" style="white-space: pre" font-family="GothamSSm" font-size="24" font-weight="bold" letter-spacing="0em"><tspan x="622.293" y="283.8">&#x411; 105</tspan></text>
<text id="&#208;&#177; 104" fill="#D9D9D9" xml:space="preserve" style="white-space: pre" font-family="GothamSSm" font-size="24" font-weight="bold" letter-spacing="0em"><tspan x="917.125" y="442.8">&#x411; 104</tspan></text>
<text id="&#208;&#177; 103" fill="#D9D9D9" xml:space="preserve" style="white-space: pre" font-family="GothamSSm" font-size="24" font-weight="bold" letter-spacing="0em"><tspan x="1044.47" y="442.8">&#x411; 103</tspan></text>
<text id="&#208;&#177; 102" fill="#D9D9D9" xml:space="preserve" style="white-space: pre" font-family="GothamSSm" font-size="24" font-weight="bold" letter-spacing="0em"><tspan x="1172.36" y="442.8">&#x411; 102</tspan></text>
</g>
<g id="Entrances">
<circle id="4" cx="1305" cy="225" r="10" fill="#9CBBFF"/>
<circle id="13" cx="1184" cy="225" r="10" fill="#9CBBFF"/>
<circle id="14" cx="835" cy="225" r="10" fill="#9CBBFF"/>
<circle id="15" cx="785" cy="275" r="10" fill="#9CBBFF"/>
<circle id="16" cx="943" cy="325" r="10" fill="#9CBBFF"/>
<circle id="17" cx="1184" cy="325" r="10" fill="#9CBBFF"/>
<circle id="21" cx="1068" cy="325" r="10" fill="#9CBBFF"/>
<circle id="11" cx="835" cy="325" r="10" fill="#9CBBFF"/>
<circle id="5" cx="1796" cy="225" r="10" fill="#9CBBFF"/>
<circle id="19" cx="2085" cy="224" r="10" fill="#9CBBFF"/>
<circle id="20" cx="1925" cy="275" r="10" fill="#9CBBFF"/>
<circle id="22" cx="2179" cy="275" r="10" fill="#9CBBFF"/>
<circle id="12" cx="1885" cy="325" r="10" fill="#9CBBFF"/>
</g>
<g id="Icons">
<g id="Stair">
<g id="Stair frame">
<path id="Vector 152" d="M875 413H850V428H835V443H820V458H795" stroke="#9CD9BC" stroke-width="5" stroke-linecap="round" stroke-linejoin="round"/>
<path id="Vector 154" d="M807 413H822M822 413L819 427M822 413L795 434" stroke="#9CD9BC" stroke-width="3" stroke-linecap="round" stroke-linejoin="round"/>
<path id="Vector 155" d="M863 458H848M848 458L851 444M848 458L875 437" stroke="#9CD9BC" stroke-width="3" stroke-linecap="round" stroke-linejoin="round"/>
</g>
</g>
<g id="Stair_2">
<g id="Stair frame_2">
<path id="Vector 152_2" d="M2045 258H2020V273H2005V288H1990V303H1965" stroke="#9CD9BC" stroke-width="5" stroke-linecap="round" stroke-linejoin="round"/>
<path id="Vector 154_2" d="M1977 258H1992M1992 258L1989 272M1992 258L1965 279" stroke="#9CD9BC" stroke-width="3" stroke-linecap="round" stroke-linejoin="round"/>
<path id="Vector 155_2" d="M2033 303H2018M2018 303L2021 289M2018 303L2045 282" stroke="#9CD9BC" stroke-width="3" stroke-linecap="round" stroke-linejoin="round"/>
</g>
</g>
<g id="Enter">
<path id="Rectangle 242" d="M2137 266V256H2101V304H2137V292.5" stroke="#9CD9BC" stroke-width="5" stroke-linecap="round" stroke-linejoin="round"/>
<g id="Group 26">
<path id="Vector 325" d="M2150 279.5H2118.3M2118.3 279.5L2128.3 273M2118.3 279.5L2128.3 286" stroke="#D9D9D9" stroke-width="3" stroke-miterlimit="1" stroke-linecap="round" stroke-linejoin="round"/>
</g>
</g>
</g>
</g>
<defs>
<clipPath id="clip0_2001_822">
<rect width="2710" height="870" fill="white"/>
</clipPath>
</defs>
</svg>
