<svg width="2150" height="870" viewBox="0 0 2150 870" fill="none" xmlns="http://www.w3.org/2000/svg">
<g id="B-2" clip-path="url(#clip0_2001_696)">
<g id="Spaces">
<rect id="b" x="1745" y="5" width="100" height="220" fill="#3B3C41"/>
<rect id="!b" x="1255" y="5" width="390" height="220" fill="#3B3C41"/>
<rect id="Rectangle 104" x="885" y="325" width="115" height="220" fill="#3B3C41"/>
<path id="Rectangle 105" d="M1000 325H1140H1255V411V461H1140V545H1000V325Z" fill="#3B3C41"/>
<rect id="Rectangle 106" x="1140" y="460" width="115" height="85" fill="#3B3C41"/>
<rect id="Rectangle 100" x="1925" y="450" width="110" height="180" fill="#3B3C41"/>
<rect id="Rectangle 101" x="2035" y="450" width="110" height="180" fill="#3B3C41"/>
<rect id="Rectangle 102" x="1845" y="630" width="125" height="235" fill="#3B3C41"/>
<rect id="Rectangle 103" x="1970" y="630" width="175" height="235" fill="#3B3C41"/>
<rect id="!Rectangle 97" x="885" y="5" width="370" height="220" fill="#3B3C41"/>
<path id="!Rectangle 95" d="M5 5H200V120H130V220H220V325H304V865H5V5Z" fill="#3B3C41"/>
<rect id="b-208" x="1845" y="5" width="300" height="219.998" fill="#3B3C41"/>
<rect id="b-207" x="1645" y="5" width="100" height="220" fill="#3B3C41"/>
<rect id="b-201a" x="1845" y="425" width="80" height="205" fill="#3B3C41"/>
<path id="b-201" d="M1925 335H2145V450H1925V425H1845V375V325H1925V335Z" fill="#3B3C41"/>
<path id="b-food" opacity="0.2" d="M200 5H885V225H785V325H220V220H130V166V120H200V5Z" fill="#F0B771"/>
<rect id="!b-2-stair-4" x="1255" y="325.009" width="100" height="220" fill="#3B3C41"/>
<rect id="!b-2-stair-3" x="785" y="325" width="100" height="220" fill="#3B3C41"/>
<rect id="b-2-stair-1" opacity="0.2" x="1925" y="225" width="220" height="110" fill="#9CD9BC"/>
</g>
<g id="Walls">
<path id="Subtract" fill-rule="evenodd" clip-rule="evenodd" d="M1842 210V225H1848V210H1842ZM1842 180H1848V5H1842V180Z" fill="#A5A5A7"/>
<path id="Subtract_2" fill-rule="evenodd" clip-rule="evenodd" d="M1157 51V120V123H1160H1255V117H1163V51H1157ZM1157 21H1163V5H1157V21Z" fill="#A5A5A7"/>
<path id="Subtract_3" fill-rule="evenodd" clip-rule="evenodd" d="M1967.01 720L1967.03 865L1973.03 865L1973.01 720H1967.01ZM1967.01 690H1973.01L1973 630L1967 630L1967.01 690Z" fill="#A5A5A7"/>
<path id="Subtract_4" fill-rule="evenodd" clip-rule="evenodd" d="M2032 565V630H2038V565H2032ZM2032 535H2038V450H2032V535Z" fill="#A5A5A7"/>
<path id="Subtract_5" fill-rule="evenodd" clip-rule="evenodd" d="M1862 428L1862 422H1845V428H1862ZM1908 428H1925V422H1908V428Z" fill="#A5A5A7"/>
<path id="Vector 232" d="M1925 335L2145 335" stroke="#D9D9D9" stroke-width="10"/>
<path id="Vector 226" d="M785 325L785 550" stroke="#D9D9D9" stroke-width="10"/>
<path id="Vector 211" d="M1645 5V225" stroke="#D9D9D9" stroke-width="10"/>
<path id="Vector 212" d="M1745 10V230" stroke="#D9D9D9" stroke-width="10"/>
<path id="Subtract_6" fill-rule="evenodd" clip-rule="evenodd" d="M1250 545L1250 320L1260 320L1260 545H1250Z" fill="#D9D9D9"/>
<path id="Subtract_7" fill-rule="evenodd" clip-rule="evenodd" d="M1861.53 230V220H1717.91L1717.91 230H1861.53ZM1907.44 230H2145V220H1907.44V230ZM1672 220V230H1487.23V220H1672ZM1441.31 230V220H1255V230H1441.31Z" fill="#D9D9D9"/>
<path id="Vector 329" d="M2145 5H5V865H305V325H785V545H1355V325H1845V865H2145V5Z" stroke="#D9D9D9" stroke-width="10"/>
<path id="Vector 242" d="M1925 450H2145" stroke="#D9D9D9" stroke-width="10"/>
<path id="Subtract_8" fill-rule="evenodd" clip-rule="evenodd" d="M785 220H780V225V250H790V230H890V220H785ZM790 296H780V325H790V296Z" fill="#D9D9D9"/>
<path id="Vector 343" d="M1255 225H885V5" stroke="#D9D9D9" stroke-width="10"/>
<path id="Vector 344" d="M885 545V325H874" stroke="#D9D9D9" stroke-width="10"/>
<path id="Vector 345" d="M1000 545V325" stroke="#D9D9D9" stroke-width="10"/>
<path id="Vector 347" d="M1140 325V390" stroke="#D9D9D9" stroke-width="10"/>
<path id="Subtract_9" fill-rule="evenodd" clip-rule="evenodd" d="M1282 330V320H1281.49H1279.01H1276.54H1274.08H1271.62H1269.16H1266.71H1264.26H1261.81H1259.37H1256.93H1254.49H1252.06H1249.64H1247.21H1244.79H1242.38H1239.96H1237.56H1235.15H1232.75H1230.35H1227.96H1225.57H1223.18H1220.8H1218.42H1216.04H1213.67H1211.3H1208.93H1207V330H1208.93H1211.3H1213.67H1216.04H1218.42H1220.8H1223.18H1225.57H1227.96H1230.35H1232.75H1235.15H1237.56H1239.96H1242.38H1244.79H1247.21H1249.64H1252.06H1254.49H1256.93H1259.37H1261.81H1264.26H1266.71H1269.16H1271.62H1274.08H1276.54H1279.01H1281.49H1282ZM1328 330H1329.25H1331.8H1334.36H1336.93H1339.5H1342.07H1344.65H1347.23H1349.81H1352.41H1355V320H1352.41H1349.81H1347.23H1344.65H1342.07H1339.5H1336.93H1334.36H1331.8H1329.25H1328V330ZM1161 320V330H1160.01H1157.71H1155.42H1153.13H1150.85H1148.56H1146.28H1144.01H1141.73H1139.46H1137.19H1134.93H1132.67H1130.41H1128.15H1125.9H1123.65H1121.4H1119.15H1116.91H1114.67H1112.43H1110.2H1107.97H1105.74H1103.51H1101.29H1099.07H1096.85H1094.63H1092.42H1090.21H1088H1085.79H1083.59H1081.39H1079.19H1076.99H1074.8H1072.61H1070.42H1068.23H1066.05H1063.87H1061.69H1059.51H1057.34H1055.16H1052.99H1050.83H1048.66H1046.5H1044.33H1042.17H1040.02H1037.86H1035.71H1033.56H1031.41H1029.26H1027.12H1024.98H1022.83H1020.7H1018.56H1016.42H1014.29H1012.16H1010.03H1007.9H1005.78H1003.65H1001.53H999.413H997.295H995.179H993.064H990.952H988.84H986.731H984.623H982.517H980.413H978.31H976.209H974.11H972.012H969.915H967.821H966V320H967.821H969.915H972.012H974.11H976.209H978.31H980.413H982.517H984.623H986.731H988.84H990.952H993.064H995.179H997.295H999.413H1001.53H1003.65H1005.78H1007.9H1010.03H1012.16H1014.29H1016.42H1018.56H1020.7H1022.83H1024.98H1027.12H1029.26H1031.41H1033.56H1035.71H1037.86H1040.02H1042.17H1044.33H1046.5H1048.66H1050.83H1052.99H1055.16H1057.34H1059.51H1061.69H1063.87H1066.05H1068.23H1070.42H1072.61H1074.8H1076.99H1079.19H1081.39H1083.59H1085.79H1088H1090.21H1092.42H1094.63H1096.85H1099.07H1101.29H1103.51H1105.74H1107.97H1110.2H1112.43H1114.67H1116.91H1119.15H1121.4H1123.65H1125.9H1128.15H1130.41H1132.67H1134.93H1137.19H1139.46H1141.73H1144.01H1146.28H1148.56H1150.85H1153.13H1155.42H1157.71H1160.01H1161ZM920 330V320H917.965H915.903H913.842H911.783H909.724H907.667H905.61H903.555H901.501H899.447H897.395H895.343H893.293H891.243H889.194H887.146H885.099H883.053H881.007H878.963H876.919H874.876H873.376V330H874.876H876.919H878.963H881.007H883.053H885.099H887.146H889.194H891.243H893.293H895.343H897.395H899.447H901.501H903.555H905.61H907.667H909.724H911.783H913.842H915.903H917.965H920ZM793.526 320L793.525 330H791.553H789.527H787.5H785.473H783.447H781.42H779.393H777.367H775.34H773.313H771.286H769.258H767.231H765.203H763.175H761.148H759.119H757.091H755.062H753.033H751.004H748.974H746.944H744.914H742.883H740.852H738.821H736.789H734.757H732.724H730.691H728.657H726.623H724.588H722.553H720.517H718.481H716.444H714.406H712.368H710.329H708.289H706.249H704.208H702.167H700.124H698.081H696.037H693.993H691.947H689.901H687.854H685.806H683.757H681.707H679.657H677.605H675.553H673.499H671.445H669.39H667.333H665.276H663.217H661.158H659.097H657.035H654.972H652.908H650.843H648.777H646.71H644.641H642.571H640.5H638.427H636.354H634.279H632.203H630.125H628.046H625.966H623.884H621.801H619.717H617.631H615.544H613.455H611.365H609.273H607.179H605.085H602.988H600.89H598.791H596.69H594.587H592.483H590.377H588.269H586.16H584.048H581.936H579.821H577.705H575.587H573.467H571.345H569.222H567.096H564.969H562.84H560.709H558.576H556.441H554.304H552.166H550.025H547.882H545.737H543.59H541.442H539.291H537.138H534.982H532.825H530.666H528.504H526.341H524.175H522.006H519.836H517.663H515.489H513.311H511.132H508.95H506.766H504.58H502.391H500.2H498.006H495.81H493.611H491.411H489.207H487.001H484.793H482.582H480.368H478.152H475.934H473.713H471.489H469.262H467.033H464.802H462.567H460.33H458.09H455.848H453.602H451.354H449.103H446.85H444.593H442.334H440.072H437.807H435.539H433.268H430.994H428.717H426.437H424.155H421.869H419.58H417.289H414.994H412.696H410.395H408.091H405.784H403.474H401.161H398.844H396.524H394.201H391.875H389.546H387.213H384.877H382.538H380.195H377.849H375.5H373.148H370.792H368.432H366.07H363.703H361.334H358.961H356.584H354.204H351.82H349.433H347.043H344.648H342.25H339.849H337.444H335.035H332.623H330.207H327.787H325.364H322.936H320.506H318.071H315.632H313.19H310.744H308.294H305.841H303.383H300.921H298.456H295.987H293.514H291.036H288.555H286.07H283.581H281.088H278.591H276.089H273.584H271.075H268.561H266.043H263.522H260.996H258.465H255.931H253.393H250.85H248.303H245.751H243.196H240.636H238.072H235.503H232.93H230.353H227.771H225.185H222.595H220V320H222.595H225.185H227.771H230.353H232.93H235.503H238.072H240.636H243.196H245.751H248.303H250.85H253.393H255.931H258.465H260.996H263.522H266.043H268.561H271.075H273.584H276.089H278.591H281.088H283.581H286.07H288.555H291.036H293.514H295.987H298.456H300.921H303.383H305.841H308.294H310.744H313.19H315.632H318.071H320.506H322.936H325.364H327.787H330.207H332.623H335.035H337.444H339.849H342.25H344.648H347.043H349.433H351.82H354.204H356.584H358.961H361.334H363.703H366.07H368.432H370.792H373.148H375.5H377.849H380.195H382.538H384.877H387.213H389.546H391.875H394.201H396.524H398.844H401.161H403.474H405.784H408.091H410.395H412.696H414.994H417.289H419.58H421.869H424.155H426.437H428.717H430.994H433.268H435.539H437.807H440.072H442.334H444.593H446.85H449.103H451.354H453.602H455.848H458.09H460.33H462.567H464.802H467.033H469.262H471.489H473.713H475.934H478.152H480.368H482.582H484.793H487.001H489.207H491.411H493.611H495.81H498.006H500.2H502.391H504.58H506.766H508.95H511.132H513.311H515.489H517.663H519.836H522.006H524.175H526.341H528.504H530.666H532.825H534.982H537.138H539.291H541.442H543.59H545.737H547.882H550.025H552.166H554.304H556.441H558.576H560.709H562.84H564.969H567.096H569.222H571.345H573.467H575.587H577.705H579.821H581.936H584.048H586.16H588.269H590.377H592.483H594.587H596.69H598.791H600.89H602.988H605.085H607.179H609.273H611.365H613.455H615.544H617.631H619.717H621.801H623.884H625.966H628.046H630.125H632.203H634.279H636.354H638.427H640.5H642.571H644.641H646.71H648.777H650.843H652.908H654.972H657.035H659.097H661.158H663.217H665.276H667.333H669.39H671.445H673.499H675.553H677.605H679.657H681.707H683.757H685.806H687.854H689.901H691.947H693.993H696.037H698.081H700.124H702.167H704.208H706.249H708.289H710.329H712.368H714.406H716.444H718.481H720.517H722.553H724.588H726.623H728.657H730.691H732.724H734.757H736.789H738.821H740.852H742.883H744.914H746.944H748.974H751.004H753.033H755.062H757.091H759.119H761.148H763.175H765.203H767.231H769.258H771.286H773.313H775.34H777.367H779.393H781.42H783.447H785.473H787.5H789.527H791.553H793.526Z" fill="#D9D9D9"/>
<path id="Subtract_10" fill-rule="evenodd" clip-rule="evenodd" d="M1193 465V455H1140H1135V460V545H1145V465H1193ZM1239 465H1255V455H1239V465Z" fill="#D9D9D9"/>
<path id="Subtract_11" fill-rule="evenodd" clip-rule="evenodd" d="M1825 315.102V325H1835V315.019L1825 315.102ZM1825 235.099L1835 235.017V225H1825V235.099Z" fill="#D9D9D9"/>
<path id="Subtract_12" fill-rule="evenodd" clip-rule="evenodd" d="M1862 330L1862 320H1845V330H1862ZM1908 330H1925V320H1908V330Z" fill="#D9D9D9"/>
<path id="Subtract_13" fill-rule="evenodd" clip-rule="evenodd" d="M1920 315.061L1920 363H1930L1930 315.011L1920 315.061ZM1920 479L1920 393H1930L1930 479H1920ZM1920 509L1920 630H1930L1930 509H1920ZM1920 235.06L1930 235.01V225H1920V235.06Z" fill="#D9D9D9"/>
<path id="Subtract_14" fill-rule="evenodd" clip-rule="evenodd" d="M1871 635L1871 625H1845V635H1871ZM1901 635H2095V625H1901V635ZM2145 635H2125V625H2145V635Z" fill="#D9D9D9"/>
<path id="Subtract_15" fill-rule="evenodd" clip-rule="evenodd" d="M1260 160V5H1250V160H1260ZM1260 190H1250V230H1260V190Z" fill="#D9D9D9"/>
<path id="Subtract_16" fill-rule="evenodd" clip-rule="evenodd" d="M205 5V120V125H200H190V115H195V5H205ZM130 115H144L144 125H135V215H220H225V220V252H215V225H130H125V220V120V115H130ZM215 298V330H225V298H215Z" fill="#D9D9D9"/>
</g>
<g id="Textes">
<text id="&#208;&#177; 207" fill="#D9D9D9" xml:space="preserve" style="white-space: pre" font-family="GothamSSm" font-size="24" font-weight="bold" letter-spacing="0em"><tspan x="1668.28" y="123.8">&#x411; 207</tspan></text>
<text id="&#208;&#177; 208" fill="#D9D9D9" xml:space="preserve" style="white-space: pre" font-family="GothamSSm" font-size="24" font-weight="bold" letter-spacing="0em"><tspan x="1968.1" y="122.8">&#x411; 208</tspan></text>
<text id="&#208;&#177; 201" fill="#D9D9D9" xml:space="preserve" style="white-space: pre" font-family="GothamSSm" font-size="24" font-weight="bold" letter-spacing="0em"><tspan x="2009.34" y="395.8">&#x411; 201</tspan></text>
<text id="&#208;&#177; 201&#208;&#176;" fill="#D9D9D9" xml:space="preserve" style="white-space: pre" font-family="GothamSSm" font-size="24" font-weight="bold" letter-spacing="0em"><tspan x="1853.48" y="535.8">&#x411; 201&#x410;</tspan></text>
</g>
<g id="Entrances">
<circle id="4" cx="1925" cy="273" r="10" fill="#9CBBFF"/>
<circle id="16" cx="1885" cy="225" r="10" fill="#9CBBFF"/>
<circle id="5" cx="1695" cy="225" r="10" fill="#9CBBFF"/>
<circle id="15" cx="785" cy="273" r="10" fill="#9CBBFF"/>
<circle id="12" cx="1885" cy="325" r="10" fill="#9CBBFF"/>
<circle id="14" cx="1885" cy="425" r="10" fill="#9CBBFF"/>
</g>
<g id="Icons">
<g id="Stair">
<g id="Stair frame">
<path id="Vector 152" d="M2075 258H2050V273H2035V288H2020V303H1995" stroke="#9CD9BC" stroke-width="5" stroke-linecap="round" stroke-linejoin="round"/>
<path id="Vector 154" d="M2007 258H2022M2022 258L2019 272M2022 258L1995 279" stroke="#9CD9BC" stroke-width="3" stroke-linecap="round" stroke-linejoin="round"/>
<path id="Vector 155" d="M2063 303H2048M2048 303L2051 289M2048 303L2075 282" stroke="#9CD9BC" stroke-width="3" stroke-linecap="round" stroke-linejoin="round"/>
</g>
</g>
<g id="Food">
<g id="Group 22">
<path id="Vector 291" d="M500 190L500 140" stroke="#F0B771" stroke-width="4" stroke-linecap="round" stroke-linejoin="round"/>
<path id="Vector 302" d="M515 190L515 140" stroke="#F0B771" stroke-width="4" stroke-linecap="round" stroke-linejoin="round"/>
<path id="Vector 303" d="M515 140C518 140 522.5 145 522 154C521.583 161.5 518 167 515 167" stroke="#F0B771" stroke-width="4" stroke-linecap="round" stroke-linejoin="round"/>
</g>
<path id="Vector 305" d="M501 158C504 158 506 157 506 151V140" stroke="#F0B771" stroke-width="4" stroke-linecap="round" stroke-linejoin="round"/>
<path id="Vector 306" d="M499 158C496 158 494 157 494 151V140" stroke="#F0B771" stroke-width="4" stroke-linecap="round" stroke-linejoin="round"/>
</g>
</g>
</g>
<defs>
<clipPath id="clip0_2001_696">
<rect width="2150" height="870" fill="white"/>
</clipPath>
</defs>
</svg>
