<svg width="2180" height="870" viewBox="0 0 2180 870" fill="none" xmlns="http://www.w3.org/2000/svg">
<g id="B-3" clip-path="url(#clip0_2001_562)">
<g id="Spaces">
<rect id="!b-3-wc" x="5" y="755" width="300" height="110" fill="#3B3C41"/>
<rect id="b-3-wcm" opacity="0.2" x="1845" y="755" width="300" height="110" fill="#9CBBFF"/>
<rect id="b-3-wcw" opacity="0.2" x="1925" y="635.003" width="220" height="119.999" fill="#F783CB"/>
<rect id="b-311" x="595" y="5" width="290" height="219.998" fill="#3B3C41"/>
<rect id="b-310" x="305" y="5" width="290" height="219.998" fill="#3B3C41"/>
<rect id="b-309" x="5" y="5" width="300" height="219.998" fill="#3B3C41"/>
<rect id="b-308" x="5" y="225" width="220" height="290" fill="#3B3C41"/>
<rect id="b-307" x="5" y="515" width="220" height="139.998" fill="#3B3C41"/>
<rect id="b-306" x="1845" y="5" width="300" height="219.998" fill="#3B3C41"/>
<rect id="b-305" x="1735" y="5" width="110" height="220" fill="#3B3C41"/>
<rect id="b-304" x="1255" y="5" width="480" height="219.998" fill="#3B3C41"/>
<rect id="b-303" x="885" y="5" width="370" height="540" fill="#3B3C41"/>
<rect id="b-302" x="1925" y="535.004" width="220" height="99.9989" fill="#3B3C41"/>
<rect id="b-301" x="1925" y="334.996" width="220" height="199.998" fill="#3B3C41"/>
<rect id="!b-3-stair-4" x="1255" y="325.009" width="100" height="220" fill="#3B3C41"/>
<rect id="b-3-stair-3" opacity="0.2" x="785" y="325" width="100" height="220" fill="#9CD9BC"/>
<rect id="!b-3-stair-2" x="5" y="655.009" width="220" height="100" fill="#3B3C41"/>
<rect id="b-3-stair-1" opacity="0.2" x="1925" y="225" width="140" height="110" fill="#9CD9BC"/>
<rect id="b-3-crossing" opacity="0.2" x="2065" y="225" width="110" height="110" fill="#9CD9BC"/>
</g>
<g id="Textes">
<text id="t-b412" fill="#D9D9D9" xml:space="preserve" style="white-space: pre" font-family="GothamSSm" font-size="24" font-weight="bold" letter-spacing="0em"><tspan x="718.059" y="123.809">&#x411; 311</tspan></text>
<text id="t-b411" fill="#D9D9D9" xml:space="preserve" style="white-space: pre" font-family="GothamSSm" font-size="24" font-weight="bold" letter-spacing="0em"><tspan x="425.375" y="123.809">&#x411; 310</tspan></text>
<text id="t-b410" fill="#D9D9D9" xml:space="preserve" style="white-space: pre" font-family="GothamSSm" font-size="24" font-weight="bold" letter-spacing="0em"><tspan x="128.16" y="123.809">&#x411; 309</tspan></text>
<text id="t-b409" fill="#D9D9D9" xml:space="preserve" style="white-space: pre" font-family="GothamSSm" font-size="24" font-weight="bold" letter-spacing="0em"><tspan x="88.2305" y="378.8">&#x411; 308</tspan></text>
<text id="t-b409_2" fill="#D9D9D9" xml:space="preserve" style="white-space: pre" font-family="GothamSSm" font-size="24" font-weight="bold" letter-spacing="0em"><tspan x="88.4102" y="592.8">&#x411; 307</tspan></text>
<text id="t-b407" fill="#D9D9D9" xml:space="preserve" style="white-space: pre" font-family="GothamSSm" font-size="24" font-weight="bold" letter-spacing="0em"><tspan x="1968.14" y="122.8">&#x411; 306</tspan></text>
<text id="t-b406" fill="#D9D9D9" xml:space="preserve" style="white-space: pre" font-family="GothamSSm" font-size="24" font-weight="bold" letter-spacing="0em"><tspan x="1763.13" y="122.8">&#x411; 305</tspan></text>
<text id="t-b405" fill="#D9D9D9" xml:space="preserve" style="white-space: pre" font-family="GothamSSm" font-size="24" font-weight="bold" letter-spacing="0em"><tspan x="1467.46" y="122.8">&#x411; 304</tspan></text>
<text id="t-b404" fill="#D9D9D9" xml:space="preserve" style="white-space: pre" font-family="GothamSSm" font-size="24" font-weight="bold" letter-spacing="0em"><tspan x="1043.3" y="283.809">&#x411; 303</tspan></text>
<text id="t-b401" fill="#D9D9D9" xml:space="preserve" style="white-space: pre" font-family="GothamSSm" font-size="24" font-weight="bold" letter-spacing="0em"><tspan x="2008.2" y="593.8">&#x411; 302</tspan></text>
<text id="t-b400" fill="#D9D9D9" xml:space="preserve" style="white-space: pre" font-family="GothamSSm" font-size="24" font-weight="bold" letter-spacing="0em"><tspan x="2010.47" y="442.8">&#x411; 301</tspan></text>
</g>
<g id="Walls">
<path id="Subtract" fill-rule="evenodd" clip-rule="evenodd" d="M172 851V865H178V851H172ZM172 821H178V755H172V821Z" fill="#A5A5A7"/>
<path id="Subtract_2" fill-rule="evenodd" clip-rule="evenodd" d="M1947 851V865H1953V851H1947ZM1947 821H1953V755H1947V821Z" fill="#A5A5A7"/>
<path id="Vector 232" d="M1925 335H2175" stroke="#D9D9D9" stroke-width="10"/>
<path id="Vector 242" d="M1925 535H2145" stroke="#D9D9D9" stroke-width="10"/>
<path id="Vector 243" d="M1925 635H2145" stroke="#D9D9D9" stroke-width="10"/>
<path id="Vector 207" d="M305 5V225" stroke="#D9D9D9" stroke-width="10"/>
<path id="Vector 208" d="M595 5V225" stroke="#D9D9D9" stroke-width="10"/>
<path id="Vector 226" d="M785 325V545" stroke="#D9D9D9" stroke-width="10"/>
<path id="Vector 211" d="M1735 5V225" stroke="#D9D9D9" stroke-width="10"/>
<path id="Vector 212" d="M1845 5V225" stroke="#D9D9D9" stroke-width="10"/>
<path id="Vector 220" d="M5 515H225" stroke="#D9D9D9" stroke-width="10"/>
<path id="Vector 221" d="M5 655H225" stroke="#D9D9D9" stroke-width="10"/>
<path id="Vector 230" d="M2145 225H2175" stroke="#D9D9D9" stroke-width="10"/>
<path id="Subtract_3" fill-rule="evenodd" clip-rule="evenodd" d="M517 230V220H288V230H517ZM563 230H800V220H563V230ZM885 230H846V220H885V230ZM242 230V220H5V230H242Z" fill="#D9D9D9"/>
<path id="Subtract_4" fill-rule="evenodd" clip-rule="evenodd" d="M1250 545V298.009H1260V545H1250ZM1260 252.009V5H1250V252.009H1260Z" fill="#D9D9D9"/>
<path id="Subtract_5" fill-rule="evenodd" clip-rule="evenodd" d="M880 298.009V545.009H890V298.009H880ZM880 252.009H890V5.00928H880V252.009Z" fill="#D9D9D9"/>
<path id="Subtract_6" fill-rule="evenodd" clip-rule="evenodd" d="M240 750H5V760H240V750ZM270 760H305V750H270V760Z" fill="#D9D9D9"/>
<path id="Subtract_7" fill-rule="evenodd" clip-rule="evenodd" d="M172 322H5V328H172V322ZM202 328H225V322H202V328Z" fill="#A5A5A7"/>
<path id="Subtract_8" fill-rule="evenodd" clip-rule="evenodd" d="M1265 330L1265 320H1255V330H1265ZM1345 330H1845V320H1345V330Z" fill="#D9D9D9"/>
<path id="Subtract_9" fill-rule="evenodd" clip-rule="evenodd" d="M1920 672.009V608.009H1930V672.009H1920ZM1920 718.009V755H1930V718.009H1920ZM1930 562.009H1920V508.009H1930V562.009ZM1920 320.009V462.009H1930V320.009H1920ZM1920 240.009V225H1930V240.009L1920 240.009Z" fill="#D9D9D9"/>
<path id="Subtract_10" fill-rule="evenodd" clip-rule="evenodd" d="M220 298.009V588.009H230V298.009H220ZM220 679V634.009H230V679H220ZM220 725V755H230V725H220ZM220 252.009L230 252.009V225H220V252.009Z" fill="#D9D9D9"/>
<path id="Subtract_11" fill-rule="evenodd" clip-rule="evenodd" d="M795 330.009V320.009H288V330.009H795ZM875 330.009H885V320.009H875V330.009ZM242 320.009L242 330.009H225V320.009H242Z" fill="#D9D9D9"/>
<path id="Subtract_12" fill-rule="evenodd" clip-rule="evenodd" d="M1862 760L1862 750H1845V760H1862ZM1908 760H2145V750H1908V760Z" fill="#D9D9D9"/>
<path id="Subtract_13" fill-rule="evenodd" clip-rule="evenodd" d="M5 0H0V5V865V870H5H305H310V865V330.99L780 330.01V545V550H785H1355H1360V545V330H1839.01L1840 865.009L1840.01 870H1845H2145H2150V865V340H2175H2180V335V321H2170V330H2145H2140V335V860H1849.99L1849 324.991L1848.99 320H1844H1355H1350V325V540H790V325V319.99L784.99 320L304.99 321L300 321.01V326V860H10V10H2140V225V230H2145H2170V241H2180V225V220H2175H2150V5V0H2145H5Z" fill="#D9D9D9"/>
<path id="Subtract_14" fill-rule="evenodd" clip-rule="evenodd" d="M1865 230V220H1813V230H1865ZM1911 230H2145V220H1911V230ZM1767 220V230H1355V220H1767ZM1309 230V220H1255V230H1309Z" fill="#D9D9D9"/>
</g>
<g id="Entrances">
<circle id="1" cx="1925" cy="485" r="10" fill="#9CBBFF"/>
<circle id="2" cx="1925" cy="585" r="10" fill="#9CBBFF"/>
<circle id="18" cx="1925" cy="695" r="10" fill="#9CBBFF"/>
<circle id="19" cx="1887" cy="755" r="10" fill="#9CBBFF"/>
<circle id="3" cx="1925" cy="275" r="10" fill="#9CBBFF"/>
<circle id="20" cx="2175" cy="275" r="10" fill="#9CBBFF"/>
<circle id="4" cx="1887" cy="224" r="10" fill="#9CBBFF"/>
<circle id="6" cx="1332" cy="224" r="10" fill="#9CBBFF"/>
<circle id="10" cx="823" cy="224" r="10" fill="#9CBBFF"/>
<circle id="11" cx="835" cy="325" r="10" fill="#9CBBFF"/>
<circle id="12" cx="540" cy="224" r="10" fill="#9CBBFF"/>
<circle id="13" cx="265" cy="224" r="10" fill="#9CBBFF"/>
<circle id="14" cx="225" cy="275" r="10" fill="#9CBBFF"/>
<circle id="16" cx="225" cy="611" r="10" fill="#9CBBFF"/>
<circle id="9" cx="885" cy="275" r="10" fill="#9CBBFF"/>
<circle id="5" cx="1790" cy="225" r="10" fill="#9CBBFF"/>
</g>
<g id="Icons">
<g id="Stair">
<g id="Stair frame">
<path id="Vector 152" d="M875 413H850V428H835V443H820V458H795" stroke="#9CD9BC" stroke-width="5" stroke-linecap="round" stroke-linejoin="round"/>
<path id="Vector 154" d="M807 413H822M822 413L819 427M822 413L795 434" stroke="#9CD9BC" stroke-width="3" stroke-linecap="round" stroke-linejoin="round"/>
<path id="Vector 155" d="M863 458H848M848 458L851 444M848 458L875 437" stroke="#9CD9BC" stroke-width="3" stroke-linecap="round" stroke-linejoin="round"/>
</g>
</g>
<g id="Stair_2">
<g id="Stair frame_2">
<path id="Vector 152_2" d="M2046 258H2021V273H2006V288H1991V303H1966" stroke="#9CD9BC" stroke-width="5" stroke-linecap="round" stroke-linejoin="round"/>
<path id="Vector 154_2" d="M1978 258H1993M1993 258L1990 272M1993 258L1966 279" stroke="#9CD9BC" stroke-width="3" stroke-linecap="round" stroke-linejoin="round"/>
<path id="Vector 155_2" d="M2034 303H2019M2019 303L2022 289M2019 303L2046 282" stroke="#9CD9BC" stroke-width="3" stroke-linecap="round" stroke-linejoin="round"/>
</g>
</g>
<g id="Men">
<g id="Group 6">
<path id="Vector 200" d="M1905.5 833.5L1914 812H1886L1894.5 833.5" stroke="#9CBBFF" stroke-width="5" stroke-linecap="round" stroke-linejoin="round"/>
<circle id="Ellipse 9" cx="1900" cy="794" r="8" stroke="#9CBBFF" stroke-width="5" stroke-linecap="round" stroke-linejoin="round"/>
</g>
</g>
<g id="Woman">
<g id="Group 5">
<path id="Vector 200_2" d="M2040.5 697L2049 718.5H2021L2029.5 697" stroke="#F783CB" stroke-width="5" stroke-linecap="round" stroke-linejoin="round"/>
<circle id="Ellipse 9_2" cx="2035" cy="679" r="8" stroke="#F783CB" stroke-width="5" stroke-linecap="round" stroke-linejoin="round"/>
</g>
</g>
<g id="&#208;&#161;rossing">
<g id="Group 24">
<path id="Vector 320" d="M2082.24 262.5H2138" stroke="#9CD9BC" stroke-width="5" stroke-linecap="round"/>
<path id="Vector 323" d="M2082 287.5H2138" stroke="#9CD9BC" stroke-width="5" stroke-linecap="round"/>
</g>
<g id="Group 25">
<circle id="Ellipse 36" cx="2098.5" cy="275" r="1.5" fill="#D9D9D9"/>
<circle id="Ellipse 32" cx="2074.5" cy="275" r="1.5" fill="#D9D9D9"/>
<circle id="Ellipse 37" cx="2104.5" cy="275" r="1.5" fill="#D9D9D9"/>
<circle id="Ellipse 33" cx="2080.5" cy="275" r="1.5" fill="#D9D9D9"/>
<circle id="Ellipse 38" cx="2110.5" cy="275" r="1.5" fill="#D9D9D9"/>
<circle id="Ellipse 34" cx="2086.5" cy="275" r="1.5" fill="#D9D9D9"/>
<circle id="Ellipse 39" cx="2116.5" cy="275" r="1.5" fill="#D9D9D9"/>
<circle id="Ellipse 35" cx="2092.5" cy="275" r="1.5" fill="#D9D9D9"/>
<circle id="Ellipse 40" cx="2122.5" cy="275" r="1.5" fill="#D9D9D9"/>
</g>
<path id="Vector 325" d="M2129.5 275H2155.5M2155.5 275L2145.5 268.5M2155.5 275L2145.5 281.5" stroke="#D9D9D9" stroke-width="3" stroke-miterlimit="1" stroke-linecap="round" stroke-linejoin="round"/>
</g>
</g>
</g>
<defs>
<clipPath id="clip0_2001_562">
<rect width="2180" height="870" fill="white"/>
</clipPath>
</defs>
</svg>
