<svg width="1520" height="625" viewBox="0 0 1520 625" fill="none" xmlns="http://www.w3.org/2000/svg">
<g id="PK-2-4" clip-path="url(#clip0_1_1592)">
<g id="Spaces">
<rect id="pk-2-4-wcm" opacity="0.2" x="380" y="340" width="100" height="215" fill="#9CBBFF"/>
<rect id="pk-2-4-stair-2" opacity="0.2" x="1160" y="360" width="140" height="260" fill="#9CD9BC"/>
<rect id="pk-2-4-stair-1" opacity="0.2" x="250" y="360" width="130" height="260" fill="#9CD9BC"/>
<rect id="pk-421" x="480" y="340" width="300" height="215" fill="#3B3C41"/>
<rect id="pk-421a" x="780" y="340" width="125" height="215" fill="#3B3C41"/>
<rect id="pk-421b" x="905" y="340" width="125" height="215" fill="#3B3C41"/>
<rect id="pk-425a" x="1030" y="340" width="130" height="215" fill="#3B3C41"/>
<rect id="pk-420" x="1300" y="305" width="215" height="315" fill="#3B3C41"/>
<path id="pk-419" d="M1300 5H1515V305H1300V5Z" fill="#3B3C41"/>
<rect id="pk-425" x="640" y="5" width="390" height="240" fill="#3B3C41"/>
<rect id="pk-424" x="250" y="5" width="390" height="240" fill="#3B3C41"/>
<rect id="pk-423" x="5" y="5" width="245" height="300" fill="#3B3C41"/>
<rect id="pk-422" x="5" y="305" width="245" height="315" fill="#3B3C41"/>
<rect id="!pk-2-4-lift-2" x="1095" y="160" width="65" height="85" fill="#3B3C41"/>
<rect id="!pk-2-4-lift-1" x="1030" y="160" width="65" height="85" fill="#3B3C41"/>
</g>
<g id="Walls">
<path id="Subtract" fill-rule="evenodd" clip-rule="evenodd" d="M737 187V245H743V187H737ZM737 157H743V5H737V157Z" fill="#A5A5A7"/>
<path id="Subtract_2" fill-rule="evenodd" clip-rule="evenodd" d="M347 180.732V245H353V180.732H347ZM347 150.607H353V5H347V150.607Z" fill="#A5A5A7"/>
<path id="Vector 309" d="M1300 305L1515 305" stroke="#D9D9D9" stroke-width="10"/>
<path id="Vector 311" d="M5 305H250" stroke="#D9D9D9" stroke-width="10"/>
<path id="Vector 317" d="M640 5V245" stroke="#D9D9D9" stroke-width="10"/>
<path id="Vector 323" d="M780 340V555" stroke="#D9D9D9" stroke-width="10"/>
<path id="Vector 329" d="M905 340V555" stroke="#D9D9D9" stroke-width="10"/>
<path id="Vector 324" d="M1030 340V555" stroke="#D9D9D9" stroke-width="10"/>
<path id="Vector 319" d="M1030 5V245" stroke="#D9D9D9" stroke-width="10"/>
<path id="Vector 327" d="M1095 159L1095 245" stroke="#D9D9D9" stroke-width="10"/>
<path id="Subtract_3" fill-rule="evenodd" clip-rule="evenodd" d="M245 620V354.927H255V620H245ZM255 310H245V298H255V310ZM255 252H245V5H255V252Z" fill="#D9D9D9"/>
<path id="Subtract_4" fill-rule="evenodd" clip-rule="evenodd" d="M1155 325V555H1165V325H1155ZM1155 260L1165 260V245H1155V260Z" fill="#D9D9D9"/>
<path id="Subtract_5" fill-rule="evenodd" clip-rule="evenodd" d="M1187 250V240H1013V250H1187ZM1267 250H1300V240H1267V250ZM967 240V250H632V240H967ZM586 250V240H323V250H586ZM277 240L277 250H250V240H277Z" fill="#D9D9D9"/>
<path id="Subtract_6" fill-rule="evenodd" clip-rule="evenodd" d="M1057 345V335H978V345H1057ZM1103 345H1160V335H1103V345ZM932 335V345H853V335H932ZM807 345V335H743V345H807ZM697 335V345H463L463 335H697ZM417 345V335H380V345H417Z" fill="#D9D9D9"/>
<path id="Subtract_7" fill-rule="evenodd" clip-rule="evenodd" d="M465 423H480V417H465V423ZM435 423V417H380V423H435Z" fill="#A5A5A7"/>
<path id="Vector 321" d="M480 340V555" stroke="#D9D9D9" stroke-width="10"/>
<path id="Subtract_8" fill-rule="evenodd" clip-rule="evenodd" d="M1155 164.948H1025V154.948H1160H1165V159.948V245H1155V164.948Z" fill="#D9D9D9"/>
<path id="Vneshnyi kontur" d="M5 620V5H1515V620H1160V555H380V620H5Z" stroke="#D9D9D9" stroke-width="10"/>
<path id="Subtract_9" fill-rule="evenodd" clip-rule="evenodd" d="M270 354H250V364H270V354ZM350 364L380 364V354H350V364Z" fill="#D9D9D9"/>
<path id="Subtract_10" fill-rule="evenodd" clip-rule="evenodd" d="M1190 355H1160V365H1190V355ZM1270 365H1300V355H1270V365Z" fill="#D9D9D9"/>
<path id="Subtract_11" fill-rule="evenodd" clip-rule="evenodd" d="M1295 620V355H1305V620H1295ZM1305 310H1295V298H1305V310ZM1305 252H1295V5H1305V252Z" fill="#D9D9D9"/>
<path id="Subtract_12" fill-rule="evenodd" clip-rule="evenodd" d="M375 326V555H385V326H375ZM375 261L385 261V245H375V261Z" fill="#D9D9D9"/>
</g>
<g id="Textes">
<text id="text 1" fill="#D9D9D9" xml:space="preserve" style="white-space: pre" font-family="GothamSSm" font-size="24" font-weight="bold" letter-spacing="0em"><tspan x="1375.13" y="161.8">&#x41f;&#x41a; 419</tspan></text>
<text id="text 2" fill="#D9D9D9" xml:space="preserve" style="white-space: pre" font-family="GothamSSm" font-size="24" font-weight="bold" letter-spacing="0em"><tspan x="1375.21" y="471.8">&#x41f;&#x41a; 420</tspan></text>
<text id="text 3" fill="#D9D9D9" xml:space="preserve" style="white-space: pre" font-family="GothamSSm" font-size="24" font-weight="bold" letter-spacing="0em"><tspan x="805.035" y="456.8">&#x41f;&#x41a; 421&#x410;</tspan></text>
<text id="text 7" fill="#D9D9D9" xml:space="preserve" style="white-space: pre" font-family="GothamSSm" font-size="24" font-weight="bold" letter-spacing="0em"><tspan x="90.0977" y="471.8">&#x41f;&#x41a; 422</tspan></text>
<text id="text 8" fill="#D9D9D9" xml:space="preserve" style="white-space: pre" font-family="GothamSSm" font-size="24" font-weight="bold" letter-spacing="0em"><tspan x="90.2266" y="161.8">&#x41f;&#x41a; 423</tspan></text>
<text id="text 4" fill="#D9D9D9" xml:space="preserve" style="white-space: pre" font-family="GothamSSm" font-size="24" font-weight="bold" letter-spacing="0em"><tspan x="930.016" y="456.8">&#x41f;&#x41a; 421&#x411;</tspan></text>
<text id="text 5" fill="#D9D9D9" xml:space="preserve" style="white-space: pre" font-family="GothamSSm" font-size="24" font-weight="bold" letter-spacing="0em"><tspan x="1055.29" y="456.8">&#x41f;&#x41a; 425&#x410;</tspan></text>
<text id="text 9" fill="#D9D9D9" xml:space="preserve" style="white-space: pre" font-family="GothamSSm" font-size="24" font-weight="bold" letter-spacing="0em"><tspan x="460.129" y="131.8">&#x41f;&#x41a; 424</tspan></text>
<text id="text 10" fill="#D9D9D9" xml:space="preserve" style="white-space: pre" font-family="GothamSSm" font-size="24" font-weight="bold" letter-spacing="0em"><tspan x="850.145" y="131.8">&#x41f;&#x41a; 425</tspan></text>
<text id="text6" fill="#D9D9D9" xml:space="preserve" style="white-space: pre" font-family="GothamSSm" font-size="24" font-weight="bold" letter-spacing="0em"><tspan x="600.391" y="456.8">&#x41f;&#x41a; 421</tspan></text>
</g>
<g id="Entrances">
<circle id="16" cx="1300" cy="275" r="10" fill="#9CBBFF"/>
<circle id="17" cx="1300" cy="332" r="10" fill="#9CBBFF"/>
<circle id="21" cx="1230" cy="447" r="10" fill="#9CBBFF"/>
<circle id="3" cx="1080" cy="340" r="10" fill="#9CBBFF"/>
<circle id="2" cx="990" cy="245" r="10" fill="#9CBBFF"/>
<circle id="4" cx="955" cy="340" r="10" fill="#9CBBFF"/>
<circle id="5" cx="830" cy="340" r="10" fill="#9CBBFF"/>
<circle id="6" cx="720" cy="340" r="10" fill="#9CBBFF"/>
<circle id="7" cx="440" cy="340" r="10" fill="#9CBBFF"/>
<circle id="20" cx="310" cy="447" r="10" fill="#9CBBFF"/>
<circle id="8" cx="250" cy="332" r="10" fill="#9CBBFF"/>
<circle id="9" cx="250" cy="275" r="10" fill="#9CBBFF"/>
<circle id="1" cx="300" cy="245" r="10" fill="#9CBBFF"/>
</g>
<g id="Icons">
<g id="Men">
<g id="Group 6">
<path id="Vector 200" d="M435.5 503.5L444 482H416L424.5 503.5" stroke="#9CBBFF" stroke-width="5" stroke-linecap="round" stroke-linejoin="round"/>
<circle id="Ellipse 9" cx="430" cy="464" r="8" stroke="#9CBBFF" stroke-width="5" stroke-linecap="round" stroke-linejoin="round"/>
</g>
</g>
<g id="Doors">
<path id="Vector 301" d="M304 351L276 358H270" stroke="#A5A5A7" stroke-width="6"/>
<path id="Vector 302" d="M316 351L344 358H350" stroke="#A5A5A7" stroke-width="6"/>
</g>
<g id="Doors_2">
<path id="Vector 301_2" d="M1224 351L1196 358H1190" stroke="#A5A5A7" stroke-width="6"/>
<path id="Vector 302_2" d="M1236 351L1264 358H1270" stroke="#A5A5A7" stroke-width="6"/>
</g>
<g id="Stair">
<g id="Stair frame">
<path id="Vector 152" d="M355 468H330V483H315V498H300V513H275" stroke="#9CD9BC" stroke-width="5" stroke-linecap="round" stroke-linejoin="round"/>
<path id="Vector 154" d="M287 468H302M302 468L299 482M302 468L275 489" stroke="#9CD9BC" stroke-width="3" stroke-linecap="round" stroke-linejoin="round"/>
<path id="Vector 155" d="M343 513H328M328 513L331 499M328 513L355 492" stroke="#9CD9BC" stroke-width="3" stroke-linecap="round" stroke-linejoin="round"/>
</g>
</g>
<g id="Stair_2">
<g id="Stair frame_2">
<path id="Vector 152_2" d="M1269 468H1244V483H1229V498H1214V513H1189" stroke="#9CD9BC" stroke-width="5" stroke-linecap="round" stroke-linejoin="round"/>
<path id="Vector 154_2" d="M1201 468H1216M1216 468L1213 482M1216 468L1189 489" stroke="#9CD9BC" stroke-width="3" stroke-linecap="round" stroke-linejoin="round"/>
<path id="Vector 155_2" d="M1257 513H1242M1242 513L1245 499M1242 513L1269 492" stroke="#9CD9BC" stroke-width="3" stroke-linecap="round" stroke-linejoin="round"/>
</g>
</g>
<g id="Doors_3">
<path id="Vector 301_3" d="M1233 254L1261 247L1267 247" stroke="#A5A5A7" stroke-width="6"/>
<path id="Vector 302_3" d="M1221 254L1193 247L1187 247" stroke="#A5A5A7" stroke-width="6"/>
</g>
</g>
</g>
<defs>
<clipPath id="clip0_1_1592">
<rect width="1520" height="625" fill="white"/>
</clipPath>
</defs>
</svg>
