<svg width="1520" height="625" viewBox="0 0 1520 625" fill="none" xmlns="http://www.w3.org/2000/svg">
<g id="PK-2-3" clip-path="url(#clip0_1_1345)">
<g id="Spaces">
<rect id="pk-2-3-wcm" opacity="0.2" x="380" y="340" width="100" height="215" fill="#9CBBFF"/>
<rect id="pk-2-3-stair-2" opacity="0.2" x="1160" y="360" width="140" height="260" fill="#9CD9BC"/>
<rect id="pk-2-3-stair-1" opacity="0.2" x="250" y="360" width="130" height="260" fill="#9CD9BC"/>
<rect id="pk-321a" x="480" y="340" width="160" height="215" fill="#3B3C41"/>
<rect id="pk-321" x="640" y="340" width="140" height="215" fill="#3B3C41"/>
<rect id="pk-321v" x="780" y="340" width="210" height="215" fill="#3B3C41"/>
<rect id="pk-321b" x="990" y="340" width="170" height="215" fill="#3B3C41"/>
<rect id="pk-320" x="1300" y="305" width="215" height="315" fill="#3B3C41"/>
<path id="pk-319" d="M1300 5H1515V305H1300V5Z" fill="#3B3C41"/>
<rect id="pk-325" x="640" y="5" width="390" height="240" fill="#3B3C41"/>
<rect id="pk-324" x="250" y="5" width="390" height="240" fill="#3B3C41"/>
<rect id="pk-323" x="5" y="5" width="155" height="299" fill="#3B3C41"/>
<rect id="pk-322" x="5" y="305" width="245" height="315" fill="#3B3C41"/>
<rect id="!pk-2-3-lift-2" x="1095" y="160" width="65" height="85" fill="#3B3C41"/>
<rect id="!pk-2-3-lift-1" x="1030" y="160" width="65" height="85" fill="#3B3C41"/>
</g>
<g id="Textes">
<text id="text 1" fill="#D9D9D9" xml:space="preserve" style="white-space: pre" font-family="GothamSSm" font-size="24" font-weight="bold" letter-spacing="0em"><tspan x="1376.22" y="163.8">&#x41f;&#x41a; 319</tspan></text>
<text id="text 2" fill="#D9D9D9" xml:space="preserve" style="white-space: pre" font-family="GothamSSm" font-size="24" font-weight="bold" letter-spacing="0em"><tspan x="1373.49" y="470.8">&#x41f;&#x41a; 320</tspan></text>
<text id="text 3" fill="#D9D9D9" xml:space="preserve" style="white-space: pre" font-family="GothamSSm" font-size="24" font-weight="bold" letter-spacing="0em"><tspan x="678.176" y="455.8">&#x41f;&#x41a; 321</tspan></text>
<text id="text 7" fill="#D9D9D9" xml:space="preserve" style="white-space: pre" font-family="GothamSSm" font-size="24" font-weight="bold" letter-spacing="0em"><tspan x="94.3828" y="470.8">&#x41f;&#x41a; 322</tspan></text>
<text id="text 8" fill="#D9D9D9" xml:space="preserve" style="white-space: pre" font-family="GothamSSm" font-size="24" font-weight="bold" letter-spacing="0em"><tspan x="49.0117" y="162.8">&#x41f;&#x41a; 323</tspan></text>
<text id="text 4" fill="#D9D9D9" xml:space="preserve" style="white-space: pre" font-family="GothamSSm" font-size="24" font-weight="bold" letter-spacing="0em"><tspan x="847.207" y="455.8">&#x41f;&#x41a; 321&#x412;</tspan></text>
<text id="text 5" fill="#D9D9D9" xml:space="preserve" style="white-space: pre" font-family="GothamSSm" font-size="24" font-weight="bold" letter-spacing="0em"><tspan x="1037.3" y="455.8">&#x41f;&#x41a; 321&#x411;</tspan></text>
<text id="text 9" fill="#D9D9D9" xml:space="preserve" style="white-space: pre" font-family="GothamSSm" font-size="24" font-weight="bold" letter-spacing="0em"><tspan x="411.414" y="133.8">&#x41f;&#x41a; 324</tspan></text>
<text id="text 10" fill="#D9D9D9" xml:space="preserve" style="white-space: pre" font-family="GothamSSm" font-size="24" font-weight="bold" letter-spacing="0em"><tspan x="801.43" y="133.8">&#x41f;&#x41a; 325</tspan></text>
<text id="text 6" fill="#D9D9D9" xml:space="preserve" style="white-space: pre" font-family="GothamSSm" font-size="24" font-weight="bold" letter-spacing="0em"><tspan x="521.32" y="455.8">&#x41f;&#x41a; 321&#x410;</tspan></text>
</g>
<g id="Walls">
<path id="Subtract" fill-rule="evenodd" clip-rule="evenodd" d="M737 187V245H743V187H737ZM737 157H743V5H737V157Z" fill="#A5A5A7"/>
<path id="Subtract_2" fill-rule="evenodd" clip-rule="evenodd" d="M347 180.732V245H353V180.732H347ZM347 150.607H353V5H347V150.607Z" fill="#A5A5A7"/>
<path id="Vector 309" d="M1300 305L1515 305" stroke="#D9D9D9" stroke-width="10"/>
<path id="Vector 311" d="M5 305H250" stroke="#D9D9D9" stroke-width="10"/>
<path id="Vector 328" d="M250 5V255" stroke="#D9D9D9" stroke-width="10"/>
<path id="Vector 317" d="M640 5V245" stroke="#D9D9D9" stroke-width="10"/>
<path id="Vector 322" d="M640 340V555" stroke="#D9D9D9" stroke-width="10"/>
<path id="Vector 323" d="M780 340V555" stroke="#D9D9D9" stroke-width="10"/>
<path id="Vector 324" d="M990 340V555" stroke="#D9D9D9" stroke-width="10"/>
<path id="Vector 319" d="M1030 5V245" stroke="#D9D9D9" stroke-width="10"/>
<path id="Vector 320" d="M1160 245V555" stroke="#D9D9D9" stroke-width="10"/>
<path id="Vector 327" d="M1095 159L1095 245" stroke="#D9D9D9" stroke-width="10"/>
<path id="Subtract_3" fill-rule="evenodd" clip-rule="evenodd" d="M155 290V305H165V290H155ZM155 244H165V5H155V244Z" fill="#D9D9D9"/>
<path id="Subtract_4" fill-rule="evenodd" clip-rule="evenodd" d="M245 355V621H255V355H245ZM245 310H255V290H245V310Z" fill="#D9D9D9"/>
<path id="Subtract_5" fill-rule="evenodd" clip-rule="evenodd" d="M1187 250V240H1012V250H1187ZM1267 250H1300V240H1267V250ZM966 240V250H632V240H966ZM586 250V240H322V250H586ZM276 240L276 250H250V240H276Z" fill="#D9D9D9"/>
<path id="Subtract_6" fill-rule="evenodd" clip-rule="evenodd" d="M1004 345V335H940V345H1004ZM1050 345H1160V335H1050V345ZM894 335V345H756V335H894ZM710 345V335H578V345H710ZM532 335V345H465V335H532ZM419 345V335H380V345H419Z" fill="#D9D9D9"/>
<path id="Subtract_7" fill-rule="evenodd" clip-rule="evenodd" d="M465 423H480V417H465V423ZM435 423V417H380V423H435Z" fill="#A5A5A7"/>
<path id="Vector 321" d="M480 340V555" stroke="#D9D9D9" stroke-width="10"/>
<path id="Subtract_8" fill-rule="evenodd" clip-rule="evenodd" d="M1155 164.948H1025V154.948H1160H1165V159.948V245H1155V164.948Z" fill="#D9D9D9"/>
<path id="Vneshnyi kontur" d="M5 620V5H1515V620H1160V555H380V620H5Z" stroke="#D9D9D9" stroke-width="10"/>
<path id="Subtract_9" fill-rule="evenodd" clip-rule="evenodd" d="M270 355H250V365H270V355ZM350 365L380 365V355H350V365Z" fill="#D9D9D9"/>
<path id="Subtract_10" fill-rule="evenodd" clip-rule="evenodd" d="M1190 355H1160V365H1190V355ZM1270 365H1300V355H1270V365Z" fill="#D9D9D9"/>
<path id="Subtract_11" fill-rule="evenodd" clip-rule="evenodd" d="M1295 620V355H1305V620H1295ZM1305 310H1295V298H1305V310ZM1305 252H1295V5H1305V252Z" fill="#D9D9D9"/>
<path id="Subtract_12" fill-rule="evenodd" clip-rule="evenodd" d="M375 327V555H385V327H375ZM375 262L385 262V245H375V262Z" fill="#D9D9D9"/>
</g>
<g id="Entrances">
<circle id="1" cx="609" cy="245" r="10" fill="#9CBBFF"/>
<circle id="2" cx="989" cy="245" r="10" fill="#9CBBFF"/>
<circle id="17" cx="1300" cy="333" r="10" fill="#9CBBFF"/>
<circle id="22" cx="1300" cy="275" r="10" fill="#9CBBFF"/>
<circle id="3" cx="1027" cy="340" r="10" fill="#9CBBFF"/>
<circle id="4" cx="917" cy="340" r="10" fill="#9CBBFF"/>
<circle id="5" cx="733" cy="340" r="10" fill="#9CBBFF"/>
<circle id="6" cx="555" cy="340" r="10" fill="#9CBBFF"/>
<circle id="7" cx="442" cy="340" r="10" fill="#9CBBFF"/>
<circle id="8" cx="250" cy="332" r="10" fill="#9CBBFF"/>
<circle id="20" cx="310" cy="448" r="10" fill="#9CBBFF"/>
<circle id="21" cx="1230" cy="448" r="10" fill="#9CBBFF"/>
<circle id="9" cx="160" cy="273" r="10" fill="#9CBBFF"/>
</g>
<g id="Icons">
<g id="Doors">
<path id="Vector 301" d="M304 351L276 358H270" stroke="#A5A5A7" stroke-width="6"/>
<path id="Vector 302" d="M316 351L344 358H350" stroke="#A5A5A7" stroke-width="6"/>
</g>
<g id="Doors_2">
<path id="Vector 301_2" d="M1224 351L1196 358H1190" stroke="#A5A5A7" stroke-width="6"/>
<path id="Vector 302_2" d="M1236 351L1264 358H1270" stroke="#A5A5A7" stroke-width="6"/>
</g>
<g id="Stair">
<g id="Stair frame">
<path id="Vector 152" d="M352 471H327V486H312V501H297V516H272" stroke="#9CD9BC" stroke-width="5" stroke-linecap="round" stroke-linejoin="round"/>
<path id="Vector 154" d="M284 471H299M299 471L296 485M299 471L272 492" stroke="#9CD9BC" stroke-width="3" stroke-linecap="round" stroke-linejoin="round"/>
<path id="Vector 155" d="M340 516H325M325 516L328 502M325 516L352 495" stroke="#9CD9BC" stroke-width="3" stroke-linecap="round" stroke-linejoin="round"/>
</g>
</g>
<g id="Stair_2">
<g id="Stair frame_2">
<path id="Vector 152_2" d="M1270 471H1245V486H1230V501H1215V516H1190" stroke="#9CD9BC" stroke-width="5" stroke-linecap="round" stroke-linejoin="round"/>
<path id="Vector 154_2" d="M1202 471H1217M1217 471L1214 485M1217 471L1190 492" stroke="#9CD9BC" stroke-width="3" stroke-linecap="round" stroke-linejoin="round"/>
<path id="Vector 155_2" d="M1258 516H1243M1243 516L1246 502M1243 516L1270 495" stroke="#9CD9BC" stroke-width="3" stroke-linecap="round" stroke-linejoin="round"/>
</g>
</g>
<g id="Men">
<g id="Group 6">
<path id="Vector 200" d="M435.5 498.5L444 477H416L424.5 498.5" stroke="#9CBBFF" stroke-width="5" stroke-linecap="round" stroke-linejoin="round"/>
<circle id="Ellipse 9" cx="430" cy="459" r="8" stroke="#9CBBFF" stroke-width="5" stroke-linecap="round" stroke-linejoin="round"/>
</g>
</g>
<g id="Doors_3">
<path id="Vector 301_3" d="M1233 254L1261 247L1267 247" stroke="#A5A5A7" stroke-width="6"/>
<path id="Vector 302_3" d="M1221 254L1193 247L1187 247" stroke="#A5A5A7" stroke-width="6"/>
</g>
</g>
</g>
<defs>
<clipPath id="clip0_1_1345">
<rect width="1520" height="625" fill="white"/>
</clipPath>
</defs>
</svg>
