<svg width="1595" height="1485" viewBox="0 0 1595 1485" fill="none" xmlns="http://www.w3.org/2000/svg">
<g id="PK-2-1" clip-path="url(#clip0_1_956)">
<g id="Spaces">
<path id="!pk-2-1-lift-3" d="M1310 690H1380V730H1310V690Z" fill="#3B3C41"/>
<rect id="!pk-2-1-lift-2" x="1095" y="160" width="65" height="85" fill="#3B3C41"/>
<rect id="!pk-2-1-lift-1" x="1030" y="160" width="65" height="85" fill="#3B3C41"/>
<rect id="!pk-2-1-stair-3" opacity="0.2" x="1160" y="1360" width="240" height="120" fill="#9CD9BC"/>
<rect id="pk-2-1-stair-2" opacity="0.2" x="1160" y="360" width="140" height="260" fill="#9CD9BC"/>
<rect id="pk-2-1-stair-1" opacity="0.2" x="250" y="360" width="130" height="260" fill="#9CD9BC"/>
<path id="pk-2-1-knigohranilishe-1" opacity="0.2" d="M1589 1480L1590 880V685H1515V620H1370V690H1380V730H1310V690H1250V620H1160V690V880V1360H1400V1480H1589Z" fill="#F0B771"/>
<rect id="pk-2-1-wc" opacity="0.2" x="1250" y="620" width="120" height="70" fill="#9CBBFF"/>
<path id="pk-134" d="M570 340H1060V440H1160V555H480V430H570V340Z" fill="#3B3C41"/>
<path id="pk-114" d="M1300 5H1515V620H1300V5Z" fill="#3B3C41"/>
<rect id="pk-137" x="640" y="5" width="390" height="240" fill="#3B3C41"/>
<rect id="pk-136" x="250" y="5" width="390" height="240" fill="#3B3C41"/>
<rect id="pk-135" x="5" y="5" width="245" height="615" fill="#3B3C41"/>
</g>
<g id="Walls">
<path id="Subtract" fill-rule="evenodd" clip-rule="evenodd" d="M1307 730V730.344V730.688V731.033V731.379V731.725V732.073V732.421V732.769V733.119V733.469V733.82V734.171V734.524V734.876V735.23V735.584V735.939V736.295V736.651V737.008V737.365V737.723V738.082V738.441V738.801V739.162V739.523V739.885V740.247V740.61V740.974V741.338V741.703V742.068V742.434V742.8V743.167V743.535V743.903V744.271V744.641V745.01V745.38V745.751V746.122V746.494V746.866V747.239V747.612V747.986V748.36V748.734V749.109V749.485V749.861V750.237V750.614V750.991V751.369V751.747V752.126V752.505V752.884V753.264V753.644V754.025V754.405V754.787V755.168V755.551V755.933V756.316V756.699V757.082V757.466V757.85V758.235V758.62V759.005V759.39V759.776V760.162V760.548V760.935V761.322V761.709V762.097V762.484V762.872V763.261V763.649V764.038V764.427V764.816V765.206V765.595V765.985V766.375V766.766V767.156V767.547V767.938V768.329V768.72V769.112V769.503V769.895V770.287V770.679V771.071V771.464V771.856V772.249V772.642V773.035V773.428V773.821V774.214V774.607V775.001V775.394V775.788V776.181V776.575V776.969V777.363V777.756V778.15V778.544V778.938V779.332V779.726V780.12V780.515V780.909V781.303V781.697V782.091V782.485V782.879V783.273V783.667V784.061V784.455V784.849V785.243V785.636V786.03V786.424V786.817V787.211V787.604V787.997V788.39V788.784V789.176V789.569V789.962V790.355V790.747V791.139V791.532V791.924V792.316V792.707V793.099V793.49V793.881V794.273V794.663V795.054V795.444V795.835V796.225V796.615V797.004V797.394V797.783V798.172V798.56V798.949V799.337V799.725V800.113V800.5V800.887V801.274V801.66V802.047V802.433V802.818V803.204V803.589V803.973V804.358V804.742V805.125V805.509V805.892V806.274V806.657V807.039V807.42V807.801V808.182V808.563V808.943V809.322V809.701V810H1313V809.701V809.322V808.943V808.563V808.182V807.801V807.42V807.039V806.657V806.274V805.892V805.509V805.125V804.742V804.358V803.973V803.589V803.204V802.818V802.433V802.047V801.66V801.274V800.887V800.5V800.113V799.725V799.337V798.949V798.56V798.172V797.783V797.394V797.004V796.615V796.225V795.835V795.444V795.054V794.663V794.273V793.881V793.49V793.099V792.707V792.316V791.924V791.532V791.139V790.747V790.355V789.962V789.569V789.176V788.784V788.39V787.997V787.604V787.211V786.817V786.424V786.03V785.636V785.243V784.849V784.455V784.061V783.667V783.273V782.879V782.485V782.091V781.697V781.303V780.909V780.515V780.12V779.726V779.332V778.938V778.544V778.15V777.756V777.363V776.969V776.575V776.181V775.788V775.394V775.001V774.607V774.214V773.821V773.428V773.035V772.642V772.249V771.856V771.464V771.071V770.679V770.287V769.895V769.503V769.112V768.72V768.329V767.938V767.547V767.156V766.766V766.375V765.985V765.595V765.206V764.816V764.427V764.038V763.649V763.261V762.872V762.484V762.097V761.709V761.322V760.935V760.548V760.162V759.776V759.39V759.005V758.62V758.235V757.85V757.466V757.082V756.699V756.316V755.933V755.551V755.168V754.787V754.405V754.025V753.644V753.264V752.884V752.505V752.126V751.747V751.369V750.991V750.614V750.237V749.861V749.485V749.109V748.734V748.36V747.986V747.612V747.239V746.866V746.494V746.122V745.751V745.38V745.01V744.641V744.271V743.903V743.535V743.167V742.8V742.434V742.068V741.703V741.338V740.974V740.61V740.247V739.885V739.523V739.162V738.801V738.441V738.082V737.723V737.365V737.008V736.651V736.295V735.939V735.584V735.23V734.876V734.524V734.171V733.82V733.469V733.119V732.769V732.421V732.073V731.725V731.379V731.033V730.688V730.344V730H1307ZM1313 840H1307V840.194V840.517V840.839V841.16V841.48V841.8V842.118V842.435V842.752V843.067V843.382V843.696V844.008V844.32V844.631V844.941V845.249V845.557V845.864V846.17V846.475V846.779V847.082V847.384V847.685V847.985V848.283V848.581V848.878V849.174V849.468V849.762V850.055V850.346V850.637V850.926V851.214V851.502V851.788V852.073V852.357V852.639V852.921V853.202V853.481V853.759V854.036V854.312V854.587V854.861V855.134V855.405V855.675V855.944V856.212V856.479V856.744V857.009V857.272V857.534V857.794V858.054V858.312V858.569V858.825V859.079V859.332V859.584V859.835V860.085V860.333V860.58V860.825V861.07V861.313V861.555V861.795V862.034V862.272V862.509V862.744V862.978V863.21V863.441V863.671V863.9V864.127V864.353V864.577V864.8V865.022V865.242V865.461V865.678V865.894V866.109V866.322V866.534V866.744V866.953V867.161V867.367V867.572V867.775V867.977V868.177V868.376V868.573V868.769V868.963V869.156V869.347V869.537V869.725V869.912V870.097V870.281V870.464V870.644V870.823V871.001V871.177V871.352V871.524V871.696V871.866V872.034V872.2V872.365V872.529V872.691V872.851V873.01V873.167V873.322V873.476V873.628V873.778V873.927V874.074V874.22V874.363V874.506V874.646V874.785V874.922V875.057V875.191V875.323V875.453V875.582V875.709V875.834V875.957V876.079V876.199V876.317V876.434V876.548V876.661V876.772V876.882V876.989V877H1160V883H1310H1313V880H1310C1313 880 1313 880 1313 879.999V879.996V879.991V879.983V879.974V879.963V879.949V879.934V879.916V879.896V879.875V879.851V879.825V879.797V879.768V879.736V879.702V879.666V879.629V879.589V879.547V879.503V879.458V879.41V879.361V879.309V879.256V879.2V879.143V879.083V879.022V878.959V878.894V878.827V878.758V878.687V878.615V878.54V878.464V878.385V878.305V878.223V878.139V878.053V877.966V877.876V877.785V877.692V877.597V877.5V877.402V877.301V877.199V877.095V876.989V876.882V876.772V876.661V876.548V876.434V876.317V876.199V876.079V875.957V875.834V875.709V875.582V875.453V875.323V875.191V875.057V874.922V874.785V874.646V874.506V874.363V874.22V874.074V873.927V873.778V873.628V873.476V873.322V873.167V873.01V872.851V872.691V872.529V872.365V872.2V872.034V871.866V871.696V871.524V871.352V871.177V871.001V870.823V870.644V870.464V870.281V870.097V869.912V869.725V869.537V869.347V869.156V868.963V868.769V868.573V868.376V868.177V867.977V867.775V867.572V867.367V867.161V866.953V866.744V866.534V866.322V866.109V865.894V865.678V865.461V865.242V865.022V864.8V864.577V864.353V864.127V863.9V863.671V863.441V863.21V862.978V862.744V862.509V862.272V862.034V861.795V861.555V861.313V861.07V860.825V860.58V860.333V860.085V859.835V859.584V859.332V859.079V858.825V858.569V858.312V858.054V857.794V857.534V857.272V857.009V856.744V856.479V856.212V855.944V855.675V855.405V855.134V854.861V854.587V854.312V854.036V853.759V853.481V853.202V852.921V852.639V852.357V852.073V851.788V851.502V851.214V850.926V850.637V850.346V850.055V849.762V849.468V849.174V848.878V848.581V848.283V847.985V847.685V847.384V847.082V846.779V846.475V846.17V845.864V845.557V845.249V844.941V844.631V844.32V844.008V843.696V843.382V843.067V842.752V842.435V842.118V841.8V841.48V841.16V840.839V840.517V840.194V840Z" fill="#A5A5A7"/>
<path id="Subtract_2" fill-rule="evenodd" clip-rule="evenodd" d="M1190 693L1190 687H1160V693H1190ZM1220 693H1250V687H1220V693Z" fill="#A5A5A7"/>
<path id="Subtract_3" fill-rule="evenodd" clip-rule="evenodd" d="M567 540V555H573V540H567ZM567 510H573V430H567V510Z" fill="#A5A5A7"/>
<path id="Subtract_4" fill-rule="evenodd" clip-rule="evenodd" d="M430 383V377H380V383H430ZM460 383H480V377H460V383Z" fill="#A5A5A7"/>
<path id="Subtract_5" fill-rule="evenodd" clip-rule="evenodd" d="M475 418V430H481V418H475ZM475 388H481V340H475V388Z" fill="#A5A5A7"/>
<path id="Subtract_6" fill-rule="evenodd" clip-rule="evenodd" d="M408 487H380V493H408V487ZM438 493H480V487H438V493Z" fill="#A5A5A7"/>
<path id="Subtract_7" fill-rule="evenodd" clip-rule="evenodd" d="M180 500H5V506H180V500ZM210 506H250V500H210V506Z" fill="#A5A5A7"/>
<path id="Subtract_8" fill-rule="evenodd" clip-rule="evenodd" d="M740 187V245H746V187H740ZM740 157H746V5H740V157Z" fill="#A5A5A7"/>
<path id="Subtract_9" fill-rule="evenodd" clip-rule="evenodd" d="M350 180.732V245H356V180.732H350ZM350 150.607H356V5H350V150.607Z" fill="#A5A5A7"/>
<path id="Vector 317" d="M640 5V245" stroke="#D9D9D9" stroke-width="10"/>
<path id="Vector 322" d="M570 340V435" stroke="#D9D9D9" stroke-width="10"/>
<path id="Vector 319" d="M1030 5V245" stroke="#D9D9D9" stroke-width="10"/>
<path id="Vector 327" d="M1095 159L1095 245" stroke="#D9D9D9" stroke-width="10"/>
<path id="Subtract_10" fill-rule="evenodd" clip-rule="evenodd" d="M1187 250V240H1013V250H1187ZM1267 250H1300V240H1267V250ZM967 240V250H633V240H967ZM587 250V240H250V250H587Z" fill="#D9D9D9"/>
<path id="Subtract_11" fill-rule="evenodd" clip-rule="evenodd" d="M782 345V335H380V345H782ZM828 345H1094V335H828V345ZM1160 345H1140V335H1160V345Z" fill="#D9D9D9"/>
<path id="Vector 332" d="M1060 440H1160" stroke="#D9D9D9" stroke-width="10"/>
<path id="Vector 330" d="M480 430H570" stroke="#D9D9D9" stroke-width="10"/>
<path id="Vector 321" d="M480 425V555" stroke="#D9D9D9" stroke-width="10"/>
<path id="Subtract_12" fill-rule="evenodd" clip-rule="evenodd" d="M1155 164.948H1025V154.948H1160H1165V159.948V245H1155V164.948Z" fill="#D9D9D9"/>
<path id="Subtract_13" fill-rule="evenodd" clip-rule="evenodd" d="M270 355H250V365H270V355ZM350 365H380V355H350V365Z" fill="#D9D9D9"/>
<path id="Subtract_14" fill-rule="evenodd" clip-rule="evenodd" d="M1190 355H1160V365H1190V355ZM1270 365H1300V355H1270V365Z" fill="#D9D9D9"/>
<path id="Subtract_15" fill-rule="evenodd" clip-rule="evenodd" d="M245 301V620H255V301H245ZM245 255H255V5H245V255Z" fill="#D9D9D9"/>
<path id="Vector 340" d="M1250 690H1390" stroke="#D9D9D9" stroke-width="10"/>
<path id="Vector 336" d="M1250 620V695" stroke="#D9D9D9" stroke-width="10"/>
<path id="Vector 338" d="M1380 690V730H1310" stroke="#D9D9D9" stroke-width="10"/>
<path id="Subtract_16" fill-rule="evenodd" clip-rule="evenodd" d="M1055 520V555H1065V520H1055ZM1055 474H1065V340H1055V474Z" fill="#D9D9D9"/>
<path id="Vector 341" d="M1310 690V735" stroke="#D9D9D9" stroke-width="10"/>
<path id="Subtract_17" fill-rule="evenodd" clip-rule="evenodd" d="M375 405V335H385V405H375ZM375 485V555H385V485H375ZM385 255L375 255V245H385V255Z" fill="#D9D9D9"/>
<path id="Subtract_18" fill-rule="evenodd" clip-rule="evenodd" d="M1155 555V518H1165V555H1155ZM1165 472H1155V335L1165 335V472ZM1165 255L1155 255V245H1165V255Z" fill="#D9D9D9"/>
<path id="Subtract_19" fill-rule="evenodd" clip-rule="evenodd" d="M1295 340V620H1305V340H1295ZM1295 294H1305V5H1295V294Z" fill="#D9D9D9"/>
<path id="Subtract_20" fill-rule="evenodd" clip-rule="evenodd" d="M5 0H1140V10H10V615H375V555V550H380H400V560H385V620V625H380H5H0V620V5V0H5ZM446 560H1087V550H446V560ZM1155 560H1133V550H1160H1165V555V1380H1155V560ZM1155 1460V1480V1485H1160H1590H1595V1480V685V680H1590H1520V5V0H1515H1186V10H1510V685V690H1515H1585V1475H1165V1460H1155Z" fill="#D9D9D9"/>
<path id="Subtract_21" fill-rule="evenodd" clip-rule="evenodd" d="M1240 1365V1355H1160V1365H1240ZM1320 1365H1395V1480H1405V1360V1355H1400H1320V1365Z" fill="#D9D9D9"/>
<path id="Subtract_22" fill-rule="evenodd" clip-rule="evenodd" d="M1410 625V615H1160V625H1410ZM1490 625H1510V615H1490V625Z" fill="#D9D9D9"/>
<path id="Subtract_23" fill-rule="evenodd" clip-rule="evenodd" d="M1365 678V690H1375V678H1365ZM1365 632L1375 632V620H1365V632Z" fill="#D9D9D9"/>
</g>
<g id="Texts">
<text id="&#208;&#159;&#208;&#154; 136" transform="translate(445 120)" fill="#D9D9D9" xml:space="preserve" style="white-space: pre" font-family="GothamSSm" font-size="24" font-weight="bold" letter-spacing="0em"><tspan x="0.195312" y="16.8">&#x41f;&#x41a; 136</tspan></text>
<text id="&#208;&#159;&#208;&#154; 135" transform="translate(95 305)" fill="#D9D9D9" xml:space="preserve" style="white-space: pre" font-family="GothamSSm" font-size="24" font-weight="bold" letter-spacing="0em"><tspan x="0.246094" y="16.8">&#x41f;&#x41a; 135</tspan></text>
<text id="&#208;&#159;&#208;&#154; 137" transform="translate(805 120)" fill="#D9D9D9" xml:space="preserve" style="white-space: pre" font-family="GothamSSm" font-size="24" font-weight="bold" letter-spacing="0em"><tspan x="0.410156" y="16.8">&#x41f;&#x41a; 137</tspan></text>
<text id="&#208;&#159;&#208;&#154; 134" transform="translate(790 440)" fill="#D9D9D9" xml:space="preserve" style="white-space: pre" font-family="GothamSSm" font-size="24" font-weight="bold" letter-spacing="0em"><tspan x="0.0195312" y="16.8">&#x41f;&#x41a; 134</tspan></text>
<text id="&#208;&#159;&#208;&#154; 114" transform="translate(1375 278)" fill="#D9D9D9" xml:space="preserve" style="white-space: pre" font-family="GothamSSm" font-size="24" font-weight="bold" letter-spacing="0em"><tspan x="0.183594" y="16.8">&#x41f;&#x41a; 114</tspan></text>
</g>
<g id="Entrances">
<circle id="13" cx="1300" cy="317" r="10" fill="#9CBBFF"/>
<circle id="12" cx="310" cy="446" r="10" fill="#9CBBFF"/>
<circle id="11" cx="250" cy="278" r="10" fill="#9CBBFF"/>
<circle id="9" cx="1230" cy="446" r="10" fill="#9CBBFF"/>
<circle id="8" cx="805" cy="340" r="10" fill="#9CBBFF"/>
<circle id="5" cx="1450" cy="624" r="10" fill="#9CBBFF"/>
<circle id="4" cx="1370" cy="655" r="10" fill="#9CBBFF"/>
<circle id="2" cx="990" cy="245" r="10" fill="#9CBBFF"/>
<circle id="1" cx="610" cy="245" r="10" fill="#9CBBFF"/>
</g>
<g id="Icons">
<g id="Doors">
<path id="Vector 301" d="M304 351L276 358H270" stroke="#A5A5A7" stroke-width="6"/>
<path id="Vector 302" d="M316 351L344 358H350" stroke="#A5A5A7" stroke-width="6"/>
</g>
<g id="Doors_2">
<path id="Vector 301_2" d="M1224 351L1196 358H1190" stroke="#A5A5A7" stroke-width="6"/>
<path id="Vector 302_2" d="M1236 351L1264 358H1270" stroke="#A5A5A7" stroke-width="6"/>
</g>
<g id="Stair">
<g id="Stair frame">
<path id="Vector 152" d="M352 470H327V485H312V500H297V515H272" stroke="#9CD9BC" stroke-width="5" stroke-linecap="round" stroke-linejoin="round"/>
<path id="Vector 154" d="M284 470H299M299 470L296 484M299 470L272 491" stroke="#9CD9BC" stroke-width="3" stroke-linecap="round" stroke-linejoin="round"/>
<path id="Vector 155" d="M340 515H325M325 515L328 501M325 515L352 494" stroke="#9CD9BC" stroke-width="3" stroke-linecap="round" stroke-linejoin="round"/>
</g>
</g>
<g id="Stair_2">
<g id="Stair frame_2">
<path id="Vector 152_2" d="M1270 468H1245V483H1230V498H1215V513H1190" stroke="#9CD9BC" stroke-width="5" stroke-linecap="round" stroke-linejoin="round"/>
<path id="Vector 154_2" d="M1202 468H1217M1217 468L1214 482M1217 468L1190 489" stroke="#9CD9BC" stroke-width="3" stroke-linecap="round" stroke-linejoin="round"/>
<path id="Vector 155_2" d="M1258 513H1243M1243 513L1246 499M1243 513L1270 492" stroke="#9CD9BC" stroke-width="3" stroke-linecap="round" stroke-linejoin="round"/>
</g>
</g>
<g id="Doors_3">
<path id="Vector 301_3" d="M1233 254L1261 247L1267 247" stroke="#A5A5A7" stroke-width="6"/>
<path id="Vector 302_3" d="M1221 254L1193 247L1187 247" stroke="#A5A5A7" stroke-width="6"/>
</g>
<g id="Stair_3">
<g id="Stair frame_3">
<path id="Vector 152_3" d="M1320 1398H1295V1413H1280V1428H1265V1443H1240" stroke="#9CD9BC" stroke-width="5" stroke-linecap="round" stroke-linejoin="round"/>
<path id="Vector 154_3" d="M1252 1398H1267M1267 1398L1264 1412M1267 1398L1240 1419" stroke="#9CD9BC" stroke-width="3" stroke-linecap="round" stroke-linejoin="round"/>
<path id="Vector 155_3" d="M1308 1443H1293M1293 1443L1296 1429M1293 1443L1320 1422" stroke="#9CD9BC" stroke-width="3" stroke-linecap="round" stroke-linejoin="round"/>
</g>
</g>
<g id="Doors_4">
<path id="Vector 301_4" d="M1151 1426L1158 1454L1158 1460" stroke="#A5A5A7" stroke-width="6"/>
<path id="Vector 302_4" d="M1151 1414L1158 1386L1158 1380" stroke="#A5A5A7" stroke-width="6"/>
</g>
<g id="Doors_5">
<path id="Vector 301_5" d="M1274 1351L1246 1358H1240" stroke="#A5A5A7" stroke-width="6"/>
<path id="Vector 302_5" d="M1286 1351L1314 1358H1320" stroke="#A5A5A7" stroke-width="6"/>
</g>
<g id="Doors_6">
<path id="Vector 301_6" d="M1444 611L1416 618H1410" stroke="#A5A5A7" stroke-width="6"/>
<path id="Vector 302_6" d="M1456 611L1484 618H1490" stroke="#A5A5A7" stroke-width="6"/>
</g>
<g id="Book">
<g id="Group 29">
<path id="Vector 328" d="M1354 1037H1360" stroke="#F0B771" stroke-width="5" stroke-linecap="round" stroke-linejoin="round"/>
<rect id="Rectangle 243" x="1351.5" y="1025.5" width="11" height="49" rx="4.5" stroke="#F0B771" stroke-width="5" stroke-linecap="round" stroke-linejoin="round"/>
<path id="Vector 332_2" d="M1354 1063H1360" stroke="#F0B771" stroke-width="5" stroke-linecap="round" stroke-linejoin="round"/>
</g>
<g id="Group 27">
<path id="Vector 330_2" d="M1365 1037H1371" stroke="#F0B771" stroke-width="5" stroke-linecap="round" stroke-linejoin="round"/>
<path id="Vector 331" d="M1365 1063H1371" stroke="#F0B771" stroke-width="5" stroke-linecap="round" stroke-linejoin="round"/>
<rect id="Rectangle 244" x="1362.5" y="1025.5" width="11" height="49" rx="4.5" stroke="#F0B771" stroke-width="5" stroke-linecap="round" stroke-linejoin="round"/>
</g>
<g id="Group 30">
<path id="Vector 330_3" d="M1381 1036.55L1386.8 1035" stroke="#F0B771" stroke-width="5" stroke-linecap="round" stroke-linejoin="round"/>
<path id="Vector 331_2" d="M1388 1062.55L1393.8 1061" stroke="#F0B771" stroke-width="5" stroke-linecap="round" stroke-linejoin="round"/>
<rect id="Rectangle 244_2" x="1375.76" y="1027.58" width="11" height="49.6774" rx="4.5" transform="rotate(-15 1375.76 1027.58)" stroke="#F0B771" stroke-width="5" stroke-linecap="round" stroke-linejoin="round"/>
</g>
</g>
<g id="WC">
<g id="Group 5">
<path id="Vector 200" d="M1301.5 657L1309 678.5H1283L1290.5 657" stroke="#A091F8" stroke-width="5" stroke-linecap="round" stroke-linejoin="round"/>
<circle id="Ellipse 9" cx="1296" cy="639" r="8" stroke="#A091F8" stroke-width="5" stroke-linecap="round" stroke-linejoin="round"/>
</g>
<g id="Group 6">
<path id="Vector 200_2" d="M1329.5 678.5L1337 657H1311L1318.5 678.5" stroke="#A091F8" stroke-width="5" stroke-linecap="round" stroke-linejoin="round"/>
<circle id="Ellipse 9_2" cx="1324" cy="639" r="8" stroke="#A091F8" stroke-width="5" stroke-linecap="round" stroke-linejoin="round"/>
</g>
</g>
</g>
</g>
<defs>
<clipPath id="clip0_1_956">
<rect width="1595" height="1485" fill="white"/>
</clipPath>
</defs>
</svg>
