<svg width="1185" height="435" viewBox="0 0 1185 435" fill="none" xmlns="http://www.w3.org/2000/svg">
<g id="M-SPORT-2" clip-path="url(#clip0_1_195)">
<g id="Spaces">
<path id="m-sport-2-stair-left" opacity="0.2" d="M190 260H5V350H190V260Z" fill="#9CD9BC"/>
<path id="m-sport-2-stair-right" opacity="0.2" d="M1180 260H1000V350H1180V260Z" fill="#9CD9BC"/>
<path id="m-sport-2-pumpingstation" d="M190 350H5V430H190V350Z" fill="#3B3C41"/>
<path id="m-sport-2-sportsequipment" d="M1180 350H1000V430H1180V350Z" fill="#3B3C41"/>
<path id="m-sport-2-lockerroom-m-students-1" d="M1000 5H1180V260H1090V150H1000V5Z" fill="#3B3C41"/>
<rect id="m-sports-wcm-1" opacity="0.2" x="1048" y="150" width="45" height="112" fill="#9CBBFF"/>
<rect id="m-sports-wcm-2" opacity="0.2" x="100" y="155" width="45" height="105" fill="#9CBBFF"/>
<path id="m-sport-2-lockerroom-m-students-2" d="M5 5H190V155H100V260.5H5V5Z" fill="#3B3C41"/>
<rect id="m-sport-2-largegameroom" x="190" y="5" width="810" height="425" fill="#3B3C41"/>
</g>
<g id="Walls">
<path id="Subtract" fill-rule="evenodd" clip-rule="evenodd" d="M1132 147H1040V153H1132V147ZM1162 153H1180V147H1162V153ZM1000 147H1010L1010 153H1000V147Z" fill="#A5A5A7"/>
<path id="Subtract_2" fill-rule="evenodd" clip-rule="evenodd" d="M1042 186V260H1048V186H1042ZM1042 156L1048 156V150H1042V156ZM1093 260V150H1087V260H1093Z" fill="#A5A5A7"/>
<path id="Vector 159" d="M100 260V155" stroke="#A5A5A7" stroke-width="6"/>
<path id="Subtract_3" fill-rule="evenodd" clip-rule="evenodd" d="M27 152H5V158H27V152ZM57 158H142V166L148 166V158H152V152H145H57V158ZM142 260.5V196H148V260.5H142ZM182 158H190V152H182V158Z" fill="#A5A5A7"/>
<path id="Subtract_4" fill-rule="evenodd" clip-rule="evenodd" d="M1010 255H1000V265H1010L1010 255ZM1040 265H1180V255H1040V265Z" fill="#D9D9D9"/>
<path id="Subtract_5" fill-rule="evenodd" clip-rule="evenodd" d="M995 247V430H1005V247H995ZM995 217H1005V5H995V217Z" fill="#D9D9D9"/>
<path id="Subtract_6" fill-rule="evenodd" clip-rule="evenodd" d="M1010 355L1010 345H1000V355H1010ZM1040 355H1180V345H1040V355Z" fill="#D9D9D9"/>
<path id="Subtract_7" fill-rule="evenodd" clip-rule="evenodd" d="M185 430V405H195V430H185ZM195 375H185V244H195V375ZM195 214H185V5H195V214Z" fill="#D9D9D9"/>
<path id="Subtract_8" fill-rule="evenodd" clip-rule="evenodd" d="M175 355H190V345H175V355ZM145 355V345H5V355H145Z" fill="#D9D9D9"/>
<path id="Subtract_9" fill-rule="evenodd" clip-rule="evenodd" d="M680 435H550V425H680V435Z" fill="#D9D9D9"/>
<path id="Subtract_10" fill-rule="evenodd" clip-rule="evenodd" d="M0 0H5H190H420H780H890H1000H1180H1185V5V430V435H1180H680H610H590H550H190H5H0V430V350V260V160V5V0ZM10 10V160V260V350V425H190H550H590H610H680H1175V10H1000H890H780H420H190H10Z" fill="#D9D9D9"/>
<path id="Subtract_11" fill-rule="evenodd" clip-rule="evenodd" d="M152.039 255H5V265H152.039V255ZM182.039 265H190V255H182.039V265Z" fill="#D9D9D9"/>
</g>
<g id="Textes">
<text id="&#208;&#145;&#208;&#190;&#208;&#187;&#209;&#140;&#209;&#136;&#208;&#190;&#208;&#185; &#208;&#184;&#208;&#179;&#209;&#128;&#208;&#190;&#208;&#178;&#208;&#190;&#208;&#185; &#208;&#183;&#208;&#176;&#208;&#187;" fill="#D9D9D9" xml:space="preserve" style="white-space: pre" font-family="GothamSSm" font-size="12" font-weight="bold" letter-spacing="0em"><tspan x="535.238" y="208.4">&#x411;&#x41e;&#x41b;&#x42c;&#x428;&#x41e;&#x419; &#x418;&#x413;&#x420;&#x41e;&#x412;&#x41e;&#x419; &#x417;&#x410;&#x41b;</tspan></text>
<text id="&#208;&#160;&#208;&#176;&#208;&#183;&#208;&#180;&#208;&#181;&#208;&#178;&#208;&#176;&#208;&#187;&#208;&#186;&#208;&#176; &#208;&#188;&#209;&#131;&#208;&#182;&#209;&#129;&#208;&#186;&#208;&#176;&#209;&#143;" fill="#D9D9D9" xml:space="preserve" style="white-space: pre" font-family="GothamSSm" font-size="12" font-weight="bold" letter-spacing="0em"><tspan x="67.209" y="79.4">&#x420;&#x410;&#x417;&#x414;&#x415;&#x412;&#x410;&#x41b;&#x41a;&#x410;&#10;</tspan><tspan x="74.8438" y="93.4">&#x41c;&#x423;&#x416;&#x421;&#x41a;&#x410;&#x42f;</tspan></text>
<text id="&#208;&#160;&#208;&#176;&#208;&#183;&#208;&#180;&#208;&#181;&#208;&#178;&#208;&#176;&#208;&#187;&#208;&#186;&#208;&#176; &#208;&#188;&#209;&#131;&#208;&#182;&#209;&#129;&#208;&#186;&#208;&#176;&#209;&#143;_2" fill="#D9D9D9" xml:space="preserve" style="white-space: pre" font-family="GothamSSm" font-size="12" font-weight="bold" letter-spacing="0em"><tspan x="1057.21" y="79.4">&#x420;&#x410;&#x417;&#x414;&#x415;&#x412;&#x410;&#x41b;&#x41a;&#x410;&#10;</tspan><tspan x="1064.84" y="93.4">&#x41c;&#x423;&#x416;&#x421;&#x41a;&#x410;&#x42f;</tspan></text>
<text id="&#208;&#157;&#208;&#176;&#209;&#129;&#208;&#190;&#209;&#129;&#208;&#189;&#208;&#176;&#209;&#143;" fill="#D9D9D9" xml:space="preserve" style="white-space: pre" font-family="GothamSSm" font-size="12" font-weight="bold" letter-spacing="0em"><tspan x="68.0742" y="397.4">&#x41d;&#x410;&#x421;&#x41e;&#x421;&#x41d;&#x410;&#x42f;</tspan></text>
<text id="&#208;&#161;&#208;&#191;&#208;&#190;&#209;&#128;&#209;&#130;&#208;&#184;&#208;&#178;&#208;&#189;&#209;&#139;&#208;&#185; &#208;&#184;&#208;&#189;&#208;&#178;&#208;&#181;&#208;&#189;&#209;&#130;&#208;&#176;&#209;&#128;&#209;&#140;" fill="#D9D9D9" xml:space="preserve" style="white-space: pre" font-family="GothamSSm" font-size="12" font-weight="bold" letter-spacing="0em"><tspan x="1054.28" y="389.4">&#x421;&#x41f;&#x41e;&#x420;&#x422;&#x418;&#x412;&#x41d;&#x42b;&#x419;&#10;</tspan><tspan x="1059.88" y="403.4">&#x418;&#x41d;&#x412;&#x415;&#x41d;&#x422;&#x410;&#x420;&#x42c;</tspan></text>
</g>
<g id="Entrances">
<circle id="1" cx="167" cy="155" r="10" fill="#9CBBFF"/>
<circle id="14" cx="593" cy="229" r="10" fill="#9CBBFF"/>
<circle id="6" cx="167" cy="305" r="10" fill="#9CBBFF"/>
<circle id="7" cx="160" cy="350" r="10" fill="#9CBBFF"/>
<circle id="8" cx="1025" cy="350" r="10" fill="#9CBBFF"/>
<circle id="9" cx="1025" cy="303" r="10" fill="#9CBBFF"/>
<circle id="11" cx="1025" cy="150" r="10" fill="#9CBBFF"/>
<circle id="3" cx="145" cy="182" r="10" fill="#9CBBFF"/>
<circle id="10" cx="1045" cy="171" r="10" fill="#9CBBFF"/>
</g>
<g id="Icons">
<g id="Stair">
<g id="Stair frame">
<path id="Vector 152" d="M137 282H112V297H97V312H82V327H57" stroke="#9CD9BC" stroke-width="5" stroke-linecap="round" stroke-linejoin="round"/>
<path id="Vector 154" d="M69 282H84M84 282L81 296M84 282L57 303" stroke="#9CD9BC" stroke-width="3" stroke-linecap="round" stroke-linejoin="round"/>
<path id="Vector 155" d="M125 327H110M110 327L113 313M110 327L137 306" stroke="#9CD9BC" stroke-width="3" stroke-linecap="round" stroke-linejoin="round"/>
</g>
</g>
<g id="Stair_2">
<g id="Stair frame_2">
<path id="Vector 152_2" d="M1132 282H1107V297H1092V312H1077V327H1052" stroke="#9CD9BC" stroke-width="5" stroke-linecap="round" stroke-linejoin="round"/>
<path id="Vector 154_2" d="M1064 282H1079M1079 282L1076 296M1079 282L1052 303" stroke="#9CD9BC" stroke-width="3" stroke-linecap="round" stroke-linejoin="round"/>
<path id="Vector 155_2" d="M1120 327H1105M1105 327L1108 313M1105 327L1132 306" stroke="#9CD9BC" stroke-width="3" stroke-linecap="round" stroke-linejoin="round"/>
</g>
</g>
<g id="Men">
<g id="Group 6">
<path id="Vector 200" d="M128.5 230.5L137 209H109L117.5 230.5" stroke="#9CBBFF" stroke-width="5" stroke-linecap="round" stroke-linejoin="round"/>
<circle id="Ellipse 9" cx="123" cy="191" r="8" stroke="#9CBBFF" stroke-width="5" stroke-linecap="round" stroke-linejoin="round"/>
</g>
</g>
<g id="Men_2">
<g id="Group 6_2">
<path id="Vector 200_2" d="M1073.5 229.5L1082 208H1054L1062.5 229.5" stroke="#9CBBFF" stroke-width="5" stroke-linecap="round" stroke-linejoin="round"/>
<circle id="Ellipse 9_2" cx="1068" cy="190" r="8" stroke="#9CBBFF" stroke-width="5" stroke-linecap="round" stroke-linejoin="round"/>
</g>
</g>
</g>
</g>
<defs>
<clipPath id="clip0_1_195">
<rect width="1185" height="435" fill="white"/>
</clipPath>
</defs>
</svg>
