<svg width="1185" height="435" viewBox="0 0 1185 435" fill="none" xmlns="http://www.w3.org/2000/svg">
<g id="M-SPORT-3" clip-path="url(#clip0_1_311)">
<g id="Spaces">
<path id="m-sport-3-stair-left" opacity="0.2" d="M190 260H5V350H190V260Z" fill="#9CD9BC"/>
<path id="m-sport-3-stair-right" opacity="0.2" d="M1180 260H1000V350H1180V260Z" fill="#9CD9BC"/>
<path id="!m-sport-1-lockerroom-w-students" d="M1000 5V260H1180V5H1000Z" fill="#3B3C41"/>
<path id="!m-sport-1-methodicalstudy" d="M190 5V260H5V5H190Z" fill="#3B3C41"/>
<path id="!m-sport-1-utilityroom" d="M190 350H5V430H190V350Z" fill="#3B3C41"/>
<path id="!m-sport-1-methodicalstudy" d="M1180 350H1000V430H1180V350Z" fill="#3B3C41"/>
</g>
<g id="Walls">
<path id="Vector 4" d="M5 260H190" stroke="#D9D9D9" stroke-width="10"/>
<path id="Vector 13" d="M1180 260H1000" stroke="#D9D9D9" stroke-width="10"/>
<path id="Subtract" fill-rule="evenodd" clip-rule="evenodd" d="M995 345V430H1005L1005 345H995ZM995 265H1005L1005 5H995V265Z" fill="#D9D9D9"/>
<path id="Subtract_2" fill-rule="evenodd" clip-rule="evenodd" d="M1045 355L1180 355V345H1045V355ZM1015 345L1015 355H1000V345H1015Z" fill="#D9D9D9"/>
<path id="Subtract_3" fill-rule="evenodd" clip-rule="evenodd" d="M185 345V430H195V345H185ZM185 345V5H195V265H185L185 345Z" fill="#D9D9D9"/>
<path id="Subtract_4" fill-rule="evenodd" clip-rule="evenodd" d="M175 355H190V345H175V355ZM145 355V345H5V355H145Z" fill="#D9D9D9"/>
<path id="Subtract_5" fill-rule="evenodd" clip-rule="evenodd" d="M680 435H550V425H680V435Z" fill="#D9D9D9"/>
<path id="Subtract_6" fill-rule="evenodd" clip-rule="evenodd" d="M0 0H5H190H420H780H890H1000H1180H1185V5V430V435H1180H680H550H190H5H0V430V350V260V160V5V0ZM10 10V160V260V350V425H190H550H680H1175V10H1000H890H780H420H190H10Z" fill="#D9D9D9"/>
</g>
<g id="Textes">
<text id="text 1" fill="#D9D9D9" xml:space="preserve" style="white-space: pre" font-family="GothamSSm" font-size="12" font-weight="bold" letter-spacing="0em"><tspan x="50.1641" y="128.4">&#x417;&#x410;&#x41b; &#x424;&#x418;&#x417;&#x418;&#x427;&#x415;&#x421;&#x41a;&#x41e;&#x419;&#10;</tspan><tspan x="55.4199" y="142.4">&#x420;&#x415;&#x410;&#x411;&#x418;&#x41b;&#x418;&#x422;&#x410;&#x426;&#x418;&#x418;</tspan></text>
<text id="text 3" fill="#D9D9D9" xml:space="preserve" style="white-space: pre" font-family="GothamSSm" font-size="12" font-weight="bold" letter-spacing="0em"><tspan x="35.4316" y="393.4">&#x41c;&#x415;&#x422;&#x41e;&#x414;&#x418;&#x427;&#x415;&#x421;&#x41a;&#x418;&#x419; &#x41a;&#x410;&#x411;&#x418;&#x41d;&#x415;&#x422;</tspan></text>
<text id="text 1_2" fill="#D9D9D9" xml:space="preserve" style="white-space: pre" font-family="GothamSSm" font-size="12" font-weight="bold" letter-spacing="0em"><tspan x="1045.33" y="138.4">&#x417;&#x410;&#x41b; &#x424;&#x415;&#x425;&#x422;&#x41e;&#x412;&#x410;&#x41d;&#x418;&#x42f;</tspan></text>
<text id="text 3_2" fill="#D9D9D9" xml:space="preserve" style="white-space: pre" font-family="GothamSSm" font-size="12" font-weight="bold" letter-spacing="0em"><tspan x="1025.43" y="393.4">&#x41c;&#x415;&#x422;&#x41e;&#x414;&#x418;&#x427;&#x415;&#x421;&#x41a;&#x418;&#x419; &#x41a;&#x410;&#x411;&#x418;&#x41d;&#x415;&#x422;</tspan></text>
<text id="text 1_3" fill="#D9D9D9" xml:space="preserve" style="white-space: pre" font-family="GothamSSm" font-size="12" font-weight="bold" letter-spacing="0em"><tspan x="590.012" y="223.4">2-&#x41e;&#x419; &#x421;&#x412;&#x415;&#x422;</tspan></text>
</g>
<g id="Entrances">
<circle id="1" cx="158" cy="305" r="10" fill="#9CBBFF"/>
<circle id="2" cx="1025" cy="305" r="10" fill="#9CBBFF"/>
</g>
<g id="Icons">
<g id="Stair">
<g id="Stair frame">
<path id="Vector 152" d="M137 282H112V297H97V312H82V327H57" stroke="#9CD9BC" stroke-width="5" stroke-linecap="round" stroke-linejoin="round"/>
<path id="Vector 154" d="M69 282H84M84 282L81 296M84 282L57 303" stroke="#9CD9BC" stroke-width="3" stroke-linecap="round" stroke-linejoin="round"/>
<path id="Vector 155" d="M125 327H110M110 327L113 313M110 327L137 306" stroke="#9CD9BC" stroke-width="3" stroke-linecap="round" stroke-linejoin="round"/>
</g>
</g>
<g id="Stair_2">
<g id="Stair frame_2">
<path id="Vector 152_2" d="M1132 282H1107V297H1092V312H1077V327H1052" stroke="#9CD9BC" stroke-width="5" stroke-linecap="round" stroke-linejoin="round"/>
<path id="Vector 154_2" d="M1064 282H1079M1079 282L1076 296M1079 282L1052 303" stroke="#9CD9BC" stroke-width="3" stroke-linecap="round" stroke-linejoin="round"/>
<path id="Vector 155_2" d="M1120 327H1105M1105 327L1108 313M1105 327L1132 306" stroke="#9CD9BC" stroke-width="3" stroke-linecap="round" stroke-linejoin="round"/>
</g>
</g>
<g id="Doors">
<path id="Vector 301" d="M991 311L998 339V345" stroke="#A5A5A7" stroke-width="6"/>
<path id="Vector 302" d="M991 299L998 271V265" stroke="#A5A5A7" stroke-width="6"/>
</g>
<g id="Doors_2">
<path id="Vector 301_2" d="M199 299L192 271V265" stroke="#A5A5A7" stroke-width="6"/>
<path id="Vector 302_2" d="M199 311L192 339V345" stroke="#A5A5A7" stroke-width="6"/>
</g>
</g>
</g>
<defs>
<clipPath id="clip0_1_311">
<rect width="1185" height="435" fill="white"/>
</clipPath>
</defs>
</svg>
