<svg width="1185" height="435" viewBox="0 0 1185 435" fill="none" xmlns="http://www.w3.org/2000/svg">
<g id="M-SPORT-0" clip-path="url(#clip0_1_17)">
<g id="Spaces">
<path id="m-sport-0-stair-left" opacity="0.2" d="M190 260H5V350H190V260Z" fill="#9CD9BC"/>
<path id="m-sport-0-stair-right" opacity="0.2" d="M1180 260H1000V350H1180V260Z" fill="#9CD9BC"/>
<rect id="m-sport-0-weightliftinghall" x="5" y="5" width="185" height="255" fill="#3B3C41"/>
<rect id="m-sport-0-gard" x="5" y="350" width="185" height="80" fill="#3B3C41"/>
<rect id="!m-sport-0-u" x="1000" y="350" width="180" height="80" fill="#3B3C41"/>
<rect id="m-sport-0-skiinglodge" x="1070" y="5" width="205" height="70" transform="rotate(90 1070 5)" fill="#3B3C41"/>
<rect id="m-sport-0-inventory" x="445" y="380" width="270" height="50" fill="#3B3C41"/>
<path id="m-sport-0-tabletennishall" d="M530 6H1000V430H715V381L530 380V6Z" fill="#3B3C41"/>
<path id="m-sport-0-gymnasticsathleticshall" d="M190 5H530V380.5H445V430H190V5Z" fill="#3B3C41"/>
</g>
<g id="Walls">
<path id="Subtract" fill-rule="evenodd" clip-rule="evenodd" d="M1073 173V5H1067V173H1073ZM1073 203H1067V207H1035H1000V213H1035H1070H1073V210V203Z" fill="#A5A5A7"/>
<path id="Subtract_2" fill-rule="evenodd" clip-rule="evenodd" d="M527 222V5H533V222H527ZM527 252V377H445H442V380V430V433H445H715H718V430V419H712V427H448V383H530H712V389H718V380V377H715H533V252H527Z" fill="#A5A5A7"/>
<path id="Subtract_3" fill-rule="evenodd" clip-rule="evenodd" d="M995 390V252H1005V390H995ZM995 420V430H1005V420H995ZM1005 222H995V5H1005V222Z" fill="#D9D9D9"/>
<path id="Subtract_4" fill-rule="evenodd" clip-rule="evenodd" d="M1000 345H1180V355H1000V345Z" fill="#D9D9D9"/>
<path id="Subtract_5" fill-rule="evenodd" clip-rule="evenodd" d="M185 430V419H195V430H185ZM195 389H185V252H195V389ZM195 222H185V5H195V222Z" fill="#D9D9D9"/>
<path id="Vector 5" d="M5 350H190" stroke="#D9D9D9" stroke-width="10"/>
<path id="Subtract_6" fill-rule="evenodd" clip-rule="evenodd" d="M5 0H0V5V160V260V350V430V435H5H190H550H680H1180H1185V430V5V0H1180H1000H890H780H420H190H5ZM10 160V10H190H420H780H890H1000H1175V425H680H550H190H10V350V260V160Z" fill="#D9D9D9"/>
<path id="Subtract_7" fill-rule="evenodd" clip-rule="evenodd" d="M1137 265V255H1000V265H1137ZM1167 265H1180V255H1167V265Z" fill="#D9D9D9"/>
<path id="Subtract_8" fill-rule="evenodd" clip-rule="evenodd" d="M33 265L33 255H5V265H33ZM63 265H190V255H63V265Z" fill="#D9D9D9"/>
</g>
<g id="Textes">
<text id="text 1" fill="#D9D9D9" xml:space="preserve" style="white-space: pre" font-family="GothamSSm" font-size="12" font-weight="bold" letter-spacing="0em"><tspan x="1010.12" y="103.4">&#x41b;&#x42b;&#x416;&#x41d;&#x410;&#x42f;&#10;</tspan><tspan x="1020.12" y="117.4">&#x411;&#x410;&#x417;&#x410;</tspan></text>
<text id="text 8" fill="#D9D9D9" xml:space="preserve" style="white-space: pre" font-family="GothamSSm" font-size="12" font-weight="bold" letter-spacing="0em"><tspan x="752.447" y="204.4"> &#x417;&#x410;&#x41b; &#10;</tspan><tspan x="705.156" y="218.4">&#x41d;&#x410;&#x421;&#x422;&#x41e;&#x41b;&#x42c;&#x41d;&#x41e;&#x413;&#x41e; &#x422;&#x415;&#x41d;&#x41d;&#x418;&#x421;&#x410;</tspan></text>
<text id="text 8_2" fill="#D9D9D9" xml:space="preserve" style="white-space: pre" font-family="GothamSSm" font-size="12" font-weight="bold" letter-spacing="0em"><tspan x="545.387" y="408.4">&#x418;&#x41d;&#x412;&#x415;&#x41d;&#x422;&#x410;&#x420;&#x41d;&#x410;&#x42f;</tspan></text>
<text id="text 4" fill="#D9D9D9" xml:space="preserve" style="white-space: pre" font-family="GothamSSm" font-size="12" font-weight="bold" letter-spacing="0em"><tspan x="346.189" y="204.4">&#x417;&#x410;&#x41b; &#10;</tspan><tspan x="285.094" y="218.4">&#x410;&#x422;&#x41b;&#x415;&#x422;&#x418;&#x427;&#x415;&#x421;&#x41a;&#x41e;&#x419; &#x413;&#x418;&#x41c;&#x41d;&#x410;&#x421;&#x422;&#x418;&#x41a;&#x418;</tspan></text>
<text id="text 5" fill="#D9D9D9" xml:space="preserve" style="white-space: pre" font-family="GothamSSm" font-size="12" font-weight="bold" letter-spacing="0em"><tspan x="86.1895" y="128.4">&#x417;&#x410;&#x41b; &#10;</tspan><tspan x="45.332" y="142.4">&#x422;&#x42f;&#x416;&#x415;&#x41b;&#x41e;&#x419;  &#x410;&#x422;&#x41b;&#x415;&#x422;&#x418;&#x41a;&#x418;</tspan></text>
<text id="text 9" fill="#D9D9D9" xml:space="preserve" style="white-space: pre" font-family="GothamSSm" font-size="12" font-weight="bold" letter-spacing="0em"><tspan x="65.209" y="393.4">&#x420;&#x410;&#x417;&#x414;&#x415;&#x412;&#x410;&#x41b;&#x41a;&#x410;</tspan></text>
</g>
<g id="Icons">
<g id="Stair">
<g id="Stair frame">
<path id="Vector 152" d="M147 282H122V297H107V312H92V327H67" stroke="#9CD9BC" stroke-width="5" stroke-linecap="round" stroke-linejoin="round"/>
<path id="Vector 154" d="M79 282H94M94 282L91 296M94 282L67 303" stroke="#9CD9BC" stroke-width="3" stroke-linecap="round" stroke-linejoin="round"/>
<path id="Vector 155" d="M135 327H120M120 327L123 313M120 327L147 306" stroke="#9CD9BC" stroke-width="3" stroke-linecap="round" stroke-linejoin="round"/>
</g>
</g>
<g id="Stair_2">
<g id="Stair frame_2">
<path id="Vector 152_2" d="M1132 282H1107V297H1092V312H1077V327H1052" stroke="#9CD9BC" stroke-width="5" stroke-linecap="round" stroke-linejoin="round"/>
<path id="Vector 154_2" d="M1064 282H1079M1079 282L1076 296M1079 282L1052 303" stroke="#9CD9BC" stroke-width="3" stroke-linecap="round" stroke-linejoin="round"/>
<path id="Vector 155_2" d="M1120 327H1105M1105 327L1108 313M1105 327L1132 306" stroke="#9CD9BC" stroke-width="3" stroke-linecap="round" stroke-linejoin="round"/>
</g>
</g>
</g>
<g id="Entrances">
<circle id="8" cx="715" cy="404" r="10" fill="#9CBBFF"/>
<circle id="7" cx="530" cy="237" r="10" fill="#9CBBFF"/>
<circle id="6" cx="190" cy="404" r="10" fill="#9CBBFF"/>
<circle id="5" cx="190" cy="237" r="10" fill="#9CBBFF"/>
<circle id="4" cx="48" cy="303" r="10" fill="#9CBBFF"/>
<circle id="3" cx="1152" cy="303" r="10" fill="#9CBBFF"/>
<circle id="2" cx="1000" cy="237" r="10" fill="#9CBBFF"/>
<circle id="1" cx="1070" cy="188" r="10" fill="#9CBBFF"/>
</g>
</g>
<defs>
<clipPath id="clip0_1_17">
<rect width="1185" height="435" fill="white"/>
</clipPath>
</defs>
</svg>
