<svg width="3440" height="1000" viewBox="0 0 3440 1000" fill="none" xmlns="http://www.w3.org/2000/svg">
<g id="N-0">
<g id="Spaces">
<rect id="n-0-enter" opacity="0.01" x="2510" y="700" width="279" height="130" fill="#9CD9BC"/>
<path id="n-0-stair-1" opacity="0.2" d="M2510 5H2810V135H2590V225H2510V5Z" fill="#9CD9BC"/>
<path id="n-0-lift-1" opacity="0.2" d="M2590 135H2660V225H2590V135Z" fill="#A091F8"/>
<path id="!n-0-lift-2" d="M2660 135H2730V225H2660V135Z" fill="#3B3C41"/>
<path id="!n-0-lift-3" d="M2730 135H2810V225H2730V135Z" fill="#3B3C41"/>
<path id="!n-1-10" d="M2790 225H3120L3130 250V395H2790V225Z" fill="#3B3C41"/>
<path id="!n-1-9" d="M2790 395H3130V585H2790V395Z" fill="#3B3C41"/>
<path id="!n-1-1" d="M2790 585H2900V675H2790V585Z" fill="#3B3C41"/>
<path id="!n-1-1_2" d="M2790 675H2900V845H2790V675Z" fill="#3B3C41"/>
<path id="!n-1-0-4" d="M2900 585H3260V845H2900V585Z" fill="#3B3C41"/>
<path id="!n-1-0-3" d="M2790 845H3061V995H2790V845Z" fill="#3B3C41"/>
<path id="!n-1-8" d="M3060 845H3350V995H3060V845Z" fill="#3B3C41"/>
<path id="!n-1-6" d="M3260 585H3330L3340 600V695H3260V585Z" fill="#3B3C41"/>
<rect id="!n-1-0-5" x="3260" y="695" width="80" height="150" fill="#3B3C41"/>
<path id="!n-1-entrance-1" d="M3130 255L3160 235L3230 360L3200 375L3330 585H3130V255Z" fill="#3B3C41"/>
<path id="!n-1-7" d="M3340 845V685C3360 685 3430 690 3430 765C3430 825 3375 850 3340 845Z" fill="#3B3C41"/>
<path id="!n-1-labs-1" d="M5 5.00003L2510 5V765H2530V980H5V5.00003Z" fill="#3B3C41"/>
</g>
<g id="Walls">
<path id="Vector 7" d="M2790 585H3325" stroke="#A5A5A7" stroke-width="10"/>
<path id="Vector 2" d="M2530 765H2510L2510 5" stroke="#D9D9D9" stroke-width="10"/>
<path id="Vector 17" d="M2730 135V225" stroke="#D9D9D9" stroke-width="10"/>
<path id="Vector 15" d="M2590 225V135H2810" stroke="#D9D9D9" stroke-width="10"/>
<path id="Vector 16" d="M2660 135V225" stroke="#D9D9D9" stroke-width="10"/>
<path id="Subtract" fill-rule="evenodd" clip-rule="evenodd" d="M2795 233V225H2785V233H2795ZM2795 279H2785V519H2795V279ZM2785 686V565H2795V686H2785ZM2785 732V765H2795V732H2785Z" fill="#A5A5A7"/>
<path id="Subtract_2" fill-rule="evenodd" clip-rule="evenodd" d="M5 0H0V5V980V985H5H1960H2530H2535V980V770H2619.98V760H2530H2525V765V975H1960H10V10H2805V225V230H2810H3116.4L3125.26 256.581L3127.33 262.791L3132.77 259.16L3158.28 242.158L3176.87 275.354L3185.5 270.308L3164.36 232.557L3161.72 227.842L3157.23 230.84L3132.67 247.209L3124.74 223.419L3123.6 220H3120H2815V5V0H2810H5ZM3223.08 357.871L3199.35 315.499L3207.98 310.453L3234.36 357.557L3236.92 362.129L3232.24 364.472L3207.1 377.042L3226.48 408.891L3218 414.189L3195.73 377.6L3192.9 372.958L3197.76 370.528L3223.08 357.871ZM3241.92 453.488L3335 606.402V685V690.285L3340.27 689.993L3340.28 689.992L3340.28 689.992L3340.31 689.991L3340.46 689.984C3340.6 689.978 3340.83 689.97 3341.13 689.963C3341.41 689.956 3341.75 689.95 3342.15 689.947C3342.62 689.943 3343.18 689.943 3343.81 689.951C3346.14 689.979 3349.51 690.109 3353.56 690.521C3361.68 691.349 3372.42 693.299 3383.08 697.74C3393.72 702.175 3404.14 709.03 3411.91 719.601C3419.64 730.126 3425 744.683 3425 765C3425 785.163 3419.65 799.646 3411.91 810.147C3404.14 820.697 3393.72 827.573 3383.06 832.045C3372.4 836.524 3361.66 838.527 3353.53 839.399C3350.07 839.771 3347.1 839.934 3344.86 840H3340L3339.76 849.994L3340 845C3339.76 849.994 3339.76 849.994 3339.76 849.994L3339.77 849.995L3339.79 849.996L3339.86 849.999L3340.09 850.007C3340.19 850.011 3340.31 850.014 3340.45 850.018L3340.64 850.022L3340.92 850.028C3341.64 850.041 3342.66 850.047 3343.96 850.024C3344.29 850.018 3344.64 850.01 3345 850V990H2795V765V760H2790H2700V770H2785V995V1000H2790H3350H3355V995V849.298C3363.7 848.337 3375.28 846.159 3386.94 841.266C3398.78 836.29 3410.86 828.442 3419.96 816.077C3429.1 803.665 3435 787.045 3435 765C3435 742.817 3429.11 726.124 3419.97 713.68C3410.86 701.283 3398.78 693.45 3386.92 688.51C3375.08 683.576 3363.32 681.464 3354.57 680.573C3350.76 680.184 3347.49 680.025 3345 679.97V605V603.598L3344.27 602.4L3250.4 448.19L3241.92 453.488Z" fill="#D9D9D9"/>
<path id="Subtract_3" fill-rule="evenodd" clip-rule="evenodd" d="M3334.9 829L3335 845.032L3345 844.968L3344.9 829H3334.9ZM3334.6 783H3344.6L3344 689.968L3334 690.032L3334.6 783Z" fill="#A5A5A7"/>
<path id="Subtract_4" fill-rule="evenodd" clip-rule="evenodd" d="M3300 690H3260V700H3300V690ZM3330.01 700H3340V690H3330.01V700Z" fill="#A5A5A7"/>
<path id="Subtract_5" fill-rule="evenodd" clip-rule="evenodd" d="M3095.51 390H2795V400H3095.51V390ZM3125.08 400H3130V390H3125.08V400Z" fill="#A5A5A7"/>
<path id="Subtract_6" fill-rule="evenodd" clip-rule="evenodd" d="M3125 466.648V580H3135V466.648H3125ZM3125 422.461H3135V263H3125V422.461Z" fill="#A5A5A7"/>
<path id="Subtract_7" fill-rule="evenodd" clip-rule="evenodd" d="M2842.73 670H2795V680H2842.73V670ZM2871.37 680H2900V670H2871.37V680Z" fill="#A5A5A7"/>
<path id="Subtract_8" fill-rule="evenodd" clip-rule="evenodd" d="M2846.8 850V840H2795V850H2846.8ZM2891.99 850H3345V840H2891.99L2891.99 850Z" fill="#A5A5A7"/>
<path id="Subtract_9" fill-rule="evenodd" clip-rule="evenodd" d="M3055 894.3V990H3065V894.3H3055ZM3055 865.3H3065V845H3055V865.3Z" fill="#A5A5A7"/>
<path id="Subtract_10" fill-rule="evenodd" clip-rule="evenodd" d="M2738 230V220H2718.01V230H2738ZM2784.01 230H2810V220H2784.01V230ZM2672 220V230H2650.01V220H2672ZM2604 230V220H2576.01V230H2604ZM2530 220L2530 230H2510V220H2530Z" fill="#D9D9D9"/>
<path id="Subtract_11" fill-rule="evenodd" clip-rule="evenodd" d="M3255 783V845H3265V783H3255ZM3255 753H3265V585H3255V753Z" fill="#A5A5A7"/>
<path id="Subtract_12" fill-rule="evenodd" clip-rule="evenodd" d="M2895 726V845H2905V726H2895ZM2895 680H2905V585H2895V680Z" fill="#A5A5A7"/>
<path id="Vector 210" d="M2505 380.5L10 380.5" stroke="#A5A5A7" stroke-width="10"/>
<path id="Vector 210_2" d="M2505 712L10 712" stroke="#A5A5A7" stroke-width="10"/>
<path id="Vector 211" d="M240.5 708.5L240.5 975" stroke="#A5A5A7" stroke-width="10"/>
<path id="Vector 212" d="M452 708.5L452 975" stroke="#A5A5A7" stroke-width="10"/>
<path id="Vector 212_2" d="M1036 708.5L1036 975" stroke="#A5A5A7" stroke-width="10"/>
<path id="Vector 211_2" d="M759 708.5L759 975" stroke="#A5A5A7" stroke-width="10"/>
<path id="Vector 213" d="M2171 708.5L2171 975" stroke="#A5A5A7" stroke-width="10"/>
<path id="Vector 211_3" d="M1196 708.5L1196 975M1641.5 708.5L1641.5 975M1924.5 708.5L1924.5 975" stroke="#A5A5A7" stroke-width="10"/>
<path id="Vector 211_4" d="M2382.5 708.5L2382.5 975" stroke="#A5A5A7" stroke-width="10"/>
<path id="Vector 211_5" d="M179 10L177 378" stroke="#A5A5A7" stroke-width="10"/>
<path id="Vector 214" d="M399 10L399 378" stroke="#A5A5A7" stroke-width="10"/>
<path id="Vector 215" d="M399 10L399 378" stroke="#A5A5A7" stroke-width="10"/>
<path id="Vector 216" d="M681 10L681 378" stroke="#A5A5A7" stroke-width="10"/>
<path id="Vector 217" d="M1262.5 10L1262.5 378" stroke="#A5A5A7" stroke-width="10"/>
<path id="Vector 218" d="M1457 10L1457 378" stroke="#A5A5A7" stroke-width="10"/>
<path id="Vector 219" d="M1645 10L1645 378" stroke="#A5A5A7" stroke-width="10"/>
<path id="Vector 220" d="M1967 10L1967 378" stroke="#A5A5A7" stroke-width="10"/>
<path id="Vector 221" d="M2217 10L2217 380" stroke="#A5A5A7" stroke-width="10"/>
<path id="Vector 222" d="M1967 10L1967 378" stroke="#A5A5A7" stroke-width="10"/>
</g>
<g id="Entrances">
<circle id="25" cx="2791" cy="709" r="10" fill="#9CBBFF"/>
<circle id="26" cx="2790" cy="542" r="10" fill="#9CBBFF"/>
<path id="27" d="M2800 256C2800 261.523 2795.52 266 2790 266C2784.48 266 2780 261.523 2780 256C2780 250.477 2784.48 246 2790 246C2795.52 246 2800 250.477 2800 256Z" fill="#9CBBFF"/>
<circle id="28" cx="2594" cy="68" r="10" fill="#9CBBFF"/>
<circle id="34" cx="2627" cy="225" r="10" fill="#9CBBFF"/>
<circle id="31" cx="2871" cy="846" r="10" fill="#9CBBFF"/>
<circle id="&#208;&#154;" cx="2660" cy="765" r="10" fill="#9CBBFF"/>
<circle id="32" cx="3340" cy="806" r="10" fill="#9CBBFF"/>
</g>
<g id="Icons">
<g id="Stair">
<g id="Stair frame">
<path id="Vector 152" d="M2700 43H2675V58H2660V73H2645V88H2620" stroke="#9CD9BC" stroke-width="5" stroke-linecap="round" stroke-linejoin="round"/>
<path id="Vector 154" d="M2632 43H2647M2647 43L2644 57M2647 43L2620 64" stroke="#9CD9BC" stroke-width="3" stroke-linecap="round" stroke-linejoin="round"/>
<path id="Vector 155" d="M2688 88H2673M2673 88L2676 74M2673 88L2700 67" stroke="#9CD9BC" stroke-width="3" stroke-linecap="round" stroke-linejoin="round"/>
</g>
</g>
<g id="Elevator">
<g id="Vector">
<path d="M2641 177L2635 171L2629 177H2641Z" fill="#A091F8"/>
<path d="M2641 181L2635 187L2629 181H2641Z" fill="#A091F8"/>
<path d="M2623 177C2623 174 2621 171 2618 171H2614C2611 171 2609 174 2609 177V182C2609 184 2610.5 185.5 2612 185.5V195C2612 196.6 2613.33 197 2614 197H2618C2618.67 197 2620 196.6 2620 195V185.5C2621.5 185.5 2623 184 2623 182V177Z" fill="#A091F8"/>
<path d="M2620 164C2620 166.209 2618.21 168 2616 168C2613.79 168 2612 166.209 2612 164C2612 161.791 2613.79 160 2616 160C2618.21 160 2620 161.791 2620 164Z" fill="#A091F8"/>
</g>
<path id="Vector 201" d="M2612.5 207.5H2600.5V152.5H2649.5V207.5H2637.5" stroke="#A091F8" stroke-width="5" stroke-linecap="round" stroke-linejoin="round"/>
</g>
<g id="Doors">
<path id="Vector 301" d="M2654 756L2626 763H2620" stroke="#A5A5A7" stroke-width="6"/>
<path id="Vector 302" d="M2666 756L2694 763H2700" stroke="#A5A5A7" stroke-width="6"/>
</g>
<g id="Enter">
<path id="Rectangle 242" d="M2646 827L2636 827L2636 791L2684 791L2684 827L2672.5 827" stroke="#9CD9BC" stroke-width="5" stroke-linecap="round" stroke-linejoin="round"/>
<g id="Group 26">
<path id="Vector 325" d="M2659.5 840L2659.5 808.3M2659.5 808.3L2653 818.3M2659.5 808.3L2666 818.3" stroke="#D9D9D9" stroke-width="3" stroke-miterlimit="1" stroke-linecap="round" stroke-linejoin="round"/>
</g>
</g>
</g>
</g>
</svg>
