<svg width="3055" height="1105" viewBox="0 0 3055 1105" fill="none" xmlns="http://www.w3.org/2000/svg">
<g id="N-4" clip-path="url(#clip0_5_495)">
<g id="Spaces">
<rect id="!n-4-lift-1" x="1630" y="150" width="110" height="110" fill="#3B3C41"/>
<rect id="n-4-wcw-1" opacity="0.2" x="1210" y="5" width="160" height="255" fill="#F783CB"/>
<rect id="n-4-cowork-1" opacity="0.2" x="630" y="240" width="580" height="220" fill="#63E3D4"/>
<rect id="n-4-wcm-1" opacity="0.2" x="1370" y="5" width="160" height="255" fill="#9CBBFF"/>
<path id="n-4-stair-2" opacity="0.2" d="M1530 5H1850V150H1630V260H1530V5Z" fill="#9CD9BC"/>
<rect id="!n-4-lift-2" x="1740" y="150" width="110" height="110" fill="#3B3C41"/>
<path id="n-4-stair-1" opacity="0.2" d="M2740 5H3050V170H2820V260H2740V5Z" fill="#9CD9BC"/>
<path id="n-4-stair-3" opacity="0.2" d="M330 5H630V140H430V260H330V5Z" fill="#9CD9BC"/>
<rect id="n-4-lift-3" opacity="0.2" x="2973" y="170" width="77" height="90" fill="#A091F8"/>
<rect id="!n-4-lift-7" x="530" y="140" width="100" height="120" fill="#3B3C41"/>
<rect id="!n-4-lift-6" x="430" y="140" width="100" height="120" fill="#3B3C41"/>
<rect id="n-4-lift-2" opacity="0.2" x="2897" y="170" width="76" height="90" fill="#A091F8"/>
<rect id="n-4-lift-1" opacity="0.2" x="2820" y="170" width="77" height="90" fill="#A091F8"/>
<rect id="n-405" x="1210" y="350" width="320" height="530" fill="#3B3C41"/>
<rect id="n-407" x="1210" y="880" width="320" height="220" fill="#3B3C41"/>
<rect id="n-409" x="1630" y="860" width="220" height="240" fill="#3B3C41"/>
<rect id="n-4-u-6" x="1530" y="985" width="100" height="115" fill="#3B3C41"/>
<rect id="n-408" x="1630" y="650" width="220" height="210" fill="#3B3C41"/>
<rect id="n-406" x="1630" y="350" width="220" height="300" fill="#3B3C41"/>
<rect id="n-4-u-5" x="1850" y="350" width="130" height="110" fill="#3B3C41"/>
<rect id="n-418" x="1980" y="350" width="150" height="110" fill="#3B3C41"/>
<rect id="n-419" x="2131" y="350" width="279" height="110" fill="#3B3C41"/>
<rect id="n-4-u-4" x="2410" y="350" width="330" height="110" fill="#3B3C41"/>
<rect id="n-4-u-3" x="2410" y="460" width="330" height="410" fill="#3B3C41"/>
<rect id="n-4-u-2" x="2410" y="870" width="330" height="230" fill="#3B3C41"/>
<rect id="!n-4-u-1" x="2740" y="1030" width="90" height="70" fill="#3B3C41"/>
<rect id="n-416" opacity="0.2" x="2830" y="672" width="220" height="428" fill="#F0B771"/>
<rect id="n-415" x="2830" y="350" width="220" height="322" fill="#3B3C41"/>
<rect id="n-410" x="2410" y="5" width="160" height="255" fill="#3B3C41"/>
<rect id="n-411" x="2570" y="5" width="170" height="255" fill="#3B3C41"/>
<rect id="n-402" x="5" y="5" width="325" height="255" fill="#3B3C41"/>
<path id="n-401" d="M80 445H5V1100H630V445H565V530H80V445Z" fill="#3B3C41"/>
</g>
<g id="Walls">
<path id="Subtract" fill-rule="evenodd" clip-rule="evenodd" d="M2612 460V665V668H2615H2642L2642 662H2618V460H2612ZM2672 662V668H2740V662H2672Z" fill="#A5A5A7"/>
<path id="Subtract_2" fill-rule="evenodd" clip-rule="evenodd" d="M155 134.5V10H161V137.5V177H155V140.5H125V134.5H155ZM155 207V265H161V207H155ZM95 134.5V140.5H10V134.5H95Z" fill="#A5A5A7"/>
<path id="Vneskniy kontur" d="M630 5H5V1100H630V460H1210V1100H1850V460H2410V1100H3050V5H2410V240H1850V5H1210V240H630V5Z" stroke="#D9D9D9" stroke-width="10"/>
<path id="Vector 294" d="M2830 1030H2740" stroke="#D9D9D9" stroke-width="10"/>
<path id="Vector 137" d="M1850 340L1850 460" stroke="#D9D9D9" stroke-width="10"/>
<path id="Vector 150" d="M1210 340L1210 350" stroke="#D9D9D9" stroke-width="10"/>
<path id="Vector 211" d="M2410 340L2410 350" stroke="#D9D9D9" stroke-width="10"/>
<path id="Vector 140" d="M1630 650H1850" stroke="#D9D9D9" stroke-width="10"/>
<path id="Vector 141" d="M1630 860H1850" stroke="#D9D9D9" stroke-width="10"/>
<path id="Vector 144" d="M1210 880H1530" stroke="#D9D9D9" stroke-width="10"/>
<path id="Vector 146" d="M1370 260V5" stroke="#D9D9D9" stroke-width="10"/>
<path id="Vector 149" d="M1740 150V260" stroke="#D9D9D9" stroke-width="10"/>
<path id="Subtract_3" fill-rule="evenodd" clip-rule="evenodd" d="M1535 5V260V265H1530H1500V255H1525V5H1535ZM1454 255H1294V265H1454V255ZM1248 255V265H1210V255H1248Z" fill="#D9D9D9"/>
<path id="Subtract_4" fill-rule="evenodd" clip-rule="evenodd" d="M1850 145H1630H1625V150L1625 260V265H1630H1661V255H1635L1635 155H1850V145ZM1707 255V265H1774V255H1707ZM1845 265H1820V255H1845V240H1855V260V270H1845V265Z" fill="#D9D9D9"/>
<path id="Vector 138" d="M1210 240L1210 270" stroke="#D9D9D9" stroke-width="10"/>
<path id="Vector 212" d="M2410 240L2410 270" stroke="#D9D9D9" stroke-width="10"/>
<path id="Subtract_5" fill-rule="evenodd" clip-rule="evenodd" d="M1210 345H1205V350V461H1215V355H1525V490H1535V350V345H1530H1210ZM1525 536V714H1535V536H1525ZM1525 910V760H1535V910H1525ZM1525 956V1100H1535V956H1525Z" fill="#D9D9D9"/>
<path id="Subtract_6" fill-rule="evenodd" clip-rule="evenodd" d="M1630 345H1625V350V490H1635V355H1850V345H1630ZM1625 536V754H1635V536H1625ZM1625 910V800H1635V910H1625ZM1625 956V1100H1635V956H1625Z" fill="#D9D9D9"/>
<path id="Vector 220" d="M2410 350V460" stroke="#D9D9D9" stroke-width="10"/>
<path id="Vector 221" d="M2740 460H2410" stroke="#D9D9D9" stroke-width="10"/>
<path id="Vector 222" d="M2740 870H2410" stroke="#D9D9D9" stroke-width="10"/>
<path id="Vector 224" d="M3050 672L2830 672" stroke="#D9D9D9" stroke-width="10"/>
<path id="Subtract_7" fill-rule="evenodd" clip-rule="evenodd" d="M325 228V255H4.99988V265H330H335V260V228H325ZM325 182H335V5H325V182Z" fill="#D9D9D9"/>
<path id="Vector 214" d="M530 140V260" stroke="#D9D9D9" stroke-width="10"/>
<path id="Subtract_8" fill-rule="evenodd" clip-rule="evenodd" d="M2745 5V260V265H2740H2670V255H2735V5H2745ZM2624 255V265H2516V255H2624ZM2470 255V265H2410V255H2470Z" fill="#D9D9D9"/>
<path id="Vector 227" d="M2973 170V260" stroke="#D9D9D9" stroke-width="10"/>
<path id="Vector 226" d="M2897 170V260" stroke="#D9D9D9" stroke-width="10"/>
<path id="Vector 228" d="M2570 260V5" stroke="#D9D9D9" stroke-width="10"/>
<path id="Subtract_9" fill-rule="evenodd" clip-rule="evenodd" d="M2820 165L2815 165V170V260V265H2820H2836L2836 255H2825V175L3050 175V165L2820 165ZM2882 255V265H2912V255H2882ZM2958 265H2988V255H2958V265ZM3050 265H3034V255H3050V265Z" fill="#D9D9D9"/>
<path id="Subtract_10" fill-rule="evenodd" clip-rule="evenodd" d="M2830 345H2825V350V579H2835V355H3050V345H2830ZM2825 625V714H2835V625H2825ZM2825 960V760H2835V960H2825ZM2825 1006V1100H2835V1006H2825Z" fill="#D9D9D9"/>
<path id="Subtract_11" fill-rule="evenodd" clip-rule="evenodd" d="M2470 355V345H2276V355H2470ZM2516 355H2735V784H2745V350V345H2740H2516V355ZM2230 355V345H2080V355H2230ZM2735 910V830H2745V910H2735ZM2735 1050V956H2745V1050H2735ZM2735 1080V1100H2745V1080H2735ZM2034 345V355H1960V345H2034ZM1914 355V345H1850V355H1914Z" fill="#D9D9D9"/>
<path id="Subtract_12" fill-rule="evenodd" clip-rule="evenodd" d="M425 135H430H630V145H435V255H457V265H430H425V260V140V135ZM557 265H503V255H557V265ZM603 265H630V255H603V265Z" fill="#D9D9D9"/>
<path id="Vector 285" d="M2740 260H2750" stroke="#D9D9D9" stroke-width="10"/>
<path id="Vector 286" d="M2810 260H2820" stroke="#D9D9D9" stroke-width="10"/>
<path id="Vector 281" d="M2740 350H2750" stroke="#D9D9D9" stroke-width="10"/>
<path id="Vector 282" d="M2820 350H2830" stroke="#D9D9D9" stroke-width="10"/>
<path id="Subtract_13" fill-rule="evenodd" clip-rule="evenodd" d="M75 450H10V440H80H85V445V470H75V450ZM75 535V516H85V530H560V514H570V535V540H565H80H75V535ZM570 468V450H635V440H565H560V445V468H570Z" fill="#D9D9D9"/>
<path id="Vector 289" d="M1985.5 355L1985 465" stroke="#D9D9D9" stroke-width="10"/>
<path id="Vector 290" d="M2135.5 355L2135 465" stroke="#D9D9D9" stroke-width="10"/>
<path id="Subtract_14" fill-rule="evenodd" clip-rule="evenodd" d="M1562 990L1562 980H1535V990H1562ZM1608 990H1635V980H1608V990Z" fill="#D9D9D9"/>
<path id="Subtract_15" fill-rule="evenodd" clip-rule="evenodd" d="M625 355L625 460H635L635 355H625ZM625 275H635L635 240L625 240L625 275Z" fill="#D9D9D9"/>
</g>
<g id="Textes">
<text id="b_n_419" fill="#D9D9D9" xml:space="preserve" style="white-space: pre" font-family="GothamSSm" font-size="24" font-weight="bold" letter-spacing="0em"><tspan x="2245.24" y="413.8">&#x41d; 419</tspan></text>
<text id="b_n_418" fill="#D9D9D9" xml:space="preserve" style="white-space: pre" font-family="GothamSSm" font-size="24" font-weight="bold" letter-spacing="0em"><tspan x="2029.31" y="413.8">&#x41d; 418</tspan></text>
<text id="b_n_416" fill="#D9D9D9" xml:space="preserve" style="white-space: pre" font-family="GothamSSm" font-size="24" font-weight="bold" letter-spacing="0em"><tspan x="2914.22" y="857.8">&#x41d; 416</tspan></text>
<text id="b_n_415" fill="#D9D9D9" xml:space="preserve" style="white-space: pre" font-family="GothamSSm" font-size="24" font-weight="bold" letter-spacing="0em"><tspan x="2915.21" y="519.8">&#x41d; 415 </tspan></text>
<text id="b_n_411" fill="#D9D9D9" xml:space="preserve" style="white-space: pre" font-family="GothamSSm" font-size="24" font-weight="bold" letter-spacing="0em"><tspan x="2631.46" y="140.8">&#x41d; 411 </tspan></text>
<text id="b_n_410" fill="#D9D9D9" xml:space="preserve" style="white-space: pre" font-family="GothamSSm" font-size="24" font-weight="bold" letter-spacing="0em"><tspan x="2464.27" y="140.8">&#x41d; 410</tspan></text>
<text id="b_n_409" fill="#D9D9D9" xml:space="preserve" style="white-space: pre" font-family="GothamSSm" font-size="24" font-weight="bold" letter-spacing="0em"><tspan x="1711.39" y="988.8">&#x41d; 409</tspan></text>
<text id="b_n_408" fill="#D9D9D9" xml:space="preserve" style="white-space: pre" font-family="GothamSSm" font-size="24" font-weight="bold" letter-spacing="0em"><tspan x="1711.46" y="763.8">&#x41d; 408</tspan></text>
<text id="b_n_407" fill="#D9D9D9" xml:space="preserve" style="white-space: pre" font-family="GothamSSm" font-size="24" font-weight="bold" letter-spacing="0em"><tspan x="1342.14" y="998.8">&#x41d; 407</tspan></text>
<text id="b_n_406" fill="#D9D9D9" xml:space="preserve" style="white-space: pre" font-family="GothamSSm" font-size="24" font-weight="bold" letter-spacing="0em"><tspan x="1711.37" y="508.8">&#x41d; 406</tspan></text>
<text id="b_n_405" fill="#D9D9D9" xml:space="preserve" style="white-space: pre" font-family="GothamSSm" font-size="24" font-weight="bold" letter-spacing="0em"><tspan x="1341.36" y="623.8">&#x41d; 405</tspan></text>
<text id="b_n_402" fill="#D9D9D9" xml:space="preserve" style="white-space: pre" font-family="GothamSSm" font-size="24" font-weight="bold" letter-spacing="0em"><tspan x="216.434" y="140.8">&#x41d; 402</tspan></text>
<text id="b_n_401" fill="#D9D9D9" xml:space="preserve" style="white-space: pre" font-family="GothamSSm" font-size="24" font-weight="bold" letter-spacing="0em"><tspan x="291.203" y="818.8">&#x41d; 401</tspan></text>
</g>
<g id="Entrances">
<circle id="28" cx="920" cy="305" r="10" fill="#9CBBFF"/>
<circle id="27" cx="380" cy="260" r="10" fill="#9CBBFF"/>
<circle id="26" cx="330" cy="205" r="10" fill="#9CBBFF"/>
<circle id="25" cx="565" cy="491" r="10" fill="#9CBBFF"/>
<circle id="23" cx="1477" cy="260" r="10" fill="#9CBBFF"/>
<circle id="22" cx="1630" cy="513" r="10" fill="#9CBBFF"/>
<circle id="21" cx="1530" cy="513" r="10" fill="#9CBBFF"/>
<circle id="20" cx="1530" cy="933" r="10" fill="#9CBBFF"/>
<circle id="19" cx="1630" cy="933" r="10" fill="#9CBBFF"/>
<circle id="29" cx="1585" cy="985" r="10" fill="#9CBBFF"/>
<circle id="18" cx="1630" cy="777" r="10" fill="#9CBBFF"/>
<circle id="17" cx="1580" cy="260" r="10" fill="#9CBBFF"/>
<circle id="16" cx="1937" cy="350" r="10" fill="#9CBBFF"/>
<circle id="15" cx="2057" cy="350" r="10" fill="#9CBBFF"/>
<circle id="14" cx="2253" cy="350" r="10" fill="#9CBBFF"/>
<circle id="13" cx="2493" cy="350" r="10" fill="#9CBBFF"/>
<circle id="12" cx="2493" cy="260" r="10" fill="#9CBBFF"/>
<circle id="11" cx="2647" cy="260" r="10" fill="#9CBBFF"/>
<circle id="10" cx="2830" cy="602" r="10" fill="#9CBBFF"/>
<circle id="9" cx="2830" cy="737" r="10" fill="#9CBBFF"/>
<circle id="8" cx="2740" cy="807" r="10" fill="#9CBBFF"/>
<circle id="7" cx="2740" cy="933" r="10" fill="#9CBBFF"/>
<circle id="5" cx="2780" cy="260" r="10" fill="#9CBBFF"/>
<circle id="4" cx="2935" cy="260" r="10" fill="#9CBBFF"/>
<circle id="3" cx="2859" cy="260" r="10" fill="#9CBBFF"/>
<circle id="2" cx="3011" cy="260" r="10" fill="#9CBBFF"/>
<circle id="1" cx="1271" cy="260" r="10" fill="#9CBBFF"/>
</g>
<g id="Icons">
<g id="Stair">
<g id="Stair frame">
<path id="Vector 152" d="M1782 57H1757V72H1742V87H1727V102H1702" stroke="#9CD9BC" stroke-width="5" stroke-linecap="round" stroke-linejoin="round"/>
<path id="Vector 154" d="M1714 57H1729M1729 57L1726 71M1729 57L1702 78" stroke="#9CD9BC" stroke-width="3" stroke-linecap="round" stroke-linejoin="round"/>
<path id="Vector 155" d="M1770 102H1755M1755 102L1758 88M1755 102L1782 81" stroke="#9CD9BC" stroke-width="3" stroke-linecap="round" stroke-linejoin="round"/>
</g>
</g>
<g id="Elevator">
<g id="Vector">
<path d="M2874 212L2868 206L2862 212H2874Z" fill="#A091F8"/>
<path d="M2874 216L2868 222L2862 216H2874Z" fill="#A091F8"/>
<path d="M2856 212C2856 209 2854 206 2851 206H2847C2844 206 2842 209 2842 212V217C2842 219 2843.5 220.5 2845 220.5V230C2845 231.6 2846.33 232 2847 232H2851C2851.67 232 2853 231.6 2853 230V220.5C2854.5 220.5 2856 219 2856 217V212Z" fill="#A091F8"/>
<path d="M2853 199C2853 201.209 2851.21 203 2849 203C2846.79 203 2845 201.209 2845 199C2845 196.791 2846.79 195 2849 195C2851.21 195 2853 196.791 2853 199Z" fill="#A091F8"/>
</g>
<path id="Vector 201" d="M2845.5 242.5H2833.5V187.5H2882.5V242.5H2870.5" stroke="#A091F8" stroke-width="5" stroke-linecap="round" stroke-linejoin="round"/>
</g>
<g id="Elevator_2">
<g id="Vector_2">
<path d="M2951 212L2945 206L2939 212H2951Z" fill="#A091F8"/>
<path d="M2951 216L2945 222L2939 216H2951Z" fill="#A091F8"/>
<path d="M2933 212C2933 209 2931 206 2928 206H2924C2921 206 2919 209 2919 212V217C2919 219 2920.5 220.5 2922 220.5V230C2922 231.6 2923.33 232 2924 232H2928C2928.67 232 2930 231.6 2930 230V220.5C2931.5 220.5 2933 219 2933 217V212Z" fill="#A091F8"/>
<path d="M2930 199C2930 201.209 2928.21 203 2926 203C2923.79 203 2922 201.209 2922 199C2922 196.791 2923.79 195 2926 195C2928.21 195 2930 196.791 2930 199Z" fill="#A091F8"/>
</g>
<path id="Vector 201_2" d="M2922.5 242.5H2910.5V187.5H2959.5V242.5H2947.5" stroke="#A091F8" stroke-width="5" stroke-linecap="round" stroke-linejoin="round"/>
</g>
<g id="Elevator_3">
<g id="Vector_3">
<path d="M3027 212L3021 206L3015 212H3027Z" fill="#A091F8"/>
<path d="M3027 216L3021 222L3015 216H3027Z" fill="#A091F8"/>
<path d="M3009 212C3009 209 3007 206 3004 206H3000C2997 206 2995 209 2995 212V217C2995 219 2996.5 220.5 2998 220.5V230C2998 231.6 2999.33 232 3000 232H3004C3004.67 232 3006 231.6 3006 230V220.5C3007.5 220.5 3009 219 3009 217V212Z" fill="#A091F8"/>
<path d="M3006 199C3006 201.209 3004.21 203 3002 203C2999.79 203 2998 201.209 2998 199C2998 196.791 2999.79 195 3002 195C3004.21 195 3006 196.791 3006 199Z" fill="#A091F8"/>
</g>
<path id="Vector 201_3" d="M2998.5 242.5H2986.5V187.5H3035.5V242.5H3023.5" stroke="#A091F8" stroke-width="5" stroke-linecap="round" stroke-linejoin="round"/>
</g>
<g id="Woman">
<g id="Group 5">
<path id="Vector 200" d="M1295.5 134L1304 155.5H1276L1284.5 134" stroke="#F783CB" stroke-width="5" stroke-linecap="round" stroke-linejoin="round"/>
<circle id="Ellipse 9" cx="1290" cy="116" r="8" stroke="#F783CB" stroke-width="5" stroke-linecap="round" stroke-linejoin="round"/>
</g>
</g>
<g id="Men">
<g id="Group 6">
<path id="Vector 200_2" d="M1455.5 155.5L1464 134H1436L1444.5 155.5" stroke="#9CBBFF" stroke-width="5" stroke-linecap="round" stroke-linejoin="round"/>
<circle id="Ellipse 9_2" cx="1450" cy="116" r="8" stroke="#9CBBFF" stroke-width="5" stroke-linecap="round" stroke-linejoin="round"/>
</g>
</g>
<g id="Stair_2">
<g id="Stair frame_2">
<path id="Vector 152_2" d="M2975 65H2950V80H2935V95H2920V110H2895" stroke="#9CD9BC" stroke-width="5" stroke-linecap="round" stroke-linejoin="round"/>
<path id="Vector 154_2" d="M2907 65H2922M2922 65L2919 79M2922 65L2895 86" stroke="#9CD9BC" stroke-width="3" stroke-linecap="round" stroke-linejoin="round"/>
<path id="Vector 155_2" d="M2963 110H2948M2948 110L2951 96M2948 110L2975 89" stroke="#9CD9BC" stroke-width="3" stroke-linecap="round" stroke-linejoin="round"/>
</g>
</g>
<g id="Stair_3">
<g id="Stair frame_3">
<path id="Vector 152_3" d="M570 50H545V65H530V80H515V95H490" stroke="#9CD9BC" stroke-width="5" stroke-linecap="round" stroke-linejoin="round"/>
<path id="Vector 154_3" d="M502 50H517M517 50L514 64M517 50L490 71" stroke="#9CD9BC" stroke-width="3" stroke-linecap="round" stroke-linejoin="round"/>
<path id="Vector 155_3" d="M558 95H543M543 95L546 81M543 95L570 74" stroke="#9CD9BC" stroke-width="3" stroke-linecap="round" stroke-linejoin="round"/>
</g>
</g>
<g id="Doors">
<path id="Vector 301" d="M2775.5 269L2754.5 262H2750" stroke="#A5A5A7" stroke-width="6"/>
<path id="Vector 302" d="M2784.5 269L2805.5 262H2810" stroke="#A5A5A7" stroke-width="6"/>
</g>
<g id="Doors_2">
<path id="Vector 301_2" d="M1573.25 269L1541.75 262H1535" stroke="#A5A5A7" stroke-width="6"/>
<path id="Vector 302_2" d="M1586.75 269L1618.25 262H1625" stroke="#A5A5A7" stroke-width="6"/>
</g>
<g id="Coworking">
<path id="Vector 287" d="M900.5 358.5L894.5 369H920H945.5L939.5 358.5M900.5 358.5H939.5M900.5 358.5V348.5M939.5 358.5V350" stroke="#63E3D4" stroke-width="5" stroke-linecap="round" stroke-linejoin="round"/>
<path id="Vector 288" d="M925 337.5H915" stroke="#63E3D4" stroke-width="3" stroke-linecap="round" stroke-linejoin="round"/>
<rect id="Rectangle 60" x="900.5" y="331.5" width="39" height="27" rx="4.5" stroke="#63E3D4" stroke-width="5"/>
</g>
<g id="Doors_3">
<path id="Vector 301_3" d="M373.25 269L341.75 262H335" stroke="#A5A5A7" stroke-width="6"/>
<path id="Vector 302_3" d="M386.75 269L418.25 262H425" stroke="#A5A5A7" stroke-width="6"/>
</g>
<g id="Doors_4">
<path id="Vector 301_4" d="M1219 299.75L1212 275.25L1212 270" stroke="#A5A5A7" stroke-width="6"/>
<path id="Vector 302_4" d="M1219 310.25L1212 334.75L1212 340" stroke="#A5A5A7" stroke-width="6"/>
</g>
<g id="Doors_5">
<path id="Vector 301_5" d="M621 321L628 349L628 355" stroke="#A5A5A7" stroke-width="6"/>
<path id="Vector 302_5" d="M621 309L628 281L628 275" stroke="#A5A5A7" stroke-width="6"/>
</g>
<g id="Book">
<g id="Group 29">
<path id="Vector 328" d="M2923 887H2929" stroke="#F0B771" stroke-width="5" stroke-linecap="round" stroke-linejoin="round"/>
<rect id="Rectangle 243" x="2920.5" y="875.5" width="11" height="49" rx="4.5" stroke="#F0B771" stroke-width="5" stroke-linecap="round" stroke-linejoin="round"/>
<path id="Vector 332" d="M2923 913H2929" stroke="#F0B771" stroke-width="5" stroke-linecap="round" stroke-linejoin="round"/>
</g>
<g id="Group 27">
<path id="Vector 330" d="M2934 887H2940" stroke="#F0B771" stroke-width="5" stroke-linecap="round" stroke-linejoin="round"/>
<path id="Vector 331" d="M2934 913H2940" stroke="#F0B771" stroke-width="5" stroke-linecap="round" stroke-linejoin="round"/>
<rect id="Rectangle 244" x="2931.5" y="875.5" width="11" height="49" rx="4.5" stroke="#F0B771" stroke-width="5" stroke-linecap="round" stroke-linejoin="round"/>
</g>
<g id="Group 30">
<path id="Vector 330_2" d="M2950 886.553L2955.8 885" stroke="#F0B771" stroke-width="5" stroke-linecap="round" stroke-linejoin="round"/>
<path id="Vector 331_2" d="M2957 912.553L2962.8 911" stroke="#F0B771" stroke-width="5" stroke-linecap="round" stroke-linejoin="round"/>
<rect id="Rectangle 244_2" x="2944.76" y="877.578" width="11" height="49.6774" rx="4.5" transform="rotate(-15 2944.76 877.578)" stroke="#F0B771" stroke-width="5" stroke-linecap="round" stroke-linejoin="round"/>
</g>
</g>
</g>
</g>
<defs>
<clipPath id="clip0_5_495">
<rect width="3055" height="1105" fill="white"/>
</clipPath>
</defs>
</svg>
