<svg width="1873" height="1506" viewBox="0 0 1873 1506" fill="none" xmlns="http://www.w3.org/2000/svg">
<g id="AV-6-3" clip-path="url(#clip0_71_13528)">
<g id="Spaces">
<rect id="av-6-3-stair-2" opacity="0.2" x="1633" y="260" width="190" height="250" fill="#9CD9BC"/>
<rect id="!u-6-3_v5" x="395" y="276" width="210" height="160" fill="#3B3C41"/>
<rect id="av-6-3-stair-1" opacity="0.2" x="265" y="276" width="130" height="225" fill="#9CD9BC"/>
<path id="!u-6-3_v4" d="M608.5 948.5L305.5 1096L317 1116L354 1177.5L397 1239L438 1289L489 1346L536 1391L586.5 1430.5L748.5 1109L728 1096L692.5 1066.5L645 1012.5L608.5 948.5Z" fill="#3B3C41"/>
<path id="!u-6-3_v3" d="M1862.5 1067L1640.5 959L1617.5 1003.5L1599 1033L1561.5 1080L1530 1113.5L1506 1133L1564 1231.5L1590.5 1277L1614 1317L1616.5 1321L1692.5 1452L1738.5 1419L1767.5 1395L1819.5 1334.5L1848.5 1285L1862.5 1239.5V1067Z" fill="#3B3C41"/>
<path id="!u-6-3_v2" d="M698.5 1205.5L636 1332.5L657.5 1346.5L703.5 1374.5L748.5 1399.5L781.5 1416L816 1431.5L850 1444.5L881.5 1456L909.5 1465.5L933.5 1473L956 1479L991 1486.5L1026 1492L1047.5 1495H1060V1444.5V1354L1046.5 1353L996 1344.5L940.5 1330.5L896.5 1316L839.5 1292L790.5 1266L752.5 1243.5L724 1223.5L698.5 1205.5Z" fill="#3B3C41"/>
<path id="!u-6-3_v1" d="M1172 1440V1354L1216.5 1349L1277.5 1337L1325.5 1326L1374.5 1309L1411 1293.5L1474.5 1260L1499 1245.5L1528.5 1226.5L1552 1210L1590.5 1277L1614 1317L1624 1334.5L1600 1350L1553.5 1379L1499.5 1408.5L1442.5 1435.5L1396 1452.5L1355.5 1466.5L1304 1480L1270.5 1487.5L1234 1494.5L1191.5 1500L1172 1501V1478V1440Z" fill="#3B3C41"/>
<path id="av-4304a" d="M1396 93H1334L1375 140C1469.93 300.234 1491.29 393.964 1375 580L1334 618C1229.51 686.715 1152.65 714.228 1060 692.906V950V1435H1172V956H1402L1507 1132C1572.88 1077.55 1599.9 1037.97 1640 960L1863 1068V510H1633V260C1603.42 145.513 1572.47 88.926 1494 6L1396 93Z" fill="#3B3C41"/>
<path id="av-4306a" d="M264.999 276H199.999L233.999 682L4.99938 704C4.45115 738.076 6.74511 759.368 13.9994 800L349.999 771V720H484.999C487.151 822.936 501.625 878.16 562.999 970L608.499 948.5C654.211 1029.82 683.482 1067.83 748.499 1109L829.999 950H1060V1435H1172V956V694.408C1089.66 711.9 1009.58 688.583 894.999 618L854.999 580C748.614 410.692 750.268 314.304 852.999 140L894.999 97H836.999L739.999 10C668.429 97.2205 637.166 153.955 604.999 276V436H394.999V501H264.999V276Z" fill="#3B3C41"/>
</g>
<g id="Walls">
<path id="Vector 374" d="M1174 1354C1255.5 1346.5 1345 1322.5 1388 1303.5C1431 1284.5 1496.5 1251.5 1549 1212" stroke="#A5A5A7" stroke-width="6"/>
<path id="Vector 373" d="M1060 1354.5C978.5 1347 898 1318 855 1299C812 1280 753.5 1246.5 701 1207" stroke="#A5A5A7" stroke-width="6"/>
<path id="Vector 354" d="M262.476 1115.66C226.499 1059.5 206.166 1015.5 189.499 965.5C167.166 898.5 162.499 877.5 155.999 787.5" stroke="#A5A5A7" stroke-width="6"/>
<path id="Vector 367" d="M14 800L353 771" stroke="#D9D9D9" stroke-width="10"/>
<path id="Vector 335" d="M1167 956L1407 956" stroke="#D9D9D9" stroke-width="10"/>
<path id="Vector 368" d="M350 721V776" stroke="#D9D9D9" stroke-width="10"/>
<path id="Vector 336" d="M825 950L1065 950" stroke="#D9D9D9" stroke-width="10"/>
<path id="Vector 340" d="M584 1435L829.727 948.54" stroke="#D9D9D9" stroke-width="10"/>
<path id="Vector 341" d="M124 1183L609.545 946.682" stroke="#D9D9D9" stroke-width="10"/>
<path id="Vector 362" d="M189 150L233.845 688.135" stroke="#D9D9D9" stroke-width="10"/>
<path id="Vector 343" d="M1863 1242L1863 442" stroke="#D9D9D9" stroke-width="10"/>
<path id="Vector 344" d="M1823 510L1823 260" stroke="#D9D9D9" stroke-width="10"/>
<path id="Vector 345" d="M1633 510L1633 260M1823 510L1823 260" stroke="#D9D9D9" stroke-width="10"/>
<path id="Vector 346" d="M1628 260L1873 260" stroke="#D9D9D9" stroke-width="10"/>
<path id="Vector 342" d="M1864 1068L1634.74 956.359" stroke="#D9D9D9" stroke-width="10"/>
<path id="Vector 348" d="M1175 1501C1255.5 1494.5 1335 1476.13 1419.5 1444.5C1493.84 1416.68 1579.5 1364.83 1622.5 1335" stroke="#D9D9D9" stroke-width="10"/>
<path id="Vector 350" d="M1694.5 1450.5C1737.5 1422.5 1775 1393 1809 1349C1838.48 1310.85 1856 1270 1863.28 1238" stroke="#D9D9D9" stroke-width="10"/>
<path id="Vector 349" d="M1055.5 1495C975 1488.5 920.5 1471.13 836 1439.5C761.66 1411.68 676 1359.83 633 1330" stroke="#D9D9D9" stroke-width="10"/>
<path id="Vector 352" d="M128.848 1180.66C85.353 1102.14 66.7699 1041.89 41.8828 945.905C19.9882 861.465 6.15872 755.353 4.99964 699" stroke="#D9D9D9" stroke-width="10"/>
<path id="Vector 369" d="M605 275.868C620.601 218.627 634.673 175.394 655.5 133.999C683.407 78.5303 711.5 41.9993 743 5.99925" stroke="#D9D9D9" stroke-width="10"/>
<path id="Vector 370" d="M1632.69 259.509C1622 199.999 1594.44 145.499 1578.5 115.999C1555 72.499 1524.22 35.9242 1490 2.49906" stroke="#D9D9D9" stroke-width="10"/>
<path id="Vector 355" d="M561.714 968.119C532.583 929.291 512.613 884 504.867 859.772C494.549 827.5 486.999 792.5 484.999 721" stroke="#D9D9D9" stroke-width="10"/>
<path id="Vector 351" d="M583 1429C521 1380.5 476.916 1335.11 419 1265.5C366.584 1202.5 334 1146.5 305.248 1095" stroke="#D9D9D9" stroke-width="10"/>
<path id="Vector 376" d="M1058 1062.5C1020.07 1055.57 970.999 1039.78 936.569 1021.56C897.499 1000.87 863.48 974.898 832.999 950" stroke="#D9D9D9" stroke-width="10"/>
<path id="Vector 377" d="M1174 1067.9C1211.92 1060.97 1261 1045.18 1295.43 1026.96C1334.5 1006.28 1368.52 980.302 1399 955.404" stroke="#D9D9D9" stroke-width="10"/>
<path id="Vector 360" d="M265 276V506" stroke="#D9D9D9" stroke-width="10"/>
<path id="Vector 361" d="M265 501H395" stroke="#D9D9D9" stroke-width="10"/>
<path id="Vector 357" d="M605 276V436" stroke="#D9D9D9" stroke-width="10"/>
<path id="Vector 358" d="M200 276L610 276" stroke="#D9D9D9" stroke-width="10"/>
<path id="Vector 363" d="M9 704.5L234 683" stroke="#D9D9D9" stroke-width="10"/>
<path id="Vector 364" d="M140.5 753.5L290.5 739" stroke="#D9D9D9" stroke-width="10"/>
<path id="Vector 366" d="M286 674L286 744" stroke="#D9D9D9" stroke-width="10"/>
<path id="Vector 371" d="M741 11L837 96.5H897" stroke="#D9D9D9" stroke-width="10"/>
<path id="Vector 372" d="M1492 8L1396 93H1327" stroke="#D9D9D9" stroke-width="10"/>
<path id="Vector 378" d="M1060 1435H1170" stroke="#D9D9D9" stroke-width="10"/>
<path id="Vector 380" d="M1798 954H1863" stroke="#D9D9D9" stroke-width="10"/>
<path id="Subtract" d="M518 441H395V431H518V441ZM610 441H564V431H610V441Z" fill="#D9D9D9"/>
<path id="Subtract_2" d="M400 506H390V490H400V506ZM400 444H390V276H400V444Z" fill="#D9D9D9"/>
<path id="Subtract_3" d="M297 726H290V716H297V726ZM490 726H343V716H490V726Z" fill="#D9D9D9"/>
<path id="Subtract_4" d="M1281.61 660.621C1231.98 688.255 1174.83 704 1114 704C1053.2 704 996.076 688.272 946.47 660.664L952.138 652.37C1000.12 678.898 1055.29 694 1114 694C1172.74 694 1227.94 678.881 1275.94 652.327L1281.61 660.621ZM1114 14C1304.54 14 1459 168.462 1459 359C1459 472.219 1404.46 572.699 1320.23 635.604L1314.58 627.34C1396.19 566.242 1449 468.789 1449 359C1449 173.985 1299.02 24 1114 24C928.985 24 779 173.985 779 359C779 468.82 831.844 566.297 913.491 627.392L907.844 635.656C823.567 572.754 769 472.25 769 359C769 168.462 923.462 14 1114 14Z" fill="#D9D9D9"/>
<path id="Subtract_5" d="M1803 1034H1793V1014H1803V1034ZM1803 968H1793V949H1803V968Z" fill="#D9D9D9"/>
<path id="Subtract_6" d="M1533.65 1116.95C1526 1124.24 1518.52 1130.74 1511.5 1136L1508.5 1132L1505.5 1128C1512.03 1123.1 1519.02 1117.05 1526.2 1110.23L1533.65 1116.95ZM1638 961.5L1642.59 963.481C1632.12 987.741 1617.04 1016.07 1599.56 1040.42C1589.94 1053.82 1578 1068.93 1565.29 1083.54L1557.87 1076.84C1570.26 1062.59 1581.95 1047.79 1591.44 1034.58C1608.42 1010.93 1623.16 983.258 1633.41 959.518L1638 961.5Z" fill="#D9D9D9"/>
<path id="Subtract_7" d="M1699.32 1453.48L1690.68 1458.52L1609.52 1319.47L1618.14 1314.4L1699.32 1453.48ZM1594.95 1274.67L1586.33 1279.74L1397.68 956.521L1406.32 951.479L1594.95 1274.67Z" fill="#D9D9D9"/>
<path id="Subtract_8" d="M731.11 1091.75C737.129 1096 743.437 1100.25 750.287 1104.85L744.711 1113.15C737.708 1108.45 731.232 1104.08 725.03 1099.7L731.11 1091.75ZM610.445 940.713C628.415 975.655 635.231 990.661 664.908 1027.88C676.362 1042.25 686.256 1053.3 695.594 1062.47L689.474 1070.47C679.612 1060.86 669.171 1049.27 657.09 1034.12C626.767 996.084 619.583 980.344 601.553 945.286L605.999 943L610.445 940.713Z" fill="#D9D9D9"/>
<path id="Subtract_9" d="M1065 1500H1055V1418H1065V1500ZM1065 1372H1055V950H1065V1372Z" fill="#D9D9D9"/>
<path id="Subtract_10" d="M1177 1506H1167V1418H1177V1506ZM1177 1372H1167V956H1177V1372Z" fill="#D9D9D9"/>
<path id="Subtract_11" d="M1657 515H1628V505H1657V515ZM1863 515H1703V505H1863V515Z" fill="#D9D9D9"/>
</g>
<g id="Textes">
<text id="&#208;&#144;&#208;&#146; 4306&#208;&#144;" fill="white" xml:space="preserve" style="white-space: pre" font-family="GothamSSm" font-size="24" font-weight="bold" letter-spacing="0em"><tspan x="611" y="626.8">&#x410;&#x412; 4306&#x410;</tspan></text>
<text id="&#208;&#144;&#208;&#146; 4304&#208;&#144;" fill="white" xml:space="preserve" style="white-space: pre" font-family="GothamSSm" font-size="24" font-weight="bold" letter-spacing="0em"><tspan x="1530" y="626.8">&#x410;&#x412; 4304&#x410;</tspan></text>
</g>
<g id="Entrances">
<circle id="1" cx="330" cy="462" r="10" fill="#9CBBFF"/>
<circle id="2" cx="1725" cy="452" r="10" fill="#9CBBFF"/>
<circle id="3" cx="659" cy="654" r="10" fill="#9CBBFF"/>
<circle id="4" cx="1578" cy="654" r="10" fill="#9CBBFF"/>
</g>
<g id="Icons">
<g id="Stair">
<g id="Stair frame">
<path id="Vector 152" d="M370 366H345V381H330V396H315V411H290" stroke="#9CD9BC" stroke-width="5" stroke-linecap="round" stroke-linejoin="round"/>
<path id="Vector 154" d="M302 366H317M317 366L314 380M317 366L290 387" stroke="#9CD9BC" stroke-width="3" stroke-linecap="round" stroke-linejoin="round"/>
<path id="Vector 155" d="M358 411H343M343 411L346 397M343 411L370 390" stroke="#9CD9BC" stroke-width="3" stroke-linecap="round" stroke-linejoin="round"/>
</g>
</g>
<g id="Stair_2">
<g id="Stair frame_2">
<path id="Vector 152_2" d="M1768 362H1743V377H1728V392H1713V407H1688" stroke="#9CD9BC" stroke-width="5" stroke-linecap="round" stroke-linejoin="round"/>
<path id="Vector 154_2" d="M1700 362H1715M1715 362L1712 376M1715 362L1688 383" stroke="#9CD9BC" stroke-width="3" stroke-linecap="round" stroke-linejoin="round"/>
<path id="Vector 155_2" d="M1756 407H1741M1741 407L1744 393M1741 407L1768 386" stroke="#9CD9BC" stroke-width="3" stroke-linecap="round" stroke-linejoin="round"/>
</g>
</g>
</g>
</g>
<defs>
<clipPath id="clip0_71_13528">
<rect width="1873" height="1506" fill="white"/>
</clipPath>
</defs>
</svg>
