<svg width="1640" height="1335" viewBox="0 0 1640 1335" fill="none" xmlns="http://www.w3.org/2000/svg">
<g id="AV-6-cokol">
<g id="Spaces">
<rect id="!u-6-cokol_v3" x="1406" y="232" width="120" height="225" fill="#3B3C41"/>
<path id="!u-6-cokol_v2" d="M1525 232H1635V293.5L1582 295V457H1525V232Z" fill="#3B3C41"/>
<path id="av-6-cokol-stair-1" opacity="0.2" d="M1286 351H1406V460H1350V516H1286V351Z" fill="#9CD9BC"/>
<path id="!u-6-cokol_v1" d="M952 85H1065.5H1116L1143 5H1242V85H1406V351H952V85Z" fill="#3B3C41"/>
<rect id="av-6-cokol-stair-2" opacity="0.2" x="120" y="264" width="105" height="220" fill="#9CD9BC"/>
</g>
<g id="Entrances">
<circle id="1" cx="175" cy="316" r="10" fill="#9CBBFF"/>
<circle id="4" cx="1316" cy="480" r="10" fill="#9CBBFF"/>
</g>
<g id="Walls">
<path id="Subtract" d="M1291 521H1281V355.42H1291V521ZM1587 465.018H1355V521H1337V511H1345V455.018H1401V451H1411V455.018H1577V432.276H1587V465.018ZM1411 405H1401V351H1411V405Z" fill="#D9D9D9"/>
<path id="Subtract_2" d="M1246.74 80.0303H1411.14V85.0303H1406.14L1411.14 85.0312V230.087H1640V303.11H1587.03V425.661H1640V1335H1574.17L1572.67 1333.17L1408.27 1132.42H873.526L768.555 1236.51L767.069 1237.99L764.977 1237.96L550.108 1235.46L548.103 1235.44L546.669 1234.04L434.738 1124.49L433.266 1123.05L433.235 1120.99L430.308 919.813L24.958 917.343L20.4131 917.314L20.0088 912.787L2.01953 711.211L1.58008 706.278L6.50781 705.791L137.915 692.78L124.459 565.308L113.98 491.385L113.932 491.036V261.099H416.761L417.245 109.523L417.261 104.708L422.073 104.542L682.643 95.5996C774.182 16.2328 863.546 -1.85804 940.029 6.79688C1013.21 15.0784 1074.21 47.7938 1113.75 73.7617L1137.57 3.39648L1138.72 0H1246.74V80.0303ZM1121.13 83.1318L1119.03 89.334L1113.6 85.6758C1074.91 59.6092 1013.22 25.1433 938.904 16.7334C864.816 8.34963 777.751 25.803 687.873 104.302L686.533 105.472L684.755 105.533L427.229 114.37L426.745 266.114L426.729 271.099H123.932V490.332L134.375 564.01L134.388 564.098L134.397 564.187L148.389 696.736L148.917 701.741L143.909 702.237L12.4199 715.254L29.5645 907.37L435.268 909.844L440.165 909.873L440.236 914.771L443.204 1118.79L552.229 1225.49L762.999 1227.94L867.948 1123.87L869.41 1122.42H1413.01L1414.51 1124.26L1578.9 1325H1630V435.661H1577.03V289H1587.03V293.11H1630V240.087H1587.03V243H1577.03V240.087H1530.07V405H1520.07V240.087H1401.14V90.0303H1236.74V10H1145.89L1121.13 83.1318ZM1530.07 459.172H1520.07V451H1530.07V459.172Z" fill="#D9D9D9"/>
<path id="Subtract_3" d="M1123.01 90H957V346H1116V356H946.999V80H1123.01V90ZM1411 356H1162V346H1401V233.677H1411V356Z" fill="#D9D9D9"/>
<path id="Subtract_4" d="M230 492H119.999V482H220V355H230V492ZM230 275H220V267H230V275Z" fill="#D9D9D9"/>
</g>
<g id="Icons">
<g id="Stair">
<g id="Stair frame">
<path id="Vector 152" d="M213 355H188V370H173V385H158V400H133" stroke="#9CD9BC" stroke-width="5" stroke-linecap="round" stroke-linejoin="round"/>
<path id="Vector 154" d="M145 355H160M160 355L157 369M160 355L133 376" stroke="#9CD9BC" stroke-width="3" stroke-linecap="round" stroke-linejoin="round"/>
<path id="Vector 155" d="M201 400H186M186 400L189 386M186 400L213 379" stroke="#9CD9BC" stroke-width="3" stroke-linecap="round" stroke-linejoin="round"/>
</g>
</g>
<g id="Stair_2">
<g id="Stair frame_2">
<path id="Vector 152_2" d="M1386 384H1361V399H1346V414H1331V429H1306" stroke="#9CD9BC" stroke-width="5" stroke-linecap="round" stroke-linejoin="round"/>
<path id="Vector 154_2" d="M1318 384H1333M1333 384L1330 398M1333 384L1306 405" stroke="#9CD9BC" stroke-width="3" stroke-linecap="round" stroke-linejoin="round"/>
<path id="Vector 155_2" d="M1374 429H1359M1359 429L1362 415M1359 429L1386 408" stroke="#9CD9BC" stroke-width="3" stroke-linecap="round" stroke-linejoin="round"/>
</g>
</g>
</g>
</g>
</svg>
