<svg width="900" height="1440" viewBox="0 0 900 1440" fill="none" xmlns="http://www.w3.org/2000/svg">
<g id="PR-1-Basement" clip-path="url(#clip0_7_428)">
<g id="Spaces">
<rect id="!pr-1-basement-u-8" x="245" y="240" width="105" height="95" fill="#3B3C41"/>
<path id="!pr-1-basement-u-7" d="M125 15H5V230H145V110H125V15Z" fill="#3B3C41"/>
<rect id="!pr-1-basement-u-6" x="5" y="230" width="140" height="170" fill="#3B3C41"/>
<rect id="!pr-1-basement-u-5" x="125" y="1315" width="120" height="120" fill="#3B3C41"/>
<rect id="!pr-1-basement-u-4" x="5" y="1315" width="120" height="120" fill="#3B3C41"/>
<rect id="!pr-1-basement-u-3" x="5" y="1215" width="240" height="100" fill="#3B3C41"/>
<rect id="!pr-1-basement-u-2" x="5" y="1065" width="240" height="150" fill="#3B3C41"/>
<rect id="!pr-1-basement-u-1" x="5" y="985" width="235" height="80" fill="#3B3C41"/>
<rect id="pr-1-basement-wcm-1" opacity="0.2" x="5" y="830" width="235" height="155" fill="#9CBBFF"/>
<rect id="pr-1-basement-wcw-1" opacity="0.2" x="5" y="620" width="235" height="210" fill="#F783CB"/>
<rect id="pr-1011" x="365" y="1050" width="530" height="210" fill="#3B3C41"/>
<rect id="pr-1012" x="365" y="825" width="530" height="225" fill="#3B3C41"/>
<rect id="pr-1013" x="365" y="615" width="530" height="210" fill="#3B3C41"/>
<rect id="pr-1014" x="365" y="400" width="530" height="215" fill="#3B3C41"/>
<rect id="pr-1015" x="5" y="400" width="140" height="220" fill="#3B3C41"/>
<path id="pr-1-basement-stair-1" opacity="0.2" d="M245 35H125V110H145V400H245V35Z" fill="#9CD9BC"/>
</g>
<g id="Walls">
<path id="Vector 20" d="M5 1315H250" stroke="#A5A5A7" stroke-width="6"/>
<path id="Vector 21" d="M125 1315V1435" stroke="#A5A5A7" stroke-width="6"/>
<path id="Vector 19" d="M5 1215H250" stroke="#A5A5A7" stroke-width="6"/>
<path id="Vector 30" d="M350 335H301.5H245" stroke="#D9D9D9" stroke-width="10"/>
<path id="Vector 29" d="M350 240V292.5V345" stroke="#D9D9D9" stroke-width="10"/>
<path id="Subtract" fill-rule="evenodd" clip-rule="evenodd" d="M5 615H140V528H150V615H235V625H145H5V615ZM150 482V400H140V482H150Z" fill="#D9D9D9"/>
<path id="Vector 3" d="M145 230H5" stroke="#A5A5A7" stroke-width="6"/>
<path id="Vector 1" d="M5 10V1440" stroke="#D9D9D9" stroke-width="10"/>
<path id="Vector 7" d="M250 1435H5" stroke="#D9D9D9" stroke-width="10"/>
<path id="Vector 8" d="M245 1435V1310" stroke="#D9D9D9" stroke-width="10"/>
<path id="Vector 9" d="M245 1315V1210" stroke="#D9D9D9" stroke-width="10"/>
<path id="Vector 10" d="M245 1215V1060" stroke="#D9D9D9" stroke-width="10"/>
<path id="Vector 15" d="M145 230V110H125V0" stroke="#D9D9D9" stroke-width="10"/>
<path id="Vector 16" d="M5 830H239" stroke="#D9D9D9" stroke-width="10"/>
<path id="Vector 18" d="M5 1065H240" stroke="#D9D9D9" stroke-width="10"/>
<path id="Subtract_2" fill-rule="evenodd" clip-rule="evenodd" d="M245 652L245 615L235 615L235 652H245ZM245 698H235L235 835H245L245 698Z" fill="#D9D9D9"/>
<path id="Vector 17" d="M5 985H240" stroke="#D9D9D9" stroke-width="10"/>
<path id="Subtract_3" fill-rule="evenodd" clip-rule="evenodd" d="M172 405V395H145H5V405H145H172ZM218 405H895V395H218V405Z" fill="#D9D9D9"/>
<path id="Subtract_4" fill-rule="evenodd" clip-rule="evenodd" d="M245 912L245 830L235 830L235 912H245ZM245 958H235L235 985H245L245 958Z" fill="#D9D9D9"/>
<path id="Vector 22" d="M365 615H895" stroke="#D9D9D9" stroke-width="10"/>
<path id="Vector 23" d="M365 825H895" stroke="#D9D9D9" stroke-width="10"/>
<path id="Vector 24" d="M365 1050H895" stroke="#D9D9D9" stroke-width="10"/>
<path id="Subtract_5" fill-rule="evenodd" clip-rule="evenodd" d="M370 432V400H360V432H370ZM370 478H360V506.235V508.765V615H370V508.765V506.235V478Z" fill="#D9D9D9"/>
<path id="Subtract_6" fill-rule="evenodd" clip-rule="evenodd" d="M370 642V610H360V642H370ZM370 688H360V825H370V688Z" fill="#D9D9D9"/>
<path id="Subtract_7" fill-rule="evenodd" clip-rule="evenodd" d="M370 852V820H360V852H370ZM370 898H360V1050H370V898Z" fill="#D9D9D9"/>
<path id="Subtract_8" fill-rule="evenodd" clip-rule="evenodd" d="M370 1072V1045H360V1072H370ZM370 1118H360V1260H370V1118Z" fill="#D9D9D9"/>
<path id="Subtract_9" fill-rule="evenodd" clip-rule="evenodd" d="M250 347V30H240V347H250ZM250 393H240V400H250V393Z" fill="#D9D9D9"/>
<path id="Subtract_10" fill-rule="evenodd" clip-rule="evenodd" d="M150 347V225H140V347H150ZM150 393H140V400H150V393Z" fill="#D9D9D9"/>
<path id="Subtract_11" fill-rule="evenodd" clip-rule="evenodd" d="M245 1007V980H235V1007H245ZM245 1053H235V1070H245V1053Z" fill="#D9D9D9"/>
<path id="Subtract_12" fill-rule="evenodd" clip-rule="evenodd" d="M240 245H890V1255H313V1265H895H900V1260V240V235H895H240V245ZM267 1265L267 1255H245V1265H267Z" fill="#D9D9D9"/>
</g>
<g id="Textes">
<text id="&#208;&#159;&#208;&#160; 1011" fill="#D9D9D9" xml:space="preserve" style="white-space: pre" font-family="GothamSSm" font-size="24" font-weight="bold" letter-spacing="0em"><tspan x="595.004" y="1166.8">&#x41f;&#x420; 1011</tspan></text>
<text id="&#208;&#159;&#208;&#160; 1012" fill="#D9D9D9" xml:space="preserve" style="white-space: pre" font-family="GothamSSm" font-size="24" font-weight="bold" letter-spacing="0em"><tspan x="595.211" y="941.8">&#x41f;&#x420; 1012</tspan></text>
<text id="&#208;&#159;&#208;&#160; 1013" fill="#D9D9D9" xml:space="preserve" style="white-space: pre" font-family="GothamSSm" font-size="24" font-weight="bold" letter-spacing="0em"><tspan x="595.34" y="731.8">&#x41f;&#x420; 1013</tspan></text>
<text id="&#208;&#159;&#208;&#160; 1014" fill="#D9D9D9" xml:space="preserve" style="white-space: pre" font-family="GothamSSm" font-size="24" font-weight="bold" letter-spacing="0em"><tspan x="595.09" y="516.8">&#x41f;&#x420; 1014</tspan></text>
<text id="&#208;&#159;&#208;&#160; 1015" fill="#D9D9D9" xml:space="preserve" style="white-space: pre" font-family="GothamSSm" font-size="24" font-weight="bold" letter-spacing="0em"><tspan x="40.2578" y="516.8">&#x41f;&#x420; 1015</tspan></text>
</g>
<g id="Entrances">
<circle id="3" cx="195" cy="260" r="10" fill="#9CBBFF"/>
<circle id="2" cx="365" cy="455" r="10" fill="#9CBBFF"/>
<circle id="1" cx="145" cy="505" r="10" fill="#9CBBFF"/>
<circle id="4" cx="240" cy="675" r="10" fill="#9CBBFF"/>
<circle id="6" cx="240" cy="935" r="10" fill="#9CBBFF"/>
<circle id="5" cx="365" cy="665" r="10" fill="#9CBBFF"/>
<circle id="8" cx="365" cy="1095" r="10" fill="#9CBBFF"/>
<circle id="7" cx="365" cy="875" r="10" fill="#9CBBFF"/>
</g>
<g id="Icons">
<g id="Stair">
<g id="Stair frame">
<path id="Vector 152" d="M235 192H210V207H195V222H180V237H155" stroke="#9CD9BC" stroke-width="5" stroke-linecap="round" stroke-linejoin="round"/>
<path id="Vector 154" d="M167 192H182M182 192L179 206M182 192L155 213" stroke="#9CD9BC" stroke-width="3" stroke-linecap="round" stroke-linejoin="round"/>
<path id="Vector 155" d="M223 237H208M208 237L211 223M208 237L235 216" stroke="#9CD9BC" stroke-width="3" stroke-linecap="round" stroke-linejoin="round"/>
</g>
</g>
<g id="Woman">
<g id="Group 5">
<path id="Vector 200" d="M125.5 727L134 748.5H106L114.5 727" stroke="#F783CB" stroke-width="5" stroke-linecap="round" stroke-linejoin="round"/>
<circle id="Ellipse 9" cx="120" cy="709" r="8" stroke="#F783CB" stroke-width="5" stroke-linecap="round" stroke-linejoin="round"/>
</g>
</g>
<g id="Men">
<g id="Group 6">
<path id="Vector 200_2" d="M125.5 933.5L134 912H106L114.5 933.5" stroke="#9CBBFF" stroke-width="5" stroke-linecap="round" stroke-linejoin="round"/>
<circle id="Ellipse 9_2" cx="120" cy="894" r="8" stroke="#9CBBFF" stroke-width="5" stroke-linecap="round" stroke-linejoin="round"/>
</g>
</g>
</g>
</g>
<defs>
<clipPath id="clip0_7_428">
<rect width="900" height="1440" fill="white"/>
</clipPath>
</defs>
</svg>
