<svg width="2245" height="1805" viewBox="0 0 2245 1805" fill="none" xmlns="http://www.w3.org/2000/svg">
<g id="PR-1-0" clip-path="url(#clip0_9_573)">
<g id="Spaces">
<path id="pr-1-0-stair-right-1" opacity="0.2" d="M2237 1011H2137V1261H2237V1011Z" fill="#9CD9BC"/>
<rect id="pr-1039" x="2037" y="1061" width="100" height="200" fill="#3B3C41"/>
<rect id="pr-1040" x="1937" y="1061" width="100" height="200" fill="#3B3C41"/>
<rect id="pr-1044" x="1677" y="1061" width="260" height="200" fill="#3B3C41"/>
<rect id="pr-1039a" x="1677" y="1261" width="255" height="100" fill="#3B3C41"/>
<rect id="pr-1039b" x="1932" y="1261" width="205" height="100" fill="#3B3C41"/>
<path id="pr-1-0-stair-center-1" opacity="0.2" d="M1067 1001H1172V1221H1067V1001Z" fill="#9CD9BC"/>
<rect id="pr-1037" x="1187" y="1291" width="130" height="70" fill="#3B3C41"/>
<path id="pr-1038" fill-rule="evenodd" clip-rule="evenodd" d="M1367 1221H1187V1291H1317V1361H1367V1291V1221Z" fill="#3B3C41"/>
</g>
<g id="Walls">
<path id="Vector 337" d="M920 1570H1330" stroke="#D9D9D9" stroke-width="10"/>
<path id="Vector 350" d="M1900 1560V1360" stroke="#D9D9D9" stroke-width="10"/>
<path id="Vector 353" d="M1680 1560V1360" stroke="#D9D9D9" stroke-width="10"/>
<path id="Vector 354" d="M1680 1260V1060" stroke="#D9D9D9" stroke-width="10"/>
<path id="Subtract" fill-rule="evenodd" clip-rule="evenodd" d="M1674.99 1355H1679.99H1960H2240V1365H1960H1684.99V1560H1674.99V1360V1355Z" fill="#D9D9D9"/>
<path id="Vector 333" d="M110 1010H5V1260V1360V1610H360V1560H470H630H810H910V1570H920V1800H1330V1570H1340V1560H1680H1900V1610H2240V1360.77V1260V1010H2140V1060H2040H1940H1780H1680H1520.13H1340V870H1350V770V540H1400V440H1350V330V220V110H1340V5H1170H910V110H900V220V330V440V540V650V760V870H910V1060H770H630H470H310H210H110V1010Z" stroke="#D9D9D9" stroke-width="10"/>
<path id="Subtract_2" fill-rule="evenodd" clip-rule="evenodd" d="M2135 1333V1360H2145V1333H2135ZM2135 1287H2145V1259H2135V1287Z" fill="#D9D9D9"/>
<path id="Vector 385" d="M1680 1259V1360" stroke="#D9D9D9" stroke-width="10"/>
<path id="Subtract_3" fill-rule="evenodd" clip-rule="evenodd" d="M1930 1323V1360H1940V1323H1930ZM1930 1277H1940V1259H1930V1277Z" fill="#D9D9D9"/>
<path id="Subtract_4" fill-rule="evenodd" clip-rule="evenodd" d="M2135 1253V1260H2145V1253H2135ZM2135 1207H2145V1060H2135V1207Z" fill="#D9D9D9"/>
<path id="Subtract_5" fill-rule="evenodd" clip-rule="evenodd" d="M2035 1253V1259H2045V1253H2035ZM2035 1207H2045V1060H2035V1207Z" fill="#D9D9D9"/>
<path id="Subtract_6" fill-rule="evenodd" clip-rule="evenodd" d="M1945 1207V1060H1935V1207H1945ZM1945 1253H1935V1260H1945V1253Z" fill="#D9D9D9"/>
<path id="Vector 388" d="M910 1360V1220H1070V1000H1175V1220H1370" stroke="#D9D9D9" stroke-width="10"/>
<path id="Vector 387" d="M1680 1360L5 1360" stroke="#D9D9D9" stroke-width="10"/>
<path id="Subtract_7" fill-rule="evenodd" clip-rule="evenodd" d="M1365 1220V1060H1375V1215H1427V1225H1375V1297H1365V1220ZM1473 1225H1480V1260V1265H1485H1877V1255H1490V1220V1215H1485H1473V1225ZM2168 1265H1923V1255H2168V1265ZM2214 1265H2240V1255H2214V1265ZM1365 1343H1375V1560H1365V1343Z" fill="#D9D9D9"/>
<path id="Subtract_8" fill-rule="evenodd" clip-rule="evenodd" d="M1185 1278V1360H1195V1278H1185ZM1185 1232H1195V1220H1185V1232Z" fill="#D9D9D9"/>
<path id="Subtract_9" fill-rule="evenodd" clip-rule="evenodd" d="M1320 1285H1190V1295H1315V1302H1325V1290V1285H1320ZM1325 1348H1315V1360H1325V1348Z" fill="#D9D9D9"/>
</g>
<g id="Textes">
<text id="t-pr1315" fill="#D9D9D9" xml:space="preserve" style="white-space: pre" font-family="GothamSSm" font-size="24" font-weight="bold" letter-spacing="0em"><tspan x="1770.08" y="1166.8">&#x41f;&#x420; 1044</tspan></text>
<text id="t-pr1315_2" fill="#D9D9D9" xml:space="preserve" style="white-space: pre" font-family="GothamSSm" font-size="24" font-weight="bold" letter-spacing="0em"><tspan x="1950.31" y="1166.8">&#x41f;&#x420; 1040 </tspan></text>
<text id="t-pr1315_3" fill="#D9D9D9" xml:space="preserve" style="white-space: pre" font-family="GothamSSm" font-size="24" font-weight="bold" letter-spacing="0em"><tspan x="2052.18" y="1166.8">&#x41f;&#x420; 1039 </tspan></text>
<text id="t-pr1315_4" fill="#D9D9D9" xml:space="preserve" style="white-space: pre" font-family="GothamSSm" font-size="24" font-weight="bold" letter-spacing="0em"><tspan x="1990.31" y="1316.8">&#x41f;&#x420; 1039&#x411; </tspan></text>
<text id="t-pr1315_5" fill="#D9D9D9" xml:space="preserve" style="white-space: pre" font-family="GothamSSm" font-size="24" font-weight="bold" letter-spacing="0em"><tspan x="1760.33" y="1316.8">&#x41f;&#x420; 1039&#x410; </tspan></text>
<text id="t-pr1315_6" fill="#D9D9D9" xml:space="preserve" style="white-space: pre" font-family="GothamSSm" font-size="24" font-weight="bold" letter-spacing="0em"><tspan x="1217.32" y="1333.8">&#x41f;&#x420; 1037 </tspan></text>
<text id="t-pr1315_7" fill="#D9D9D9" xml:space="preserve" style="white-space: pre" font-family="GothamSSm" font-size="24" font-weight="bold" letter-spacing="0em"><tspan x="1240.2" y="1264.8">&#x41f;&#x420; 1038 </tspan></text>
</g>
<g id="Entrances">
<circle id="7" cx="2190" cy="1190" r="10" fill="#9CBBFF"/>
<circle id="4" cx="1900" cy="1260" r="10" fill="#9CBBFF"/>
<circle id="8" cx="1190" cy="1252" r="10" fill="#9CBBFF"/>
<circle id="9" cx="1320" cy="1325" r="10" fill="#9CBBFF"/>
<circle id="12" cx="1122" cy="1158" r="10" fill="#9CBBFF"/>
<circle id="3" cx="1940" cy="1230" r="10" fill="#9CBBFF"/>
<circle id="2" cx="2040" cy="1230" r="10" fill="#9CBBFF"/>
<circle id="1" cx="2140" cy="1230" r="10" fill="#9CBBFF"/>
<circle id="5" cx="2140" cy="1310" r="10" fill="#9CBBFF"/>
</g>
<g id="Icons">
<g id="Stair">
<g id="Stair frame">
<path id="Vector 152" d="M1162 1092H1137V1107H1122V1122H1107V1137H1082" stroke="#9CD9BC" stroke-width="5" stroke-linecap="round" stroke-linejoin="round"/>
<path id="Vector 154" d="M1094 1092H1109M1109 1092L1106 1106M1109 1092L1082 1113" stroke="#9CD9BC" stroke-width="3" stroke-linecap="round" stroke-linejoin="round"/>
<path id="Vector 155" d="M1150 1137H1135M1135 1137L1138 1123M1135 1137L1162 1116" stroke="#9CD9BC" stroke-width="3" stroke-linecap="round" stroke-linejoin="round"/>
</g>
</g>
<g id="Stair_2">
<g id="Stair frame_2">
<path id="Vector 152_2" d="M2229 1122H2204V1137H2189V1152H2174V1167H2149" stroke="#9CD9BC" stroke-width="5" stroke-linecap="round" stroke-linejoin="round"/>
<path id="Vector 154_2" d="M2161 1122H2176M2176 1122L2173 1136M2176 1122L2149 1143" stroke="#9CD9BC" stroke-width="3" stroke-linecap="round" stroke-linejoin="round"/>
<path id="Vector 155_2" d="M2217 1167H2202M2202 1167L2205 1153M2202 1167L2229 1146" stroke="#9CD9BC" stroke-width="3" stroke-linecap="round" stroke-linejoin="round"/>
</g>
</g>
</g>
</g>
<defs>
<clipPath id="clip0_9_573">
<rect width="2245" height="1805" fill="white"/>
</clipPath>
</defs>
</svg>
