<svg width="2245" height="1865" viewBox="0 0 2245 1865" fill="none" xmlns="http://www.w3.org/2000/svg">
<g id="PR-1-2" clip-path="url(#clip0_9_1393)">
<g id="Spaces">
<path id="pr-1-2-stair-center" opacity="0.2" d="M1240 1320H1010V1040H1240V1320Z" fill="#9CD9BC"/>
<path id="pr-1-2-stair-left" opacity="0.2" d="M110 1070H5V1320H110V1070Z" fill="#9CD9BC"/>
<path id="pr-1-2-stair-right-1" opacity="0.2" d="M2240 1070H2140V1320H2240V1070Z" fill="#9CD9BC"/>
<path id="pr-1-2-stair-right-2" opacity="0.2" d="M1400 500H1170V600H1400V500Z" fill="#9CD9BC"/>
<path id="pr-1232" d="M1080 65H910V170H1007H1080V65Z" fill="#3B3C41"/>
<path id="pr-1233" d="M1340 65H1170V170H1340V65Z" fill="#3B3C41"/>
<path id="pr-1231" d="M1080 280V170H994H910H900V280H1080Z" fill="#3B3C41"/>
<path id="pr-1234" d="M1350 280V170H1340H1175.5H1170V280H1350Z" fill="#3B3C41"/>
<path id="pr-1235" d="M1350 280H1170V390H1350V280Z" fill="#3B3C41"/>
<path id="pr-1236" d="M1350 390H1170V500H1350V390Z" fill="#3B3C41"/>
<path id="pr-1230" d="M1080 280H900V390H1080V280Z" fill="#3B3C41"/>
<path id="pr-1229" d="M1080 390H900V500H1080V390Z" fill="#3B3C41"/>
<path id="pr-1228" d="M1080 500H900V600H1080V500Z" fill="#3B3C41"/>
<path id="pr-1227" d="M1080 600H900V710H1080V600Z" fill="#3B3C41"/>
<path id="pr-1239" d="M1350 600H1170V830H1350V600Z" fill="#3B3C41"/>
<path id="pr-1226" d="M1080 710H900V820H1080V710Z" fill="#3B3C41"/>
<path id="pr-1225" d="M1080 820H900V930H1080V820Z" fill="#3B3C41"/>
<path id="pr-1240" d="M1350 830H1170V930H1350V830Z" fill="#3B3C41"/>
<path id="pr-1201" d="M1520 1120H1340V1320H1520V1120Z" fill="#3B3C41"/>
<path id="pr-1202" d="M1680 1120H1520V1320H1680V1120Z" fill="#3B3C41"/>
<path id="pr-1203" d="M1780 1120H1680V1320H1780V1120Z" fill="#3B3C41"/>
<path id="pr-1204" d="M1940 1120H1780V1320H1940V1120Z" fill="#3B3C41"/>
<path id="pr-1205" d="M2040 1120H1940V1320H2040V1120Z" fill="#3B3C41"/>
<path id="pr-1206" d="M2140 1120H2040V1320H2140V1120Z" fill="#3B3C41"/>
<path id="pr-1207" d="M2240 1420H1900V1670H2240V1420Z" fill="#3B3C41"/>
<path id="pr-1208" d="M1900 1420H1680V1620H1900V1420Z" fill="#3B3C41"/>
<path id="pr-1209" d="M1680 1420H1340V1620H1680V1420Z" fill="#3B3C41"/>
<path id="pr-1211" d="M1340 1430H910V1630H1340V1430Z" fill="#3B3C41"/>
<path id="pr-1213" d="M810 1420H720V1620H810V1420Z" fill="#3B3C41"/>
<path id="pr-1212" d="M910 1420H810V1620H910V1420Z" fill="#3B3C41"/>
<path id="pr-1214" d="M720 1420H630V1620H720V1420Z" fill="#3B3C41"/>
<path id="pr-1215" d="M630 1420H470V1620H630V1420Z" fill="#3B3C41"/>
<path id="pr-1216" d="M470 1420H360V1620H470V1420Z" fill="#3B3C41"/>
<path id="pr-1217" d="M360 1420H5V1670H360V1420Z" fill="#3B3C41"/>
<path id="pr-1219" d="M310 1120H110V1320H310V1120Z" fill="#3B3C41"/>
<path id="pr-1221" d="M470 1120H310V1320H470V1120Z" fill="#3B3C41"/>
<path id="pr-1222" d="M630 1120H470V1320H630V1120Z" fill="#3B3C41"/>
<path id="pr-1223" d="M910 1120H630V1320H910V1120Z" fill="#3B3C41"/>
<path id="!pr-1-2-crossing-2" opacity="0.2" d="M1165 0H1085V100H1165V0Z" fill="#9CD9BC"/>
</g>
<g id="Walls">
<path id="Subtract" fill-rule="evenodd" clip-rule="evenodd" d="M1210 173V167H1170V173H1210ZM1240 173H1340V167H1240V173Z" fill="#A5A5A7"/>
<path id="Subtract_2" fill-rule="evenodd" clip-rule="evenodd" d="M1010 173V167H910V173H1010ZM1040 173H1080V167H1040V173Z" fill="#A5A5A7"/>
<path id="Subtract_3" fill-rule="evenodd" clip-rule="evenodd" d="M1010 393V387H900V393H1010ZM1040 393H1080V387H1040V393Z" fill="#A5A5A7"/>
<path id="Subtract_4" fill-rule="evenodd" clip-rule="evenodd" d="M773 1250V1120H767V1250H773ZM773 1280H767V1320H773V1280Z" fill="#A5A5A7"/>
<path id="Vector 379" d="M600 1420V1460H550H470" stroke="#A5A5A7" stroke-width="6"/>
<path id="Subtract_5" fill-rule="evenodd" clip-rule="evenodd" d="M237 1531V1670H243V1531H237ZM237 1501H243V1420H237V1501Z" fill="#A5A5A7"/>
<path id="Subtract_6" fill-rule="evenodd" clip-rule="evenodd" d="M207 1279V1320H213V1279H207ZM207 1249H213V1120H207V1249Z" fill="#A5A5A7"/>
<path id="Vector 381" d="M1270 600V680H1350" stroke="#A5A5A7" stroke-width="6"/>
<path id="Vector 380" d="M1170 680H1230" stroke="#A5A5A7" stroke-width="6"/>
<path id="Vector 377" d="M720 1421V1621" stroke="#D9D9D9" stroke-width="10"/>
<path id="Vector 337" d="M920 1630H1330" stroke="#D9D9D9" stroke-width="10"/>
<path id="Vector 366" d="M900 280H1080" stroke="#D9D9D9" stroke-width="10"/>
<path id="Vector 372" d="M1170 280H1350" stroke="#D9D9D9" stroke-width="10"/>
<path id="Vector 373" d="M1170 390H1350" stroke="#D9D9D9" stroke-width="10"/>
<path id="Vector 374" d="M1170 830H1350" stroke="#D9D9D9" stroke-width="10"/>
<path id="Vector 368" d="M900 500H1080" stroke="#D9D9D9" stroke-width="10"/>
<path id="Vector 369" d="M900 600H1080" stroke="#D9D9D9" stroke-width="10"/>
<path id="Vector 370" d="M900 710H1080" stroke="#D9D9D9" stroke-width="10"/>
<path id="Vector 371" d="M900 820H1080" stroke="#D9D9D9" stroke-width="10"/>
<path id="Vector 347" d="M1350 500H1170" stroke="#D9D9D9" stroke-width="10"/>
<path id="Vector 348" d="M1350 600H1170" stroke="#D9D9D9" stroke-width="10"/>
<path id="Vector 349" d="M2140 1120V1320" stroke="#D9D9D9" stroke-width="10"/>
<path id="Vector 350" d="M1900 1620V1420" stroke="#D9D9D9" stroke-width="10"/>
<path id="Vector 351" d="M360 1621V1421" stroke="#D9D9D9" stroke-width="10"/>
<path id="Vector 352" d="M110 1120V1320" stroke="#D9D9D9" stroke-width="10"/>
<path id="Vector 353" d="M1680 1620V1420" stroke="#D9D9D9" stroke-width="10"/>
<path id="Vector 354" d="M1680 1320V1120" stroke="#D9D9D9" stroke-width="10"/>
<path id="Vector 358" d="M1520 1320V1120" stroke="#D9D9D9" stroke-width="10"/>
<path id="Vector 360" d="M630 1320V1120" stroke="#D9D9D9" stroke-width="10"/>
<path id="Vector 361" d="M470 1320V1120" stroke="#D9D9D9" stroke-width="10"/>
<path id="Vector 363" d="M470 1620V1420" stroke="#D9D9D9" stroke-width="10"/>
<path id="Vector 364" d="M630 1620V1420" stroke="#D9D9D9" stroke-width="10"/>
<path id="Vector 365" d="M810 1621V1421" stroke="#D9D9D9" stroke-width="10"/>
<path id="Vector 362" d="M310 1320V1120" stroke="#D9D9D9" stroke-width="10"/>
<path id="Vector 355" d="M1780 1320V1120" stroke="#D9D9D9" stroke-width="10"/>
<path id="Vector 356" d="M1940 1320V1120" stroke="#D9D9D9" stroke-width="10"/>
<path id="Vector 357" d="M2040 1320V1120" stroke="#D9D9D9" stroke-width="10"/>
<path id="Subtract_7" fill-rule="evenodd" clip-rule="evenodd" d="M1075 428V253H1085V428H1075ZM1075 474V528H1085V474H1075ZM1075 637V574H1085V637H1075ZM1075 683V747H1085V683H1075ZM1075 857V793H1085V857H1075ZM1075 903V930H1085V903H1075ZM1085 207H1075V65H1085V207Z" fill="#D9D9D9"/>
<path id="Subtract_8" fill-rule="evenodd" clip-rule="evenodd" d="M1165 317V253H1175V317H1165ZM1165 363V427H1175V363H1165ZM1165 857V663H1175V857H1165ZM1175 617H1165V573H1175V617ZM1175 527H1165V473H1175V527ZM1165 903V930H1175V903H1165ZM1175 207H1165V65H1175V207Z" fill="#D9D9D9"/>
<path id="Subtract_9" fill-rule="evenodd" clip-rule="evenodd" d="M1085 935V925H910V935H1085ZM1165 935H1340V925H1165V935Z" fill="#D9D9D9"/>
<path id="Subtract_10" fill-rule="evenodd" clip-rule="evenodd" d="M905 1410V1420H915V1410H905ZM905 1330L915 1330V1320H905V1330Z" fill="#D9D9D9"/>
<path id="Subtract_11" fill-rule="evenodd" clip-rule="evenodd" d="M1335 1410V1420H1345V1410H1335ZM1335 1330L1345 1330V1320H1335V1330Z" fill="#D9D9D9"/>
<path id="Subtract_12" fill-rule="evenodd" clip-rule="evenodd" d="M1097 1425H910V1435H1097V1425ZM1143 1435H1340V1425H1143V1435Z" fill="#D9D9D9"/>
<path id="Subtract_13" fill-rule="evenodd" clip-rule="evenodd" d="M267 1415H5V1425H267V1415ZM313 1425H397V1415H313V1425ZM527 1425H443V1415H527V1425ZM573 1425H657V1415H573V1425ZM747 1425H703V1415H747V1425ZM793 1425H837V1415H793V1425ZM905 1425H883V1415H910H915V1420V1621H905V1425Z" fill="#D9D9D9"/>
<path id="Subtract_14" fill-rule="evenodd" clip-rule="evenodd" d="M915 1247V1120H905V1247H915ZM915 1293H905V1315H573V1325H910H915V1320V1293ZM443 1315H527V1325H443V1315ZM397 1325V1315H283V1325H397ZM100 1315H237V1325H100V1315ZM20 1315L20 1325H5V1315H20Z" fill="#D9D9D9"/>
<path id="Subtract_15" fill-rule="evenodd" clip-rule="evenodd" d="M2067 1425V1415H1790H1753V1425H1790H2067ZM2113 1425H2240V1415H2113V1425ZM1423 1415H1707V1425H1423V1415ZM1377 1415H1340H1335V1420V1620H1345V1425H1377V1415Z" fill="#D9D9D9"/>
<path id="Subtract_16" fill-rule="evenodd" clip-rule="evenodd" d="M1345 1120V1314H1377V1324H1340H1335V1319V1120H1345ZM1423 1324H1597V1314H1423V1324ZM1707 1324H1643V1314H1707V1324ZM1753 1324H1857V1314H1753V1324ZM1967 1324H1903V1314H1967V1324ZM2013 1324H2067V1314H2013V1324ZM2150 1324H2113V1314H2150V1324ZM2230 1324H2240V1314H2230V1324Z" fill="#D9D9D9"/>
<path id="Vector 333" d="M1080 0V65H910V170H900V280V390V500V600V710V820V930H910V1120H770H630H470H310H210H110V1070H5V1320V1420V1670H360V1620H470H630H810H910V1630H920V1860H1330V1630H1340V1620H1680H1900V1670H2240V1420.77V1320V1070H2140V1120H2040H1940H1780H1680H1520.13H1340V930H1350V830V600H1400V500H1350V390V280V170H1340V65H1170V0" stroke="#D9D9D9" stroke-width="10"/>
</g>
<g id="Textes">
<text id="text 13" fill="#D9D9D9" xml:space="preserve" style="white-space: pre" font-family="GothamSSm" font-size="24" font-weight="bold" letter-spacing="0em"><tspan x="1395.21" y="1226.8">&#x41f;&#x420; 1201</tspan></text>
<text id="text 19" fill="#D9D9D9" xml:space="preserve" style="white-space: pre" font-family="GothamSSm" font-size="24" font-weight="bold" letter-spacing="0em"><tspan x="800.344" y="1226.8">&#x41f;&#x420; 1223</tspan></text>
<text id="text 33" fill="#D9D9D9" xml:space="preserve" style="white-space: pre" font-family="GothamSSm" font-size="24" font-weight="bold" letter-spacing="0em"><tspan x="950.262" y="886.8">&#x41f;&#x420; 1225</tspan></text>
<text id="text 34" fill="#D9D9D9" xml:space="preserve" style="white-space: pre" font-family="GothamSSm" font-size="24" font-weight="bold" letter-spacing="0em"><tspan x="950.305" y="776.8">&#x41f;&#x420; 1226</tspan></text>
<text id="text 35" fill="#D9D9D9" xml:space="preserve" style="white-space: pre" font-family="GothamSSm" font-size="24" font-weight="bold" letter-spacing="0em"><tspan x="950.367" y="666.8">&#x41f;&#x420; 1227</tspan></text>
<text id="text 36" fill="#D9D9D9" xml:space="preserve" style="white-space: pre" font-family="GothamSSm" font-size="24" font-weight="bold" letter-spacing="0em"><tspan x="950.363" y="556.8">&#x41f;&#x420; 1228</tspan></text>
<text id="text 37" fill="#D9D9D9" xml:space="preserve" style="white-space: pre" font-family="GothamSSm" font-size="24" font-weight="bold" letter-spacing="0em"><tspan x="950.293" y="456.8">&#x41f;&#x420; 1229</tspan></text>
<text id="text 38" fill="#D9D9D9" xml:space="preserve" style="white-space: pre" font-family="GothamSSm" font-size="24" font-weight="bold" letter-spacing="0em"><tspan x="950.453" y="346.8">&#x41f;&#x420; 1230</tspan></text>
<text id="text 39" fill="#D9D9D9" xml:space="preserve" style="white-space: pre" font-family="GothamSSm" font-size="24" font-weight="bold" letter-spacing="0em"><tspan x="950.137" y="236.8">&#x41f;&#x420; 1231</tspan></text>
<text id="text 40" fill="#D9D9D9" xml:space="preserve" style="white-space: pre" font-family="GothamSSm" font-size="24" font-weight="bold" letter-spacing="0em"><tspan x="960.379" y="126.8">&#x41f;&#x420; 1232</tspan></text>
<text id="text 41" fill="#D9D9D9" xml:space="preserve" style="white-space: pre" font-family="GothamSSm" font-size="24" font-weight="bold" letter-spacing="0em"><tspan x="1220.47" y="126.8">&#x41f;&#x420; 1233</tspan></text>
<text id="text 42" fill="#D9D9D9" xml:space="preserve" style="white-space: pre" font-family="GothamSSm" font-size="24" font-weight="bold" letter-spacing="0em"><tspan x="1220.22" y="236.8">&#x41f;&#x420; 1234</tspan></text>
<text id="text 43" fill="#D9D9D9" xml:space="preserve" style="white-space: pre" font-family="GothamSSm" font-size="24" font-weight="bold" letter-spacing="0em"><tspan x="1220.45" y="346.8">&#x41f;&#x420; 1235</tspan></text>
<text id="text 44" fill="#D9D9D9" xml:space="preserve" style="white-space: pre" font-family="GothamSSm" font-size="24" font-weight="bold" letter-spacing="0em"><tspan x="1220.4" y="456.8">&#x41f;&#x420; 1236</tspan></text>
<text id="text 45" fill="#D9D9D9" xml:space="preserve" style="white-space: pre" font-family="GothamSSm" font-size="24" font-weight="bold" letter-spacing="0em"><tspan x="1220.48" y="756.8">&#x41f;&#x420; 1239</tspan></text>
<text id="text 46" fill="#D9D9D9" xml:space="preserve" style="white-space: pre" font-family="GothamSSm" font-size="24" font-weight="bold" letter-spacing="0em"><tspan x="1220.36" y="886.8">&#x41f;&#x420; 1240</tspan></text>
<text id="text 23" fill="#D9D9D9" xml:space="preserve" style="white-space: pre" font-family="GothamSSm" font-size="24" font-weight="bold" letter-spacing="0em"><tspan x="1090.3" y="1536.8">&#x41f;&#x420; 1211</tspan></text>
<text id="text 27" fill="#D9D9D9" xml:space="preserve" style="white-space: pre" font-family="GothamSSm" font-size="24" font-weight="bold" letter-spacing="0em"><tspan x="825.008" y="1536.8">&#x41f;&#x420; 1212</tspan></text>
<text id="text 28" fill="#D9D9D9" xml:space="preserve" style="white-space: pre" font-family="GothamSSm" font-size="24" font-weight="bold" letter-spacing="0em"><tspan x="730.137" y="1536.8">&#x41f;&#x420; 1213</tspan></text>
<text id="text 29" fill="#D9D9D9" xml:space="preserve" style="white-space: pre" font-family="GothamSSm" font-size="24" font-weight="bold" letter-spacing="0em"><tspan x="640.387" y="1536.8">&#x41f;&#x420; 1214</tspan></text>
<text id="text 30" fill="#D9D9D9" xml:space="preserve" style="white-space: pre" font-family="GothamSSm" font-size="24" font-weight="bold" letter-spacing="0em"><tspan x="515.055" y="1536.8">&#x41f;&#x420; 1215</tspan></text>
<text id="text 31" fill="#D9D9D9" xml:space="preserve" style="white-space: pre" font-family="GothamSSm" font-size="24" font-weight="bold" letter-spacing="0em"><tspan x="380.062" y="1536.8">&#x41f;&#x420; 1216</tspan></text>
<text id="text 32" fill="#D9D9D9" xml:space="preserve" style="white-space: pre" font-family="GothamSSm" font-size="24" font-weight="bold" letter-spacing="0em"><tspan x="90.1367" y="1536.8">&#x41f;&#x420; 1217</tspan></text>
<text id="text 24" fill="#D9D9D9" xml:space="preserve" style="white-space: pre" font-family="GothamSSm" font-size="24" font-weight="bold" letter-spacing="0em"><tspan x="1480.4" y="1536.8">&#x41f;&#x420; 1209</tspan></text>
<text id="text 25" fill="#D9D9D9" xml:space="preserve" style="white-space: pre" font-family="GothamSSm" font-size="24" font-weight="bold" letter-spacing="0em"><tspan x="1755.47" y="1536.8">&#x41f;&#x420; 1208</tspan></text>
<text id="text 26" fill="#D9D9D9" xml:space="preserve" style="white-space: pre" font-family="GothamSSm" font-size="24" font-weight="bold" letter-spacing="0em"><tspan x="2040.15" y="1536.8">&#x41f;&#x420; 1207</tspan></text>
<text id="text 20" fill="#D9D9D9" xml:space="preserve" style="white-space: pre" font-family="GothamSSm" font-size="24" font-weight="bold" letter-spacing="0em"><tspan x="515.215" y="1226.8">&#x41f;&#x420; 1222</tspan></text>
<text id="text 21" fill="#D9D9D9" xml:space="preserve" style="white-space: pre" font-family="GothamSSm" font-size="24" font-weight="bold" letter-spacing="0em"><tspan x="355.008" y="1226.8">&#x41f;&#x420; 1221</tspan></text>
<text id="text 22" fill="#D9D9D9" xml:space="preserve" style="white-space: pre" font-family="GothamSSm" font-size="24" font-weight="bold" letter-spacing="0em"><tspan x="125.086" y="1226.8">&#x41f;&#x420; 1219</tspan></text>
<text id="text 14" fill="#D9D9D9" xml:space="preserve" style="white-space: pre" font-family="GothamSSm" font-size="24" font-weight="bold" letter-spacing="0em"><tspan x="1565.44" y="1226.8">&#x41f;&#x420; 1202</tspan></text>
<text id="text 15" fill="#D9D9D9" xml:space="preserve" style="white-space: pre" font-family="GothamSSm" font-size="24" font-weight="bold" letter-spacing="0em"><tspan x="1690.05" y="1226.8">&#x41f;&#x420; 1203</tspan></text>
<text id="text 16" fill="#D9D9D9" xml:space="preserve" style="white-space: pre" font-family="GothamSSm" font-size="24" font-weight="bold" letter-spacing="0em"><tspan x="1820.2" y="1226.8">&#x41f;&#x420; 1204</tspan></text>
<text id="text 17" fill="#D9D9D9" xml:space="preserve" style="white-space: pre" font-family="GothamSSm" font-size="24" font-weight="bold" letter-spacing="0em"><tspan x="1950.37" y="1226.8">&#x41f;&#x420; 1205</tspan></text>
<text id="text 18" fill="#D9D9D9" xml:space="preserve" style="white-space: pre" font-family="GothamSSm" font-size="24" font-weight="bold" letter-spacing="0em"><tspan x="2050.38" y="1226.8">&#x41f;&#x420; 1206</tspan></text>
</g>
<g id="Entrances">
<circle id="1" cx="1400" cy="1320" r="10" fill="#9CBBFF"/>
<circle id="2" cx="1620" cy="1320" r="10" fill="#9CBBFF"/>
<circle id="3" cx="1730" cy="1320" r="10" fill="#9CBBFF"/>
<circle id="4" cx="1880" cy="1320" r="10" fill="#9CBBFF"/>
<circle id="5" cx="1990" cy="1320" r="10" fill="#9CBBFF"/>
<circle id="6" cx="2090" cy="1320" r="10" fill="#9CBBFF"/>
<circle id="7" cx="2190" cy="1249" r="10" fill="#9CBBFF"/>
<circle id="8" cx="2090" cy="1420" r="10" fill="#9CBBFF"/>
<circle id="9" cx="1730" cy="1420" r="10" fill="#9CBBFF"/>
<circle id="10" cx="1400" cy="1420" r="10" fill="#9CBBFF"/>
<circle id="11" cx="1120" cy="1430" r="10" fill="#9CBBFF"/>
<circle id="12" cx="860" cy="1420" r="10" fill="#9CBBFF"/>
<circle id="13" cx="910" cy="1270" r="10" fill="#9CBBFF"/>
<circle id="14" cx="770" cy="1420" r="10" fill="#9CBBFF"/>
<circle id="15" cx="680" cy="1420" r="10" fill="#9CBBFF"/>
<circle id="16" cx="550" cy="1420" r="10" fill="#9CBBFF"/>
<circle id="17" cx="420" cy="1420" r="10" fill="#9CBBFF"/>
<circle id="18" cx="290" cy="1420" r="10" fill="#9CBBFF"/>
<circle id="19" cx="60" cy="1248" r="10" fill="#9CBBFF"/>
<circle id="20" cx="260" cy="1320" r="10" fill="#9CBBFF"/>
<circle id="21" cx="420" cy="1320" r="10" fill="#9CBBFF"/>
<circle id="22" cx="550" cy="1320" r="10" fill="#9CBBFF"/>
<circle id="23" cx="1080" cy="880" r="10" fill="#9CBBFF"/>
<circle id="24" cx="1170" cy="880" r="10" fill="#9CBBFF"/>
<circle id="25" cx="1080" cy="770" r="10" fill="#9CBBFF"/>
<circle id="26" cx="1080" cy="660" r="10" fill="#9CBBFF"/>
<circle id="27" cx="1170" cy="640" r="10" fill="#9CBBFF"/>
<circle id="28" cx="1230" cy="550" r="10" fill="#9CBBFF"/>
<circle id="29" cx="1080" cy="551" r="10" fill="#9CBBFF"/>
<circle id="30" cx="1080" cy="450" r="10" fill="#9CBBFF"/>
<circle id="36" cx="1025" cy="390" r="10" fill="#9CBBFF"/>
<circle id="31" cx="1170" cy="450" r="10" fill="#9CBBFF"/>
<circle id="32" cx="1170" cy="340" r="10" fill="#9CBBFF"/>
<circle id="33" cx="1170" cy="230" r="10" fill="#9CBBFF"/>
<circle id="37" cx="1225" cy="170" r="10" fill="#9CBBFF"/>
<circle id="34" cx="1080" cy="230" r="10" fill="#9CBBFF"/>
<circle id="38" cx="1025" cy="170" r="10" fill="#9CBBFF"/>
<circle id="35" cx="1123" cy="1223" r="10" fill="#9CBBFF"/>
</g>
<g id="Icons">
<g id="Stair">
<g id="Stair frame">
<path id="Vector 152" d="M1162 1152H1137V1167H1122V1182H1107V1197H1082" stroke="#9CD9BC" stroke-width="5" stroke-linecap="round" stroke-linejoin="round"/>
<path id="Vector 154" d="M1094 1152H1109M1109 1152L1106 1166M1109 1152L1082 1173" stroke="#9CD9BC" stroke-width="3" stroke-linecap="round" stroke-linejoin="round"/>
<path id="Vector 155" d="M1150 1197H1135M1135 1197L1138 1183M1135 1197L1162 1176" stroke="#9CD9BC" stroke-width="3" stroke-linecap="round" stroke-linejoin="round"/>
</g>
</g>
<g id="Stair_2">
<g id="Stair frame_2">
<path id="Vector 152_2" d="M1332 527H1307V542H1292V557H1277V572H1252" stroke="#9CD9BC" stroke-width="5" stroke-linecap="round" stroke-linejoin="round"/>
<path id="Vector 154_2" d="M1264 527H1279M1279 527L1276 541M1279 527L1252 548" stroke="#9CD9BC" stroke-width="3" stroke-linecap="round" stroke-linejoin="round"/>
<path id="Vector 155_2" d="M1320 572H1305M1305 572L1308 558M1305 572L1332 551" stroke="#9CD9BC" stroke-width="3" stroke-linecap="round" stroke-linejoin="round"/>
</g>
</g>
<g id="Stair_3">
<g id="Stair frame_3">
<path id="Vector 152_3" d="M2230 1182H2205V1197H2190V1212H2175V1227H2150" stroke="#9CD9BC" stroke-width="5" stroke-linecap="round" stroke-linejoin="round"/>
<path id="Vector 154_3" d="M2162 1182H2177M2177 1182L2174 1196M2177 1182L2150 1203" stroke="#9CD9BC" stroke-width="3" stroke-linecap="round" stroke-linejoin="round"/>
<path id="Vector 155_3" d="M2218 1227H2203M2203 1227L2206 1213M2203 1227L2230 1206" stroke="#9CD9BC" stroke-width="3" stroke-linecap="round" stroke-linejoin="round"/>
</g>
</g>
<g id="Stair_4">
<g id="Stair frame_4">
<path id="Vector 152_4" d="M97 1182H72V1197H57V1212H42V1227H17" stroke="#9CD9BC" stroke-width="5" stroke-linecap="round" stroke-linejoin="round"/>
<path id="Vector 154_4" d="M29 1182H44M44 1182L41 1196M44 1182L17 1203" stroke="#9CD9BC" stroke-width="3" stroke-linecap="round" stroke-linejoin="round"/>
<path id="Vector 155_4" d="M85 1227H70M70 1227L73 1213M70 1227L97 1206" stroke="#9CD9BC" stroke-width="3" stroke-linecap="round" stroke-linejoin="round"/>
</g>
</g>
<g id="&#208;&#161;rossing" clip-path="url(#clip1_9_1393)">
<g id="Group 24">
<path id="Vector 320" d="M1112.5 79.7582V24" stroke="#9CD9BC" stroke-width="5" stroke-linecap="round"/>
<path id="Vector 323" d="M1137.5 80V24" stroke="#9CD9BC" stroke-width="5" stroke-linecap="round"/>
</g>
<g id="Group 25">
<circle id="Ellipse 36" cx="1125" cy="63.5" r="1.5" transform="rotate(-90 1125 63.5)" fill="#D9D9D9"/>
<circle id="Ellipse 32" cx="1125" cy="87.5" r="1.5" transform="rotate(-90 1125 87.5)" fill="#D9D9D9"/>
<circle id="Ellipse 37" cx="1125" cy="57.5" r="1.5" transform="rotate(-90 1125 57.5)" fill="#D9D9D9"/>
<circle id="Ellipse 33" cx="1125" cy="81.5" r="1.5" transform="rotate(-90 1125 81.5)" fill="#D9D9D9"/>
<circle id="Ellipse 38" cx="1125" cy="51.5" r="1.5" transform="rotate(-90 1125 51.5)" fill="#D9D9D9"/>
<circle id="Ellipse 34" cx="1125" cy="75.5" r="1.5" transform="rotate(-90 1125 75.5)" fill="#D9D9D9"/>
<circle id="Ellipse 39" cx="1125" cy="45.5" r="1.5" transform="rotate(-90 1125 45.5)" fill="#D9D9D9"/>
<circle id="Ellipse 35" cx="1125" cy="69.5" r="1.5" transform="rotate(-90 1125 69.5)" fill="#D9D9D9"/>
<circle id="Ellipse 40" cx="1125" cy="39.5" r="1.5" transform="rotate(-90 1125 39.5)" fill="#D9D9D9"/>
</g>
<path id="Vector 325" d="M1125 32.5006V6.50061M1125 6.50061L1118.5 16.5006M1125 6.50061L1131.5 16.5006" stroke="#D9D9D9" stroke-width="3" stroke-miterlimit="1" stroke-linecap="round" stroke-linejoin="round"/>
</g>
<g id="Doors">
<path id="Vector 301" d="M919 1364L912 1336V1330" stroke="#A5A5A7" stroke-width="6"/>
<path id="Vector 302" d="M919 1376L912 1404V1410" stroke="#A5A5A7" stroke-width="6"/>
</g>
<g id="Doors_2">
<path id="Vector 301_2" d="M1331 1376L1338 1404V1410" stroke="#A5A5A7" stroke-width="6"/>
<path id="Vector 302_2" d="M1331 1364L1338 1336V1330" stroke="#A5A5A7" stroke-width="6"/>
</g>
<g id="Doors_3">
<path id="Vector 301_3" d="M66 1329L94 1322H100" stroke="#A5A5A7" stroke-width="6"/>
<path id="Vector 302_3" d="M54 1329L26 1322H20" stroke="#A5A5A7" stroke-width="6"/>
</g>
<g id="Doors_4">
<path id="Vector 301_4" d="M2196 1328L2224 1321H2230" stroke="#A5A5A7" stroke-width="6"/>
<path id="Vector 302_4" d="M2184 1328L2156 1321H2150" stroke="#A5A5A7" stroke-width="6"/>
</g>
</g>
</g>
<defs>
<clipPath id="clip0_9_1393">
<rect width="2245" height="1865" fill="white"/>
</clipPath>
<clipPath id="clip1_9_1393">
<rect width="85" height="60" fill="white" transform="matrix(0 -1 1 0 1095 90)"/>
</clipPath>
</defs>
</svg>
