<svg width="2245" height="1805" viewBox="0 0 2245 1805" fill="none" xmlns="http://www.w3.org/2000/svg">
<g id="PR-1-4">
<g id="Spaces">
<path id="pr-1-4-stair-center" opacity="0.2" d="M1240 1260H1010V980H1240V1260Z" fill="#9CD9BC"/>
<path id="pr-1-4-stair-left" opacity="0.2" d="M110 1010H5V1260H110V1010Z" fill="#9CD9BC"/>
<path id="pr-1-4-stair-right-1" opacity="0.2" d="M2240 1010H2140V1260H2240V1010Z" fill="#9CD9BC"/>
<path id="pr-1-4-stair-right-2" opacity="0.2" d="M1400 440H1170V540H1400V440Z" fill="#9CD9BC"/>
<path id="pr-1428" d="M1340 5H1170V110H1340V5Z" fill="#3B3C41"/>
<path id="pr-1427" d="M1080 220V110V5H910V110H900V220H1080Z" fill="#3B3C41"/>
<path id="pr-1429" d="M1350 220V163.721V110H1170V220H1350Z" fill="#3B3C41"/>
<path id="pr-1430" d="M1350 220H1170V330H1350V220Z" fill="#3B3C41"/>
<path id="pr-1431" d="M1350 330H1170V440H1350V330Z" fill="#3B3C41"/>
<path id="pr-1425" d="M1080 220H900V440H1080V220Z" fill="#3B3C41"/>
<path id="pr-1426" d="M1080 220H900V440H1080V220Z" fill="#3B3C41"/>
<path id="pr-1425_2" d="M1080 440H900V540H1080V440Z" fill="#3B3C41"/>
<path id="pr-1424" d="M1080 540H900V650H1080V540Z" fill="#3B3C41"/>
<path id="pr-1433" d="M1350 650H1170V770H1350V650Z" fill="#3B3C41"/>
<path id="pr-1432" d="M1350 540H1170V650H1350V540Z" fill="#3B3C41"/>
<path id="pr-1423" d="M1080 650H900V760H1080V650Z" fill="#3B3C41"/>
<path id="pr-1422" d="M1080 760H900V870H1080V760Z" fill="#3B3C41"/>
<path id="pr-1435" d="M1340 870H1170V980H1340V870Z" fill="#3B3C41"/>
<path id="pr-1421" d="M1080 870H910V980H1080V870Z" fill="#3B3C41"/>
<path id="pr-1434" d="M1350 770H1170V870H1350V770Z" fill="#3B3C41"/>
<path id="pr-1401" d="M1520 1060H1340V1260H1520V1060Z" fill="#3B3C41"/>
<path id="!pr-u" d="M1340 980H1240V1180H1340V980Z" fill="#3B3C41"/>
<path id="!pr-u_2" d="M1010 980H910V1180H1010V980Z" fill="#3B3C41"/>
<path id="pr-1402" d="M1680 1060H1520V1260H1680V1060Z" fill="#3B3C41"/>
<path id="pr-1403" d="M1940 1060H1680V1260H1940V1060Z" fill="#3B3C41"/>
<path id="pr-1405" d="M2140 1060H1940V1260H2140V1060Z" fill="#3B3C41"/>
<path id="pr-1407" d="M2240 1360H1900V1610H2240V1360Z" fill="#3B3C41"/>
<path id="pr-1408" d="M1900 1360H1680V1560H1900V1360Z" fill="#3B3C41"/>
<path id="pr-1409" d="M1680 1360H1340V1560H1680V1360Z" fill="#3B3C41"/>
<path id="pr-1411" d="M1340 1370H910V1570H1340V1370Z" fill="#3B3C41"/>
<path id="pr-1413" d="M810 1360H630V1560H810V1360Z" fill="#3B3C41"/>
<path id="pr-1412" d="M910 1360H810V1560H910V1360Z" fill="#3B3C41"/>
<path id="pr-1414" d="M630 1360H470V1560H630V1360Z" fill="#3B3C41"/>
<path id="pr-1415" d="M470 1360H360V1560H470V1360Z" fill="#3B3C41"/>
<path id="pr-1416" d="M360 1360H5V1610H360V1360Z" fill="#3B3C41"/>
<path id="pr-1417" d="M310 1060H110V1260H310V1060Z" fill="#3B3C41"/>
<path id="pr-1418" d="M470 1060H310V1260H470V1060Z" fill="#3B3C41"/>
<path id="pr-1419" d="M630 1060H470V1260H630V1060Z" fill="#3B3C41"/>
<path id="pr-1420" d="M910 1060H630V1260H910V1060Z" fill="#3B3C41"/>
</g>
<g id="Walls">
<path id="Vector 337" d="M920 1570H1330" stroke="#D9D9D9" stroke-width="10"/>
<path id="Vector 366" d="M900 220H1080" stroke="#D9D9D9" stroke-width="10"/>
<path id="Vector 372" d="M1170 220H1350" stroke="#D9D9D9" stroke-width="10"/>
<path id="Vector 387" d="M1170 110H1350" stroke="#D9D9D9" stroke-width="10"/>
<path id="Vector 373" d="M1170 330H1350" stroke="#D9D9D9" stroke-width="10"/>
<path id="Vector 374" d="M1170 770H1350" stroke="#D9D9D9" stroke-width="10"/>
<path id="Vector 368" d="M900 440H1080" stroke="#D9D9D9" stroke-width="10"/>
<path id="Vector 369" d="M900 540H1080" stroke="#D9D9D9" stroke-width="10"/>
<path id="Vector 370" d="M900 650H1080" stroke="#D9D9D9" stroke-width="10"/>
<path id="Vector 386" d="M1170 650H1350" stroke="#D9D9D9" stroke-width="10"/>
<path id="Vector 371" d="M900 760H1080" stroke="#D9D9D9" stroke-width="10"/>
<path id="Vector 347" d="M1350 440H1170" stroke="#D9D9D9" stroke-width="10"/>
<path id="Vector 348" d="M1350 540H1170" stroke="#D9D9D9" stroke-width="10"/>
<path id="Vector 349" d="M2140 1060V1260" stroke="#D9D9D9" stroke-width="10"/>
<path id="Vector 350" d="M1900 1560V1360" stroke="#D9D9D9" stroke-width="10"/>
<path id="Vector 351" d="M360 1561V1361" stroke="#D9D9D9" stroke-width="10"/>
<path id="Vector 352" d="M110 1060V1260" stroke="#D9D9D9" stroke-width="10"/>
<path id="Vector 353" d="M1680 1560V1360" stroke="#D9D9D9" stroke-width="10"/>
<path id="Vector 354" d="M1680 1260V1060" stroke="#D9D9D9" stroke-width="10"/>
<path id="Vector 358" d="M1520 1260V1060" stroke="#D9D9D9" stroke-width="10"/>
<path id="Vector 388" d="M1080 980H910" stroke="#D9D9D9" stroke-width="10"/>
<path id="Vector 390" d="M1340 980H1170" stroke="#D9D9D9" stroke-width="10"/>
<path id="Vector 360" d="M630 1260V1060" stroke="#D9D9D9" stroke-width="10"/>
<path id="Vector 361" d="M470 1260V1060" stroke="#D9D9D9" stroke-width="10"/>
<path id="Vector 363" d="M470 1560V1360" stroke="#D9D9D9" stroke-width="10"/>
<path id="Vector 364" d="M630 1560V1360" stroke="#D9D9D9" stroke-width="10"/>
<path id="Vector 365" d="M810 1561V1361" stroke="#D9D9D9" stroke-width="10"/>
<path id="Vector 362" d="M310 1260V1060" stroke="#D9D9D9" stroke-width="10"/>
<path id="Vector 356" d="M1940 1260V1060" stroke="#D9D9D9" stroke-width="10"/>
<path id="Subtract" fill-rule="evenodd" clip-rule="evenodd" d="M1075 368V193H1085V368H1075ZM1075 414V468H1085V414H1075ZM1075 577V514H1085V577H1075ZM1075 623V687H1085V623H1075ZM1075 797V733H1085V797H1075ZM1075 843V870H1085V843H1075ZM1085 147H1075V5H1085V147Z" fill="#D9D9D9"/>
<path id="Subtract_2" fill-rule="evenodd" clip-rule="evenodd" d="M1165 257V193H1175V257H1165ZM1165 734V797H1175V734H1165ZM1165 688H1175V619H1165V688ZM1165 573H1175V513H1165V573ZM1165 467V413H1175V467H1165ZM1165 870V843H1175V870H1165ZM1165 367H1175V303H1165V367ZM1175 147H1165V80H1175V147ZM1165 5V34H1175V5H1165Z" fill="#D9D9D9"/>
<path id="Subtract_3" fill-rule="evenodd" clip-rule="evenodd" d="M1085 875V865H910V875H1085ZM1165 875H1340V865H1165V875Z" fill="#D9D9D9"/>
<path id="Subtract_4" fill-rule="evenodd" clip-rule="evenodd" d="M905 1350V1360H915V1350H905ZM905 1270L915 1270V1260H905V1270Z" fill="#D9D9D9"/>
<path id="Subtract_5" fill-rule="evenodd" clip-rule="evenodd" d="M1335 1350V1360H1345V1350H1335ZM1335 1270L1345 1270V1260H1335V1270Z" fill="#D9D9D9"/>
<path id="Subtract_6" fill-rule="evenodd" clip-rule="evenodd" d="M1097 1365H910V1375H1097V1365ZM1143 1375H1340V1365H1143V1375Z" fill="#D9D9D9"/>
<path id="Subtract_7" fill-rule="evenodd" clip-rule="evenodd" d="M160 1355H5V1365H160V1355ZM206 1365H397V1355H206V1365ZM527 1365H443V1355H527V1365ZM573 1365H657V1355H573V1365ZM837 1365H703V1355H837V1365ZM883 1365H905V1561H915V1360V1355H910H883V1365Z" fill="#D9D9D9"/>
<path id="Subtract_8" fill-rule="evenodd" clip-rule="evenodd" d="M915 1260V1060H905V1255H793V1265H910H915V1260ZM747 1265V1255H573V1265H747ZM527 1265V1255H443V1265H527ZM397 1265H283V1255H397V1265ZM237 1265V1255H100V1265H237ZM20 1265H5V1255H20L20 1265Z" fill="#D9D9D9"/>
<path id="Subtract_9" fill-rule="evenodd" clip-rule="evenodd" d="M1952 1365V1355H1811V1365H1952ZM1998 1365H2240V1355H1998V1365ZM1628 1355H1765V1365H1628V1355ZM1582 1355H1340H1335V1360V1560H1345V1365H1582V1355Z" fill="#D9D9D9"/>
<path id="Subtract_10" fill-rule="evenodd" clip-rule="evenodd" d="M1345 1060V1254H1377V1264H1340H1335V1259V1060H1345ZM1423 1264H1597V1254H1423V1264ZM1788 1264H1643V1254H1788V1264ZM1834 1264H2067V1254H1834V1264ZM2150 1264H2113V1254H2150V1264ZM2230 1264H2240V1254H2230V1264Z" fill="#D9D9D9"/>
<path id="Vector 333" d="M110 1010H5V1260V1360V1610H360V1560H470H630H810H910V1570H920H1330H1340V1560H1680H1900V1610H2240V1360.77V1260V1010H2140V1060H2040H1940H1780H1680H1520.13H1340V870H1350V770V540H1400V440H1350V330V220V110H1340V5H1170H1080H910V110H900V220V330V440V540V650V760V870H910V1060H770H630H470H310H210H110V1010Z" stroke="#D9D9D9" stroke-width="10"/>
<path id="Subtract_11" fill-rule="evenodd" clip-rule="evenodd" d="M983 1175H1005V980H1015V1180V1185H1010H983V1175ZM937 1175H905V1185H937V1175Z" fill="#D9D9D9"/>
<path id="Subtract_12" fill-rule="evenodd" clip-rule="evenodd" d="M1245 980L1245 1175H1264L1264 1185H1240H1235L1235 1180L1235 980H1245ZM1310 1185H1345V1175H1310V1185Z" fill="#D9D9D9"/>
<path id="Subtract_13" fill-rule="evenodd" clip-rule="evenodd" d="M1085 905V870H1075V905H1085ZM1085 951H1075V985H1085V951Z" fill="#D9D9D9"/>
<path id="Subtract_14" fill-rule="evenodd" clip-rule="evenodd" d="M1175 954V975H1340V985H1170H1165V980V954H1175ZM1175 908V873H1165V908H1175Z" fill="#D9D9D9"/>
</g>
<g id="Textes">
<text id="text 13" fill="#D9D9D9" xml:space="preserve" style="white-space: pre" font-family="GothamSSm" font-size="24" font-weight="bold" letter-spacing="0em"><tspan x="1394.09" y="1166.8">&#x41f;&#x420; 1401</tspan></text>
<text id="text 19" fill="#D9D9D9" xml:space="preserve" style="white-space: pre" font-family="GothamSSm" font-size="24" font-weight="bold" letter-spacing="0em"><tspan x="732.203" y="1166.8">&#x41f;&#x420; 1420</tspan></text>
<text id="text 48" fill="#D9D9D9" xml:space="preserve" style="white-space: pre" font-family="GothamSSm" font-size="24" font-weight="bold" letter-spacing="0em"><tspan x="959.387" y="933.8">&#x41f;&#x420; 1421</tspan></text>
<text id="text 34" fill="#D9D9D9" xml:space="preserve" style="white-space: pre" font-family="GothamSSm" font-size="24" font-weight="bold" letter-spacing="0em"><tspan x="953.094" y="828.8">&#x41f;&#x420; 1422</tspan></text>
<text id="text 35" fill="#D9D9D9" xml:space="preserve" style="white-space: pre" font-family="GothamSSm" font-size="24" font-weight="bold" letter-spacing="0em"><tspan x="950.223" y="718.8">&#x41f;&#x420; 1423</tspan></text>
<text id="text 36" fill="#D9D9D9" xml:space="preserve" style="white-space: pre" font-family="GothamSSm" font-size="24" font-weight="bold" letter-spacing="0em"><tspan x="949.125" y="602.8">&#x41f;&#x420; 1424</tspan></text>
<text id="text 37" fill="#D9D9D9" xml:space="preserve" style="white-space: pre" font-family="GothamSSm" font-size="24" font-weight="bold" letter-spacing="0em"><tspan x="950.141" y="496.8">&#x41f;&#x420; 1425</tspan></text>
<text id="text 38" fill="#D9D9D9" xml:space="preserve" style="white-space: pre" font-family="GothamSSm" font-size="24" font-weight="bold" letter-spacing="0em"><tspan x="952.184" y="338.8">&#x41f;&#x420; 1426</tspan></text>
<text id="text 39" fill="#D9D9D9" xml:space="preserve" style="white-space: pre" font-family="GothamSSm" font-size="24" font-weight="bold" letter-spacing="0em"><tspan x="953.246" y="120.8">&#x41f;&#x420; 1427</tspan></text>
<text id="text 41" fill="#D9D9D9" xml:space="preserve" style="white-space: pre" font-family="GothamSSm" font-size="24" font-weight="bold" letter-spacing="0em"><tspan x="1219.24" y="66.8">&#x41f;&#x420; 1428</tspan></text>
<text id="text 42" fill="#D9D9D9" xml:space="preserve" style="white-space: pre" font-family="GothamSSm" font-size="24" font-weight="bold" letter-spacing="0em"><tspan x="1219.17" y="176.8">&#x41f;&#x420; 1429</tspan></text>
<text id="text 43" fill="#D9D9D9" xml:space="preserve" style="white-space: pre" font-family="GothamSSm" font-size="24" font-weight="bold" letter-spacing="0em"><tspan x="1222.33" y="283.8">&#x41f;&#x420; 1430</tspan></text>
<text id="text 44" fill="#D9D9D9" xml:space="preserve" style="white-space: pre" font-family="GothamSSm" font-size="24" font-weight="bold" letter-spacing="0em"><tspan x="1225.02" y="393.8">&#x41f;&#x420; 1431</tspan></text>
<text id="text 45" fill="#D9D9D9" xml:space="preserve" style="white-space: pre" font-family="GothamSSm" font-size="24" font-weight="bold" letter-spacing="0em"><tspan x="1222.1" y="828.8">&#x41f;&#x420; 1434</tspan></text>
<text id="text 47" fill="#D9D9D9" xml:space="preserve" style="white-space: pre" font-family="GothamSSm" font-size="24" font-weight="bold" letter-spacing="0em"><tspan x="1223.35" y="718.8">&#x41f;&#x420; 1433</tspan></text>
<text id="text 49" fill="#D9D9D9" xml:space="preserve" style="white-space: pre" font-family="GothamSSm" font-size="24" font-weight="bold" letter-spacing="0em"><tspan x="1223.26" y="602.8">&#x41f;&#x420; 1432</tspan></text>
<text id="text 46" fill="#D9D9D9" xml:space="preserve" style="white-space: pre" font-family="GothamSSm" font-size="24" font-weight="bold" letter-spacing="0em"><tspan x="1222.33" y="935.8">&#x41f;&#x420; 1435</tspan></text>
<text id="text 23" fill="#D9D9D9" xml:space="preserve" style="white-space: pre" font-family="GothamSSm" font-size="24" font-weight="bold" letter-spacing="0em"><tspan x="1089.34" y="1466.8">&#x41f;&#x420; 1411</tspan></text>
<text id="text 27" fill="#D9D9D9" xml:space="preserve" style="white-space: pre" font-family="GothamSSm" font-size="24" font-weight="bold" letter-spacing="0em"><tspan x="825.051" y="1466.8">&#x41f;&#x420; 1412</tspan></text>
<text id="text 28" fill="#D9D9D9" xml:space="preserve" style="white-space: pre" font-family="GothamSSm" font-size="24" font-weight="bold" letter-spacing="0em"><tspan x="685.18" y="1466.8">&#x41f;&#x420; 1413</tspan></text>
<text id="text 30" fill="#D9D9D9" xml:space="preserve" style="white-space: pre" font-family="GothamSSm" font-size="24" font-weight="bold" letter-spacing="0em"><tspan x="514.43" y="1466.8">&#x41f;&#x420; 1414</tspan></text>
<text id="text 31" fill="#D9D9D9" xml:space="preserve" style="white-space: pre" font-family="GothamSSm" font-size="24" font-weight="bold" letter-spacing="0em"><tspan x="380.098" y="1466.8">&#x41f;&#x420; 1415</tspan></text>
<text id="text 32" fill="#D9D9D9" xml:space="preserve" style="white-space: pre" font-family="GothamSSm" font-size="24" font-weight="bold" letter-spacing="0em"><tspan x="147.105" y="1496.8">&#x41f;&#x420; 1416</tspan></text>
<text id="text 24" fill="#D9D9D9" xml:space="preserve" style="white-space: pre" font-family="GothamSSm" font-size="24" font-weight="bold" letter-spacing="0em"><tspan x="1471.28" y="1466.8">&#x41f;&#x420; 1409</tspan></text>
<text id="text 25" fill="#D9D9D9" xml:space="preserve" style="white-space: pre" font-family="GothamSSm" font-size="24" font-weight="bold" letter-spacing="0em"><tspan x="1751.35" y="1466.8">&#x41f;&#x420; 1408</tspan></text>
<text id="text 26" fill="#D9D9D9" xml:space="preserve" style="white-space: pre" font-family="GothamSSm" font-size="24" font-weight="bold" letter-spacing="0em"><tspan x="2032.03" y="1496.8">&#x41f;&#x420; 1407</tspan></text>
<text id="text 20" fill="#D9D9D9" xml:space="preserve" style="white-space: pre" font-family="GothamSSm" font-size="24" font-weight="bold" letter-spacing="0em"><tspan x="514.129" y="1166.8">&#x41f;&#x420; 1419</tspan></text>
<text id="text 21" fill="#D9D9D9" xml:space="preserve" style="white-space: pre" font-family="GothamSSm" font-size="24" font-weight="bold" letter-spacing="0em"><tspan x="354.199" y="1166.8">&#x41f;&#x420; 1418</tspan></text>
<text id="text 22" fill="#D9D9D9" xml:space="preserve" style="white-space: pre" font-family="GothamSSm" font-size="24" font-weight="bold" letter-spacing="0em"><tspan x="175.18" y="1166.8">&#x41f;&#x420; 1417</tspan></text>
<text id="text 14" fill="#D9D9D9" xml:space="preserve" style="white-space: pre" font-family="GothamSSm" font-size="24" font-weight="bold" letter-spacing="0em"><tspan x="1562.32" y="1166.8">&#x41f;&#x420; 1402</tspan></text>
<text id="text 15" fill="#D9D9D9" xml:space="preserve" style="white-space: pre" font-family="GothamSSm" font-size="24" font-weight="bold" letter-spacing="0em"><tspan x="1772.43" y="1166.8">&#x41f;&#x420; 1403</tspan></text>
<text id="text 17" fill="#D9D9D9" xml:space="preserve" style="white-space: pre" font-family="GothamSSm" font-size="24" font-weight="bold" letter-spacing="0em"><tspan x="2002.25" y="1166.8">&#x41f;&#x420; 1405</tspan></text>
</g>
<g id="Entrances">
<circle id="1" cx="1400" cy="1260" r="10" fill="#9CBBFF"/>
<circle id="2" cx="1620" cy="1260" r="10" fill="#9CBBFF"/>
<circle id="4" cx="1811" cy="1260" r="10" fill="#9CBBFF"/>
<circle id="6" cx="2090" cy="1260" r="10" fill="#9CBBFF"/>
<circle id="7" cx="2190" cy="1188" r="10" fill="#9CBBFF"/>
<circle id="8" cx="1975" cy="1360" r="10" fill="#9CBBFF"/>
<circle id="9" cx="1788" cy="1360" r="10" fill="#9CBBFF"/>
<circle id="10" cx="1605" cy="1360" r="10" fill="#9CBBFF"/>
<circle id="11" cx="1122" cy="1370" r="10" fill="#9CBBFF"/>
<circle id="12" cx="860" cy="1360" r="10" fill="#9CBBFF"/>
<circle id="13" cx="770" cy="1260" r="10" transform="rotate(-90 770 1260)" fill="#9CBBFF"/>
<circle id="15" cx="680" cy="1360" r="10" fill="#9CBBFF"/>
<circle id="16" cx="550" cy="1360" r="10" fill="#9CBBFF"/>
<circle id="17" cx="420" cy="1360" r="10" fill="#9CBBFF"/>
<circle id="18" cx="183" cy="1360" r="10" fill="#9CBBFF"/>
<circle id="19" cx="60" cy="1188" r="10" fill="#9CBBFF"/>
<circle id="20" cx="260" cy="1260" r="10" fill="#9CBBFF"/>
<circle id="21" cx="420" cy="1260" r="10" fill="#9CBBFF"/>
<circle id="22" cx="550" cy="1260" r="10" fill="#9CBBFF"/>
<circle id="23" cx="1080" cy="820" r="10" fill="#9CBBFF"/>
<circle id="38" cx="1080" cy="928" r="10" fill="#9CBBFF"/>
<circle id="24" cx="1170" cy="820" r="10" fill="#9CBBFF"/>
<circle id="37" cx="1170" cy="931" r="10" fill="#9CBBFF"/>
<circle id="25" cx="1080" cy="710" r="10" fill="#9CBBFF"/>
<circle id="26" cx="1080" cy="600" r="10" fill="#9CBBFF"/>
<circle id="27" cx="1170" cy="711" r="10" fill="#9CBBFF"/>
<circle id="35" cx="1170" cy="596" r="10" fill="#9CBBFF"/>
<circle id="28" cx="1225" cy="488" r="10" fill="#9CBBFF"/>
<circle id="29" cx="1080" cy="490" r="10" fill="#9CBBFF"/>
<circle id="30" cx="1080" cy="390" r="10" fill="#9CBBFF"/>
<circle id="31" cx="1170" cy="390" r="10" fill="#9CBBFF"/>
<circle id="32" cx="1170" cy="280" r="10" fill="#9CBBFF"/>
<circle id="36" cx="1170" cy="57" r="10" fill="#9CBBFF"/>
<circle id="33" cx="1170" cy="170" r="10" fill="#9CBBFF"/>
<circle id="34" cx="1080" cy="170" r="10" fill="#9CBBFF"/>
<circle id="35_2" cx="1122" cy="1163" r="10" fill="#9CBBFF"/>
</g>
<g id="Icons">
<g id="Stair">
<g id="Stair frame">
<path id="Vector 152" d="M1162 1092H1137V1107H1122V1122H1107V1137H1082" stroke="#9CD9BC" stroke-width="5" stroke-linecap="round" stroke-linejoin="round"/>
<path id="Vector 154" d="M1094 1092H1109M1109 1092L1106 1106M1109 1092L1082 1113" stroke="#9CD9BC" stroke-width="3" stroke-linecap="round" stroke-linejoin="round"/>
<path id="Vector 155" d="M1150 1137H1135M1135 1137L1138 1123M1135 1137L1162 1116" stroke="#9CD9BC" stroke-width="3" stroke-linecap="round" stroke-linejoin="round"/>
</g>
</g>
<g id="Stair_2">
<g id="Stair frame_2">
<path id="Vector 152_2" d="M1332 467H1307V482H1292V497H1277V512H1252" stroke="#9CD9BC" stroke-width="5" stroke-linecap="round" stroke-linejoin="round"/>
<path id="Vector 154_2" d="M1264 467H1279M1279 467L1276 481M1279 467L1252 488" stroke="#9CD9BC" stroke-width="3" stroke-linecap="round" stroke-linejoin="round"/>
<path id="Vector 155_2" d="M1320 512H1305M1305 512L1308 498M1305 512L1332 491" stroke="#9CD9BC" stroke-width="3" stroke-linecap="round" stroke-linejoin="round"/>
</g>
</g>
<g id="Stair_3">
<g id="Stair frame_3">
<path id="Vector 152_3" d="M2230 1122H2205V1137H2190V1152H2175V1167H2150" stroke="#9CD9BC" stroke-width="5" stroke-linecap="round" stroke-linejoin="round"/>
<path id="Vector 154_3" d="M2162 1122H2177M2177 1122L2174 1136M2177 1122L2150 1143" stroke="#9CD9BC" stroke-width="3" stroke-linecap="round" stroke-linejoin="round"/>
<path id="Vector 155_3" d="M2218 1167H2203M2203 1167L2206 1153M2203 1167L2230 1146" stroke="#9CD9BC" stroke-width="3" stroke-linecap="round" stroke-linejoin="round"/>
</g>
</g>
<g id="Stair_4">
<g id="Stair frame_4">
<path id="Vector 152_4" d="M97 1122H72V1137H57V1152H42V1167H17" stroke="#9CD9BC" stroke-width="5" stroke-linecap="round" stroke-linejoin="round"/>
<path id="Vector 154_4" d="M29 1122H44M44 1122L41 1136M44 1122L17 1143" stroke="#9CD9BC" stroke-width="3" stroke-linecap="round" stroke-linejoin="round"/>
<path id="Vector 155_4" d="M85 1167H70M70 1167L73 1153M70 1167L97 1146" stroke="#9CD9BC" stroke-width="3" stroke-linecap="round" stroke-linejoin="round"/>
</g>
</g>
<g id="Doors">
<path id="Vector 301" d="M919 1304L912 1276V1270" stroke="#A5A5A7" stroke-width="6"/>
<path id="Vector 302" d="M919 1316L912 1344V1350" stroke="#A5A5A7" stroke-width="6"/>
</g>
<g id="Doors_2">
<path id="Vector 301_2" d="M1331 1316L1338 1344V1350" stroke="#A5A5A7" stroke-width="6"/>
<path id="Vector 302_2" d="M1331 1304L1338 1276V1270" stroke="#A5A5A7" stroke-width="6"/>
</g>
<g id="Doors_3">
<path id="Vector 301_3" d="M66 1269L94 1262H100" stroke="#A5A5A7" stroke-width="6"/>
<path id="Vector 302_3" d="M54 1269L26 1262H20" stroke="#A5A5A7" stroke-width="6"/>
</g>
<g id="Doors_4">
<path id="Vector 301_4" d="M2196 1268L2224 1261H2230" stroke="#A5A5A7" stroke-width="6"/>
<path id="Vector 302_4" d="M2184 1268L2156 1261H2150" stroke="#A5A5A7" stroke-width="6"/>
</g>
</g>
</g>
</svg>
