<svg width="2245" height="1875" viewBox="0 0 2245 1875" fill="none" xmlns="http://www.w3.org/2000/svg">
<g id="PR-1-1" clip-path="url(#clip0_9_1038)">
<g id="Spaces">
<path id="pr-1-1-stair-center" opacity="0.2" d="M1175 1240H1070V1000H1175V1240Z" fill="#9CD9BC"/>
<path id="pr-1-1-stair-left" opacity="0.2" d="M110 1010H5V1260H110V1010Z" fill="#9CD9BC"/>
<path id="pr-1-1-stair-right-1" opacity="0.2" d="M2240 1010H2140V1260H2240V1010Z" fill="#9CD9BC"/>
<path id="pr-1-1-stair-right-2" opacity="0.2" d="M1400 440H1170V540H1400V440Z" fill="#9CD9BC"/>
<path id="pr-1-1-stair-5" opacity="0.2" d="M1175 1800H1065V1870H1175V1800Z" fill="#9CD9BC"/>
<path id="!pr-1114" d="M1170 295V117V5H910V110H900V295H1170Z" fill="#3B3C41"/>
<path id="pr-1141" d="M1350 200V110H1340V5H1170V200H1350Z" fill="#3B3C41"/>
<path id="pr-1140" d="M1350 200H1170V440H1350V200Z" fill="#3B3C41"/>
<path id="pr-1144a" d="M1080 295H900V440H1080V295Z" fill="#3B3C41"/>
<path id="pr-1144b" d="M1080 440H900V540H1080V440Z" fill="#3B3C41"/>
<path id="pr-1144v" d="M1080 540H900V650H1080V540Z" fill="#3B3C41"/>
<path id="pr-1138" d="M1350 540H1170V770H1350V540Z" fill="#3B3C41"/>
<path id="pr-1144g" d="M1080 650H900V760H1080V650Z" fill="#3B3C41"/>
<path id="pr-1144d" d="M1080 760H900V870H1080V760Z" fill="#3B3C41"/>
<path id="pr-1137" d="M1350 770H1170V870H1350V770Z" fill="#3B3C41"/>
<path id="pr-1100" d="M1520 1060H1340V1260H1520V1060Z" fill="#3B3C41"/>
<path id="pr-1101" d="M1780 1060H1520V1260H1640V1160H1780V1060Z" fill="#3B3C41"/>
<path id="pr-1102" d="M2140 1060H1780V1160H1640V1260H2140V1060Z" fill="#3B3C41"/>
<path id="pr-1106" d="M2240 1360H2100V1610H2240V1360Z" fill="#3B3C41"/>
<path id="pr-1108" d="M1900 1360H1790V1560H1900V1360Z" fill="#3B3C41"/>
<path id="pr-1107" d="M2100 1360H1900V1610H2100V1360Z" fill="#3B3C41"/>
<path id="pr-1109" d="M1790 1360H1690V1560H1790V1360Z" fill="#3B3C41"/>
<path id="!pr-1-1-6" d="M1690 1360H1590V1560H1690V1360Z" fill="#3B3C41"/>
<path id="pr-1110" d="M1590 1360H1340V1560H1590V1360Z" fill="#3B3C41"/>
<path id="pr-1103" d="M1050 1370H910V1570H1050V1370Z" fill="#3B3C41"/>
<path id="!pr-1-1-4" d="M1340 1370H1190V1570H1340V1370Z" fill="#3B3C41"/>
<path id="!pr-1-1-5" d="M1330 1570H1190V1800H1330V1570Z" fill="#3B3C41"/>
<path id="pr-1102_2" d="M1050 1570H920V1800H1050V1570Z" fill="#3B3C41"/>
<path id="pr-1113" d="M910 1360H810V1560H910V1360Z" fill="#3B3C41"/>
<path id="pr-1114" d="M810 1360H560V1560H810V1360Z" fill="#3B3C41"/>
<path id="pr-1116" d="M560 1360H460V1560H560V1360Z" fill="#3B3C41"/>
<path id="pr-1117" d="M460 1360H360V1560H460V1360Z" fill="#3B3C41"/>
<path id="pr-1119" d="M360 1360H5V1610H360V1360Z" fill="#3B3C41"/>
<path id="pr-1121" d="M200 1060H110V1260H200V1060Z" fill="#3B3C41"/>
<path id="pr-1122" d="M300 1060H200V1260H300V1060Z" fill="#3B3C41"/>
<path id="pr-1123" d="M470 1060H300V1260H470V1060Z" fill="#3B3C41"/>
<path id="pr-1124" d="M710 1060H470V1260H710V1060Z" fill="#3B3C41"/>
<path id="pr-1126" d="M910 1060H710V1260H910V1060Z" fill="#3B3C41"/>
<rect id="pr-1-1-wc" opacity="0.2" x="1000" y="1000" width="70" height="240" fill="#9CBBFF"/>
<rect id="!pr-1-1-3" x="1175" y="1000" width="65" height="240" fill="#3B3C41"/>
<rect id="!pr-1-1-2" x="1240" y="1130" width="100" height="110" fill="#3B3C41"/>
<rect id="!pr-1-1-1" x="1240" y="1000" width="100" height="130" fill="#3B3C41"/>
</g>
<g id="Walls">
<path id="Vector 398" d="M1900 1560H2100" stroke="#A5A5A7" stroke-width="6"/>
<path id="Vector 402" d="M1670 1160V1060" stroke="#A5A5A7" stroke-width="6"/>
<path id="Vector 399" d="M2240 1415H2200V1560H2240" stroke="#A5A5A7" stroke-width="6"/>
<path id="Subtract" fill-rule="evenodd" clip-rule="evenodd" d="M1206 203V197H1170V203H1206ZM1236 203H1350V197H1236V203Z" fill="#A5A5A7"/>
<path id="Subtract_2" fill-rule="evenodd" clip-rule="evenodd" d="M1020 1163L1020 1157H1000V1163H1020ZM1050 1163H1070V1157H1050V1163Z" fill="#A5A5A7"/>
<path id="Vector 400" d="M2100 1400H2020" stroke="#A5A5A7" stroke-width="6"/>
<path id="Vector 397" d="M1990 1610V1360" stroke="#A5A5A7" stroke-width="6"/>
<path id="Vector 396" d="M2100 1610V1360" stroke="#D9D9D9" stroke-width="10"/>
<path id="Vector 403" d="M1780 1130H2000" stroke="#A5A5A7" stroke-width="6"/>
<path id="Subtract_3" fill-rule="evenodd" clip-rule="evenodd" d="M1195 653L1195 647H1170V653H1195ZM1225 653H1350V647H1225V653Z" fill="#A5A5A7"/>
<path id="Subtract_4" fill-rule="evenodd" clip-rule="evenodd" d="M1210 78V72H1170V78H1210ZM1240 78H1340V72H1240V78Z" fill="#A5A5A7"/>
<path id="Subtract_5" fill-rule="evenodd" clip-rule="evenodd" d="M212 1530.02L211 1360.02L217 1359.98L217.982 1527L235 1527L238 1527V1530V1610H232V1533L215 1533L212.018 1533L212 1530.02Z" fill="#A5A5A7"/>
<path id="Vector 375" d="M200 1060V1260" stroke="#D9D9D9" stroke-width="10"/>
<path id="Vector 375_2" d="M300 1060V1260" stroke="#D9D9D9" stroke-width="10"/>
<path id="Vector 366" d="M900 295H1170" stroke="#D9D9D9" stroke-width="10"/>
<path id="Vector 374" d="M1170 770H1350" stroke="#D9D9D9" stroke-width="10"/>
<path id="Vector 368" d="M900 440H1080" stroke="#D9D9D9" stroke-width="10"/>
<path id="Vector 369" d="M900 540H1080" stroke="#D9D9D9" stroke-width="10"/>
<path id="Vector 370" d="M900 650H1080" stroke="#D9D9D9" stroke-width="10"/>
<path id="Vector 371" d="M900 760H1080" stroke="#D9D9D9" stroke-width="10"/>
<path id="Vector 347" d="M1350 440H1170" stroke="#D9D9D9" stroke-width="10"/>
<path id="Vector 348" d="M1350 540H1170" stroke="#D9D9D9" stroke-width="10"/>
<path id="Vector 349" d="M2140 1060V1260" stroke="#D9D9D9" stroke-width="10"/>
<path id="Vector 350" d="M1900 1560V1360" stroke="#D9D9D9" stroke-width="10"/>
<path id="Vector 351" d="M360 1561V1361" stroke="#D9D9D9" stroke-width="10"/>
<path id="Vector 352" d="M110 1060V1260" stroke="#D9D9D9" stroke-width="10"/>
<path id="Vector 353" d="M1790 1560V1360" stroke="#D9D9D9" stroke-width="10"/>
<path id="Vector 376" d="M1690 1560V1360" stroke="#D9D9D9" stroke-width="10"/>
<path id="Vector 377" d="M1590 1560V1360" stroke="#A5A5A7" stroke-width="6"/>
<path id="Vector 358" d="M1520 1260V1060" stroke="#D9D9D9" stroke-width="10"/>
<path id="Vector 360" d="M710 1260V1060" stroke="#D9D9D9" stroke-width="10"/>
<path id="Vector 361" d="M470 1260V1060" stroke="#D9D9D9" stroke-width="10"/>
<path id="Vector 364" d="M560 1560V1360" stroke="#D9D9D9" stroke-width="10"/>
<path id="Vector 365" d="M810 1561V1361" stroke="#D9D9D9" stroke-width="10"/>
<path id="Subtract_6" fill-rule="evenodd" clip-rule="evenodd" d="M1075 378L1075 467H1085L1085 378H1075ZM1075 577L1075 513H1085L1085 577H1075ZM1075 623L1075 687H1085L1085 623H1075ZM1075 797L1075 733H1085L1085 797H1075ZM1075 843L1075 870H1085L1085 843H1075ZM1075 332H1085L1085 295H1075V332Z" fill="#D9D9D9"/>
<path id="Subtract_7" fill-rule="evenodd" clip-rule="evenodd" d="M1165 797V748H1175V797H1165ZM1175 702H1165V513H1175V702ZM1175 467H1165V389H1175V467ZM1165 843V870H1175V843H1165ZM1175 343H1165V5H1175V343Z" fill="#D9D9D9"/>
<path id="Subtract_8" fill-rule="evenodd" clip-rule="evenodd" d="M1085 875V865H910V875H1085ZM1165 875H1340V865H1165V875Z" fill="#D9D9D9"/>
<path id="Subtract_9" fill-rule="evenodd" clip-rule="evenodd" d="M905 1350V1360H915V1350H905ZM905 1270L915 1270V1260H905V1270Z" fill="#D9D9D9"/>
<path id="Subtract_10" fill-rule="evenodd" clip-rule="evenodd" d="M1335 1350V1360H1345V1350H1335ZM1335 1270L1345 1270V1260H1335V1270Z" fill="#D9D9D9"/>
<path id="Subtract_11" fill-rule="evenodd" clip-rule="evenodd" d="M97 1355H5V1365H97V1355ZM143 1365H397V1355H143V1365ZM657 1365H443V1355H657V1365ZM703 1365H837V1355H703V1365ZM905 1365H883V1355H910H915V1360V1561H905V1365Z" fill="#D9D9D9"/>
<path id="Subtract_12" fill-rule="evenodd" clip-rule="evenodd" d="M915 1060V1260V1265H910H828V1255H905V1060H915ZM782 1255V1265H588V1255H782ZM412 1265H542V1255H412V1265ZM366 1255V1265H268V1255H366ZM222 1255V1265H183V1255H222ZM100 1265H137V1255H100V1265ZM20 1265H5V1255H20L20 1265Z" fill="#D9D9D9"/>
<path id="Subtract_13" fill-rule="evenodd" clip-rule="evenodd" d="M2152 1365V1355H2047V1365H2152ZM2198 1365H2240V1355H2198V1365ZM1856 1355H2001V1365H1856V1355ZM1810 1355H1790H1753V1365H1790H1810V1355ZM1534 1355H1707V1365H1534V1355ZM1488 1355H1340H1335V1360V1560H1345V1365H1488V1355Z" fill="#D9D9D9"/>
<path id="Subtract_14" fill-rule="evenodd" clip-rule="evenodd" d="M1345 1060V1254H1377V1264H1340H1335V1259V1060H1345ZM1423 1264H1554V1254H1423V1264ZM1854 1264H1600V1254H1854V1264ZM1900 1264H2067V1254H1900V1264ZM2150 1264H2113V1254H2150V1264ZM2230 1264H2240V1254H2230V1264Z" fill="#D9D9D9"/>
<path id="Subtract_15" fill-rule="evenodd" clip-rule="evenodd" d="M455 1430V1560H465V1430H455ZM455 1400H465V1360H455V1400Z" fill="#D9D9D9"/>
<path id="Subtract_16" fill-rule="evenodd" clip-rule="evenodd" d="M1080 1375V1365H910V1375H1080ZM1160 1375H1340V1365H1160V1375Z" fill="#D9D9D9"/>
<path id="Vector 401" d="M1640 1260V1160H1780V1060" stroke="#D9D9D9" stroke-width="10"/>
<path id="Vector 404" d="M2030 1260V1160H2140" stroke="#D9D9D9" stroke-width="10"/>
<path id="Vector 405" d="M1170 1000V870" stroke="#D9D9D9" stroke-width="10"/>
<path id="Vector 385" d="M920 1655H1050" stroke="#A5A5A7" stroke-width="6"/>
<path id="Subtract_17" fill-rule="evenodd" clip-rule="evenodd" d="M1097 1575V1565H920V1575H1097ZM1143 1575H1330V1565H1143V1575Z" fill="#D9D9D9"/>
<path id="Vector 333" d="M110 1010H5V1260V1360V1610H360V1560H470H630H810H910V1570H920V1800H1065V1870H1175V1835V1800H1330V1570H1340V1560H1680H1900V1610H2240V1360.77V1260V1010H2140V1060H2040H1940H1780H1680H1520.13H1340V870H1350V770V540H1400V440H1350V330V220V110H1340V5H1170H1080H910V110H900V220V330V440V540V650V760V870H910V1060H770H630H470H310H210H110V1010Z" stroke="#D9D9D9" stroke-width="10"/>
<path id="Subtract_18" fill-rule="evenodd" clip-rule="evenodd" d="M1045 1677V1533H1055V1677H1045ZM1045 1723V1800H1055V1723H1045ZM1055 1487H1045V1370H1055V1487Z" fill="#D9D9D9"/>
<path id="Subtract_19" fill-rule="evenodd" clip-rule="evenodd" d="M1185 1685V1533H1195V1685H1185ZM1185 1731V1800H1195V1731H1185ZM1195 1487H1185V1370H1195V1487Z" fill="#D9D9D9"/>
<path id="Subtract_20" fill-rule="evenodd" clip-rule="evenodd" d="M1099 1805V1795H1065V1805H1099ZM1145 1805H1175V1795H1145V1805Z" fill="#D9D9D9"/>
<path id="Vector 389" d="M1000 1000V1240" stroke="#D9D9D9" stroke-width="10"/>
<path id="Vector 390" d="M1070 1000V1240" stroke="#D9D9D9" stroke-width="10"/>
<path id="Vector 391" d="M1175 1000V1240" stroke="#D9D9D9" stroke-width="10"/>
<path id="Vector 392" d="M1240 1000V1240" stroke="#D9D9D9" stroke-width="10"/>
<path id="Vector 393" d="M1240 1130H1340" stroke="#D9D9D9" stroke-width="10"/>
<path id="Vector 394" d="M1175 1150C1200.19 1150 1240 1150 1240 1150" stroke="#D9D9D9" stroke-width="10"/>
<path id="Subtract_21" fill-rule="evenodd" clip-rule="evenodd" d="M1082 1245V1235H980V1245H1082ZM1162 1245H1340V1235H1162V1245ZM934 1235L934 1245H910V1235H934Z" fill="#D9D9D9"/>
<path id="Subtract_22" fill-rule="evenodd" clip-rule="evenodd" d="M1267 1005V995H1162V1005H1267ZM1313 1005H1340V995H1313V1005ZM1012 995V1005H980V995H1012ZM1082 1005H1058V995H1082V1005ZM934 1005L934 995H910V1005H934Z" fill="#D9D9D9"/>
</g>
<g id="Textes">
<text id="text 13" fill="#D9D9D9" xml:space="preserve" style="white-space: pre" font-family="GothamSSm" font-size="24" font-weight="bold" letter-spacing="0em"><tspan x="1393.23" y="1168.8">&#x41f;&#x420; 1100</tspan></text>
<text id="text 19" fill="#D9D9D9" xml:space="preserve" style="white-space: pre" font-family="GothamSSm" font-size="24" font-weight="bold" letter-spacing="0em"><tspan x="775.098" y="1168.8">&#x41f;&#x420; 1126</tspan></text>
<text id="text 33" fill="#D9D9D9" xml:space="preserve" style="white-space: pre" font-family="GothamSSm" font-size="24" font-weight="bold" letter-spacing="0em"><tspan x="946.16" y="823.8">&#x41f;&#x420; 1144&#x414;</tspan></text>
<text id="text 34" fill="#D9D9D9" xml:space="preserve" style="white-space: pre" font-family="GothamSSm" font-size="24" font-weight="bold" letter-spacing="0em"><tspan x="948.48" y="713.8">&#x41f;&#x420; 1144&#x413;</tspan></text>
<text id="text 35" fill="#D9D9D9" xml:space="preserve" style="white-space: pre" font-family="GothamSSm" font-size="24" font-weight="bold" letter-spacing="0em"><tspan x="947.297" y="603.8">&#x41f;&#x420; 1144&#x412;</tspan></text>
<text id="text 36" fill="#D9D9D9" xml:space="preserve" style="white-space: pre" font-family="GothamSSm" font-size="24" font-weight="bold" letter-spacing="0em"><tspan x="947.391" y="498.8">&#x41f;&#x420; 1144&#x411;</tspan></text>
<text id="text 37" fill="#D9D9D9" xml:space="preserve" style="white-space: pre" font-family="GothamSSm" font-size="24" font-weight="bold" letter-spacing="0em"><tspan x="947.41" y="375.8">&#x41f;&#x420; 1144&#x410;</tspan></text>
<text id="text 40" fill="#D9D9D9" xml:space="preserve" style="white-space: pre" font-family="GothamSSm" font-size="24" font-weight="bold" letter-spacing="0em"><tspan x="999.266" y="158.8">&#x41f;&#x420; 1144</tspan></text>
<text id="text 41" fill="#D9D9D9" xml:space="preserve" style="white-space: pre" font-family="GothamSSm" font-size="24" font-weight="bold" letter-spacing="0em"><tspan x="1221.34" y="146.8">&#x41f;&#x420; 1141</tspan></text>
<text id="text 43" fill="#D9D9D9" xml:space="preserve" style="white-space: pre" font-family="GothamSSm" font-size="24" font-weight="bold" letter-spacing="0em"><tspan x="1223.5" y="319.8">&#x41f;&#x420; 1140</tspan></text>
<text id="text 45" fill="#D9D9D9" xml:space="preserve" style="white-space: pre" font-family="GothamSSm" font-size="24" font-weight="bold" letter-spacing="0em"><tspan x="1224.29" y="721.8">&#x41f;&#x420; 1138</tspan></text>
<text id="text 46" fill="#D9D9D9" xml:space="preserve" style="white-space: pre" font-family="GothamSSm" font-size="24" font-weight="bold" letter-spacing="0em"><tspan x="1225.41" y="828.8">&#x41f;&#x420; 1137</tspan></text>
<text id="text 23" fill="#D9D9D9" xml:space="preserve" style="white-space: pre" font-family="GothamSSm" font-size="24" font-weight="bold" letter-spacing="0em"><tspan x="944.34" y="1478.8">&#x41f;&#x420; 1103</tspan></text>
<text id="text 48" fill="#D9D9D9" xml:space="preserve" style="white-space: pre" font-family="GothamSSm" font-size="24" font-weight="bold" letter-spacing="0em"><tspan x="949.234" y="1725.8">&#x41f;&#x420; 1102</tspan></text>
<text id="text 27" fill="#D9D9D9" xml:space="preserve" style="white-space: pre" font-family="GothamSSm" font-size="24" font-weight="bold" letter-spacing="0em"><tspan x="827.43" y="1468.8">&#x41f;&#x420; 1113</tspan></text>
<text id="text 29" fill="#D9D9D9" xml:space="preserve" style="white-space: pre" font-family="GothamSSm" font-size="24" font-weight="bold" letter-spacing="0em"><tspan x="651.18" y="1468.8">&#x41f;&#x420; 1114</tspan></text>
<text id="text 30" fill="#D9D9D9" xml:space="preserve" style="white-space: pre" font-family="GothamSSm" font-size="24" font-weight="bold" letter-spacing="0em"><tspan x="476.355" y="1468.8">&#x41f;&#x420; 1116</tspan></text>
<text id="text 31" fill="#D9D9D9" xml:space="preserve" style="white-space: pre" font-family="GothamSSm" font-size="24" font-weight="bold" letter-spacing="0em"><tspan x="377.43" y="1468.8">&#x41f;&#x420; 1117</tspan></text>
<text id="text 32" fill="#D9D9D9" xml:space="preserve" style="white-space: pre" font-family="GothamSSm" font-size="24" font-weight="bold" letter-spacing="0em"><tspan x="81.3945" y="1493.8">&#x41f;&#x420;  1119</tspan></text>
<text id="text 24" fill="#D9D9D9" xml:space="preserve" style="white-space: pre" font-family="GothamSSm" font-size="24" font-weight="bold" letter-spacing="0em"><tspan x="1431.41" y="1468.8">&#x41f;&#x420; 1110</tspan></text>
<text id="text 25" fill="#D9D9D9" xml:space="preserve" style="white-space: pre" font-family="GothamSSm" font-size="24" font-weight="bold" letter-spacing="0em"><tspan x="1704.2" y="1468.8">&#x41f;&#x420; 1109</tspan></text>
<text id="text 49" fill="#D9D9D9" xml:space="preserve" style="white-space: pre" font-family="GothamSSm" font-size="24" font-weight="bold" letter-spacing="0em"><tspan x="1809.27" y="1468.8">&#x41f;&#x420; 1108</tspan></text>
<text id="text 50" fill="#D9D9D9" xml:space="preserve" style="white-space: pre" font-family="GothamSSm" font-size="24" font-weight="bold" letter-spacing="0em"><tspan x="2115.17" y="1493.8">&#x41f;&#x420; 1106</tspan></text>
<text id="text 26" fill="#D9D9D9" xml:space="preserve" style="white-space: pre" font-family="GothamSSm" font-size="24" font-weight="bold" letter-spacing="0em"><tspan x="2009.45" y="1493.8">&#x41f;&#x420; 1107</tspan></text>
<text id="text 20" fill="#D9D9D9" xml:space="preserve" style="white-space: pre" font-family="GothamSSm" font-size="24" font-weight="bold" letter-spacing="0em"><tspan x="555.039" y="1168.8">&#x41f;&#x420; 1124</tspan></text>
<text id="text 21" fill="#D9D9D9" xml:space="preserve" style="white-space: pre" font-family="GothamSSm" font-size="24" font-weight="bold" letter-spacing="0em"><tspan x="350.137" y="1168.8">&#x41f;&#x420; 1123</tspan></text>
<text id="text 22" fill="#D9D9D9" xml:space="preserve" style="white-space: pre" font-family="GothamSSm" font-size="24" font-weight="bold" letter-spacing="0em"><tspan x="122.301" y="1168.8">&#x41f;&#x420; 1121</tspan></text>
<text id="text 47" fill="#D9D9D9" xml:space="preserve" style="white-space: pre" font-family="GothamSSm" font-size="24" font-weight="bold" letter-spacing="0em"><tspan x="215.008" y="1168.8">&#x41f;&#x420; 1122</tspan></text>
<text id="text 14" fill="#D9D9D9" xml:space="preserve" style="white-space: pre" font-family="GothamSSm" font-size="24" font-weight="bold" letter-spacing="0em"><tspan x="1545" y="1168.8">&#x41f;&#x420; 1101</tspan></text>
<text id="text 15" fill="#D9D9D9" xml:space="preserve" style="white-space: pre" font-family="GothamSSm" font-size="24" font-weight="bold" letter-spacing="0em"><tspan x="1854.23" y="1168.8">&#x41f;&#x420; 1102</tspan></text>
</g>
<g id="Entrances">
<circle id="1" cx="1400" cy="1260" r="10" fill="#9CBBFF"/>
<circle id="2" cx="1577" cy="1260" r="10" fill="#9CBBFF"/>
<circle id="39" cx="1877" cy="1260" r="10" fill="#9CBBFF"/>
<circle id="7" cx="2190" cy="1187" r="10" fill="#9CBBFF"/>
<circle id="8" cx="2024" cy="1360" r="10" fill="#9CBBFF"/>
<circle id="38" cx="2175" cy="1360" r="10" fill="#9CBBFF"/>
<circle id="9" cx="1730" cy="1360" r="10" fill="#9CBBFF"/>
<circle id="37" cx="1833" cy="1360" r="10" fill="#9CBBFF"/>
<circle id="10" cx="1511" cy="1360" r="10" fill="#9CBBFF"/>
<circle id="44" cx="1122" cy="1800" r="10" fill="#9CBBFF"/>
<circle id="42" cx="1122" cy="1159" r="10" fill="#9CBBFF"/>
<circle id="43" cx="1035" cy="1000" r="10" fill="#9CBBFF"/>
<circle id="40" cx="1050" cy="1510" r="10" fill="#9CBBFF"/>
<circle id="46" cx="1050" cy="1700" r="10" fill="#9CBBFF"/>
<circle id="12" cx="860" cy="1360" r="10" fill="#9CBBFF"/>
<circle id="15" cx="680" cy="1360" r="10" fill="#9CBBFF"/>
<circle id="17" cx="420" cy="1360" r="10" fill="#9CBBFF"/>
<circle id="48" cx="460" cy="1415" r="10" fill="#9CBBFF"/>
<circle id="18" cx="120" cy="1360" r="10" fill="#9CBBFF"/>
<circle id="19" cx="60" cy="1189" r="10" fill="#9CBBFF"/>
<circle id="20" cx="245" cy="1260" r="10" fill="#9CBBFF"/>
<circle id="34" cx="160" cy="1260" r="10" fill="#9CBBFF"/>
<circle id="21" cx="389" cy="1260" r="10" fill="#9CBBFF"/>
<circle id="35" cx="565" cy="1260" r="10" fill="#9CBBFF"/>
<circle id="36" cx="805" cy="1260" r="10" fill="#9CBBFF"/>
<circle id="23" cx="1080" cy="820" r="10" fill="#9CBBFF"/>
<circle id="24" cx="1170" cy="820" r="10" fill="#9CBBFF"/>
<circle id="25" cx="1080" cy="710" r="10" fill="#9CBBFF"/>
<circle id="26" cx="1080" cy="600" r="10" fill="#9CBBFF"/>
<circle id="27" cx="1170" cy="725" r="10" fill="#9CBBFF"/>
<circle id="28" cx="1226" cy="490" r="10" fill="#9CBBFF"/>
<circle id="29" cx="1080" cy="490" r="10" fill="#9CBBFF"/>
<circle id="30" cx="1080" cy="355" r="10" fill="#9CBBFF"/>
<circle id="31" cx="1170" cy="366" r="10" fill="#9CBBFF"/>
<circle id="33" cx="1221" cy="200" r="10" fill="#9CBBFF"/>
</g>
<g id="Icons">
<g id="Stair">
<g id="Stair frame">
<path id="Vector 152" d="M1162 1092H1137V1107H1122V1122H1107V1137H1082" stroke="#9CD9BC" stroke-width="5" stroke-linecap="round" stroke-linejoin="round"/>
<path id="Vector 154" d="M1094 1092H1109M1109 1092L1106 1106M1109 1092L1082 1113" stroke="#9CD9BC" stroke-width="3" stroke-linecap="round" stroke-linejoin="round"/>
<path id="Vector 155" d="M1150 1137H1135M1135 1137L1138 1123M1135 1137L1162 1116" stroke="#9CD9BC" stroke-width="3" stroke-linecap="round" stroke-linejoin="round"/>
</g>
</g>
<g id="Stair_2">
<g id="Stair frame_2">
<path id="Vector 152_2" d="M1332 467H1307V482H1292V497H1277V512H1252" stroke="#9CD9BC" stroke-width="5" stroke-linecap="round" stroke-linejoin="round"/>
<path id="Vector 154_2" d="M1264 467H1279M1279 467L1276 481M1279 467L1252 488" stroke="#9CD9BC" stroke-width="3" stroke-linecap="round" stroke-linejoin="round"/>
<path id="Vector 155_2" d="M1320 512H1305M1305 512L1308 498M1305 512L1332 491" stroke="#9CD9BC" stroke-width="3" stroke-linecap="round" stroke-linejoin="round"/>
</g>
</g>
<g id="Stair_3">
<g id="Stair frame_3">
<path id="Vector 152_3" d="M2229 1122H2204V1137H2189V1152H2174V1167H2149" stroke="#9CD9BC" stroke-width="5" stroke-linecap="round" stroke-linejoin="round"/>
<path id="Vector 154_3" d="M2161 1122H2176M2176 1122L2173 1136M2176 1122L2149 1143" stroke="#9CD9BC" stroke-width="3" stroke-linecap="round" stroke-linejoin="round"/>
<path id="Vector 155_3" d="M2217 1167H2202M2202 1167L2205 1153M2202 1167L2229 1146" stroke="#9CD9BC" stroke-width="3" stroke-linecap="round" stroke-linejoin="round"/>
</g>
</g>
<g id="Stair_4">
<g id="Stair frame_4">
<path id="Vector 152_4" d="M97 1122H72V1137H57V1152H42V1167H17" stroke="#9CD9BC" stroke-width="5" stroke-linecap="round" stroke-linejoin="round"/>
<path id="Vector 154_4" d="M29 1122H44M44 1122L41 1136M44 1122L17 1143" stroke="#9CD9BC" stroke-width="3" stroke-linecap="round" stroke-linejoin="round"/>
<path id="Vector 155_4" d="M85 1167H70M70 1167L73 1153M70 1167L97 1146" stroke="#9CD9BC" stroke-width="3" stroke-linecap="round" stroke-linejoin="round"/>
</g>
</g>
<g id="Doors">
<path id="Vector 301" d="M919 1304L912 1276V1270" stroke="#A5A5A7" stroke-width="6"/>
<path id="Vector 302" d="M919 1316L912 1344V1350" stroke="#A5A5A7" stroke-width="6"/>
</g>
<g id="Doors_2">
<path id="Vector 301_2" d="M1331 1316L1338 1344V1350" stroke="#A5A5A7" stroke-width="6"/>
<path id="Vector 302_2" d="M1331 1304L1338 1276V1270" stroke="#A5A5A7" stroke-width="6"/>
</g>
<g id="Doors_3">
<path id="Vector 301_3" d="M66 1269L94 1262H100" stroke="#A5A5A7" stroke-width="6"/>
<path id="Vector 302_3" d="M54 1269L26 1262H20" stroke="#A5A5A7" stroke-width="6"/>
</g>
<g id="Doors_4">
<path id="Vector 301_4" d="M2196 1268L2224 1261H2230" stroke="#A5A5A7" stroke-width="6"/>
<path id="Vector 302_4" d="M2184 1268L2156 1261H2150" stroke="#A5A5A7" stroke-width="6"/>
</g>
<g id="Stair_5">
<g id="Stair frame_5">
<path id="Vector 152_5" d="M1151.45 1817.55H1132.11V1829.18H1120.5V1840.82H1108.89V1852.45H1089.55" stroke="#9CD9BC" stroke-width="5" stroke-linecap="round" stroke-linejoin="round"/>
<path id="Vector 154_5" d="M1098.83 1817.55H1110.44M1110.44 1817.55L1108.12 1828.41M1110.44 1817.55L1089.55 1833.84" stroke="#9CD9BC" stroke-width="3" stroke-linecap="round" stroke-linejoin="round"/>
<path id="Vector 155_5" d="M1142.17 1852.45H1130.56M1130.56 1852.45L1132.88 1841.59M1130.56 1852.45L1151.45 1836.16" stroke="#9CD9BC" stroke-width="3" stroke-linecap="round" stroke-linejoin="round"/>
</g>
</g>
<g id="WC">
<g id="Group 5">
<path id="Vector 200" d="M1026.5 1102L1034 1123.5H1008L1015.5 1102" stroke="#A091F8" stroke-width="5" stroke-linecap="round" stroke-linejoin="round"/>
<circle id="Ellipse 9" cx="1021" cy="1084" r="8" stroke="#A091F8" stroke-width="5" stroke-linecap="round" stroke-linejoin="round"/>
</g>
<g id="Group 6">
<path id="Vector 200_2" d="M1054.5 1123.5L1062 1102H1036L1043.5 1123.5" stroke="#A091F8" stroke-width="5" stroke-linecap="round" stroke-linejoin="round"/>
<circle id="Ellipse 9_2" cx="1049" cy="1084" r="8" stroke="#A091F8" stroke-width="5" stroke-linecap="round" stroke-linejoin="round"/>
</g>
</g>
</g>
</g>
<defs>
<clipPath id="clip0_9_1038">
<rect width="2245" height="1875" fill="white"/>
</clipPath>
</defs>
</svg>
