<svg width="2260" height="1200" viewBox="0 0 2260 1200" fill="none" xmlns="http://www.w3.org/2000/svg">
<g id="PR-2-1">
<g id="Spaces">
<path id="pr-2116" d="M520 5H230V200H520V5Z" fill="#3B3C41"/>
<path id="pr-2-1-lab" d="M720 5H520V200H720V5Z" fill="#3B3C41"/>
<path id="!u" d="M1120 5H720V200H1120V5Z" fill="#3B3C41"/>
<path id="!u_2" d="M1210 5H1120V200H1210V5Z" fill="#3B3C41"/>
<path id="!u_3" d="M230 5H35V200H171.5V80H230V5Z" fill="#3B3C41"/>
<path id="pr-2110" d="M420 310H230V490H420V310Z" fill="#3B3C41"/>
<path id="!pr-2110a" d="M610 310H420V490H610V310Z" fill="#3B3C41"/>
<path id="pr-2109" d="M670 290H610V490H720V310H670V290Z" fill="#3B3C41"/>
<path id="pr-2108" d="M920 310H720V490H1010V310H980V290H920V310Z" fill="#3B3C41"/>
<path id="pr-2-1-ventilationchamber1" d="M1040 310H1010V490H1210V310H1100V290H1040V310Z" fill="#3B3C41"/>
<path id="pr-2-1-ventilationchamber2" d="M2105 695L1910 890L2055 1035L2250 840L2105 695Z" fill="#3B3C41"/>
<path id="!u_4" d="M1500 90L1410 180L1470 240L1560 150L1500 90Z" fill="#3B3C41"/>
<path id="pr-2-1-stair-center" opacity="0.2" d="M1210 160H1290V90H1380L1440 150L1500 90L1415 5H1210V160Z" fill="#9CD9BC"/>
<path id="pr-2-1-stair-left" opacity="0.2" fill-rule="evenodd" clip-rule="evenodd" d="M35 290H230V490H35V290Z" fill="#9CD9BC"/>
<path id="pr-2-1-mgts" d="M1260 370H1210V490L1230 510L1315 425L1260 370Z" fill="#3B3C41"/>
<path id="pr-2-1-gard" d="M1820 410L1560 150L1365 345L1625 605L1820 410Z" fill="#3B3C41"/>
<path id="pr-2101" d="M1625 605L1820 410L2105 695L1910 890L1625 605Z" fill="#3B3C41"/>
<path id="pr-2-1-stair-right" opacity="0.2" d="M2055 1035L1910 890L1845 955L1760 1040L1905 1185L2055 1035Z" fill="#9CD9BC"/>
<path id="pr-entrance" opacity="0.2" d="M1530 810L1420 700L1371 750L1398.91 778.999L1480 860L1530 810Z" fill="#9CD9BC"/>
<path id="!u_5" d="M1665 775L1580 860L1760 1040L1845 955L1665 775Z" fill="#3B3C41"/>
<path id="!u_6" d="M1615 725L1530 810L1580 860L1665 775L1615 725Z" fill="#3B3C41"/>
<path id="!u_7" d="M1315 425L1230 510L1330 610L1370 570L1410 610L1455 565L1315 425Z" fill="#3B3C41"/>
<path id="!u_8" d="M1370 570L1330 610L1420 700L1505 615L1455 565L1410 610L1370 570Z" fill="#3B3C41"/>
<path id="pr-2-1-lift-1" opacity="0.2" d="M1380 90H1290V160H1350L1380 90Z" fill="#A091F8"/>
<path id="pr-2-1-lift-2" opacity="0.2" d="M1439.5 149.5L1380 90L1349.5 159.5L1390 201L1439.5 149.5Z" fill="#A091F8"/>
<path id="pr-2-1-wcu" opacity="0.2" d="M230 80H170V200H230V80Z" fill="#A091F8"/>
<path id="pr-entrance_2" opacity="0.01" d="M1420 700L1370 750L1480 860L1530 810L1420 700Z" fill="#9CD9BC"/>
<path id="!u_9" d="M80 200H35V290H80V200Z" fill="#3B3C41"/>
</g>
<g id="Walls">
<path id="Vector 50" d="M1010 460H1210" stroke="#A5A5A7" stroke-width="6"/>
<path id="Vector 51" d="M1010 430H1110M1210 430H1110M1110 430V490" stroke="#A5A5A7" stroke-width="6"/>
<path id="Vector 49" d="M2120 930L2100 910L2140 870M2210 800L2140 870M2140 870L2180 910" stroke="#A5A5A7" stroke-width="6"/>
<path id="Vector 48" d="M2140 950L2120 930L2230 820" stroke="#A5A5A7" stroke-width="6"/>
<path id="Subtract" fill-rule="evenodd" clip-rule="evenodd" d="M1909.32 897.751L2108.54 698.536L2101.46 691.464L1902.25 890.68L1909.32 897.751ZM1852.75 954.32L1845.68 947.249L1756.46 1036.46L1763.54 1043.54L1852.75 954.32Z" fill="#D9D9D9"/>
<path id="Subtract_2" fill-rule="evenodd" clip-rule="evenodd" d="M1285 85H1290H1380H1382.07L1383.54 86.4645L1443.54 146.464L1447.07 150L1443.54 153.536L1393.54 203.536L1390 207.071L1386.46 203.536L1382.15 199.219L1389.22 192.148L1390 192.929L1432.93 150L1377.93 95H1295V155H1297L1297 165H1290H1285V160V90V85ZM1356.69 159.621L1353.54 156.464L1352.07 155H1350H1343V165H1347.93L1349.62 166.692L1356.69 159.621Z" fill="#D9D9D9"/>
<path id="Subtract_3" fill-rule="evenodd" clip-rule="evenodd" d="M1047 295V285H973V295H1047ZM1093 295H1210V285H1093V295ZM85 285V295H30V285H85ZM255 295H165V285H260H265V290V305H267V315H260H255V310V295ZM927 285H663V295H927V285ZM320 285H617V295H325V310V315H320H313V305H315V290V285H320Z" fill="#D9D9D9"/>
<path id="Subtract_4" fill-rule="evenodd" clip-rule="evenodd" d="M75 268V290H85V268H75ZM75 222H85V200H75V222Z" fill="#D9D9D9"/>
<path id="Subtract_5" fill-rule="evenodd" clip-rule="evenodd" d="M1215 5V200V205H1210H1183V195H1205V5H1215ZM1137 195H1120H1093V205H1120H1137V195ZM1047 195V205H720H693V195H720H1047ZM647 195H520H313V205H520H647V195ZM267 195V205H230H223V195H230H267ZM177 195V205H148V195H177ZM102 195V205H30V195H102Z" fill="#D9D9D9"/>
<path id="Subtract_6" fill-rule="evenodd" clip-rule="evenodd" d="M185 133L185 127H170V133H185ZM215 133H230V127H215V133Z" fill="#A5A5A7"/>
<path id="Subtract_7" fill-rule="evenodd" clip-rule="evenodd" d="M1205 285V490H1215V285H1205ZM1205 205L1215 205V200H1205V205Z" fill="#D9D9D9"/>
<path id="Subtract_8" fill-rule="evenodd" clip-rule="evenodd" d="M175 205V200H165V205L175 205ZM175 285H165V290H175V285Z" fill="#D9D9D9"/>
<path id="Subtract_9" fill-rule="evenodd" clip-rule="evenodd" d="M995 205V200H985V205L995 205ZM995 285H985V290H995V285Z" fill="#D9D9D9"/>
<path id="Subtract_10" fill-rule="evenodd" clip-rule="evenodd" d="M1466.46 243.535L1473.54 236.465L1458.54 221.465L1451.46 228.535L1466.46 243.535ZM1418.94 196.008L1426.01 188.938L1413.54 176.465L1406.46 183.535L1418.94 196.008Z" fill="#D9D9D9"/>
<path id="Subtract_11" fill-rule="evenodd" clip-rule="evenodd" d="M1260 365H1210V375H1257.93L1260.12 377.192L1267.19 370.121L1263.54 366.464L1262.07 365H1260ZM1299.72 402.648L1292.65 409.719L1340.12 457.192L1347.19 450.121L1299.72 402.648ZM1460.12 577.192L1372.65 489.719L1379.72 482.648L1467.19 570.121L1460.12 577.192ZM1492.65 609.719L1497.93 615L1416.46 696.464L1423.54 703.536L1508.54 618.536L1512.07 615L1508.54 611.464L1499.72 602.648L1492.65 609.719Z" fill="#D9D9D9"/>
<path id="Subtract_12" fill-rule="evenodd" clip-rule="evenodd" d="M1563.54 153.536L1429.8 287.272L1422.73 280.201L1556.46 146.464L1563.54 153.536ZM1390.2 312.728L1397.27 319.799L1372.07 345L1537.19 510.121L1530.12 517.192L1361.46 348.536L1357.93 345L1361.46 341.464L1390.2 312.728ZM1672.65 659.719L1906.46 893.536L1913.54 886.464L1679.72 652.648L1672.65 659.719ZM1640.12 627.192L1647.19 620.121L1569.72 542.648L1562.65 549.719L1640.12 627.192Z" fill="#D9D9D9"/>
<path id="Subtract_13" fill-rule="evenodd" clip-rule="evenodd" d="M1937.19 910.121L1913.54 886.464L1906.46 893.536L1930.12 917.192L1937.19 910.121ZM1969.72 942.648L1962.65 949.719L2051.46 1038.54L2058.54 1031.46L1969.72 942.648Z" fill="#D9D9D9"/>
<path id="Subtract_14" fill-rule="evenodd" clip-rule="evenodd" d="M1615 717.929L1618.54 721.464L1627.19 730.121L1620.12 737.192L1615 732.071L1533.54 813.536L1526.46 806.464L1611.46 721.464L1615 717.929ZM1652.65 769.719L1659.72 762.648L1707.19 810.121L1700.12 817.192L1652.65 769.719ZM1732.65 849.719L1841.46 958.536L1848.54 951.464L1739.72 842.648L1732.65 849.719Z" fill="#D9D9D9"/>
<path id="Subtract_15" fill-rule="evenodd" clip-rule="evenodd" d="M1461.46 748.536L1526.46 813.536L1533.54 806.464L1468.54 741.464L1461.46 748.536ZM1428.94 716.009L1436.01 708.938L1423.54 696.464L1416.46 703.536L1428.94 716.009Z" fill="#D9D9D9"/>
<path id="Subtract_16" fill-rule="evenodd" clip-rule="evenodd" d="M35 0H30V5V195H5H0V200V290V295H5H30V490V495H35H230H420H610H720H1010H1207.93L1412.93 700L1366.46 746.464L1362.93 750L1366.46 753.536L1476.46 863.536L1480 867.071L1483.54 863.536L1491.04 856.035L1483.96 848.964L1480 852.929L1377.07 750L1423.54 703.536L1427.07 700L1423.54 696.464L1213.54 486.464L1212.07 485H1210H1010H720H610H420H230H40V290V285H35H10V205H35H40V200V10H130H230H375H520H720H1120H1210H1412.93L1556.46 153.536L2106.46 703.536L2242.93 840L1905 1177.93L1763.54 1036.46L1533.54 806.464L1530 802.929L1526.46 806.464L1516.49 816.438L1523.56 823.509L1530 817.071L1756.46 1043.54L1901.46 1188.54L1905 1192.07L1908.54 1188.54L2253.54 843.536L2257.07 840L2253.54 836.464L2113.54 696.464L1563.54 146.464L1418.54 1.46447L1417.07 0H1415H1210H1120H720H520H375H230H130H35Z" fill="#D9D9D9"/>
<path id="Subtract_17" fill-rule="evenodd" clip-rule="evenodd" d="M1511.46 698.536L1576.46 763.536L1583.54 756.464L1518.54 691.464L1511.46 698.536ZM1478.94 666.009L1486.01 658.938L1473.54 646.464L1466.46 653.536L1478.94 666.009Z" fill="#D9D9D9"/>
<path id="Vector 18" d="M1010 310V490" stroke="#D9D9D9" stroke-width="10"/>
<path id="Vector 8" d="M35 200V290" stroke="#D9D9D9" stroke-width="10"/>
<path id="Vector 9" d="M230 5V200" stroke="#D9D9D9" stroke-width="10"/>
<path id="Vector 10" d="M520 5V200" stroke="#D9D9D9" stroke-width="10"/>
<path id="Vector 11" d="M720 5V200" stroke="#D9D9D9" stroke-width="10"/>
<path id="Vector 13" d="M1120 5V200" stroke="#D9D9D9" stroke-width="10"/>
<path id="Vector 14" d="M230 290V490" stroke="#D9D9D9" stroke-width="10"/>
<path id="Vector 15" d="M420 490V310" stroke="#D9D9D9" stroke-width="10"/>
<path id="Vector 16" d="M610 490V290" stroke="#D9D9D9" stroke-width="10"/>
<path id="Vector 17" d="M720 490V310" stroke="#D9D9D9" stroke-width="10"/>
<path id="Vector 33" d="M1625 605L1820 410" stroke="#D9D9D9" stroke-width="10"/>
<path id="Vector 37" d="M1440 150L1500 90" stroke="#D9D9D9" stroke-width="10"/>
<path id="Vector 38" d="M230 310H260" stroke="#D9D9D9" stroke-width="10"/>
<path id="Vector 39" d="M320 310H610" stroke="#D9D9D9" stroke-width="10"/>
<path id="Vector 40" d="M670 290V310H920V290" stroke="#D9D9D9" stroke-width="10"/>
<path id="Vector 41" d="M980 290V310H1040V290" stroke="#D9D9D9" stroke-width="10"/>
<path id="Vector 42" d="M1100 290V310H1210" stroke="#D9D9D9" stroke-width="10"/>
<path id="Vector 43" d="M170 200V80H230" stroke="#D9D9D9" stroke-width="10"/>
<path id="Vector 45" d="M1230 510L1315 425" stroke="#D9D9D9" stroke-width="10"/>
<path id="Vector 46" d="M1330 610L1370 570L1410 610L1455 565" stroke="#D9D9D9" stroke-width="10"/>
<path id="Vector 47" d="M1665 775L1580 860" stroke="#D9D9D9" stroke-width="10"/>
<path id="Vector 305" d="M1350 160L1380 90" stroke="#D9D9D9" stroke-width="10"/>
</g>
<g id="Textes">
<text id="text 13" fill="#D9D9D9" xml:space="preserve" style="white-space: pre" font-family="GothamSSm" font-size="24" font-weight="bold" letter-spacing="0em"><tspan x="340.062" y="106.8">&#x41f;&#x420; 2116</tspan></text>
<text id="text 14" fill="#D9D9D9" xml:space="preserve" style="white-space: pre" font-family="GothamSSm" font-size="24" font-weight="bold" letter-spacing="0em"><tspan x="285.117" y="416.8">&#x41f;&#x420; 2110</tspan></text>
<text id="text 16" fill="#D9D9D9" xml:space="preserve" style="white-space: pre" font-family="GothamSSm" font-size="24" font-weight="bold" letter-spacing="0em"><tspan x="625.402" y="416.8">&#x41f;&#x420; 2109</tspan></text>
<text id="text 17" fill="#D9D9D9" xml:space="preserve" style="white-space: pre" font-family="GothamSSm" font-size="24" font-weight="bold" letter-spacing="0em"><tspan x="825.473" y="416.8">&#x41f;&#x420; 2108</tspan></text>
<text id="text 20" transform="translate(1560 350) rotate(45)" fill="#D9D9D9" xml:space="preserve" style="white-space: pre" font-family="GothamSSm" font-size="24" font-weight="bold" letter-spacing="0em"><tspan x="0.359375" y="16.8">&#x413;&#x410;&#x420;&#x414;&#x415;&#x420;&#x41e;&#x411;</tspan></text>
<text id="text 22" transform="translate(1235 405) rotate(45)" fill="#D9D9D9" xml:space="preserve" style="white-space: pre" font-family="GothamSSm" font-size="24" font-weight="bold" letter-spacing="0em"><tspan x="0.425781" y="16.8">&#x41c;&#x413;&#x422;&#x421;</tspan></text>
<text id="text 21" transform="translate(1835 625) rotate(45)" fill="#D9D9D9" xml:space="preserve" style="white-space: pre" font-family="GothamSSm" font-size="24" font-weight="bold" letter-spacing="0em"><tspan x="0.441406" y="16.8">&#x41f;&#x420; 2102</tspan></text>
<text id="text 18" fill="#D9D9D9" xml:space="preserve" style="white-space: pre" font-family="GothamSSm" font-size="20" font-weight="bold" letter-spacing="0em"><tspan x="1034.03" y="371">&#x412;&#x415;&#x41d;&#x422;&#x418;&#x41b;&#x42f;&#x426;&#x418;&#x41e;&#x41d;&#x41d;&#x410;&#x42f;&#10;</tspan><tspan x="1079.22" y="395">&#x41a;&#x410;&#x41c;&#x415;&#x420;&#x410;</tspan></text>
<text id="text 23" fill="#D9D9D9" xml:space="preserve" style="white-space: pre" font-family="GothamSSm" font-size="20" font-weight="bold" letter-spacing="0em"><tspan x="560.201" y="94">&#x41b;&#x410;&#x411;&#x41e;&#x420;&#x410;&#x422;&#x41e;&#x420;&#x418;&#x42f; &#10;</tspan><tspan x="525.396" y="118">&#x424;&#x41b;&#x415;&#x41a;&#x421;&#x41e;&#x413;&#x420;&#x410;&#x424;&#x418;&#x427;&#x415;&#x421;&#x41a;&#x41e;&#x419; &#10;</tspan><tspan x="589.791" y="142">&#x41f;&#x415;&#x427;&#x410;&#x422;&#x418;</tspan></text>
<text id="text 19" transform="translate(1980 850) rotate(45)" fill="#D9D9D9" xml:space="preserve" style="white-space: pre" font-family="GothamSSm" font-size="20" font-weight="bold" letter-spacing="0em"><tspan x="0.03125" y="14">&#x412;&#x415;&#x41d;&#x422;&#x418;&#x41b;&#x42f;&#x426;&#x418;&#x41e;&#x41d;&#x41d;&#x410;&#x42f;&#10;</tspan><tspan x="45.2168" y="38">&#x41a;&#x410;&#x41c;&#x415;&#x420;&#x410;</tspan></text>
</g>
<g id="Entrances">
<circle id="4" cx="1070" cy="290" r="10" fill="#9CBBFF"/>
<circle id="5" cx="125" cy="346" r="10" fill="#9CBBFF"/>
<circle id="6" cx="200" cy="200" r="10" fill="#9CBBFF"/>
<circle id="7" cx="290" cy="200" r="10" fill="#9CBBFF"/>
<circle id="8" cx="670" cy="200" r="10" fill="#9CBBFF"/>
<circle id="11" cx="1268" cy="51" r="10" fill="#9CBBFF"/>
<circle id="12" cx="1320" cy="160" r="10" fill="#9CBBFF"/>
<circle id="26" cx="1369" cy="180" r="10" fill="#9CBBFF"/>
<circle id="15" cx="1280" cy="390" r="10" fill="#9CBBFF"/>
<circle id="20" cx="1660" cy="640" r="10" fill="#9CBBFF"/>
<circle id="25" cx="1448" cy="729" r="10" fill="#9CBBFF"/>
<circle id="21" cx="1550" cy="530" r="10" fill="#9CBBFF"/>
<circle id="23" cx="1950" cy="995" r="10" fill="#9CBBFF"/>
<circle id="24" cx="1950" cy="930" r="10" fill="#9CBBFF"/>
<circle id="1" cx="290" cy="310" r="10" fill="#9CBBFF"/>
<circle id="2" cx="640" cy="290" r="10" fill="#9CBBFF"/>
<circle id="3" cx="950" cy="290" r="10" fill="#9CBBFF"/>
</g>
<g id="Icons">
<g id="Stair">
<g id="Stair frame">
<path id="Vector 152" d="M165 365H140V380H125V395H110V410H85" stroke="#9CD9BC" stroke-width="5" stroke-linecap="round" stroke-linejoin="round"/>
<path id="Vector 154" d="M97 365H112M112 365L109 379M112 365L85 386" stroke="#9CD9BC" stroke-width="3" stroke-linecap="round" stroke-linejoin="round"/>
<path id="Vector 155" d="M153 410H138M138 410L141 396M138 410L165 389" stroke="#9CD9BC" stroke-width="3" stroke-linecap="round" stroke-linejoin="round"/>
</g>
</g>
<g id="Stair_2">
<g id="Stair frame_2">
<path id="Vector 152_2" d="M1868.43 1020.6L1886.11 1038.28L1896.72 1027.67L1907.32 1038.28L1917.93 1027.67L1928.54 1038.28L1939.14 1027.67L1956.82 1045.35" stroke="#9CD9BC" stroke-width="5" stroke-linecap="round" stroke-linejoin="round"/>
<path id="Vector 154_2" d="M1916.51 1068.69L1905.91 1058.08M1905.91 1058.08L1917.93 1050.3M1905.91 1058.08L1939.85 1062.32" stroke="#9CD9BC" stroke-width="3" stroke-linecap="round" stroke-linejoin="round"/>
<path id="Vector 155_2" d="M1908.74 997.268L1919.34 1007.88M1919.34 1007.88L1907.32 1015.65M1919.34 1007.88L1885.4 1003.63" stroke="#9CD9BC" stroke-width="3" stroke-linecap="round" stroke-linejoin="round"/>
</g>
</g>
<g id="Stair_3">
<g id="Stair frame_3">
<path id="Vector 152_3" d="M1377 27H1352V42H1337V57H1322V72H1297" stroke="#9CD9BC" stroke-width="5" stroke-linecap="round" stroke-linejoin="round"/>
<path id="Vector 154_3" d="M1309 27H1324M1324 27L1321 41M1324 27L1297 48" stroke="#9CD9BC" stroke-width="3" stroke-linecap="round" stroke-linejoin="round"/>
<path id="Vector 155_3" d="M1365 72H1350M1350 72L1353 58M1350 72L1377 51" stroke="#9CD9BC" stroke-width="3" stroke-linecap="round" stroke-linejoin="round"/>
</g>
</g>
<g id="Doors">
<path id="Vector 301" d="M119 281L91 288H85" stroke="#A5A5A7" stroke-width="6"/>
<path id="Vector 302" d="M131 281L159 288H165" stroke="#A5A5A7" stroke-width="6"/>
</g>
<g id="Doors_2">
<path id="Vector 301_2" d="M1867.16 920.648L1852.31 945.397L1848.07 949.64" stroke="#A5A5A7" stroke-width="6"/>
<path id="Vector 302_2" d="M1875.65 912.163L1900.4 897.314L1904.64 893.071" stroke="#A5A5A7" stroke-width="6"/>
</g>
<g id="Doors_3">
<path id="Vector 301_3" d="M1219 239L1212 211V205" stroke="#A5A5A7" stroke-width="6"/>
<path id="Vector 302_3" d="M1219 251L1212 279V285" stroke="#A5A5A7" stroke-width="6"/>
</g>
<g id="Elevator">
<g id="Vector">
<path d="M1335.25 122.25L1330.75 117.75L1326.25 122.25H1335.25Z" fill="#A091F8"/>
<path d="M1335.25 125.25L1330.75 129.75L1326.25 125.25H1335.25Z" fill="#A091F8"/>
<path d="M1321.75 122.25C1321.75 120 1320.25 117.75 1318 117.75H1315C1312.75 117.75 1311.25 120 1311.25 122.25V126C1311.25 127.5 1312.38 128.625 1313.5 128.625V135.75C1313.5 136.95 1314.5 137.25 1315 137.25H1318C1318.5 137.25 1319.5 136.95 1319.5 135.75V128.625C1320.62 128.625 1321.75 127.5 1321.75 126V122.25Z" fill="#A091F8"/>
<path d="M1319.5 112.5C1319.5 114.157 1318.16 115.5 1316.5 115.5C1314.84 115.5 1313.5 114.157 1313.5 112.5C1313.5 110.843 1314.84 109.5 1316.5 109.5C1318.16 109.5 1319.5 110.843 1319.5 112.5Z" fill="#A091F8"/>
</g>
<path id="Vector 201" d="M1313.88 145.125H1304.88V103.875H1341.62V145.125H1332.62" stroke="#A091F8" stroke-width="3.75" stroke-linecap="round" stroke-linejoin="round"/>
</g>
<g id="Elevator_2">
<g id="Vector_2">
<path d="M1403.49 157.123V150.759H1397.12L1403.49 157.123Z" fill="#A091F8"/>
<path d="M1401.36 159.244H1395V152.88L1401.36 159.244Z" fill="#A091F8"/>
<path d="M1393.94 147.577C1395.53 145.986 1396.06 143.335 1394.47 141.744L1392.35 139.622C1390.76 138.031 1388.11 138.562 1386.51 140.153L1383.86 142.804C1382.8 143.865 1382.8 145.456 1383.6 146.251L1378.56 151.289C1377.71 152.138 1378.21 153.057 1378.56 153.411L1380.68 155.532C1381.03 155.886 1381.95 156.381 1382.8 155.532L1387.84 150.494C1388.64 151.289 1390.23 151.289 1391.29 150.229L1393.94 147.577Z" fill="#A091F8"/>
<path d="M1399.24 139.092C1398.07 140.263 1396.17 140.263 1395 139.092C1393.83 137.92 1393.83 136.021 1395 134.849C1396.17 133.678 1398.07 133.678 1399.24 134.849C1400.41 136.021 1400.41 137.92 1399.24 139.092Z" fill="#A091F8"/>
</g>
<path id="Vector 201_2" d="M1372.2 158.184L1365.83 151.82L1395 122.652L1420.99 148.638L1391.82 177.806L1385.45 171.442" stroke="#A091F8" stroke-width="3.75" stroke-linecap="round" stroke-linejoin="round"/>
</g>
<g id="Doors_4">
<path id="Vector 301_4" d="M233 239L226 211V205" stroke="#A5A5A7" stroke-width="6"/>
<path id="Vector 302_4" d="M233 251L226 279V285" stroke="#A5A5A7" stroke-width="6"/>
</g>
<g id="Doors_5">
<path id="Vector 301_5" d="M1000 239L993 211V205" stroke="#A5A5A7" stroke-width="6"/>
<path id="Vector 302_5" d="M1000 251L993 279V285" stroke="#A5A5A7" stroke-width="6"/>
</g>
<g id="Enter" clip-path="url(#clip0_6_1135)">
<path id="Rectangle 242" d="M1453.59 805.958L1446.51 813.029L1421.06 787.574L1455 753.632L1480.46 779.088L1472.32 787.22" stroke="#9CD9BC" stroke-width="5" stroke-linecap="round" stroke-linejoin="round"/>
<g id="Group 26">
<path id="Vector 325" d="M1472.32 805.605L1449.91 783.19M1449.91 783.19L1452.38 794.857M1449.91 783.19L1461.58 785.665" stroke="#D9D9D9" stroke-width="3" stroke-miterlimit="1" stroke-linecap="round" stroke-linejoin="round"/>
</g>
</g>
<g id="WC">
<g id="Group 5">
<path id="Vector 200" d="M193.125 164L198.75 180.125H179.25L184.875 164" stroke="#A091F8" stroke-width="3.75" stroke-linecap="round" stroke-linejoin="round"/>
<circle id="Ellipse 9" cx="189" cy="150.5" r="6" stroke="#A091F8" stroke-width="3.75" stroke-linecap="round" stroke-linejoin="round"/>
</g>
<g id="Group 6">
<path id="Vector 200_2" d="M214.125 180.125L219.75 164H200.25L205.875 180.125" stroke="#A091F8" stroke-width="3.75" stroke-linecap="round" stroke-linejoin="round"/>
<circle id="Ellipse 9_2" cx="210" cy="150.5" r="6" stroke="#A091F8" stroke-width="3.75" stroke-linecap="round" stroke-linejoin="round"/>
</g>
</g>
</g>
</g>
<defs>
<clipPath id="clip0_6_1135">
<rect width="60" height="60" fill="white" transform="translate(1455 830) rotate(-135)"/>
</clipPath>
</defs>
</svg>
