<svg width="2232" height="1202" viewBox="0 0 2232 1202" fill="none" xmlns="http://www.w3.org/2000/svg">
<g id="PR-2-3" clip-path="url(#clip0_7_2742)">
<g id="Spaces">
<rect id="pr-23-stairs-2" opacity="0.2" x="5.00035" y="307" width="205" height="208" fill="#9CD9BC"/>
<rect id="pr-2304" x="955.001" y="4.99999" width="200" height="302" fill="#3B3C41"/>
<rect id="pr-23-wcm" opacity="0.2" x="120.001" y="5" width="90" height="210" fill="#9CBBFF"/>
<rect id="pr-23-wcw" opacity="0.2" x="5.00094" y="5" width="115" height="210" fill="#F783CB"/>
<rect id="!u1" x="290" y="215" width="115" height="91" fill="#3B3C41"/>
<rect id="pr-2305" x="1515" y="150" width="194.019" height="289.288" transform="rotate(42.6258 1515 150)" fill="#3B3C41"/>
<rect id="pr-2306" x="1658" y="282" width="568.229" height="289.288" transform="rotate(42.6258 1658 282)" fill="#3B3C41"/>
<rect id="pr-2307" x="1975" y="775" width="197.697" height="142.738" transform="rotate(42.6258 1975 775)" fill="#3B3C41"/>
<rect id="!u2" x="2075.01" y="665" width="204.933" height="149.646" transform="rotate(42.6258 2075.01 665)" fill="#3B3C41"/>
<path id="pr-23-lift-1" opacity="0.2" d="M1225 85L1225 163L1294 163L1325 85L1225 85Z" fill="#A091F8" stroke="#A091F8" stroke-width="6"/>
<path id="pr-23-lift-2" opacity="0.2" d="M1297 163.815L1327.2 85L1410 157.904L1356.42 218L1297 163.815Z" fill="#A091F8" stroke="#A091F8" stroke-width="6"/>
<path id="pr-23-stairs-1" opacity="0.2" d="M1410.5 159L1354.5 220L1406.5 268.5L1516.5 152.5L1354.5 5.00004L1155 5.00004L1155 165L1227 165L1225.5 84L1325 84L1410.5 159Z" fill="#9CD9BC" stroke="#9CD9BC"/>
<path id="pr-23-dinningroom" opacity="0.2" d="M405 215L405 306.04L505 307L595 5.00004L210 5.00004L210 215L405 215Z" fill="#F0B771"/>
<path id="pr-23-stairs-3" opacity="0.2" d="M1879.63 879.999L2023 1012L1865 1175L1727 1044L1879.63 879.999Z" fill="#9CD9BC"/>
<path id="pr-2303" d="M506 307L954.5 307L955 4.99965L594.901 4.99965L506 307Z" fill="#3B3C41" stroke="#3B3C41" stroke-width="6"/>
</g>
<g id="Walls">
<path id="Subtract" fill-rule="evenodd" clip-rule="evenodd" d="M169.42 110.041L48.4199 110.041L48.4199 116.041L169.42 116.041L169.42 110.041ZM199.42 116.041L206.92 116.041L206.92 110.041L199.42 110.041L199.42 116.041ZM4.41992 110.041L18.4199 110.041L18.4199 116.041L4.41992 116.041L4.41992 110.041Z" fill="#A5A5A7"/>
<path id="Vector 339" d="M146 215L145.422 115.041" stroke="#A5A5A7" stroke-width="6"/>
<path id="Vector 340" d="M96 215L95.4219 115.041" stroke="#A5A5A7" stroke-width="6"/>
<path id="Vector 341" d="M955 305L955 4.99997" stroke="#D9D9D9" stroke-width="10"/>
<path id="Vector 326" d="M4.99992 5.04056L5.00101 515L1165.42 515L1865.42 1175.04L2225.42 805.041L1355.42 5.00003L4.99992 5.04056Z" stroke="#D9D9D9" stroke-width="10"/>
<path id="Vector 329" d="M207.422 307.04L247.422 307.04L247.422 349.04L207.422 349.04" stroke="#D9D9D9" stroke-width="10"/>
<path id="Vector 330" d="M285.422 345.041L885.422 347.04L885.422 307.041L289.114 307.04" stroke="#D9D9D9" stroke-width="10"/>
<path id="Vector 332" d="M405 305L405 185" stroke="#D9D9D9" stroke-width="10"/>
<path id="Subtract_2" fill-rule="evenodd" clip-rule="evenodd" d="M1464.08 498.443L1659.08 288.443L1651.76 281.638L1456.76 491.638L1464.08 498.443ZM1436.47 466.464L1406.46 496.464L1402.78 500.152L1406.62 503.682L1776.62 843.682L1780.15 846.925L1783.54 843.536L1813.54 813.536L1806.47 806.465L1779.86 833.075L1417.22 499.848L1443.54 473.536L1436.47 466.464ZM2128.76 906.324L1982.5 774.686L2079.12 668.404L2071.72 661.677L1971.75 771.643L1971.72 771.677L1911.17 837.071L1918.25 844.147L1975.74 782.055L2122.07 913.757L2128.76 906.324ZM1891.69 872.833L1884.61 865.757L1850.28 902.831L1832.49 885.04L1858.96 858.576L1851.88 851.505L1821.88 881.505L1818.35 885.04L1821.88 888.576L1843.48 910.174L1721.75 1041.64L1729.09 1048.44L1854.09 913.438L1891.69 872.833Z" fill="#D9D9D9"/>
<path id="Subtract_3" fill-rule="evenodd" clip-rule="evenodd" d="M204.798 285.199L204.798 514.934L214.798 514.934L214.798 285.054L204.798 285.199ZM204.798 239.194L214.798 239.05L214.798 4.93382L204.798 4.93382L204.798 239.194Z" fill="#D9D9D9"/>
<path id="Vector 334" d="M1025.42 305.04L1025.42 345.041L1155.42 345.041L1155.42 305.04" stroke="#D9D9D9" stroke-width="10"/>
<path id="Subtract_4" fill-rule="evenodd" clip-rule="evenodd" d="M510.213 308.234L600.213 6.46931L590.63 3.61126L500.63 305.376L510.213 308.234ZM1150.42 5.0403L1150.42 301.805L1016.16 301.805L1016.16 311.805L1155.42 311.805L1160.42 311.805L1160.42 306.805L1160.42 5.0403L1150.42 5.0403ZM993.076 311.805L993.076 301.805L985.422 301.805L925.422 301.805L917.498 301.805L917.643 311.805L920.422 311.805L920.422 347.04L920.422 352.04L925.422 352.04L985.422 352.04L990.422 352.04L990.422 347.04L990.422 311.805L993.076 311.805ZM885.422 301.805L893.875 301.805L894.02 311.805L885.422 311.805L885.422 301.805ZM930.422 342.04L930.422 311.805L980.422 311.805L980.422 342.04L930.422 342.04ZM87.0655 311.805L205.422 311.805L205.422 301.805L86.9209 301.805L87.0655 311.805ZM46.4751 311.805L46.3304 301.805L5.42188 301.805L5.42188 311.805L46.4751 311.805Z" fill="#D9D9D9"/>
<path id="Subtract_5" fill-rule="evenodd" clip-rule="evenodd" d="M1226.89 80.4262L1221.89 80.4262L1221.89 85.4262L1221.89 165.426L1221.89 170.426L1226.89 170.426L1237.08 170.426L1236.93 160.426L1231.89 160.426L1231.89 90.4262L1319.68 90.4262L1293.43 160.426L1289.34 160.426L1289.49 170.426L1294.95 170.426L1304.77 179.432L1311.53 172.058L1302.76 164.021L1329.03 93.9768L1404.76 160.804L1356.59 213.362L1350.16 207.469L1343.4 214.844L1353.51 224.112L1357.2 227.491L1360.58 223.805L1415.58 163.805L1419.02 160.048L1415.2 156.677L1330.2 81.677L1328.78 80.4262L1326.89 80.4262L1226.89 80.4262ZM1259.05 434.991L1290.23 402.035L1356.6 463.664L1360.13 466.943L1363.54 463.535L1390.15 436.924L1399.81 445.798L1406.88 438.72L1393.38 426.318L1393.35 426.285L1393.31 426.253L1324.65 365.608L1516.63 162.434L1509.37 155.566L1289.5 388.249L1278.45 379.572L1272.11 387.306L1282.6 395.546L1255.28 424.426L1262.69 430.647L1259.05 434.991ZM1807.97 820.719L1426.95 470.731L1434.03 463.653L1814.64 813.268L1807.97 820.719ZM1841.27 851.302L2018.51 1014.11L2025.27 1006.74L1847.94 843.851L1841.27 851.302ZM1228.6 353.126L1234.94 345.392L1229.98 341.494L1228.62 340.426L1226.89 340.426L1215.53 340.426L1215.68 350.426L1225.16 350.426L1228.6 353.126ZM1156.89 340.426L1162.92 340.426L1163.06 350.426L1156.89 350.426L1156.89 340.426ZM1207.87 489.08L1200.19 482.64L1163.37 521.564L1170.63 528.436L1207.87 489.08ZM1359.87 453.057L1297.1 394.768L1317.78 372.881L1382.7 430.226L1359.87 453.057Z" fill="#D9D9D9"/>
<path id="Subtract_6" fill-rule="evenodd" clip-rule="evenodd" d="M158.98 210.04L159.124 220.04L76 220.04L76 210.04L158.98 210.04ZM237.6 220.04L201.606 220.04L201.461 210.04L237.456 210.04L237.6 220.04ZM283.605 220.04L405.422 220.04L405.422 210.04L283.461 210.04L283.605 220.04ZM30 220.04L30 210.04L5.42198 210.04L5.42198 220.04L30 220.04Z" fill="#D9D9D9"/>
<path id="Vector 337" d="M120 215L119.922 6.54053" stroke="#D9D9D9" stroke-width="10"/>
<path id="Subtract_7" fill-rule="evenodd" clip-rule="evenodd" d="M285.422 284.987L285.422 345.041L295.422 345.041L295.422 284.843L285.422 284.987ZM285.422 238.983L295.422 238.838L295.422 215.041L285.422 215.041L285.422 238.983Z" fill="#D9D9D9"/>
</g>
<g id="Textes">
<text id="&#208;&#159;&#208;&#160; 2303" transform="translate(693 150)" fill="#D9D9D9" xml:space="preserve" style="white-space: pre" font-family="GothamSSm" font-size="24" font-weight="bold" letter-spacing="0em"><tspan x="0.382812" y="16.8">&#x41f;&#x420; 2303</tspan></text>
<text id="&#208;&#159;&#208;&#160; 2304" transform="translate(1017 150)" fill="#D9D9D9" xml:space="preserve" style="white-space: pre" font-family="GothamSSm" font-size="24" font-weight="bold" letter-spacing="0em"><tspan x="0.0390625" y="16.8">&#x41f;&#x420; 2304</tspan></text>
<text id="&#208;&#159;&#209;&#128; 2305" transform="translate(1463.59 288.586) rotate(45)" fill="#D9D9D9" xml:space="preserve" style="white-space: pre" font-family="GothamSSm" font-size="24" font-weight="bold" letter-spacing="0em"><tspan x="0.207031" y="16.8">&#x41f;&#x420; 2305</tspan></text>
<text id="&#208;&#159;&#209;&#128; 2306" transform="translate(1742.88 542.879) rotate(45)" fill="#D9D9D9" xml:space="preserve" style="white-space: pre" font-family="GothamSSm" font-size="24" font-weight="bold" letter-spacing="0em"><tspan x="0.214844" y="16.8">&#x41f;&#x420; 2306</tspan></text>
<text id="&#208;&#159;&#209;&#128; 2307" transform="translate(1973.59 858.586) rotate(45)" fill="#D9D9D9" xml:space="preserve" style="white-space: pre" font-family="GothamSSm" font-size="24" font-weight="bold" letter-spacing="0em"><tspan x="0.488281" y="16.8">&#x41f;&#x420; 2307</tspan></text>
</g>
<g id="Entrances">
<circle id="Ellipse 10" cx="52" cy="214" r="10" fill="#9CBBFF"/>
<circle id="Ellipse 11" cx="180" cy="215" r="10" fill="#9CBBFF"/>
<circle id="Ellipse 12" cx="109" cy="369" r="10" fill="#9CBBFF"/>
<circle id="Ellipse 14" cx="260" cy="215" r="10" fill="#9CBBFF"/>
<circle id="Ellipse 16" cx="1005" cy="307" r="10" fill="#9CBBFF"/>
<circle id="Ellipse 17" cx="906" cy="307" r="10" fill="#9CBBFF"/>
<circle id="Ellipse 18" cx="1417" cy="454" r="10" fill="#9CBBFF"/>
<circle id="Ellipse 19" cx="1901" cy="854" r="10" fill="#9CBBFF"/>
<circle id="Ellipse 20" cx="1830" cy="833" r="10" fill="#9CBBFF"/>
<circle id="Ellipse 21" cx="1245" cy="48" r="10" fill="#9CBBFF"/>
<circle id="Ellipse 22" cx="1261" cy="166" r="10" fill="#9CBBFF"/>
<circle id="Ellipse 24" cx="1325" cy="192" r="10" fill="#9CBBFF"/>
<circle id="Ellipse 23" cx="1918" cy="1000" r="10" fill="#9CBBFF"/>
</g>
<g id="Icons">
<g id="Elevator">
<g id="Vector">
<path d="M1367.09 169.645L1366.53 161.178L1358.06 161.737L1367.09 169.645Z" fill="#A091F8"/>
<path d="M1364.45 172.654L1355.99 173.212L1355.43 164.746L1364.45 172.654Z" fill="#A091F8"/>
<path d="M1353.55 157.783C1355.53 155.527 1356 151.952 1353.74 149.975L1350.73 147.339C1348.48 145.362 1345 146.3 1343.02 148.557L1339.73 152.317C1338.41 153.821 1338.55 155.938 1339.67 156.927L1333.41 164.072C1332.36 165.275 1333.1 166.455 1333.6 166.894L1336.61 169.53C1337.11 169.97 1338.38 170.547 1339.43 169.344L1345.69 162.199C1346.82 163.187 1348.94 163.048 1350.25 161.544L1353.55 157.783Z" fill="#A091F8"/>
<path d="M1359.86 146.028C1358.4 147.69 1355.88 147.857 1354.22 146.401C1352.55 144.945 1352.39 142.418 1353.84 140.756C1355.3 139.095 1357.83 138.928 1359.49 140.384C1361.15 141.84 1361.32 144.367 1359.86 146.028Z" fill="#A091F8"/>
</g>
<path id="Vector 201" d="M1325.55 173.803L1316.53 165.895L1352.77 124.528L1389.63 156.82L1353.38 198.187L1344.36 190.279" stroke="#A091F8" stroke-width="5" stroke-linecap="round" stroke-linejoin="round"/>
</g>
<g id="Stair">
<g id="Stair frame">
<path id="Vector 152" d="M1927.18 1045.41L1909.51 1027.73L1898.9 1038.34L1888.29 1027.73L1877.69 1038.34L1867.08 1027.73L1856.47 1038.34L1838.79 1020.66" stroke="#9CD9BC" stroke-width="5" stroke-linecap="round" stroke-linejoin="round"/>
<path id="Vector 154" d="M1879.1 997.328L1889.71 1007.93M1889.71 1007.93L1877.69 1015.71M1889.71 1007.93L1855.77 1003.69" stroke="#9CD9BC" stroke-width="3" stroke-linecap="round" stroke-linejoin="round"/>
<path id="Vector 155" d="M1886.88 1068.75L1876.27 1058.14M1876.27 1058.14L1888.29 1050.36M1876.27 1058.14L1910.21 1062.38" stroke="#9CD9BC" stroke-width="3" stroke-linecap="round" stroke-linejoin="round"/>
</g>
</g>
<g id="Food">
<g id="Group 22">
<path id="Vector 291" d="M393 125L393 75" stroke="#F0B771" stroke-width="4" stroke-linecap="round" stroke-linejoin="round"/>
<path id="Vector 302" d="M408 125L408 75" stroke="#F0B771" stroke-width="4" stroke-linecap="round" stroke-linejoin="round"/>
<path id="Vector 303" d="M408 75C411 75 415.5 80 415 89C414.583 96.5 411 102 408 102" stroke="#F0B771" stroke-width="4" stroke-linecap="round" stroke-linejoin="round"/>
</g>
<path id="Vector 305" d="M394 93C397 93 399 92 399 86V75" stroke="#F0B771" stroke-width="4" stroke-linecap="round" stroke-linejoin="round"/>
<path id="Vector 306" d="M392 93C389 93 387 92 387 86V75" stroke="#F0B771" stroke-width="4" stroke-linecap="round" stroke-linejoin="round"/>
</g>
<g id="Elevator_2">
<g id="Vector_2">
<path d="M1281 123L1275 117L1269 123H1281Z" fill="#A091F8"/>
<path d="M1281 127L1275 133L1269 127H1281Z" fill="#A091F8"/>
<path d="M1263 123C1263 120 1261 117 1258 117H1254C1251 117 1249 120 1249 123V128C1249 130 1250.5 131.5 1252 131.5V141C1252 142.6 1253.33 143 1254 143H1258C1258.67 143 1260 142.6 1260 141V131.5C1261.5 131.5 1263 130 1263 128V123Z" fill="#A091F8"/>
<path d="M1260 110C1260 112.209 1258.21 114 1256 114C1253.79 114 1252 112.209 1252 110C1252 107.791 1253.79 106 1256 106C1258.21 106 1260 107.791 1260 110Z" fill="#A091F8"/>
</g>
<path id="Vector 201_2" d="M1252.5 153.5H1240.5V98.5H1289.5V153.5H1277.5" stroke="#A091F8" stroke-width="5" stroke-linecap="round" stroke-linejoin="round"/>
</g>
<g id="Stair_2">
<g id="Stair frame_2">
<path id="Vector 152_2" d="M146.671 389.186L121.674 388.824L121.457 403.823L106.458 403.606L106.242 418.604L91.2431 418.387L91.0261 433.386L66.0287 433.024" stroke="#9CD9BC" stroke-width="5" stroke-linecap="round" stroke-linejoin="round"/>
<path id="Vector 154_2" d="M78.6784 388.202L93.6768 388.419M93.6768 388.419L90.4746 402.374M93.6768 388.419L66.3759 409.027" stroke="#9CD9BC" stroke-width="3" stroke-linecap="round" stroke-linejoin="round"/>
<path id="Vector 155_2" d="M134.022 434.008L119.023 433.791M119.023 433.791L122.225 419.836M119.023 433.791L146.324 413.183" stroke="#9CD9BC" stroke-width="3" stroke-linecap="round" stroke-linejoin="round"/>
</g>
</g>
<g id="Men">
<g id="Group 6">
<path id="Vector 200" d="M172.5 83.5L181 62H153L161.5 83.5" stroke="#9CBBFF" stroke-width="5" stroke-linecap="round" stroke-linejoin="round"/>
<circle id="Ellipse 9" cx="167" cy="44" r="8" stroke="#9CBBFF" stroke-width="5" stroke-linecap="round" stroke-linejoin="round"/>
</g>
</g>
<g id="Woman">
<g id="Group 5">
<path id="Vector 200_2" d="M65.5 62L74 83.5H46L54.5 62" stroke="#F783CB" stroke-width="5" stroke-linecap="round" stroke-linejoin="round"/>
<circle id="Ellipse 9_2" cx="60" cy="44" r="8" stroke="#F783CB" stroke-width="5" stroke-linecap="round" stroke-linejoin="round"/>
</g>
</g>
<g id="Stair_3">
<g id="Stair frame_3">
<path id="Vector 152_3" d="M1347 27.9999H1322V42.9999H1307V57.9999H1292V72.9999H1267" stroke="#9CD9BC" stroke-width="5" stroke-linecap="round" stroke-linejoin="round"/>
<path id="Vector 154_3" d="M1279 27.9999H1294M1294 27.9999L1291 41.9999M1294 27.9999L1267 48.9999" stroke="#9CD9BC" stroke-width="3" stroke-linecap="round" stroke-linejoin="round"/>
<path id="Vector 155_3" d="M1335 72.9999H1320M1320 72.9999L1323 58.9999M1320 72.9999L1347 51.9999" stroke="#9CD9BC" stroke-width="3" stroke-linecap="round" stroke-linejoin="round"/>
</g>
</g>
</g>
</g>
<defs>
<clipPath id="clip0_7_2742">
<rect width="2232" height="1202" fill="white"/>
</clipPath>
</defs>
</svg>
