<svg width="2230" height="1200" viewBox="0 0 2230 1200" fill="none" xmlns="http://www.w3.org/2000/svg">
<g id="PR-2-2">
<g id="Spaces">
<path id="pr-2209" d="M1188 6H788V201H1188V6Z" fill="#3B3C41"/>
<path id="pr-2206" d="M788 311H208V491H788V311Z" fill="#3B3C41"/>
<path id="pr-2205" d="M898 311H788V491H988V311H958H898Z" fill="#3B3C41"/>
<path id="pr-2204" d="M1048.5 311H988V491H1098V311H1081.5H1048.5Z" fill="#3B3C41"/>
<path id="pr-2203" d="M1136.3 311H1098V401V491H1187.87L1322.18 626L1452 496L1268.76 311H1240.19H1172.97H1136.3Z" fill="#3B3C41"/>
<path id="pr-2214" d="M2083 696L1948 831L2093 976L2228 841L2083 696Z" fill="#3B3C41"/>
<path id="pr-2201" d="M1453.31 496L1323 626L1607.69 911L1672.84 846L1738 781L1453.31 496Z" fill="#3B3C41"/>
<path id="pr-2-2-stair-center" opacity="0.2" d="M1188 161H1268V91H1358L1418 151L1368 201L1428 261L1538 151L1478 91L1393 6H1188V161Z" fill="#9CD9BC"/>
<path id="pr-2-2-stair-left" opacity="0.2" fill-rule="evenodd" clip-rule="evenodd" d="M8 291H208V491H8V291Z" fill="#9CD9BC"/>
<path id="pr-2202a" d="M1673 286.5L1538 151L1403 286L1538.5 420.5L1605 354.5L1673 286.5Z" fill="#3B3C41"/>
<path id="pr-2210" d="M1948 831L1614 497L1681.5 429.5L1749 362L2083 696L1948 831Z" fill="#3B3C41"/>
<path id="pr-2214a" d="M1949 960.829L2014.17 896L2094 976.171L2028.83 1041L1949 960.829Z" fill="#3B3C41"/>
<path id="pr-2-2-stair-right" opacity="0.2" d="M2028 1041L1883 896L1823 956L1738 1041L1883 1186L2028 1041Z" fill="#9CD9BC"/>
<path id="pr-2201m" d="M1868 911L1738 779.5L1673 844.5L1608 909.5L1738 1041L1868 911Z" fill="#3B3C41"/>
<path id="pr-2-2-lift" opacity="0.2" d="M1358 91H1268V161H1328L1368 201L1418 151L1358 91Z" fill="#A091F8"/>
<path id="pr-2202b" d="M1672.68 286L1538 421L1614.32 498L1681.66 430.5L1749 362.5L1672.68 286Z" fill="#3B3C41"/>
<rect id="pr-2208" x="438" y="6" width="350" height="195" fill="#3B3C41"/>
<rect id="pr-2507" x="208" y="6" width="230" height="195" fill="#3B3C41"/>
</g>
<g id="Walls">
<path id="Subtract" fill-rule="evenodd" clip-rule="evenodd" d="M1654.88 849.879L1596.88 907.879L1601.12 912.121L1659.12 854.121L1654.88 849.879ZM1676.09 828.665L1680.33 832.908L1731.12 782.121L1726.88 777.879L1676.09 828.665Z" fill="#A5A5A7"/>
<path id="Subtract_2" fill-rule="evenodd" clip-rule="evenodd" d="M2055.83 878.408L2157.12 777.121L2152.88 772.879L2051.59 874.165L2055.83 878.408ZM2034.62 899.621L2030.38 895.379L2017.88 907.879L2022.12 912.121L2034.62 899.621Z" fill="#A5A5A7"/>
<path id="Subtract_3" fill-rule="evenodd" clip-rule="evenodd" d="M1180 295H1267.93L1387.93 415L1376.46 426.464L1383.54 433.536L1398.54 418.536L1402.07 415L1398.54 411.464L1273.54 286.464L1272.07 285H1270H1180V295ZM1438.54 451.464L1435 447.929L1431.46 451.464L1416.46 466.464L1423.54 473.536L1435 462.071L1467.93 495L1456.46 506.464L1463.54 513.536L1478.54 498.536L1482.07 495L1478.54 491.464L1438.54 451.464ZM1518.54 531.464L1515 527.929L1511.46 531.464L1496.46 546.464L1503.54 553.536L1515 542.071L1526.46 553.536L1807.93 835L1796.46 846.464L1803.54 853.536L1818.54 838.536L1822.07 835L1818.54 831.464L1533.54 546.464L1518.54 531.464ZM1858.54 871.464L1855 867.929L1851.46 871.464L1836.46 886.464L1843.54 893.536L1855 882.071L1866.46 893.536L1876.08 903.148L1883.15 896.077L1873.54 886.464L1858.54 871.464ZM1939.41 952.336L1932.34 959.407L2016.46 1043.54L2023.54 1036.46L1939.41 952.336Z" fill="#D9D9D9"/>
<path id="Vector 334" d="M1735 499L1669.5 433.5" stroke="#A5A5A7" stroke-width="6"/>
<path id="Subtract_4" fill-rule="evenodd" clip-rule="evenodd" d="M1260 305H1180V315H1257.93L1380.12 437.192L1387.19 430.121L1263.54 306.464L1262.07 305H1260ZM1419.72 462.648L1412.65 469.719L1460.12 517.192L1467.19 510.121L1419.72 462.648ZM1800.12 857.192L1492.65 549.719L1499.72 542.648L1807.19 850.121L1800.12 857.192ZM1832.65 889.719L1856.46 913.536L1863.54 906.464L1839.72 882.648L1832.65 889.719Z" fill="#D9D9D9"/>
<path id="Subtract_5" fill-rule="evenodd" clip-rule="evenodd" d="M297 126L297 200H303L303 126H297ZM297 96H303L303 5H297L297 96Z" fill="#A5A5A7"/>
<path id="Subtract_6" fill-rule="evenodd" clip-rule="evenodd" d="M1752.77 476.985L1669.88 559.879L1674.12 564.121L1757.01 481.228L1752.77 476.985ZM1773.99 455.772L1778.23 460.015L1809.12 429.121L1804.88 424.879L1773.99 455.772Z" fill="#A5A5A7"/>
<path id="Subtract_7" fill-rule="evenodd" clip-rule="evenodd" d="M2078.54 698.536L1943.54 833.536L1936.46 826.464L2071.46 691.464L2078.54 698.536ZM1878.54 898.536L1733.54 1043.54L1726.46 1036.46L1871.46 891.464L1878.54 898.536Z" fill="#D9D9D9"/>
<path id="Subtract_8" fill-rule="evenodd" clip-rule="evenodd" d="M1255 85H1260H1350H1352.07L1353.54 86.4645L1413.54 146.464L1417.07 150L1413.54 153.536L1363.54 203.536L1360 207.071L1356.46 203.536L1352.15 199.219L1359.22 192.148L1360 192.929L1402.93 150L1347.93 95H1265V155H1267L1267 165H1260H1255V160V90V85ZM1326.69 159.621L1323.54 156.464L1322.07 155H1320H1313V165H1317.93L1319.62 166.692L1326.69 159.621Z" fill="#D9D9D9"/>
<path id="Subtract_9" fill-rule="evenodd" clip-rule="evenodd" d="M1185 200V5H1175V195H1153V205H1180H1185V200ZM1107 205V195H1090H690H580V205H690H1090H1107ZM534 205V195H490H387V205H490H534ZM341 205V195H200H5V205H200H341Z" fill="#D9D9D9"/>
<path id="Subtract_10" fill-rule="evenodd" clip-rule="evenodd" d="M1175 285V290H1185V285H1175ZM1175 205L1185 205V200H1175V205Z" fill="#D9D9D9"/>
<path id="Subtract_11" fill-rule="evenodd" clip-rule="evenodd" d="M1448.54 498.536L1403.54 543.535L1318.54 628.535L1311.46 621.464L1396.46 536.464L1400 540L1396.46 536.464L1441.47 491.464L1448.54 498.536Z" fill="#D9D9D9"/>
<path id="Subtract_12" fill-rule="evenodd" clip-rule="evenodd" d="M0 0H5H100H200H345H490H690H1090H1180H1385H1387.07L1388.54 1.46447L1533.54 146.464L2083.54 696.464L2223.54 836.464L2227.07 840L2223.54 843.536L1878.54 1188.54L1875 1192.07L1871.46 1188.54L1726.46 1043.54L1496.46 813.536L1386.46 703.536L1177.93 495H980H690H580H390H200H5H0V490V290V200V5V0ZM10 10V200V290V485H200H390H580H690H980H1180H1182.07L1183.54 486.464L1393.54 696.464L1503.54 806.464L1733.54 1036.46L1875 1177.93L2212.93 840L2076.46 703.536L1526.46 153.536L1382.93 10H1180H1090H690H490H345H200H100H10Z" fill="#D9D9D9"/>
<path id="Vector 18" d="M980 310V490" stroke="#D9D9D9" stroke-width="10"/>
<path id="Vector 332" d="M1090 310V490" stroke="#D9D9D9" stroke-width="10"/>
<path id="Vector 9" d="M200 5V200" stroke="#D9D9D9" stroke-width="10"/>
<path id="Vector 10" d="M430 5V200" stroke="#D9D9D9" stroke-width="10"/>
<path id="Vector 11" d="M780 5V200" stroke="#D9D9D9" stroke-width="10"/>
<path id="Vector 17" d="M780 490V310" stroke="#D9D9D9" stroke-width="10"/>
<path id="Vector 33" d="M1530 420L1665 285" stroke="#D9D9D9" stroke-width="10"/>
<path id="Vector 305" d="M1320 160L1350 90" stroke="#D9D9D9" stroke-width="10"/>
<path id="Subtract_13" fill-rule="evenodd" clip-rule="evenodd" d="M5 285H200H205V290V490H195V295H5V285Z" fill="#D9D9D9"/>
<path id="Subtract_14" fill-rule="evenodd" clip-rule="evenodd" d="M1065 297L1065 305H1063V315H1070H1180V305H1075V295H1180V285H1075H1070H1065V297ZM945 297V295V285H950H955H1005H1010H1015V295V297V305H1017V315H1010H950H943V305H945V297ZM890 285H895V295V297V305H897V315H890H660H600H290H283V305H285V297V295V285H290H295H595H600H660H665H885H890ZM235 285H230H225H200H195V290V310V315H200H230H237V305H235V297V295V285ZM1005 305V295H955V305H1005ZM885 305V295H665V305H885ZM655 305V295H605V305H655ZM595 305V295H295V305H595ZM225 305V295H205V305H225Z" fill="#D9D9D9"/>
<path id="Subtract_15" fill-rule="evenodd" clip-rule="evenodd" d="M1331.01 341.923L1326.46 346.464L1333.54 353.536L1338.08 348.994L1331.01 341.923ZM1387.32 285.612L1394.39 292.683L1398.54 288.536L1391.46 281.464L1387.32 285.612Z" fill="#D9D9D9"/>
<path id="Subtract_16" fill-rule="evenodd" clip-rule="evenodd" d="M1402.07 285L1533.53 153.536L1526.46 146.464L1391.46 281.464L1387.93 285L1391.46 288.536L1440.62 337.693L1447.69 330.622L1402.07 285ZM1950.12 847.193L1912.65 809.72L1919.72 802.649L1957.19 840.122L1950.12 847.193ZM1887.19 770.122L1880.12 777.193L1574.15 471.22L1581.22 464.149L1887.19 770.122ZM1548.69 431.622L1480.22 363.149L1473.15 370.22L1541.62 438.693L1548.69 431.622ZM1982.65 879.72L2081.46 978.536L2088.54 971.464L1989.72 872.648L1982.65 879.72Z" fill="#D9D9D9"/>
<path id="Vector 30" d="M1610 493L1700.01 402L1745 358" stroke="#D9D9D9" stroke-width="10"/>
<path id="Subtract_17" fill-rule="evenodd" clip-rule="evenodd" d="M1992.8 914.272L2008.54 898.536L2001.46 891.464L1985.73 907.201L1992.8 914.272ZM1960.27 946.799L1953.2 939.728L1936.46 956.464L1943.54 963.536L1960.27 946.799Z" fill="#D9D9D9"/>
</g>
<g id="Textes">
<text id="text 29" transform="translate(1988 930) rotate(45)" fill="#D9D9D9" xml:space="preserve" style="white-space: pre" font-family="GothamSSm" font-size="24" font-weight="bold" letter-spacing="0em"><tspan x="0.238281" y="16.8">&#x41f;&#x420; 2214&#x410;</tspan></text>
<text id="text 13" fill="#D9D9D9" xml:space="preserve" style="white-space: pre" font-family="GothamSSm" font-size="24" font-weight="bold" letter-spacing="0em"><tspan x="325.359" y="111.8">&#x41f;&#x420; 2207</tspan></text>
<text id="text 23" fill="#D9D9D9" xml:space="preserve" style="white-space: pre" font-family="GothamSSm" font-size="24" font-weight="bold" letter-spacing="0em"><tspan x="575.18" y="111.8">&#x41f;&#x420; 2208</tspan></text>
<text id="text 24" fill="#D9D9D9" xml:space="preserve" style="white-space: pre" font-family="GothamSSm" font-size="24" font-weight="bold" letter-spacing="0em"><tspan x="940.109" y="111.8">&#x41f;&#x420; 2209</tspan></text>
<text id="text 14" fill="#D9D9D9" xml:space="preserve" style="white-space: pre" font-family="GothamSSm" font-size="24" font-weight="bold" letter-spacing="0em"><tspan x="450.086" y="406.8">&#x41f;&#x420; 2206</tspan></text>
<text id="text 17" fill="#D9D9D9" xml:space="preserve" style="white-space: pre" font-family="GothamSSm" font-size="24" font-weight="bold" letter-spacing="0em"><tspan x="840.078" y="406.8">&#x41f;&#x420; 2205</tspan></text>
<text id="text 26" fill="#D9D9D9" xml:space="preserve" style="white-space: pre" font-family="GothamSSm" font-size="24" font-weight="bold" letter-spacing="0em"><tspan x="995.41" y="406.8">&#x41f;&#x420; 2204</tspan></text>
<text id="text 21" transform="translate(1850 590) rotate(45)" fill="#D9D9D9" xml:space="preserve" style="white-space: pre" font-family="GothamSSm" font-size="24" font-weight="bold" letter-spacing="0em"><tspan x="0.324219" y="16.8">&#x41f;&#x420; 2210</tspan></text>
<text id="text 29_2" transform="translate(2030 765) rotate(45)" fill="#D9D9D9" xml:space="preserve" style="white-space: pre" font-family="GothamSSm" font-size="24" font-weight="bold" letter-spacing="0em"><tspan x="0.09375" y="16.8">&#x41f;&#x420; 2214</tspan></text>
<text id="text 27" transform="translate(1610 350) rotate(45)" fill="#D9D9D9" xml:space="preserve" style="white-space: pre" font-family="GothamSSm" font-size="24" font-weight="bold" letter-spacing="0em"><tspan x="0.273438" y="16.8">&#x41f;&#x420; 2202&#x411;</tspan></text>
<text id="text 28" transform="translate(1500 240) rotate(45)" fill="#D9D9D9" xml:space="preserve" style="white-space: pre" font-family="GothamSSm" font-size="24" font-weight="bold" letter-spacing="0em"><tspan x="0.292969" y="16.8">&#x41f;&#x420; 2202&#x410;</tspan></text>
<text id="text 30" transform="translate(1300 460) rotate(45)" fill="#D9D9D9" xml:space="preserve" style="white-space: pre" font-family="GothamSSm" font-size="24" font-weight="bold" letter-spacing="0em"><tspan x="0.253906" y="16.8">&#x41f;&#x420; 2203</tspan></text>
<text id="text 31" transform="translate(1510 670) rotate(45)" fill="#D9D9D9" xml:space="preserve" style="white-space: pre" font-family="GothamSSm" font-size="24" font-weight="bold" letter-spacing="0em"><tspan x="0.417969" y="16.8">&#x41f;&#x420; 2201</tspan></text>
<text id="text 32" transform="translate(1705 865) rotate(45)" fill="#D9D9D9" xml:space="preserve" style="white-space: pre" font-family="GothamSSm" font-size="24" font-weight="bold" letter-spacing="0em"><tspan x="0.03125" y="16.8">&#x41f;&#x420; 2201&#x41c;</tspan></text>
</g>
<g id="Entrances">
<circle id="1" cx="260" cy="310" r="10" fill="#9CBBFF"/>
<circle id="3" cx="920" cy="310" r="10" fill="#9CBBFF"/>
<circle id="4" cx="1040" cy="310" r="10" fill="#9CBBFF"/>
<circle id="6" cx="364" cy="200" r="10" fill="#9CBBFF"/>
<circle id="7" cx="557" cy="200" r="10" fill="#9CBBFF"/>
<circle id="9" cx="1561" cy="452" r="10" fill="#9CBBFF"/>
<circle id="10" cx="1130" cy="200" r="10" fill="#9CBBFF"/>
<circle id="11" cx="1237" cy="48" r="10" fill="#9CBBFF"/>
<circle id="12" cx="1290" cy="160" r="10" fill="#9CBBFF"/>
<circle id="14" cx="1400" cy="450" r="10" fill="#9CBBFF"/>
<circle id="15" cx="1480" cy="530" r="10" fill="#9CBBFF"/>
<circle id="16" cx="1820" cy="870" r="10" fill="#9CBBFF"/>
<circle id="17" cx="1915" cy="1001" r="10" fill="#9CBBFF"/>
<circle id="18" cx="1970" cy="860" r="10" fill="#9CBBFF"/>
<circle id="19" cx="1900" cy="790" r="10" fill="#9CBBFF"/>
<circle id="20" cx="1461" cy="351" r="10" fill="#9CBBFF"/>
<circle id="21" cx="102" cy="346" r="10" fill="#9CBBFF"/>
<circle id="22" cx="1975" cy="926" r="10" fill="#9CBBFF"/>
</g>
<g id="Icons">
<g id="Stair">
<g id="Stair frame">
<path id="Vector 152" d="M142 362H117V377H102V392H87V407H62" stroke="#9CD9BC" stroke-width="5" stroke-linecap="round" stroke-linejoin="round"/>
<path id="Vector 154" d="M74 362H89M89 362L86 376M89 362L62 383" stroke="#9CD9BC" stroke-width="3" stroke-linecap="round" stroke-linejoin="round"/>
<path id="Vector 155" d="M130 407H115M115 407L118 393M115 407L142 386" stroke="#9CD9BC" stroke-width="3" stroke-linecap="round" stroke-linejoin="round"/>
</g>
</g>
<g id="Stair_2">
<g id="Stair frame_2">
<path id="Vector 152_2" d="M1838.43 1020.6L1856.11 1038.28L1866.72 1027.67L1877.32 1038.28L1887.93 1027.67L1898.54 1038.28L1909.14 1027.67L1926.82 1045.35" stroke="#9CD9BC" stroke-width="5" stroke-linecap="round" stroke-linejoin="round"/>
<path id="Vector 154_2" d="M1886.51 1068.69L1875.91 1058.08M1875.91 1058.08L1887.93 1050.3M1875.91 1058.08L1909.85 1062.32" stroke="#9CD9BC" stroke-width="3" stroke-linecap="round" stroke-linejoin="round"/>
<path id="Vector 155_2" d="M1878.74 997.268L1889.34 1007.88M1889.34 1007.88L1877.32 1015.65M1889.34 1007.88L1855.4 1003.63" stroke="#9CD9BC" stroke-width="3" stroke-linecap="round" stroke-linejoin="round"/>
</g>
</g>
<g id="Stair_3">
<g id="Stair frame_3">
<path id="Vector 152_3" d="M1347 27H1322V42H1307V57H1292V72H1267" stroke="#9CD9BC" stroke-width="5" stroke-linecap="round" stroke-linejoin="round"/>
<path id="Vector 154_3" d="M1279 27H1294M1294 27L1291 41M1294 27L1267 48" stroke="#9CD9BC" stroke-width="3" stroke-linecap="round" stroke-linejoin="round"/>
<path id="Vector 155_3" d="M1335 72H1320M1320 72L1323 58M1320 72L1347 51" stroke="#9CD9BC" stroke-width="3" stroke-linecap="round" stroke-linejoin="round"/>
</g>
</g>
<g id="Doors">
<path id="Vector 301" d="M1189 239L1182 211V205" stroke="#A5A5A7" stroke-width="6"/>
<path id="Vector 302" d="M1189 251L1182 279V285" stroke="#A5A5A7" stroke-width="6"/>
</g>
<g id="Elevator">
<g id="Vector">
<path d="M1305.25 122.25L1300.75 117.75L1296.25 122.25H1305.25Z" fill="#A091F8"/>
<path d="M1305.25 125.25L1300.75 129.75L1296.25 125.25H1305.25Z" fill="#A091F8"/>
<path d="M1291.75 122.25C1291.75 120 1290.25 117.75 1288 117.75H1285C1282.75 117.75 1281.25 120 1281.25 122.25V126C1281.25 127.5 1282.38 128.625 1283.5 128.625V135.75C1283.5 136.95 1284.5 137.25 1285 137.25H1288C1288.5 137.25 1289.5 136.95 1289.5 135.75V128.625C1290.62 128.625 1291.75 127.5 1291.75 126V122.25Z" fill="#A091F8"/>
<path d="M1289.5 112.5C1289.5 114.157 1288.16 115.5 1286.5 115.5C1284.84 115.5 1283.5 114.157 1283.5 112.5C1283.5 110.843 1284.84 109.5 1286.5 109.5C1288.16 109.5 1289.5 110.843 1289.5 112.5Z" fill="#A091F8"/>
</g>
<path id="Vector 201" d="M1283.88 145.125H1274.88V103.875H1311.62V145.125H1302.62" stroke="#A091F8" stroke-width="3.75" stroke-linecap="round" stroke-linejoin="round"/>
</g>
<g id="Elevator_2">
<g id="Vector_2">
<path d="M1373.49 157.123V150.759H1367.12L1373.49 157.123Z" fill="#A091F8"/>
<path d="M1371.36 159.244H1365V152.88L1371.36 159.244Z" fill="#A091F8"/>
<path d="M1363.94 147.577C1365.53 145.986 1366.06 143.335 1364.47 141.744L1362.35 139.622C1360.76 138.031 1358.11 138.562 1356.51 140.153L1353.86 142.804C1352.8 143.865 1352.8 145.456 1353.6 146.251L1348.56 151.289C1347.71 152.138 1348.21 153.057 1348.56 153.411L1350.68 155.532C1351.03 155.886 1351.95 156.381 1352.8 155.532L1357.84 150.494C1358.64 151.289 1360.23 151.289 1361.29 150.229L1363.94 147.577Z" fill="#A091F8"/>
<path d="M1369.24 139.092C1368.07 140.263 1366.17 140.263 1365 139.092C1363.83 137.92 1363.83 136.021 1365 134.849C1366.17 133.678 1368.07 133.678 1369.24 134.849C1370.41 136.021 1370.41 137.92 1369.24 139.092Z" fill="#A091F8"/>
</g>
<path id="Vector 201_2" d="M1342.2 158.184L1335.83 151.82L1365 122.652L1390.99 148.638L1361.82 177.806L1355.45 171.442" stroke="#A091F8" stroke-width="3.75" stroke-linecap="round" stroke-linejoin="round"/>
</g>
<g id="Doors_2">
<path id="Vector 301_2" d="M1352.16 315.08L1337.31 339.828L1333.07 344.071" stroke="#A5A5A7" stroke-width="6"/>
<path id="Vector 302_2" d="M1360.65 306.594L1385.4 291.745L1389.64 287.503" stroke="#A5A5A7" stroke-width="6"/>
</g>
<g id="Doors_3">
<path id="Vector 301_3" d="M1909.92 917.163L1885.17 902.314L1880.93 898.071" stroke="#A5A5A7" stroke-width="6"/>
<path id="Vector 302_3" d="M1918.41 925.648L1933.25 950.397L1937.5 954.64" stroke="#A5A5A7" stroke-width="6"/>
</g>
<g id="Doors_4">
<path id="Vector 301_4" d="M205 239L198 211L198 205" stroke="#A5A5A7" stroke-width="6"/>
<path id="Vector 302_4" d="M205 251L198 279L198 285" stroke="#A5A5A7" stroke-width="6"/>
</g>
</g>
</g>
</svg>
