<svg width="2230" height="1199" viewBox="0 0 2230 1199" fill="none" xmlns="http://www.w3.org/2000/svg">
<g id="PR-2-4">
<g id="Spaces">
<rect id="!pr-27" x="430" y="140" width="60" height="80" fill="#3B3C41"/>
<path id="pr-2405" d="M490 5H201V200H430V140H490V5Z" fill="#3B3C41"/>
<path id="pr-2416" d="M103 5H5V200H103V5Z" fill="#3B3C41"/>
<path id="pr-2406" d="M201 5H103V200H201V5Z" fill="#3B3C41"/>
<path id="!pr-u" d="M1000 5H490V251H1000V5Z" fill="#3B3C41"/>
<path id="pr-2408" d="M1184 5H1090V200H1184V5Z" fill="#3B3C41"/>
<path id="pr-2407" d="M1090 5H1000V200H1090V5Z" fill="#3B3C41"/>
<path id="pr-2402" d="M580 310H200V490H580V310Z" fill="#3B3C41"/>
<path id="pr-2403" d="M646.179 310H580V490.978H1180L1186 495L1315 365.299L1260 310H1021.19H778.537H646.179Z" fill="#3B3C41"/>
<path id="pr-2411" d="M2074 695L1911 859L2055 1004L2219 840L2074 695Z" fill="#3B3C41"/>
<path id="pr-2-4-stair-center" opacity="0.2" d="M1180 160H1260.23V90H1350.49L1410.66 150L1360.51 200L1418 257L1526 150L1457 77L1400.5 121.5L1355.5 78L1398 18L1381 5H1180V160Z" fill="#9CD9BC"/>
<path id="!pr-2-4-crossing-1" opacity="0.2" d="M1398 18L1355.5 78L1400.51 121.5L1457 77L1398 18Z" fill="#9CD9BC"/>
<path id="pr-2-4-stair-left" opacity="0.2" fill-rule="evenodd" clip-rule="evenodd" d="M5 270H200V490H5V270Z" fill="#9CD9BC"/>
<path id="!pr-2409" d="M1595 215L1530 150L1365 312L1430 377L1595 215Z" fill="#3B3C41"/>
<path id="!pr-rr" d="M1502 444L1665 280L2075 690L1912 854L1502 444Z" fill="#3B3C41"/>
<path id="pr-2-4-stair-right" opacity="0.2" d="M2056 1005L1912 860L1814 956L1729 1041L1874 1186L2056 1005Z" fill="#9CD9BC"/>
<path id="pr-2413" d="M1655 706L1525 836L1730 1040L1860 910L1655 706Z" fill="#3B3C41"/>
<path id="!pr-2412" d="M1316 364L1184 494L1525 835L1655 705L1316 364Z" fill="#3B3C41"/>
<path id="pr-2-4-lift" opacity="0.2" d="M1350 90H1260V160H1320L1360 200L1410 150L1350 90Z" fill="#A091F8"/>
<path id="!pr-2409_2" d="M1664 285L1594 215L1429 377L1501 448L1664 285Z" fill="#3B3C41"/>
</g>
<g id="Walls">
<path id="Vector 338" d="M6 84L201 84" stroke="#A5A5A7" stroke-width="6"/>
<path id="Vector 336" d="M1185 249L1306 251L1366 311.5" stroke="#D9D9D9" stroke-width="10"/>
<path id="Subtract" fill-rule="evenodd" clip-rule="evenodd" d="M1260 305H1179.5V315H1257.92L1399.81 457.504L1406.88 450.433L1263.54 306.472L1262.08 305H1260ZM1439.34 483.031L1432.27 490.102L1486.46 544.528L1486.46 544.536L1856.46 914.536L1863.54 907.464L1493.54 537.472L1493.54 537.464L1439.34 483.031Z" fill="#D9D9D9"/>
<path id="Vector 331" d="M1430 377L1595 215" stroke="#D9D9D9" stroke-width="10"/>
<path id="Subtract_2" fill-rule="evenodd" clip-rule="evenodd" d="M1260 85H1255V90V160V165H1260H1317.93L1319.62 166.693L1326.69 159.622L1323.54 156.464L1322.07 155H1320H1265V95H1347.93L1402.93 150L1360 192.929L1359.22 192.148L1352.15 199.219L1356.46 203.536L1360 207.071L1363.54 203.536L1413.54 153.536L1417.07 150L1413.54 146.464L1353.54 86.4645L1352.07 85H1350H1260Z" fill="#D9D9D9"/>
<path id="Subtract_3" fill-rule="evenodd" clip-rule="evenodd" d="M1658.54 708.536L1613.54 753.535L1528.54 838.535L1521.47 831.464L1606.47 746.464L1610.01 750L1606.47 746.464L1651.47 701.464L1658.54 708.536Z" fill="#D9D9D9"/>
<path id="Vector 9" d="M201 5V200" stroke="#D9D9D9" stroke-width="10"/>
<path id="Vector 337" d="M103 5V200" stroke="#D9D9D9" stroke-width="10"/>
<path id="Vector 13" d="M1090 5V200" stroke="#D9D9D9" stroke-width="10"/>
<path id="Vector 332" d="M490 250V5" stroke="#D9D9D9" stroke-width="10"/>
<path id="Vector 333" d="M1000 250V5" stroke="#D9D9D9" stroke-width="10"/>
<path id="Vector 33" d="M1502 448L1665 285" stroke="#D9D9D9" stroke-width="10"/>
<path id="Vector 45" d="M1185 495L1315 365" stroke="#D9D9D9" stroke-width="10"/>
<path id="Vector 305" d="M1320 160L1350 90" stroke="#D9D9D9" stroke-width="10"/>
<path id="Subtract_4" fill-rule="evenodd" clip-rule="evenodd" d="M55 275V265H5V275H55ZM135 275H195V493H205V270V265H200H135V275Z" fill="#D9D9D9"/>
<path id="Subtract_5" fill-rule="evenodd" clip-rule="evenodd" d="M1015 246V258L1015 305H1017V315H1010H290H283V305H285V256L285 246H290H1010H1015ZM1070 246H1065L1065 256L1065 258L1065 305H1063V315H1070H1180V305H1075V256H1180V246H1075H1070ZM235 246V257L235 305H237V315H230H200H195V310V251V246H200H225H230H235ZM1005 305V256H295V305H1005ZM225 305V256H205V305H225Z" fill="#D9D9D9"/>
<path id="Subtract_6" fill-rule="evenodd" clip-rule="evenodd" d="M1534.74 152.566L1373.1 311.413L1384.99 323.319L1377.92 330.39L1362.46 314.914L1358.9 311.348L1362.49 307.814L1527.73 145.434L1534.74 152.566ZM1410.43 362.931L1417.51 355.86L1456.46 394.851L1449.39 401.922L1410.43 362.931ZM1481.9 434.463L1920.68 873.633L1927.75 866.562L1488.97 427.392L1481.9 434.463ZM1953.19 906.174L2053.46 1006.53L2060.54 999.466L1960.26 899.103L1953.19 906.174Z" fill="#D9D9D9"/>
<path id="Subtract_7" fill-rule="evenodd" clip-rule="evenodd" d="M32 205L32 195H5V205H32ZM78 205H129V195H78V205ZM370 205H175V195H370V205ZM416 205H427V195H416V205Z" fill="#D9D9D9"/>
<path id="Subtract_8" fill-rule="evenodd" clip-rule="evenodd" d="M430 134H425V139V219V224H430H436L436 214H435V144H490V134H430ZM482 214V224H491V214H482Z" fill="#D9D9D9"/>
<path id="Subtract_9" fill-rule="evenodd" clip-rule="evenodd" d="M585 337V310H575V337H585ZM585 367H575V490H585V367Z" fill="#D9D9D9"/>
<path id="Subtract_10" fill-rule="evenodd" clip-rule="evenodd" d="M1118 205V195H1066V205H1118ZM1164 205H1189V195H1164V205ZM1020 195L1020 205H1000V195H1020Z" fill="#D9D9D9"/>
<path id="Subtract_11" fill-rule="evenodd" clip-rule="evenodd" d="M1179 238V255H1189V238H1179ZM1179 208H1189V5H1179V208Z" fill="#D9D9D9"/>
<path id="Subtract_12" fill-rule="evenodd" clip-rule="evenodd" d="M5 0H0V5V200V290V490V495H5H200H390H580H690H980H1177.93L1386.46 703.536L1496.46 813.536L1726.46 1043.54L1871.46 1188.54L1875 1192.07L1878.54 1188.54L2223.54 843.536L2227.07 840L2223.54 836.464L2083.54 696.464L1533.54 146.464L1459.42 72.346L1452.33 79.3987L1526.46 153.536L2076.46 703.536L2212.93 840L1875 1177.93L1733.54 1036.46L1503.54 806.464L1393.54 696.464L1183.54 486.464L1182.07 485H1180H980H690H580H390H200H10V290V200V10H100H200H345H490H690H1090H1180H1382.93L1395.76 22.83L1402.85 15.7773L1388.54 1.46447L1387.07 0H1385H1180H1090H690H490H345H200H100H5Z" fill="#D9D9D9"/>
<path id="Subtract_13" d="M1742.19 1032.9L1733.53 1041.54L1726.47 1034.46L1735.14 1025.81L1742.19 1032.9ZM2079.53 696.541L1959.76 815.964L1774.76 1000.43L1767.71 993.335L1952.7 808.882L2072.47 689.459L2079.53 696.541Z" fill="#D9D9D9"/>
</g>
<g id="Textes">
<text id="text 13" fill="#D9D9D9" xml:space="preserve" style="white-space: pre" font-family="GothamSSm" font-size="24" font-weight="bold" letter-spacing="0em"><tspan x="290.109" y="110.8">&#x41f;&#x420; 2405</tspan></text>
<text id="text 34" fill="#D9D9D9" xml:space="preserve" style="white-space: pre" font-family="GothamSSm" font-size="24" font-weight="bold" letter-spacing="0em"><tspan x="112.117" y="144.8">&#x41f;&#x420; 2406</tspan></text>
<text id="text 35" fill="#D9D9D9" xml:space="preserve" style="white-space: pre" font-family="GothamSSm" font-size="24" font-weight="bold" letter-spacing="0em"><tspan x="16.4648" y="144.8">&#x41f;&#x420; 2416</tspan></text>
<text id="text 25" fill="#D9D9D9" xml:space="preserve" style="white-space: pre" font-family="GothamSSm" font-size="24" font-weight="bold" letter-spacing="0em"><tspan x="1097.21" y="109.8">&#x41f;&#x420; 2408</tspan></text>
<text id="text 36" fill="#D9D9D9" xml:space="preserve" style="white-space: pre" font-family="GothamSSm" font-size="24" font-weight="bold" letter-spacing="0em"><tspan x="1005.39" y="109.8">&#x41f;&#x420; 2407</tspan></text>
<text id="text 14" fill="#D9D9D9" xml:space="preserve" style="white-space: pre" font-family="GothamSSm" font-size="24" font-weight="bold" letter-spacing="0em"><tspan x="318.27" y="407.8">&#x41f;&#x420; 2402 (2404)</tspan></text>
<text id="text 17" fill="#D9D9D9" xml:space="preserve" style="white-space: pre" font-family="GothamSSm" font-size="24" font-weight="bold" letter-spacing="0em"><tspan x="866.285" y="409.8">&#x41f;&#x420; 2403</tspan></text>
<text id="text 29" transform="translate(2040 813) rotate(45)" fill="#D9D9D9" xml:space="preserve" style="white-space: pre" font-family="GothamSSm" font-size="24" font-weight="bold" letter-spacing="0em"><tspan x="0.203125" y="16.8">&#x41f;&#x420; 2411</tspan></text>
<text id="text 32" transform="translate(1660 825) rotate(45)" fill="#D9D9D9" xml:space="preserve" style="white-space: pre" font-family="GothamSSm" font-size="24" font-weight="bold" letter-spacing="0em"><tspan x="0.0429688" y="16.8">&#x41f;&#x420; 2413 (&#x424;&#x41e;-1)</tspan></text>
</g>
<g id="Entrances">
<circle id="1" cx="260" cy="311" r="10" fill="#9CBBFF"/>
<circle id="4" cx="1040" cy="311" r="10" fill="#9CBBFF"/>
<circle id="22" cx="1043" cy="201" r="10" fill="#9CBBFF"/>
<circle id="23" cx="1141" cy="201" r="10" fill="#9CBBFF"/>
<circle id="5" cx="95" cy="347" r="10" fill="#9CBBFF"/>
<circle id="19" cx="55" cy="201" r="10" fill="#9CBBFF"/>
<circle id="20" cx="152" cy="201" r="10" fill="#9CBBFF"/>
<circle id="21" cx="393" cy="201" r="10" fill="#9CBBFF"/>
<circle id="26" cx="1940" cy="887" r="10" fill="#9CBBFF"/>
<circle id="27" cx="1755" cy="1013" r="10" fill="#9CBBFF"/>
<circle id="11" cx="1226" cy="52" r="10" fill="#9CBBFF"/>
<circle id="12" cx="1338" cy="177" r="10" fill="#9CBBFF"/>
<circle id="18" cx="1916" cy="1002" r="10" fill="#9CBBFF"/>
</g>
<g id="Icons">
<g id="Stair">
<g id="Stair frame">
<path id="Vector 152" d="M142 364H117V379H102V394H87V409H62" stroke="#9CD9BC" stroke-width="5" stroke-linecap="round" stroke-linejoin="round"/>
<path id="Vector 154" d="M74 364H89M89 364L86 378M89 364L62 385" stroke="#9CD9BC" stroke-width="3" stroke-linecap="round" stroke-linejoin="round"/>
<path id="Vector 155" d="M130 409H115M115 409L118 395M115 409L142 388" stroke="#9CD9BC" stroke-width="3" stroke-linecap="round" stroke-linejoin="round"/>
</g>
</g>
<g id="Stair_2">
<g id="Stair frame_2">
<path id="Vector 152_2" d="M1838.43 1022.6L1856.11 1040.28L1866.72 1029.67L1877.32 1040.28L1887.93 1029.67L1898.54 1040.28L1909.14 1029.67L1926.82 1047.35" stroke="#9CD9BC" stroke-width="5" stroke-linecap="round" stroke-linejoin="round"/>
<path id="Vector 154_2" d="M1886.51 1070.69L1875.91 1060.08M1875.91 1060.08L1887.93 1052.3M1875.91 1060.08L1909.85 1064.32" stroke="#9CD9BC" stroke-width="3" stroke-linecap="round" stroke-linejoin="round"/>
<path id="Vector 155_2" d="M1878.74 999.269L1889.34 1009.88M1889.34 1009.88L1877.32 1017.65M1889.34 1009.88L1855.4 1005.63" stroke="#9CD9BC" stroke-width="3" stroke-linecap="round" stroke-linejoin="round"/>
</g>
</g>
<g id="Stair_3">
<g id="Stair frame_3">
<path id="Vector 152_3" d="M1347 29H1322V44H1307V59H1292V74H1267" stroke="#9CD9BC" stroke-width="5" stroke-linecap="round" stroke-linejoin="round"/>
<path id="Vector 154_3" d="M1279 29H1294M1294 29L1291 43M1294 29L1267 50" stroke="#9CD9BC" stroke-width="3" stroke-linecap="round" stroke-linejoin="round"/>
<path id="Vector 155_3" d="M1335 74H1320M1320 74L1323 60M1320 74L1347 53" stroke="#9CD9BC" stroke-width="3" stroke-linecap="round" stroke-linejoin="round"/>
</g>
</g>
<g id="Doors">
<path id="Vector 301" d="M89 261L61 268H55" stroke="#A5A5A7" stroke-width="6"/>
<path id="Vector 302" d="M101 261L129 268H135" stroke="#A5A5A7" stroke-width="6"/>
</g>
<g id="Elevator">
<g id="Vector">
<path d="M1305.25 124.25L1300.75 119.75L1296.25 124.25H1305.25Z" fill="#A091F8"/>
<path d="M1305.25 127.25L1300.75 131.75L1296.25 127.25H1305.25Z" fill="#A091F8"/>
<path d="M1291.75 124.25C1291.75 122 1290.25 119.75 1288 119.75H1285C1282.75 119.75 1281.25 122 1281.25 124.25V128C1281.25 129.5 1282.38 130.625 1283.5 130.625V137.75C1283.5 138.95 1284.5 139.25 1285 139.25H1288C1288.5 139.25 1289.5 138.95 1289.5 137.75V130.625C1290.62 130.625 1291.75 129.5 1291.75 128V124.25Z" fill="#A091F8"/>
<path d="M1289.5 114.5C1289.5 116.157 1288.16 117.5 1286.5 117.5C1284.84 117.5 1283.5 116.157 1283.5 114.5C1283.5 112.843 1284.84 111.5 1286.5 111.5C1288.16 111.5 1289.5 112.843 1289.5 114.5Z" fill="#A091F8"/>
</g>
<path id="Vector 201" d="M1283.88 147.125H1274.88V105.875H1311.62V147.125H1302.62" stroke="#A091F8" stroke-width="3.75" stroke-linecap="round" stroke-linejoin="round"/>
</g>
<g id="Elevator_2">
<g id="Vector_2">
<path d="M1373.49 159.123V152.759H1367.12L1373.49 159.123Z" fill="#A091F8"/>
<path d="M1371.36 161.244H1365V154.88L1371.36 161.244Z" fill="#A091F8"/>
<path d="M1363.94 149.577C1365.53 147.986 1366.06 145.335 1364.47 143.744L1362.35 141.622C1360.76 140.031 1358.11 140.562 1356.51 142.153L1353.86 144.804C1352.8 145.865 1352.8 147.456 1353.6 148.251L1348.56 153.289C1347.71 154.138 1348.21 155.057 1348.56 155.411L1350.68 157.532C1351.03 157.886 1351.95 158.381 1352.8 157.532L1357.84 152.494C1358.64 153.289 1360.23 153.289 1361.29 152.229L1363.94 149.577Z" fill="#A091F8"/>
<path d="M1369.24 141.092C1368.07 142.263 1366.17 142.263 1365 141.092C1363.83 139.92 1363.83 138.021 1365 136.849C1366.17 135.678 1368.07 135.678 1369.24 136.849C1370.41 138.021 1370.41 139.92 1369.24 141.092Z" fill="#A091F8"/>
</g>
<path id="Vector 201_2" d="M1342.2 160.184L1335.83 153.82L1365 124.652L1390.99 150.638L1361.82 179.806L1355.45 173.442" stroke="#A091F8" stroke-width="3.75" stroke-linecap="round" stroke-linejoin="round"/>
</g>
<g id="&#208;&#161;rossing" clip-path="url(#clip0_6_1584)">
<g id="Group 24">
<path id="Vector 320" d="M1377.18 86.816L1406.36 58.7305" stroke="#9CD9BC" stroke-width="5" stroke-linecap="round"/>
<path id="Vector 323" d="M1389.64 100.024L1418.95 71.8164" stroke="#9CD9BC" stroke-width="5" stroke-linecap="round"/>
</g>
<g id="Group 25">
<ellipse id="Ellipse 36" cx="1391.98" cy="85.1697" rx="1.08965" ry="1.08965" transform="rotate(-43.8993 1391.98 85.1697)" fill="#D9D9D9"/>
<ellipse id="Ellipse 32" cx="1379.42" cy="97.2585" rx="1.08965" ry="1.08965" transform="rotate(-43.8993 1379.42 97.2585)" fill="#D9D9D9"/>
<ellipse id="Ellipse 37" cx="1395.12" cy="82.1475" rx="1.08965" ry="1.08965" transform="rotate(-43.8993 1395.12 82.1475)" fill="#D9D9D9"/>
<ellipse id="Ellipse 33" cx="1382.56" cy="94.2363" rx="1.08965" ry="1.08965" transform="rotate(-43.8993 1382.56 94.2363)" fill="#D9D9D9"/>
<ellipse id="Ellipse 38" cx="1398.26" cy="79.1253" rx="1.08965" ry="1.08965" transform="rotate(-43.8993 1398.26 79.1253)" fill="#D9D9D9"/>
<ellipse id="Ellipse 34" cx="1385.7" cy="91.2141" rx="1.08965" ry="1.08965" transform="rotate(-43.8993 1385.7 91.2141)" fill="#D9D9D9"/>
<circle id="Ellipse 39" cx="1401.4" cy="76.103" r="1.08965" transform="rotate(-43.8993 1401.4 76.103)" fill="#D9D9D9"/>
<ellipse id="Ellipse 35" cx="1388.84" cy="88.1919" rx="1.08965" ry="1.08965" transform="rotate(-43.8993 1388.84 88.1919)" fill="#D9D9D9"/>
<circle id="Ellipse 40" cx="1404.54" cy="73.0808" r="1.08965" transform="rotate(-43.8993 1404.54 73.0808)" fill="#D9D9D9"/>
</g>
<path id="Vector 325" d="M1408.21 69.5552L1421.82 56.459M1421.82 56.459L1413.31 58.0936M1421.82 56.459L1419.86 64.8983" stroke="#D9D9D9" stroke-width="3" stroke-miterlimit="1" stroke-linecap="round" stroke-linejoin="round"/>
</g>
</g>
</g>
<defs>
<clipPath id="clip0_6_1584">
<rect width="61.7466" height="43.5859" fill="white" transform="translate(1363 82.8147) rotate(-43.8993)"/>
</clipPath>
</defs>
</svg>
