<svg width="1960" height="850" viewBox="0 0 1960 850" fill="none" xmlns="http://www.w3.org/2000/svg">
<g id="PK-1-2" clip-path="url(#clip0_1_1512)">
<g id="Spaces">
<path id="pk-224" d="M545 545H1130V745H865V845H545V545Z" fill="#3B3C41"/>
<rect id="pk-1-2-stair-2" opacity="0.2" x="1075" y="115" width="130" height="195" fill="#9CD9BC"/>
<rect id="pk-1-2-stair-1" opacity="0.2" x="205" y="115" width="140" height="195" fill="#9CD9BC"/>
<rect id="pk-1-2-wcm-2" opacity="0.2" x="345" y="115" width="80" height="260" fill="#9CBBFF"/>
<rect id="pk-1-2-wcw" opacity="0.2" x="975" y="310" width="50" height="65" fill="#F783CB"/>
<rect id="pk-1-2-wcm-1" opacity="0.2" x="1025" y="310" width="50" height="65" fill="#9CBBFF"/>
<rect id="pk-227" x="5" y="545" width="275" height="200" fill="#3B3C41"/>
<rect id="pk-226" x="280" y="545" width="265" height="200" fill="#3B3C41"/>
<rect id="pk-213a" x="1680" y="5" width="275" height="295" fill="#3B3C41"/>
<rect id="pk-213" x="1405" y="5" width="275" height="295" fill="#3B3C41"/>
<rect id="pk-222" x="1130" y="545" width="275" height="200" fill="#3B3C41"/>
<rect id="pk-212" x="1205" y="115" width="200" height="295" fill="#3B3C41"/>
<rect id="pk-211" x="625" y="25" width="350" height="350" fill="#3B3C41"/>
<rect id="pk-210" x="425" y="25" width="200" height="350" fill="#3B3C41"/>
<rect id="pk-209" x="5" y="115" width="200" height="350" fill="#3B3C41"/>
<rect id="pk-1-2-cowork" opacity="0.2" x="1405" y="300" width="550" height="340" fill="#63E3D4"/>
<path id="!pk-1-2-crossing-2-2" opacity="0.01" d="M205 464L205 545.5L149.5 545.5L90.5 545.5L3.00015 545.5L3.00015 464L205 464Z" fill="#9CD9BC"/>
</g>
<g id="Walls">
<path id="Subtract" fill-rule="evenodd" clip-rule="evenodd" d="M870 578V545H860V578H870ZM870 624H860V745H870V624Z" fill="#D9D9D9"/>
<path id="Subtract_2" fill-rule="evenodd" clip-rule="evenodd" d="M958 575V545H952V575H958ZM958 605H952V745H958V605Z" fill="#A5A5A7"/>
<path id="Subtract_3" fill-rule="evenodd" clip-rule="evenodd" d="M1683 223V5H1677V223H1683ZM1683 253H1677V300H1683V253Z" fill="#A5A5A7"/>
<path id="Subtract_4" fill-rule="evenodd" clip-rule="evenodd" d="M458 575V545H452V575H458ZM458 605H452V745H458V605Z" fill="#A5A5A7"/>
<path id="Vneshniy kontur" fill-rule="evenodd" clip-rule="evenodd" d="M1400 0H1405H1955H1960V5V458H1950V10H1410V115V120H1405H975H970V115V30H430V115V120H425H10V489H0V115V110H5H420V25V20H425H975H980V25V110H1400V5V0ZM0 535V745V750H5H540V845V850H545H865H870V845V750H1405H1410V745V645H1955H1960V640V558H1950V635H1405H1400V640V740H865H860V745V840H550V745V740H545H10V535H0Z" fill="#D9D9D9"/>
<path id="Subtract_5" fill-rule="evenodd" clip-rule="evenodd" d="M682 750V740H545V750H682ZM728 750H865V740H728V750Z" fill="#D9D9D9"/>
<path id="Subtract_6" fill-rule="evenodd" clip-rule="evenodd" d="M1445 202H1405V208H1445V202ZM1475 208H1680V202H1475V208Z" fill="#A5A5A7"/>
<path id="Subtract_7" fill-rule="evenodd" clip-rule="evenodd" d="M385 242H345V248H385V242ZM415 248V242H425V248H415Z" fill="#A5A5A7"/>
<path id="Vector 351" d="M1075 310H975" stroke="#D9D9D9" stroke-width="10"/>
<path id="Vector 367" d="M1025 310V375" stroke="#D9D9D9" stroke-width="10"/>
<path id="Vector 366" d="M1405 540V640" stroke="#D9D9D9" stroke-width="10"/>
<path id="Vector 347" d="M625 375V25" stroke="#D9D9D9" stroke-width="10"/>
<path id="Vector 355" d="M1205 410H1405" stroke="#D9D9D9" stroke-width="10"/>
<path id="Vector 356" d="M280 745V545" stroke="#D9D9D9" stroke-width="10"/>
<path id="Vector 358" d="M545 745V545" stroke="#D9D9D9" stroke-width="10"/>
<path id="Vector 361" d="M1130 745V545" stroke="#D9D9D9" stroke-width="10"/>
<path id="Subtract_8" fill-rule="evenodd" clip-rule="evenodd" d="M344 550V540H200V550H344ZM390 550H880V540H390V550ZM1146 550H926V540H1146V550ZM1192 550H1405V540H1192V550Z" fill="#D9D9D9"/>
<path id="Subtract_9" fill-rule="evenodd" clip-rule="evenodd" d="M1100 305L1075 305V315L1100 315V305ZM1180 315L1205 315V305L1180 305V315Z" fill="#D9D9D9"/>
<path id="Subtract_10" fill-rule="evenodd" clip-rule="evenodd" d="M350 310V115H340V305H315V315H345H350V310ZM235 315V305H205V315H235Z" fill="#D9D9D9"/>
<path id="Subtract_11" fill-rule="evenodd" clip-rule="evenodd" d="M420 375V115H430V370H502V380H425H420V375ZM700 380H548V370H700V380ZM746 380H975H980V375V115H970V370H746V380Z" fill="#D9D9D9"/>
<path id="Vector 348" d="M205 403.953L205 475L205 115" stroke="#D9D9D9" stroke-width="10"/>
<path id="Vector 368" d="M205 535V545" stroke="#D9D9D9" stroke-width="10"/>
<path id="Subtract_12" fill-rule="evenodd" clip-rule="evenodd" d="M1210 350V115H1200V350H1210ZM1210 396H1200V425H1210V396Z" fill="#D9D9D9"/>
<path id="Vector 369" d="M1205 530V545" stroke="#D9D9D9" stroke-width="10"/>
<path id="Subtract_13" fill-rule="evenodd" clip-rule="evenodd" d="M340 310V375V380H345H369L369 370H350V310H340ZM415 370V380H425V370H415Z" fill="#D9D9D9"/>
<path id="Subtract_14" fill-rule="evenodd" clip-rule="evenodd" d="M1840 305V295H1516V305H1840ZM1886 305H1955V295H1886V305ZM1470 295V305H1405V295H1470Z" fill="#D9D9D9"/>
<path id="Subtract_15" fill-rule="evenodd" clip-rule="evenodd" d="M124 470V460H5V470H124ZM170 470H205V460H170V470Z" fill="#D9D9D9"/>
<path id="Subtract_16" fill-rule="evenodd" clip-rule="evenodd" d="M40 550V540H5V550H40ZM86 550H205V540H86V550Z" fill="#D9D9D9"/>
<path id="Subtract_17" fill-rule="evenodd" clip-rule="evenodd" d="M1080 115V328H1070V115H1080ZM1070 358H1080V375V380H1075H1015V370H1070V358ZM985 370H975V380H985L985 370Z" fill="#D9D9D9"/>
<path id="Subtract_18" fill-rule="evenodd" clip-rule="evenodd" d="M1410 427V120H1400V427H1410ZM1410 527H1400V545H1410V527Z" fill="#D9D9D9"/>
</g>
<g id="Textes">
<text id="text 1" fill="#D9D9D9" xml:space="preserve" style="white-space: pre" font-family="GothamSSm" font-size="24" font-weight="bold" letter-spacing="0em"><tspan x="1275.01" y="271.8">&#x41f;&#x41a; 212</tspan></text>
<text id="text 2" fill="#D9D9D9" xml:space="preserve" style="white-space: pre" font-family="GothamSSm" font-size="24" font-weight="bold" letter-spacing="0em"><tspan x="1510.14" y="261.8">&#x41f;&#x41a; 213</tspan></text>
<text id="text 3" fill="#D9D9D9" xml:space="preserve" style="white-space: pre" font-family="GothamSSm" font-size="24" font-weight="bold" letter-spacing="0em"><tspan x="1780.29" y="161.8">&#x41f;&#x41a; 213&#x410;</tspan></text>
<text id="text 4" fill="#D9D9D9" xml:space="preserve" style="white-space: pre" font-family="GothamSSm" font-size="24" font-weight="bold" letter-spacing="0em"><tspan x="1234.22" y="652.8">&#x41f;&#x41a; 222</tspan></text>
<text id="text 5" fill="#D9D9D9" xml:space="preserve" style="white-space: pre" font-family="GothamSSm" font-size="24" font-weight="bold" letter-spacing="0em"><tspan x="876.25" y="652.8">&#x41f;&#x41a; 224</tspan></text>
<text id="text 6" fill="#D9D9D9" xml:space="preserve" style="white-space: pre" font-family="GothamSSm" font-size="24" font-weight="bold" letter-spacing="0em"><tspan x="334.309" y="653.8">&#x41f;&#x41a; 226</tspan></text>
<text id="text 7" fill="#D9D9D9" xml:space="preserve" style="white-space: pre" font-family="GothamSSm" font-size="24" font-weight="bold" letter-spacing="0em"><tspan x="103.371" y="653.8">&#x41f;&#x41a; 227</tspan></text>
<text id="text 8" fill="#D9D9D9" xml:space="preserve" style="white-space: pre" font-family="GothamSSm" font-size="24" font-weight="bold" letter-spacing="0em"><tspan x="70.4062" y="298.8">&#x41f;&#x41a; 209</tspan></text>
<text id="text 9" fill="#D9D9D9" xml:space="preserve" style="white-space: pre" font-family="GothamSSm" font-size="24" font-weight="bold" letter-spacing="0em"><tspan x="490.121" y="201.8">&#x41f;&#x41a; 210</tspan></text>
<text id="text 10" fill="#D9D9D9" xml:space="preserve" style="white-space: pre" font-family="GothamSSm" font-size="24" font-weight="bold" letter-spacing="0em"><tspan x="770.305" y="201.8">&#x41f;&#x41a; 211</tspan></text>
</g>
<g id="Entrances">
<circle id="12" cx="1863" cy="300" r="10" fill="#9CBBFF"/>
<circle id="11" cx="1493" cy="300" r="10" fill="#9CBBFF"/>
<circle id="10" cx="1169" cy="545" r="10" fill="#9CBBFF"/>
<circle id="8" cx="367" cy="545" r="10" fill="#9CBBFF"/>
<circle id="7" cx="63" cy="545" r="10" fill="#9CBBFF"/>
<circle id="6" cx="147" cy="465" r="10" fill="#9CBBFF"/>
<circle id="5" cx="1205" cy="373" r="10" fill="#9CBBFF"/>
<circle id="4" cx="392" cy="375" r="10" fill="#9CBBFF"/>
<circle id="16" cx="1680" cy="507" r="10" fill="#9CBBFF"/>
<circle id="13" cx="275" cy="258" r="10" fill="#9CBBFF"/>
<circle id="14" cx="1140" cy="253" r="10" fill="#9CBBFF"/>
<circle id="17" cx="1075" cy="343" r="10" fill="#9CBBFF"/>
<circle id="18" cx="1000" cy="375" r="10" fill="#9CBBFF"/>
<circle id="3" cx="903" cy="545" r="10" fill="#9CBBFF"/>
<circle id="2" cx="525" cy="375" r="10" fill="#9CBBFF"/>
<circle id="1" cx="723" cy="375" r="10" fill="#9CBBFF"/>
</g>
<g id="Icons">
<g id="Stair">
<g id="Stair frame">
<path id="Vector 152" d="M315 190H290V205H275V220H260V235H235" stroke="#9CD9BC" stroke-width="5" stroke-linecap="round" stroke-linejoin="round"/>
<path id="Vector 154" d="M247 190H262M262 190L259 204M262 190L235 211" stroke="#9CD9BC" stroke-width="3" stroke-linecap="round" stroke-linejoin="round"/>
<path id="Vector 155" d="M303 235H288M288 235L291 221M288 235L315 214" stroke="#9CD9BC" stroke-width="3" stroke-linecap="round" stroke-linejoin="round"/>
</g>
</g>
<g id="Stair_2">
<g id="Stair frame_2">
<path id="Vector 152_2" d="M1180 190H1155V205H1140V220H1125V235H1100" stroke="#9CD9BC" stroke-width="5" stroke-linecap="round" stroke-linejoin="round"/>
<path id="Vector 154_2" d="M1112 190H1127M1127 190L1124 204M1127 190L1100 211" stroke="#9CD9BC" stroke-width="3" stroke-linecap="round" stroke-linejoin="round"/>
<path id="Vector 155_2" d="M1168 235H1153M1153 235L1156 221M1153 235L1180 214" stroke="#9CD9BC" stroke-width="3" stroke-linecap="round" stroke-linejoin="round"/>
</g>
</g>
<g id="Doors" clip-path="url(#clip1_1_1512)">
<path id="Vector 301" d="M281 319L309 312H315" stroke="#A5A5A7" stroke-width="6"/>
<path id="Vector 302" d="M269 319L241 312H235" stroke="#A5A5A7" stroke-width="6"/>
</g>
<g id="Doors_2" clip-path="url(#clip2_1_1512)">
<path id="Vector 301_2" d="M1146 319L1174 312H1180" stroke="#A5A5A7" stroke-width="6"/>
<path id="Vector 302_2" d="M1134 319L1106 312H1100" stroke="#A5A5A7" stroke-width="6"/>
</g>
<g id="Men">
<g id="Group 6">
<path id="Vector 200" d="M390.5 328.5L399 307H371L379.5 328.5" stroke="#9CBBFF" stroke-width="5" stroke-linecap="round" stroke-linejoin="round"/>
<circle id="Ellipse 9" cx="385" cy="289" r="8" stroke="#9CBBFF" stroke-width="5" stroke-linecap="round" stroke-linejoin="round"/>
</g>
</g>
<g id="Men_2">
<g id="Group 6_2">
<path id="Vector 200_2" d="M1054.12 360.625L1060.5 344.5H1039.5L1045.87 360.625" stroke="#9CBBFF" stroke-width="3.75" stroke-linecap="round" stroke-linejoin="round"/>
<circle id="Ellipse 9_2" cx="1050" cy="331" r="6" stroke="#9CBBFF" stroke-width="3.75" stroke-linecap="round" stroke-linejoin="round"/>
</g>
</g>
<g id="Woman">
<g id="Group 5">
<path id="Vector 200_3" d="M1004.12 344.5L1010.5 360.625H989.5L995.875 344.5" stroke="#F783CB" stroke-width="3.75" stroke-linecap="round" stroke-linejoin="round"/>
<circle id="Ellipse 9_3" cx="1000" cy="331" r="6" stroke="#F783CB" stroke-width="3.75" stroke-linecap="round" stroke-linejoin="round"/>
</g>
</g>
<g id="Doors_3">
<path id="Vector 301_3" d="M1396 484.5L1403 519.5L1403 527" stroke="#A5A5A7" stroke-width="6"/>
<path id="Vector 302_3" d="M1396 469.5L1403 434.5L1403 427" stroke="#A5A5A7" stroke-width="6"/>
</g>
<g id="Coworking">
<path id="Vector 287" d="M1660.5 478.5L1654.5 489H1680H1705.5L1699.5 478.5M1660.5 478.5H1699.5M1660.5 478.5V468.5M1699.5 478.5V470" stroke="#63E3D4" stroke-width="5" stroke-linecap="round" stroke-linejoin="round"/>
<path id="Vector 288" d="M1685 457.5H1675" stroke="#63E3D4" stroke-width="3" stroke-linecap="round" stroke-linejoin="round"/>
<rect id="Rectangle 60" x="1660.5" y="451.5" width="39" height="27" rx="4.5" stroke="#63E3D4" stroke-width="5"/>
</g>
<g id="Doors_4">
<path id="Vector 301_4" d="M1964 515.5L1957 550.5L1957 558" stroke="#A5A5A7" stroke-width="6"/>
<path id="Vector 302_4" d="M1964 500.5L1957 465.5L1957 458" stroke="#A5A5A7" stroke-width="6"/>
</g>
<g id="&#208;&#161;rossing">
<g id="Group 24">
<path id="Vector 320" d="M101.758 524.5L46 524.5" stroke="#9CD9BC" stroke-width="5" stroke-linecap="round"/>
<path id="Vector 323" d="M102 499.5L46 499.5" stroke="#9CD9BC" stroke-width="5" stroke-linecap="round"/>
</g>
<g id="Group 25">
<circle id="Ellipse 36" cx="85.5" cy="512" r="1.5" transform="rotate(-180 85.5 512)" fill="#D9D9D9"/>
<circle id="Ellipse 32" cx="109.5" cy="512" r="1.5" transform="rotate(-180 109.5 512)" fill="#D9D9D9"/>
<circle id="Ellipse 37" cx="79.5" cy="512" r="1.5" transform="rotate(-180 79.5 512)" fill="#D9D9D9"/>
<circle id="Ellipse 33" cx="103.5" cy="512" r="1.5" transform="rotate(-180 103.5 512)" fill="#D9D9D9"/>
<circle id="Ellipse 38" cx="73.5" cy="512" r="1.5" transform="rotate(-180 73.5 512)" fill="#D9D9D9"/>
<circle id="Ellipse 34" cx="97.5" cy="512" r="1.5" transform="rotate(-180 97.5 512)" fill="#D9D9D9"/>
<circle id="Ellipse 39" cx="67.5" cy="512" r="1.5" transform="rotate(-180 67.5 512)" fill="#D9D9D9"/>
<circle id="Ellipse 35" cx="91.5" cy="512" r="1.5" transform="rotate(-180 91.5 512)" fill="#D9D9D9"/>
<circle id="Ellipse 40" cx="61.5" cy="512" r="1.5" transform="rotate(-180 61.5 512)" fill="#D9D9D9"/>
</g>
<path id="Vector 325" d="M54.5006 512L28.5006 512M28.5006 512L38.5006 518.5M28.5006 512L38.5006 505.5" stroke="#D9D9D9" stroke-width="3" stroke-miterlimit="1" stroke-linecap="round" stroke-linejoin="round"/>
</g>
</g>
</g>
<defs>
<clipPath id="clip0_1_1512">
<rect width="1960" height="850" fill="white"/>
</clipPath>
<clipPath id="clip1_1_1512">
<rect width="80" height="13" fill="white" transform="matrix(-1 0 0 -1 315 322)"/>
</clipPath>
<clipPath id="clip2_1_1512">
<rect width="80" height="13" fill="white" transform="matrix(-1 0 0 -1 1180 322)"/>
</clipPath>
</defs>
</svg>
