<svg width="3005" height="1205" viewBox="0 0 3005 1205" fill="none" xmlns="http://www.w3.org/2000/svg">
<g id="AV-1_2-5" clip-path="url(#clip0_22_2343)">
<g id="Spaces">
<rect id="av-2-5-stair-1" opacity="0.2" x="3" y="5" width="120" height="190" fill="#9CD9BC"/>
<rect id="av-2507" x="123" y="5" width="270" height="190" fill="#3B3C41"/>
<rect id="av-2508" x="393" y="5" width="270" height="190" fill="#3B3C41"/>
<path id="av-2511" d="M1203 5H1113V195H1203V5Z" fill="#3B3C41"/>
<rect id="av-2509" x="663" y="5" width="270" height="190" fill="#3B3C41"/>
<rect id="!av-u" x="933" y="5" width="95" height="190" fill="#3B3C41"/>
<rect id="av-2510" x="1028" y="5" width="85" height="190" fill="#3B3C41"/>
<rect id="av-2512" x="1203" y="5" width="87" height="190" fill="#3B3C41"/>
<rect id="av-2515" x="1648" y="195" width="90" height="185" transform="rotate(90 1648 195)" fill="#3B3C41"/>
<rect id="av-2513" x="1290" y="5" width="85" height="190" fill="#3B3C41"/>
<rect id="av-2514" x="1375" y="5" width="273" height="190" fill="#3B3C41"/>
<path id="av-2-5-stair-2" opacity="0.2" d="M1648 485H1463V285H1648V485ZM1526 347V422H1598V347H1526Z" fill="#9CD9BC"/>
<rect id="av-2-5-lift-1" opacity="0.2" x="1526" y="347" width="70" height="75" fill="#A091F8"/>
<rect id="av-2501" x="1373" y="410" width="90" height="75" fill="#3B3C41"/>
<rect id="av-2502" x="1203" y="285" width="170" height="200" fill="#3B3C41"/>
<rect id="av-2503" x="933" y="285" width="270" height="200" fill="#3B3C41"/>
<rect id="av-2504" x="663" y="285" width="270" height="200" fill="#3B3C41"/>
<rect id="av-2505" x="393" y="285" width="270" height="200" fill="#3B3C41"/>
<path id="av-2506" d="M393 285H303V485H393V285Z" fill="#3B3C41"/>
<rect id="av-2-5-wcw" opacity="0.2" x="218" y="285" width="85" height="200" fill="#F783CB"/>
<rect id="av-2-5-wcm" opacity="0.2" x="123" y="285" width="95" height="200" fill="#9CBBFF"/>
<rect id="av-2507A" y="285" width="123" height="201" fill="#3B3C41"/>
<rect id="av-1-5-stair-3" opacity="0.2" x="998" y="1005" width="200" height="195" fill="#9CD9BC"/>
<rect id="av-1517" x="1198" y="1005" width="265" height="195" fill="#3B3C41"/>
<rect id="av-1516" x="1463" y="1005" width="265" height="195" fill="#3B3C41"/>
<rect id="av-1515" x="1728" y="1005" width="92" height="195" fill="#3B3C41"/>
<rect id="av-1514" x="1820" y="1005" width="92" height="195" fill="#3B3C41"/>
<rect id="av-1513" x="1912" y="1005" width="203" height="195" fill="#3B3C41"/>
<rect id="!av-1511" x="2218" y="1005" width="140" height="195" fill="#3B3C41"/>
<rect id="av-1-5-wcm" opacity="0.2" x="2528" y="1005" width="100" height="195" fill="#9CBBFF"/>
<rect id="av-1-5-wcw" opacity="0.2" x="2628" y="1005" width="85" height="195" fill="#F783CB"/>
<rect id="!av-u_2" x="2713" y="740" width="285" height="460" fill="#3B3C41"/>
<rect id="av-1509" x="2533" y="740" width="180" height="175" fill="#3B3C41"/>
<rect id="av-1-5-stair-4" opacity="0.2" x="2353" y="740" width="180" height="175" fill="#9CD9BC"/>
<rect id="av-1508" x="2219" y="740" width="134" height="175" fill="#3B3C41"/>
<rect id="av-1512" x="2115" y="1005" width="103" height="195" fill="#3B3C41"/>
<rect id="av-1507" x="2115" y="740" width="104" height="175" fill="#3B3C41"/>
<rect id="1506" x="2015" y="740" width="100" height="175" fill="#3B3C41"/>
<rect id="av-1505" x="1820" y="740" width="195" height="175" fill="#3B3C41"/>
<rect id="av-1504" x="1728" y="740" width="92" height="175" fill="#3B3C41"/>
<rect id="av-1503" x="1463" y="740" width="265" height="175" fill="#3B3C41"/>
<rect id="av-1501" x="1198" y="740" width="100" height="175" fill="#3B3C41"/>
<rect id="av-1502" x="1298" y="740" width="165" height="175" fill="#3B3C41"/>
<rect id="av-1-5-lift-2" opacity="0.2" x="998" y="740" width="65" height="65" fill="#A091F8"/>
<rect id="av-1-5-lift-3" opacity="0.2" x="1133" y="740" width="65" height="65" fill="#A091F8"/>
<rect id="av-1-5-lift-4" opacity="0.2" x="1063" y="740" width="70" height="65" fill="#A091F8"/>
<rect id="av-1-5-lift-5" opacity="0.2" x="2358" y="1115" width="57" height="70" fill="#A091F8"/>
<rect id="av-1-5-lift-6" opacity="0.2" x="2474" y="1115" width="54" height="70" fill="#A091F8"/>
<rect id="av-1-5-lift-7" opacity="0.2" x="2415" y="1115" width="56" height="70" fill="#A091F8"/>
</g>
<g id="Walls">
<path id="Subtract" d="M2626 915H2620V885H2626V915ZM2626 855H2620V740H2626V855Z" fill="#A5A5A7"/>
<path id="Vector 208" d="M2713 1121H2998" stroke="#A5A5A7" stroke-width="6"/>
<path id="Subtract_2" d="M218 343H168V337H218V343Z" fill="#A5A5A7"/>
<path id="Subtract_3" d="M191 195H185V165H191V195ZM191 135H185V5H191V135Z" fill="#A5A5A7"/>
<path id="Subtract_4" d="M2540 1076H2528V1070H2540V1076ZM2628 1076H2570V1070H2628V1076Z" fill="#A5A5A7"/>
<path id="Subtract_5" d="M2671 1076H2628V1070H2671V1076ZM2713 1076H2701V1070H2713V1076Z" fill="#A5A5A7"/>
<path id="Vector 80" d="M218 340H258" stroke="#A5A5A7" stroke-width="6"/>
<path id="Vector 1" d="M123 5V195" stroke="#D9D9D9" stroke-width="10"/>
<path id="Vector 4" d="M393 5V195" stroke="#D9D9D9" stroke-width="10"/>
<path id="Vector 6" d="M663 5V195" stroke="#D9D9D9" stroke-width="10"/>
<path id="Vector 8" d="M933 5V195" stroke="#D9D9D9" stroke-width="10"/>
<path id="Vector 9" d="M1203 5V195" stroke="#D9D9D9" stroke-width="10"/>
<path id="Vector 15" d="M1203 285V485" stroke="#D9D9D9" stroke-width="10"/>
<path id="Vector 17" d="M933 285V485" stroke="#D9D9D9" stroke-width="10"/>
<path id="Vector 19" d="M663 285V485" stroke="#D9D9D9" stroke-width="10"/>
<path id="Vector 21" d="M303 285V485" stroke="#D9D9D9" stroke-width="10"/>
<path id="Vector 204" d="M393 285V485" stroke="#D9D9D9" stroke-width="10"/>
<path id="Vector 22" d="M218 285V485" stroke="#D9D9D9" stroke-width="10"/>
<path id="Vector 23" d="M123 285V485" stroke="#D9D9D9" stroke-width="10"/>
<path id="Vector 52" d="M1463 740V915" stroke="#D9D9D9" stroke-width="10"/>
<path id="Vector 54" d="M1728 740V915" stroke="#D9D9D9" stroke-width="10"/>
<path id="Vector 55" d="M2015 740V915" stroke="#D9D9D9" stroke-width="10"/>
<path id="Vector 206" d="M1820 740V915" stroke="#D9D9D9" stroke-width="10"/>
<path id="Vector 209" d="M1820 1005V1200" stroke="#D9D9D9" stroke-width="10"/>
<path id="Vector 57" d="M2219 740V915" stroke="#D9D9D9" stroke-width="10"/>
<path id="Vector 58" d="M2353 740V915" stroke="#D9D9D9" stroke-width="10"/>
<path id="Vector 59" d="M2533 740V915" stroke="#D9D9D9" stroke-width="10"/>
<path id="Vector 56" d="M2115 740V915" stroke="#D9D9D9" stroke-width="10"/>
<path id="Vector 43" d="M1463 1005V1200" stroke="#D9D9D9" stroke-width="10"/>
<path id="Vector 44" d="M1728 1005V1200" stroke="#D9D9D9" stroke-width="10"/>
<path id="Vector 47" d="M2115 1005V1200" stroke="#D9D9D9" stroke-width="10"/>
<path id="Vector 48" d="M1912 1005V1200" stroke="#D9D9D9" stroke-width="10"/>
<path id="Vector 51" d="M2628 1005V1200" stroke="#D9D9D9" stroke-width="10"/>
<path id="Vector 73" d="M1063 740V805" stroke="#D9D9D9" stroke-width="10"/>
<path id="Vector 74" d="M1133 740V805" stroke="#D9D9D9" stroke-width="10"/>
<path id="Vector 75" d="M2415 1115V1185" stroke="#D9D9D9" stroke-width="10"/>
<path id="Vector 76" d="M2471 1115V1185" stroke="#D9D9D9" stroke-width="10"/>
<path id="Subtract_6" d="M1390 415H1373V405H1390V415ZM1463 415H1436V405H1463V415Z" fill="#D9D9D9"/>
<path id="Subtract_7" d="M1468 285H1458V263H1468V285ZM1468 217H1458V195H1468V217Z" fill="#D9D9D9"/>
<path id="Subtract_8" d="M1601 427H1523V409H1529V421H1595V348H1529V363H1523V342H1601V427Z" fill="#D9D9D9"/>
<path id="Subtract_9" d="M1009 810H998V800H1009V810ZM1078 810H1055V800H1078V810ZM1141 810H1118V800H1141V810ZM1198 810H1187V800H1198V810Z" fill="#D9D9D9"/>
<path id="Subtract_10" d="M1203 1201H1193V1000H1203V1201ZM1203 920H1193V741H1203V920Z" fill="#D9D9D9"/>
<path id="Subtract_11" d="M1219 920H1198V910H1219V920ZM1345 920H1265V910H1345V920ZM1665 920H1391V910H1665V920ZM1755 920H1711V910H1755V920ZM1843 920H1801V910H1843V920ZM2041 920H1889V910H2041V920ZM2146 920H2087V910H2146V920ZM2255 920H2192V910H2255V920ZM2403 920H2301V910H2403V920ZM2565 920H2483V910H2565V920ZM2713 920H2611V910H2713V920Z" fill="#D9D9D9"/>
<path id="Subtract_12" d="M1468 485H1458V405H1468V485ZM1648 290H1468V325H1458V280H1648V290Z" fill="#D9D9D9"/>
<path id="Vector 203" d="M1113 195V5" stroke="#D9D9D9" stroke-width="10"/>
<path id="Subtract_13" d="M1378 485H1368V290H1301V280H1378V485ZM47 290H-2V280H47V290ZM156 290H93V280H156V290ZM235 290H202V280H235V290ZM415 290H363V280H415V290ZM680 290H461V280H680V290ZM950 290H726V280H950V290ZM1255 290H996V280H1255V290ZM317 290H281V280H317V290Z" fill="#D9D9D9"/>
<path id="Subtract_14" d="M23 200H5V190H23V200ZM590 200H366V190H590V200ZM860 200H636V190H860V200ZM1035 200H906V190H1035V200ZM1134 200H1081V190H1134V200ZM1223 200H1180V190H1223V200ZM1312 200H1269V190H1312V200ZM1488 200H1358V190H1488V200ZM1650 200H1518V190H1650V200ZM320 200H103V190H320V200Z" fill="#D9D9D9"/>
<path id="Vector 207" d="M1298 741V915" stroke="#D9D9D9" stroke-width="10"/>
<path id="Subtract_15" d="M2533 1185H2523V1063H2533V1185ZM2655 1010H2533V1017H2523V1000H2655V1010ZM2713 1010H2701V1000H2713V1010Z" fill="#D9D9D9"/>
<path id="Subtract_16" d="M2363 1120H2358V1110H2363V1120ZM2420 1120H2409V1110H2420V1120ZM2528 1120H2523V1110H2528V1120ZM2477 1120H2466V1110H2477V1120Z" fill="#D9D9D9"/>
<path id="Subtract_17" d="M2363 1185H2353V1010H2193V1000H2363V1185ZM1365 1010H1198V1000H1365V1010ZM1760 1010H1711V1000H1760V1010ZM1842 1010H1806V1000H1842V1010ZM2020 1010H1888V1000H2020V1010ZM2147 1010H2066V1000H2147V1010ZM1665 1010H1411V1000H1665V1010Z" fill="#D9D9D9"/>
<path id="contur" d="M1025 5H0V485H145H300H1645V5H1375M1025 5V195M1025 5H1290M1290 5V195M1290 5H1375M1375 5V195M995 995V1200H2355V1185H2525V1200H2995V740H995V910V995Z" stroke="#D9D9D9" stroke-width="10"/>
<path id="Vector 209_2" d="M2218 1005V1200" stroke="#D9D9D9" stroke-width="10"/>
<path id="Subtract_18" d="M2718 1200H2708V982H2718V1200ZM2718 936H2708V740H2718V936Z" fill="#D9D9D9"/>
<path id="Subtract_19" d="M1565 195H1555V139H1565V195ZM1565 109H1555V5H1565V109Z" fill="#D9D9D9"/>
</g>
<g id="Textes">
<text id="&#208;&#144;&#208;&#146; 2507" fill="#D9D9D9" xml:space="preserve" style="white-space: pre" font-family="GothamSSm" font-size="24" font-weight="bold" letter-spacing="0em"><tspan x="256" y="108.8">&#x410;&#x412; 2507</tspan></text>
<text id="&#208;&#144;&#208;&#146; 2508" fill="#D9D9D9" xml:space="preserve" style="white-space: pre" font-family="GothamSSm" font-size="24" font-weight="bold" letter-spacing="0em"><tspan x="489" y="108.8">&#x410;&#x412; 2508</tspan></text>
<text id="&#208;&#144;&#208;&#146; 2509" fill="#D9D9D9" xml:space="preserve" style="white-space: pre" font-family="GothamSSm" font-size="24" font-weight="bold" letter-spacing="0em"><tspan x="759" y="108.8">&#x410;&#x412; 2509</tspan></text>
<text id="&#208;&#144;&#208;&#146; 2510" fill="#D9D9D9" xml:space="preserve" style="white-space: pre" font-family="GothamSSm" font-size="24" font-weight="bold" letter-spacing="0em"><tspan x="1033" y="108.8">&#x410;&#x412; 2510</tspan></text>
<text id="&#208;&#144;&#208;&#146; 2511" fill="#D9D9D9" xml:space="preserve" style="white-space: pre" font-family="GothamSSm" font-size="24" font-weight="bold" letter-spacing="0em"><tspan x="1122" y="108.8">&#x410;&#x412; 2511</tspan></text>
<text id="&#208;&#144;&#208;&#146; 2512" fill="#D9D9D9" xml:space="preserve" style="white-space: pre" font-family="GothamSSm" font-size="24" font-weight="bold" letter-spacing="0em"><tspan x="1209" y="108.8">&#x410;&#x412; 2512</tspan></text>
<text id="&#208;&#144;&#208;&#146; 2513" fill="#D9D9D9" xml:space="preserve" style="white-space: pre" font-family="GothamSSm" font-size="24" font-weight="bold" letter-spacing="0em"><tspan x="1296" y="108.8">&#x410;&#x412; 2513</tspan></text>
<text id="&#208;&#144;&#208;&#146; 2514" fill="#D9D9D9" xml:space="preserve" style="white-space: pre" font-family="GothamSSm" font-size="24" font-weight="bold" letter-spacing="0em"><tspan x="1437" y="108.8">&#x410;&#x412; 2514</tspan></text>
<text id="&#208;&#144;&#208;&#146; 2515" fill="#D9D9D9" xml:space="preserve" style="white-space: pre" font-family="GothamSSm" font-size="24" font-weight="bold" letter-spacing="0em"><tspan x="1518" y="247.8">&#x410;&#x412; 2515</tspan></text>
<text id="&#208;&#144;&#208;&#146; 2501" fill="#D9D9D9" xml:space="preserve" style="white-space: pre" font-family="GothamSSm" font-size="24" font-weight="bold" letter-spacing="0em"><tspan x="1381" y="455.8">&#x410;&#x412; 2501</tspan></text>
<text id="&#208;&#144;&#208;&#146; 2502" fill="#D9D9D9" xml:space="preserve" style="white-space: pre" font-family="GothamSSm" font-size="24" font-weight="bold" letter-spacing="0em"><tspan x="1248" y="392.8">&#x410;&#x412; 2502</tspan></text>
<text id="&#208;&#144;&#208;&#146; 1501" fill="#D9D9D9" xml:space="preserve" style="white-space: pre" font-family="GothamSSm" font-size="24" font-weight="bold" letter-spacing="0em"><tspan x="1204" y="835.8">&#x410;&#x412; 1501</tspan></text>
<text id="&#208;&#144;&#208;&#146; 1517" fill="#D9D9D9" xml:space="preserve" style="white-space: pre" font-family="GothamSSm" font-size="24" font-weight="bold" letter-spacing="0em"><tspan x="1294" y="1110.8">&#x410;&#x412; 1517</tspan></text>
<text id="&#208;&#144;&#208;&#146; 1516" fill="#D9D9D9" xml:space="preserve" style="white-space: pre" font-family="GothamSSm" font-size="24" font-weight="bold" letter-spacing="0em"><tspan x="1560" y="1110.8">&#x410;&#x412; 1516</tspan></text>
<text id="&#208;&#144;&#208;&#146; 1515" fill="#D9D9D9" xml:space="preserve" style="white-space: pre" font-family="GothamSSm" font-size="24" font-weight="bold" letter-spacing="0em"><tspan x="1738" y="1110.8">&#x410;&#x412; 1515</tspan></text>
<text id="&#208;&#144;&#208;&#146; 1514" fill="#D9D9D9" xml:space="preserve" style="white-space: pre" font-family="GothamSSm" font-size="24" font-weight="bold" letter-spacing="0em"><tspan x="1830" y="1110.8">&#x410;&#x412; 1514</tspan></text>
<text id="&#208;&#144;&#208;&#146; 1513" fill="#D9D9D9" xml:space="preserve" style="white-space: pre" font-family="GothamSSm" font-size="24" font-weight="bold" letter-spacing="0em"><tspan x="1978" y="1110.8">&#x410;&#x412; 1513</tspan></text>
<text id="&#208;&#144;&#208;&#146; 1512" fill="#D9D9D9" xml:space="preserve" style="white-space: pre" font-family="GothamSSm" font-size="24" font-weight="bold" letter-spacing="0em"><tspan x="2132" y="1110.8">&#x410;&#x412; 1512</tspan></text>
<text id="&#208;&#144;&#208;&#146; 1511" fill="#D9D9D9" xml:space="preserve" style="white-space: pre" font-family="GothamSSm" font-size="24" font-weight="bold" letter-spacing="0em"><tspan x="2253" y="1110.8">&#x410;&#x412; 1511</tspan></text>
<text id="&#208;&#144;&#208;&#146; 1502" fill="#D9D9D9" xml:space="preserve" style="white-space: pre" font-family="GothamSSm" font-size="24" font-weight="bold" letter-spacing="0em"><tspan x="1340" y="835.8">&#x410;&#x412; 1502</tspan></text>
<text id="&#208;&#144;&#208;&#146; 1503" fill="#D9D9D9" xml:space="preserve" style="white-space: pre" font-family="GothamSSm" font-size="24" font-weight="bold" letter-spacing="0em"><tspan x="1557" y="835.8">&#x410;&#x412; 1503</tspan></text>
<text id="&#208;&#144;&#208;&#146; 1504" fill="#D9D9D9" xml:space="preserve" style="white-space: pre" font-family="GothamSSm" font-size="24" font-weight="bold" letter-spacing="0em"><tspan x="1735" y="835.8">&#x410;&#x412; 1504</tspan></text>
<text id="&#208;&#144;&#208;&#146; 1505" fill="#D9D9D9" xml:space="preserve" style="white-space: pre" font-family="GothamSSm" font-size="24" font-weight="bold" letter-spacing="0em"><tspan x="1880" y="835.8">&#x410;&#x412; 1505</tspan></text>
<text id="&#208;&#144;&#208;&#146; 1506" fill="#D9D9D9" xml:space="preserve" style="white-space: pre" font-family="GothamSSm" font-size="24" font-weight="bold" letter-spacing="0em"><tspan x="2027" y="835.8">&#x410;&#x412; 1506</tspan></text>
<text id="&#208;&#144;&#208;&#146; 1507" fill="#D9D9D9" xml:space="preserve" style="white-space: pre" font-family="GothamSSm" font-size="24" font-weight="bold" letter-spacing="0em"><tspan x="2131" y="835.8">&#x410;&#x412; 1507</tspan></text>
<text id="&#208;&#144;&#208;&#146; 1508" fill="#D9D9D9" xml:space="preserve" style="white-space: pre" font-family="GothamSSm" font-size="24" font-weight="bold" letter-spacing="0em"><tspan x="2247" y="835.8">&#x410;&#x412; 1508</tspan></text>
<text id="&#208;&#144;&#208;&#146; 1509" fill="#D9D9D9" xml:space="preserve" style="white-space: pre" font-family="GothamSSm" font-size="24" font-weight="bold" letter-spacing="0em"><tspan x="2540" y="835.8">&#x410;&#x412; 1509</tspan></text>
<text id="&#208;&#144;&#208;&#146; 2503" fill="#D9D9D9" xml:space="preserve" style="white-space: pre" font-family="GothamSSm" font-size="24" font-weight="bold" letter-spacing="0em"><tspan x="1028" y="392.8">&#x410;&#x412; 2503</tspan></text>
<text id="&#208;&#144;&#208;&#146; 2504" fill="#D9D9D9" xml:space="preserve" style="white-space: pre" font-family="GothamSSm" font-size="24" font-weight="bold" letter-spacing="0em"><tspan x="757" y="392.8">&#x410;&#x412; 2504</tspan></text>
<text id="&#208;&#144;&#208;&#146; 2505" fill="#D9D9D9" xml:space="preserve" style="white-space: pre" font-family="GothamSSm" font-size="24" font-weight="bold" letter-spacing="0em"><tspan x="488" y="392.8">&#x410;&#x412; 2505</tspan></text>
<text id="&#208;&#144;&#208;&#146; 2506" fill="#D9D9D9" xml:space="preserve" style="white-space: pre" font-family="GothamSSm" font-size="24" font-weight="bold" letter-spacing="0em"><tspan x="308" y="392.8">&#x410;&#x412; 2506</tspan></text>
<text id="&#208;&#144;&#208;&#146; 2507&#208;&#176;" fill="#D9D9D9" xml:space="preserve" style="white-space: pre" font-family="GothamSSm" font-size="24" font-weight="bold" letter-spacing="0em"><tspan x="16" y="392.8">&#x410;&#x412; 2507&#x410;</tspan></text>
</g>
<g id="Entrances">
<circle id="6" cx="343" cy="195" r="10" fill="#9CBBFF"/>
<circle id="9" cx="438" cy="285" r="10" fill="#9CBBFF"/>
<circle id="10" cx="613" cy="195" r="10" fill="#9CBBFF"/>
<circle id="13" cx="883" cy="195" r="10" fill="#9CBBFF"/>
<circle id="61" cx="1058" cy="195" r="10" fill="#9CBBFF"/>
<circle id="15" cx="973" cy="285" r="10" fill="#9CBBFF"/>
<circle id="16" cx="1157" cy="195" r="10" fill="#9CBBFF"/>
<circle id="64" cx="1246" cy="195" r="10" fill="#9CBBFF"/>
<circle id="65" cx="1242" cy="915" r="10" fill="#9CBBFF"/>
<circle id="66" cx="1866" cy="915" r="10" fill="#9CBBFF"/>
<circle id="11" cx="703" cy="285" r="10" fill="#9CBBFF"/>
<circle id="7" cx="340" cy="285" r="10" fill="#9CBBFF"/>
<circle id="3" cx="179" cy="285" r="10" fill="#9CBBFF"/>
<circle id="68" cx="70" cy="285" r="10" fill="#9CBBFF"/>
<circle id="5" cx="70" cy="152" r="10" fill="#9CBBFF"/>
<circle id="18" cx="1278" cy="285" r="10" fill="#9CBBFF"/>
<circle id="67" cx="1335" cy="195" r="10" fill="#9CBBFF"/>
<circle id="21" cx="1463" cy="240" r="10" fill="#9CBBFF"/>
<circle id="73" cx="1503" cy="195" r="10" fill="#9CBBFF"/>
<circle id="22" cx="1413" cy="410" r="10" fill="#9CBBFF"/>
<circle id="23" cx="1493" cy="386" r="10" fill="#9CBBFF"/>
<circle id="24" cx="1526" cy="386" r="10" fill="#9CBBFF"/>
<circle id="25" cx="258" cy="285" r="10" fill="#9CBBFF"/>
<circle id="35" cx="1098" cy="805" r="10" fill="#9CBBFF"/>
<circle id="69" cx="1164" cy="805" r="10" fill="#9CBBFF"/>
<circle id="70" cx="1032" cy="805" r="10" fill="#9CBBFF"/>
<circle id="37" cx="1098" cy="1050" r="10" fill="#9CBBFF"/>
<circle id="38" cx="1368" cy="915" r="10" fill="#9CBBFF"/>
<circle id="62" cx="1388" cy="1005" r="10" fill="#9CBBFF"/>
<circle id="41" cx="1688" cy="1005" r="10" fill="#9CBBFF"/>
<circle id="42" cx="1688" cy="915" r="10" fill="#9CBBFF"/>
<circle id="43" cx="1783" cy="1005" r="10" fill="#9CBBFF"/>
<circle id="44" cx="1778" cy="915" r="10" fill="#9CBBFF"/>
<circle id="45" cx="1865" cy="1005" r="10" fill="#9CBBFF"/>
<circle id="46" cx="2064" cy="915" r="10" fill="#9CBBFF"/>
<circle id="47" cx="2043" cy="1005" r="10" fill="#9CBBFF"/>
<circle id="48" cx="2170" cy="1005" r="10" fill="#9CBBFF"/>
<circle id="49" cx="2169" cy="915" r="10" fill="#9CBBFF"/>
<circle id="51" cx="2278" cy="915" r="10" fill="#9CBBFF"/>
<circle id="53" cx="2443" cy="1115" r="10" fill="#9CBBFF"/>
<circle id="71" cx="2500" cy="1115" r="10" fill="#9CBBFF"/>
<circle id="72" cx="2386" cy="1115" r="10" fill="#9CBBFF"/>
<circle id="55" cx="2443" cy="880" r="10" fill="#9CBBFF"/>
<circle id="56" cx="2588" cy="915" r="10" fill="#9CBBFF"/>
<circle id="58" cx="2678" cy="1005" r="10" fill="#9CBBFF"/>
<circle id="59" cx="2528" cy="1040" r="10" fill="#9CBBFF"/>
</g>
<g id="Icons">
<g id="Woman">
<g id="Group 5">
<path id="Vector 200" d="M270.5 407L279 428.5H251L259.5 407" stroke="#F783CB" stroke-width="5" stroke-linecap="round" stroke-linejoin="round"/>
<circle id="Ellipse 9" cx="265" cy="389" r="8" stroke="#F783CB" stroke-width="5" stroke-linecap="round" stroke-linejoin="round"/>
</g>
</g>
<g id="Stair">
<g id="Stair frame">
<path id="Vector 152" d="M105 78H80V93H65V108H50V123H25" stroke="#9CD9BC" stroke-width="5" stroke-linecap="round" stroke-linejoin="round"/>
<path id="Vector 154" d="M37 78H52M52 78L49 92M52 78L25 99" stroke="#9CD9BC" stroke-width="3" stroke-linecap="round" stroke-linejoin="round"/>
<path id="Vector 155" d="M93 123H78M78 123L81 109M78 123L105 102" stroke="#9CD9BC" stroke-width="3" stroke-linecap="round" stroke-linejoin="round"/>
</g>
</g>
<g id="Stair_2">
<g id="Stair frame_2">
<path id="Vector 152_2" d="M1140 1080H1115V1095H1100V1110H1085V1125H1060" stroke="#9CD9BC" stroke-width="5" stroke-linecap="round" stroke-linejoin="round"/>
<path id="Vector 154_2" d="M1072 1080H1087M1087 1080L1084 1094M1087 1080L1060 1101" stroke="#9CD9BC" stroke-width="3" stroke-linecap="round" stroke-linejoin="round"/>
<path id="Vector 155_2" d="M1128 1125H1113M1113 1125L1116 1111M1113 1125L1140 1104" stroke="#9CD9BC" stroke-width="3" stroke-linecap="round" stroke-linejoin="round"/>
</g>
</g>
<g id="Men">
<g id="Group 6">
<path id="Vector 200_2" d="M2585.5 1148.5L2594 1127H2566L2574.5 1148.5" stroke="#9CBBFF" stroke-width="5" stroke-linecap="round" stroke-linejoin="round"/>
<circle id="Ellipse 9_2" cx="2580" cy="1109" r="8" stroke="#9CBBFF" stroke-width="5" stroke-linecap="round" stroke-linejoin="round"/>
</g>
</g>
<g id="Woman_2">
<g id="Group 5_2">
<path id="Vector 200_3" d="M2680.5 1127L2689 1148.5H2661L2669.5 1127" stroke="#F783CB" stroke-width="5" stroke-linecap="round" stroke-linejoin="round"/>
<circle id="Ellipse 9_3" cx="2675" cy="1109" r="8" stroke="#F783CB" stroke-width="5" stroke-linecap="round" stroke-linejoin="round"/>
</g>
</g>
<g id="Elevator">
<g id="Vector">
<path d="M1045.83 770.5L1040.83 765.5L1035.83 770.5H1045.83Z" fill="#A091F8"/>
<path d="M1045.83 773.833L1040.83 778.833L1035.83 773.833H1045.83Z" fill="#A091F8"/>
<path d="M1030.83 770.5C1030.83 768 1029.17 765.5 1026.67 765.5H1023.33C1020.83 765.5 1019.17 768 1019.17 770.5V774.667C1019.17 776.333 1020.42 777.583 1021.67 777.583V785.5C1021.67 786.833 1022.78 787.167 1023.33 787.167H1026.67C1027.22 787.167 1028.33 786.833 1028.33 785.5V777.583C1029.58 777.583 1030.83 776.333 1030.83 774.667V770.5Z" fill="#A091F8"/>
<path d="M1028.33 759.667C1028.33 761.508 1026.84 763 1025 763C1023.16 763 1021.67 761.508 1021.67 759.667C1021.67 757.826 1023.16 756.333 1025 756.333C1026.84 756.333 1028.33 757.826 1028.33 759.667Z" fill="#A091F8"/>
</g>
<path id="Vector 201" d="M1022.08 795.917H1012.08V750.083H1052.92V795.917H1042.92" stroke="#A091F8" stroke-width="5" stroke-linecap="round" stroke-linejoin="round"/>
</g>
<g id="Elevator_2">
<g id="Vector_2">
<path d="M1112.83 770.5L1107.83 765.5L1102.83 770.5H1112.83Z" fill="#A091F8"/>
<path d="M1112.83 773.833L1107.83 778.833L1102.83 773.833H1112.83Z" fill="#A091F8"/>
<path d="M1097.83 770.5C1097.83 768 1096.17 765.5 1093.67 765.5H1090.33C1087.83 765.5 1086.17 768 1086.17 770.5V774.667C1086.17 776.333 1087.42 777.583 1088.67 777.583V785.5C1088.67 786.833 1089.78 787.167 1090.33 787.167H1093.67C1094.22 787.167 1095.33 786.833 1095.33 785.5V777.583C1096.58 777.583 1097.83 776.333 1097.83 774.667V770.5Z" fill="#A091F8"/>
<path d="M1095.33 759.667C1095.33 761.508 1093.84 763 1092 763C1090.16 763 1088.67 761.508 1088.67 759.667C1088.67 757.826 1090.16 756.333 1092 756.333C1093.84 756.333 1095.33 757.826 1095.33 759.667Z" fill="#A091F8"/>
</g>
<path id="Vector 201_2" d="M1089.08 795.917H1079.08V750.083H1119.92V795.917H1109.92" stroke="#A091F8" stroke-width="5" stroke-linecap="round" stroke-linejoin="round"/>
</g>
<g id="Elevator_3">
<g id="Vector_3">
<path d="M1180.83 770.5L1175.83 765.5L1170.83 770.5H1180.83Z" fill="#A091F8"/>
<path d="M1180.83 773.833L1175.83 778.833L1170.83 773.833H1180.83Z" fill="#A091F8"/>
<path d="M1165.83 770.5C1165.83 768 1164.17 765.5 1161.67 765.5H1158.33C1155.83 765.5 1154.17 768 1154.17 770.5V774.667C1154.17 776.333 1155.42 777.583 1156.67 777.583V785.5C1156.67 786.833 1157.78 787.167 1158.33 787.167H1161.67C1162.22 787.167 1163.33 786.833 1163.33 785.5V777.583C1164.58 777.583 1165.83 776.333 1165.83 774.667V770.5Z" fill="#A091F8"/>
<path d="M1163.33 759.667C1163.33 761.508 1161.84 763 1160 763C1158.16 763 1156.67 761.508 1156.67 759.667C1156.67 757.826 1158.16 756.333 1160 756.333C1161.84 756.333 1163.33 757.826 1163.33 759.667Z" fill="#A091F8"/>
</g>
<path id="Vector 201_3" d="M1157.08 795.917H1147.08V750.083H1187.92V795.917H1177.92" stroke="#A091F8" stroke-width="5" stroke-linecap="round" stroke-linejoin="round"/>
</g>
<g id="Stair_3">
<g id="Stair frame_3">
<path id="Vector 152_3" d="M2487 807H2462V822H2447V837H2432V852H2407" stroke="#9CD9BC" stroke-width="5" stroke-linecap="round" stroke-linejoin="round"/>
<path id="Vector 154_3" d="M2419 807H2434M2434 807L2431 821M2434 807L2407 828" stroke="#9CD9BC" stroke-width="3" stroke-linecap="round" stroke-linejoin="round"/>
<path id="Vector 155_3" d="M2475 852H2460M2460 852L2463 838M2460 852L2487 831" stroke="#9CD9BC" stroke-width="3" stroke-linecap="round" stroke-linejoin="round"/>
</g>
</g>
<g id="Elevator_4">
<g id="Vector_4">
<path d="M2399.83 1146.5L2394.83 1141.5L2389.83 1146.5H2399.83Z" fill="#A091F8"/>
<path d="M2399.83 1149.83L2394.83 1154.83L2389.83 1149.83H2399.83Z" fill="#A091F8"/>
<path d="M2384.83 1146.5C2384.83 1144 2383.17 1141.5 2380.67 1141.5H2377.33C2374.83 1141.5 2373.17 1144 2373.17 1146.5V1150.67C2373.17 1152.33 2374.42 1153.58 2375.67 1153.58V1161.5C2375.67 1162.83 2376.78 1163.17 2377.33 1163.17H2380.67C2381.22 1163.17 2382.33 1162.83 2382.33 1161.5V1153.58C2383.58 1153.58 2384.83 1152.33 2384.83 1150.67V1146.5Z" fill="#A091F8"/>
<path d="M2382.33 1135.67C2382.33 1137.51 2380.84 1139 2379 1139C2377.16 1139 2375.67 1137.51 2375.67 1135.67C2375.67 1133.83 2377.16 1132.33 2379 1132.33C2380.84 1132.33 2382.33 1133.83 2382.33 1135.67Z" fill="#A091F8"/>
</g>
<path id="Vector 201_4" d="M2376.08 1171.92H2366.08V1126.08H2406.92V1171.92H2396.92" stroke="#A091F8" stroke-width="5" stroke-linecap="round" stroke-linejoin="round"/>
</g>
<g id="Elevator_5">
<g id="Vector_5">
<path d="M2456.83 1147.5L2451.83 1142.5L2446.83 1147.5H2456.83Z" fill="#A091F8"/>
<path d="M2456.83 1150.83L2451.83 1155.83L2446.83 1150.83H2456.83Z" fill="#A091F8"/>
<path d="M2441.83 1147.5C2441.83 1145 2440.17 1142.5 2437.67 1142.5H2434.33C2431.83 1142.5 2430.17 1145 2430.17 1147.5V1151.67C2430.17 1153.33 2431.42 1154.58 2432.67 1154.58V1162.5C2432.67 1163.83 2433.78 1164.17 2434.33 1164.17H2437.67C2438.22 1164.17 2439.33 1163.83 2439.33 1162.5V1154.58C2440.58 1154.58 2441.83 1153.33 2441.83 1151.67V1147.5Z" fill="#A091F8"/>
<path d="M2439.33 1136.67C2439.33 1138.51 2437.84 1140 2436 1140C2434.16 1140 2432.67 1138.51 2432.67 1136.67C2432.67 1134.83 2434.16 1133.33 2436 1133.33C2437.84 1133.33 2439.33 1134.83 2439.33 1136.67Z" fill="#A091F8"/>
</g>
<path id="Vector 201_5" d="M2433.08 1172.92H2423.08V1127.08H2463.92V1172.92H2453.92" stroke="#A091F8" stroke-width="5" stroke-linecap="round" stroke-linejoin="round"/>
</g>
<g id="Elevator_6">
<g id="Vector_6">
<path d="M2512.83 1146.5L2507.83 1141.5L2502.83 1146.5H2512.83Z" fill="#A091F8"/>
<path d="M2512.83 1149.83L2507.83 1154.83L2502.83 1149.83H2512.83Z" fill="#A091F8"/>
<path d="M2497.83 1146.5C2497.83 1144 2496.17 1141.5 2493.67 1141.5H2490.33C2487.83 1141.5 2486.17 1144 2486.17 1146.5V1150.67C2486.17 1152.33 2487.42 1153.58 2488.67 1153.58V1161.5C2488.67 1162.83 2489.78 1163.17 2490.33 1163.17H2493.67C2494.22 1163.17 2495.33 1162.83 2495.33 1161.5V1153.58C2496.58 1153.58 2497.83 1152.33 2497.83 1150.67V1146.5Z" fill="#A091F8"/>
<path d="M2495.33 1135.67C2495.33 1137.51 2493.84 1139 2492 1139C2490.16 1139 2488.67 1137.51 2488.67 1135.67C2488.67 1133.83 2490.16 1132.33 2492 1132.33C2493.84 1132.33 2495.33 1133.83 2495.33 1135.67Z" fill="#A091F8"/>
</g>
<path id="Vector 201_6" d="M2489.08 1171.92H2479.08V1126.08H2519.92V1171.92H2509.92" stroke="#A091F8" stroke-width="5" stroke-linecap="round" stroke-linejoin="round"/>
</g>
<g id="Men_2">
<g id="Group 6_2">
<path id="Vector 200_4" d="M175.5 428.5L184 407H156L164.5 428.5" stroke="#9CBBFF" stroke-width="5" stroke-linecap="round" stroke-linejoin="round"/>
<circle id="Ellipse 9_4" cx="170" cy="389" r="8" stroke="#9CBBFF" stroke-width="5" stroke-linecap="round" stroke-linejoin="round"/>
</g>
</g>
<g id="Stair_4">
<g id="Stair frame_4">
<path id="Vector 152_4" d="M1588.76 302.224H1573.29V311.408H1564V320.592H1554.71V329.776H1539.24" stroke="#9CD9BC" stroke-width="5" stroke-linecap="round" stroke-linejoin="round"/>
<path id="Vector 154_4" d="M1546.67 302.224H1555.95M1555.95 302.224L1554.1 310.796M1555.95 302.224L1539.24 315.082" stroke="#9CD9BC" stroke-width="3" stroke-linecap="round" stroke-linejoin="round"/>
<path id="Vector 155_4" d="M1581.33 329.776H1572.05M1572.05 329.776L1573.9 321.204M1572.05 329.776L1588.76 316.918" stroke="#9CD9BC" stroke-width="3" stroke-linecap="round" stroke-linejoin="round"/>
</g>
</g>
<g id="Stair_5">
<g id="Stair frame_5">
<path id="Vector 152_5" d="M1589.76 440.224H1574.29V449.408H1565V458.592H1555.71V467.776H1540.24" stroke="#9CD9BC" stroke-width="5" stroke-linecap="round" stroke-linejoin="round"/>
<path id="Vector 154_5" d="M1547.67 440.224H1556.95M1556.95 440.224L1555.1 448.796M1556.95 440.224L1540.24 453.082" stroke="#9CD9BC" stroke-width="3" stroke-linecap="round" stroke-linejoin="round"/>
<path id="Vector 155_5" d="M1582.33 467.776H1573.05M1573.05 467.776L1574.9 459.204M1573.05 467.776L1589.76 454.918" stroke="#9CD9BC" stroke-width="3" stroke-linecap="round" stroke-linejoin="round"/>
</g>
</g>
<g id="Elevator_7">
<g id="Vector_7">
<path d="M1576.83 380.5L1571.83 375.5L1566.83 380.5H1576.83Z" fill="#A091F8"/>
<path d="M1576.83 383.833L1571.83 388.833L1566.83 383.833H1576.83Z" fill="#A091F8"/>
<path d="M1561.83 380.5C1561.83 378 1560.17 375.5 1557.67 375.5H1554.33C1551.83 375.5 1550.17 378 1550.17 380.5V384.667C1550.17 386.333 1551.42 387.583 1552.67 387.583V395.5C1552.67 396.833 1553.78 397.167 1554.33 397.167H1557.67C1558.22 397.167 1559.33 396.833 1559.33 395.5V387.583C1560.58 387.583 1561.83 386.333 1561.83 384.667V380.5Z" fill="#A091F8"/>
<path d="M1559.33 369.667C1559.33 371.508 1557.84 373 1556 373C1554.16 373 1552.67 371.508 1552.67 369.667C1552.67 367.826 1554.16 366.333 1556 366.333C1557.84 366.333 1559.33 367.826 1559.33 369.667Z" fill="#A091F8"/>
</g>
<path id="Vector 201_7" d="M1553.08 405.917H1543.08V360.083H1583.92V405.917H1573.92" stroke="#A091F8" stroke-width="5" stroke-linecap="round" stroke-linejoin="round"/>
</g>
</g>
</g>
<defs>
<clipPath id="clip0_22_2343">
<rect width="3005" height="1205" fill="white"/>
</clipPath>
</defs>
</svg>
