<svg width="3005" height="1205" viewBox="0 0 3005 1205" fill="none" xmlns="http://www.w3.org/2000/svg">
<g id="AV-1_2-7" clip-path="url(#clip0_22_3466)">
<g id="Spaces">
<rect id="av-2-7-stair-1" opacity="0.2" x="5" y="5" width="120" height="190" fill="#9CD9BC"/>
<rect id="av-2704" x="1199" y="5" width="96" height="190" fill="#3B3C41"/>
<rect id="av-2705" x="1375" y="5" width="90" height="190" fill="#3B3C41"/>
<rect id="av-2706" x="1465" y="5" width="185" height="280" fill="#3B3C41"/>
<path id="av-2-7-stair-2" opacity="0.2" d="M1650 485H1465V285H1650V485ZM1528 347V422H1600V347H1528Z" fill="#9CD9BC"/>
<rect id="av-2-7-lift-1" opacity="0.2" x="1528" y="347" width="70" height="75" fill="#A091F8"/>
<rect id="av-2702" x="665" y="285" width="540" height="200" fill="#3B3C41"/>
<rect id="av-1-7-stair-3" opacity="0.2" x="1000" y="1005" width="200" height="195" fill="#9CD9BC"/>
<rect id="av-1713" x="1330" y="1005" width="135" height="195" fill="#3B3C41"/>
<rect id="av-1714" x="1200" y="1005" width="130" height="195" fill="#3B3C41"/>
<rect id="av-1712" x="1465" y="1005" width="265" height="195" fill="#3B3C41"/>
<rect id="!av-1710" x="1840" y="1005" width="102" height="195" fill="#3B3C41"/>
<rect id="av-1711" x="1730" y="1005" width="110" height="195" fill="#3B3C41"/>
<rect id="av-1709" x="1942" y="1005" width="94" height="195" fill="#3B3C41"/>
<rect id="av-1708" x="2036" y="1005" width="110" height="195" fill="#3B3C41"/>
<rect id="av-1707" x="2146" y="1005" width="214" height="195" fill="#3B3C41"/>
<path id="av-1-7-wcm" opacity="0.2" d="M2530 1005H2630V1200H2530V1005Z" fill="#9CBBFF"/>
<path id="av-1-7-wcw" opacity="0.2" d="M2630 1005H2715V1200H2630V1005Z" fill="#F783CB"/>
<rect id="av-1705" x="2535" y="740" width="180" height="175" fill="#3B3C41"/>
<rect id="av-1-7-stair-4" opacity="0.2" x="2355" y="740" width="180" height="175" fill="#9CD9BC"/>
<rect id="av-1704" x="2090" y="740" width="265" height="175" fill="#3B3C41"/>
<rect id="av-1703" x="1912" y="740" width="178" height="175" fill="#3B3C41"/>
<rect id="av-1702" x="1730" y="740" width="182" height="175" fill="#3B3C41"/>
<rect id="av-1701" x="1465" y="740" width="265" height="175" fill="#3B3C41"/>
<rect id="av-1-7-lift-2" opacity="0.2" x="1000" y="740" width="65" height="65" fill="#A091F8"/>
<rect id="av-1-7-lift-3" opacity="0.2" x="1135" y="740" width="65" height="65" fill="#A091F8"/>
<rect id="av-1-7-lift-4" opacity="0.2" x="1065" y="740" width="70" height="65" fill="#A091F8"/>
<rect id="av-1-7-lift-5" opacity="0.2" x="2360" y="1115" width="57" height="70" fill="#A091F8"/>
<rect id="av-1-7-lift-6" opacity="0.2" x="2476" y="1115" width="54" height="70" fill="#A091F8"/>
<rect id="av-1-7-lift-7" opacity="0.2" x="2417" y="1115" width="56" height="70" fill="#A091F8"/>
<rect id="av-2701" x="1200" y="485" width="173" height="430" fill="#3B3C41"/>
<rect id="av-1706" x="2715" y="740" width="285" height="329" fill="#3B3C41"/>
</g>
<g id="Walls">
<path id="Subtract" d="M2623 915H2617V888H2623V915ZM2623 858H2617V740H2623V858Z" fill="#A5A5A7"/>
<path id="Subtract_2" d="M193 195H187V5H193V195Z" fill="#A5A5A7"/>
<path id="Subtract_3" d="M2542 1076H2530V1070H2542V1076ZM2630 1076H2572V1070H2630V1076Z" fill="#A5A5A7"/>
<path id="Subtract_4" d="M2673 1076H2630V1070H2673V1076ZM2715 1076H2703V1070H2715V1076Z" fill="#A5A5A7"/>
<path id="Vector 1" d="M125 5V195" stroke="#D9D9D9" stroke-width="10"/>
<path id="Vector 4" d="M319 129V319M248 6V196" stroke="#D9D9D9" stroke-width="10"/>
<path id="Vector 6" d="M665 5V195" stroke="#D9D9D9" stroke-width="10"/>
<path id="Vector 9" d="M1199 5V195" stroke="#D9D9D9" stroke-width="10"/>
<path id="Vector 10" d="M1465 5V195" stroke="#D9D9D9" stroke-width="10"/>
<path id="Vector 19" d="M665 285V485" stroke="#D9D9D9" stroke-width="10"/>
<path id="Vector 22" d="M220 285V485" stroke="#D9D9D9" stroke-width="10"/>
<path id="Vector 23" d="M125 285V485" stroke="#D9D9D9" stroke-width="10"/>
<path id="Vector 52" d="M1465 740V934.5" stroke="#D9D9D9" stroke-width="10"/>
<path id="Vector 54" d="M1730 740V915" stroke="#D9D9D9" stroke-width="10"/>
<path id="Vector 55" d="M1912 740V915" stroke="#D9D9D9" stroke-width="10"/>
<path id="Vector 58" d="M2355 740V915" stroke="#D9D9D9" stroke-width="10"/>
<path id="Vector 59" d="M2535 740V915" stroke="#D9D9D9" stroke-width="10"/>
<path id="Vector 56" d="M2090 740V915" stroke="#D9D9D9" stroke-width="10"/>
<path id="Vector 43" d="M1465 980.5V1200" stroke="#D9D9D9" stroke-width="10"/>
<path id="Vector 44" d="M1730 1005V1200" stroke="#D9D9D9" stroke-width="10"/>
<path id="Vector 45" d="M1941.5 1005V1200" stroke="#D9D9D9" stroke-width="10"/>
<path id="Vector 208" d="M1840 1010V1205" stroke="#D9D9D9" stroke-width="10"/>
<path id="Vector 47" d="M2146 1005V1200" stroke="#D9D9D9" stroke-width="10"/>
<path id="Vector 48" d="M2036 1005V1200" stroke="#D9D9D9" stroke-width="10"/>
<path id="Vector 51" d="M2630 1005V1200" stroke="#D9D9D9" stroke-width="10"/>
<path id="Vector 73" d="M1065 740V805" stroke="#D9D9D9" stroke-width="10"/>
<path id="Vector 74" d="M1135 740V805" stroke="#D9D9D9" stroke-width="10"/>
<path id="Vector 75" d="M2417 1115V1185" stroke="#D9D9D9" stroke-width="10"/>
<path id="Vector 76" d="M2473 1115V1185" stroke="#D9D9D9" stroke-width="10"/>
<path id="Subtract_5" d="M1470 285H1460V263H1470V285ZM1470 217H1460V195H1470V217Z" fill="#D9D9D9"/>
<path id="Subtract_6" d="M1603 427H1525V409H1531V421H1597V348H1531V363H1525V342H1603V427Z" fill="#D9D9D9"/>
<path id="Subtract_7" d="M1011 810H1000V800H1011V810ZM1080 810H1057V800H1080V810ZM1143 810H1120V800H1143V810ZM1200 810H1189V800H1200V810Z" fill="#D9D9D9"/>
<path id="Subtract_8" d="M1205 1201H1195V989H1205V1201ZM1205 927H1195V741H1205V927Z" fill="#D9D9D9"/>
<path id="Subtract_9" d="M1378 920H1200V910H1378V920ZM1667 920H1460V910H1667V920ZM1757 920H1713V910H1757V920ZM2022 920H1803V910H2022V920ZM2257 920H2068V910H2257V920ZM2405 920H2303V910H2405V920ZM2637 920H2485V910H2637V920ZM2715 920H2683V910H2715V920Z" fill="#D9D9D9"/>
<path id="Subtract_10" d="M1470 740H1460V405H1470V740ZM1650 290H1470V325H1460V280H1650V290Z" fill="#D9D9D9"/>
<path id="Subtract_11" d="M1205.02 740H1195.02V290H1056V280H1205.02V740ZM49.001 290H0V280H49.001V290ZM154.005 290H93.3145V280H154.005V290ZM263 290H198.318V280H263V290ZM319 290H303.771V280H319V290ZM670 290H363.313V280H670V290Z" fill="#D9D9D9"/>
<path id="Vector 207" d="M1330 1005V1200" stroke="#D9D9D9" stroke-width="10"/>
<path id="Subtract_12" d="M2535 1185H2525V1063H2535V1185ZM2657 1010H2535V1017H2525V1000H2657V1010ZM2715 1010H2703V1000H2715V1010Z" fill="#D9D9D9"/>
<path id="Subtract_13" d="M2365 1120H2360V1110H2365V1120ZM2422 1120H2411V1110H2422V1120ZM2530 1120H2525V1110H2530V1120ZM2479 1120H2468V1110H2479V1120Z" fill="#D9D9D9"/>
<path id="Subtract_14" d="M2365 1185H2355V1010H2215V1000H2365V1185ZM1257 1010H1200V1000H1257V1010ZM1367 1010H1303V1000H1367V1010ZM1762 1010H1713V1000H1762V1010ZM1953 1010H1808V1000H1953V1010ZM2078 1010H1999V1000H2078V1010ZM2169 1010H2124V1000H2169V1010ZM1667 1010H1413V1000H1667V1010Z" fill="#D9D9D9"/>
<path id="Subtract_15" d="M2720 1200H2710V973H2720V1200ZM2720 943H2710V740H2720V943Z" fill="#D9D9D9"/>
<path id="Subtract_16" d="M1205 745H1005V1195H2355V1180H2535V1195H2995V745H1460V735H3005V1205H2525V1190H2365V1205H995V735H1205V745ZM1389 480V490H1378V915H1368V490H1342V480H1389ZM1655 490H1451V480H1645V10H1380V195H1370V10H1300V195H1290V10H10V480H1296V490H0V0H1655V490Z" fill="#D9D9D9"/>
<path id="Subtract_17" d="M22.9541 200H7V190H22.9541V200ZM259 200H93.8594V190H259V200ZM1222 200H299.771V190H1222V200ZM1399 200H1268V190H1399V200ZM1465 200H1445V190H1465V200Z" fill="#D9D9D9"/>
<path id="Vector 208_2" d="M2715 1069H3000" stroke="#D9D9D9" stroke-width="10"/>
</g>
<path id="Union" d="M1431.05 1096.22L1427.31 1100.8C1428.46 1101.07 1429.4 1101.62 1430.14 1102.43C1430.89 1103.23 1431.27 1104.3 1431.27 1105.62V1105.72C1431.27 1107.37 1430.75 1108.7 1429.71 1109.73C1428.68 1110.75 1427.39 1111.26 1425.82 1111.26C1424.03 1111.26 1422.51 1110.69 1421.28 1109.54L1422.87 1107.04C1423.7 1107.87 1424.62 1108.29 1425.63 1108.29C1426.35 1108.29 1426.93 1108.06 1427.38 1107.62C1427.84 1107.15 1428.07 1106.54 1428.07 1105.77V1105.72C1428.07 1104.89 1427.75 1104.25 1427.11 1103.8C1426.49 1103.34 1425.58 1103.1 1424.38 1103.1H1424.02L1423.78 1101.02L1427.28 1096.53H1422.05V1093.53H1431.05V1096.22ZM1920.55 1093.26C1922.34 1093.26 1923.73 1094.01 1924.72 1095.5C1925.72 1096.98 1926.21 1099.14 1926.21 1101.95V1102.55C1926.21 1105.38 1925.71 1107.54 1924.7 1109.03C1923.71 1110.52 1922.32 1111.26 1920.52 1111.26C1918.72 1111.26 1917.31 1110.52 1916.32 1109.03C1915.33 1107.54 1914.83 1105.39 1914.83 1102.58V1101.98C1914.83 1099.14 1915.33 1096.98 1916.32 1095.5C1917.33 1094.01 1918.74 1093.26 1920.55 1093.26ZM2008.23 1093.26C2010.02 1093.26 2011.41 1094.01 2012.4 1095.5C2013.39 1096.98 2013.89 1099.14 2013.89 1101.95V1102.55C2013.89 1105.38 2013.39 1107.54 2012.38 1109.03C2011.39 1110.52 2009.99 1111.26 2008.2 1111.26C2006.39 1111.26 2004.99 1110.52 2004 1109.03C2003.01 1107.54 2002.51 1105.39 2002.51 1102.58V1101.98C2002.51 1099.14 2003.01 1096.98 2004 1095.5C2005.01 1094.01 2006.42 1093.26 2008.23 1093.26ZM2020.94 1093.26C2022.35 1093.26 2023.48 1093.71 2024.35 1094.61C2025 1095.3 2025.49 1096.17 2025.81 1097.22C2026.15 1098.28 2026.32 1099.7 2026.32 1101.5V1101.74C2026.32 1104.94 2025.77 1107.33 2024.68 1108.91C2023.61 1110.48 2022.1 1111.26 2020.15 1111.26C2018.76 1111.26 2017.44 1110.78 2016.19 1109.82L2017.58 1107.16C2018.51 1107.91 2019.37 1108.29 2020.17 1108.29C2021.04 1108.29 2021.72 1107.92 2022.21 1107.18C2022.71 1106.45 2022.99 1105.39 2023.05 1104.02C2022.27 1104.66 2021.32 1104.98 2020.22 1104.98C2018.97 1104.98 2017.91 1104.5 2017.03 1103.56C2016.16 1102.62 2015.73 1101.24 2015.73 1099.43V1099.36C2015.73 1097.57 2016.23 1096.1 2017.22 1094.97C2018.23 1093.83 2019.47 1093.26 2020.94 1093.26ZM2110.23 1093.26C2112.02 1093.26 2113.41 1094.01 2114.4 1095.5C2115.39 1096.98 2115.89 1099.14 2115.89 1101.95V1102.55C2115.89 1105.38 2115.39 1107.54 2114.38 1109.03C2113.39 1110.52 2111.99 1111.26 2110.2 1111.26C2108.39 1111.26 2106.99 1110.52 2106 1109.03C2105.01 1107.54 2104.51 1105.39 2104.51 1102.58V1101.98C2104.51 1099.14 2105.01 1096.98 2106 1095.5C2107.01 1094.01 2108.42 1093.26 2110.23 1093.26ZM2122.99 1093.26C2124.43 1093.26 2125.6 1093.7 2126.52 1094.58C2127.44 1095.46 2127.91 1096.59 2127.91 1097.97V1098.09C2127.91 1099.82 2127.24 1101.1 2125.89 1101.95C2127.51 1102.85 2128.31 1104.25 2128.32 1106.15V1106.27C2128.32 1107.79 2127.82 1109.01 2126.83 1109.92C2125.83 1110.82 2124.55 1111.26 2122.99 1111.26C2121.44 1111.26 2120.16 1110.82 2119.17 1109.92C2118.18 1109.01 2117.68 1107.79 2117.68 1106.27V1106.15C2117.68 1104.25 2118.49 1102.85 2120.11 1101.95C2118.75 1101.12 2118.07 1099.83 2118.07 1098.09V1097.97C2118.07 1096.59 2118.52 1095.46 2119.44 1094.58C2120.36 1093.7 2121.55 1093.26 2122.99 1093.26ZM2273.23 1093.26C2275.02 1093.26 2276.41 1094.01 2277.4 1095.5C2278.39 1096.98 2278.89 1099.14 2278.89 1101.95V1102.55C2278.89 1105.38 2278.39 1107.54 2277.38 1109.03C2276.39 1110.52 2274.99 1111.26 2273.2 1111.26C2271.39 1111.26 2269.99 1110.52 2269 1109.03C2268.01 1107.54 2267.51 1105.39 2267.51 1102.58V1101.98C2267.51 1099.14 2268.01 1096.98 2269 1095.5C2270.01 1094.01 2271.42 1093.26 2273.23 1093.26ZM1242.37 1111H1239.08L1238.1 1107.28H1233.49L1232.53 1111H1229.36L1234.23 1093.46H1237.47L1242.37 1111ZM1248.78 1093.53C1250.8 1093.53 1252.3 1094.02 1253.29 1095.02C1254.06 1095.78 1254.45 1096.78 1254.45 1097.99V1098.09C1254.45 1099.85 1253.62 1101.14 1251.98 1101.98C1252.92 1102.36 1253.65 1102.87 1254.16 1103.51C1254.69 1104.14 1254.95 1104.98 1254.95 1106.03V1106.2C1254.95 1107.72 1254.4 1108.9 1253.29 1109.75C1252.21 1110.58 1250.75 1111 1248.93 1111H1244.15V1093.53H1248.78ZM1266.9 1111H1263.69V1096.82L1261.43 1097.49L1261.15 1094.51L1264.65 1093.41H1266.9V1111ZM1278.95 1095.9L1273.58 1111H1270.19L1275.64 1096.62H1269.5V1093.53H1278.95V1095.9ZM1286.22 1111H1283V1096.82L1280.75 1097.49L1280.46 1094.51L1283.96 1093.41H1286.22V1111ZM1298.12 1104.78H1299.97V1107.54H1298.12V1111H1295.12V1107.54H1288.72L1288.45 1105.17L1295.15 1093.46H1298.12V1104.78ZM1375.37 1111H1372.08L1371.1 1107.28H1366.49L1365.53 1111H1362.36L1367.23 1093.46H1370.47L1375.37 1111ZM1381.78 1093.53C1383.8 1093.53 1385.3 1094.02 1386.29 1095.02C1387.06 1095.78 1387.45 1096.78 1387.45 1097.99V1098.09C1387.45 1099.85 1386.62 1101.14 1384.98 1101.98C1385.92 1102.36 1386.65 1102.87 1387.16 1103.51C1387.69 1104.14 1387.95 1104.98 1387.95 1106.03V1106.2C1387.95 1107.72 1387.4 1108.9 1386.29 1109.75C1385.21 1110.58 1383.75 1111 1381.93 1111H1377.15V1093.53H1381.78ZM1399.9 1111H1396.69V1096.82L1394.43 1097.49L1394.15 1094.51L1397.65 1093.41H1399.9V1111ZM1411.95 1095.9L1406.58 1111H1403.19L1408.64 1096.62H1402.5V1093.53H1411.95V1095.9ZM1419.22 1111H1416V1096.82L1413.75 1097.49L1413.46 1094.51L1416.96 1093.41H1419.22V1111ZM1575.37 1111H1572.08L1571.1 1107.28H1566.49L1565.53 1111H1562.36L1567.23 1093.46H1570.47L1575.37 1111ZM1581.78 1093.53C1583.8 1093.53 1585.3 1094.02 1586.29 1095.02C1587.06 1095.78 1587.45 1096.78 1587.45 1097.99V1098.09C1587.45 1099.85 1586.62 1101.14 1584.98 1101.98C1585.92 1102.36 1586.65 1102.87 1587.16 1103.51C1587.69 1104.14 1587.95 1104.98 1587.95 1106.03V1106.2C1587.95 1107.72 1587.4 1108.9 1586.29 1109.75C1585.21 1110.58 1583.75 1111 1581.93 1111H1577.15V1093.53H1581.78ZM1599.9 1111H1596.69V1096.82L1594.43 1097.49L1594.15 1094.51L1597.65 1093.41H1599.9V1111ZM1611.95 1095.9L1606.58 1111H1603.19L1608.64 1096.62H1602.5V1093.53H1611.95V1095.9ZM1619.22 1111H1616V1096.82L1613.75 1097.49L1613.46 1094.51L1616.96 1093.41H1619.22V1111ZM1626.68 1093.26C1628.11 1093.26 1629.27 1093.69 1630.16 1094.54C1631.07 1095.37 1631.53 1096.52 1631.53 1097.99V1098.04C1631.53 1099 1631.34 1099.88 1630.95 1100.68C1630.59 1101.46 1629.87 1102.55 1628.82 1103.94L1625.75 1107.98H1631.41V1111H1621.88V1108.34L1626.32 1102.36C1627.07 1101.34 1627.59 1100.54 1627.86 1099.96C1628.15 1099.38 1628.29 1098.82 1628.29 1098.28C1628.29 1097.69 1628.11 1097.22 1627.74 1096.86C1627.37 1096.51 1626.91 1096.34 1626.37 1096.34C1625.49 1096.34 1624.56 1096.94 1623.59 1098.14L1621.72 1095.9C1623.06 1094.14 1624.72 1093.26 1626.68 1093.26ZM1765.37 1111H1762.08L1761.1 1107.28H1756.49L1755.53 1111H1752.36L1757.23 1093.46H1760.47L1765.37 1111ZM1771.78 1093.53C1773.8 1093.53 1775.3 1094.02 1776.29 1095.02C1777.06 1095.78 1777.45 1096.78 1777.45 1097.99V1098.09C1777.45 1099.85 1776.62 1101.14 1774.98 1101.98C1775.92 1102.36 1776.65 1102.87 1777.16 1103.51C1777.69 1104.14 1777.95 1104.98 1777.95 1106.03V1106.2C1777.95 1107.72 1777.4 1108.9 1776.29 1109.75C1775.21 1110.58 1773.75 1111 1771.93 1111H1767.15V1093.53H1771.78ZM1789.9 1111H1786.69V1096.82L1784.43 1097.49L1784.15 1094.51L1787.65 1093.41H1789.9V1111ZM1801.95 1095.9L1796.58 1111H1793.19L1798.64 1096.62H1792.5V1093.53H1801.95V1095.9ZM1809.22 1111H1806V1096.82L1803.75 1097.49L1803.46 1094.51L1806.96 1093.41H1809.22V1111ZM1817.16 1111H1813.95V1096.82L1811.69 1097.49L1811.4 1094.51L1814.91 1093.41H1817.16V1111ZM1868.37 1111H1865.08L1864.1 1107.28H1859.49L1858.53 1111H1855.36L1860.23 1093.46H1863.47L1868.37 1111ZM1874.78 1093.53C1876.8 1093.53 1878.3 1094.02 1879.29 1095.02C1880.06 1095.78 1880.45 1096.78 1880.45 1097.99V1098.09C1880.45 1099.85 1879.62 1101.14 1877.98 1101.98C1878.92 1102.36 1879.65 1102.87 1880.16 1103.51C1880.69 1104.14 1880.95 1104.98 1880.95 1106.03V1106.2C1880.95 1107.72 1880.4 1108.9 1879.29 1109.75C1878.21 1110.58 1876.75 1111 1874.93 1111H1870.15V1093.53H1874.78ZM1892.9 1111H1889.69V1096.82L1887.43 1097.49L1887.15 1094.51L1890.65 1093.41H1892.9V1111ZM1904.95 1095.9L1899.58 1111H1896.19L1901.64 1096.62H1895.5V1093.53H1904.95V1095.9ZM1912.22 1111H1909V1096.82L1906.75 1097.49L1906.46 1094.51L1909.96 1093.41H1912.22V1111ZM1964.37 1111H1961.08L1960.1 1107.28H1955.49L1954.53 1111H1951.36L1956.23 1093.46H1959.47L1964.37 1111ZM1970.78 1093.53C1972.8 1093.53 1974.3 1094.02 1975.29 1095.02C1976.06 1095.78 1976.45 1096.78 1976.45 1097.99V1098.09C1976.45 1099.85 1975.62 1101.14 1973.98 1101.98C1974.92 1102.36 1975.65 1102.87 1976.16 1103.51C1976.69 1104.14 1976.95 1104.98 1976.95 1106.03V1106.2C1976.95 1107.72 1976.4 1108.9 1975.29 1109.75C1974.21 1110.58 1972.75 1111 1970.93 1111H1966.15V1093.53H1970.78ZM1988.9 1111H1985.69V1096.82L1983.43 1097.49L1983.15 1094.51L1986.65 1093.41H1988.9V1111ZM2000.95 1095.9L1995.58 1111H1992.19L1997.64 1096.62H1991.5V1093.53H2000.95V1095.9ZM2066.37 1111H2063.08L2062.1 1107.28H2057.49L2056.53 1111H2053.36L2058.23 1093.46H2061.47L2066.37 1111ZM2072.78 1093.53C2074.8 1093.53 2076.3 1094.02 2077.29 1095.02C2078.06 1095.78 2078.45 1096.78 2078.45 1097.99V1098.09C2078.45 1099.85 2077.62 1101.14 2075.98 1101.98C2076.92 1102.36 2077.65 1102.87 2078.16 1103.51C2078.69 1104.14 2078.95 1104.98 2078.95 1106.03V1106.2C2078.95 1107.72 2078.4 1108.9 2077.29 1109.75C2076.21 1110.58 2074.75 1111 2072.93 1111H2068.15V1093.53H2072.78ZM2090.9 1111H2087.69V1096.82L2085.43 1097.49L2085.15 1094.51L2088.65 1093.41H2090.9V1111ZM2102.95 1095.9L2097.58 1111H2094.19L2099.64 1096.62H2093.5V1093.53H2102.95V1095.9ZM2229.37 1111H2226.08L2225.1 1107.28H2220.49L2219.53 1111H2216.36L2221.23 1093.46H2224.47L2229.37 1111ZM2235.78 1093.53C2237.8 1093.53 2239.3 1094.02 2240.29 1095.02C2241.06 1095.78 2241.45 1096.78 2241.45 1097.99V1098.09C2241.45 1099.85 2240.62 1101.14 2238.98 1101.98C2239.92 1102.36 2240.65 1102.87 2241.16 1103.51C2241.69 1104.14 2241.95 1104.98 2241.95 1106.03V1106.2C2241.95 1107.72 2241.4 1108.9 2240.29 1109.75C2239.21 1110.58 2237.75 1111 2235.93 1111H2231.15V1093.53H2235.78ZM2253.9 1111H2250.69V1096.82L2248.43 1097.49L2248.15 1094.51L2251.65 1093.41H2253.9V1111ZM2265.95 1095.9L2260.58 1111H2257.19L2262.64 1096.62H2256.5V1093.53H2265.95V1095.9ZM2289.86 1095.9L2284.48 1111H2281.1L2286.55 1096.62H2280.4V1093.53H2289.86V1095.9ZM2122.99 1103.34C2122.35 1103.34 2121.82 1103.58 2121.4 1104.04C2121 1104.5 2120.8 1105.14 2120.8 1105.94V1105.98C2120.8 1106.82 2121 1107.46 2121.4 1107.93C2121.82 1108.39 2122.35 1108.62 2122.99 1108.62C2123.63 1108.62 2124.15 1108.39 2124.57 1107.93C2124.99 1107.46 2125.19 1106.82 2125.19 1105.98V1105.94C2125.19 1105.14 2124.99 1104.5 2124.57 1104.04C2124.15 1103.58 2123.63 1103.34 2122.99 1103.34ZM1920.52 1096.24C1918.91 1096.24 1918.1 1098.18 1918.1 1102.05V1102.46C1918.1 1106.34 1918.92 1108.29 1920.55 1108.29C1922.16 1108.29 1922.97 1106.35 1922.97 1102.48V1102.07C1922.97 1100.06 1922.75 1098.58 1922.3 1097.66C1921.85 1096.71 1921.26 1096.24 1920.52 1096.24ZM2008.2 1096.24C2006.59 1096.24 2005.78 1098.18 2005.78 1102.05V1102.46C2005.78 1106.34 2006.6 1108.29 2008.23 1108.29C2009.84 1108.29 2010.65 1106.35 2010.65 1102.48V1102.07C2010.65 1100.06 2010.43 1098.58 2009.98 1097.66C2009.53 1096.71 2008.94 1096.24 2008.2 1096.24ZM2110.2 1096.24C2108.59 1096.24 2107.78 1098.18 2107.78 1102.05V1102.46C2107.78 1106.34 2108.6 1108.29 2110.23 1108.29C2111.84 1108.29 2112.65 1106.35 2112.65 1102.48V1102.07C2112.65 1100.06 2112.43 1098.58 2111.98 1097.66C2111.53 1096.71 2110.94 1096.24 2110.2 1096.24ZM2273.2 1096.24C2271.59 1096.24 2270.78 1098.18 2270.78 1102.05V1102.46C2270.78 1106.34 2271.6 1108.29 2273.23 1108.29C2274.84 1108.29 2275.65 1106.35 2275.65 1102.48V1102.07C2275.65 1100.06 2275.43 1098.58 2274.98 1097.66C2274.53 1096.71 2273.94 1096.24 2273.2 1096.24ZM1247.32 1108.1H1249.12C1249.93 1108.1 1250.57 1107.9 1251.04 1107.52C1251.52 1107.12 1251.76 1106.56 1251.76 1105.84V1105.82C1251.76 1105.11 1251.52 1104.56 1251.04 1104.16C1250.57 1103.76 1249.92 1103.56 1249.07 1103.56H1247.32V1108.1ZM1380.32 1108.1H1382.12C1382.93 1108.1 1383.57 1107.9 1384.04 1107.52C1384.52 1107.12 1384.76 1106.56 1384.76 1105.84V1105.82C1384.76 1105.11 1384.52 1104.56 1384.04 1104.16C1383.57 1103.76 1382.92 1103.56 1382.07 1103.56H1380.32V1108.1ZM1580.32 1108.1H1582.12C1582.93 1108.1 1583.57 1107.9 1584.04 1107.52C1584.52 1107.12 1584.76 1106.56 1584.76 1105.84V1105.82C1584.76 1105.11 1584.52 1104.56 1584.04 1104.16C1583.57 1103.76 1582.92 1103.56 1582.07 1103.56H1580.32V1108.1ZM1770.32 1108.1H1772.12C1772.93 1108.1 1773.57 1107.9 1774.04 1107.52C1774.52 1107.12 1774.76 1106.56 1774.76 1105.84V1105.82C1774.76 1105.11 1774.52 1104.56 1774.04 1104.16C1773.57 1103.76 1772.92 1103.56 1772.07 1103.56H1770.32V1108.1ZM1873.32 1108.1H1875.12C1875.93 1108.1 1876.57 1107.9 1877.04 1107.52C1877.52 1107.12 1877.76 1106.56 1877.76 1105.84V1105.82C1877.76 1105.11 1877.52 1104.56 1877.04 1104.16C1876.57 1103.76 1875.92 1103.56 1875.07 1103.56H1873.32V1108.1ZM1969.32 1108.1H1971.12C1971.93 1108.1 1972.57 1107.9 1973.04 1107.52C1973.52 1107.12 1973.76 1106.56 1973.76 1105.84V1105.82C1973.76 1105.11 1973.52 1104.56 1973.04 1104.16C1972.57 1103.76 1971.92 1103.56 1971.07 1103.56H1969.32V1108.1ZM2071.32 1108.1H2073.12C2073.93 1108.1 2074.57 1107.9 2075.04 1107.52C2075.52 1107.12 2075.76 1106.56 2075.76 1105.84V1105.82C2075.76 1105.11 2075.52 1104.56 2075.04 1104.16C2074.57 1103.76 2073.92 1103.56 2073.07 1103.56H2071.32V1108.1ZM2234.32 1108.1H2236.12C2236.93 1108.1 2237.57 1107.9 2238.04 1107.52C2238.52 1107.12 2238.76 1106.56 2238.76 1105.84V1105.82C2238.76 1105.11 2238.52 1104.56 2238.04 1104.16C2237.57 1103.76 2236.92 1103.56 2236.07 1103.56H2234.32V1108.1ZM1291.67 1104.78H1295.12V1098.64L1291.67 1104.78ZM1234.26 1104.42H1237.33L1235.82 1098.42L1234.26 1104.42ZM1367.26 1104.42H1370.33L1368.82 1098.42L1367.26 1104.42ZM1567.26 1104.42H1570.33L1568.82 1098.42L1567.26 1104.42ZM1757.26 1104.42H1760.33L1758.82 1098.42L1757.26 1104.42ZM1860.26 1104.42H1863.33L1861.82 1098.42L1860.26 1104.42ZM1956.26 1104.42H1959.33L1957.82 1098.42L1956.26 1104.42ZM2058.26 1104.42H2061.33L2059.82 1098.42L2058.26 1104.42ZM2221.26 1104.42H2224.33L2222.82 1098.42L2221.26 1104.42ZM2020.96 1096.14C2020.29 1096.14 2019.77 1096.42 2019.4 1096.96C2019.04 1097.49 2018.85 1098.23 2018.85 1099.19V1099.22C2018.85 1100.18 2019.04 1100.92 2019.4 1101.45C2019.79 1101.98 2020.31 1102.24 2020.96 1102.24C2021.64 1102.24 2022.16 1101.98 2022.52 1101.45C2022.91 1100.92 2023.1 1100.18 2023.1 1099.22V1099.19C2023.1 1098.23 2022.91 1097.49 2022.52 1096.96C2022.16 1096.42 2021.64 1096.14 2020.96 1096.14ZM1247.32 1100.82H1248.73C1249.52 1100.82 1250.14 1100.63 1250.61 1100.25C1251.07 1099.86 1251.3 1099.32 1251.3 1098.62V1098.57C1251.3 1097.86 1251.09 1097.34 1250.65 1096.98C1250.24 1096.62 1249.64 1096.43 1248.86 1096.43H1247.32V1100.82ZM1380.32 1100.82H1381.73C1382.52 1100.82 1383.14 1100.63 1383.61 1100.25C1384.07 1099.86 1384.3 1099.32 1384.3 1098.62V1098.57C1384.3 1097.86 1384.09 1097.34 1383.65 1096.98C1383.24 1096.62 1382.64 1096.43 1381.86 1096.43H1380.32V1100.82ZM1580.32 1100.82H1581.73C1582.52 1100.82 1583.14 1100.63 1583.61 1100.25C1584.07 1099.86 1584.3 1099.32 1584.3 1098.62V1098.57C1584.3 1097.86 1584.09 1097.34 1583.65 1096.98C1583.24 1096.62 1582.64 1096.43 1581.86 1096.43H1580.32V1100.82ZM1770.32 1100.82H1771.73C1772.52 1100.82 1773.14 1100.63 1773.61 1100.25C1774.07 1099.86 1774.3 1099.32 1774.3 1098.62V1098.57C1774.3 1097.86 1774.09 1097.34 1773.65 1096.98C1773.24 1096.62 1772.64 1096.43 1771.86 1096.43H1770.32V1100.82ZM1873.32 1100.82H1874.73C1875.52 1100.82 1876.14 1100.63 1876.61 1100.25C1877.07 1099.86 1877.3 1099.32 1877.3 1098.62V1098.57C1877.3 1097.86 1877.09 1097.34 1876.65 1096.98C1876.24 1096.62 1875.64 1096.43 1874.86 1096.43H1873.32V1100.82ZM1969.32 1100.82H1970.73C1971.52 1100.82 1972.14 1100.63 1972.61 1100.25C1973.07 1099.86 1973.3 1099.32 1973.3 1098.62V1098.57C1973.3 1097.86 1973.09 1097.34 1972.65 1096.98C1972.24 1096.62 1971.64 1096.43 1970.86 1096.43H1969.32V1100.82ZM2071.32 1100.82H2072.73C2073.52 1100.82 2074.14 1100.63 2074.61 1100.25C2075.07 1099.86 2075.3 1099.32 2075.3 1098.62V1098.57C2075.3 1097.86 2075.09 1097.34 2074.65 1096.98C2074.24 1096.62 2073.64 1096.43 2072.86 1096.43H2071.32V1100.82ZM2234.32 1100.82H2235.73C2236.52 1100.82 2237.14 1100.63 2237.61 1100.25C2238.07 1099.86 2238.3 1099.32 2238.3 1098.62V1098.57C2238.3 1097.86 2238.09 1097.34 2237.65 1096.98C2237.24 1096.62 2236.64 1096.43 2235.86 1096.43H2234.32V1100.82ZM2122.99 1095.88C2122.44 1095.88 2121.99 1096.09 2121.62 1096.5C2121.25 1096.9 2121.07 1097.47 2121.07 1098.21V1098.23C2121.07 1098.97 2121.25 1099.56 2121.62 1100.01C2121.99 1100.46 2122.44 1100.68 2122.99 1100.68C2123.53 1100.68 2123.99 1100.46 2124.36 1100.01C2124.72 1099.56 2124.91 1098.97 2124.91 1098.23V1098.21C2124.91 1097.47 2124.72 1096.9 2124.36 1096.5C2123.99 1096.09 2123.53 1095.88 2122.99 1095.88ZM2876.23 895.264C2878.02 895.264 2879.41 896.009 2880.4 897.496C2881.39 898.984 2881.89 901.137 2881.89 903.952V904.552C2881.89 907.384 2881.39 909.544 2880.38 911.032C2879.39 912.52 2877.99 913.264 2876.2 913.264C2874.39 913.264 2872.99 912.52 2872 911.032C2871.01 909.544 2870.51 907.392 2870.51 904.576V903.976C2870.51 901.144 2871.01 898.984 2872 897.496C2873.01 896.008 2874.42 895.264 2876.23 895.264ZM2889.99 895.264C2891.32 895.264 2892.56 895.68 2893.69 896.512L2892.3 899.176C2891.6 898.552 2890.82 898.24 2889.97 898.24C2889.11 898.24 2888.42 898.624 2887.91 899.392C2887.41 900.16 2887.13 901.28 2887.07 902.752C2887.88 902.08 2888.84 901.745 2889.95 901.744C2891.18 901.744 2892.23 902.208 2893.09 903.136C2893.97 904.064 2894.41 905.416 2894.41 907.192V907.264C2894.41 909.024 2893.91 910.464 2892.9 911.584C2891.91 912.704 2890.67 913.264 2889.2 913.264C2887.8 913.264 2886.66 912.816 2885.8 911.92C2884.48 910.608 2883.83 908.312 2883.83 905.032V904.792C2883.83 901.592 2884.36 899.208 2885.44 897.64C2886.52 896.056 2888.04 895.264 2889.99 895.264ZM2832.37 913H2829.08L2828.1 909.28H2823.49L2822.53 913H2819.36L2824.23 895.456H2827.47L2832.37 913ZM2838.78 895.528C2840.8 895.528 2842.3 896.024 2843.29 897.016C2844.06 897.784 2844.45 898.776 2844.45 899.992V900.088C2844.45 901.848 2843.62 903.144 2841.98 903.976C2842.92 904.36 2843.65 904.872 2844.16 905.512C2844.69 906.136 2844.95 906.976 2844.95 908.032V908.2C2844.95 909.72 2844.4 910.904 2843.29 911.752C2842.21 912.584 2840.75 913 2838.93 913H2834.15V895.528H2838.78ZM2856.9 913H2853.69V898.816L2851.43 899.488L2851.15 896.512L2854.65 895.408H2856.9V913ZM2868.95 897.904L2863.58 913H2860.19L2865.64 898.624H2859.5V895.528H2868.95V897.904ZM2889.18 904.48C2888.52 904.48 2888 904.744 2887.62 905.272C2887.25 905.784 2887.07 906.496 2887.07 907.408V907.432C2887.07 908.344 2887.25 909.064 2887.62 909.592C2887.99 910.12 2888.51 910.384 2889.18 910.384C2889.85 910.384 2890.37 910.12 2890.74 909.592C2891.11 909.064 2891.29 908.344 2891.29 907.432V907.408C2891.29 906.496 2891.1 905.784 2890.72 905.272C2890.35 904.744 2889.84 904.48 2889.18 904.48ZM2876.2 898.24C2874.59 898.24 2873.78 900.176 2873.78 904.048V904.456C2873.78 908.344 2874.6 910.288 2876.23 910.288C2877.84 910.288 2878.65 908.351 2878.65 904.48V904.072C2878.65 902.056 2878.43 900.584 2877.98 899.656C2877.53 898.712 2876.94 898.24 2876.2 898.24ZM2837.32 910.096H2839.12C2839.93 910.096 2840.57 909.904 2841.04 909.52C2841.52 909.12 2841.76 908.56 2841.76 907.84V907.816C2841.76 907.112 2841.52 906.56 2841.04 906.16C2840.57 905.76 2839.92 905.56 2839.07 905.56H2837.32V910.096ZM2824.26 906.424H2827.33L2825.82 900.424L2824.26 906.424ZM2837.32 902.824H2838.73C2839.52 902.824 2840.14 902.632 2840.61 902.248C2841.07 901.864 2841.3 901.32 2841.3 900.616V900.568C2841.3 899.864 2841.09 899.336 2840.65 898.984C2840.24 898.616 2839.64 898.432 2838.86 898.432H2837.32V902.824ZM2644.23 866.264C2646.02 866.264 2647.41 867.009 2648.4 868.496C2649.39 869.984 2649.89 872.137 2649.89 874.952V875.552C2649.89 878.384 2649.39 880.544 2648.38 882.032C2647.39 883.52 2645.99 884.264 2644.2 884.264C2642.39 884.264 2640.99 883.52 2640 882.032C2639.01 880.544 2638.51 878.392 2638.51 875.576V874.976C2638.51 872.144 2639.01 869.984 2640 868.496C2641.01 867.008 2642.42 866.264 2644.23 866.264ZM2660.78 869.528H2655.21L2654.99 873.032C2655.54 872.888 2656.08 872.816 2656.6 872.816C2657.98 872.816 2659.13 873.272 2660.06 874.184C2661 875.08 2661.48 876.44 2661.48 878.264V878.336C2661.48 880.16 2660.96 881.608 2659.92 882.68C2658.88 883.736 2657.55 884.264 2655.93 884.264C2654.24 884.264 2652.75 883.688 2651.47 882.536L2653.07 880.016C2653.99 880.832 2654.91 881.24 2655.84 881.24C2656.57 881.24 2657.16 880.992 2657.61 880.496C2658.06 879.984 2658.28 879.296 2658.28 878.432V878.408C2658.28 877.576 2658.04 876.928 2657.56 876.464C2657.08 875.984 2656.47 875.745 2655.72 875.744C2655.12 875.744 2654.51 875.896 2653.87 876.2L2652.14 875.072L2652.62 866.528H2660.78V869.528ZM2600.37 884H2597.08L2596.1 880.28H2591.49L2590.53 884H2587.36L2592.23 866.456H2595.47L2600.37 884ZM2606.78 866.528C2608.8 866.528 2610.3 867.024 2611.29 868.016C2612.06 868.784 2612.45 869.776 2612.45 870.992V871.088C2612.45 872.848 2611.62 874.144 2609.98 874.976C2610.92 875.36 2611.65 875.872 2612.16 876.512C2612.69 877.136 2612.95 877.976 2612.95 879.032V879.2C2612.95 880.72 2612.4 881.904 2611.29 882.752C2610.21 883.584 2608.75 884 2606.93 884H2602.15V866.528H2606.78ZM2624.9 884H2621.69V869.816L2619.43 870.488L2619.15 867.512L2622.65 866.408H2624.9V884ZM2636.95 868.904L2631.58 884H2628.19L2633.64 869.624H2627.5V866.528H2636.95V868.904ZM2644.2 869.24C2642.59 869.24 2641.78 871.176 2641.78 875.048V875.456C2641.78 879.344 2642.6 881.288 2644.23 881.288C2645.84 881.288 2646.65 879.351 2646.65 875.48V875.072C2646.65 873.056 2646.43 871.584 2645.98 870.656C2645.53 869.712 2644.94 869.24 2644.2 869.24ZM2605.32 881.096H2607.12C2607.93 881.096 2608.57 880.904 2609.04 880.52C2609.52 880.12 2609.76 879.56 2609.76 878.84V878.816C2609.76 878.112 2609.52 877.56 2609.04 877.16C2608.57 876.76 2607.92 876.56 2607.07 876.56H2605.32V881.096ZM2592.26 877.424H2595.33L2593.82 871.424L2592.26 877.424ZM2605.32 873.824H2606.73C2607.52 873.824 2608.14 873.632 2608.61 873.248C2609.07 872.864 2609.3 872.32 2609.3 871.616V871.568C2609.3 870.864 2609.09 870.336 2608.65 869.984C2608.24 869.616 2607.64 869.432 2606.86 869.432H2605.32V873.824ZM1618.23 818.264C1620.02 818.264 1621.41 819.009 1622.4 820.496C1623.39 821.984 1623.89 824.137 1623.89 826.952V827.552C1623.89 830.384 1623.39 832.544 1622.38 834.032C1621.39 835.52 1619.99 836.264 1618.2 836.264C1616.39 836.264 1614.99 835.52 1614 834.032C1613.01 832.544 1612.51 830.392 1612.51 827.576V826.976C1612.51 824.144 1613.01 821.984 1614 820.496C1615.01 819.008 1616.42 818.264 1618.23 818.264ZM1840.23 818.264C1842.02 818.264 1843.41 819.009 1844.4 820.496C1845.39 821.984 1845.89 824.137 1845.89 826.952V827.552C1845.89 830.384 1845.39 832.544 1844.38 834.032C1843.39 835.52 1841.99 836.264 1840.2 836.264C1838.39 836.264 1836.99 835.52 1836 834.032C1835.01 832.544 1834.51 830.392 1834.51 827.576V826.976C1834.51 824.144 1835.01 821.984 1836 820.496C1837.01 819.008 1838.42 818.264 1840.23 818.264ZM2021.23 818.264C2023.02 818.264 2024.41 819.009 2025.4 820.496C2026.39 821.984 2026.89 824.137 2026.89 826.952V827.552C2026.89 830.384 2026.39 832.544 2025.38 834.032C2024.39 835.52 2022.99 836.264 2021.2 836.264C2019.39 836.264 2017.99 835.52 2017 834.032C2016.01 832.544 2015.51 830.392 2015.51 827.576V826.976C2015.51 824.144 2016.01 821.984 2017 820.496C2018.01 819.008 2019.42 818.264 2021.23 818.264ZM2037.86 821.216L2034.11 825.8C2035.26 826.072 2036.21 826.616 2036.94 827.432C2037.7 828.232 2038.07 829.296 2038.07 830.624V830.72C2038.07 832.368 2037.55 833.704 2036.51 834.728C2035.49 835.752 2034.19 836.264 2032.62 836.264C2030.83 836.264 2029.32 835.688 2028.09 834.536L2029.67 832.04C2030.5 832.872 2031.42 833.288 2032.43 833.288C2033.15 833.288 2033.74 833.064 2034.18 832.616C2034.65 832.152 2034.88 831.536 2034.88 830.768V830.72C2034.88 829.888 2034.56 829.248 2033.92 828.8C2033.3 828.336 2032.38 828.104 2031.18 828.104H2030.82L2030.58 826.016L2034.09 821.528H2028.86V818.528H2037.86V821.216ZM2241.23 818.264C2243.02 818.264 2244.41 819.009 2245.4 820.496C2246.39 821.984 2246.89 824.137 2246.89 826.952V827.552C2246.89 830.384 2246.39 832.544 2245.38 834.032C2244.39 835.52 2242.99 836.264 2241.2 836.264C2239.39 836.264 2237.99 835.52 2237 834.032C2236.01 832.544 2235.51 830.392 2235.51 827.576V826.976C2235.51 824.144 2236.01 821.984 2237 820.496C2238.01 819.008 2239.42 818.264 2241.23 818.264ZM1574.37 836H1571.08L1570.1 832.28H1565.49L1564.53 836H1561.36L1566.23 818.456H1569.47L1574.37 836ZM1580.78 818.528C1582.8 818.528 1584.3 819.024 1585.29 820.016C1586.06 820.784 1586.45 821.776 1586.45 822.992V823.088C1586.45 824.848 1585.62 826.144 1583.98 826.976C1584.92 827.36 1585.65 827.872 1586.16 828.512C1586.69 829.136 1586.95 829.976 1586.95 831.032V831.2C1586.95 832.72 1586.4 833.904 1585.29 834.752C1584.21 835.584 1582.75 836 1580.93 836H1576.15V818.528H1580.78ZM1598.9 836H1595.69V821.816L1593.43 822.488L1593.15 819.512L1596.65 818.408H1598.9V836ZM1610.95 820.904L1605.58 836H1602.19L1607.64 821.624H1601.5V818.528H1610.95V820.904ZM1630.97 836H1627.75V821.816L1625.5 822.488L1625.21 819.512L1628.71 818.408H1630.97V836ZM1796.37 836H1793.08L1792.1 832.28H1787.49L1786.53 836H1783.36L1788.23 818.456H1791.47L1796.37 836ZM1802.78 818.528C1804.8 818.528 1806.3 819.024 1807.29 820.016C1808.06 820.784 1808.45 821.776 1808.45 822.992V823.088C1808.45 824.848 1807.62 826.144 1805.98 826.976C1806.92 827.36 1807.65 827.872 1808.16 828.512C1808.69 829.136 1808.95 829.976 1808.95 831.032V831.2C1808.95 832.72 1808.4 833.904 1807.29 834.752C1806.21 835.584 1804.75 836 1802.93 836H1798.15V818.528H1802.78ZM1820.9 836H1817.69V821.816L1815.43 822.488L1815.15 819.512L1818.65 818.408H1820.9V836ZM1832.95 820.904L1827.58 836H1824.19L1829.64 821.624H1823.5V818.528H1832.95V820.904ZM1852.44 818.264C1853.86 818.264 1855.02 818.688 1855.92 819.536C1856.83 820.368 1857.29 821.52 1857.29 822.992V823.04C1857.29 824 1857.1 824.88 1856.71 825.68C1856.34 826.464 1855.63 827.552 1854.58 828.944L1851.5 832.976H1857.17V836H1847.64V833.336L1852.08 827.36C1852.83 826.336 1853.34 825.536 1853.62 824.96C1853.9 824.384 1854.05 823.824 1854.05 823.28C1854.05 822.688 1853.86 822.216 1853.5 821.864C1853.13 821.512 1852.67 821.336 1852.13 821.336C1851.25 821.336 1850.32 821.936 1849.34 823.136L1847.47 820.904C1848.82 819.144 1850.47 818.264 1852.44 818.264ZM1977.37 836H1974.08L1973.1 832.28H1968.49L1967.53 836H1964.36L1969.23 818.456H1972.47L1977.37 836ZM1983.78 818.528C1985.8 818.528 1987.3 819.024 1988.29 820.016C1989.06 820.784 1989.45 821.776 1989.45 822.992V823.088C1989.45 824.848 1988.62 826.144 1986.98 826.976C1987.92 827.36 1988.65 827.872 1989.16 828.512C1989.69 829.136 1989.95 829.976 1989.95 831.032V831.2C1989.95 832.72 1989.4 833.904 1988.29 834.752C1987.21 835.584 1985.75 836 1983.93 836H1979.15V818.528H1983.78ZM2001.9 836H1998.69V821.816L1996.43 822.488L1996.15 819.512L1999.65 818.408H2001.9V836ZM2013.95 820.904L2008.58 836H2005.19L2010.64 821.624H2004.5V818.528H2013.95V820.904ZM2197.37 836H2194.08L2193.1 832.28H2188.49L2187.53 836H2184.36L2189.23 818.456H2192.47L2197.37 836ZM2203.78 818.528C2205.8 818.528 2207.3 819.024 2208.29 820.016C2209.06 820.784 2209.45 821.776 2209.45 822.992V823.088C2209.45 824.848 2208.62 826.144 2206.98 826.976C2207.92 827.36 2208.65 827.872 2209.16 828.512C2209.69 829.136 2209.95 829.976 2209.95 831.032V831.2C2209.95 832.72 2209.4 833.904 2208.29 834.752C2207.21 835.584 2205.75 836 2203.93 836H2199.15V818.528H2203.78ZM2221.9 836H2218.69V821.816L2216.43 822.488L2216.15 819.512L2219.65 818.408H2221.9V836ZM2233.95 820.904L2228.58 836H2225.19L2230.64 821.624H2224.5V818.528H2233.95V820.904ZM2258.11 829.785H2259.96V832.544H2258.11V836H2255.11V832.544H2248.71L2248.44 830.168L2255.14 818.456H2258.11V829.785ZM1618.2 821.24C1616.59 821.24 1615.78 823.176 1615.78 827.048V827.456C1615.78 831.344 1616.6 833.288 1618.23 833.288C1619.84 833.288 1620.65 831.351 1620.65 827.48V827.072C1620.65 825.056 1620.43 823.584 1619.98 822.656C1619.53 821.712 1618.94 821.24 1618.2 821.24ZM1840.2 821.24C1838.59 821.24 1837.78 823.176 1837.78 827.048V827.456C1837.78 831.344 1838.6 833.288 1840.23 833.288C1841.84 833.288 1842.65 831.351 1842.65 827.48V827.072C1842.65 825.056 1842.43 823.584 1841.98 822.656C1841.53 821.712 1840.94 821.24 1840.2 821.24ZM2021.2 821.24C2019.59 821.24 2018.78 823.176 2018.78 827.048V827.456C2018.78 831.344 2019.6 833.288 2021.23 833.288C2022.84 833.288 2023.65 831.351 2023.65 827.48V827.072C2023.65 825.056 2023.43 823.584 2022.98 822.656C2022.53 821.712 2021.94 821.24 2021.2 821.24ZM2241.2 821.24C2239.59 821.24 2238.78 823.176 2238.78 827.048V827.456C2238.78 831.344 2239.6 833.288 2241.23 833.288C2242.84 833.288 2243.65 831.351 2243.65 827.48V827.072C2243.65 825.056 2243.43 823.584 2242.98 822.656C2242.53 821.712 2241.94 821.24 2241.2 821.24ZM1579.32 833.096H1581.12C1581.93 833.096 1582.57 832.904 1583.04 832.52C1583.52 832.12 1583.76 831.56 1583.76 830.84V830.816C1583.76 830.112 1583.52 829.56 1583.04 829.16C1582.57 828.76 1581.92 828.56 1581.07 828.56H1579.32V833.096ZM1801.32 833.096H1803.12C1803.93 833.096 1804.57 832.904 1805.04 832.52C1805.52 832.12 1805.76 831.56 1805.76 830.84V830.816C1805.76 830.112 1805.52 829.56 1805.04 829.16C1804.57 828.76 1803.92 828.56 1803.07 828.56H1801.32V833.096ZM1982.32 833.096H1984.12C1984.93 833.096 1985.57 832.904 1986.04 832.52C1986.52 832.12 1986.76 831.56 1986.76 830.84V830.816C1986.76 830.112 1986.52 829.56 1986.04 829.16C1985.57 828.76 1984.92 828.56 1984.07 828.56H1982.32V833.096ZM2202.32 833.096H2204.12C2204.93 833.096 2205.57 832.904 2206.04 832.52C2206.52 832.12 2206.76 831.56 2206.76 830.84V830.816C2206.76 830.112 2206.52 829.56 2206.04 829.16C2205.57 828.76 2204.92 828.56 2204.07 828.56H2202.32V833.096ZM2251.66 829.785H2255.11V823.64L2251.66 829.785ZM1566.26 829.424H1569.33L1567.82 823.424L1566.26 829.424ZM1788.26 829.424H1791.33L1789.82 823.424L1788.26 829.424ZM1969.26 829.424H1972.33L1970.82 823.424L1969.26 829.424ZM2189.26 829.424H2192.33L2190.82 823.424L2189.26 829.424ZM1579.32 825.824H1580.73C1581.52 825.824 1582.14 825.632 1582.61 825.248C1583.07 824.864 1583.3 824.32 1583.3 823.616V823.568C1583.3 822.864 1583.09 822.336 1582.65 821.984C1582.24 821.616 1581.64 821.432 1580.86 821.432H1579.32V825.824ZM1801.32 825.824H1802.73C1803.52 825.824 1804.14 825.632 1804.61 825.248C1805.07 824.864 1805.3 824.32 1805.3 823.616V823.568C1805.3 822.864 1805.09 822.336 1804.65 821.984C1804.24 821.616 1803.64 821.432 1802.86 821.432H1801.32V825.824ZM1982.32 825.824H1983.73C1984.52 825.824 1985.14 825.632 1985.61 825.248C1986.07 824.864 1986.3 824.32 1986.3 823.616V823.568C1986.3 822.864 1986.09 822.336 1985.65 821.984C1985.24 821.616 1984.64 821.432 1983.86 821.432H1982.32V825.824ZM2202.32 825.824H2203.73C2204.52 825.824 2205.14 825.632 2205.61 825.248C2206.07 824.864 2206.3 824.32 2206.3 823.616V823.568C2206.3 822.864 2206.09 822.336 2205.65 821.984C2205.24 821.616 2204.64 821.432 2203.86 821.432H2202.32V825.824ZM1306.77 691.264C1308.56 691.264 1309.95 692.009 1310.94 693.496C1311.93 694.984 1312.43 697.137 1312.43 699.952V700.552C1312.43 703.384 1311.93 705.544 1310.92 707.032C1309.93 708.52 1308.53 709.264 1306.74 709.264C1304.93 709.264 1303.53 708.52 1302.54 707.032C1301.55 705.544 1301.05 703.392 1301.05 700.576V699.976C1301.05 697.144 1301.55 694.984 1302.54 693.496C1303.55 692.008 1304.96 691.264 1306.77 691.264ZM1259.37 709H1256.08L1255.1 705.28H1250.49L1249.53 709H1246.36L1251.23 691.456H1254.47L1259.37 709ZM1265.78 691.528C1267.8 691.528 1269.3 692.024 1270.29 693.016C1271.06 693.784 1271.45 694.776 1271.45 695.992V696.088C1271.45 697.848 1270.62 699.144 1268.98 699.976C1269.92 700.36 1270.65 700.872 1271.16 701.512C1271.69 702.136 1271.95 702.976 1271.95 704.032V704.2C1271.95 705.72 1271.4 706.904 1270.29 707.752C1269.21 708.584 1267.75 709 1265.93 709H1261.15V691.528H1265.78ZM1283.43 691.264C1284.85 691.264 1286.01 691.688 1286.9 692.536C1287.82 693.368 1288.27 694.52 1288.27 695.992V696.04C1288.27 697 1288.08 697.88 1287.7 698.68C1287.33 699.464 1286.62 700.552 1285.56 701.944L1282.49 705.976H1288.15V709H1278.63V706.336L1283.07 700.36C1283.82 699.336 1284.33 698.536 1284.6 697.96C1284.89 697.384 1285.03 696.824 1285.03 696.28C1285.03 695.688 1284.85 695.216 1284.48 694.864C1284.11 694.512 1283.66 694.336 1283.11 694.336C1282.23 694.336 1281.3 694.936 1280.33 696.136L1278.46 693.904C1279.8 692.144 1281.46 691.264 1283.43 691.264ZM1299.49 693.904L1294.12 709H1290.73L1296.18 694.624H1290.04V691.528H1299.49V693.904ZM1319.51 709H1316.29V694.816L1314.03 695.488L1313.75 692.512L1317.25 691.408H1319.51V709ZM1306.74 694.24C1305.13 694.24 1304.32 696.176 1304.32 700.048V700.456C1304.32 704.344 1305.13 706.288 1306.77 706.288C1308.38 706.288 1309.19 704.351 1309.19 700.48V700.072C1309.19 698.056 1308.97 696.584 1308.52 695.656C1308.07 694.712 1307.48 694.24 1306.74 694.24ZM1264.32 706.096H1266.12C1266.93 706.096 1267.57 705.904 1268.04 705.52C1268.52 705.12 1268.76 704.56 1268.76 703.84V703.816C1268.76 703.112 1268.52 702.56 1268.04 702.16C1267.57 701.76 1266.92 701.56 1266.07 701.56H1264.32V706.096ZM1251.26 702.424H1254.33L1252.82 696.424L1251.26 702.424ZM1264.32 698.824H1265.73C1266.52 698.824 1267.14 698.632 1267.61 698.248C1268.07 697.864 1268.3 697.32 1268.3 696.616V696.568C1268.3 695.864 1268.09 695.336 1267.65 694.984C1267.24 694.616 1266.64 694.432 1265.86 694.432H1264.32V698.824ZM954.766 375.264C956.558 375.264 957.95 376.009 958.942 377.496C959.934 378.984 960.429 381.137 960.429 383.952V384.552C960.429 387.384 959.925 389.544 958.918 391.032C957.926 392.52 956.534 393.264 954.742 393.264C952.934 393.264 951.534 392.52 950.542 391.032C949.55 389.544 949.053 387.392 949.053 384.576V383.976C949.053 381.144 949.55 378.984 950.542 377.496C951.55 376.008 952.958 375.264 954.766 375.264ZM907.368 393H904.08L903.096 389.28H898.488L897.528 393H894.36L899.232 375.456H902.472L907.368 393ZM913.783 375.528C915.799 375.528 917.303 376.024 918.295 377.016C919.062 377.784 919.447 378.776 919.447 379.992V380.088C919.447 381.848 918.623 383.144 916.975 383.976C917.919 384.36 918.647 384.872 919.159 385.512C919.687 386.136 919.951 386.976 919.951 388.032V388.2C919.951 389.72 919.399 390.904 918.295 391.752C917.207 392.584 915.751 393 913.927 393H909.151V375.528H913.783ZM931.425 375.264C932.849 375.264 934.009 375.688 934.905 376.536C935.817 377.368 936.273 378.52 936.273 379.992V380.04C936.273 381 936.081 381.88 935.697 382.68C935.329 383.464 934.617 384.552 933.561 385.944L930.489 389.976H936.153V393H926.626V390.336L931.065 384.36C931.817 383.336 932.329 382.536 932.601 381.96C932.889 381.384 933.033 380.824 933.033 380.28C933.033 379.688 932.849 379.216 932.481 378.864C932.113 378.512 931.657 378.336 931.113 378.336C930.233 378.336 929.305 378.936 928.329 380.136L926.458 377.904C927.802 376.144 929.458 375.264 931.425 375.264ZM947.494 377.904L942.118 393H938.734L944.181 378.624H938.038V375.528H947.494V377.904ZM966.98 375.264C968.404 375.264 969.564 375.688 970.46 376.536C971.371 377.368 971.828 378.52 971.828 379.992V380.04C971.828 381 971.636 381.88 971.252 382.68C970.884 383.464 970.172 384.552 969.116 385.944L966.044 389.976H971.708V393H962.18V390.336L966.62 384.36C967.372 383.336 967.884 382.536 968.156 381.96C968.444 381.384 968.588 380.824 968.588 380.28C968.587 379.688 968.404 379.216 968.036 378.864C967.668 378.512 967.211 378.336 966.668 378.336C965.788 378.336 964.859 378.936 963.883 380.136L962.012 377.904C963.356 376.144 965.012 375.264 966.98 375.264ZM954.742 378.24C953.126 378.24 952.318 380.176 952.318 384.048V384.456C952.318 388.344 953.134 390.288 954.766 390.288C956.382 390.288 957.19 388.351 957.19 384.48V384.072C957.19 382.056 956.966 380.584 956.518 379.656C956.07 378.712 955.478 378.24 954.742 378.24ZM912.319 390.096H914.119C914.935 390.096 915.575 389.904 916.039 389.52C916.519 389.12 916.759 388.56 916.759 387.84V387.816C916.759 387.112 916.519 386.56 916.039 386.16C915.575 385.76 914.919 385.56 914.071 385.56H912.319V390.096ZM899.256 386.424H902.328L900.816 380.424L899.256 386.424ZM912.319 382.824H913.735C914.519 382.824 915.143 382.632 915.607 382.248C916.071 381.864 916.303 381.32 916.303 380.616V380.568C916.303 379.864 916.087 379.336 915.655 378.984C915.239 378.616 914.639 378.432 913.855 378.432H912.319V382.824ZM1577.77 135.264C1579.56 135.264 1580.95 136.009 1581.94 137.496C1582.93 138.984 1583.43 141.137 1583.43 143.952V144.552C1583.43 147.384 1582.93 149.544 1581.92 151.032C1580.93 152.52 1579.53 153.264 1577.74 153.264C1575.93 153.264 1574.53 152.52 1573.54 151.032C1572.55 149.544 1572.05 147.392 1572.05 144.576V143.976C1572.05 141.144 1572.55 138.984 1573.54 137.496C1574.55 136.008 1575.96 135.264 1577.77 135.264ZM1591.53 135.264C1592.86 135.264 1594.09 135.68 1595.23 136.512L1593.84 139.176C1593.13 138.552 1592.36 138.24 1591.51 138.24C1590.65 138.24 1589.96 138.624 1589.45 139.392C1588.95 140.16 1588.67 141.28 1588.61 142.752C1589.42 142.08 1590.38 141.745 1591.49 141.744C1592.72 141.744 1593.77 142.208 1594.63 143.136C1595.51 144.064 1595.95 145.416 1595.95 147.192V147.264C1595.95 149.024 1595.45 150.464 1594.44 151.584C1593.45 152.704 1592.21 153.264 1590.74 153.264C1589.33 153.264 1588.2 152.816 1587.33 151.92C1586.02 150.608 1585.37 148.312 1585.37 145.032V144.792C1585.37 141.592 1585.9 139.208 1586.97 137.64C1588.06 136.056 1589.58 135.264 1591.53 135.264ZM1530.37 153H1527.08L1526.1 149.28H1521.49L1520.53 153H1517.36L1522.23 135.456H1525.47L1530.37 153ZM1536.78 135.528C1538.8 135.528 1540.3 136.024 1541.29 137.016C1542.06 137.784 1542.45 138.777 1542.45 139.993V140.088C1542.45 141.848 1541.62 143.144 1539.98 143.976C1540.92 144.36 1541.65 144.872 1542.16 145.512C1542.69 146.136 1542.95 146.976 1542.95 148.032V148.2C1542.95 149.72 1542.4 150.904 1541.29 151.752C1540.21 152.584 1538.75 153 1536.93 153H1532.15V135.528H1536.78ZM1554.43 135.264C1555.85 135.264 1557.01 135.688 1557.9 136.536C1558.82 137.368 1559.27 138.521 1559.27 139.993V140.04C1559.27 141 1559.08 141.88 1558.7 142.68C1558.33 143.464 1557.62 144.552 1556.56 145.944L1553.49 149.976H1559.15V153H1549.63V150.336L1554.07 144.36C1554.82 143.336 1555.33 142.536 1555.6 141.96C1555.89 141.384 1556.03 140.824 1556.03 140.28C1556.03 139.688 1555.85 139.216 1555.48 138.864C1555.11 138.512 1554.66 138.336 1554.11 138.336C1553.23 138.336 1552.3 138.936 1551.33 140.136L1549.46 137.904C1550.8 136.144 1552.46 135.264 1554.43 135.264ZM1570.49 137.904L1565.12 153H1561.73L1567.18 138.624H1561.04V135.528H1570.49V137.904ZM1590.72 144.48C1590.06 144.48 1589.54 144.744 1589.16 145.272C1588.79 145.784 1588.61 146.496 1588.61 147.408V147.432C1588.61 148.344 1588.79 149.064 1589.16 149.592C1589.53 150.12 1590.05 150.384 1590.72 150.384C1591.39 150.384 1591.91 150.12 1592.28 149.592C1592.65 149.064 1592.83 148.344 1592.83 147.432V147.408C1592.83 146.496 1592.64 145.784 1592.25 145.272C1591.89 144.744 1591.37 144.48 1590.72 144.48ZM1577.74 138.24C1576.13 138.24 1575.32 140.176 1575.32 144.048V144.456C1575.32 148.344 1576.13 150.288 1577.77 150.288C1579.38 150.288 1580.19 148.351 1580.19 144.48V144.072C1580.19 142.056 1579.97 140.584 1579.52 139.656C1579.07 138.712 1578.48 138.24 1577.74 138.24ZM1535.32 150.096H1537.12C1537.93 150.096 1538.57 149.904 1539.04 149.52C1539.52 149.12 1539.76 148.56 1539.76 147.84V147.816C1539.76 147.112 1539.52 146.56 1539.04 146.16C1538.57 145.76 1537.92 145.56 1537.07 145.56H1535.32V150.096ZM1522.26 146.424H1525.33L1523.82 140.424L1522.26 146.424ZM1535.32 142.824H1536.73C1537.52 142.824 1538.14 142.632 1538.61 142.248C1539.07 141.864 1539.3 141.32 1539.3 140.616V140.568C1539.3 139.864 1539.09 139.336 1538.65 138.984C1538.24 138.616 1537.64 138.432 1536.86 138.432H1535.32V142.824ZM1266.77 90.264C1268.56 90.2641 1269.95 91.0085 1270.94 92.4964C1271.93 93.9844 1272.43 96.1367 1272.43 98.9525V99.5521C1272.43 102.384 1271.93 104.544 1270.92 106.032C1269.93 107.52 1268.53 108.264 1266.74 108.264C1264.93 108.264 1263.53 107.52 1262.54 106.032C1261.55 104.544 1261.05 102.392 1261.05 99.5765V98.9759C1261.05 96.1442 1261.55 93.9844 1262.54 92.4964C1263.55 91.0084 1264.96 90.264 1266.77 90.264ZM1440.77 90.264C1442.56 90.2641 1443.95 91.0085 1444.94 92.4964C1445.93 93.9844 1446.43 96.1367 1446.43 98.9525V99.5521C1446.43 102.384 1445.93 104.544 1444.92 106.032C1443.93 107.52 1442.53 108.264 1440.74 108.264C1438.93 108.264 1437.53 107.52 1436.54 106.032C1435.55 104.544 1435.05 102.391 1435.05 99.5755V98.9759C1435.05 96.1442 1435.55 93.9844 1436.54 92.4964C1437.55 91.0084 1438.96 90.264 1440.77 90.264ZM1457.32 93.5277H1451.75L1451.53 97.0316C1452.08 96.8876 1452.61 96.8158 1453.14 96.8158C1454.52 96.8158 1455.67 97.2719 1456.6 98.1839C1457.54 99.0799 1458.01 100.44 1458.01 102.264V102.336C1458.01 104.16 1457.49 105.608 1456.45 106.68C1455.41 107.736 1454.09 108.264 1452.47 108.264C1450.77 108.264 1449.29 107.688 1448.01 106.536L1449.61 104.016C1450.53 104.832 1451.45 105.24 1452.37 105.24C1453.11 105.239 1453.7 104.992 1454.15 104.496C1454.6 103.984 1454.82 103.296 1454.82 102.432V102.408C1454.82 101.576 1454.58 100.928 1454.1 100.464C1453.62 99.9842 1453.01 99.7445 1452.25 99.7445C1451.66 99.7445 1451.05 99.8955 1450.41 100.2L1448.68 99.0716L1449.16 90.5277H1457.32V93.5277ZM1219.37 108H1216.08L1215.1 104.28H1210.49L1209.53 108H1206.36L1211.23 90.4564H1214.47L1219.37 108ZM1225.78 90.5277C1227.8 90.5277 1229.3 91.0241 1230.29 92.0159C1231.06 92.7838 1231.45 93.7758 1231.45 94.9915V95.0882C1231.45 96.848 1230.62 98.1439 1228.98 98.9759C1229.92 99.3599 1230.65 99.8721 1231.16 100.512C1231.69 101.136 1231.95 101.976 1231.95 103.032V103.2C1231.95 104.72 1231.4 105.904 1230.29 106.752C1229.21 107.584 1227.75 108 1225.93 108H1221.15V90.5277H1225.78ZM1243.43 90.264C1244.85 90.264 1246.01 90.6885 1246.9 91.5365C1247.82 92.3684 1248.27 93.5198 1248.27 94.9915V95.0404C1248.27 96.0002 1248.08 96.8801 1247.7 97.68C1247.33 98.464 1246.62 99.5518 1245.56 100.944L1242.49 104.976H1248.15V108H1238.63V105.336L1243.07 99.3597C1243.82 98.3359 1244.33 97.5362 1244.6 96.9603C1244.89 96.3843 1245.03 95.8236 1245.03 95.2796C1245.03 94.6878 1244.85 94.2155 1244.48 93.8636C1244.11 93.5118 1243.66 93.3363 1243.11 93.3363C1242.23 93.3364 1241.3 93.9362 1240.33 95.1361L1238.46 92.9036C1239.8 91.1439 1241.46 90.264 1243.43 90.264ZM1259.49 92.9036L1254.12 108H1250.73L1256.18 93.6243H1250.04V90.5277H1259.49V92.9036ZM1283.65 101.785H1285.5V104.544H1283.65V108H1280.65V104.544H1274.25L1273.98 102.168L1280.68 90.4564H1283.65V101.785ZM1393.37 108H1390.08L1389.1 104.28H1384.49L1383.53 108H1380.36L1385.23 90.4564H1388.47L1393.37 108ZM1399.78 90.5277C1401.8 90.5277 1403.3 91.0241 1404.29 92.0159C1405.06 92.7838 1405.45 93.7757 1405.45 94.9915V95.0882C1405.45 96.848 1404.62 98.1439 1402.98 98.9759C1403.92 99.3599 1404.65 99.8721 1405.16 100.512C1405.69 101.136 1405.95 101.976 1405.95 103.032V103.2C1405.95 104.72 1405.4 105.904 1404.29 106.752C1403.21 107.584 1401.75 108 1399.93 108H1395.15V90.5277H1399.78ZM1417.43 90.264C1418.85 90.264 1420.01 90.6885 1420.9 91.5365C1421.82 92.3684 1422.27 93.5198 1422.27 94.9915V95.0404C1422.27 96.0002 1422.08 96.8801 1421.7 97.68C1421.33 98.464 1420.62 99.5518 1419.56 100.944L1416.49 104.976H1422.15V108H1412.63V105.336L1417.07 99.3597C1417.82 98.3359 1418.33 97.5362 1418.6 96.9603C1418.89 96.3843 1419.03 95.8236 1419.03 95.2796C1419.03 94.6878 1418.85 94.2155 1418.48 93.8636C1418.11 93.5118 1417.66 93.3363 1417.11 93.3363C1416.23 93.3364 1415.3 93.9362 1414.33 95.1361L1412.46 92.9036C1413.8 91.1439 1415.46 90.264 1417.43 90.264ZM1433.49 92.9036L1428.12 108H1424.73L1430.18 93.6243H1424.04V90.5277H1433.49V92.9036ZM1266.74 93.2396C1265.13 93.2396 1264.32 95.1762 1264.32 99.0482V99.4564C1264.32 103.344 1265.13 105.288 1266.77 105.288C1268.38 105.288 1269.19 103.351 1269.19 99.4798V99.0716C1269.19 97.0558 1268.97 95.5835 1268.52 94.6556C1268.07 93.7117 1267.48 93.2396 1266.74 93.2396ZM1440.74 93.2396C1439.13 93.2396 1438.32 95.1762 1438.32 99.0482V99.4564C1438.32 103.344 1439.13 105.288 1440.77 105.288C1442.38 105.288 1443.19 103.351 1443.19 99.4798V99.0716C1443.19 97.0558 1442.97 95.5835 1442.52 94.6556C1442.07 93.7117 1441.48 93.2396 1440.74 93.2396ZM1224.32 105.096H1226.12C1226.93 105.096 1227.57 104.904 1228.04 104.52C1228.52 104.12 1228.76 103.56 1228.76 102.84V102.816C1228.76 102.112 1228.52 101.56 1228.04 101.16C1227.57 100.76 1226.92 100.56 1226.07 100.56H1224.32V105.096ZM1398.32 105.096H1400.12C1400.93 105.096 1401.57 104.904 1402.04 104.52C1402.52 104.12 1402.76 103.56 1402.76 102.84V102.816C1402.76 102.112 1402.52 101.56 1402.04 101.16C1401.57 100.76 1400.92 100.56 1400.07 100.56H1398.32V105.096ZM1277.2 101.785H1280.65V95.64L1277.2 101.785ZM1211.26 101.424H1214.33L1212.82 95.4241L1211.26 101.424ZM1385.26 101.424H1388.33L1386.82 95.4241L1385.26 101.424ZM1224.32 97.8236H1225.73C1226.52 97.8236 1227.14 97.6323 1227.61 97.2484C1228.07 96.8644 1228.3 96.3196 1228.3 95.6156V95.5677C1228.3 94.8639 1228.09 94.3357 1227.65 93.9837C1227.24 93.6158 1226.64 93.432 1225.86 93.432H1224.32V97.8236ZM1398.32 97.8236H1399.73C1400.52 97.8236 1401.14 97.6323 1401.61 97.2484C1402.07 96.8644 1402.3 96.3196 1402.3 95.6156V95.5677C1402.3 94.8638 1402.09 94.3357 1401.65 93.9837C1401.24 93.6158 1400.64 93.432 1399.86 93.432H1398.32V97.8236Z" fill="#D9D9D9"/>
<g id="Entrances">
<circle id="1" cx="863" cy="287" r="10" fill="#9CBBFF"/>
<circle id="2" cx="1245" cy="195" r="10" fill="#9CBBFF"/>
<circle id="28" cx="1422" cy="195" r="10" fill="#9CBBFF"/>
<circle id="3" cx="70" cy="152" r="10" fill="#9CBBFF"/>
<circle id="4" cx="1465" cy="240" r="10" fill="#9CBBFF"/>
<circle id="5" cx="1495" cy="386" r="10" fill="#9CBBFF"/>
<circle id="!26" cx="1420" cy="485" r="10" fill="#9CBBFF"/>
<circle id="27" cx="1319" cy="485" r="10" fill="#9CBBFF"/>
<circle id="6" cx="1528" cy="386" r="10" fill="#9CBBFF"/>
<circle id="7" cx="1100" cy="805" r="10" fill="#9CBBFF"/>
<circle id="29" cx="1166" cy="805" r="10" fill="#9CBBFF"/>
<circle id="30" cx="1034" cy="805" r="10" fill="#9CBBFF"/>
<circle id="8" cx="1100" cy="1050" r="10" fill="#9CBBFF"/>
<circle id="9" cx="1280" cy="1005" r="10" fill="#9CBBFF"/>
<circle id="10" cx="1390" cy="1005" r="10" fill="#9CBBFF"/>
<circle id="11" cx="1690" cy="1005" r="10" fill="#9CBBFF"/>
<circle id="12" cx="1690" cy="915" r="10" fill="#9CBBFF"/>
<circle id="13" cx="1785" cy="1005" r="10" fill="#9CBBFF"/>
<circle id="14" cx="1780" cy="915" r="10" fill="#9CBBFF"/>
<circle id="15" cx="1976" cy="1005" r="10" fill="#9CBBFF"/>
<circle id="16" cx="2045" cy="915" r="10" fill="#9CBBFF"/>
<circle id="17" cx="2101" cy="1005" r="10" fill="#9CBBFF"/>
<circle id="18" cx="2192" cy="1005" r="10" fill="#9CBBFF"/>
<circle id="19" cx="2280" cy="915" r="10" fill="#9CBBFF"/>
<circle id="20" cx="2445" cy="1115" r="10" fill="#9CBBFF"/>
<circle id="31" cx="2502" cy="1115" r="10" fill="#9CBBFF"/>
<circle id="32" cx="2388" cy="1115" r="10" fill="#9CBBFF"/>
<circle id="21" cx="2445" cy="880" r="10" fill="#9CBBFF"/>
<circle id="22" cx="2660" cy="915" r="10" fill="#9CBBFF"/>
<circle id="25" cx="2715" cy="958" r="10" fill="#9CBBFF"/>
<circle id="23" cx="2680" cy="1005" r="10" fill="#9CBBFF"/>
<circle id="24" cx="2530" cy="1040" r="10" fill="#9CBBFF"/>
</g>
<g id="Icons">
<g id="Stair">
<g id="Stair frame">
<path id="Vector 152" d="M105 78H80V93H65V108H50V123H25" stroke="#9CD9BC" stroke-width="5" stroke-linecap="round" stroke-linejoin="round"/>
<path id="Vector 154" d="M37 78H52M52 78L49 92M52 78L25 99" stroke="#9CD9BC" stroke-width="3" stroke-linecap="round" stroke-linejoin="round"/>
<path id="Vector 155" d="M93 123H78M78 123L81 109M78 123L105 102" stroke="#9CD9BC" stroke-width="3" stroke-linecap="round" stroke-linejoin="round"/>
</g>
</g>
<g id="Stair_2">
<g id="Stair frame_2">
<path id="Vector 152_2" d="M1140 1080H1115V1095H1100V1110H1085V1125H1060" stroke="#9CD9BC" stroke-width="5" stroke-linecap="round" stroke-linejoin="round"/>
<path id="Vector 154_2" d="M1072 1080H1087M1087 1080L1084 1094M1087 1080L1060 1101" stroke="#9CD9BC" stroke-width="3" stroke-linecap="round" stroke-linejoin="round"/>
<path id="Vector 155_2" d="M1128 1125H1113M1113 1125L1116 1111M1113 1125L1140 1104" stroke="#9CD9BC" stroke-width="3" stroke-linecap="round" stroke-linejoin="round"/>
</g>
</g>
<g id="Men">
<g id="Group 6">
<path id="Vector 200" d="M2585.5 1148.5L2594 1127H2566L2574.5 1148.5" stroke="#9CBBFF" stroke-width="5" stroke-linecap="round" stroke-linejoin="round"/>
<circle id="Ellipse 9" cx="2580" cy="1109" r="8" stroke="#9CBBFF" stroke-width="5" stroke-linecap="round" stroke-linejoin="round"/>
</g>
</g>
<g id="Woman">
<g id="Group 5">
<path id="Vector 200_2" d="M2680.5 1127L2689 1148.5H2661L2669.5 1127" stroke="#F783CB" stroke-width="5" stroke-linecap="round" stroke-linejoin="round"/>
<circle id="Ellipse 9_2" cx="2675" cy="1109" r="8" stroke="#F783CB" stroke-width="5" stroke-linecap="round" stroke-linejoin="round"/>
</g>
</g>
<g id="Elevator">
<g id="Vector">
<path d="M1045.83 770.5L1040.83 765.5L1035.83 770.5H1045.83Z" fill="#A091F8"/>
<path d="M1045.83 773.833L1040.83 778.833L1035.83 773.833H1045.83Z" fill="#A091F8"/>
<path d="M1030.83 770.5C1030.83 768 1029.17 765.5 1026.67 765.5H1023.33C1020.83 765.5 1019.17 768 1019.17 770.5V774.667C1019.17 776.333 1020.42 777.583 1021.67 777.583V785.5C1021.67 786.833 1022.78 787.167 1023.33 787.167H1026.67C1027.22 787.167 1028.33 786.833 1028.33 785.5V777.583C1029.58 777.583 1030.83 776.333 1030.83 774.667V770.5Z" fill="#A091F8"/>
<path d="M1028.33 759.667C1028.33 761.508 1026.84 763 1025 763C1023.16 763 1021.67 761.508 1021.67 759.667C1021.67 757.826 1023.16 756.333 1025 756.333C1026.84 756.333 1028.33 757.826 1028.33 759.667Z" fill="#A091F8"/>
</g>
<path id="Vector 201" d="M1022.08 795.917H1012.08V750.083H1052.92V795.917H1042.92" stroke="#A091F8" stroke-width="5" stroke-linecap="round" stroke-linejoin="round"/>
</g>
<g id="Elevator_2">
<g id="Vector_2">
<path d="M1112.83 770.5L1107.83 765.5L1102.83 770.5H1112.83Z" fill="#A091F8"/>
<path d="M1112.83 773.833L1107.83 778.833L1102.83 773.833H1112.83Z" fill="#A091F8"/>
<path d="M1097.83 770.5C1097.83 768 1096.17 765.5 1093.67 765.5H1090.33C1087.83 765.5 1086.17 768 1086.17 770.5V774.667C1086.17 776.333 1087.42 777.583 1088.67 777.583V785.5C1088.67 786.833 1089.78 787.167 1090.33 787.167H1093.67C1094.22 787.167 1095.33 786.833 1095.33 785.5V777.583C1096.58 777.583 1097.83 776.333 1097.83 774.667V770.5Z" fill="#A091F8"/>
<path d="M1095.33 759.667C1095.33 761.508 1093.84 763 1092 763C1090.16 763 1088.67 761.508 1088.67 759.667C1088.67 757.826 1090.16 756.333 1092 756.333C1093.84 756.333 1095.33 757.826 1095.33 759.667Z" fill="#A091F8"/>
</g>
<path id="Vector 201_2" d="M1089.08 795.917H1079.08V750.083H1119.92V795.917H1109.92" stroke="#A091F8" stroke-width="5" stroke-linecap="round" stroke-linejoin="round"/>
</g>
<g id="Elevator_3">
<g id="Vector_3">
<path d="M1180.83 770.5L1175.83 765.5L1170.83 770.5H1180.83Z" fill="#A091F8"/>
<path d="M1180.83 773.833L1175.83 778.833L1170.83 773.833H1180.83Z" fill="#A091F8"/>
<path d="M1165.83 770.5C1165.83 768 1164.17 765.5 1161.67 765.5H1158.33C1155.83 765.5 1154.17 768 1154.17 770.5V774.667C1154.17 776.333 1155.42 777.583 1156.67 777.583V785.5C1156.67 786.833 1157.78 787.167 1158.33 787.167H1161.67C1162.22 787.167 1163.33 786.833 1163.33 785.5V777.583C1164.58 777.583 1165.83 776.333 1165.83 774.667V770.5Z" fill="#A091F8"/>
<path d="M1163.33 759.667C1163.33 761.508 1161.84 763 1160 763C1158.16 763 1156.67 761.508 1156.67 759.667C1156.67 757.826 1158.16 756.333 1160 756.333C1161.84 756.333 1163.33 757.826 1163.33 759.667Z" fill="#A091F8"/>
</g>
<path id="Vector 201_3" d="M1157.08 795.917H1147.08V750.083H1187.92V795.917H1177.92" stroke="#A091F8" stroke-width="5" stroke-linecap="round" stroke-linejoin="round"/>
</g>
<g id="Stair_3">
<g id="Stair frame_3">
<path id="Vector 152_3" d="M2487 807H2462V822H2447V837H2432V852H2407" stroke="#9CD9BC" stroke-width="5" stroke-linecap="round" stroke-linejoin="round"/>
<path id="Vector 154_3" d="M2419 807H2434M2434 807L2431 821M2434 807L2407 828" stroke="#9CD9BC" stroke-width="3" stroke-linecap="round" stroke-linejoin="round"/>
<path id="Vector 155_3" d="M2475 852H2460M2460 852L2463 838M2460 852L2487 831" stroke="#9CD9BC" stroke-width="3" stroke-linecap="round" stroke-linejoin="round"/>
</g>
</g>
<g id="Elevator_4">
<g id="Vector_4">
<path d="M2401.83 1146.5L2396.83 1141.5L2391.83 1146.5H2401.83Z" fill="#A091F8"/>
<path d="M2401.83 1149.83L2396.83 1154.83L2391.83 1149.83H2401.83Z" fill="#A091F8"/>
<path d="M2386.83 1146.5C2386.83 1144 2385.17 1141.5 2382.67 1141.5H2379.33C2376.83 1141.5 2375.17 1144 2375.17 1146.5V1150.67C2375.17 1152.33 2376.42 1153.58 2377.67 1153.58V1161.5C2377.67 1162.83 2378.78 1163.17 2379.33 1163.17H2382.67C2383.22 1163.17 2384.33 1162.83 2384.33 1161.5V1153.58C2385.58 1153.58 2386.83 1152.33 2386.83 1150.67V1146.5Z" fill="#A091F8"/>
<path d="M2384.33 1135.67C2384.33 1137.51 2382.84 1139 2381 1139C2379.16 1139 2377.67 1137.51 2377.67 1135.67C2377.67 1133.83 2379.16 1132.33 2381 1132.33C2382.84 1132.33 2384.33 1133.83 2384.33 1135.67Z" fill="#A091F8"/>
</g>
<path id="Vector 201_4" d="M2378.08 1171.92H2368.08V1126.08H2408.92V1171.92H2398.92" stroke="#A091F8" stroke-width="5" stroke-linecap="round" stroke-linejoin="round"/>
</g>
<g id="Elevator_5">
<g id="Vector_5">
<path d="M2458.83 1147.5L2453.83 1142.5L2448.83 1147.5H2458.83Z" fill="#A091F8"/>
<path d="M2458.83 1150.83L2453.83 1155.83L2448.83 1150.83H2458.83Z" fill="#A091F8"/>
<path d="M2443.83 1147.5C2443.83 1145 2442.17 1142.5 2439.67 1142.5H2436.33C2433.83 1142.5 2432.17 1145 2432.17 1147.5V1151.67C2432.17 1153.33 2433.42 1154.58 2434.67 1154.58V1162.5C2434.67 1163.83 2435.78 1164.17 2436.33 1164.17H2439.67C2440.22 1164.17 2441.33 1163.83 2441.33 1162.5V1154.58C2442.58 1154.58 2443.83 1153.33 2443.83 1151.67V1147.5Z" fill="#A091F8"/>
<path d="M2441.33 1136.67C2441.33 1138.51 2439.84 1140 2438 1140C2436.16 1140 2434.67 1138.51 2434.67 1136.67C2434.67 1134.83 2436.16 1133.33 2438 1133.33C2439.84 1133.33 2441.33 1134.83 2441.33 1136.67Z" fill="#A091F8"/>
</g>
<path id="Vector 201_5" d="M2435.08 1172.92H2425.08V1127.08H2465.92V1172.92H2455.92" stroke="#A091F8" stroke-width="5" stroke-linecap="round" stroke-linejoin="round"/>
</g>
<g id="Elevator_6">
<g id="Vector_6">
<path d="M2514.83 1146.5L2509.83 1141.5L2504.83 1146.5H2514.83Z" fill="#A091F8"/>
<path d="M2514.83 1149.83L2509.83 1154.83L2504.83 1149.83H2514.83Z" fill="#A091F8"/>
<path d="M2499.83 1146.5C2499.83 1144 2498.17 1141.5 2495.67 1141.5H2492.33C2489.83 1141.5 2488.17 1144 2488.17 1146.5V1150.67C2488.17 1152.33 2489.42 1153.58 2490.67 1153.58V1161.5C2490.67 1162.83 2491.78 1163.17 2492.33 1163.17H2495.67C2496.22 1163.17 2497.33 1162.83 2497.33 1161.5V1153.58C2498.58 1153.58 2499.83 1152.33 2499.83 1150.67V1146.5Z" fill="#A091F8"/>
<path d="M2497.33 1135.67C2497.33 1137.51 2495.84 1139 2494 1139C2492.16 1139 2490.67 1137.51 2490.67 1135.67C2490.67 1133.83 2492.16 1132.33 2494 1132.33C2495.84 1132.33 2497.33 1133.83 2497.33 1135.67Z" fill="#A091F8"/>
</g>
<path id="Vector 201_6" d="M2491.08 1171.92H2481.08V1126.08H2521.92V1171.92H2511.92" stroke="#A091F8" stroke-width="5" stroke-linecap="round" stroke-linejoin="round"/>
</g>
<g id="Stair_4">
<g id="Stair frame_4">
<path id="Vector 152_4" d="M1588.76 302.224H1573.29V311.408H1564V320.592H1554.71V329.776H1539.24" stroke="#9CD9BC" stroke-width="5" stroke-linecap="round" stroke-linejoin="round"/>
<path id="Vector 154_4" d="M1546.67 302.224H1555.95M1555.95 302.224L1554.1 310.796M1555.95 302.224L1539.24 315.082" stroke="#9CD9BC" stroke-width="3" stroke-linecap="round" stroke-linejoin="round"/>
<path id="Vector 155_4" d="M1581.33 329.776H1572.05M1572.05 329.776L1573.9 321.204M1572.05 329.776L1588.76 316.918" stroke="#9CD9BC" stroke-width="3" stroke-linecap="round" stroke-linejoin="round"/>
</g>
</g>
<g id="Stair_5">
<g id="Stair frame_5">
<path id="Vector 152_5" d="M1589.76 440.224H1574.29V449.408H1565V458.592H1555.71V467.776H1540.24" stroke="#9CD9BC" stroke-width="5" stroke-linecap="round" stroke-linejoin="round"/>
<path id="Vector 154_5" d="M1547.67 440.224H1556.95M1556.95 440.224L1555.1 448.796M1556.95 440.224L1540.24 453.082" stroke="#9CD9BC" stroke-width="3" stroke-linecap="round" stroke-linejoin="round"/>
<path id="Vector 155_5" d="M1582.33 467.776H1573.05M1573.05 467.776L1574.9 459.204M1573.05 467.776L1589.76 454.918" stroke="#9CD9BC" stroke-width="3" stroke-linecap="round" stroke-linejoin="round"/>
</g>
</g>
<g id="Elevator_7">
<g id="Vector_7">
<path d="M1576.83 380.5L1571.83 375.5L1566.83 380.5H1576.83Z" fill="#A091F8"/>
<path d="M1576.83 383.833L1571.83 388.833L1566.83 383.833H1576.83Z" fill="#A091F8"/>
<path d="M1561.83 380.5C1561.83 378 1560.17 375.5 1557.67 375.5H1554.33C1551.83 375.5 1550.17 378 1550.17 380.5V384.667C1550.17 386.333 1551.42 387.583 1552.67 387.583V395.5C1552.67 396.833 1553.78 397.167 1554.33 397.167H1557.67C1558.22 397.167 1559.33 396.833 1559.33 395.5V387.583C1560.58 387.583 1561.83 386.333 1561.83 384.667V380.5Z" fill="#A091F8"/>
<path d="M1559.33 369.667C1559.33 371.508 1557.84 373 1556 373C1554.16 373 1552.67 371.508 1552.67 369.667C1552.67 367.826 1554.16 366.333 1556 366.333C1557.84 366.333 1559.33 367.826 1559.33 369.667Z" fill="#A091F8"/>
</g>
<path id="Vector 201_7" d="M1553.08 405.917H1543.08V360.083H1583.92V405.917H1573.92" stroke="#A091F8" stroke-width="5" stroke-linecap="round" stroke-linejoin="round"/>
</g>
</g>
</g>
<defs>
<clipPath id="clip0_22_3466">
<rect width="3005" height="1205" fill="white"/>
</clipPath>
</defs>
</svg>
