<svg width="3005" height="1205" viewBox="0 0 3005 1205" fill="none" xmlns="http://www.w3.org/2000/svg">
<g id="AV-1_2-3" clip-path="url(#clip0_22_1156)">
<g id="Spaces">
<rect id="av-2-3-stair-1" opacity="0.2" x="5" y="5" width="120" height="190" fill="#9CD9BC"/>
<rect id="av-2310" x="125" y="5" width="270" height="190" fill="#3B3C41"/>
<rect id="av-2311" x="395" y="5" width="180" height="190" fill="#3B3C41"/>
<rect id="av-2312" x="575" y="5" width="90" height="190" fill="#3B3C41"/>
<rect id="av-2313" x="665" y="5" width="90" height="190" fill="#3B3C41"/>
<rect id="av-2314" x="755" y="5" width="180" height="190" fill="#3B3C41"/>
<rect id="av-2315" x="935" y="5" width="270" height="190" fill="#3B3C41"/>
<rect id="av-2316" x="1205" y="5" width="180" height="190" fill="#3B3C41"/>
<rect id="av-2317" x="1385" y="5" width="265" height="190" fill="#3B3C41"/>
<rect id="av-2318" x="1465" y="195" width="185" height="90" fill="#3B3C41"/>
<path id="av-2-3-stair-2" opacity="0.2" d="M1650 485H1465V285H1650V485ZM1528 343V422H1597V343H1528Z" fill="#9CD9BC"/>
<rect id="av-2-3-lift-1" opacity="0.2" x="1528" y="343" width="69" height="79" fill="#A091F8"/>
<rect id="av-2301" x="1385" y="410" width="80" height="75" fill="#3B3C41"/>
<rect id="av-2302" x="1205" y="285" width="180" height="200" fill="#3B3C41"/>
<rect id="av-2303" x="1115" y="285" width="90" height="200" fill="#3B3C41"/>
<rect id="av-2304" x="935" y="285" width="180" height="200" fill="#3B3C41"/>
<rect id="av-2305" x="755" y="285" width="180" height="200" fill="#3B3C41"/>
<rect id="av-2306" x="665" y="285" width="90" height="200" fill="#3B3C41"/>
<rect id="av-2307" x="575" y="285" width="90" height="200" fill="#3B3C41"/>
<rect id="av-2308" x="305" y="285" width="270" height="200" fill="#3B3C41"/>
<rect id="av-2-3-wcw" opacity="0.2" x="125" y="285" width="95" height="200" fill="#F783CB"/>
<rect id="!av-2-3-auditorium-1" x="5" y="285" width="120" height="200" fill="#3B3C41"/>
<rect id="av-1-3-stair-3" opacity="0.2" x="220" y="285" width="85" height="200" fill="#9CD9BC"/>
<rect id="!av-1-3-auditorium-2" x="150" y="485" width="85" height="50" fill="#3B3C41"/>
<rect id="av-1322" x="5" y="535" width="240" height="180" fill="#3B3C41"/>
<rect id="av-1321" x="5" y="715" width="240" height="180" fill="#3B3C41"/>
<rect id="av-1320" x="5" y="895" width="240" height="90" fill="#3B3C41"/>
<path id="av-1319" d="M5 985H245V1055H295V1175H5V985Z" fill="#3B3C41"/>
<rect id="av-1318A" x="295" y="1055" width="100" height="120" fill="#3B3C41"/>
<rect id="av-1318" x="395" y="1055" width="260" height="120" fill="#3B3C41"/>
<rect id="av-1317" x="655" y="1055" width="245" height="120" fill="#3B3C41"/>
<rect id="av-1-3-stair-5" opacity="0.2" x="1000" y="1005" width="200" height="195" fill="#9CD9BC"/>
<rect id="av-1316" x="1200" y="1005" width="265" height="195" fill="#3B3C41"/>
<rect id="av-1315" x="1465" y="1005" width="265" height="195" fill="#3B3C41"/>
<rect id="av-1314" x="1730" y="1005" width="95" height="195" fill="#3B3C41"/>
<rect id="av-1313" x="1825" y="1005" width="170" height="195" fill="#3B3C41"/>
<rect id="av-1312A" x="1995" y="1005" width="95" height="195" fill="#3B3C41"/>
<rect id="av-1312" x="2090" y="1005" width="85" height="195" fill="#3B3C41"/>
<rect id="av-1311" x="2175" y="1005" width="185" height="195" fill="#3B3C41"/>
<rect id="av-1-3-wcm-1" opacity="0.2" x="2530" y="1005" width="100" height="195" fill="#9CBBFF"/>
<rect id="av-1-3-wcw-2" opacity="0.2" x="2630" y="1005" width="85" height="195" fill="#F783CB"/>
<rect id="av-1309" x="2625" y="740" width="90" height="175" fill="#3B3C41"/>
<rect id="av-1308" x="2535" y="740" width="90" height="175" fill="#3B3C41"/>
<rect id="av-1-3-stair-6" opacity="0.2" x="2355" y="740" width="180" height="175" fill="#9CD9BC"/>
<rect id="av-1307" x="2175" y="740" width="180" height="175" fill="#3B3C41"/>
<rect id="av-1306" x="2090" y="740" width="85" height="175" fill="#3B3C41"/>
<rect id="av-1305" x="1915" y="740" width="175" height="175" fill="#3B3C41"/>
<rect id="av-1304" x="1735" y="740" width="180" height="175" fill="#3B3C41"/>
<rect id="av-1303" x="1640" y="740" width="95" height="175" fill="#3B3C41"/>
<rect id="av-1302" x="1465" y="740" width="175" height="175" fill="#3B3C41"/>
<rect id="av-1301" x="1200" y="740" width="265" height="175" fill="#3B3C41"/>
<rect id="av-1310" x="2715" y="740" width="285" height="460" fill="#3B3C41"/>
<rect id="av-1-3-lift-2" opacity="0.2" x="1000" y="740" width="70" height="65" fill="#A091F8"/>
<rect id="av-1-3-lift-3" opacity="0.2" x="1125" y="740" width="75" height="65" fill="#A091F8"/>
<rect id="av-1-3-lift-4" opacity="0.2" x="1070" y="740" width="55" height="65" fill="#A091F8"/>
<rect id="av-1-3-lift-5" opacity="0.2" x="2360" y="1115" width="60" height="70" fill="#A091F8"/>
<rect id="av-1-3-lift-6" opacity="0.2" x="2470" y="1115" width="60" height="70" fill="#A091F8"/>
<rect id="av-1-3-lift-7" opacity="0.2" x="2420" y="1115" width="50" height="70" fill="#A091F8"/>
</g>
<g id="Walls">
<path id="Subtract" d="M1998 1200H1992V1065H1998V1200ZM1998 1035H1992V1005H1998V1035Z" fill="#A5A5A7"/>
<path id="Subtract_2" d="M1408 1200H1402V1065H1408V1200ZM1408 1035H1402V1005H1408V1035Z" fill="#A5A5A7"/>
<path id="Subtract_3" d="M703 1097H748V1175H742V1103H697V1095H703V1097ZM703 1065H697V1055H703V1065Z" fill="#A5A5A7"/>
<path id="Subtract_4" d="M1028 485H1022V363H980V357H1028V485ZM950 363H935V357H950V363Z" fill="#A5A5A7"/>
<path id="Subtract_5" d="M868.571 353H847.847V485H841.847V347H868.571V353ZM935 353H897.041V347H935V353Z" fill="#A5A5A7"/>
<path id="Subtract_6" d="M1148 142H1160V148H1142V5H1148V142ZM1205 142V148H1190V142H1205Z" fill="#A5A5A7"/>
<path id="Subtract_7" d="M848 132H885V138H842V5H848V132ZM935 132V138H915V132H935Z" fill="#A5A5A7"/>
<path id="Subtract_8" d="M488 122H511V128H482V5H488V122ZM575 122V128H541V122H575Z" fill="#A5A5A7"/>
<path id="Subtract_9" d="M368 485H362V348H355V342H368V485ZM325 348H305V342H325V348Z" fill="#A5A5A7"/>
<path id="Subtract_10" d="M130 338H125V332H130V338ZM220 338H160V332H220V338Z" fill="#A5A5A7"/>
<path id="Subtract_11" d="M2725 1143H2715V1137H2725V1143ZM3000 1143H2755V1137H3000V1143Z" fill="#A5A5A7"/>
<path id="Subtract_12" d="M2542 1093H2530V1087H2542V1093ZM2630 1093H2572V1087H2630V1093Z" fill="#A5A5A7"/>
<path id="Subtract_13" d="M2673 1093H2630V1087H2673V1093ZM2715 1093H2703V1087H2715V1093Z" fill="#A5A5A7"/>
<path id="Subtract_14" d="M396 1175H390V1102H396V1175ZM396 1072H390V1055H396V1072Z" fill="#A5A5A7"/>
<path id="Subtract_15" d="M218 1175H212V1105H218V1175ZM245 1060H218V1075H212V1054H245V1060Z" fill="#A5A5A7"/>
<path id="contur" d="M1650 5H5V485H150V535H5V1175H900V995H1000V1200H2360V1185H2530V1200H3000V740H1000V910H835V990H305V485H1650V5Z" stroke="#D9D9D9" stroke-width="10"/>
<path id="Vector 1" d="M125 5V195" stroke="#D9D9D9" stroke-width="10"/>
<path id="Vector 4" d="M395 5V195" stroke="#D9D9D9" stroke-width="10"/>
<path id="Vector 5" d="M575 5V195" stroke="#D9D9D9" stroke-width="10"/>
<path id="Vector 6" d="M665 5V195" stroke="#D9D9D9" stroke-width="10"/>
<path id="Vector 7" d="M755 5V195" stroke="#D9D9D9" stroke-width="10"/>
<path id="Vector 8" d="M935 5V195" stroke="#D9D9D9" stroke-width="10"/>
<path id="Vector 9" d="M1205 5V195" stroke="#D9D9D9" stroke-width="10"/>
<path id="Vector 10" d="M1385 5V195" stroke="#D9D9D9" stroke-width="10"/>
<path id="Vector 12" d="M265 485H150" stroke="#D9D9D9" stroke-width="10"/>
<path id="Vector 13" d="M1385 285V485" stroke="#D9D9D9" stroke-width="10"/>
<path id="Vector 15" d="M1205 285V485" stroke="#D9D9D9" stroke-width="10"/>
<path id="Vector 16" d="M1115 285V485" stroke="#D9D9D9" stroke-width="10"/>
<path id="Vector 17" d="M935 285V485" stroke="#D9D9D9" stroke-width="10"/>
<path id="Vector 18" d="M755 285V485" stroke="#D9D9D9" stroke-width="10"/>
<path id="Vector 19" d="M665 285V485" stroke="#D9D9D9" stroke-width="10"/>
<path id="Vector 20" d="M575 285V485" stroke="#D9D9D9" stroke-width="10"/>
<path id="Vector 21" d="M305 285V485" stroke="#D9D9D9" stroke-width="10"/>
<path id="Vector 22" d="M220 285V485" stroke="#D9D9D9" stroke-width="10"/>
<path id="Vector 23" d="M125 285V485" stroke="#D9D9D9" stroke-width="10"/>
<path id="Vector 26" d="M150 535H235" stroke="#D9D9D9" stroke-width="10"/>
<path id="Vector 27" d="M5 715H245" stroke="#D9D9D9" stroke-width="10"/>
<path id="Vector 28" d="M5 895H245" stroke="#D9D9D9" stroke-width="10"/>
<path id="Vector 29" d="M5 985H245" stroke="#D9D9D9" stroke-width="10"/>
<path id="Vector 31" d="M295 1055V1175" stroke="#D9D9D9" stroke-width="10"/>
<path id="Vector 33" d="M655 1055V1175" stroke="#D9D9D9" stroke-width="10"/>
<path id="Vector 52" d="M1465 740V915" stroke="#D9D9D9" stroke-width="10"/>
<path id="Vector 53" d="M1640 740V915" stroke="#D9D9D9" stroke-width="10"/>
<path id="Vector 54" d="M1735 740V915" stroke="#D9D9D9" stroke-width="10"/>
<path id="Vector 55" d="M1915 740V915" stroke="#D9D9D9" stroke-width="10"/>
<path id="Vector 57" d="M2175 740V915" stroke="#D9D9D9" stroke-width="10"/>
<path id="Vector 58" d="M2355 740V915" stroke="#D9D9D9" stroke-width="10"/>
<path id="Vector 59" d="M2535 740V915" stroke="#D9D9D9" stroke-width="10"/>
<path id="Vector 60" d="M2625 740V915" stroke="#D9D9D9" stroke-width="10"/>
<path id="Vector 56" d="M2090 740V915" stroke="#D9D9D9" stroke-width="10"/>
<path id="Vector 43" d="M1465 1005V1200" stroke="#D9D9D9" stroke-width="10"/>
<path id="Vector 44" d="M1730 1005V1200" stroke="#D9D9D9" stroke-width="10"/>
<path id="Vector 45" d="M1825 1005V1200" stroke="#D9D9D9" stroke-width="10"/>
<path id="Vector 47" d="M2090 1005V1200" stroke="#D9D9D9" stroke-width="10"/>
<path id="Vector 48" d="M2175 1005V1200" stroke="#D9D9D9" stroke-width="10"/>
<path id="Vector 51" d="M2630 1005V1200" stroke="#D9D9D9" stroke-width="10"/>
<path id="Vector 49" d="M2360 1000V1185" stroke="#D9D9D9" stroke-width="10"/>
<path id="Vector 73" d="M1070 740V805" stroke="#D9D9D9" stroke-width="10"/>
<path id="Vector 74" d="M1130 740V805" stroke="#D9D9D9" stroke-width="10"/>
<path id="Vector 75" d="M2420 1115V1185" stroke="#D9D9D9" stroke-width="10"/>
<path id="Vector 76" d="M2475 1115V1185" stroke="#D9D9D9" stroke-width="10"/>
<path id="Subtract_16" d="M49 290H5V280H49V290ZM158 290H95V280H158V290ZM268 290H204V280H268V290ZM319 290H298V280H319V290ZM585 290H365V280H585V290ZM679 290H631V280H679V290ZM865 290H725V280H865V290ZM949 290H911V280H949V290ZM1122 290H995V280H1122V290ZM1256 290H1168V280H1256V290ZM1390 290H1302V280H1390V290Z" fill="#D9D9D9"/>
<path id="Subtract_17" d="M1395 415H1385V405H1395V415ZM1465 415H1441V405H1465V415Z" fill="#D9D9D9"/>
<path id="Subtract_18" d="M1470 285H1460V263H1470V285ZM1470 217H1460V195H1470V217Z" fill="#D9D9D9"/>
<path id="Subtract_19" d="M1558 195H1552V180H1558V195ZM1558 150H1552V5H1558V150Z" fill="#A5A5A7"/>
<path id="Subtract_20" d="M51 200H5V190H51V200ZM325 200H97V190H325V200ZM419 200H371V190H419V200ZM589 200H465V190H589V200ZM685 200H635V190H685V200ZM865 200H731V190H865V200ZM1125 200H911V190H1125V200ZM1255 200H1171V190H1255V200ZM1395 200H1301V190H1395V200ZM1503 200H1441V190H1503V200ZM1585 200H1533V190H1585V200ZM1650 200H1615V190H1650V200Z" fill="#D9D9D9"/>
<path id="Subtract_21" d="M1600 425H1525V406H1531V419H1594V346H1531V360H1525V340H1600V425Z" fill="#D9D9D9"/>
<path id="Subtract_22" d="M250 1055H240V1043H250V1055ZM250 997H240V973H250V997ZM250 927H240V813H250V927ZM250 767H240V605H250V767ZM250 559H240V540H230V530H250V559ZM240 490H230V485H240V490Z" fill="#D9D9D9"/>
<path id="Subtract_23" d="M304 1060H240V1050H304V1060ZM570 1060H350V1050H570V1060ZM709 1060H616V1050H709V1060ZM900 1060H755V1050H900V1060Z" fill="#D9D9D9"/>
<path id="Subtract_24" d="M910 995H900V976H910V995ZM910 930H900V910H910V930Z" fill="#D9D9D9"/>
<path id="Subtract_25" d="M1019 810H1000V800H1019V810ZM1078 810H1065V800H1078V810ZM1135 810H1118V800H1135V810ZM1200 810H1181V800H1200V810Z" fill="#D9D9D9"/>
<path id="Subtract_26" d="M1205 1201H1195V1000H1205V1201ZM1205 920H1195V741H1205V920Z" fill="#D9D9D9"/>
<path id="Subtract_27" d="M1005 995H995V989H1005V995ZM1005 917H995V910H1005V917Z" fill="#D9D9D9"/>
<path id="Subtract_28" d="M1263 1010H1200V1000H1263V1010ZM1665 1010H1309V1000H1665V1010ZM1762 1010H1711V1000H1762V1010ZM1839 1010H1808V1000H1839V1010ZM2022 1010H1885V1000H2022V1010ZM2113 1010H2068V1000H2113V1010ZM2255 1010H2159V1000H2255V1010ZM2355 1010H2301V1000H2355V1010Z" fill="#D9D9D9"/>
<path id="Subtract_29" d="M2369 1120H2360V1110H2369V1120ZM2429 1120H2415V1110H2429V1120ZM2480 1120H2466V1110H2480V1120ZM2530 1120H2526V1110H2530V1120Z" fill="#D9D9D9"/>
<path id="Subtract_30" d="M2535 1185H2525V1065H2535V1185ZM2535 1019H2525V1005H2535V1019Z" fill="#D9D9D9"/>
<path id="Subtract_31" d="M1263 920H1200V910H1263V920ZM1535 920H1309V910H1535V920ZM1679 920H1581V910H1679V920ZM1775 920H1725V910H1775V920ZM2022 920H1821V910H2022V920ZM2113 920H2068V910H2113V920ZM2255 920H2159V910H2255V920ZM2405 920H2301V910H2405V920ZM2569 920H2485V910H2569V920ZM2635 920H2615V910H2635V920ZM2715 920H2681V910H2715V920Z" fill="#D9D9D9"/>
<path id="Subtract_32" d="M2768 1063.88H2788V1140H2782V1069.88H2762V1033H2755V1027H2762V1015H2768V1063.88ZM2725 1033H2715V1027H2725V1033ZM2768 985H2762V963H2715V957H2768V985Z" fill="#A5A5A7"/>
<path id="Subtract_33" d="M2657 1010H2525V1000H2657V1010ZM2715 1010H2703V1000H2715V1010Z" fill="#D9D9D9"/>
<path id="Subtract_34" d="M2720 1200H2710V1000H2720V1200ZM2720 963H2710V740H2720V963Z" fill="#D9D9D9"/>
<path id="Subtract_35" d="M1470 485H1460V405H1470V485ZM1650 290H1470V325H1460V280H1650V290Z" fill="#D9D9D9"/>
</g>
<g id="Texts">
<text id="&#208;&#144;&#208;&#146; 2310" fill="#D9D9D9" xml:space="preserve" style="white-space: pre" font-family="GothamSSm" font-size="24" font-weight="bold" letter-spacing="0em"><tspan x="222" y="108.8">&#x410;&#x412; 2310</tspan></text>
<text id="&#208;&#144;&#208;&#146; 2311" fill="#D9D9D9" xml:space="preserve" style="white-space: pre" font-family="GothamSSm" font-size="24" font-weight="bold" letter-spacing="0em"><tspan x="405" y="108.8">&#x410;&#x412; 2311</tspan></text>
<text id="&#208;&#144;&#208;&#146; 2312" fill="#D9D9D9" xml:space="preserve" style="white-space: pre" font-family="GothamSSm" font-size="24" font-weight="bold" letter-spacing="0em"><tspan x="583" y="108.8">&#x410;&#x412; 2312</tspan></text>
<text id="&#208;&#144;&#208;&#146; 2313" fill="#D9D9D9" xml:space="preserve" style="white-space: pre" font-family="GothamSSm" font-size="24" font-weight="bold" letter-spacing="0em"><tspan x="673" y="108.8">&#x410;&#x412; 2313</tspan></text>
<text id="&#208;&#144;&#208;&#146; 2302" fill="#D9D9D9" xml:space="preserve" style="white-space: pre" font-family="GothamSSm" font-size="24" font-weight="bold" letter-spacing="0em"><tspan x="1255" y="393.8">&#x410;&#x412; 2302</tspan></text>
<text id="&#208;&#144;&#208;&#146; 2303" fill="#D9D9D9" xml:space="preserve" style="white-space: pre" font-family="GothamSSm" font-size="24" font-weight="bold" letter-spacing="0em"><tspan x="1121" y="393.8">&#x410;&#x412; 2303</tspan></text>
<text id="&#208;&#144;&#208;&#146; 2307" fill="#D9D9D9" xml:space="preserve" style="white-space: pre" font-family="GothamSSm" font-size="24" font-weight="bold" letter-spacing="0em"><tspan x="581" y="393.8">&#x410;&#x412; 2307</tspan></text>
<text id="&#208;&#144;&#208;&#146; 2305" fill="#D9D9D9" xml:space="preserve" style="white-space: pre" font-family="GothamSSm" font-size="24" font-weight="bold" letter-spacing="0em"><tspan x="761" y="393.8">&#x410;&#x412; 2305</tspan></text>
<text id="&#208;&#144;&#208;&#146; 2306" fill="#D9D9D9" xml:space="preserve" style="white-space: pre" font-family="GothamSSm" font-size="24" font-weight="bold" letter-spacing="0em"><tspan x="670" y="393.8">&#x410;&#x412; 2306</tspan></text>
<text id="&#208;&#144;&#208;&#146; 2315" fill="#D9D9D9" xml:space="preserve" style="white-space: pre" font-family="GothamSSm" font-size="24" font-weight="bold" letter-spacing="0em"><tspan x="1033" y="108.8">&#x410;&#x412; 2315</tspan></text>
<text id="&#208;&#144;&#208;&#146; 2314" fill="#D9D9D9" xml:space="preserve" style="white-space: pre" font-family="GothamSSm" font-size="24" font-weight="bold" letter-spacing="0em"><tspan x="764" y="108.8">&#x410;&#x412; 2314</tspan></text>
<text id="&#208;&#144;&#208;&#146; 2316" fill="#D9D9D9" xml:space="preserve" style="white-space: pre" font-family="GothamSSm" font-size="24" font-weight="bold" letter-spacing="0em"><tspan x="1258" y="108.8">&#x410;&#x412; 2316</tspan></text>
<text id="&#208;&#144;&#208;&#146; 2317" fill="#D9D9D9" xml:space="preserve" style="white-space: pre" font-family="GothamSSm" font-size="24" font-weight="bold" letter-spacing="0em"><tspan x="1435" y="108.8">&#x410;&#x412; 2317</tspan></text>
<text id="&#208;&#144;&#208;&#146; 2318" fill="#D9D9D9" xml:space="preserve" style="white-space: pre" font-family="GothamSSm" font-size="24" font-weight="bold" letter-spacing="0em"><tspan x="1520" y="248.8">&#x410;&#x412; 2318</tspan></text>
<text id="&#208;&#144;&#208;&#146; 2301" fill="#D9D9D9" xml:space="preserve" style="white-space: pre" font-family="GothamSSm" font-size="20" font-weight="bold" letter-spacing="0em"><tspan x="1395" y="454">&#x410;&#x412; 2301</tspan></text>
<text id="&#208;&#144;&#208;&#146; 2304" fill="#D9D9D9" xml:space="preserve" style="white-space: pre" font-family="GothamSSm" font-size="24" font-weight="bold" letter-spacing="0em"><tspan x="1029" y="393.8">&#x410;&#x412; 2304</tspan></text>
<text id="&#208;&#144;&#208;&#146; 2308" fill="#D9D9D9" xml:space="preserve" style="white-space: pre" font-family="GothamSSm" font-size="24" font-weight="bold" letter-spacing="0em"><tspan x="400" y="393.8">&#x410;&#x412; 2308</tspan></text>
<text id="&#208;&#144;&#208;&#146; 1322" fill="#D9D9D9" xml:space="preserve" style="white-space: pre" font-family="GothamSSm" font-size="24" font-weight="bold" letter-spacing="0em"><tspan x="87" y="633.8">&#x410;&#x412; 1322</tspan></text>
<text id="&#208;&#144;&#208;&#146; 1320" fill="#D9D9D9" xml:space="preserve" style="white-space: pre" font-family="GothamSSm" font-size="24" font-weight="bold" letter-spacing="0em"><tspan x="87" y="948.8">&#x410;&#x412; 1320</tspan></text>
<text id="&#208;&#144;&#208;&#146; 1318" fill="#D9D9D9" xml:space="preserve" style="white-space: pre" font-family="GothamSSm" font-size="24" font-weight="bold" letter-spacing="0em"><tspan x="489" y="1123.8">&#x410;&#x412; 1318</tspan></text>
<text id="&#208;&#144;&#208;&#146; 1317" fill="#D9D9D9" xml:space="preserve" style="white-space: pre" font-family="GothamSSm" font-size="24" font-weight="bold" letter-spacing="0em"><tspan x="780" y="1123.8">&#x410;&#x412; 1317</tspan></text>
<text id="&#208;&#144;&#208;&#146; 1319" fill="#D9D9D9" xml:space="preserve" style="white-space: pre" font-family="GothamSSm" font-size="24" font-weight="bold" letter-spacing="0em"><tspan x="87" y="1088.8">&#x410;&#x412; 1319</tspan></text>
<text id="&#208;&#144;&#208;&#146; 1321" fill="#D9D9D9" xml:space="preserve" style="white-space: pre" font-family="GothamSSm" font-size="24" font-weight="bold" letter-spacing="0em"><tspan x="87" y="813.8">&#x410;&#x412; 1321</tspan></text>
<text id="&#208;&#144;&#208;&#146; 1318A" fill="#D9D9D9" xml:space="preserve" style="white-space: pre" font-family="GothamSSm" font-size="24" font-weight="bold" letter-spacing="0em"><tspan x="303" y="1123.8">&#x410;&#x412; 1318A</tspan></text>
<text id="&#208;&#144;&#208;&#146; 1316" fill="#D9D9D9" xml:space="preserve" style="white-space: pre" font-family="GothamSSm" font-size="24" font-weight="bold" letter-spacing="0em"><tspan x="1297" y="1110.8">&#x410;&#x412; 1316</tspan></text>
<text id="&#208;&#144;&#208;&#146; 1301" fill="#D9D9D9" xml:space="preserve" style="white-space: pre" font-family="GothamSSm" font-size="24" font-weight="bold" letter-spacing="0em"><tspan x="1297" y="835.8">&#x410;&#x412; 1301</tspan></text>
<text id="&#208;&#144;&#208;&#146; 1302" fill="#D9D9D9" xml:space="preserve" style="white-space: pre" font-family="GothamSSm" font-size="24" font-weight="bold" letter-spacing="0em"><tspan x="1515" y="835.8">&#x410;&#x412; 1302</tspan></text>
<text id="&#208;&#144;&#208;&#146; 1315" fill="#D9D9D9" xml:space="preserve" style="white-space: pre" font-family="GothamSSm" font-size="24" font-weight="bold" letter-spacing="0em"><tspan x="1562" y="1110.8">&#x410;&#x412; 1315</tspan></text>
<text id="&#208;&#144;&#208;&#146; 1303" fill="#D9D9D9" xml:space="preserve" style="white-space: pre" font-family="GothamSSm" font-size="24" font-weight="bold" letter-spacing="0em"><tspan x="1650" y="835.8">&#x410;&#x412; 1303</tspan></text>
<text id="&#208;&#144;&#208;&#146; 1314" fill="#D9D9D9" xml:space="preserve" style="white-space: pre" font-family="GothamSSm" font-size="24" font-weight="bold" letter-spacing="0em"><tspan x="1742" y="1110.8">&#x410;&#x412; 1314</tspan></text>
<text id="&#208;&#144;&#208;&#146; 1304" fill="#D9D9D9" xml:space="preserve" style="white-space: pre" font-family="GothamSSm" font-size="24" font-weight="bold" letter-spacing="0em"><tspan x="1787" y="835.8">&#x410;&#x412; 1304</tspan></text>
<text id="&#208;&#144;&#208;&#146; 1313" fill="#D9D9D9" xml:space="preserve" style="white-space: pre" font-family="GothamSSm" font-size="24" font-weight="bold" letter-spacing="0em"><tspan x="1880" y="1110.8">&#x410;&#x412; 1313</tspan></text>
<text id="&#208;&#144;&#208;&#146; 1312A" fill="#D9D9D9" xml:space="preserve" style="white-space: pre" font-family="GothamSSm" font-size="24" font-weight="bold" letter-spacing="0em"><tspan x="2001" y="1110.8">&#x410;&#x412; 1312A</tspan></text>
<text id="&#208;&#144;&#208;&#146; 1312" fill="#D9D9D9" xml:space="preserve" style="white-space: pre" font-family="GothamSSm" font-size="24" font-weight="bold" letter-spacing="0em"><tspan x="2097" y="1110.8">&#x410;&#x412; 1312</tspan></text>
<text id="&#208;&#144;&#208;&#146; 1305" fill="#D9D9D9" xml:space="preserve" style="white-space: pre" font-family="GothamSSm" font-size="24" font-weight="bold" letter-spacing="0em"><tspan x="1965" y="835.8">&#x410;&#x412; 1305</tspan></text>
<text id="&#208;&#144;&#208;&#146; 1306" fill="#D9D9D9" xml:space="preserve" style="white-space: pre" font-family="GothamSSm" font-size="24" font-weight="bold" letter-spacing="0em"><tspan x="2094" y="835.8">&#x410;&#x412; 1306</tspan></text>
<text id="&#208;&#144;&#208;&#146; 1307" fill="#D9D9D9" xml:space="preserve" style="white-space: pre" font-family="GothamSSm" font-size="24" font-weight="bold" letter-spacing="0em"><tspan x="2227" y="835.8">&#x410;&#x412; 1307</tspan></text>
<text id="&#208;&#144;&#208;&#146; 1311" fill="#D9D9D9" xml:space="preserve" style="white-space: pre" font-family="GothamSSm" font-size="24" font-weight="bold" letter-spacing="0em"><tspan x="2234" y="1110.8">&#x410;&#x412; 1311</tspan></text>
<text id="&#208;&#144;&#208;&#146; 1308" fill="#D9D9D9" xml:space="preserve" style="white-space: pre" font-family="GothamSSm" font-size="24" font-weight="bold" letter-spacing="0em"><tspan x="2542" y="835.8">&#x410;&#x412; 1308</tspan></text>
<text id="&#208;&#144;&#208;&#146; 1309" fill="#D9D9D9" xml:space="preserve" style="white-space: pre" font-family="GothamSSm" font-size="24" font-weight="bold" letter-spacing="0em"><tspan x="2632" y="835.8">&#x410;&#x412; 1309</tspan></text>
<text id="&#208;&#144;&#208;&#146; 1310" fill="#D9D9D9" xml:space="preserve" style="white-space: pre" font-family="GothamSSm" font-size="24" font-weight="bold" letter-spacing="0em"><tspan x="2821" y="978.8">&#x410;&#x412; 1310</tspan></text>
</g>
<g id="Entrances">
<circle id="1" cx="74" cy="152" r="10" fill="#9CBBFF"/>
<circle id="6" cx="348" cy="195" r="10" fill="#9CBBFF"/>
<circle id="8" cx="442" cy="195" r="10" fill="#9CBBFF"/>
<circle id="9" cx="608" cy="285" r="10" fill="#9CBBFF"/>
<circle id="10" cx="612" cy="195" r="10" fill="#9CBBFF"/>
<circle id="12" cx="708" cy="195" r="10" fill="#9CBBFF"/>
<circle id="13" cx="888" cy="195" r="10" fill="#9CBBFF"/>
<circle id="15" cx="972" cy="285" r="10" fill="#9CBBFF"/>
<circle id="16" cx="1148" cy="195" r="10" fill="#9CBBFF"/>
<circle id="17" cx="1145" cy="285" r="10" fill="#9CBBFF"/>
<circle id="14" cx="888" cy="285" r="10" fill="#9CBBFF"/>
<circle id="11" cx="702" cy="285" r="10" fill="#9CBBFF"/>
<circle id="7" cx="342" cy="285" r="10" fill="#9CBBFF"/>
<circle id="3" cx="181" cy="285" r="10" fill="#9CBBFF"/>
<circle id="18" cx="1279" cy="285" r="10" fill="#9CBBFF"/>
<circle id="19" cx="1278" cy="195" r="10" fill="#9CBBFF"/>
<circle id="20" cx="1418" cy="195" r="10" fill="#9CBBFF"/>
<circle id="21" cx="1465" cy="240" r="10" fill="#9CBBFF"/>
<circle id="22" cx="1418" cy="410" r="10" fill="#9CBBFF"/>
<circle id="23" cx="1488" cy="383" r="10" fill="#9CBBFF"/>
<circle id="24" cx="1528" cy="383" r="10" fill="#9CBBFF"/>
<circle id="25" cx="264" cy="420" r="10" fill="#9CBBFF"/>
<circle id="26" cx="245" cy="582" r="10" fill="#9CBBFF"/>
<circle id="27" cx="245" cy="790" r="10" fill="#9CBBFF"/>
<circle id="28" cx="245" cy="950" r="10" fill="#9CBBFF"/>
<circle id="29" cx="245" cy="1020" r="10" fill="#9CBBFF"/>
<circle id="30" cx="327" cy="1055" r="10" fill="#9CBBFF"/>
<circle id="31" cx="593" cy="1055" r="10" fill="#9CBBFF"/>
<circle id="32" cx="732" cy="1055" r="10" fill="#9CBBFF"/>
<circle id="34" cx="1042" cy="805" r="10" fill="#9CBBFF"/>
<circle id="35" cx="1098" cy="805" r="10" fill="#9CBBFF"/>
<circle id="36" cx="1158" cy="805" r="10" fill="#9CBBFF"/>
<circle id="37" cx="1098" cy="1050" r="10" fill="#9CBBFF"/>
<circle id="38" cx="1286" cy="915" r="10" fill="#9CBBFF"/>
<circle id="39" cx="1286" cy="1005" r="10" fill="#9CBBFF"/>
<circle id="40" cx="1558" cy="915" r="10" fill="#9CBBFF"/>
<circle id="41" cx="1688" cy="1005" r="10" fill="#9CBBFF"/>
<circle id="42" cx="1702" cy="915" r="10" fill="#9CBBFF"/>
<circle id="43" cx="1785" cy="1005" r="10" fill="#9CBBFF"/>
<circle id="44" cx="1798" cy="915" r="10" fill="#9CBBFF"/>
<circle id="45" cx="1862" cy="1005" r="10" fill="#9CBBFF"/>
<circle id="46" cx="2045" cy="915" r="10" fill="#9CBBFF"/>
<circle id="47" cx="2045" cy="1005" r="10" fill="#9CBBFF"/>
<circle id="48" cx="2136" cy="1005" r="10" fill="#9CBBFF"/>
<circle id="49" cx="2136" cy="915" r="10" fill="#9CBBFF"/>
<circle id="50" cx="2278" cy="1005" r="10" fill="#9CBBFF"/>
<circle id="51" cx="2278" cy="915" r="10" fill="#9CBBFF"/>
<circle id="52" cx="2392" cy="1115" r="10" fill="#9CBBFF"/>
<circle id="53" cx="2448" cy="1115" r="10" fill="#9CBBFF"/>
<circle id="54" cx="2503" cy="1115" r="10" fill="#9CBBFF"/>
<circle id="55" cx="2448" cy="880" r="10" fill="#9CBBFF"/>
<circle id="56" cx="2592" cy="915" r="10" fill="#9CBBFF"/>
<circle id="57" cx="2658" cy="915" r="10" fill="#9CBBFF"/>
<circle id="58" cx="2680" cy="1005" r="10" fill="#9CBBFF"/>
<circle id="59" cx="2530" cy="1042" r="10" fill="#9CBBFF"/>
<circle id="60" cx="2715" cy="982" r="10" fill="#9CBBFF"/>
</g>
<g id="Icons">
<g id="Woman">
<g id="Group 5">
<path id="Vector 200" d="M177.5 387L186 408.5H158L166.5 387" stroke="#F783CB" stroke-width="5" stroke-linecap="round" stroke-linejoin="round"/>
<circle id="Ellipse 9" cx="172" cy="369" r="8" stroke="#F783CB" stroke-width="5" stroke-linecap="round" stroke-linejoin="round"/>
</g>
</g>
<g id="Stair">
<g id="Stair frame">
<path id="Vector 152" d="M105 78H80V93H65V108H50V123H25" stroke="#9CD9BC" stroke-width="5" stroke-linecap="round" stroke-linejoin="round"/>
<path id="Vector 154" d="M37 78H52M52 78L49 92M52 78L25 99" stroke="#9CD9BC" stroke-width="3" stroke-linecap="round" stroke-linejoin="round"/>
<path id="Vector 155" d="M93 123H78M78 123L81 109M78 123L105 102" stroke="#9CD9BC" stroke-width="3" stroke-linecap="round" stroke-linejoin="round"/>
</g>
</g>
<g id="Stair_2">
<g id="Stair frame_2">
<path id="Vector 152_2" d="M1588.76 302.224H1573.29V311.408H1564V320.592H1554.71V329.776H1539.24" stroke="#9CD9BC" stroke-width="5" stroke-linecap="round" stroke-linejoin="round"/>
<path id="Vector 154_2" d="M1546.67 302.224H1555.95M1555.95 302.224L1554.1 310.796M1555.95 302.224L1539.24 315.082" stroke="#9CD9BC" stroke-width="3" stroke-linecap="round" stroke-linejoin="round"/>
<path id="Vector 155_2" d="M1581.33 329.776H1572.05M1572.05 329.776L1573.9 321.204M1572.05 329.776L1588.76 316.918" stroke="#9CD9BC" stroke-width="3" stroke-linecap="round" stroke-linejoin="round"/>
</g>
</g>
<g id="Stair_3">
<g id="Stair frame_3">
<path id="Vector 152_3" d="M1589.76 440.224H1574.29V449.408H1565V458.592H1555.71V467.776H1540.24" stroke="#9CD9BC" stroke-width="5" stroke-linecap="round" stroke-linejoin="round"/>
<path id="Vector 154_3" d="M1547.67 440.224H1556.95M1556.95 440.224L1555.1 448.796M1556.95 440.224L1540.24 453.082" stroke="#9CD9BC" stroke-width="3" stroke-linecap="round" stroke-linejoin="round"/>
<path id="Vector 155_3" d="M1582.33 467.776H1573.05M1573.05 467.776L1574.9 459.204M1573.05 467.776L1589.76 454.918" stroke="#9CD9BC" stroke-width="3" stroke-linecap="round" stroke-linejoin="round"/>
</g>
</g>
<g id="Stair_4">
<g id="Stair frame_4">
<path id="Vector 152_4" d="M1140 1080H1115V1095H1100V1110H1085V1125H1060" stroke="#9CD9BC" stroke-width="5" stroke-linecap="round" stroke-linejoin="round"/>
<path id="Vector 154_4" d="M1072 1080H1087M1087 1080L1084 1094M1087 1080L1060 1101" stroke="#9CD9BC" stroke-width="3" stroke-linecap="round" stroke-linejoin="round"/>
<path id="Vector 155_4" d="M1128 1125H1113M1113 1125L1116 1111M1113 1125L1140 1104" stroke="#9CD9BC" stroke-width="3" stroke-linecap="round" stroke-linejoin="round"/>
</g>
</g>
<g id="Men">
<g id="Group 6">
<path id="Vector 200_2" d="M2585.5 1163.5L2594 1142H2566L2574.5 1163.5" stroke="#9CBBFF" stroke-width="5" stroke-linecap="round" stroke-linejoin="round"/>
<circle id="Ellipse 9_2" cx="2580" cy="1124" r="8" stroke="#9CBBFF" stroke-width="5" stroke-linecap="round" stroke-linejoin="round"/>
</g>
</g>
<g id="Woman_2">
<g id="Group 5_2">
<path id="Vector 200_3" d="M2678.5 1142L2687 1163.5H2659L2667.5 1142" stroke="#F783CB" stroke-width="5" stroke-linecap="round" stroke-linejoin="round"/>
<circle id="Ellipse 9_3" cx="2673" cy="1124" r="8" stroke="#F783CB" stroke-width="5" stroke-linecap="round" stroke-linejoin="round"/>
</g>
</g>
<g id="Stair_5">
<g id="Stair frame_5">
<path id="Vector 152_5" d="M285.881 371.102H271.893V379.367H263.5V387.633H255.107V395.898H241.119" stroke="#9CD9BC" stroke-width="5" stroke-linecap="round" stroke-linejoin="round"/>
<path id="Vector 154_5" d="M247.833 371.102H256.226M256.226 371.102L254.548 378.816M256.226 371.102L241.119 382.673" stroke="#9CD9BC" stroke-width="3" stroke-linecap="round" stroke-linejoin="round"/>
<path id="Vector 155_5" d="M279.167 395.898H270.774M270.774 395.898L272.452 388.184M270.774 395.898L285.881 384.327" stroke="#9CD9BC" stroke-width="3" stroke-linecap="round" stroke-linejoin="round"/>
</g>
</g>
<g id="Elevator">
<g id="Vector">
<path d="M1576.83 380.5L1571.83 375.5L1566.83 380.5H1576.83Z" fill="#A091F8"/>
<path d="M1576.83 383.833L1571.83 388.833L1566.83 383.833H1576.83Z" fill="#A091F8"/>
<path d="M1561.83 380.5C1561.83 378 1560.17 375.5 1557.67 375.5H1554.33C1551.83 375.5 1550.17 378 1550.17 380.5V384.667C1550.17 386.333 1551.42 387.583 1552.67 387.583V395.5C1552.67 396.833 1553.78 397.167 1554.33 397.167H1557.67C1558.22 397.167 1559.33 396.833 1559.33 395.5V387.583C1560.58 387.583 1561.83 386.333 1561.83 384.667V380.5Z" fill="#A091F8"/>
<path d="M1559.33 369.667C1559.33 371.508 1557.84 373 1556 373C1554.16 373 1552.67 371.508 1552.67 369.667C1552.67 367.826 1554.16 366.333 1556 366.333C1557.84 366.333 1559.33 367.826 1559.33 369.667Z" fill="#A091F8"/>
</g>
<path id="Vector 201" d="M1553.08 405.917H1543.08V360.083H1583.92V405.917H1573.92" stroke="#A091F8" stroke-width="5" stroke-linecap="round" stroke-linejoin="round"/>
</g>
<g id="Elevator_2">
<g id="Vector_2">
<path d="M1047.83 770.5L1042.83 765.5L1037.83 770.5H1047.83Z" fill="#A091F8"/>
<path d="M1047.83 773.833L1042.83 778.833L1037.83 773.833H1047.83Z" fill="#A091F8"/>
<path d="M1032.83 770.5C1032.83 768 1031.17 765.5 1028.67 765.5H1025.33C1022.83 765.5 1021.17 768 1021.17 770.5V774.667C1021.17 776.333 1022.42 777.583 1023.67 777.583V785.5C1023.67 786.833 1024.78 787.167 1025.33 787.167H1028.67C1029.22 787.167 1030.33 786.833 1030.33 785.5V777.583C1031.58 777.583 1032.83 776.333 1032.83 774.667V770.5Z" fill="#A091F8"/>
<path d="M1030.33 759.667C1030.33 761.508 1028.84 763 1027 763C1025.16 763 1023.67 761.508 1023.67 759.667C1023.67 757.826 1025.16 756.333 1027 756.333C1028.84 756.333 1030.33 757.826 1030.33 759.667Z" fill="#A091F8"/>
</g>
<path id="Vector 201_2" d="M1024.08 795.917H1014.08V750.083H1054.92V795.917H1044.92" stroke="#A091F8" stroke-width="5" stroke-linecap="round" stroke-linejoin="round"/>
</g>
<g id="Elevator_3">
<g id="Vector_3">
<path d="M1112.83 770.5L1107.83 765.5L1102.83 770.5H1112.83Z" fill="#A091F8"/>
<path d="M1112.83 773.833L1107.83 778.833L1102.83 773.833H1112.83Z" fill="#A091F8"/>
<path d="M1097.83 770.5C1097.83 768 1096.17 765.5 1093.67 765.5H1090.33C1087.83 765.5 1086.17 768 1086.17 770.5V774.667C1086.17 776.333 1087.42 777.583 1088.67 777.583V785.5C1088.67 786.833 1089.78 787.167 1090.33 787.167H1093.67C1094.22 787.167 1095.33 786.833 1095.33 785.5V777.583C1096.58 777.583 1097.83 776.333 1097.83 774.667V770.5Z" fill="#A091F8"/>
<path d="M1095.33 759.667C1095.33 761.508 1093.84 763 1092 763C1090.16 763 1088.67 761.508 1088.67 759.667C1088.67 757.826 1090.16 756.333 1092 756.333C1093.84 756.333 1095.33 757.826 1095.33 759.667Z" fill="#A091F8"/>
</g>
<path id="Vector 201_3" d="M1089.08 795.917H1079.08V750.083H1119.92V795.917H1109.92" stroke="#A091F8" stroke-width="5" stroke-linecap="round" stroke-linejoin="round"/>
</g>
<g id="Elevator_4">
<g id="Vector_4">
<path d="M1173.83 770.5L1168.83 765.5L1163.83 770.5H1173.83Z" fill="#A091F8"/>
<path d="M1173.83 773.833L1168.83 778.833L1163.83 773.833H1173.83Z" fill="#A091F8"/>
<path d="M1158.83 770.5C1158.83 768 1157.17 765.5 1154.67 765.5H1151.33C1148.83 765.5 1147.17 768 1147.17 770.5V774.667C1147.17 776.333 1148.42 777.583 1149.67 777.583V785.5C1149.67 786.833 1150.78 787.167 1151.33 787.167H1154.67C1155.22 787.167 1156.33 786.833 1156.33 785.5V777.583C1157.58 777.583 1158.83 776.333 1158.83 774.667V770.5Z" fill="#A091F8"/>
<path d="M1156.33 759.667C1156.33 761.508 1154.84 763 1153 763C1151.16 763 1149.67 761.508 1149.67 759.667C1149.67 757.826 1151.16 756.333 1153 756.333C1154.84 756.333 1156.33 757.826 1156.33 759.667Z" fill="#A091F8"/>
</g>
<path id="Vector 201_4" d="M1150.08 795.917H1140.08V750.083H1180.92V795.917H1170.92" stroke="#A091F8" stroke-width="5" stroke-linecap="round" stroke-linejoin="round"/>
</g>
<g id="Stair_6">
<g id="Stair frame_6">
<path id="Vector 152_6" d="M2485 805H2460V820H2445V835H2430V850H2405" stroke="#9CD9BC" stroke-width="5" stroke-linecap="round" stroke-linejoin="round"/>
<path id="Vector 154_6" d="M2417 805H2432M2432 805L2429 819M2432 805L2405 826" stroke="#9CD9BC" stroke-width="3" stroke-linecap="round" stroke-linejoin="round"/>
<path id="Vector 155_6" d="M2473 850H2458M2458 850L2461 836M2458 850L2485 829" stroke="#9CD9BC" stroke-width="3" stroke-linecap="round" stroke-linejoin="round"/>
</g>
</g>
<g id="Elevator_5">
<g id="Vector_5">
<path d="M2403.83 1146.5L2398.83 1141.5L2393.83 1146.5H2403.83Z" fill="#A091F8"/>
<path d="M2403.83 1149.83L2398.83 1154.83L2393.83 1149.83H2403.83Z" fill="#A091F8"/>
<path d="M2388.83 1146.5C2388.83 1144 2387.17 1141.5 2384.67 1141.5H2381.33C2378.83 1141.5 2377.17 1144 2377.17 1146.5V1150.67C2377.17 1152.33 2378.42 1153.58 2379.67 1153.58V1161.5C2379.67 1162.83 2380.78 1163.17 2381.33 1163.17H2384.67C2385.22 1163.17 2386.33 1162.83 2386.33 1161.5V1153.58C2387.58 1153.58 2388.83 1152.33 2388.83 1150.67V1146.5Z" fill="#A091F8"/>
<path d="M2386.33 1135.67C2386.33 1137.51 2384.84 1139 2383 1139C2381.16 1139 2379.67 1137.51 2379.67 1135.67C2379.67 1133.83 2381.16 1132.33 2383 1132.33C2384.84 1132.33 2386.33 1133.83 2386.33 1135.67Z" fill="#A091F8"/>
</g>
<path id="Vector 201_5" d="M2380.08 1171.92H2370.08V1126.08H2410.92V1171.92H2400.92" stroke="#A091F8" stroke-width="5" stroke-linecap="round" stroke-linejoin="round"/>
</g>
<g id="Elevator_6">
<g id="Vector_6">
<path d="M2460.83 1147.5L2455.83 1142.5L2450.83 1147.5H2460.83Z" fill="#A091F8"/>
<path d="M2460.83 1150.83L2455.83 1155.83L2450.83 1150.83H2460.83Z" fill="#A091F8"/>
<path d="M2445.83 1147.5C2445.83 1145 2444.17 1142.5 2441.67 1142.5H2438.33C2435.83 1142.5 2434.17 1145 2434.17 1147.5V1151.67C2434.17 1153.33 2435.42 1154.58 2436.67 1154.58V1162.5C2436.67 1163.83 2437.78 1164.17 2438.33 1164.17H2441.67C2442.22 1164.17 2443.33 1163.83 2443.33 1162.5V1154.58C2444.58 1154.58 2445.83 1153.33 2445.83 1151.67V1147.5Z" fill="#A091F8"/>
<path d="M2443.33 1136.67C2443.33 1138.51 2441.84 1140 2440 1140C2438.16 1140 2436.67 1138.51 2436.67 1136.67C2436.67 1134.83 2438.16 1133.33 2440 1133.33C2441.84 1133.33 2443.33 1134.83 2443.33 1136.67Z" fill="#A091F8"/>
</g>
<path id="Vector 201_6" d="M2437.08 1172.92H2427.08V1127.08H2467.92V1172.92H2457.92" stroke="#A091F8" stroke-width="5" stroke-linecap="round" stroke-linejoin="round"/>
</g>
<g id="Elevator_7">
<g id="Vector_7">
<path d="M2515.83 1146.5L2510.83 1141.5L2505.83 1146.5H2515.83Z" fill="#A091F8"/>
<path d="M2515.83 1149.83L2510.83 1154.83L2505.83 1149.83H2515.83Z" fill="#A091F8"/>
<path d="M2500.83 1146.5C2500.83 1144 2499.17 1141.5 2496.67 1141.5H2493.33C2490.83 1141.5 2489.17 1144 2489.17 1146.5V1150.67C2489.17 1152.33 2490.42 1153.58 2491.67 1153.58V1161.5C2491.67 1162.83 2492.78 1163.17 2493.33 1163.17H2496.67C2497.22 1163.17 2498.33 1162.83 2498.33 1161.5V1153.58C2499.58 1153.58 2500.83 1152.33 2500.83 1150.67V1146.5Z" fill="#A091F8"/>
<path d="M2498.33 1135.67C2498.33 1137.51 2496.84 1139 2495 1139C2493.16 1139 2491.67 1137.51 2491.67 1135.67C2491.67 1133.83 2493.16 1132.33 2495 1132.33C2496.84 1132.33 2498.33 1133.83 2498.33 1135.67Z" fill="#A091F8"/>
</g>
<path id="Vector 201_7" d="M2492.08 1171.92H2482.08V1126.08H2522.92V1171.92H2512.92" stroke="#A091F8" stroke-width="5" stroke-linecap="round" stroke-linejoin="round"/>
</g>
</g>
</g>
<defs>
<clipPath id="clip0_22_1156">
<rect width="3005" height="1205" fill="white"/>
</clipPath>
</defs>
</svg>
